<svg width="25" height="25" viewBox="0 0 25 25" fill="none" xmlns="http://www.w3.org/2000/svg">
<path fill-rule="evenodd" clip-rule="evenodd" d="M4.67936 8.18568C4.67936 6.24919 6.24919 4.67936 8.18568 4.67936C10.1222 4.67936 11.692 6.24919 11.692 8.18568C11.692 10.1222 10.1222 11.692 8.18568 11.692C6.24919 11.692 4.67936 10.1222 4.67936 8.18568ZM8.18568 7.01269C7.53786 7.01269 7.01269 7.53786 7.01269 8.18568C7.01269 8.8335 7.53786 9.35867 8.18568 9.35867C8.8335 9.35867 9.35867 8.8335 9.35867 8.18568C9.35867 7.53786 8.8335 7.01269 8.18568 7.01269Z" fill="#0075FF"/>
<path fill-rule="evenodd" clip-rule="evenodd" d="M0 5.33333C0 2.38781 2.38781 0 5.33333 0H18.8368C21.7823 0 24.1701 2.38781 24.1701 5.33333V18.8368C24.1701 21.7823 21.7823 24.1701 18.8368 24.1701H5.33333C2.38781 24.1701 0 21.7823 0 18.8368V5.33333ZM5.33333 2.33333C3.67648 2.33333 2.33333 3.67648 2.33333 5.33333V18.8368C2.33333 19.9816 2.97465 20.9767 3.91764 21.4824C3.93367 21.463 3.95043 21.4439 3.96792 21.4253L13.2595 11.5353C14.6386 10.0673 16.9437 9.98666 18.4221 11.3546L21.8368 14.5142V5.33333C21.8368 3.67648 20.4936 2.33333 18.8368 2.33333H5.33333ZM21.8368 17.6932L16.8374 13.0673C16.2998 12.5698 15.4616 12.5992 14.9601 13.133L6.78292 21.8368H18.8368C20.4936 21.8368 21.8368 20.4936 21.8368 18.8368V17.6932Z" fill="#0075FF"/>
</svg>
