<svg width="40" height="40" viewBox="0 0 40 40" fill="none" xmlns="http://www.w3.org/2000/svg">
<path d="M10 2.5H24.4639L33.5 11.2119V34C33.5 35.933 31.933 37.5 30 37.5H10C8.067 37.5 6.5 35.933 6.5 34V6C6.5 4.067 8.067 2.5 10 2.5Z" fill="url(#paint0_linear_219_94332)" stroke="url(#paint1_linear_219_94332)" stroke-linejoin="round"/>
<path d="M28.6504 11C26.4413 11 24.6504 9.20914 24.6504 7L24.6504 2L34.0004 11H28.6504Z" fill="#DADEE5"/>
<path fill-rule="evenodd" clip-rule="evenodd" d="M15.5576 19.6604C15.5576 18.4985 16.4995 17.5566 17.6614 17.5566C18.8233 17.5566 19.7652 18.4985 19.7652 19.6604C19.7652 20.8223 18.8233 21.7642 17.6614 21.7642C16.4995 21.7642 15.5576 20.8223 15.5576 19.6604ZM17.6614 18.9566C17.2727 18.9566 16.9576 19.2717 16.9576 19.6604C16.9576 20.0491 17.2727 20.3642 17.6614 20.3642C18.0501 20.3642 18.3652 20.0491 18.3652 19.6604C18.3652 19.2717 18.0501 18.9566 17.6614 18.9566Z" fill="#1F86FF"/>
<path fill-rule="evenodd" clip-rule="evenodd" d="M12.75 17.949C12.75 16.1817 14.1827 14.749 15.95 14.749H24.0521C25.8194 14.749 27.2521 16.1817 27.2521 17.949V26.0511C27.2521 27.8184 25.8194 29.2511 24.0521 29.2511H15.95C14.1827 29.2511 12.75 27.8184 12.75 26.0511V17.949ZM15.95 16.149C14.9559 16.149 14.15 16.9549 14.15 17.949V26.0511C14.15 26.738 14.5348 27.3351 15.1006 27.6385C15.1102 27.6268 15.1203 27.6154 15.1308 27.6042L20.7057 21.6702C21.5332 20.7894 22.9162 20.741 23.8032 21.5618L25.8521 23.4576V17.949C25.8521 16.9549 25.0462 16.149 24.0521 16.149H15.95ZM25.8521 25.3649L22.8524 22.5894C22.5299 22.2909 22.0269 22.3085 21.726 22.6288L16.8198 27.8511H24.0521C25.0462 27.8511 25.8521 27.0452 25.8521 26.0511V25.3649Z" fill="#1F86FF"/>
<defs>
<linearGradient id="paint0_linear_219_94332" x1="6" y1="2" x2="18.9313" y2="38.3799" gradientUnits="userSpaceOnUse">
<stop stop-color="#F7FAFF"/>
<stop offset="0.37" stop-color="#EDF1F9"/>
<stop offset="1" stop-color="#EDF1F9"/>
</linearGradient>
<linearGradient id="paint1_linear_219_94332" x1="20" y1="2" x2="20" y2="37.5" gradientUnits="userSpaceOnUse">
<stop stop-color="#E4E8F0"/>
<stop offset="1" stop-color="#E5E9F1"/>
</linearGradient>
</defs>
</svg>
