<svg width="29" height="28" viewBox="0 0 29 28" fill="none" xmlns="http://www.w3.org/2000/svg">
<path d="M16.6737 0.831003C16.8594 0.21408 17.5099 -0.135882 18.1268 0.0497531C18.7436 0.235407 19.0933 0.886071 18.9081 1.50288L11.4237 26.3779C11.238 26.9949 10.5866 27.3448 9.96959 27.1591C9.35278 26.9734 9.00379 26.3229 9.18931 25.706L16.6737 0.831003ZM5.75474 5.54389C6.14133 5.02845 6.8721 4.92394 7.38756 5.3105C7.90296 5.69705 8.0074 6.42785 7.62095 6.94331L2.62584 13.6044L7.62095 20.2656C8.00755 20.781 7.90302 21.5128 7.38756 21.8994C6.87225 22.2856 6.14134 22.181 5.75474 21.666L0.233259 14.3046C-0.0777033 13.8898 -0.0778026 13.319 0.233259 12.9042L5.75474 5.54389ZM20.7098 5.3105C21.2253 4.92399 21.9561 5.02846 22.3426 5.54389L27.8631 12.9042C28.1743 13.3191 28.1743 13.8898 27.8631 14.3046L22.3426 21.666C21.9561 22.181 21.2251 22.2855 20.7098 21.8994C20.1944 21.5128 20.0898 20.781 20.4764 20.2656L25.4715 13.6044L20.4764 6.94331C20.0899 6.42785 20.1944 5.69706 20.7098 5.3105Z" fill="#0075FF"/>
</svg>
