<svg width="40" height="40" viewBox="0 0 40 40" fill="none" xmlns="http://www.w3.org/2000/svg">
<path d="M10 2.5H24.4639L33.5 11.2119V34C33.5 35.933 31.933 37.5 30 37.5H10C8.067 37.5 6.5 35.933 6.5 34V6C6.5 4.067 8.067 2.5 10 2.5Z" fill="url(#paint0_linear_413_126454)" stroke="url(#paint1_linear_413_126454)" stroke-linejoin="round"/>
<path d="M28.6504 11C26.4413 11 24.6504 9.20914 24.6504 7L24.6504 2L34.0004 11H28.6504Z" fill="#DADEE5"/>
<path d="M22.4456 13.8667C22.8158 13.9781 23.0257 14.3685 22.9143 14.7387L18.4241 29.6636C18.3126 30.0335 17.9221 30.2436 17.552 30.1323C17.1819 30.021 16.9721 29.6303 17.0833 29.2602L21.5745 14.3354C21.6858 13.9653 22.0755 13.7555 22.4456 13.8667ZM15.0227 17.1626C15.2547 16.8533 15.6939 16.791 16.0032 17.0229C16.312 17.2549 16.3745 17.6933 16.1428 18.0024L13.1458 21.9995L16.1428 25.9956C16.3747 26.3048 16.3123 26.7441 16.0032 26.9761C15.6939 27.208 15.2547 27.1447 15.0227 26.8354L11.7102 22.4194C11.5236 22.1706 11.5237 21.8284 11.7102 21.5796L15.0227 17.1626ZM23.9954 17.0229C24.3046 16.791 24.7439 16.8533 24.9758 17.1626L28.2883 21.5796C28.4748 21.8284 28.4749 22.1706 28.2883 22.4194L24.9758 26.8354C24.7439 27.1447 24.3046 27.208 23.9954 26.9761C23.6862 26.7441 23.6238 26.3048 23.8557 25.9956L26.8528 21.9995L23.8557 18.0024C23.624 17.6933 23.6865 17.2549 23.9954 17.0229Z" fill="#1F86FF"/>
<defs>
<linearGradient id="paint0_linear_413_126454" x1="6" y1="2" x2="18.9313" y2="38.3799" gradientUnits="userSpaceOnUse">
<stop stop-color="#F7FAFF"/>
<stop offset="0.37" stop-color="#EDF1F9"/>
<stop offset="1" stop-color="#EDF1F9"/>
</linearGradient>
<linearGradient id="paint1_linear_413_126454" x1="20" y1="2" x2="20" y2="37.5" gradientUnits="userSpaceOnUse">
<stop stop-color="#E4E8F0"/>
<stop offset="1" stop-color="#E5E9F1"/>
</linearGradient>
</defs>
</svg>
