<svg width="95" height="94" viewBox="0 0 95 94" fill="none" xmlns="http://www.w3.org/2000/svg">
<g clip-path="url(#clip0_6833_154732)">
<rect x="24.0039" y="0.0649414" width="46.9904" height="93.723" rx="7.83333" fill="white"/>
<rect x="24.0039" y="0.0649414" width="46.9904" height="93.723" rx="7.83333" fill="url(#paint0_linear_6833_154732)"/>
<mask id="path-3-inside-1_6833_154732" fill="white">
<path d="M70.9961 27.7485V27.7485C71.4287 27.7485 71.7794 28.0992 71.7794 28.5319V37.98C71.7794 38.4126 71.4287 38.7633 70.9961 38.7633V38.7633V27.7485Z"/>
</mask>
<path d="M70.9961 27.7485V27.7485C71.4287 27.7485 71.7794 28.0992 71.7794 28.5319V37.98C71.7794 38.4126 71.4287 38.7633 70.9961 38.7633V38.7633V27.7485Z" fill="#555555"/>
<path d="M71.7794 28.5319H70.6604V37.98H71.7794H72.8985V28.5319H71.7794ZM70.9961 38.7633H72.1151V27.7485H70.9961H69.877V38.7633H70.9961ZM71.7794 37.98H70.6604C70.6604 37.7946 70.8107 37.6443 70.9961 37.6443V38.7633V39.8824C72.0467 39.8824 72.8985 39.0307 72.8985 37.98H71.7794ZM70.9961 27.7485V28.8676C70.8107 28.8676 70.6604 28.7173 70.6604 28.5319H71.7794H72.8985C72.8985 27.4812 72.0467 26.6295 70.9961 26.6295V27.7485Z" fill="#555555" mask="url(#path-3-inside-1_6833_154732)"/>
<mask id="path-5-inside-2_6833_154732" fill="white">
<path d="M23.2227 19.566C23.2227 19.1334 23.5734 18.7827 24.006 18.7827V18.7827V22.1856V22.1856C23.5734 22.1856 23.2227 21.8348 23.2227 21.4022V19.566Z"/>
</mask>
<path d="M23.2227 19.566C23.2227 19.1334 23.5734 18.7827 24.006 18.7827V18.7827V22.1856V22.1856C23.5734 22.1856 23.2227 21.8348 23.2227 21.4022V19.566Z" fill="#555555"/>
<path d="M24.006 18.7827H22.8869V22.1856H24.006H25.125V18.7827H24.006ZM23.2227 21.4022H24.3417V19.566H23.2227H22.1036V21.4022H23.2227ZM24.006 22.1856V21.0665C24.1914 21.0665 24.3417 21.2168 24.3417 21.4022H23.2227H22.1036C22.1036 22.4529 22.9553 23.3046 24.006 23.3046V22.1856ZM24.006 18.7827V17.6637C22.9553 17.6637 22.1036 18.5154 22.1036 19.566H23.2227H24.3417C24.3417 19.7515 24.1914 19.9018 24.006 19.9018V18.7827Z" fill="#555555" mask="url(#path-5-inside-2_6833_154732)"/>
<mask id="path-7-inside-3_6833_154732" fill="white">
<path d="M23.2227 26.4298C23.2227 25.9972 23.5734 25.6465 24.006 25.6465V25.6465V32.1639V32.1639C23.5734 32.1639 23.2227 31.8131 23.2227 31.3805V26.4298Z"/>
</mask>
<path d="M23.2227 26.4298C23.2227 25.9972 23.5734 25.6465 24.006 25.6465V25.6465V32.1639V32.1639C23.5734 32.1639 23.2227 31.8131 23.2227 31.3805V26.4298Z" fill="#555555"/>
<path d="M24.006 25.6465H22.8869V32.1639H24.006H25.125V25.6465H24.006ZM23.2227 31.3805H24.3417V26.4298H23.2227H22.1036V31.3805H23.2227ZM24.006 32.1639V31.0448C24.1914 31.0448 24.3417 31.1951 24.3417 31.3805H23.2227H22.1036C22.1036 32.4312 22.9553 33.2829 24.006 33.2829V32.1639ZM24.006 25.6465V24.5274C22.9553 24.5274 22.1036 25.3792 22.1036 26.4298H23.2227H24.3417C24.3417 26.6152 24.1914 26.7655 24.006 26.7655V25.6465Z" fill="#555555" mask="url(#path-7-inside-3_6833_154732)"/>
<mask id="path-9-inside-4_6833_154732" fill="white">
<path d="M23.2227 35.5421C23.2227 35.1095 23.5734 34.7588 24.006 34.7588V34.7588V41.2762V41.2762C23.5734 41.2762 23.2227 40.9255 23.2227 40.4928V35.5421Z"/>
</mask>
<path d="M23.2227 35.5421C23.2227 35.1095 23.5734 34.7588 24.006 34.7588V34.7588V41.2762V41.2762C23.5734 41.2762 23.2227 40.9255 23.2227 40.4928V35.5421Z" fill="#555555"/>
<path d="M24.006 34.7588H22.8869V41.2762H24.006H25.125V34.7588H24.006ZM23.2227 40.4928H24.3417V35.5421H23.2227H22.1036V40.4928H23.2227ZM24.006 41.2762V40.1571C24.1914 40.1571 24.3417 40.3074 24.3417 40.4928H23.2227H22.1036C22.1036 41.5435 22.9553 42.3952 24.006 42.3952V41.2762ZM24.006 34.7588V33.6397C22.9553 33.6397 22.1036 34.4915 22.1036 35.5421H23.2227H24.3417C24.3417 35.7275 24.1914 35.8778 24.006 35.8778V34.7588Z" fill="#555555" mask="url(#path-9-inside-4_6833_154732)"/>
<rect x="24.8432" y="0.904227" width="45.3118" height="92.0445" rx="6.99405" stroke="#555555" stroke-width="1.67857"/>
<g filter="url(#filter0_d_6833_154732)">
<path d="M59.6656 53.3659C59.2097 54.4196 58.6699 55.3895 58.0446 56.2812C57.1922 57.4968 56.4942 58.3383 55.9564 58.8055C55.1226 59.5725 54.2292 59.9653 53.2726 59.9877C52.5858 59.9877 51.7576 59.7922 50.7936 59.3957C49.8263 59.001 48.9375 58.8055 48.1247 58.8055C47.2723 58.8055 46.3581 59.001 45.3803 59.3957C44.4009 59.7922 43.612 59.9988 43.0088 60.0193C42.0914 60.0584 41.1771 59.6544 40.2643 58.8055C39.6818 58.2973 38.9532 57.4261 38.0803 56.1918C37.1438 54.8738 36.3738 53.3454 35.7706 51.6029C35.1246 49.7208 34.8008 47.8983 34.8008 46.1339C34.8008 44.1127 35.2374 42.3695 36.112 40.9087C36.7993 39.7353 37.7137 38.8097 38.8581 38.1302C40.0025 37.4507 41.239 37.1045 42.5707 37.0823C43.2993 37.0823 44.2548 37.3078 45.4422 37.7508C46.6263 38.1954 47.3866 38.4208 47.7199 38.4208C47.9691 38.4208 48.8137 38.1572 50.2455 37.6317C51.5994 37.1443 52.7422 36.9425 53.6783 37.022C56.2151 37.2268 58.1209 38.227 59.3883 40.0291C57.1196 41.4041 55.9973 43.3299 56.0197 45.8005C56.0401 47.7248 56.7381 49.3262 58.1097 50.5977C58.7313 51.1878 59.4255 51.6439 60.1979 51.9678C60.0304 52.4537 59.8536 52.9191 59.6656 53.3659ZM53.8477 30.4661C53.8477 31.9744 53.2968 33.3827 52.1987 34.6862C50.8736 36.2359 49.2708 37.1313 47.5327 36.99C47.5105 36.809 47.4977 36.6186 47.4977 36.4185C47.4977 34.9705 48.1279 33.4209 49.247 32.1539C49.8057 31.5124 50.5163 30.979 51.378 30.5535C52.2378 30.1343 53.0511 29.9025 53.8161 29.8628C53.8384 30.0644 53.8477 30.2661 53.8477 30.4661Z" fill="white"/>
</g>
<rect x="41.082" y="3.35693" width="12.8365" height="3.68431" rx="1.84215" fill="#555555"/>
</g>
<defs>
<filter id="filter0_d_6833_154732" x="32.5627" y="28.7437" width="29.8746" height="34.6354" filterUnits="userSpaceOnUse" color-interpolation-filters="sRGB">
<feFlood flood-opacity="0" result="BackgroundImageFix"/>
<feColorMatrix in="SourceAlpha" type="matrix" values="0 0 0 0 0 0 0 0 0 0 0 0 0 0 0 0 0 0 127 0" result="hardAlpha"/>
<feOffset dy="1.11905"/>
<feGaussianBlur stdDeviation="1.11905"/>
<feComposite in2="hardAlpha" operator="out"/>
<feColorMatrix type="matrix" values="0 0 0 0 0.247569 0 0 0 0 0.407382 0 0 0 0 0.941613 0 0 0 0.2 0"/>
<feBlend mode="normal" in2="BackgroundImageFix" result="effect1_dropShadow_6833_154732"/>
<feBlend mode="normal" in="SourceGraphic" in2="effect1_dropShadow_6833_154732" result="shape"/>
</filter>
<linearGradient id="paint0_linear_6833_154732" x1="47.4991" y1="93.788" x2="47.4991" y2="3.00315" gradientUnits="userSpaceOnUse">
<stop stop-color="#678AFF" stop-opacity="0.75"/>
<stop offset="0.644056" stop-color="#67AEFF" stop-opacity="0.75"/>
<stop offset="1" stop-color="#E5D2FF" stop-opacity="0.6"/>
</linearGradient>
<clipPath id="clip0_6833_154732">
<path d="M0.5 10.4444C0.5 4.67614 5.17614 0 10.9444 0H84.0556C89.8239 0 94.5 4.67614 94.5 10.4444V83.5556C94.5 89.3239 89.8239 94 84.0556 94H10.9444C5.17614 94 0.5 89.3239 0.5 83.5556V10.4444Z" fill="white"/>
</clipPath>
</defs>
</svg>
