<svg width="20" height="20" viewBox="0 0 20 20" fill="none" xmlns="http://www.w3.org/2000/svg">
<rect width="20" height="20" rx="10" fill="#2B2B2B"/>
<path fill-rule="evenodd" clip-rule="evenodd" d="M13.3054 9.22453L10.6273 7.3556V4.34899L15.4674 7.71577L13.3054 9.22453ZM14.4164 10L15.962 8.92133V11.0785L14.4164 10ZM10.6273 12.6444L13.3054 10.7755L15.4674 12.2843L10.6273 15.6511V12.6444ZM6.71395 10.7755L9.39203 12.6444V15.6511L4.55216 12.2843L6.71395 10.7755ZM5.60295 10L4.05754 11.0785V8.92133L5.60295 10ZM9.39203 7.3556L6.71395 9.22453L4.55216 7.71577L9.39203 4.34899V7.3556ZM10.0098 11.5247L7.82494 10L10.0098 8.4751L12.1946 10L10.0098 11.5247ZM17.1868 7.60285C17.1835 7.58447 17.1806 7.56649 17.176 7.54872C17.1731 7.53801 17.1696 7.52791 17.1663 7.51741C17.1615 7.50165 17.1566 7.48589 17.1504 7.47034C17.1462 7.45984 17.1413 7.44933 17.1367 7.43903C17.1301 7.42448 17.1233 7.41014 17.1156 7.3962C17.11 7.3859 17.104 7.37621 17.098 7.36631C17.0896 7.35298 17.0811 7.33985 17.0718 7.32712C17.065 7.31783 17.0581 7.30853 17.0507 7.29944C17.041 7.28732 17.0306 7.27581 17.0199 7.2645C17.0118 7.25581 17.0037 7.24733 16.9954 7.23925C16.9841 7.22874 16.9723 7.21864 16.9603 7.20875C16.951 7.20127 16.9419 7.19359 16.9322 7.18673C16.929 7.1841 16.9257 7.18107 16.9222 7.17865L10.3522 2.60832C10.1449 2.46389 9.87445 2.46389 9.66712 2.60832L3.09735 7.17865C3.09367 7.18107 3.09058 7.1841 3.08709 7.18673C3.07741 7.19359 3.06831 7.20127 3.05902 7.20875C3.04721 7.21864 3.03521 7.22874 3.02418 7.23925C3.01566 7.24733 3.00753 7.25581 2.99959 7.2645C2.98875 7.27581 2.97849 7.28732 2.96862 7.29944C2.96126 7.30853 2.95429 7.31783 2.94752 7.32712C2.93822 7.33985 2.92971 7.35298 2.92138 7.36631C2.91538 7.37621 2.90938 7.3859 2.90396 7.3962C2.89602 7.41014 2.88925 7.42448 2.88286 7.43903C2.87821 7.44933 2.87318 7.45984 2.86911 7.47034C2.86311 7.48589 2.85789 7.50165 2.85305 7.51741C2.84975 7.52791 2.84627 7.53801 2.84356 7.54872C2.83911 7.56649 2.83582 7.58447 2.83272 7.60285C2.83117 7.61215 2.82904 7.62124 2.82769 7.63053C2.8242 7.6584 2.82227 7.68648 2.82227 7.71476V12.2851C2.82227 12.3136 2.8242 12.3414 2.82769 12.3693C2.82904 12.3788 2.83117 12.3879 2.83272 12.3972C2.83582 12.4152 2.83911 12.4334 2.84356 12.4511C2.84627 12.4618 2.84975 12.4721 2.85305 12.4824C2.85789 12.4984 2.86311 12.5142 2.86911 12.5297C2.87318 12.5404 2.87821 12.5505 2.88286 12.5608C2.88925 12.5754 2.89602 12.5897 2.90396 12.6038C2.90938 12.6139 2.91538 12.6238 2.92138 12.6333C2.92971 12.6469 2.93822 12.6598 2.94752 12.6727C2.95429 12.6824 2.96126 12.6915 2.96862 12.7006C2.97849 12.7125 2.98875 12.7242 2.99959 12.7353C3.00753 12.7438 3.01566 12.7525 3.02418 12.7604C3.03521 12.7711 3.04721 12.7814 3.05902 12.7913C3.06831 12.7988 3.07741 12.8063 3.08709 12.8133C3.09058 12.8159 3.09367 12.8188 3.09735 12.8212L9.66712 17.3915C9.77088 17.4638 9.89013 17.5 10.0098 17.5C10.1292 17.5 10.2487 17.4638 10.3522 17.3915L16.9222 12.8212C16.9257 12.8188 16.929 12.8159 16.9322 12.8133C16.9419 12.8063 16.951 12.7988 16.9603 12.7913C16.9723 12.7814 16.9841 12.7711 16.9954 12.7604C17.0037 12.7525 17.0118 12.7438 17.0199 12.7353C17.0306 12.7242 17.041 12.7125 17.0507 12.7006C17.0581 12.6915 17.065 12.6824 17.0718 12.6727C17.0811 12.6598 17.0896 12.6469 17.098 12.6333C17.104 12.6238 17.11 12.6139 17.1156 12.6038C17.1233 12.5897 17.1301 12.5754 17.1367 12.5608C17.1413 12.5505 17.1462 12.5404 17.1504 12.5297C17.1566 12.5142 17.1615 12.4984 17.1663 12.4824C17.1696 12.4721 17.1731 12.4618 17.176 12.4511C17.1806 12.4334 17.1835 12.4152 17.1868 12.3972C17.1884 12.3879 17.1905 12.3788 17.1917 12.3693C17.1951 12.3414 17.1973 12.3136 17.1973 12.2851V7.71476C17.1973 7.68648 17.1951 7.6584 17.1917 7.63053C17.1905 7.62124 17.1884 7.61215 17.1868 7.60285Z" fill="white"/>
</svg>
