<svg width="20" height="20" viewBox="0 0 20 20" fill="none" xmlns="http://www.w3.org/2000/svg">
<rect width="20" height="20" rx="10" fill="#0075FF"/>
<path fill-rule="evenodd" clip-rule="evenodd" d="M15.2786 9.41358L12.932 11.7594C11.6369 13.0552 9.53593 13.0552 8.2406 11.7594C8.03657 11.5559 7.87695 11.3266 7.73677 11.0902L8.82708 10C8.87891 9.94774 8.94291 9.91779 9.00407 9.88251C9.07944 10.14 9.21103 10.3838 9.41356 10.5864C10.0603 11.2337 11.1128 11.2328 11.7592 10.5864L14.105 8.24068C14.7523 7.59346 14.7523 6.54126 14.105 5.89453C13.4586 5.2478 12.4064 5.2478 11.7592 5.89453L10.925 6.7296C10.2481 6.46602 9.5188 6.39515 8.80884 6.4992L10.5864 4.72171C11.8823 3.4261 13.9827 3.4261 15.2786 4.72171C16.5738 6.01728 16.5738 8.11804 15.2786 9.41358ZM9.07534 13.2708L8.24057 14.1059C7.59384 14.7523 6.54133 14.7523 5.89449 14.1059C5.24771 13.4586 5.24771 12.4064 5.89449 11.7594L8.24057 9.41358C8.88783 8.76641 9.93962 8.76641 10.5864 9.41358C10.7884 9.6157 10.9201 9.85945 10.9962 10.1167C11.0577 10.0809 11.1209 10.0519 11.1727 9.99998L12.263 8.9102C12.1237 8.67285 11.9633 8.44442 11.7591 8.24074C10.4642 6.94512 8.36297 6.94512 7.06734 8.24074L4.72162 10.5865C3.42613 11.8825 3.42613 13.9827 4.72162 15.2786C6.01724 16.5738 8.11793 16.5738 9.41353 15.2786L11.1915 13.5007C10.4812 13.6054 9.75169 13.5339 9.07534 13.2708Z" fill="white"/>
</svg>
