<svg width="20" height="20" viewBox="0 0 20 20" fill="none" xmlns="http://www.w3.org/2000/svg">
<rect width="20" height="20" rx="10" fill="#EA4C89"/>
<path fill-rule="evenodd" clip-rule="evenodd" d="M17.3474 8.49065C17.2495 8.00826 17.1013 7.53381 16.9099 7.08052C16.723 6.63605 16.4892 6.20745 16.2185 5.80707C15.9503 5.41022 15.6425 5.0363 15.3038 4.69766C14.9643 4.35813 14.5912 4.05036 14.1934 3.78226C13.793 3.51064 13.3643 3.27871 12.9198 3.08998C12.4665 2.89949 11.992 2.75046 11.5104 2.65345C11.0165 2.55203 10.5085 2.5 10.0004 2.5C9.49153 2.5 8.98351 2.55203 8.48959 2.65345C8.00803 2.75046 7.53352 2.89949 7.08017 3.08998C6.63565 3.27871 6.207 3.51064 5.8057 3.78226C5.4088 4.05036 5.03572 4.35813 4.69615 4.69766C4.35659 5.0363 4.04966 5.41022 3.78153 5.80707C3.50988 6.20745 3.27703 6.63605 3.08917 7.08052C2.89778 7.53381 2.75049 8.00826 2.6517 8.49065C2.55116 8.98274 2.5 9.49159 2.5 9.99956C2.5 10.5084 2.55116 11.0173 2.6517 11.5111C2.75049 11.9917 2.89778 12.4671 3.08917 12.9195C3.27703 13.364 3.50988 13.7934 3.78153 14.1947C4.04966 14.5915 4.35659 14.9637 4.69615 15.3032C5.03572 15.6427 5.4088 15.9496 5.8057 16.2177C6.207 16.4894 6.63565 16.7222 7.08017 16.91C7.53352 17.1014 8.00803 17.2478 8.48959 17.3466C8.98351 17.4489 9.49153 17.5 10.0004 17.5C10.5085 17.5 11.0165 17.4489 11.5104 17.3466C11.992 17.2478 12.4665 17.1014 12.9198 16.91C13.3643 16.7222 13.793 16.4894 14.1934 16.2177C14.5912 15.9496 14.9643 15.6427 15.3038 15.3032C15.6425 14.9637 15.9503 14.5915 16.2185 14.1947C16.4892 13.7934 16.723 13.364 16.9099 12.9195C17.1013 12.4671 17.2495 11.9917 17.3474 11.5111C17.4488 11.0173 17.5 10.5084 17.5 9.99956C17.5 9.49159 17.4488 8.98274 17.3474 8.49065ZM16.4037 9.93606C16.3111 9.91578 14.1431 9.44926 11.9426 9.72617C11.8967 9.61682 11.8509 9.50659 11.8041 9.39635C11.67 9.0824 11.5272 8.77197 11.3781 8.46684C13.9077 7.43415 14.9343 5.94906 14.9466 5.93142C15.8445 7.02319 16.3887 8.41657 16.4037 9.93606ZM14.2305 5.19328C14.2146 5.21797 13.3026 6.60694 10.8842 7.51264C9.78965 5.50106 8.58661 3.90308 8.49047 3.77609C8.97469 3.6588 9.48007 3.5953 10.0004 3.5953C11.6215 3.5953 13.1015 4.20028 14.2305 5.19328ZM8.46578 3.78138C8.46578 3.78226 8.4649 3.78226 8.4649 3.78226C8.4649 3.78226 8.45696 3.78403 8.44549 3.78667C8.45167 3.78491 8.45872 3.78403 8.46578 3.78138ZM7.26715 4.20733C7.35183 4.32198 8.53722 5.92701 9.64588 7.89802C6.57038 8.71553 3.9006 8.6829 3.73126 8.68026C4.14756 6.69601 5.48024 5.0513 7.26715 4.20733ZM3.59455 9.99956C3.59455 9.93165 3.59808 9.86463 3.59984 9.79761C3.71274 9.80025 6.8782 9.87169 10.176 8.88486C10.3594 9.24378 10.5349 9.60888 10.6954 9.9731C10.6108 9.99691 10.527 10.0225 10.4432 10.0498C6.98668 11.1672 5.23329 14.2767 5.23329 14.2767C5.23329 14.2767 5.23593 14.2794 5.23593 14.2802C4.21547 13.1452 3.59455 11.6452 3.59455 9.99956ZM10.0004 16.4047C8.4499 16.4047 7.02814 15.8535 5.91947 14.9372C6.00415 15.0051 6.06324 15.0492 6.06324 15.0492C6.06324 15.0492 7.29097 12.3718 11.0897 11.0481C11.1038 11.0428 11.1179 11.0384 11.1329 11.034C12.0343 13.3763 12.4056 15.3376 12.5009 15.8976C11.7327 16.2239 10.8868 16.4047 10.0004 16.4047ZM13.5796 15.312C13.5143 14.9258 13.173 13.0456 12.3324 10.7377C14.4007 10.407 16.192 10.974 16.3243 11.0173C16.0394 12.8013 15.0172 14.3411 13.5796 15.312Z" fill="white"/>
</svg>
