<svg width="32" height="32" viewBox="0 0 32 32" fill="none" xmlns="http://www.w3.org/2000/svg">
<rect width="32" height="32" rx="16" fill="#2B2B2B"/>
<path fill-rule="evenodd" clip-rule="evenodd" d="M4 16.3044C4 21.7398 7.43804 26.3519 12.2065 27.9789C12.8069 28.0922 13.0257 27.7123 13.0257 27.386C13.0257 27.0937 13.0154 26.3202 13.0095 25.2937C9.67163 26.0369 8.96737 23.644 8.96737 23.644C8.4215 22.2225 7.63473 21.8441 7.63473 21.8441C6.5452 21.0804 7.71724 21.0963 7.71724 21.0963C8.9217 21.1832 9.55523 22.3645 9.55523 22.3645C10.6264 24.2445 12.3642 23.7014 13.0478 23.3865C13.1568 22.5911 13.467 22.0495 13.8095 21.7413C11.145 21.4309 8.34341 20.3757 8.34341 15.6609C8.34341 14.3171 8.8112 13.2189 9.57881 12.3586C9.45578 12.0474 9.04399 10.7965 9.69668 9.10305C9.69668 9.10305 10.7044 8.77146 12.9962 10.3637C13.9539 10.091 14.9801 9.95432 16.0004 9.94979C17.0199 9.95432 18.0461 10.091 19.0052 10.3637C21.2956 8.77146 22.3019 9.10305 22.3019 9.10305C22.956 10.7965 22.5442 12.0474 22.4212 12.3586C23.1903 13.2189 23.6544 14.3171 23.6544 15.6609C23.6544 20.387 20.8491 21.4271 18.1758 21.7323C18.6067 22.1122 18.9898 22.863 18.9898 24.0104C18.9898 25.6555 18.9758 26.9826 18.9758 27.386C18.9758 27.7153 19.1916 28.0975 19.8009 27.9774C24.5649 26.3474 28 21.7391 28 16.3044C28 9.50867 22.6267 4 15.9989 4C9.37328 4 4 9.50867 4 16.3044Z" fill="white"/>
</svg>
