<svg width="20" height="20" viewBox="0 0 20 20" fill="none" xmlns="http://www.w3.org/2000/svg">
<rect width="20" height="20" rx="10" fill="#F2F2F2"/>
<path d="M5.82444 11.5653L5.30229 13.5145L3.39385 13.5549C2.82351 12.497 2.5 11.2867 2.5 10.0005C2.5 8.7568 2.80247 7.58395 3.33862 6.55122L5.03808 6.86272L5.78237 8.55157C5.62659 9.00572 5.54168 9.49323 5.54168 10.0005C5.54174 10.5511 5.64147 11.0786 5.82444 11.5653Z" fill="#FBBB00"/>
<path d="M17.369 8.59926C17.4551 9.05296 17.5 9.52152 17.5 10.0004C17.5 10.5374 17.4435 11.0612 17.336 11.5664C16.9709 13.2857 16.0169 14.787 14.6952 15.8494L12.5548 15.7398L12.2519 13.849C13.1289 13.3347 13.8142 12.5299 14.1752 11.5664H10.1646V8.59926H17.369Z" fill="#518EF8"/>
<path d="M14.6961 15.8487C13.4107 16.8819 11.7784 17.5004 10.001 17.5004C7.1447 17.5004 4.66137 15.904 3.39456 13.5546L5.82515 11.5649C6.45854 13.2554 8.08923 14.4587 10.001 14.4587C10.8227 14.4587 11.5925 14.2366 12.2531 13.8488L14.6961 15.8487Z" fill="#28B446"/>
<path d="M14.7871 4.2267L12.3573 6.21592C11.6736 5.78858 10.8655 5.54171 9.99967 5.54171C8.04465 5.54171 6.38403 6.80052 5.78237 8.55157L3.33862 6.55122L3.33802 6.55097C4.58629 4.14429 7.10093 2.5 9.99967 2.5C11.8195 2.5 13.4881 3.14825 14.7871 4.2267Z" fill="#F14336"/>
</svg>
