<svg width="20" height="20" viewBox="0 0 20 20" fill="none" xmlns="http://www.w3.org/2000/svg">
<rect width="20" height="20" rx="10" fill="url(#paint0_linear_664_107959)"/>
<rect width="20" height="20" rx="10" fill="url(#paint1_radial_664_107959)"/>
<path fill-rule="evenodd" clip-rule="evenodd" d="M6.4696 10C6.4696 8.0502 8.0502 6.4696 10 6.4696C11.9498 6.4696 13.5304 8.0502 13.5304 10C13.5304 11.9498 11.9498 13.5304 10 13.5304C8.0502 13.5304 6.4696 11.9498 6.4696 10ZM10 12.2917C8.73434 12.2917 7.70833 11.2657 7.70833 10C7.70833 8.73434 8.73434 7.70833 10 7.70833C11.2657 7.70833 12.2917 8.73434 12.2917 10C12.2917 11.2657 11.2657 12.2917 10 12.2917Z" fill="white"/>
<path d="M13.6699 7.1551C14.1255 7.1551 14.4949 6.78576 14.4949 6.33012C14.4949 5.87448 14.1255 5.5051 13.6699 5.5051C13.2143 5.5051 12.8449 5.87448 12.8449 6.33012C12.8449 6.78576 13.2143 7.1551 13.6699 7.1551Z" fill="white"/>
<path fill-rule="evenodd" clip-rule="evenodd" d="M10 3.125C8.13286 3.125 7.89874 3.13291 7.16545 3.16637C6.43368 3.19975 5.93391 3.31598 5.49661 3.48594C5.04452 3.66161 4.66112 3.89669 4.27889 4.27889C3.89669 4.66112 3.66161 5.04452 3.48594 5.49661C3.31598 5.93391 3.19975 6.43368 3.16637 7.16545C3.13291 7.89874 3.125 8.13286 3.125 10C3.125 11.8671 3.13291 12.1013 3.16637 12.8346C3.19975 13.5663 3.31598 14.0661 3.48594 14.5034C3.66161 14.9555 3.89669 15.3389 4.27889 15.7211C4.66112 16.1033 5.04452 16.3384 5.49661 16.5141C5.93391 16.684 6.43368 16.8003 7.16545 16.8336C7.89874 16.8671 8.13286 16.875 10 16.875C11.8671 16.875 12.1013 16.8671 12.8346 16.8336C13.5663 16.8003 14.0661 16.684 14.5034 16.5141C14.9555 16.3384 15.3389 16.1033 15.7211 15.7211C16.1033 15.3389 16.3384 14.9555 16.5141 14.5034C16.684 14.0661 16.8003 13.5663 16.8336 12.8346C16.8671 12.1013 16.875 11.8671 16.875 10C16.875 8.13286 16.8671 7.89874 16.8336 7.16545C16.8003 6.43368 16.684 5.93391 16.5141 5.49661C16.3384 5.04452 16.1033 4.66112 15.7211 4.27889C15.3389 3.89669 14.9555 3.66161 14.5034 3.48594C14.0661 3.31598 13.5663 3.19975 12.8346 3.16637C12.1013 3.13291 11.8671 3.125 10 3.125ZM10 4.36374C11.8357 4.36374 12.0532 4.37075 12.7781 4.40383C13.4484 4.43439 13.8124 4.54639 14.0547 4.64054C14.3756 4.76526 14.6046 4.91424 14.8452 5.15483C15.0858 5.39539 15.2347 5.62441 15.3595 5.94532C15.4536 6.18758 15.5656 6.5516 15.5962 7.22191C15.6293 7.94685 15.6363 8.1643 15.6363 10C15.6363 11.8357 15.6293 12.0531 15.5962 12.7781C15.5656 13.4484 15.4536 13.8124 15.3595 14.0547C15.2347 14.3756 15.0858 14.6046 14.8452 14.8452C14.6046 15.0858 14.3756 15.2347 14.0547 15.3595C13.8124 15.4536 13.4484 15.5656 12.7781 15.5962C12.0533 15.6292 11.8358 15.6363 10 15.6363C8.16417 15.6363 7.94677 15.6292 7.22191 15.5962C6.55161 15.5656 6.18758 15.4536 5.94532 15.3595C5.62442 15.2347 5.3954 15.0858 5.15483 14.8452C4.91427 14.6046 4.76526 14.3756 4.64054 14.0547C4.54639 13.8124 4.43439 13.4484 4.40383 12.7781C4.37075 12.0531 4.36374 11.8357 4.36374 10C4.36374 8.1643 4.37075 7.94685 4.40383 7.22191C4.43439 6.5516 4.54639 6.18758 4.64054 5.94532C4.76526 5.62441 4.91424 5.39539 5.15483 5.15483C5.3954 4.91424 5.62442 4.76526 5.94532 4.64054C6.18758 4.54639 6.55161 4.43439 7.22191 4.40383C7.94685 4.37075 8.1643 4.36374 10 4.36374Z" fill="white"/>
<defs>
<linearGradient id="paint0_linear_664_107959" x1="1.16694" y1="1.05146" x2="7.47276" y2="25.4432" gradientUnits="userSpaceOnUse">
<stop stop-color="#4E60D3"/>
<stop offset="0.142763" stop-color="#913BAF"/>
<stop offset="0.761458" stop-color="#D52D88"/>
<stop offset="1" stop-color="#F26D4F"/>
</linearGradient>
<radialGradient id="paint1_radial_664_107959" cx="0" cy="0" r="1" gradientUnits="userSpaceOnUse" gradientTransform="translate(6.05487 20) rotate(32.1601) scale(18.6789 13.4426)">
<stop stop-color="#FED276"/>
<stop offset="0.17024" stop-color="#FDBD61" stop-opacity="0.975006"/>
<stop offset="0.454081" stop-color="#F6804D"/>
<stop offset="1" stop-color="#E83D5C" stop-opacity="0.01"/>
</radialGradient>
</defs>
</svg>
