<svg width="20" height="20" viewBox="0 0 20 20" fill="none" xmlns="http://www.w3.org/2000/svg">
<rect width="20" height="20" rx="10" fill="#3A76F0"/>
<path d="M8.7375 3.31673L8.88516 3.91346C8.3043 4.0563 7.74841 4.28618 7.23633 4.59529L6.92051 4.06828C7.48482 3.7276 8.09741 3.47422 8.7375 3.31673ZM11.8875 3.31673L11.7398 3.91346C12.3207 4.0563 12.8766 4.28618 13.3887 4.59529L13.7065 4.06828C13.1416 3.72742 12.5283 3.47403 11.8875 3.31673ZM4.69336 6.29526C4.35265 6.85952 4.09925 7.47207 3.94174 8.11211L4.53852 8.25975C4.68137 7.67895 4.91127 7.12309 5.22041 6.61105L4.69336 6.29526ZM4.36523 9.68699C4.36503 9.38874 4.38731 9.09089 4.43188 8.79599L3.82382 8.70371C3.72539 9.35554 3.72539 10.0184 3.82382 10.6703L4.43188 10.578C4.38731 10.2831 4.36503 9.98524 4.36523 9.68699ZM13.7045 15.3057L13.3887 14.7787C12.8772 15.0876 12.322 15.3175 11.7419 15.4605L11.8896 16.0572C12.5289 15.8996 13.1408 15.6462 13.7045 15.3057ZM16.2598 9.68699C16.26 9.98524 16.2377 10.2831 16.1931 10.578L16.8012 10.6703C16.8996 10.0184 16.8996 9.35554 16.8012 8.70371L16.1931 8.79599C16.2377 9.09089 16.26 9.38874 16.2598 9.68699ZM16.6833 11.2619L16.0865 11.1142C15.9436 11.695 15.7137 12.2509 15.4046 12.7629L15.9316 13.0808C16.2725 12.5159 16.5259 11.9026 16.6833 11.2619ZM11.2036 15.5682C10.6128 15.657 10.0122 15.657 9.42143 15.5682L9.32915 16.1762C9.98102 16.2746 10.644 16.2746 11.2959 16.1762L11.2036 15.5682ZM15.1001 13.2151C14.7453 13.6954 14.3205 14.1199 13.8398 14.4742L14.2049 14.9694C14.7352 14.5795 15.2039 14.1122 15.5953 13.5832L15.1001 13.2151ZM13.8398 4.89981C14.3206 5.25442 14.7454 5.67919 15.1001 6.15992L15.5953 5.79081C15.2051 5.26203 14.7378 4.79476 14.209 4.40458L13.8398 4.89981ZM5.52495 6.15992C5.87958 5.67919 6.30439 5.25442 6.78515 4.89981L6.41601 4.40458C5.88719 4.79476 5.41989 5.26203 5.02968 5.79081L5.52495 6.15992ZM15.9316 6.29526L15.4046 6.61105C15.7135 7.12246 15.9434 7.67761 16.0865 8.2577L16.6833 8.11006C16.5256 7.47073 16.2722 6.85889 15.9316 6.29526ZM9.42143 3.80683C10.0122 3.71796 10.6128 3.71796 11.2036 3.80683L11.2959 3.19882C10.644 3.10039 9.98102 3.10039 9.32915 3.19882L9.42143 3.80683ZM5.84077 15.1324L4.57031 15.4287L4.86665 14.1584L4.26782 14.0179L3.97148 15.2883C3.92295 15.4955 3.98498 15.713 4.13547 15.8635C4.28597 16.014 4.50356 16.076 4.71079 16.0275L5.98022 15.7363L5.84077 15.1324ZM4.39599 13.4694L4.99482 13.6088L5.1999 12.7281C4.90098 12.2257 4.67811 11.6819 4.53852 11.1142L3.94174 11.2619C4.07553 11.8055 4.27886 12.3297 4.54673 12.8214L4.39599 13.4694ZM7.26709 14.8023L6.38628 15.0073L6.52573 15.6061L7.17378 15.4554C7.66548 15.7232 8.18968 15.9265 8.7334 16.0603L8.88105 15.4636C8.31456 15.3223 7.77207 15.0981 7.27119 14.7982L7.26709 14.8023ZM10.3125 4.35537C8.37228 4.35637 6.58574 5.41114 5.64775 7.10942C4.70975 8.8077 4.76836 10.8814 5.80078 12.524L5.28808 14.711L7.47524 14.1984C9.39364 15.4065 11.8663 15.2696 13.6395 13.8569C15.4127 12.4442 16.0986 10.0648 15.3494 7.9251C14.6002 5.78544 12.5797 4.3535 10.3125 4.35537Z" fill="white"/>
</svg>
