<svg width="32" height="32" viewBox="0 0 32 32" fill="none" xmlns="http://www.w3.org/2000/svg">
<rect width="32" height="32" rx="16" fill="#25A3E1"/>
<path fill-rule="evenodd" clip-rule="evenodd" d="M6.3749 15.3184C11.7436 12.9193 15.3236 11.3377 17.1148 10.5735C22.2292 8.39166 23.2919 8.01265 23.9846 8.00013C24.1369 7.99738 24.4776 8.03611 24.6982 8.21974C24.8845 8.3748 24.9358 8.58426 24.9603 8.73128C24.9848 8.87829 25.0154 9.21319 24.9911 9.47487C24.714 12.4617 23.5147 19.7098 22.9046 23.055C22.6465 24.4705 22.1382 24.9451 21.6461 24.9916C20.5766 25.0925 19.7645 24.2667 18.7287 23.5702C17.1078 22.4805 16.1921 21.8021 14.6188 20.7387C12.8005 19.5097 13.9792 18.8343 15.0154 17.7304C15.2866 17.4415 19.9987 13.0455 20.0899 12.6467C20.1013 12.5968 20.1119 12.4109 20.0042 12.3127C19.8965 12.2146 19.7376 12.2481 19.6229 12.2748C19.4604 12.3127 16.871 14.0681 11.8549 17.541C11.1199 18.0587 10.4542 18.3109 9.8577 18.2977C9.20015 18.2831 7.93528 17.9163 6.99498 17.6028C5.84166 17.2183 4.92503 17.015 5.00485 16.362C5.04642 16.0218 5.5031 15.674 6.3749 15.3184Z" fill="white"/>
</svg>
