<svg width="20" height="20" viewBox="0 0 20 20" fill="none" xmlns="http://www.w3.org/2000/svg">
<rect width="20" height="20" rx="10" fill="#25A3E1"/>
<path fill-rule="evenodd" clip-rule="evenodd" d="M3.98431 9.57399C7.33975 8.07456 9.57723 7.08604 10.6968 6.60844C13.8932 5.24479 14.5574 5.00791 14.9904 5.00008C15.0856 4.99836 15.2985 5.02257 15.4364 5.13734C15.5528 5.23425 15.5849 5.36516 15.6002 5.45705C15.6155 5.54893 15.6346 5.75824 15.6194 5.92179C15.4462 7.78853 14.6967 12.3186 14.3154 14.4094C14.1541 15.2941 13.8364 15.5907 13.5288 15.6197C12.8604 15.6828 12.3528 15.1667 11.7054 14.7314C10.6924 14.0503 10.1201 13.6263 9.13674 12.9617C8.00033 12.1936 8.73702 11.7714 9.38466 11.0815C9.55415 10.9009 12.4992 8.15342 12.5562 7.90418C12.5633 7.873 12.5699 7.75681 12.5026 7.69545C12.4353 7.6341 12.336 7.65508 12.2643 7.67177C12.1627 7.69542 10.5444 8.79254 7.40929 10.9631C6.94993 11.2867 6.53385 11.4443 6.16106 11.436C5.75009 11.4269 4.95955 11.1977 4.37186 11.0018C3.65104 10.7614 3.07814 10.6344 3.12803 10.2262C3.15401 10.0136 3.43944 9.79623 3.98431 9.57399Z" fill="white"/>
</svg>
