<svg width="20" height="20" viewBox="0 0 20 20" fill="none" xmlns="http://www.w3.org/2000/svg">
<rect width="20" height="20" rx="10" fill="#323E4D"/>
<path fill-rule="evenodd" clip-rule="evenodd" d="M10.5948 2.5V6.29079H14.3007V8.64571H10.5948V12.4921C10.5948 13.3626 10.6426 13.9209 10.7381 14.1661C10.8336 14.4148 11.0118 14.6115 11.2744 14.7588C11.6189 14.9581 12.0138 15.0569 12.4592 15.0569C13.25 15.0569 14.0362 14.809 14.8187 14.316V16.6833C14.151 16.9832 13.5476 17.1957 13.0066 17.3174C12.4647 17.44 11.8797 17.5 11.2515 17.5C10.536 17.5 9.90505 17.4136 9.35674 17.2407C8.80844 17.0661 8.34004 16.8209 7.95337 16.4998C7.56579 16.1797 7.29577 15.8374 7.14699 15.4767C6.99728 15.116 6.92289 14.593 6.92289 13.9068V8.64571H5.19531V6.52276C5.81066 6.33136 6.33509 6.05618 6.77318 5.69986C7.20944 5.34265 7.56212 4.91312 7.82571 4.41127C8.09022 3.91118 8.27299 3.27351 8.3731 2.5H10.5948Z" fill="white"/>
</svg>
