<svg width="20" height="20" viewBox="0 0 20 20" fill="none" xmlns="http://www.w3.org/2000/svg">
<rect width="20" height="20" rx="10" fill="#665CAC"/>
<path d="M13.5034 10.0832C13.6047 10.0824 13.6862 9.99686 13.6855 9.89209C13.6764 8.64124 13.3113 7.64645 12.588 6.91481C11.8673 6.18813 10.9662 5.81883 9.89991 5.81177C9.79863 5.8111 9.716 5.8955 9.71535 6.00027C9.7147 6.10505 9.79628 6.19053 9.89756 6.1912C10.8706 6.19764 11.6804 6.52953 12.3318 7.18633C12.981 7.84298 13.3103 8.74041 13.3187 9.89492C13.3194 9.9997 13.4022 10.084 13.5034 10.0832Z" fill="white"/>
<path d="M12.534 9.69375C12.6352 9.69613 12.7192 9.61314 12.7215 9.50839C12.7378 8.76684 12.5231 8.14074 12.077 7.638C11.6302 7.13436 11.0139 6.8555 10.2338 6.79819C10.1327 6.79077 10.045 6.86948 10.0378 6.974C10.0307 7.07851 10.1068 7.16926 10.2078 7.17668C10.8988 7.22744 11.4269 7.46641 11.8068 7.89458C12.1871 8.32312 12.369 8.85373 12.3548 9.49977C12.3525 9.60452 12.4327 9.69137 12.534 9.69375Z" fill="white"/>
<path d="M11.7813 9.16852C11.7862 9.27318 11.7082 9.36212 11.607 9.36718C11.5058 9.37224 11.4198 9.2915 11.415 9.18684C11.3847 8.53847 11.0935 8.22742 10.4917 8.19435C10.3906 8.18879 10.313 8.09946 10.3183 7.99483C10.3237 7.8902 10.4101 7.80989 10.5112 7.81545C11.3031 7.85897 11.742 8.3279 11.7813 9.16852Z" fill="white"/>
<path d="M10.9345 11.5638C10.7974 11.7416 10.5385 11.7191 10.5385 11.7191C8.65411 11.2216 8.14929 9.24746 8.14929 9.24746C8.14929 9.24746 8.12753 8.98184 8.29943 8.83778L8.63888 8.55865C8.8086 8.42359 8.91522 8.09719 8.74332 7.77754C8.64758 7.59971 8.4561 7.28232 8.31466 7.08198C8.16453 6.87038 7.81638 6.43818 7.8142 6.43593C7.64666 6.22884 7.3986 6.18157 7.13749 6.32113C7.13749 6.32113 7.13531 6.32338 7.13314 6.32338C6.88508 6.46745 6.65443 6.66104 6.43902 6.9064L6.43466 6.9109C6.27365 7.11124 6.18008 7.30933 6.15832 7.50292C6.15397 7.52543 6.15179 7.55469 6.15397 7.58846C6.15179 7.674 6.16485 7.75728 6.19096 7.84057L6.19967 7.84732C6.28017 8.14671 6.48471 8.64419 6.92642 9.47481C7.21365 10.0128 7.5074 10.463 7.79897 10.8412C7.95128 11.0415 8.12536 11.2464 8.32554 11.4557L8.40388 11.5368C8.60624 11.7438 8.80425 11.9239 8.9979 12.0815C9.36346 12.3831 9.79647 12.687 10.3187 12.9842C11.1216 13.4411 11.6025 13.6527 11.8919 13.736L11.8984 13.745C11.9789 13.772 12.0594 13.7833 12.1421 13.7833C12.1748 13.7855 12.203 13.7833 12.2248 13.7788C12.4119 13.7563 12.6034 13.6595 12.7971 13.4929L12.8014 13.4884C13.0386 13.2655 13.2257 13.0247 13.365 12.7703C13.365 12.7703 13.3672 12.7681 13.3672 12.7658C13.5021 12.4957 13.4564 12.2391 13.2562 12.0657C13.2562 12.0657 12.8362 11.7033 12.6317 11.548C12.4402 11.4017 12.1312 11.2059 11.9593 11.1046C11.6504 10.9267 11.3348 11.037 11.2043 11.2126L10.9345 11.5638Z" fill="white"/>
<path fill-rule="evenodd" clip-rule="evenodd" d="M15.3232 4.58768C14.962 4.24552 13.5063 3.15152 10.2642 3.13577C10.2642 3.13577 6.43894 2.89716 4.57417 4.66646C3.53626 5.7402 3.1707 7.31142 3.13371 9.2608C3.09454 11.2102 3.0445 14.8591 6.44764 15.8495H6.44982L6.44764 17.36C6.44764 17.36 6.42588 17.9723 6.81537 18.0961C7.20785 18.222 7.46531 17.9194 7.80184 17.5239C7.86828 17.4458 7.93787 17.364 8.01213 17.2812C8.25801 17.0066 8.59963 16.6014 8.85639 16.293C11.1825 16.4956 12.9732 16.0319 13.1756 15.9644C13.2175 15.9503 13.2769 15.9347 13.3505 15.9153C14.1022 15.7175 16.343 15.1279 16.7354 11.8045C17.1815 8.043 16.5178 5.66142 15.3232 4.58768ZM12.9644 14.8634C13.6033 14.7101 15.3876 14.2817 15.7171 11.5346C16.0935 8.39215 15.5778 6.24693 14.5682 5.34877C14.2636 5.06289 12.9493 4.20975 10.2055 4.19624C10.2055 4.19624 6.9568 3.97564 5.37926 5.45232C4.50236 6.34822 4.20643 7.68083 4.1738 9.30832L4.17024 9.4741C4.13341 11.1384 4.06851 14.0717 6.85018 14.8706C6.85018 14.8706 6.8393 17.1779 6.83713 17.3805C6.83713 17.5223 6.85889 17.6191 6.93722 17.6394C6.99379 17.6551 7.07865 17.6236 7.15046 17.5493C7.60958 17.0698 9.08268 15.233 9.08268 15.233C11.0584 15.3681 12.6294 14.9629 12.7992 14.9066C12.8382 14.8937 12.8945 14.8802 12.9644 14.8634Z" fill="white"/>
</svg>
