<svg width="32" height="32" viewBox="0 0 32 32" fill="none" xmlns="http://www.w3.org/2000/svg">
<rect width="32" height="32" rx="16" fill="#665CAC"/>
<path d="M21.6055 16.1332C21.7676 16.1319 21.8979 15.995 21.8967 15.8273C21.8823 13.826 21.2981 12.2343 20.1408 11.0637C18.9876 9.901 17.5459 9.31012 15.8399 9.29883C15.6778 9.29776 15.5456 9.43279 15.5446 9.60044C15.5435 9.76808 15.6741 9.90485 15.8361 9.90592C17.393 9.91622 18.6886 10.4472 19.7309 11.4981C20.7696 12.5488 21.2965 13.9847 21.3099 15.8319C21.3111 15.9995 21.4435 16.1344 21.6055 16.1332Z" fill="white"/>
<path d="M20.0543 15.51C20.2164 15.5138 20.3507 15.381 20.3544 15.2134C20.3804 14.0269 20.0369 13.0252 19.3233 12.2208C18.6083 11.415 17.6222 10.9688 16.374 10.8771C16.2124 10.8652 16.072 10.9912 16.0606 11.1584C16.0491 11.3256 16.1708 11.4708 16.3325 11.4827C17.4381 11.5639 18.2831 11.9463 18.8909 12.6313C19.4993 13.317 19.7904 14.166 19.7677 15.1996C19.764 15.3672 19.8923 15.5062 20.0543 15.51Z" fill="white"/>
<path d="M18.8501 14.6696C18.8579 14.8371 18.733 14.9794 18.5712 14.9875C18.4093 14.9956 18.2718 14.8664 18.2639 14.6989C18.2155 13.6616 17.7496 13.1639 16.7868 13.111C16.625 13.1021 16.5007 12.9591 16.5093 12.7917C16.5179 12.6243 16.6561 12.4958 16.8179 12.5047C18.085 12.5743 18.7872 13.3246 18.8501 14.6696Z" fill="white"/>
<path d="M17.4952 18.502C17.2758 18.7866 16.8615 18.7505 16.8615 18.7505C13.8466 17.9546 13.0389 14.7959 13.0389 14.7959C13.0389 14.7959 13.0041 14.3709 13.2791 14.1404L13.8222 13.6938C14.0938 13.4777 14.2644 12.9555 13.9893 12.4441C13.8361 12.1595 13.5298 11.6517 13.3035 11.3312C13.0632 10.9926 12.5062 10.3011 12.5027 10.2975C12.2346 9.96614 11.8378 9.89051 11.42 10.1138C11.42 10.1138 11.4165 10.1174 11.413 10.1174C11.0161 10.3479 10.6471 10.6577 10.3024 11.0502L10.2955 11.0574C10.0378 11.378 9.88813 11.6949 9.85332 12.0047C9.84635 12.0407 9.84287 12.0875 9.84635 12.1415C9.84287 12.2784 9.86376 12.4117 9.90554 12.5449L9.91946 12.5557C10.0483 13.0347 10.3755 13.8307 11.0823 15.1597C11.5418 16.0205 12.0118 16.7408 12.4784 17.3459C12.7221 17.6664 13.0006 17.9942 13.3209 18.3291L13.4462 18.4588C13.77 18.7902 14.0868 19.0783 14.3966 19.3304C14.9815 19.813 15.6744 20.2992 16.5099 20.7747C17.7946 21.5058 18.564 21.8443 19.027 21.9776L19.0375 21.992C19.1663 22.0352 19.2951 22.0532 19.4274 22.0532C19.4796 22.0568 19.5249 22.0532 19.5597 22.046C19.8591 22.01 20.1655 21.8551 20.4753 21.5886L20.4823 21.5814C20.8618 21.2249 21.1612 20.8395 21.384 20.4325C21.384 20.4325 21.3875 20.4289 21.3875 20.4253C21.6033 19.9931 21.5302 19.5825 21.2099 19.3052C21.2099 19.3052 20.538 18.7253 20.2107 18.4768C19.9043 18.2427 19.41 17.9294 19.1349 17.7673C18.6406 17.4828 18.1358 17.6592 17.9269 17.9402L17.4952 18.502Z" fill="white"/>
<path fill-rule="evenodd" clip-rule="evenodd" d="M24.5172 7.34028C23.9393 6.79283 21.6101 5.04244 16.4227 5.01723C16.4227 5.01723 10.3023 4.63545 7.31867 7.46634C5.65801 9.18432 5.07312 11.6983 5.01394 14.8173C4.95127 17.9363 4.87119 23.7746 10.3162 25.3593H10.3197L10.3162 27.776C10.3162 27.776 10.2814 28.7556 10.9046 28.9537C11.5326 29.1552 11.9445 28.671 12.4829 28.0382C12.5893 27.9132 12.7006 27.7823 12.8194 27.6499C13.2128 27.2105 13.7594 26.5622 14.1702 26.0688C17.8919 26.3929 20.7572 25.651 21.081 25.543C21.148 25.5205 21.243 25.4955 21.3608 25.4645C22.5635 25.148 26.1488 24.2047 26.7767 18.8871C27.4904 12.8688 26.4285 9.05827 24.5172 7.34028ZM20.7431 23.7815C21.7653 23.5361 24.6201 22.8507 25.1473 18.4553C25.7496 13.4274 24.9245 9.99508 23.3091 8.55803C22.8217 8.10062 20.7189 6.7356 16.3287 6.71399C16.3287 6.71399 11.1309 6.36103 8.60681 8.72371C7.20378 10.1572 6.73029 12.2893 6.67807 14.8933L6.67238 15.1586C6.61346 17.8215 6.50962 22.5148 10.9603 23.793C10.9603 23.793 10.9429 27.4846 10.9394 27.8088C10.9394 28.0357 10.9742 28.1906 11.0996 28.223C11.1901 28.2482 11.3258 28.1978 11.4407 28.0789C12.1753 27.3118 14.5323 24.3728 14.5323 24.3728C17.6935 24.5889 20.2071 23.9406 20.4787 23.8506C20.5412 23.83 20.6312 23.8084 20.7431 23.7815Z" fill="white"/>
</svg>
