<svg width="32" height="32" viewBox="0 0 32 32" fill="none" xmlns="http://www.w3.org/2000/svg">
<rect width="32" height="32" rx="16" fill="#20D329"/>
<path fill-rule="evenodd" clip-rule="evenodd" d="M7.00723 18.9619C5.16794 17.6354 4 15.6799 4 13.5258C4 9.52527 7.88187 6.29688 12.6747 6.29688C16.9959 6.29688 20.5808 8.93109 21.2337 12.3692C21.1941 12.3689 21.1544 12.3683 21.1148 12.3678C20.9985 12.3662 20.883 12.3646 20.7711 12.3692C16.3955 12.363 12.8554 15.3074 12.8482 18.9619C12.8554 19.5513 12.9583 20.1436 13.1373 20.6969C12.9888 20.7133 12.8302 20.7174 12.6747 20.6969C11.681 20.7174 10.7257 20.576 9.84096 20.3499C9.73933 20.3253 9.58654 20.2969 9.49499 20.2969C9.40344 20.2969 9.26782 20.3346 9.14699 20.4077L7.23855 21.5065C7.17405 21.5409 7.1227 21.5643 7.06506 21.5643C6.90017 21.5643 6.77106 21.4353 6.7759 21.2752C6.77279 21.2297 6.78756 21.1869 6.80497 21.1365C6.81461 21.1085 6.82506 21.0782 6.83373 21.0439C6.84268 21.0084 6.87118 20.8886 6.91129 20.72C6.98024 20.4301 7.08351 19.9959 7.18072 19.5981C7.20358 19.5045 7.2152 19.4334 7.21514 19.3672C7.2152 19.1757 7.14271 19.0616 7.00723 18.9619ZM8.56868 11.2125C8.56868 11.8515 9.08642 12.3692 9.7253 12.3692C10.3642 12.3692 10.8819 11.8515 10.8819 11.2125C10.8819 10.5738 10.3642 10.0559 9.7253 10.0559C9.08642 10.0559 8.56868 10.5738 8.56868 11.2125ZM14.3518 11.2125C14.3518 11.8515 14.8695 12.3692 15.5084 12.3692C16.1471 12.3692 16.6651 11.8515 16.6651 11.2125C16.6651 10.5738 16.1471 10.0559 15.5084 10.0559C14.8695 10.0559 14.3518 10.5738 14.3518 11.2125Z" fill="white"/>
<path fill-rule="evenodd" clip-rule="evenodd" d="M20.7711 12.9475C24.7633 12.9475 28 15.6375 28 18.9619C28 20.7662 27.026 22.3961 25.5133 23.4728C25.3796 23.5848 25.3178 23.713 25.3178 23.8324C25.3178 23.9518 25.3256 23.988 25.3398 24.0511C25.4401 24.4964 25.6338 25.2019 25.6508 25.2591C25.6536 25.2687 25.6566 25.2781 25.6595 25.2876C25.6743 25.3349 25.6891 25.3821 25.6867 25.439C25.6895 25.5627 25.582 25.6704 25.4554 25.6704C25.3963 25.6704 25.3538 25.651 25.2819 25.6125L23.7205 24.6872C23.7161 24.6849 23.7116 24.6826 23.7072 24.6802C23.6005 24.6238 23.4783 24.5593 23.3386 24.5867C23.2005 24.6138 23.1976 24.6145 23.1501 24.6273L23.1422 24.6294C22.3923 24.8469 21.5958 24.9644 20.7711 24.9764C16.7787 24.9644 13.5422 22.2744 13.5422 18.9619C13.5422 15.6375 16.7787 12.9475 20.7711 12.9475ZM17.4169 16.9676C17.4169 17.5068 17.8313 17.921 18.3141 17.921C18.8535 17.921 19.2675 17.5068 19.2675 16.9676C19.2675 16.4847 18.8535 16.0704 18.3141 16.0704C17.8313 16.0704 17.4169 16.4847 17.4169 16.9676ZM22.2169 16.9676C22.2169 17.5068 22.6313 17.921 23.1141 17.921C23.6535 17.921 24.0675 17.5068 24.0675 16.9676C24.0675 16.4847 23.6535 16.0704 23.1141 16.0704C22.6313 16.0704 22.2169 16.4847 22.2169 16.9676Z" fill="white"/>
</svg>
