<svg width="20" height="20" viewBox="0 0 20 20" fill="none" xmlns="http://www.w3.org/2000/svg">
<rect width="20" height="20" rx="10" fill="#20D329"/>
<path fill-rule="evenodd" clip-rule="evenodd" d="M4.37952 11.8512C3.22997 11.0221 2.5 9.79995 2.5 8.45362C2.5 5.95329 4.92617 3.93555 7.92169 3.93555C10.6224 3.93555 12.863 5.58193 13.2711 7.73073C13.2463 7.73054 13.2215 7.7302 13.1968 7.72986C13.1241 7.72886 13.0519 7.72787 12.9819 7.73073C10.2472 7.72689 8.03461 9.56713 8.03012 11.8512C8.03461 12.2196 8.09894 12.5898 8.21084 12.9355C8.11801 12.9458 8.01889 12.9484 7.92169 12.9355C7.30065 12.9484 6.70359 12.86 6.1506 12.7187C6.08708 12.7033 5.99159 12.6856 5.93437 12.6856C5.87715 12.6856 5.79238 12.7091 5.71687 12.7548L4.5241 13.4416C4.48378 13.4631 4.45169 13.4777 4.41566 13.4777C4.3126 13.4777 4.23191 13.3971 4.23494 13.297C4.23299 13.2686 4.24222 13.2418 4.25311 13.2103C4.25913 13.1928 4.26566 13.1739 4.27108 13.1524C4.27668 13.1302 4.29449 13.0554 4.31955 12.95C4.36265 12.7688 4.42719 12.4974 4.48795 12.2488C4.50224 12.1903 4.5095 12.1459 4.50947 12.1045C4.5095 11.9848 4.46419 11.9135 4.37952 11.8512ZM5.35542 7.00784C5.35542 7.40716 5.67901 7.73073 6.07831 7.73073C6.47761 7.73073 6.8012 7.40716 6.8012 7.00784C6.8012 6.60864 6.47761 6.28494 6.07831 6.28494C5.67901 6.28494 5.35542 6.60864 5.35542 7.00784ZM8.96988 7.00784C8.96988 7.40716 9.29344 7.73073 9.69277 7.73073C10.092 7.73073 10.4157 7.40716 10.4157 7.00784C10.4157 6.60864 10.092 6.28494 9.69277 6.28494C9.29344 6.28494 8.96988 6.60864 8.96988 7.00784Z" fill="white"/>
<path fill-rule="evenodd" clip-rule="evenodd" d="M12.9819 8.09217C15.477 8.09217 17.5 9.77343 17.5 11.8512C17.5 12.9789 16.8913 13.9975 15.9458 14.6705C15.8623 14.7405 15.8236 14.8206 15.8236 14.8952C15.8236 14.9698 15.8285 14.9925 15.8373 15.0319C15.9 15.3102 16.0211 15.7512 16.0317 15.7869C16.0335 15.7929 16.0353 15.7988 16.0372 15.8048C16.0464 15.8343 16.0557 15.8638 16.0542 15.8994C16.056 15.9767 15.9888 16.044 15.9096 16.044C15.8727 16.044 15.8461 16.0319 15.8012 16.0078L14.8253 15.4295C14.8225 15.4281 14.8198 15.4266 14.817 15.4251C14.7503 15.3899 14.6739 15.3495 14.5867 15.3667C14.5003 15.3836 14.4985 15.3841 14.4688 15.392L14.4639 15.3934C13.9952 15.5293 13.4974 15.6028 12.9819 15.6102C10.4867 15.6028 8.46385 13.9215 8.46385 11.8512C8.46385 9.77343 10.4867 8.09217 12.9819 8.09217ZM10.8856 10.6048C10.8856 10.9418 11.1446 11.2006 11.4463 11.2006C11.7834 11.2006 12.0422 10.9418 12.0422 10.6048C12.0422 10.303 11.7834 10.044 11.4463 10.044C11.1446 10.044 10.8856 10.303 10.8856 10.6048ZM13.8855 10.6048C13.8855 10.9418 14.1446 11.2006 14.4463 11.2006C14.7834 11.2006 15.0422 10.9418 15.0422 10.6048C15.0422 10.303 14.7834 10.044 14.4463 10.044C14.1446 10.044 13.8855 10.303 13.8855 10.6048Z" fill="white"/>
</svg>
