<svg width="32" height="32" viewBox="0 0 32 32" fill="none" xmlns="http://www.w3.org/2000/svg">
<rect width="32" height="32" rx="16" fill="#43C453"/>
<path d="M13.3527 10.6144C13.538 10.622 13.743 10.6307 13.9378 11.0637C14.0709 11.3597 14.2949 11.9115 14.4734 12.3513C14.605 12.6753 14.7118 12.9386 14.7394 12.9937C14.8044 13.1237 14.8477 13.2756 14.761 13.4492C14.7481 13.4752 14.7361 13.4997 14.7246 13.5231C14.6595 13.656 14.6116 13.7537 14.5013 13.8828C14.4581 13.9333 14.4134 13.9877 14.3687 14.042C14.2789 14.1512 14.1891 14.2604 14.1112 14.3382C13.9808 14.4678 13.8453 14.6086 13.997 14.8687C14.1487 15.129 14.6706 15.9801 15.4436 16.6693C16.2739 17.4097 16.9953 17.7228 17.3616 17.8818C17.4336 17.9131 17.4919 17.9384 17.5345 17.9598C17.7946 18.0898 17.9463 18.0682 18.098 17.8944C18.2497 17.721 18.7477 17.1355 18.9211 16.8754C19.0944 16.6151 19.2678 16.6585 19.5062 16.7451C19.7446 16.8318 21.0229 17.4609 21.2829 17.5909C21.3336 17.6163 21.381 17.6392 21.425 17.6604C21.6065 17.748 21.729 17.8071 21.7814 17.8944C21.8464 18.0031 21.8464 18.5235 21.6297 19.1306C21.413 19.7378 20.3513 20.3233 19.8746 20.3666C19.8287 20.3708 19.7831 20.3762 19.7362 20.3817C19.2956 20.4335 18.7395 20.4989 16.7544 19.7161C14.3118 18.7528 12.7012 16.3658 12.3685 15.8726C12.3412 15.8322 12.3225 15.8045 12.3126 15.7913L12.3097 15.7874C12.1695 15.6001 11.2509 14.3724 11.2509 13.1021C11.2509 11.9047 11.8395 11.277 12.1103 10.9882C12.1288 10.9684 12.1458 10.9503 12.1611 10.9336C12.3993 10.6734 12.6811 10.6083 12.8544 10.6083C12.8639 10.6083 12.8734 10.6083 12.8829 10.6083C13.0466 10.6083 13.2095 10.6083 13.3527 10.6144Z" fill="white"/>
<path fill-rule="evenodd" clip-rule="evenodd" d="M7.53159 20.5986C6.60786 19.024 6.12499 17.2395 6.12499 15.3921C6.12499 9.66068 10.8067 5 16.538 5C19.3303 5 21.9335 6.09169 23.907 8.04414C25.8594 10.0176 26.9511 12.6208 26.9511 15.413C26.9511 21.1444 22.2694 25.8051 16.538 25.8051C14.7955 25.8051 13.074 25.3852 11.5625 24.5455L6.04102 25.9941L7.53159 20.5986ZM9.21112 20.0107L9.42106 20.3257L8.53931 23.5168L11.8144 22.656L12.1293 22.8449C13.4519 23.6427 14.9845 24.0626 16.538 24.0626C21.3037 24.0626 25.1876 20.1787 25.1876 15.413C25.1876 13.1037 24.2848 10.9203 22.6473 9.28279C21.0308 7.66624 18.8474 6.7635 16.538 6.7635C11.7724 6.7635 7.88849 10.6264 7.88849 15.413C7.88849 17.0296 8.35036 18.6251 9.21112 20.0107Z" fill="white"/>
</svg>
