<svg width="20" height="20" viewBox="0 0 20 20" fill="none" xmlns="http://www.w3.org/2000/svg">
<rect width="20" height="20" rx="10" fill="#005A5F"/>
<path d="M12.9192 3.70383C13.0223 3.51621 13.1467 3.33301 13.4336 3.33301L15.3744 3.33303C15.4901 3.33303 15.5809 3.37728 15.6297 3.45737C15.6805 3.54056 15.6792 3.6503 15.6259 3.75783L11.3723 11.38C11.3698 11.384 11.3698 11.3889 11.3723 11.3928L14.0808 16.4078C14.1344 16.5157 14.1357 16.6255 14.0846 16.7087C14.0357 16.7888 13.9453 16.833 13.8296 16.833H11.9106C11.6163 16.833 11.4692 16.6348 11.374 16.4622C11.374 16.4622 8.6511 11.3999 8.6442 11.3866C8.78042 11.1424 12.9192 3.70383 12.9192 3.70383Z" fill="white"/>
<path d="M5.10546 6.1256C5.15439 6.04506 5.24765 6.00179 5.36336 6.00179H7.27728C7.57201 6.00179 7.72461 6.18688 7.82024 6.35946C7.82024 6.35946 9.12906 8.68527 9.13691 8.69809C9.05919 8.83704 7.0601 12.4124 7.0601 12.4124C6.96186 12.592 6.8316 12.7976 6.54429 12.7976H4.6168C4.50109 12.7976 4.42136 12.7401 4.37247 12.66C4.32182 12.5768 4.31921 12.4649 4.37247 12.3574L6.40855 8.71185C6.41064 8.70787 6.41064 8.70251 6.40855 8.69809L5.10546 6.41449C5.0517 6.30607 5.05481 6.20879 5.10546 6.1256Z" fill="white"/>
</svg>
