<svg width="32" height="32" viewBox="0 0 32 32" fill="none" xmlns="http://www.w3.org/2000/svg">
<rect width="32" height="32" rx="16" fill="#005A5F"/>
<path d="M20.6708 5.92632C20.8356 5.62612 21.0347 5.33301 21.4937 5.33301L24.599 5.33304C24.7841 5.33304 24.9295 5.40384 25.0075 5.53198C25.0888 5.66509 25.0866 5.84068 25.0014 6.01272L18.1956 18.2082C18.1917 18.2146 18.1917 18.2224 18.1956 18.2287L22.5293 26.2526C22.615 26.4254 22.6171 26.601 22.5353 26.7341C22.4571 26.8622 22.3125 26.933 22.1273 26.933H19.057C18.5861 26.933 18.3507 26.6158 18.1984 26.3397C18.1984 26.3397 13.8418 18.24 13.8307 18.2188C14.0487 17.828 20.6708 5.92632 20.6708 5.92632Z" fill="white"/>
<path d="M8.16873 9.80115C8.24702 9.6723 8.39624 9.60306 8.58138 9.60306H11.6437C12.1152 9.60306 12.3594 9.89921 12.5124 10.1753C12.5124 10.1753 14.6065 13.8966 14.619 13.9171C14.4947 14.1395 11.2962 19.86 11.2962 19.86C11.139 20.1475 10.9306 20.4763 10.4709 20.4763H7.38688C7.20174 20.4763 7.07418 20.3844 6.99595 20.2562C6.91491 20.1231 6.91074 19.944 6.99595 19.772L10.2537 13.9392C10.257 13.9328 10.257 13.9242 10.2537 13.9171L8.16873 10.2634C8.08272 10.0899 8.08769 9.93426 8.16873 9.80115Z" fill="white"/>
</svg>
