<svg width="32" height="32" viewBox="0 0 32 32" fill="none" xmlns="http://www.w3.org/2000/svg">
<rect width="32" height="32" rx="16" fill="#254FF7"/>
<g clip-path="url(#clip0_5980_152676)">
<path d="M8.40474 18.8367H3.81984C3.51677 18.8367 3.22924 18.6757 3.08937 18.4007C2.93006 18.0865 2.98834 17.7094 3.23313 17.462L6.42313 14.2373H4.13845C3.509 14.2373 3 13.7227 3 13.0864H7.22354C7.5266 13.0864 7.81413 13.2475 7.954 13.5224C8.11333 13.8366 8.05504 14.2137 7.81025 14.4611L4.62025 17.6859H7.26628C7.89573 17.6859 8.40474 18.2004 8.40474 18.8367ZM26.5501 13C25.8935 13 25.3027 13.2867 24.8986 13.7463C24.4908 13.2867 23.9001 13 23.2474 13C22.0273 13 21.0326 14.0527 21.0326 15.282V18.8367C21.662 18.8367 22.171 18.3222 22.171 17.6859V15.2703C22.171 14.6772 22.6256 14.1744 23.2085 14.1508C23.8224 14.1273 24.3314 14.6261 24.3314 15.2428V17.6859C24.3314 18.3222 24.8404 18.8367 25.4698 18.8367V15.2703C25.4698 14.6772 25.9245 14.1744 26.5072 14.1508C27.1212 14.1273 27.6302 14.6261 27.6302 15.2428V17.6859C27.6302 18.3222 28.1393 18.8367 28.7685 18.8367V15.282C28.7646 14.0527 27.77 13 26.5501 13ZM14.1475 15.9616C14.1475 17.5955 12.8342 18.9231 11.2178 18.9231C9.60147 18.9231 8.28817 17.5955 8.28817 15.9616C8.28817 14.3276 9.60535 13 11.2178 13C12.8303 13 14.1475 14.3276 14.1475 15.9616ZM13.009 15.9616C13.009 14.9639 12.2048 14.1508 11.2178 14.1508C10.2309 14.1508 9.42661 14.9639 9.42661 15.9616C9.42661 16.9592 10.2309 17.7723 11.2178 17.7723C12.2048 17.7723 13.009 16.9592 13.009 15.9616ZM20.4614 15.9616C20.4614 17.5955 19.1482 18.9231 17.5318 18.9231C15.9153 18.9231 14.6021 17.5955 14.6021 15.9616C14.6021 14.3276 15.9194 13 17.5318 13C19.1442 13 20.4614 14.3276 20.4614 15.9616ZM19.323 15.9616C19.323 14.9639 18.5187 14.1508 17.5318 14.1508C16.5449 14.1508 15.7405 14.9639 15.7405 15.9616C15.7405 16.9592 16.5449 17.7723 17.5318 17.7723C18.5187 17.7723 19.323 16.9592 19.323 15.9616Z" fill="white"/>
</g>
<defs>
<clipPath id="clip0_5980_152676">
<rect width="26" height="6" fill="white" transform="translate(3 13)"/>
</clipPath>
</defs>
</svg>
