<svg width="34" height="38" viewBox="0 0 34 38" fill="none" xmlns="http://www.w3.org/2000/svg">
<path fill-rule="evenodd" clip-rule="evenodd" d="M20.6624 7.51644C20.6696 7.503 20.6771 7.48856 20.685 7.47307C20.8447 7.15932 21.0319 6.64571 21.1595 6.03999C21.2867 5.43606 21.3422 4.79946 21.2816 4.23291C21.2206 3.66251 21.0517 3.24297 20.8065 2.9675C20.3983 2.50892 20.4392 1.80626 20.8978 1.39808C21.3563 0.989893 22.059 1.03075 22.4672 1.48933C23.1204 2.22317 23.4007 3.1405 23.4922 3.99639C23.5842 4.85613 23.4957 5.73524 23.335 6.4983C23.1746 7.25958 22.9298 7.96423 22.6662 8.48191C22.541 8.72763 22.3758 9.00342 22.1655 9.2184C22.0652 9.32089 21.8821 9.48576 21.6162 9.58178C21.2989 9.69629 20.8672 9.70277 20.4852 9.43097C19.985 9.07502 19.8681 8.38096 20.224 7.88075C20.3403 7.7174 20.4926 7.59492 20.6624 7.51644Z" fill="url(#paint0_linear_5557_34179)"/>
<path d="M17.0549 7.78761L17.7994 4.94409C17.986 4.2314 18.715 3.8049 19.4277 3.99149L26.0079 5.71423C26.7206 5.90082 27.1471 6.62984 26.9605 7.34254L26.216 10.1861L17.0549 7.78761Z" fill="url(#paint1_linear_5557_34179)"/>
<path d="M17.0549 7.78761L17.7994 4.94409C17.986 4.2314 18.715 3.8049 19.4277 3.99149L26.0079 5.71423C26.7206 5.90082 27.1471 6.62984 26.9605 7.34254L26.216 10.1861L17.0549 7.78761Z" fill="white" fill-opacity="0.2"/>
<path d="M33.677 22.355C33.677 30.95 26.7093 37.9177 18.1142 37.9177C9.51919 37.9177 2.55153 30.95 2.55153 22.355C2.55153 13.7599 9.51919 6.79228 18.1142 6.79228C26.7093 6.79228 33.677 13.7599 33.677 22.355Z" fill="url(#paint2_radial_5557_34179)"/>
<path fill-rule="evenodd" clip-rule="evenodd" d="M16.0199 1.53069C17.7743 -0.440503 20.8206 -0.283678 22.4851 1.51463C22.9022 1.96518 22.875 2.66849 22.4244 3.08553C21.9739 3.50257 21.2706 3.4754 20.8535 3.02485C20.0125 2.11624 18.4969 2.09164 17.6806 3.00879C17.5268 3.18157 17.3761 3.36406 17.2214 3.55127C16.538 4.37843 15.7783 5.29787 14.3464 5.88016C13.5914 6.18721 12.7218 6.33614 12.0901 6.41207C11.7645 6.4512 11.4813 6.47325 11.2783 6.48558C11.1765 6.49177 11.0941 6.49556 11.0357 6.49783C11.0065 6.49897 10.9833 6.49973 10.9666 6.50023L10.9465 6.50078L10.9403 6.50093L10.9381 6.50097L10.937 6.501C10.9368 6.501 10.9366 6.50101 10.9136 5.38962L10.937 6.501C10.3232 6.51373 9.81494 6.02647 9.80222 5.41267C9.78949 4.7992 10.2762 4.29152 10.8896 4.27826M10.8896 4.27826C10.8895 4.27826 10.8896 4.27826 10.8896 4.27826L10.8909 4.27823L10.9011 4.27794L10.9492 4.27628C10.9929 4.27457 11.0591 4.27155 11.1434 4.26643C11.3125 4.25616 11.5512 4.23759 11.8248 4.20471C12.3913 4.13662 13.0288 4.01595 13.5089 3.8207C14.3845 3.46464 14.7474 3.03157 15.3767 2.28068C15.5615 2.06014 15.7694 1.81217 16.0199 1.53069" fill="url(#paint3_linear_5557_34179)"/>
<path d="M3.93557 0.175667L4.71426 0.777775C6.89995 2.46783 9.94785 2.48064 12.1477 0.809017L11.7363 1.936C10.8483 4.36866 12.2056 7.04469 14.6929 7.76538C12.0111 8.94938 10.4553 11.7836 10.8963 14.6817L10.9699 15.1655L10.1838 14.2204C8.30498 11.9614 5.21511 11.1166 2.44829 12.1054C3.61962 10.0927 2.65438 7.51158 0.449788 6.76134L0.177956 6.66883C2.87694 6.20854 4.65341 3.5983 4.0914 0.918646L3.93557 0.175667Z" fill="#FF5752"/>
<path d="M5.51162 3.04314L5.98403 3.40843C7.31004 4.43374 9.15914 4.44151 10.4937 3.42738L10.2779 4.01869C9.71497 5.56075 10.542 7.26237 12.1023 7.7725C10.4541 8.4106 9.47046 10.108 9.73629 11.8553L9.77918 12.1371L9.30228 11.5638C8.16244 10.1933 6.28789 9.68074 4.60932 10.2806C5.31994 9.05956 4.73435 7.49368 3.39687 7.03852L3.23196 6.9824C4.86937 6.70315 5.94711 5.11957 5.60615 3.49389L5.51162 3.04314Z" fill="#F8D701"/>
<path d="M6.52914 5.00787L6.79396 5.21264C7.53728 5.7874 8.57383 5.79176 9.32196 5.22326L9.20096 5.55474C8.88542 6.41917 9.34902 7.37304 10.2237 7.65901C9.29977 8.01671 8.74835 8.96823 8.89737 9.94771L8.92141 10.1057L8.65408 9.78428C8.01512 9.01602 6.96429 8.72871 6.02334 9.065C6.42169 8.3805 6.09342 7.50271 5.34367 7.24756L5.25123 7.2161C6.16911 7.05956 6.77327 6.17186 6.58213 5.26054L6.52914 5.00787Z" fill="white"/>
<defs>
<linearGradient id="paint0_linear_5557_34179" x1="22.1702" y1="3.17059" x2="23.0655" y2="5.32045" gradientUnits="userSpaceOnUse">
<stop stop-color="#BCBFC4"/>
<stop offset="1" stop-color="#92979C"/>
</linearGradient>
<linearGradient id="paint1_linear_5557_34179" x1="17.6858" y1="6.04034" x2="28.7403" y2="6.57359" gradientUnits="userSpaceOnUse">
<stop stop-color="#414141"/>
<stop offset="1" stop-color="#222222"/>
</linearGradient>
<radialGradient id="paint2_radial_5557_34179" cx="0" cy="0" r="1" gradientUnits="userSpaceOnUse" gradientTransform="translate(14.1144 12.703) rotate(56.492) scale(25.3873)">
<stop stop-color="#868686"/>
<stop offset="0.325867" stop-color="#5A5A5A"/>
<stop offset="1" stop-color="#222222"/>
</radialGradient>
<linearGradient id="paint3_linear_5557_34179" x1="21.3635" y1="2.94097" x2="11.1257" y2="6.05438" gradientUnits="userSpaceOnUse">
<stop stop-color="#BBBFC4"/>
<stop offset="1" stop-color="#CACDD1"/>
</linearGradient>
</defs>
</svg>
