<svg width="34" height="34" viewBox="0 0 34 34" fill="none" xmlns="http://www.w3.org/2000/svg">
<circle cx="17" cy="17" r="17" fill="url(#paint0_radial_5557_34266)"/>
<path fill-rule="evenodd" clip-rule="evenodd" d="M17 34C26.3888 34 34 26.3888 34 17C34 7.61116 26.3888 0 17 0C7.61116 0 0 7.61116 0 17C0 26.3888 7.61116 34 17 34ZM17.0001 32.5141C25.5683 32.5141 32.5141 25.5683 32.5141 17.0001C32.5141 8.43195 25.5683 1.48608 17.0001 1.48608C8.43195 1.48608 1.48608 8.43195 1.48608 17.0001C1.48608 25.5683 8.43195 32.5141 17.0001 32.5141Z" fill="url(#paint1_radial_5557_34266)"/>
<path fill-rule="evenodd" clip-rule="evenodd" d="M17 34C26.3888 34 34 26.3888 34 17C34 7.61116 26.3888 0 17 0C7.61116 0 0 7.61116 0 17C0 26.3888 7.61116 34 17 34ZM17.0001 32.5141C25.5683 32.5141 32.5141 25.5683 32.5141 17.0001C32.5141 8.43195 25.5683 1.48608 17.0001 1.48608C8.43195 1.48608 1.48608 8.43195 1.48608 17.0001C1.48608 25.5683 8.43195 32.5141 17.0001 32.5141Z" fill="#878E96" fill-opacity="0.2"/>
<path fill-rule="evenodd" clip-rule="evenodd" d="M9.8798 20.9521L14.141 20.9513C14.2636 20.9513 14.3822 21.0222 14.4281 21.1349C14.62 21.6147 14.6125 22.1555 14.4022 22.632C14.0492 23.6594 14.0091 24.7693 14.2862 25.82C14.5758 26.5427 14.6525 27.863 15.9886 27.9239C16.4068 27.8621 16.7714 27.6109 16.9817 27.2446C17.0193 27.1795 17.0352 27.1027 17.0352 27.0284C17.0352 27.0284 16.9738 25.7465 17.0352 24.8553C17.0966 23.9641 18.8019 21.694 19.886 20.2528C19.9544 20.161 20.0504 20.1009 20.1639 20.0834C20.5703 20.0225 21.3455 19.9194 21.625 19.8825C21.6904 19.8739 21.7286 19.7918 21.7286 19.7532C21.7286 17.9515 21.7286 15.2565 21.7286 11.668C21.7286 11.6383 21.6927 11.5735 21.629 11.5629C21.4101 11.5268 20.8625 11.4266 20.3099 11.2489C19.6156 11.0261 19.0372 10.4987 17.8797 10.1081C17.8188 10.0872 17.7512 10.0764 17.6869 10.0764L12.2516 10.0764C11.5497 10.2016 11.0273 10.8016 10.9914 11.5218C10.9814 11.9232 11.0615 12.3205 11.2259 12.6851C11.2493 12.7377 11.2184 12.7928 11.1617 12.8037C10.4648 12.9305 9.59356 14.2533 10.6668 15.319C10.6951 15.3465 10.6901 15.3841 10.6518 15.3941C10.0601 15.5451 9.60691 16.0175 9.46838 16.6067C9.41496 16.832 9.43416 17.0648 9.50092 17.286C9.57937 17.5497 9.70455 17.7967 9.87062 18.017C9.91235 18.0721 9.88898 18.1439 9.82222 18.1656C9.23303 18.365 8.82745 18.9284 8.83162 19.5693C8.76402 20.1977 9.26892 20.9513 9.8798 20.9521ZM23.3969 20.6116L26.4772 20.6116C26.6374 20.6116 26.7592 20.4698 26.7317 20.3154L24.9424 10.2633C24.9149 10.1089 24.7789 9.99626 24.6195 9.99626L23.4803 9.99626C23.3042 9.99626 23.1615 10.1356 23.1615 10.3075L23.1365 20.3563C23.1365 20.4973 23.2525 20.6116 23.3969 20.6116Z" fill="white"/>
<defs>
<radialGradient id="paint0_radial_5557_34266" cx="0" cy="0" r="1" gradientUnits="userSpaceOnUse" gradientTransform="translate(15.4754 7.00962) rotate(73.7184) scale(27.5504)">
<stop stop-color="#C9D0D9"/>
<stop offset="0.34375" stop-color="#BAC0C7"/>
<stop offset="0.96875" stop-color="#A3A9B1"/>
</radialGradient>
<radialGradient id="paint1_radial_5557_34266" cx="0" cy="0" r="1" gradientUnits="userSpaceOnUse" gradientTransform="translate(15.4754 7.00962) rotate(73.7184) scale(27.5504)">
<stop stop-color="#D2D7DD"/>
<stop offset="0.34375" stop-color="#BAC0C7"/>
<stop offset="0.96875" stop-color="#A3A9B1"/>
</radialGradient>
</defs>
</svg>
