<svg width="37" height="34" viewBox="0 0 37 34" fill="none" xmlns="http://www.w3.org/2000/svg">
<circle cx="17" cy="17" r="17" fill="url(#paint0_radial_5557_34093)"/>
<g opacity="0.5">
<path fill-rule="evenodd" clip-rule="evenodd" d="M17 34C26.3888 34 34 26.3888 34 17C34 7.61116 26.3888 0 17 0C7.61116 0 0 7.61116 0 17C0 26.3888 7.61116 34 17 34ZM17.0001 32.5141C25.5683 32.5141 32.5141 25.5683 32.5141 17.0001C32.5141 8.43195 25.5683 1.48608 17.0001 1.48608C8.43195 1.48608 1.48608 8.43195 1.48608 17.0001C1.48608 25.5683 8.43195 32.5141 17.0001 32.5141Z" fill="url(#paint1_radial_5557_34093)"/>
<path fill-rule="evenodd" clip-rule="evenodd" d="M17 34C26.3888 34 34 26.3888 34 17C34 7.61116 26.3888 0 17 0C7.61116 0 0 7.61116 0 17C0 26.3888 7.61116 34 17 34ZM17.0001 32.5141C25.5683 32.5141 32.5141 25.5683 32.5141 17.0001C32.5141 8.43195 25.5683 1.48608 17.0001 1.48608C8.43195 1.48608 1.48608 8.43195 1.48608 17.0001C1.48608 25.5683 8.43195 32.5141 17.0001 32.5141Z" fill="#C08200" fill-opacity="0.28"/>
</g>
<ellipse opacity="0.3" cx="7.27946" cy="17.896" rx="7.03968" ry="12.6714" fill="url(#paint2_radial_5557_34093)"/>
<ellipse opacity="0.3" cx="7.03968" cy="12.6714" rx="7.03968" ry="12.6714" transform="matrix(-1 0 0 1 34.1366 5.22455)" fill="url(#paint3_radial_5557_34093)"/>
<path opacity="0.5" fill-rule="evenodd" clip-rule="evenodd" d="M26.3233 11.7538C26.3732 11.576 26.2981 11.3707 26.1393 11.2268C25.2608 10.4301 24.2169 9.90724 23.1538 9.8199C22.6042 9.7746 22.0994 9.85276 21.6493 10.0288C21.5354 10.0738 21.4563 10.169 21.4239 10.2847L21.4142 10.3194C21.3152 10.6744 21.6962 11.0669 22.0719 10.9867C22.389 10.9193 22.7277 10.8972 23.0849 10.9267C23.9586 10.9988 24.8191 11.365 25.5858 11.9347C25.8687 12.1449 26.2416 12.0469 26.3233 11.7538Z" fill="#783E11"/>
<path opacity="0.5" fill-rule="evenodd" clip-rule="evenodd" d="M7.72742 11.7538C7.67748 11.576 7.75258 11.3707 7.91138 11.2268C8.78987 10.4301 9.83377 9.90724 10.8969 9.8199C11.4465 9.7746 11.9513 9.85276 12.4014 10.0288C12.5153 10.0738 12.5944 10.169 12.6268 10.2847L12.6365 10.3194C12.7355 10.6744 12.3545 11.0669 11.9788 10.9867C11.6617 10.9193 11.323 10.8972 10.9658 10.9267C10.0921 10.9988 9.23159 11.365 8.46487 11.9347C8.18202 12.1449 7.80912 12.0469 7.72742 11.7538Z" fill="#783E11"/>
<ellipse cx="11.9978" cy="15.2137" rx="1.65651" ry="2.42712" fill="#783E11"/>
<ellipse cx="22.0022" cy="15.2137" rx="1.65651" ry="2.42712" fill="#783E11"/>
<g filter="url(#filter0_d_5557_34093)">
<path d="M30.378 9.93731C30.591 9.68347 30.9695 9.65036 31.2233 9.86336L34.0737 12.2551C34.3276 12.4681 34.3607 12.8466 34.1477 13.1004L24.0994 25.0755C23.8864 25.3294 23.5079 25.3625 23.2541 25.1495L20.4037 22.7577C20.1499 22.5447 20.1167 22.1663 20.3297 21.9124L30.378 9.93731Z" fill="#C3C6CA"/>
</g>
<path d="M30.7315 10.8072C30.838 10.6803 31.0273 10.6637 31.1542 10.7702L33.0889 12.3936C33.2158 12.5001 33.2323 12.6893 33.1258 12.8162L23.3912 24.4175C23.2847 24.5445 23.0955 24.561 22.9686 24.4545L21.0339 22.8311C20.907 22.7246 20.8904 22.5354 20.9969 22.4085L30.7315 10.8072Z" fill="white"/>
<path d="M28.089 13.9565L30.4838 15.966L23.3918 24.418C23.2853 24.5449 23.096 24.5615 22.9691 24.455L21.0339 22.8311C20.907 22.7246 20.8904 22.5354 20.9969 22.4084L28.089 13.9565Z" fill="#F03D37"/>
<path opacity="0.15" d="M28.089 13.9565L29.0837 14.7911L21.7988 23.4729L21.0339 22.8311C20.907 22.7246 20.8904 22.5354 20.9969 22.4084L28.089 13.9565Z" fill="white"/>
<path opacity="0.3" d="M29.1813 11.3635L30.557 12.5178C30.6977 12.6359 30.7161 12.8457 30.598 12.9864C30.4799 13.1272 30.2701 13.1455 30.1293 13.0274L28.7537 11.8731L29.1813 11.3635Z" fill="#222222"/>
<path opacity="0.4" d="M27.4532 13.423L28.8289 14.5773C28.9696 14.6954 28.9879 14.9052 28.8699 15.0459C28.7518 15.1867 28.542 15.205 28.4012 15.0869L27.0256 13.9326L27.4532 13.423Z" fill="#222222"/>
<path opacity="0.4" d="M25.7251 15.4825L27.1007 16.6368C27.2415 16.7549 27.2598 16.9647 27.1417 17.1054C27.0236 17.2462 26.8138 17.2645 26.6731 17.1464L25.2975 15.9921L25.7251 15.4825Z" fill="#222222"/>
<path opacity="0.4" d="M23.997 17.542L25.3726 18.6963C25.5133 18.8144 25.5317 19.0242 25.4136 19.1649C25.2955 19.3056 25.0857 19.324 24.945 19.2059L23.5694 18.0516L23.997 17.542Z" fill="#222222"/>
<path opacity="0.4" d="M22.2689 19.6014L23.6445 20.7557C23.7852 20.8738 23.8036 21.0836 23.6855 21.2244C23.5674 21.3651 23.3576 21.3835 23.2169 21.2654L21.8412 20.1111L22.2689 19.6014Z" fill="#222222"/>
<path fill-rule="evenodd" clip-rule="evenodd" d="M10.4045 25.4779C10.4045 25.7461 10.7462 25.8942 10.9739 25.7245C12.8378 24.3371 15.0853 23.4764 17.5053 23.4768C19.9258 23.4773 22.1724 24.3394 24.0354 25.7272C24.263 25.8969 24.6047 25.7488 24.6047 25.4811V24.6151C24.6047 24.5237 24.5624 24.4351 24.4883 24.3743C22.5412 22.7714 20.1254 21.5977 17.5058 21.5972C14.8862 21.5968 12.4695 22.7692 10.5214 24.3712C10.4473 24.4324 10.405 24.5206 10.405 24.6119L10.4045 25.4779Z" fill="#783E11"/>
<defs>
<filter id="filter0_d_5557_34093" x="18.1894" y="9.72297" width="18.0987" height="19.5669" filterUnits="userSpaceOnUse" color-interpolation-filters="sRGB">
<feFlood flood-opacity="0" result="BackgroundImageFix"/>
<feColorMatrix in="SourceAlpha" type="matrix" values="0 0 0 0 0 0 0 0 0 0 0 0 0 0 0 0 0 0 127 0" result="hardAlpha"/>
<feOffset dy="2"/>
<feGaussianBlur stdDeviation="1"/>
<feComposite in2="hardAlpha" operator="out"/>
<feColorMatrix type="matrix" values="0 0 0 0 0.807843 0 0 0 0 0.588235 0 0 0 0 0.207843 0 0 0 0.5 0"/>
<feBlend mode="normal" in2="BackgroundImageFix" result="effect1_dropShadow_5557_34093"/>
<feBlend mode="normal" in="SourceGraphic" in2="effect1_dropShadow_5557_34093" result="shape"/>
</filter>
<radialGradient id="paint0_radial_5557_34093" cx="0" cy="0" r="1" gradientUnits="userSpaceOnUse" gradientTransform="translate(15.4754 7.00962) rotate(73.7184) scale(27.5504)">
<stop stop-color="#FFF1AA"/>
<stop offset="0.34375" stop-color="#FFE564"/>
<stop offset="0.760417" stop-color="#F4CC00"/>
<stop offset="1" stop-color="#F29E0B"/>
</radialGradient>
<radialGradient id="paint1_radial_5557_34093" cx="0" cy="0" r="1" gradientUnits="userSpaceOnUse" gradientTransform="translate(15.4754 7.00962) rotate(73.7184) scale(27.5504)">
<stop stop-color="#FBEB9D"/>
<stop offset="0.34375" stop-color="#F6E071"/>
<stop offset="0.786458" stop-color="#ECC91A"/>
<stop offset="1" stop-color="#E3BE00"/>
</radialGradient>
<radialGradient id="paint2_radial_5557_34093" cx="0" cy="0" r="1" gradientUnits="userSpaceOnUse" gradientTransform="translate(5.60241 17.896) rotate(90) scale(11.7938 7.08711)">
<stop stop-color="#FF2727"/>
<stop offset="1" stop-color="#F6E071" stop-opacity="0.07"/>
</radialGradient>
<radialGradient id="paint3_radial_5557_34093" cx="0" cy="0" r="1" gradientUnits="userSpaceOnUse" gradientTransform="translate(5.36263 12.6714) rotate(89.7087) scale(11.503 6.91237)">
<stop stop-color="#FF2727"/>
<stop offset="1" stop-color="#F6E071" stop-opacity="0.07"/>
</radialGradient>
</defs>
</svg>
