<svg width="34" height="35" viewBox="0 0 34 35" fill="none" xmlns="http://www.w3.org/2000/svg">
<path d="M24.0562 16.2348C21.1064 16.2348 18.8572 16.8217 16.0325 19.1697L13.7085 22.033C14.713 18.1424 13.9015 12.1043 13.9015 12.1043L14.951 11.5924C16.0266 11.1973 17.1684 10.2109 17.9867 9.39257C18.7334 8.64591 18.9098 7.52942 18.5445 6.53867L18.3493 6.00917V5.5222C18.3493 4.35907 17.677 3.30075 16.6241 2.80651L13.222 1.20955C12.1981 0.728907 10.985 0.861252 10.1755 1.65131C9.05806 2.74194 7.60943 4.40803 7.23934 6.00917V9.38903C7.23934 9.38903 4.14622 15.3307 3.05677 19.1697C2.0332 22.7765 1.87872 28.1167 1.86877 30.6955C1.86503 31.666 2.24386 32.59 2.90301 33.3023L2.93183 33.3334C3.6014 34.057 4.51309 34.5086 5.49588 34.5858C7.08537 34.7107 9.60232 34.8814 11.4804 34.8814C16.6868 34.8814 28.5705 34.2254 31.0339 32.1973C34.6761 29.1985 34.173 25.2667 32.4368 22.3087C30.3963 18.8321 27.006 16.2348 24.0562 16.2348Z" fill="url(#paint0_radial_5557_34164)"/>
<path fill-rule="evenodd" clip-rule="evenodd" d="M14.951 11.5924C16.0198 11.1998 17.1539 10.2234 17.9711 9.4082C18.7283 8.65281 18.9023 7.50896 18.5323 6.50541C18.4122 6.17971 18.3493 5.83148 18.3493 5.48435C18.3493 4.34431 17.6903 3.30702 16.6583 2.82259L13.0937 1.14931C12.1485 0.705613 11.0306 0.827682 10.2783 1.55174C9.14874 2.63878 7.62088 4.35848 7.23935 6.00916V9.38903C7.23935 9.38903 4.14623 15.3307 3.05677 19.1697C2.03598 22.7667 1.87957 28.0877 1.86886 30.6744C1.86479 31.6585 2.24894 32.5955 2.91731 33.3177C3.59623 34.0514 4.52098 34.5094 5.51752 34.5875C7.10814 34.7122 9.61083 34.8814 11.4804 34.8814C16.6868 34.8814 28.5705 34.2254 31.0339 32.1973C34.6761 29.1985 34.173 25.2667 32.4369 22.3087C30.3963 18.8321 27.006 16.2348 24.0562 16.2348C21.1064 16.2348 18.8572 16.8217 16.0325 19.1697L13.7085 22.033C13.8713 21.4025 13.9864 20.7155 14.065 20.007C14.4712 16.3438 13.9015 12.1043 13.9015 12.1043L14.951 11.5924ZM12.9104 12.2374C12.853 11.8103 13.0758 11.3945 13.4631 11.2056L14.5583 10.6713L14.6062 10.6537C15.4537 10.3424 16.4557 9.50742 17.2648 8.70023C17.7053 8.26084 17.8498 7.54494 17.594 6.85136C17.4336 6.41621 17.3493 5.95094 17.3493 5.48435C17.3493 4.73203 16.9144 4.0475 16.2334 3.72782L12.6688 2.05454C12.052 1.76502 11.3901 1.86962 10.9717 2.27227C10.4307 2.79288 9.80864 3.45179 9.28242 4.16357C8.77653 4.84785 8.40222 5.52391 8.23935 6.13152V9.63373L8.12637 9.85075L8.11833 9.86624L8.09316 9.91496C8.07087 9.95819 8.03777 10.0226 7.9951 10.1063C7.90975 10.2736 7.78619 10.5176 7.63433 10.8229C7.33045 11.4336 6.91402 12.2875 6.46414 13.2597C5.55735 15.2192 4.54059 17.604 4.01879 19.4427C3.04015 22.8912 2.87959 28.0833 2.86885 30.6786C2.86588 31.3961 3.14569 32.0922 3.65126 32.6385C4.16379 33.1924 4.8564 33.5326 5.59567 33.5906C7.18505 33.7152 9.65352 33.8814 11.4804 33.8814C14.0532 33.8814 18.2901 33.7188 22.1801 33.3055C24.1264 33.0987 25.9632 32.8315 27.4522 32.4967C28.1968 32.3292 28.8369 32.1487 29.3518 31.9575C29.8797 31.7614 30.2154 31.5758 30.3983 31.4253C32.0161 30.0933 32.6607 28.6121 32.7544 27.1727C32.8503 25.6992 32.3728 24.1752 31.5744 22.8149C30.618 21.1853 29.3494 19.7713 27.9944 18.7731C26.6289 17.7672 25.2482 17.2348 24.0562 17.2348C22.649 17.2348 21.4676 17.3749 20.3217 17.7677C19.1983 18.1528 18.0563 18.7992 16.7463 19.877L14.485 22.6632C14.1886 23.0283 13.678 23.1376 13.2581 22.9258C12.8383 22.7141 12.6227 22.2384 12.7403 21.7831C13.2045 19.9847 13.2589 17.6231 13.1824 15.6484C13.1447 14.6737 13.0762 13.817 13.0172 13.2045C12.9877 12.8985 12.9607 12.6543 12.9412 12.4877C12.9314 12.4044 12.9236 12.3406 12.9182 12.2982L12.9122 12.251L12.9107 12.24L12.9104 12.2374Z" fill="#CD942F" fill-opacity="0.7"/>
<path opacity="0.8" d="M10.4735 25.0446C10.2876 24.8012 10.3719 24.443 10.6394 24.2955C10.9054 24.1487 11.2192 23.9612 11.4484 23.7802C11.6866 23.5919 11.9654 23.3062 12.1864 23.0654C12.3929 22.8404 12.7519 22.8479 12.9368 23.0899C13.0741 23.2696 13.0687 23.5226 12.9178 23.6919C12.685 23.9532 12.3337 24.3284 12.0428 24.5583C11.7561 24.7848 11.3368 25.0214 11.0443 25.1758C10.8476 25.2797 10.6089 25.2219 10.4735 25.0446Z" fill="#CD942F"/>
<path opacity="0.8" d="M14.6543 26.5246C14.9362 26.413 15.0468 26.067 14.8942 25.8055C14.7387 25.5389 14.561 25.2095 14.4545 24.9311C14.3439 24.6419 14.2481 24.2456 14.1798 23.9215C14.1176 23.6259 13.8077 23.4499 13.5272 23.5609C13.318 23.6436 13.1939 23.8621 13.2372 24.0834C13.305 24.4292 13.4174 24.9376 13.5516 25.2883C13.6838 25.634 13.9257 26.0582 14.0989 26.3435C14.2139 26.533 14.4477 26.6063 14.6543 26.5246Z" fill="#CD942F"/>
<path opacity="0.8" d="M11.9307 5.81956C11.9307 5.59204 12.1151 5.4076 12.3426 5.4076H14.0794C14.1391 5.4076 14.1959 5.42032 14.2471 5.44319C14.335 5.48243 14.4158 5.54217 14.4786 5.61508L15.6555 6.98007C15.8027 7.15076 15.7857 7.41073 15.6175 7.56074C15.5539 7.61744 15.477 7.66055 15.3959 7.68649C15.3728 7.69389 15.3486 7.6994 15.3238 7.70281L12.4126 8.10125C12.4034 8.10251 12.3941 8.10347 12.3849 8.10413C12.3688 8.10608 12.3524 8.10708 12.3358 8.10708C12.1121 8.10708 11.9307 7.92573 11.9307 7.70203L11.9307 5.90781C11.9307 5.87878 11.9307 5.84966 11.9307 5.82062L11.9307 5.81956Z" fill="#CD942F"/>
<path opacity="0.8" d="M18.7326 28.7602C18.3713 28.4531 18.6801 27.8237 19.1481 27.9023C20.5227 28.1332 22.3924 28.3566 23.7991 28.1809C25.1696 28.0098 26.8513 27.3661 28.0979 26.8158C28.5204 26.6292 28.9575 27.1645 28.6769 27.5319C28.6546 27.5612 28.6299 27.5864 28.6005 27.6085C28.2856 27.8443 26.2758 29.2903 23.9678 29.5785C21.6867 29.8634 19.2812 28.9964 18.854 28.8329C18.8096 28.8159 18.7688 28.7911 18.7326 28.7602Z" fill="#CD942F"/>
<defs>
<radialGradient id="paint0_radial_5557_34164" cx="0" cy="0" r="1" gradientTransform="matrix(11.7167 22.9034 -20.3985 10.6201 12.0241 11.4258)" gradientUnits="userSpaceOnUse">
<stop stop-color="#FBEB9D"/>
<stop offset="0.34375" stop-color="#F6E071"/>
<stop offset="1" stop-color="#ECC91A"/>
</radialGradient>
</defs>
</svg>
