<svg width="34" height="34" viewBox="0 0 34 34" fill="none" xmlns="http://www.w3.org/2000/svg">
<path d="M5.52556 7.70614L2.58421 11.4029C1.59618 12.6447 1.50994 14.3782 2.36983 15.7119C3.09882 16.8426 4.01515 17.8407 5.07948 18.6635L16.9497 27.8401C17.5372 28.0647 18.9196 28.4518 19.749 28.203C20.7858 27.8919 21.3561 26.6478 21.8745 26.9588C22.3929 27.2699 23.5852 26.9588 24.3628 26.6478C24.9848 26.399 25.486 25.1617 25.6588 24.5742C26.0044 24.4532 26.8511 24.0454 27.4732 23.3819C28.0952 22.7183 28.1471 21.8612 28.0952 21.5156C28.3026 21.4638 28.9039 21.1217 29.6504 20.1678C30.3968 19.2142 30.1118 17.1383 29.9908 16.2567L29.9907 16.2561L17.8051 7.58487L10.5409 5.94236C8.66916 5.51914 6.72035 6.2045 5.52556 7.70614Z" fill="url(#paint0_radial_16335_2424)"/>
<path fill-rule="evenodd" clip-rule="evenodd" d="M4.06538 18.5964C4.06538 18.5964 2.08991 15.8033 1.03924 14.3953C0.736074 13.9344 0.61863 13.349 0.996985 12.7886C1.16837 12.5347 2.78055 10.2703 2.78055 10.2703C2.78055 10.2703 5.00906 7.20646 5.54464 6.50871C6.52373 5.23315 7.88343 5.07961 9.03465 5.50026C10.8524 6.16443 12.8617 6.15533 14.7684 6.30942L13.7571 7.25034C12.0033 7.11442 10.1975 7.04407 8.54687 6.37104C7.45911 5.92752 6.8241 6.53542 6.38993 7.01586C6.10903 7.32671 4.60353 9.31774 3.46523 10.9042C2.84419 11.7697 2.34599 12.555 2.18433 12.7885C1.72636 13.4501 1.68575 13.5015 2.15428 14.2285C2.9455 15.4563 4.71625 17.7088 4.71625 17.7088L4.06538 18.5964Z" fill="#CD942F"/>
<path fill-rule="evenodd" clip-rule="evenodd" d="M29.9498 17.1853C30.3371 17.6833 30.4722 18.4886 30.366 19.0766C30.1721 20.1504 29.5969 20.9669 28.6434 21.5034C28.5028 21.5824 28.4574 21.6672 28.4392 21.8239C28.2745 23.2459 27.5212 24.2366 26.1886 24.7484C25.895 24.8612 25.7543 24.9953 25.6504 25.2859C25.3012 26.2628 24.6377 26.8607 23.6711 27.228C22.9227 27.5124 22.1553 27.3941 21.3994 27.1084C21.2886 27.0666 21.2101 27.2746 21.137 27.3801C20.572 28.1964 19.8202 28.6453 18.791 28.6453C18.1716 28.6453 17.5729 28.3917 16.914 27.9459C16.3814 27.5855 16.3832 27.5656 16.3832 27.5656L16.914 26.7146C16.914 26.7146 17.3522 27.0091 17.8822 27.383C18.8463 28.0631 20.2757 27.4626 20.6214 26.4047C20.5724 26.3699 20.5213 26.3318 20.4686 26.2963C19.2206 25.4542 18.8837 25.194 17.6343 24.354C17.4288 24.2159 17.305 24.0408 17.3218 23.7843C17.3218 23.5921 17.3727 23.4853 17.5292 23.3812C17.7438 23.297 17.9417 23.3606 18.1262 23.4853C19.1829 24.1992 19.3298 24.3294 20.387 25.0426C20.9695 25.4355 21.5591 25.8183 22.1317 26.2249C22.4867 26.4769 22.9698 26.426 23.3526 26.3178C24.0895 26.1095 24.5486 25.6098 24.7313 24.8597C24.7681 24.7085 24.7646 24.4931 24.6275 24.401C22.3139 22.8478 20.9151 21.8708 18.6049 20.3124C18.3181 20.119 18.202 19.876 18.2638 19.6028C18.3377 19.2768 18.7772 19.2354 19.0673 19.4048C19.1233 19.4374 19.1764 19.4752 19.2302 19.5115C21.5748 21.0928 23.0123 22.0864 25.3482 23.6805C25.6127 23.861 25.9053 23.8007 26.165 23.6805C26.9024 23.3392 27.2988 22.7612 27.3494 21.9488C27.3573 21.8231 27.3116 21.5689 27.1981 21.4927C24.5136 19.6869 22.7425 18.4595 20.0607 16.6498C19.7876 16.4654 19.682 15.9766 20.0607 15.7932C20.2676 15.693 20.4708 15.7171 20.6622 15.8468C21.0923 16.1382 21.5233 16.4283 21.9542 16.7186C24.1819 18.2197 25.5007 19.1357 27.7236 20.644C27.8904 20.7571 28.0549 20.6816 28.2238 20.6026C29.2287 20.1322 29.5884 18.6129 29.2557 18.0416L28.9498 17.4387C28.9498 17.4387 29.7914 16.9816 29.9498 17.1853Z" fill="#CD942F"/>
<path fill-rule="evenodd" clip-rule="evenodd" d="M14.817 23.4742C15.998 23.6191 16.7518 24.8565 16.2796 25.9032C16.157 26.175 15.9798 26.4228 15.8218 26.6779C15.4993 27.1986 15.2026 27.7389 14.8405 28.2308C13.5822 29.7787 10.0064 27.2102 8.1933 25.6489C6.38021 24.0876 4.98025 23.0432 4.27906 21.1707C4.11185 20.7242 4.12277 20.2865 4.38863 19.8721C4.71019 19.3708 5.03255 18.8699 5.34766 18.3646C5.77616 17.6774 6.76695 17.3922 7.56395 17.7332C7.99587 17.9179 8.28191 18.186 8.573 18.6912C8.96564 18.3406 9.42356 18.202 9.92653 18.2271C10.3035 18.2458 10.6518 18.3766 10.9504 18.6082C11.5524 19.0753 11.9239 19.8725 11.5229 20.8281C12.3818 20.5289 13.1477 20.6574 13.741 21.3542C14.3406 22.0585 14.3326 22.8221 13.7931 23.6292C14.1551 23.4766 14.4793 23.4328 14.817 23.4742Z" fill="url(#paint1_radial_16335_2424)"/>
<path fill-rule="evenodd" clip-rule="evenodd" d="M17.1912 26.3144L17.1912 26.3144C17.0653 26.5932 16.8818 26.8778 16.7562 27.0725C16.7235 27.1231 16.6948 27.1676 16.672 27.2044L16.672 27.2045C16.5966 27.3262 16.5169 27.4593 16.4331 27.5993C16.1999 27.9886 15.9352 28.4305 15.646 28.8235L15.6317 28.8429L15.6165 28.8616C15.0265 29.5874 14.1895 29.7621 13.4385 29.6961C12.7142 29.6324 11.9605 29.3442 11.2751 28.9988C9.89096 28.3015 8.47225 27.2087 7.54082 26.4066C7.35443 26.2461 7.16884 26.0886 6.98502 25.9327C5.46552 24.6433 4.06738 23.4568 3.34261 21.5214L3.3426 21.5214C3.08478 20.8328 3.0824 20.0563 3.54697 19.3321C3.60308 19.2446 3.6664 19.1409 3.73642 19.0261C4.02916 18.5465 4.43902 17.8749 4.92858 17.3991C5.25777 17.0792 5.68532 16.7762 6.22849 16.6406C6.7873 16.5011 7.37115 16.563 7.9573 16.8137C8.30613 16.963 8.59158 17.1535 8.83812 17.394C9.73862 17.0732 10.7792 17.2097 11.5634 17.8181L11.5635 17.8181C12.1247 18.2536 12.5662 18.9104 12.669 19.6949C12.7612 19.7054 12.8535 19.7206 12.9458 19.7409C13.5559 19.8747 14.0807 20.2106 14.5024 20.7059L14.5024 20.7059C14.925 21.2023 15.1847 21.7865 15.1942 22.4386C15.1948 22.4814 15.1943 22.5239 15.1928 22.5662C15.6663 22.6773 16.1044 22.8985 16.4596 23.1943C17.283 23.8802 17.7569 25.0605 17.1912 26.3144ZM14.9727 23.5415C15.9826 23.7811 16.789 24.7742 16.2796 25.9031C16.1882 26.1059 16.0664 26.2953 15.9448 26.4843C15.9034 26.5487 15.862 26.6131 15.8219 26.6779C15.73 26.8263 15.6402 26.9762 15.5503 27.1262C15.3249 27.5025 15.0995 27.879 14.8406 28.2308C13.5822 29.7787 10.0064 27.2101 8.19334 25.6489C8.00496 25.4866 7.82103 25.33 7.64188 25.1774C6.09688 23.8616 4.90744 22.8486 4.2791 21.1707C4.1119 20.7242 4.12282 20.2865 4.38867 19.872C4.46764 19.7489 4.54757 19.6186 4.6295 19.485C5.29435 18.4008 6.0903 17.1027 7.564 17.7332C7.6961 17.7897 7.81456 17.854 7.92368 17.9305C8.17136 18.1041 8.37098 18.3405 8.57304 18.6911C8.76153 18.5229 8.98008 18.3999 9.21236 18.3228C9.7906 18.1308 10.454 18.223 10.9505 18.6082C11.3073 18.8851 11.5831 19.2779 11.6651 19.7509C11.7214 20.076 11.6863 20.4389 11.523 20.8281C11.908 20.694 12.2743 20.6458 12.6147 20.6962C13.0338 20.7583 13.4137 20.9697 13.741 21.3541C14.0539 21.7217 14.2014 22.1054 14.1942 22.503C14.1875 22.8673 14.0511 23.2432 13.7931 23.6291C14.1749 23.4682 14.5886 23.4503 14.9727 23.5415Z" fill="#CD942F"/>
<path fill-rule="evenodd" clip-rule="evenodd" d="M33.3033 13.5094C33.4422 13.8048 33.6119 13.9994 33.1776 14.6742C32.4345 15.8287 30.3847 17.5539 29.355 17.1008C27.4221 16.2501 18.7179 10.2026 18.0149 10.5317C16.9896 11.0116 15.9838 11.5369 14.9414 11.9752C13.1165 12.7424 11.0638 12.4718 9.83564 10.8371C9.47381 10.3556 9.76292 9.67233 10.1047 9.53086C12.0728 8.52758 16.2392 5.52977 17.6827 5.69578C19.9878 5.96087 23.6743 6.81998 24.4681 6.65612C25.2619 6.49225 26.9883 5.18029 27.9017 5.69577C29.299 6.48434 32.2064 11.177 33.3033 13.5094Z" fill="url(#paint2_linear_16335_2424)"/>
<mask id="mask0_16335_2424" style="mask-type:alpha" maskUnits="userSpaceOnUse" x="8" y="4" width="27" height="14">
<path fill-rule="evenodd" clip-rule="evenodd" d="M33.2556 13.468C33.3946 13.7634 33.6366 13.9804 33.2024 14.6551C32.7681 15.3299 31.0682 16.7929 30.5566 16.9758C30.045 17.1588 30.0659 17.1669 29.4518 17.0919C28.8377 17.0169 27.2555 15.8616 26.5995 15.4679C25.7304 14.9464 24.8602 14.4266 23.991 13.9052C23.2381 13.4536 22.4865 12.9998 21.7333 12.5486C20.8587 12.0246 19.9828 11.5027 19.1078 10.9793C18.8548 10.8279 18.6068 10.6677 18.3481 10.5268C18.2857 10.4928 18.1772 10.4921 18.1117 10.5228C17.0864 11.0027 16.0806 11.528 15.0381 11.9663C13.8504 12.4656 12.6213 12.5821 11.3909 12.0748C10.7596 11.8145 10.2658 11.3778 9.85968 10.8373C9.49786 10.3557 9.79342 9.72999 10.2015 9.52198C11.6346 8.79143 12.997 7.94081 14.371 7.10934C14.8707 6.80696 15.3621 6.49 15.8707 6.20348C16.3757 5.91903 16.9264 5.75229 17.5009 5.67316C17.5916 5.66071 17.6881 5.67189 17.7795 5.6869C19.913 6.03789 23.5461 6.65165 23.8354 6.6763C24.1247 6.70096 24.4524 6.67047 24.5649 6.64723C24.6774 6.624 25.7582 6.14309 26.1173 5.96356C26.4763 5.78404 27.4099 5.31606 28.0514 5.79153C28.693 6.26699 28.9807 6.67916 29.6284 7.49994C31.2775 9.5896 33.1167 13.1725 33.2556 13.468Z" fill="url(#paint3_linear_16335_2424)" stroke="#CD942F" stroke-width="1.5"/>
</mask>
<g mask="url(#mask0_16335_2424)">
<path opacity="0.8" d="M16.3603 9.54398L12.162 11.8424L12.7905 12.4518L18.3868 10.7516L29.9335 17.4105L31.5037 16.4163L20.3605 9.63549C19.1392 8.89234 17.6142 8.85746 16.3603 9.54398Z" fill="url(#paint4_radial_16335_2424)"/>
</g>
<path fill-rule="evenodd" clip-rule="evenodd" d="M25.4272 6.81526C25.1472 6.94955 24.8369 7.09051 24.5692 7.14577C24.4063 7.17939 24.2105 7.18096 24.0202 7.17223C23.8207 7.16306 23.5882 7.14022 23.3352 7.10859C22.8289 7.04533 22.2112 6.94316 21.5565 6.82941C21.3065 6.78597 21.051 6.74084 20.7934 6.69534C19.6888 6.50024 18.5449 6.29821 17.6256 6.19249C17.5342 6.18198 17.3806 6.19413 17.1518 6.25495C16.9291 6.31416 16.6656 6.4111 16.3669 6.54189C15.7692 6.80361 15.0713 7.18262 14.3418 7.607C13.7886 7.92887 13.211 8.28121 12.6529 8.62159C11.7729 9.15839 10.9416 9.66543 10.3318 9.9763L10.3142 9.98527L10.3027 9.99002C10.2993 9.9926 10.2855 10.0033 10.2657 10.0294C10.236 10.0685 10.2064 10.1249 10.1877 10.1915C10.1497 10.3268 10.1686 10.448 10.2354 10.5368C11.292 11.9431 13.077 12.2166 14.7475 11.5143C15.4206 11.2312 16.0669 10.9168 16.7273 10.5954C17.0797 10.4239 17.4362 10.2505 17.8029 10.0788C17.9294 10.0196 18.0521 10.016 18.1282 10.0197C18.2108 10.0238 18.2909 10.0395 18.3613 10.0576C18.5021 10.0938 18.6608 10.1544 18.8255 10.2266C19.1581 10.3725 19.5808 10.5949 20.0575 10.8643C21.0141 11.4048 22.2376 12.1623 23.4901 12.9506C23.945 13.237 24.4036 13.5274 24.8557 13.8135C25.6529 14.3182 26.4297 14.81 27.13 15.2443C28.2388 15.9319 29.1123 16.4477 29.5564 16.6431C29.6506 16.6846 29.8291 16.699 30.1242 16.6007C30.4102 16.5055 30.7416 16.3249 31.0851 16.0821C31.7755 15.594 32.4256 14.9187 32.7572 14.4036C32.9536 14.0983 32.9563 13.9854 32.9556 13.9657C32.9548 13.9392 32.9527 13.9348 32.9148 13.8563C32.8998 13.8252 32.8792 13.7825 32.8508 13.7221C32.3151 12.5831 31.3272 10.8484 30.2987 9.30033C29.785 8.52716 29.267 7.80928 28.7958 7.24017C28.3112 6.65486 27.9178 6.27896 27.6559 6.1312C27.5692 6.08224 27.4234 6.05473 27.1778 6.09778C26.9346 6.14042 26.6519 6.24209 26.3415 6.37876C26.1266 6.47342 25.9194 6.57502 25.7121 6.67663C25.6174 6.72306 25.5227 6.76949 25.4272 6.81526ZM27.0051 5.11281C27.3649 5.04972 27.7775 5.05153 28.1474 5.26031C28.5842 5.50682 29.0782 6.01322 29.5661 6.60246C30.0673 7.20791 30.6067 7.95683 31.1316 8.74695C32.1803 10.3254 33.1945 12.1032 33.7557 13.2966C33.7609 13.3076 33.768 13.3215 33.7765 13.3382C33.8322 13.447 33.9466 13.6707 33.9551 13.9333C33.9655 14.2535 33.8359 14.5753 33.5981 14.9448C33.1865 15.5842 32.4402 16.3487 31.6624 16.8986C31.2719 17.1747 30.8512 17.4126 30.4401 17.5495C30.0381 17.6834 29.5742 17.7435 29.1536 17.5584C28.6312 17.3285 27.6919 16.7694 26.603 16.0941C25.8992 15.6577 25.1149 15.1612 24.3144 14.6544C23.8634 14.3689 23.4072 14.0801 22.9574 13.7969C21.7042 13.0082 20.4991 12.2624 19.5656 11.7349C19.0972 11.4703 18.7095 11.2677 18.4239 11.1425C18.2912 11.0843 18.1941 11.0488 18.1288 11.0305C17.8232 11.1747 17.5135 11.3253 17.2006 11.4775C16.5234 11.8068 15.8315 12.1433 15.1351 12.4361L15.1351 12.4361C13.1558 13.2682 10.8356 13.0004 9.43587 11.1375L9.43587 11.1375C9.14076 10.7447 9.1233 10.2835 9.22488 9.92137C9.31776 9.59035 9.54338 9.233 9.8916 9.07824C10.4728 8.78074 11.2331 8.31645 12.072 7.80421C12.6357 7.45999 13.2349 7.09412 13.839 6.74264C14.5776 6.31291 15.3149 5.91089 15.9658 5.62585C16.2915 5.48327 16.6057 5.3654 16.8949 5.28853C17.1779 5.21326 17.4703 5.16804 17.7398 5.19904C18.6924 5.30859 19.876 5.51771 20.9819 5.7131C21.2358 5.75797 21.4857 5.80212 21.7277 5.84417C22.382 5.95785 22.9789 6.0563 23.4592 6.11631C23.6993 6.14633 23.9032 6.16579 24.0661 6.17328C24.2384 6.18119 24.3314 6.17377 24.367 6.16642C24.4962 6.13975 24.6994 6.05526 24.9948 5.91358C25.0746 5.87535 25.1603 5.83333 25.2501 5.78934C25.4656 5.68372 25.7043 5.56674 25.9385 5.46358C26.2731 5.31622 26.6429 5.17631 27.0051 5.11281Z" fill="#CD942F"/>
<defs>
<radialGradient id="paint0_radial_16335_2424" cx="0" cy="0" r="1" gradientTransform="matrix(10.7849 15.3189 -18.7762 7.10322 10.2793 12.5953)" gradientUnits="userSpaceOnUse">
<stop stop-color="#FBEB9D"/>
<stop offset="0.34375" stop-color="#F6E071"/>
<stop offset="1" stop-color="#ECC91A"/>
</radialGradient>
<radialGradient id="paint1_radial_16335_2424" cx="0" cy="0" r="1" gradientUnits="userSpaceOnUse" gradientTransform="translate(12.2229 19.2817) rotate(124.38) scale(11.5109 15.1721)">
<stop stop-color="#FBEB9D"/>
<stop offset="0.34375" stop-color="#F6E071"/>
<stop offset="1" stop-color="#ECC91A"/>
</radialGradient>
<linearGradient id="paint2_linear_16335_2424" x1="23.1262" y1="5.79046" x2="21.6262" y2="14.7905" gradientUnits="userSpaceOnUse">
<stop stop-color="#FBEB9D"/>
<stop offset="0.34375" stop-color="#F6E071"/>
<stop offset="1" stop-color="#ECC91A"/>
</linearGradient>
<linearGradient id="paint3_linear_16335_2424" x1="24.9574" y1="-3.85766" x2="22.5858" y2="13.366" gradientUnits="userSpaceOnUse">
<stop stop-color="#FBEB9D"/>
<stop offset="0.34375" stop-color="#F6E071"/>
<stop offset="1" stop-color="#ECC91A"/>
</linearGradient>
<radialGradient id="paint4_radial_16335_2424" cx="0" cy="0" r="1" gradientUnits="userSpaceOnUse" gradientTransform="translate(18.6491 9.15194) rotate(115.747) scale(4.67968 12.4479)">
<stop stop-color="#783E11" stop-opacity="0.22"/>
<stop offset="1" stop-color="#783E11" stop-opacity="0.06"/>
</radialGradient>
</defs>
</svg>
