<svg width="34" height="34" viewBox="0 0 34 34" fill="none" xmlns="http://www.w3.org/2000/svg">
<path fill-rule="evenodd" clip-rule="evenodd" d="M32.3641 11.866C30.8164 16.6291 27.3422 19.7692 24.6041 18.8795C21.866 17.9898 20.9009 13.4074 22.4485 8.64428C23.9961 3.88119 27.4704 0.741161 30.2085 1.63082C32.9466 2.52049 33.9117 7.10295 32.3641 11.866ZM29.4578 10.9218C28.3929 14.1991 26.6112 16.5574 25.4781 16.1893C24.3451 15.8211 24.2899 12.8659 25.3547 9.5886C26.4196 6.3113 28.2013 3.95296 29.3343 4.3211C30.4674 4.68924 30.5226 7.64445 29.4578 10.9218ZM20.0099 12.8696C18.4623 17.6327 14.988 20.7728 12.2499 19.8831C9.51183 18.9934 8.54676 14.411 10.0944 9.64788C11.642 4.88479 15.1163 1.74476 17.8544 2.63442C20.5925 3.52408 21.5575 8.10654 20.0099 12.8696ZM17.1989 11.9563C16.1214 15.2723 14.2869 17.6481 13.1013 17.2629C11.9157 16.8776 11.828 13.8772 12.9054 10.5612C13.9828 7.24523 15.8174 4.86937 17.003 5.2546C18.1886 5.63983 18.2763 8.64026 17.1989 11.9563ZM29.9091 26.6564C29.9342 27.3463 29.3953 27.9259 28.7054 27.951C18.7079 28.3151 13.2301 29.9282 6.20849 32.4462C5.55866 32.6793 4.84295 32.3414 4.60991 31.6915C4.37687 31.0417 4.71475 30.326 5.36458 30.093C12.5438 27.5184 18.2836 25.8289 28.6144 25.4527C29.3043 25.4275 29.8839 25.9665 29.9091 26.6564ZM27.4662 23.3861C28.1561 23.3615 28.6954 22.7823 28.6709 22.0924C28.6463 21.4024 28.0671 20.8631 27.3772 20.8876C18.3877 21.2078 14.4542 22.2594 7.44407 24.5761C6.78858 24.7927 6.43281 25.4997 6.64943 26.1552C6.86604 26.8107 7.57303 27.1665 8.22852 26.9498C15.0775 24.6864 18.772 23.6957 27.4662 23.3861Z" fill="#FF4A45"/>
<path fill-rule="evenodd" clip-rule="evenodd" d="M9.60317 2.97597C10.0567 3.28517 10.2555 3.85408 10.0932 4.37845L3.88254 24.6574C3.67839 25.3169 2.75626 25.7795 2.09678 25.5753C1.43731 25.3712 0.854418 24.6909 1.05857 24.0315L6.17528 7.50301L3.24233 9.84717C2.70306 10.2782 1.91648 10.1904 1.48547 9.65115C1.05445 9.11188 1.14221 8.3253 1.68149 7.89429L7.79182 3.01059C8.22061 2.66788 9.14962 2.66677 9.60317 2.97597Z" fill="#FF4A45"/>
</svg>
