<svg width="34" height="34" viewBox="0 0 34 34" fill="none" xmlns="http://www.w3.org/2000/svg">
<circle cx="17" cy="17" r="17" fill="url(#paint0_radial_5557_33934)"/>
<g opacity="0.5">
<path fill-rule="evenodd" clip-rule="evenodd" d="M17 34C26.3888 34 34 26.3888 34 17C34 7.61116 26.3888 0 17 0C7.61116 0 0 7.61116 0 17C0 26.3888 7.61116 34 17 34ZM17.0001 32.5141C25.5683 32.5141 32.5141 25.5683 32.5141 17.0001C32.5141 8.43195 25.5683 1.48608 17.0001 1.48608C8.43195 1.48608 1.48608 8.43195 1.48608 17.0001C1.48608 25.5683 8.43195 32.5141 17.0001 32.5141Z" fill="url(#paint1_radial_5557_33934)"/>
<path fill-rule="evenodd" clip-rule="evenodd" d="M17 34C26.3888 34 34 26.3888 34 17C34 7.61116 26.3888 0 17 0C7.61116 0 0 7.61116 0 17C0 26.3888 7.61116 34 17 34ZM17.0001 32.5141C25.5683 32.5141 32.5141 25.5683 32.5141 17.0001C32.5141 8.43195 25.5683 1.48608 17.0001 1.48608C8.43195 1.48608 1.48608 8.43195 1.48608 17.0001C1.48608 25.5683 8.43195 32.5141 17.0001 32.5141Z" fill="#C08200" fill-opacity="0.28"/>
</g>
<path fill-rule="evenodd" clip-rule="evenodd" d="M10.5284 17.5989C9.02897 18.2155 8.16181 19.3757 8.13489 20.6421C8.12896 20.9276 8.15086 21.2121 8.17367 21.4975C8.20013 21.8342 8.2763 22.1658 8.38213 22.4933C8.60519 23.1791 9.01528 23.7966 9.5759 24.3583C9.98462 24.7665 10.4467 25.1374 10.933 25.4931C11.6756 26.0357 12.4579 26.5452 13.2375 27.0574C13.9007 27.4934 17.2188 28.8379 17.2188 28.8379C17.2188 28.8379 20.9498 27.1761 21.5866 26.7567C22.2676 26.3078 22.9468 25.857 23.5905 25.3771C24.1041 24.9915 24.589 24.5869 25.0023 24.1361C25.6145 23.4655 25.9821 22.7242 26.1336 21.9182C26.1874 21.63 26.2166 21.3409 26.2303 21.0504C26.2513 20.6255 26.2271 20.202 26.0816 19.7886C25.7613 18.8824 25.0849 18.1749 24.0307 17.6834C23.4427 17.4091 22.8013 17.2521 22.1162 17.1948C21.6856 17.1588 21.2549 17.1615 20.8266 17.2133C19.9982 17.3135 19.2579 17.568 18.5978 17.9606C18.0404 18.2899 17.5874 18.6903 17.2179 19.1466C17.207 19.1591 17.197 19.1716 17.186 19.1836C17.1235 19.1161 17.0724 19.0529 17.0177 18.991C16.4826 18.3859 15.8075 17.8973 14.9495 17.562C14.4317 17.3597 13.882 17.235 13.3032 17.1892C13.1385 17.1763 12.9743 17.1703 12.8101 17.1703C12.5929 17.1703 12.3763 17.1809 12.1596 17.2026C11.5835 17.2595 11.0383 17.3892 10.5284 17.5989Z" fill="#F03D37"/>
<path fill-rule="evenodd" clip-rule="evenodd" d="M24.9579 10.2012C24.9499 10.109 24.9008 10.0236 24.8236 9.97384C23.9828 9.43494 23.0245 9.16039 22.0272 9.24794C21.0311 9.33464 20.132 9.76857 19.3932 10.4443C19.3252 10.5064 19.2908 10.5994 19.2992 10.6917L19.376 11.5999C19.397 11.843 19.6804 11.9522 19.8604 11.7907C20.5887 11.14 21.4685 10.7223 22.4419 10.6368C23.1928 10.5714 23.9215 10.7108 24.5957 11.0134C24.798 11.1043 25.0213 10.945 25.0024 10.7214L24.9579 10.2012Z" fill="#783E11"/>
<path fill-rule="evenodd" clip-rule="evenodd" d="M11.455 9.24785C10.4472 9.15945 9.47883 9.4408 8.63093 9.9916C8.57132 10.0307 8.53271 10.097 8.52641 10.1688L8.47016 10.8314C8.45547 11.0052 8.63093 11.1336 8.7875 11.0596C9.48848 10.7252 10.2524 10.5679 11.0403 10.6372C12.0574 10.726 12.9716 11.1778 13.7179 11.879C13.8552 12.0087 14.0785 11.9207 14.0944 11.7311L14.1859 10.6593C14.1922 10.587 14.1654 10.5148 14.1125 10.4663C13.3699 9.77825 12.462 9.3354 11.455 9.24785Z" fill="#783E11"/>
<defs>
<radialGradient id="paint0_radial_5557_33934" cx="0" cy="0" r="1" gradientUnits="userSpaceOnUse" gradientTransform="translate(15.4754 7.00962) rotate(73.7184) scale(27.5504)">
<stop stop-color="#FFF1AA"/>
<stop offset="0.34375" stop-color="#FFE564"/>
<stop offset="0.760417" stop-color="#F4CC00"/>
<stop offset="1" stop-color="#F29E0B"/>
</radialGradient>
<radialGradient id="paint1_radial_5557_33934" cx="0" cy="0" r="1" gradientUnits="userSpaceOnUse" gradientTransform="translate(15.4754 7.00962) rotate(73.7184) scale(27.5504)">
<stop stop-color="#FBEB9D"/>
<stop offset="0.34375" stop-color="#F6E071"/>
<stop offset="0.786458" stop-color="#ECC91A"/>
<stop offset="1" stop-color="#E3BE00"/>
</radialGradient>
</defs>
</svg>
