<svg width="34" height="34" viewBox="0 0 34 34" fill="none" xmlns="http://www.w3.org/2000/svg">
<circle cx="17" cy="17" r="17" fill="url(#paint0_radial_8115_191465)"/>
<circle cx="17" cy="17" r="17" fill="#6FBA36" fill-opacity="0.3"/>
<path fill-rule="evenodd" clip-rule="evenodd" d="M17 34C26.3888 34 34 26.3888 34 17C34 7.61116 26.3888 0 17 0C7.61116 0 0 7.61116 0 17C0 26.3888 7.61116 34 17 34ZM17.0001 32.5141C25.5683 32.5141 32.5141 25.5683 32.5141 17.0001C32.5141 8.43195 25.5683 1.48608 17.0001 1.48608C8.43195 1.48608 1.48608 8.43195 1.48608 17.0001C1.48608 25.5683 8.43195 32.5141 17.0001 32.5141Z" fill="url(#paint1_radial_8115_191465)"/>
<path fill-rule="evenodd" clip-rule="evenodd" d="M17 34C26.3888 34 34 26.3888 34 17C34 7.61116 26.3888 0 17 0C7.61116 0 0 7.61116 0 17C0 26.3888 7.61116 34 17 34ZM17.0001 32.5141C25.5683 32.5141 32.5141 25.5683 32.5141 17.0001C32.5141 8.43195 25.5683 1.48608 17.0001 1.48608C8.43195 1.48608 1.48608 8.43195 1.48608 17.0001C1.48608 25.5683 8.43195 32.5141 17.0001 32.5141Z" fill="#86BF52" fill-opacity="0.3"/>
<mask id="path-3-outside-1_8115_191465" maskUnits="userSpaceOnUse" x="9.31897" y="8.93519" width="16" height="21" fill="black">
<rect fill="white" x="9.31897" y="8.93519" width="16" height="21"/>
<path fill-rule="evenodd" clip-rule="evenodd" d="M24.0242 16.7878C24.0242 18.5582 22.7227 20.1717 21.6207 21.3878C21.2286 21.8204 21.2066 22.2639 21.1865 22.669C21.1422 23.5596 21.1072 24.2654 17.1716 24.2654C13.2171 24.2654 13.1631 23.5528 13.0953 22.6562C13.0649 22.2545 13.0317 21.8159 12.6438 21.3878C11.5418 20.1717 10.319 18.5582 10.319 16.7878C10.319 13.0032 13.387 9.93519 17.1716 9.93519C20.9562 9.93519 24.0242 13.0032 24.0242 16.7878ZM14.1758 26.8337C14.1758 26.1205 14.754 25.5423 15.4672 25.5423H18.6631C19.3764 25.5423 19.9545 26.1205 19.9545 26.8337C19.9545 27.5469 19.3764 28.1251 18.6631 28.1251H15.4672C14.754 28.1251 14.1758 27.5469 14.1758 26.8337ZM19.9751 19.5671C20.6579 18.8136 21.4645 17.8137 21.4645 16.7166C21.4645 14.3714 19.5633 12.4702 17.218 12.4702C14.8728 12.4702 12.9716 14.3714 12.9716 16.7166C12.9716 17.8137 13.7294 18.8136 14.4123 19.5671C14.6518 19.8315 14.7103 20.167 14.7691 20.5047C14.9009 21.2619 15.0347 22.0297 17.218 22.0297C19.3928 22.0297 19.5109 21.268 19.6279 20.5137C19.6807 20.173 19.7333 19.8339 19.9751 19.5671Z"/>
</mask>
<path fill-rule="evenodd" clip-rule="evenodd" d="M24.0242 16.7878C24.0242 18.5582 22.7227 20.1717 21.6207 21.3878C21.2286 21.8204 21.2066 22.2639 21.1865 22.669C21.1422 23.5596 21.1072 24.2654 17.1716 24.2654C13.2171 24.2654 13.1631 23.5528 13.0953 22.6562C13.0649 22.2545 13.0317 21.8159 12.6438 21.3878C11.5418 20.1717 10.319 18.5582 10.319 16.7878C10.319 13.0032 13.387 9.93519 17.1716 9.93519C20.9562 9.93519 24.0242 13.0032 24.0242 16.7878ZM14.1758 26.8337C14.1758 26.1205 14.754 25.5423 15.4672 25.5423H18.6631C19.3764 25.5423 19.9545 26.1205 19.9545 26.8337C19.9545 27.5469 19.3764 28.1251 18.6631 28.1251H15.4672C14.754 28.1251 14.1758 27.5469 14.1758 26.8337ZM19.9751 19.5671C20.6579 18.8136 21.4645 17.8137 21.4645 16.7166C21.4645 14.3714 19.5633 12.4702 17.218 12.4702C14.8728 12.4702 12.9716 14.3714 12.9716 16.7166C12.9716 17.8137 13.7294 18.8136 14.4123 19.5671C14.6518 19.8315 14.7103 20.167 14.7691 20.5047C14.9009 21.2619 15.0347 22.0297 17.218 22.0297C19.3928 22.0297 19.5109 21.268 19.6279 20.5137C19.6807 20.173 19.7333 19.8339 19.9751 19.5671Z" fill="white"/>
<path d="M21.6207 21.3878L22.3617 22.0593L21.6207 21.3878ZM21.1865 22.669L22.1852 22.7186V22.7186L21.1865 22.669ZM13.0953 22.6562L12.0981 22.7316H12.0981L13.0953 22.6562ZM12.6438 21.3878L13.3848 20.7163H13.3848L12.6438 21.3878ZM19.9751 19.5671L20.7161 20.2386H20.7161L19.9751 19.5671ZM14.4123 19.5671L15.1533 18.8956H15.1533L14.4123 19.5671ZM14.7691 20.5047L15.7543 20.3331V20.3331L14.7691 20.5047ZM19.6279 20.5137L18.6397 20.3604L19.6279 20.5137ZM22.3617 22.0593C22.923 21.4398 23.5788 20.6728 24.0946 19.8078C24.6099 18.9436 25.0242 17.9182 25.0242 16.7878H23.0242C23.0242 17.4278 22.7877 18.0944 22.3768 18.7835C21.9663 19.472 21.4203 20.1197 20.8797 20.7163L22.3617 22.0593ZM22.1852 22.7186C22.1959 22.5031 22.2047 22.3934 22.2308 22.2944C22.2509 22.2187 22.2829 22.1462 22.3617 22.0593L20.8797 20.7163C20.229 21.4343 20.2081 22.2084 20.1877 22.6194L22.1852 22.7186ZM17.1716 25.2654C18.1798 25.2654 18.9722 25.2206 19.5952 25.1311C20.2083 25.043 20.7235 24.903 21.1325 24.6706C21.5794 24.4165 21.8745 24.0653 22.0315 23.642C22.1657 23.2802 22.1758 22.9079 22.1852 22.7186L20.1877 22.6194C20.1818 22.7379 20.1778 22.8091 20.1702 22.871C20.1631 22.9282 20.1561 22.947 20.1564 22.9464C20.1714 22.9059 20.2034 22.8981 20.1441 22.9319C20.0468 22.9872 19.8126 23.0793 19.3108 23.1514C18.819 23.2221 18.1312 23.2654 17.1716 23.2654V25.2654ZM12.0981 22.7316C12.1127 22.9238 12.1327 23.2947 12.275 23.6541C12.4402 24.0713 12.7383 24.4172 13.1859 24.6688C13.5975 24.9002 14.1152 25.041 14.7336 25.1299C15.3613 25.2201 16.1584 25.2654 17.1716 25.2654V23.2654C16.2075 23.2654 15.5149 23.2217 15.0182 23.1503C14.5122 23.0775 14.2706 22.9842 14.166 22.9254C14.1205 22.8998 14.1126 22.8872 14.1198 22.8953C14.1228 22.8986 14.1265 22.9036 14.13 22.9093C14.1334 22.9149 14.1347 22.9183 14.1345 22.9177C14.124 22.8913 14.1118 22.8369 14.0924 22.5807L12.0981 22.7316ZM11.9028 22.0593C11.9835 22.1484 12.0188 22.2248 12.0416 22.305C12.0705 22.4068 12.082 22.5186 12.0981 22.7316L14.0924 22.5807C14.0615 22.1727 14.0209 21.4183 13.3848 20.7163L11.9028 22.0593ZM9.31897 16.7878C9.31897 18.9789 10.8063 20.8494 11.9028 22.0593L13.3848 20.7163C12.2772 19.4941 11.319 18.1374 11.319 16.7878H9.31897ZM17.1716 8.93519C12.8347 8.93519 9.31897 12.4509 9.31897 16.7878H11.319C11.319 13.5555 13.9393 10.9352 17.1716 10.9352V8.93519ZM25.0242 16.7878C25.0242 12.4509 21.5085 8.93519 17.1716 8.93519V10.9352C20.4039 10.9352 23.0242 13.5555 23.0242 16.7878H25.0242ZM15.4672 24.5423C14.2017 24.5423 13.1758 25.5682 13.1758 26.8337H15.1758C15.1758 26.6728 15.3062 26.5423 15.4672 26.5423V24.5423ZM18.6631 24.5423H15.4672V26.5423H18.6631V24.5423ZM20.9545 26.8337C20.9545 25.5682 19.9286 24.5423 18.6631 24.5423V26.5423C18.8241 26.5423 18.9545 26.6728 18.9545 26.8337H20.9545ZM18.6631 29.1251C19.9286 29.1251 20.9545 28.0992 20.9545 26.8337H18.9545C18.9545 26.9946 18.8241 27.1251 18.6631 27.1251V29.1251ZM15.4672 29.1251H18.6631V27.1251H15.4672V29.1251ZM13.1758 26.8337C13.1758 28.0992 14.2017 29.1251 15.4672 29.1251V27.1251C15.3062 27.1251 15.1758 26.9946 15.1758 26.8337H13.1758ZM20.4645 16.7166C20.4645 17.0199 20.3517 17.3648 20.1169 17.7585C19.8826 18.1516 19.5651 18.5303 19.234 18.8956L20.7161 20.2386C21.0679 19.8504 21.4951 19.3524 21.8347 18.7828C22.1739 18.214 22.4645 17.5104 22.4645 16.7166H20.4645ZM17.218 13.4702C19.011 13.4702 20.4645 14.9237 20.4645 16.7166H22.4645C22.4645 13.8191 20.1156 11.4702 17.218 11.4702V13.4702ZM13.9716 16.7166C13.9716 14.9237 15.4251 13.4702 17.218 13.4702V11.4702C14.3205 11.4702 11.9716 13.8191 11.9716 16.7166H13.9716ZM15.1533 18.8956C14.4648 18.136 13.9716 17.3929 13.9716 16.7166H11.9716C11.9716 18.2344 12.9939 19.4912 13.6712 20.2386L15.1533 18.8956ZM15.7543 20.3331C15.7039 20.0441 15.618 19.4085 15.1533 18.8956L13.6712 20.2386C13.6719 20.2394 13.6865 20.2535 13.7078 20.3186C13.7337 20.3979 13.7522 20.4944 13.7839 20.6762L15.7543 20.3331ZM17.218 21.0297C16.1953 21.0297 15.9293 20.8398 15.8881 20.8033C15.8632 20.7812 15.8283 20.758 15.7543 20.3331L13.7839 20.6762C13.8418 21.0085 13.9396 21.7478 14.5604 22.2989C15.1649 22.8356 16.0574 23.0297 17.218 23.0297V21.0297ZM18.6397 20.3604C18.5735 20.7873 18.5394 20.7989 18.5252 20.8116C18.4937 20.84 18.2399 21.0297 17.218 21.0297V23.0297C18.3709 23.0297 19.2635 22.8385 19.864 22.2975C20.4818 21.7408 20.5653 20.9943 20.6161 20.667L18.6397 20.3604ZM19.234 18.8956C18.7594 19.4194 18.6846 20.0706 18.6397 20.3604L20.6161 20.667C20.6446 20.483 20.6613 20.3876 20.6855 20.3096C20.6957 20.2768 20.7041 20.2588 20.7089 20.2498C20.7131 20.2418 20.7153 20.2394 20.7161 20.2386L19.234 18.8956Z" fill="black" fill-opacity="0.05" mask="url(#path-3-outside-1_8115_191465)"/>
<path opacity="0.7" fill-rule="evenodd" clip-rule="evenodd" d="M17.0862 3.95317C17.6385 3.95317 18.0862 4.40089 18.0862 4.95317V7.45317C18.0862 8.00546 17.6385 8.45317 17.0862 8.45317C16.5339 8.45317 16.0862 8.00546 16.0862 7.45317V4.95317C16.0862 4.40089 16.5339 3.95317 17.0862 3.95317Z" fill="white"/>
<path opacity="0.7" fill-rule="evenodd" clip-rule="evenodd" d="M25.5039 6.39157C25.9249 6.74907 25.9763 7.38014 25.6188 7.80111L24.0006 9.70667C23.6431 10.1276 23.012 10.1791 22.591 9.82158C22.17 9.46408 22.1186 8.833 22.4761 8.41204L24.0944 6.50648C24.4519 6.08551 25.083 6.03407 25.5039 6.39157Z" fill="white"/>
<path opacity="0.7" fill-rule="evenodd" clip-rule="evenodd" d="M8.5908 6.31329C8.15062 6.64685 8.06419 7.27408 8.39775 7.71426L9.90765 9.7068C10.2412 10.147 10.8684 10.2334 11.3086 9.89985C11.7488 9.56629 11.8352 8.93906 11.5017 8.49888L9.99178 6.50634C9.65822 6.06616 9.03098 5.97973 8.5908 6.31329Z" fill="white"/>
<path opacity="0.7" fill-rule="evenodd" clip-rule="evenodd" d="M4.67893 13.646C4.5271 14.177 4.83447 14.7305 5.36548 14.8823L7.76914 15.5697C8.30015 15.7215 8.8537 15.4141 9.00553 14.8831C9.15737 14.3521 8.84999 13.7986 8.31899 13.6467L5.91532 12.9594C5.38432 12.8076 4.83077 13.115 4.67893 13.646Z" fill="white"/>
<path opacity="0.7" fill-rule="evenodd" clip-rule="evenodd" d="M29.7427 13.2876C29.8945 13.8186 29.5872 14.3722 29.0562 14.524L26.6525 15.2113C26.1215 15.3631 25.5679 15.0558 25.4161 14.5248C25.2643 13.9938 25.5716 13.4402 26.1026 13.2884L28.5063 12.6011C29.0373 12.4492 29.5909 12.7566 29.7427 13.2876Z" fill="white"/>
<defs>
<radialGradient id="paint0_radial_8115_191465" cx="0" cy="0" r="1" gradientUnits="userSpaceOnUse" gradientTransform="translate(15.4754 7.00962) rotate(73.7184) scale(27.5504)">
<stop stop-color="#C1F09B"/>
<stop offset="0.34375" stop-color="#ABEB78"/>
<stop offset="0.96875" stop-color="#7FCD31"/>
</radialGradient>
<radialGradient id="paint1_radial_8115_191465" cx="0" cy="0" r="1" gradientUnits="userSpaceOnUse" gradientTransform="translate(15.4754 7.00962) rotate(73.7184) scale(27.5504)">
<stop stop-color="#A1D27B"/>
<stop offset="0.34375" stop-color="#97CE6A"/>
<stop offset="0.96875" stop-color="#8BC555"/>
</radialGradient>
</defs>
</svg>
