<svg width="34" height="34" viewBox="0 0 34 34" fill="none" xmlns="http://www.w3.org/2000/svg">
<circle cx="17" cy="17" r="17" fill="url(#paint0_radial_5557_33975)"/>
<g opacity="0.5">
<path fill-rule="evenodd" clip-rule="evenodd" d="M17 34C26.3888 34 34 26.3888 34 17C34 7.61116 26.3888 0 17 0C7.61116 0 0 7.61116 0 17C0 26.3888 7.61116 34 17 34ZM17.0001 32.5141C25.5683 32.5141 32.5141 25.5683 32.5141 17.0001C32.5141 8.43195 25.5683 1.48608 17.0001 1.48608C8.43195 1.48608 1.48608 8.43195 1.48608 17.0001C1.48608 25.5683 8.43195 32.5141 17.0001 32.5141Z" fill="url(#paint1_radial_5557_33975)"/>
<path fill-rule="evenodd" clip-rule="evenodd" d="M17 34C26.3888 34 34 26.3888 34 17C34 7.61116 26.3888 0 17 0C7.61116 0 0 7.61116 0 17C0 26.3888 7.61116 34 17 34ZM17.0001 32.5141C25.5683 32.5141 32.5141 25.5683 32.5141 17.0001C32.5141 8.43195 25.5683 1.48608 17.0001 1.48608C8.43195 1.48608 1.48608 8.43195 1.48608 17.0001C1.48608 25.5683 8.43195 32.5141 17.0001 32.5141Z" fill="#C08200" fill-opacity="0.28"/>
</g>
<ellipse cx="17.1453" cy="25.5808" rx="3.25686" ry="4.59153" fill="#B26423"/>
<path d="M18.976 24.6544C18.9884 24.875 18.8081 25.0547 18.5872 25.0547C18.2498 25.0547 17.7293 25.0547 17.1453 25.0547C16.5613 25.0547 16.0408 25.0547 15.7034 25.0547C15.4825 25.0547 15.3022 24.875 15.3147 24.6544C15.4151 22.8819 16.1964 22.2951 17.1453 22.2951C18.0944 22.2951 18.8759 22.8763 18.976 24.6544Z" fill="white"/>
<mask id="mask0_5557_33975" style="mask-type:alpha" maskUnits="userSpaceOnUse" x="0" y="0" width="34" height="34">
<circle cx="17" cy="17" r="17" fill="#F6E071"/>
</mask>
<g mask="url(#mask0_5557_33975)">
<rect x="7.64008" y="15.4666" width="5" height="18.0755" fill="#29B5E2"/>
<rect x="21.24" y="15.4666" width="5" height="18.0755" fill="#29B5E2"/>
<path opacity="0.2" d="M22.43 15.4881H25.43V31.9098H22.43L22.43 15.4881Z" fill="url(#paint2_linear_5557_33975)"/>
<path opacity="0.2" d="M8.45563 15.4881H11.4571V31.9098H8.45563L8.45563 15.4881Z" fill="url(#paint3_linear_5557_33975)"/>
</g>
<path fill-rule="evenodd" clip-rule="evenodd" d="M11.074 13.9127C9.85342 13.9188 8.71662 14.3375 7.75117 15.0473C7.68334 15.0976 7.64342 15.1764 7.64291 15.258L7.64041 16.0108C7.63983 16.2083 7.86343 16.3345 8.04444 16.2348C8.85449 15.7842 9.75768 15.5268 10.7119 15.5223C11.9436 15.5158 13.0874 15.9291 14.0538 16.6414C14.2316 16.7731 14.4915 16.6505 14.492 16.4351L14.4967 15.2173C14.4971 15.1352 14.4577 15.0566 14.3894 15.0075C13.4288 14.3098 12.2935 13.9058 11.074 13.9127Z" fill="#783E11"/>
<path fill-rule="evenodd" clip-rule="evenodd" d="M4.98531 14.6348C5.68687 13.3276 6.7497 12.3422 7.91469 11.7253C9.07967 11.1083 9.75245 10.9109 10.3568 10.9298C10.51 10.9351 10.643 11.0142 10.7297 11.1369L10.7556 11.1738C11.0211 11.5508 10.8169 12.0824 10.2601 12.236C9.70329 12.3895 8.86843 12.8165 8.45973 13.001C7.46019 13.4521 6.59936 14.2444 5.93439 15.2373C5.68909 15.6036 5.2085 15.6444 4.98934 15.3331C4.85594 15.1444 4.85844 14.871 4.98531 14.6348Z" fill="#783E11"/>
<path fill-rule="evenodd" clip-rule="evenodd" d="M22.8154 13.9128C24.0357 13.9188 25.1721 14.3375 26.1373 15.0473C26.2051 15.0976 26.245 15.1764 26.2455 15.258L26.248 16.0108C26.2486 16.2083 26.025 16.3345 25.8441 16.2348C25.0343 15.7842 24.1313 15.5269 23.1774 15.5224C21.9459 15.5159 20.8025 15.9293 19.8363 16.6415C19.6586 16.7732 19.3988 16.6506 19.3982 16.4353L19.3936 15.2175C19.3931 15.1354 19.4325 15.0568 19.5009 15.0077C20.4612 14.3099 21.5962 13.9059 22.8154 13.9128Z" fill="#783E11"/>
<path fill-rule="evenodd" clip-rule="evenodd" d="M28.9031 14.6348C28.2016 13.3276 27.1387 12.3422 25.9737 11.7253C24.8088 11.1083 24.136 10.9109 23.5317 10.9298C23.3785 10.9351 23.2454 11.0142 23.1587 11.1369L23.1328 11.1738C22.8673 11.5508 23.0715 12.0824 23.6283 12.236C24.1851 12.3895 25.02 12.8165 25.4287 13.001C26.4282 13.4521 27.2891 14.2444 27.954 15.2373C28.1993 15.6036 28.6799 15.6444 28.8991 15.3331C29.0325 15.1444 29.03 14.871 28.9031 14.6348Z" fill="#783E11"/>
<defs>
<radialGradient id="paint0_radial_5557_33975" cx="0" cy="0" r="1" gradientUnits="userSpaceOnUse" gradientTransform="translate(15.4754 7.00962) rotate(73.7184) scale(27.5504)">
<stop stop-color="#FFF1AA"/>
<stop offset="0.34375" stop-color="#FFE564"/>
<stop offset="0.760417" stop-color="#F4CC00"/>
<stop offset="1" stop-color="#F29E0B"/>
</radialGradient>
<radialGradient id="paint1_radial_5557_33975" cx="0" cy="0" r="1" gradientUnits="userSpaceOnUse" gradientTransform="translate(15.4754 7.00962) rotate(73.7184) scale(27.5504)">
<stop stop-color="#FBEB9D"/>
<stop offset="0.34375" stop-color="#F6E071"/>
<stop offset="0.786458" stop-color="#ECC91A"/>
<stop offset="1" stop-color="#E3BE00"/>
</radialGradient>
<linearGradient id="paint2_linear_5557_33975" x1="23.93" y1="15.4881" x2="23.93" y2="31.9098" gradientUnits="userSpaceOnUse">
<stop stop-color="white"/>
<stop offset="1" stop-color="white" stop-opacity="0"/>
</linearGradient>
<linearGradient id="paint3_linear_5557_33975" x1="9.95634" y1="15.4881" x2="9.95634" y2="31.9098" gradientUnits="userSpaceOnUse">
<stop stop-color="white"/>
<stop offset="1" stop-color="white" stop-opacity="0"/>
</linearGradient>
</defs>
</svg>
