<svg width="34" height="34" viewBox="0 0 34 34" fill="none" xmlns="http://www.w3.org/2000/svg">
<path fill-rule="evenodd" clip-rule="evenodd" d="M14.2314 15.6185L14.2317 15.632C14.239 15.8423 14.4181 16.0106 14.6378 16.0106L14.812 16.0106L14.826 16.0104C15.0439 16.0033 15.2183 15.8307 15.2184 15.6188V14.7957C15.2184 14.7446 15.2215 14.6937 15.2275 14.6442C15.3327 13.7749 16.3333 13.1721 17.2794 13.1721H17.3375C18.1584 13.1721 19.16 13.8326 19.2721 14.6454C19.2724 14.6478 19.2727 14.6502 19.2731 14.6526C19.2757 14.6729 19.2778 14.6932 19.2794 14.7136C19.2796 14.7165 19.2798 14.7194 19.28 14.7223C19.2803 14.7268 19.2806 14.7314 19.2808 14.7358C19.2819 14.7554 19.2824 14.7751 19.2824 14.7949V14.7223V14.7358C19.2831 14.7561 19.2857 14.776 19.2895 14.7955C19.325 14.977 19.4903 15.1144 19.6888 15.1144L19.877 15.1142C20.0692 15.1079 20.2275 14.9729 20.2623 14.7957C20.2669 14.772 20.2694 14.7473 20.2694 14.7223L20.2711 14.7051L20.2772 14.6452C20.2769 14.6416 20.2766 14.638 20.2764 14.6344C20.2767 14.6371 20.2771 14.6398 20.2774 14.6425L21.135 3.12697C21.2473 2.0916 22.0706 1.14355 23.2066 1.23157L23.2647 1.23157C24.5405 1.34314 25.1892 2.59058 25.087 3.6641L24.5099 21.6636L24.5076 21.7254L24.5342 21.6771C24.8635 21.0838 25.2118 20.4676 25.5774 19.9296C25.9927 19.3185 26.4304 18.8084 26.8882 18.5477C28.0911 17.8626 28.6712 17.9006 29.5349 18.0223L29.7673 18.0555C30.2186 18.12 30.6513 18.3198 31.0653 18.6549C31.4184 18.9407 31.4796 19.4424 31.2049 19.7994L23.976 31.1524L23.2647 31.6163C23.1303 31.7813 22.316 31.7789 22.0274 31.778C22.0094 31.778 21.9934 31.7779 21.9798 31.7779L10.3482 31.7779L10.3278 31.7776C10.0775 31.7712 9.84616 31.6451 9.71129 31.4405C7.09366 27.4691 6.40161 22.9492 6.2135 21.2458C6.02538 19.5423 5.96138 16.8716 5.96138 16.8716L5.64453 7.04011C5.64453 6.09659 6.31553 4.9694 7.29349 4.9694C8.27144 4.9694 9.06423 5.73427 9.06423 6.67778L9.58016 16.2774L9.58039 16.2909C9.5807 16.2995 9.58129 16.3081 9.58216 16.3166C9.60253 16.5147 9.77581 16.6695 9.98656 16.6695L10.1607 16.6695L10.1747 16.6693C10.3927 16.6622 10.5671 16.4894 10.5671 16.2774L10.5082 14.7954C10.5082 13.8555 11.5482 13.2814 12.5186 13.2814C13.3142 13.2814 14.1342 13.7857 14.2236 14.64C14.2289 14.6906 14.2317 14.7424 14.2317 14.7954L14.2314 15.6185ZM14.7464 13.3326C14.9054 13.1343 15.0891 12.9635 15.2813 12.8221C15.8468 12.406 16.5706 12.1721 17.2794 12.1721H17.3375C18.0311 12.1721 18.7293 12.4558 19.2536 12.8668C19.3146 12.9146 19.3756 12.9661 19.4357 13.0211L20.1408 3.01917C20.2927 1.61857 21.443 0.116809 23.2416 0.231569L23.3084 0.231569L23.3518 0.235372C25.3502 0.410142 26.2055 2.30849 26.0853 3.72787L25.6415 18.2638C25.8714 18.036 26.1218 17.8333 26.3933 17.6787C27.0603 17.2988 27.625 17.0789 28.1894 16.9936C28.7489 16.9092 29.236 16.9703 29.6744 17.0321L29.6765 17.0324L29.9087 17.0656C30.567 17.1596 31.164 17.4482 31.6945 17.8776C32.4499 18.4891 32.6024 19.5769 32.029 20.367L24.7035 31.8718L23.8751 32.4121C23.7526 32.5114 23.634 32.5667 23.5654 32.5955C23.448 32.6448 23.334 32.6744 23.2458 32.6933C23.068 32.7314 22.8787 32.7501 22.7228 32.7606C22.4419 32.7795 22.153 32.7785 22.0216 32.778C22.005 32.778 21.991 32.7779 21.9798 32.7779H10.3352L10.3019 32.7774C9.73512 32.7627 9.1969 32.4772 8.87634 31.9908C6.12701 27.8196 5.41317 23.109 5.21954 21.3556C5.12173 20.4699 5.0576 19.3494 5.0179 18.4647C4.99791 18.0193 4.98388 17.6279 4.97484 17.3478C4.97032 17.2076 4.96704 17.0951 4.96488 17.0174L4.96248 16.9278L4.96195 16.9071L4.64453 7.06329V7.04011C4.64453 6.353 4.8816 5.6306 5.29284 5.06372C5.70585 4.49442 6.38742 3.9694 7.29349 3.9694C8.77544 3.9694 10.04 5.12623 10.0639 6.63437L10.3314 13.0563C10.4131 12.9853 10.498 12.9201 10.5846 12.8608C11.1494 12.4741 11.8536 12.2814 12.5186 12.2814C13.2855 12.2814 14.1991 12.6275 14.7464 13.3326Z" fill="#CD942F"/>
<path fill-rule="evenodd" clip-rule="evenodd" d="M17.2795 13.1721C16.2793 13.1721 15.2184 13.8456 15.2184 14.7955L15.2184 15.6185C15.2184 15.8306 15.044 16.0033 14.826 16.0104L14.812 16.0106L14.6379 16.0106C14.4181 16.0106 14.2391 15.8423 14.2317 15.632L14.2315 15.6185L14.2317 14.7955C14.2315 13.8472 13.3614 13.2814 12.5186 13.2814C11.5483 13.2814 10.5082 13.8555 10.5082 14.7954L10.5672 16.2774C10.5672 16.4894 10.3927 16.6622 10.1747 16.6693L10.1608 16.6695L9.98658 16.6695C9.76681 16.6695 9.58778 16.5012 9.58041 16.2909L9.58018 16.2774L9.06425 6.67778C9.06425 5.73427 8.27147 4.9694 7.29351 4.9694C6.31555 4.9694 5.64455 6.0966 5.64455 7.04011L5.9614 16.8716C5.9614 16.8716 6.0254 19.5423 6.21352 21.2458C6.40163 22.9492 7.09368 27.4691 9.71131 31.4405C9.84618 31.6451 10.0775 31.7712 10.3278 31.7777L10.3482 31.7779L21.9798 31.7779C22.2116 31.7779 23.1219 31.7916 23.2647 31.6164L23.9761 31.1524L31.2049 19.7994C31.4796 19.4424 31.4184 18.9407 31.0654 18.6549C30.6513 18.3198 30.2186 18.12 29.7673 18.0555L29.535 18.0223C28.6712 17.9006 28.0911 17.8626 26.8882 18.5477C26.0274 19.0379 25.2376 20.4099 24.5343 21.6771L24.5076 21.7254L25.087 3.66411C25.1892 2.59058 24.5405 1.34315 23.2647 1.23157L23.2067 1.23157C22.0706 1.14356 21.2473 2.09161 21.135 3.12698L20.2694 14.7223C20.2694 14.9344 20.095 15.1071 19.877 15.1142L19.6888 15.1144C19.4691 15.1144 19.29 14.9461 19.2827 14.7358L19.2824 14.7223V14.7955C19.2827 13.9155 18.2084 13.1721 17.3375 13.1721H17.2795Z" fill="url(#paint0_radial_7114_177864)"/>
<path fill-rule="evenodd" clip-rule="evenodd" d="M17.2795 13.1721C16.2793 13.1721 15.2184 13.8456 15.2184 14.7955L15.2184 15.6185C15.2184 15.8306 15.044 16.0033 14.826 16.0104L14.812 16.0106L14.6379 16.0106C14.4181 16.0106 14.2391 15.8423 14.2317 15.632L14.2315 15.6185L14.2317 14.7955C14.2315 13.8472 13.3614 13.2814 12.5186 13.2814C11.5483 13.2814 10.5082 13.8555 10.5082 14.7954L10.5672 16.2774C10.5672 16.4894 10.3927 16.6622 10.1747 16.6693L10.1608 16.6695L9.98658 16.6695C9.76681 16.6695 9.58778 16.5012 9.58041 16.2909L9.58018 16.2774L9.06425 6.67778C9.06425 5.73427 8.27147 4.9694 7.29351 4.9694C6.31555 4.9694 5.64455 6.0966 5.64455 7.04011L5.9614 16.8716C5.9614 16.8716 6.0254 19.5423 6.21352 21.2458C6.40163 22.9492 7.09368 27.4691 9.71131 31.4405C9.84618 31.6451 10.0775 31.7712 10.3278 31.7777L10.3482 31.7779L21.9798 31.7779C22.2116 31.7779 23.1219 31.7916 23.2647 31.6164L23.9761 31.1524L31.2049 19.7994C31.4796 19.4424 31.4184 18.9407 31.0654 18.6549C30.6513 18.3198 30.2186 18.12 29.7673 18.0555L29.535 18.0223C28.6712 17.9006 28.0911 17.8626 26.8882 18.5477C26.0274 19.0379 25.2376 20.4099 24.5343 21.6771L24.5076 21.7254L25.087 3.66411C25.1892 2.59058 24.5405 1.34315 23.2647 1.23157L23.2067 1.23157C22.0706 1.14356 21.2473 2.09161 21.135 3.12698L20.2694 14.7223C20.2694 14.9344 20.095 15.1071 19.877 15.1142L19.6888 15.1144C19.4691 15.1144 19.29 14.9461 19.2827 14.7358L19.2824 14.7223V14.7955C19.2827 13.9155 18.2084 13.1721 17.3375 13.1721H17.2795Z" fill="#FFE45C" fill-opacity="0.23"/>
<path opacity="0.8" d="M10.3097 21.6403C9.77455 20.7901 9.64331 19.0984 9.64331 19.0984L20.441 19.0984C20.441 19.0984 20.5174 20.5454 19.8184 21.6403C19.0419 22.8567 18.0669 23.7381 16.0846 23.7381C14.1124 23.7381 11.5566 23.6216 10.3097 21.6403Z" fill="url(#paint1_linear_7114_177864)"/>
<path d="M14.3815 13.6603C14.3295 12.0823 15.4954 10.7584 16.9856 10.7033L17.4957 10.6845C18.9859 10.6294 20.2362 11.8639 20.2882 13.4419L20.4586 18.606C20.5106 20.184 19.3447 21.5079 17.8544 21.563L17.3444 21.5818C15.8541 21.6369 14.6038 20.4024 14.5518 18.8244L14.3815 13.6603Z" fill="url(#paint2_radial_7114_177864)"/>
<path d="M14.3815 13.6603C14.3295 12.0823 15.4954 10.7584 16.9856 10.7033L17.4957 10.6845C18.9859 10.6294 20.2362 11.8639 20.2882 13.4419L20.4586 18.606C20.5106 20.184 19.3447 21.5079 17.8544 21.563L17.3444 21.5818C15.8541 21.6369 14.6038 20.4024 14.5518 18.8244L14.3815 13.6603Z" fill="#FFE45C" fill-opacity="0.23"/>
<path d="M9.47995 13.7881C9.42791 12.2101 10.5938 10.8862 12.0841 10.8311L12.5938 10.8123C14.084 10.7572 15.3343 11.9917 15.3863 13.5697L15.5557 18.7051C15.6078 20.2831 14.4418 21.607 12.9516 21.6621L12.4419 21.6809C10.9516 21.736 9.70135 20.5015 9.64931 18.9235L9.47995 13.7881Z" fill="url(#paint3_radial_7114_177864)"/>
<path d="M9.47995 13.7881C9.42791 12.2101 10.5938 10.8862 12.0841 10.8311L12.5938 10.8123C14.084 10.7572 15.3343 11.9917 15.3863 13.5697L15.5557 18.7051C15.6078 20.2831 14.4418 21.607 12.9516 21.6621L12.4419 21.6809C10.9516 21.736 9.70135 20.5015 9.64931 18.9235L9.47995 13.7881Z" fill="#FFE45C" fill-opacity="0.23"/>
<path fill-rule="evenodd" clip-rule="evenodd" d="M17.5306 11.7427L17.0205 11.7615C16.0822 11.7962 15.3481 12.6298 15.3809 13.6233L15.5512 18.7875C15.584 19.781 16.3712 20.5583 17.3095 20.5236L17.8195 20.5047C18.7578 20.4701 19.4919 19.6365 19.4592 18.643L19.2889 13.4788C19.2561 12.4853 18.4689 11.708 17.5306 11.7427ZM16.9856 10.7033C15.4954 10.7584 14.3295 12.0823 14.3815 13.6603L14.5518 18.8244C14.6038 20.4024 15.8541 21.6369 17.3444 21.5818L17.8544 21.563C19.3447 21.5079 20.5106 20.184 20.4586 18.606L20.2882 13.4419C20.2362 11.8639 18.9859 10.6294 17.4957 10.6845L16.9856 10.7033Z" fill="#CD942F"/>
<path fill-rule="evenodd" clip-rule="evenodd" d="M12.6287 11.8705L12.119 11.8894C11.1807 11.924 10.4466 12.7576 10.4793 13.7511L10.6487 18.8865C10.6815 19.8801 11.4687 20.6574 12.407 20.6227L12.9167 20.6038C13.855 20.5691 14.5891 19.7356 14.5563 18.7421L14.387 13.6067C14.3542 12.6131 13.567 11.8358 12.6287 11.8705ZM12.0841 10.8311C10.5938 10.8862 9.42791 12.2101 9.47995 13.7881L9.64931 18.9235C9.70135 20.5015 10.9516 21.736 12.4419 21.6809L12.9516 21.6621C14.4418 21.607 15.6078 20.2831 15.5557 18.7051L15.3863 13.5697C15.3343 11.9917 14.084 10.7572 12.5938 10.8123L12.0841 10.8311Z" fill="#CD942F"/>
<defs>
<radialGradient id="paint0_radial_7114_177864" cx="0" cy="0" r="1" gradientTransform="matrix(-6.30837 21.2193 -19.3619 -6.59761 16.9498 10.5089)" gradientUnits="userSpaceOnUse">
<stop stop-color="#FBEB9D"/>
<stop offset="0.34375" stop-color="#F6E071"/>
<stop offset="1" stop-color="#ECC91A"/>
</radialGradient>
<linearGradient id="paint1_linear_7114_177864" x1="22.4715" y1="23.9414" x2="14.4507" y2="23.9414" gradientUnits="userSpaceOnUse">
<stop stop-color="#783E11" stop-opacity="0.22"/>
<stop offset="1" stop-color="#783E11" stop-opacity="0.1"/>
</linearGradient>
<radialGradient id="paint2_radial_7114_177864" cx="0" cy="0" r="1" gradientTransform="matrix(2.4362 7.14995 -3.71559 3.49451 16.2303 14.2085)" gradientUnits="userSpaceOnUse">
<stop stop-color="#FBEB9D"/>
<stop offset="0.34375" stop-color="#F6E071"/>
<stop offset="1" stop-color="#ECC91A"/>
</radialGradient>
<radialGradient id="paint3_radial_7114_177864" cx="0" cy="0" r="1" gradientTransform="matrix(2.43544 7.13086 -3.71565 3.48565 11.3283 14.3271)" gradientUnits="userSpaceOnUse">
<stop stop-color="#FBEB9D"/>
<stop offset="0.34375" stop-color="#F6E071"/>
<stop offset="1" stop-color="#ECC91A"/>
</radialGradient>
</defs>
</svg>
