<svg width="34" height="34" viewBox="0 0 34 34" fill="none" xmlns="http://www.w3.org/2000/svg">
<circle cx="17" cy="17" r="17" fill="url(#paint0_radial_5557_34028)"/>
<g opacity="0.5">
<path fill-rule="evenodd" clip-rule="evenodd" d="M17 34C26.3888 34 34 26.3888 34 17C34 7.61116 26.3888 0 17 0C7.61116 0 0 7.61116 0 17C0 26.3888 7.61116 34 17 34ZM17.0001 32.5141C25.5683 32.5141 32.5141 25.5683 32.5141 17.0001C32.5141 8.43195 25.5683 1.48608 17.0001 1.48608C8.43195 1.48608 1.48608 8.43195 1.48608 17.0001C1.48608 25.5683 8.43195 32.5141 17.0001 32.5141Z" fill="url(#paint1_radial_5557_34028)"/>
<path fill-rule="evenodd" clip-rule="evenodd" d="M17 34C26.3888 34 34 26.3888 34 17C34 7.61116 26.3888 0 17 0C7.61116 0 0 7.61116 0 17C0 26.3888 7.61116 34 17 34ZM17.0001 32.5141C25.5683 32.5141 32.5141 25.5683 32.5141 17.0001C32.5141 8.43195 25.5683 1.48608 17.0001 1.48608C8.43195 1.48608 1.48608 8.43195 1.48608 17.0001C1.48608 25.5683 8.43195 32.5141 17.0001 32.5141Z" fill="#C08200" fill-opacity="0.28"/>
</g>
<ellipse cx="11.6106" cy="13.4271" rx="1.65651" ry="2.42712" fill="#783E11"/>
<ellipse cx="21.615" cy="13.4271" rx="1.65651" ry="2.42712" fill="#783E11"/>
<path d="M12.5215 22.5043C12.5215 22.2834 12.7005 22.1043 12.9215 22.1043H21.0784C21.2993 22.1043 21.4784 22.2834 21.4784 22.5043V23.6822C21.4784 23.9031 21.2993 24.0822 21.0784 24.0822H12.9215C12.7005 24.0822 12.5215 23.9031 12.5215 23.6822V22.5043Z" fill="#783E11"/>
<defs>
<radialGradient id="paint0_radial_5557_34028" cx="0" cy="0" r="1" gradientUnits="userSpaceOnUse" gradientTransform="translate(15.4754 7.00962) rotate(73.7184) scale(27.5504)">
<stop stop-color="#FFF1AA"/>
<stop offset="0.34375" stop-color="#FFE564"/>
<stop offset="0.760417" stop-color="#F4CC00"/>
<stop offset="1" stop-color="#F29E0B"/>
</radialGradient>
<radialGradient id="paint1_radial_5557_34028" cx="0" cy="0" r="1" gradientUnits="userSpaceOnUse" gradientTransform="translate(15.4754 7.00962) rotate(73.7184) scale(27.5504)">
<stop stop-color="#FBEB9D"/>
<stop offset="0.34375" stop-color="#F6E071"/>
<stop offset="0.786458" stop-color="#ECC91A"/>
<stop offset="1" stop-color="#E3BE00"/>
</radialGradient>
</defs>
</svg>
