<svg width="34" height="37" viewBox="0 0 34 37" fill="none" xmlns="http://www.w3.org/2000/svg">
<path d="M25.327 16.7477L18.2315 15.4773C17.6663 14.3882 16.4617 12.2816 15.8257 11.2155C15.1898 10.1494 13.3528 8.48825 12.9321 7.85635C12.5113 7.22446 11.9171 6.24606 12.6339 5.20814C13.3507 4.17022 14.1956 3.95778 15.0747 4.12381C15.9537 4.28984 19.4856 7.64803 20.3714 8.65989C21.2573 9.67176 24.4566 14.7765 25.327 16.7477Z" fill="#FFE560"/>
<path d="M25.327 16.7477L18.2315 15.4773C17.6663 14.3882 16.4617 12.2816 15.8257 11.2155C15.1898 10.1494 13.3528 8.48825 12.9321 7.85635C12.5113 7.22446 11.9171 6.24606 12.6339 5.20814C13.3507 4.17022 14.1956 3.95778 15.0747 4.12381C15.9537 4.28984 19.4856 7.64803 20.3714 8.65989C21.2573 9.67176 24.4566 14.7765 25.327 16.7477Z" fill="url(#paint0_linear_7114_177869)"/>
<path fill-rule="evenodd" clip-rule="evenodd" d="M13.5947 3.71098C14.1234 3.50232 14.6626 3.49509 15.1752 3.59191C15.3861 3.63175 15.6076 3.7469 15.7973 3.86098C16.0024 3.98429 16.2327 4.14543 16.4749 4.32842C16.9603 4.69512 17.5243 5.17304 18.0814 5.67115C19.1918 6.6641 20.3148 7.77339 20.7788 8.30334C21.2569 8.84948 22.3019 10.4197 23.3155 12.0594C24.3342 13.7074 25.3702 15.5053 25.8223 16.5291L26.2333 17.46L17.8738 15.9633L17.7511 15.7267C17.1929 14.6513 15.9944 12.555 15.3608 11.4929C15.0788 11.0201 14.5049 10.3819 13.9042 9.74441C13.7992 9.63301 13.6933 9.52142 13.5893 9.41186C13.4065 9.21932 13.2296 9.03307 13.0746 8.86524C12.8368 8.60777 12.614 8.35549 12.4815 8.15641C12.2708 7.83999 11.9671 7.36804 11.8307 6.8139C11.6875 6.23168 11.7301 5.56415 12.1885 4.90053C12.5948 4.3122 13.0647 3.92016 13.5947 3.71098ZM13.9922 4.71808C13.7008 4.83309 13.3899 5.06623 13.0794 5.51582C12.8208 5.89012 12.8022 6.23075 12.8821 6.55519C12.9688 6.9077 13.1726 7.2409 13.3827 7.55637C13.4605 7.67324 13.6251 7.86557 13.8699 8.13061C14.0206 8.29375 14.1878 8.46979 14.3663 8.65776C14.4713 8.76841 14.5803 8.88319 14.6922 9.0019C15.2742 9.61952 15.9367 10.3449 16.2906 10.9382C16.8858 11.936 17.9787 13.8439 18.5876 14.9912L24.3681 16.0261C23.8639 15.0712 23.1348 13.8263 22.3946 12.6287C21.3694 10.9703 20.3719 9.48225 19.9641 9.01652C19.5422 8.53461 18.4564 7.45887 17.3597 6.47825C16.8132 5.98958 16.274 5.53358 15.8223 5.1923C15.5959 5.0213 15.3992 4.88495 15.2394 4.78887C15.1597 4.74093 15.0948 4.70648 15.0444 4.68346C15.0005 4.66339 14.9784 4.65706 14.9743 4.6559C14.9734 4.65564 14.9735 4.65574 14.9743 4.6559C14.6079 4.58668 14.2849 4.60255 13.9922 4.71808Z" fill="url(#paint1_linear_7114_177869)"/>
<path d="M13.3198 12.9215C11.6298 13.1327 8.55453 14.7443 6.56959 16.1878C5.70534 16.8164 5.74892 18.1775 6.56959 19.1806C7.52023 20.3425 8.76186 19.7901 9.53574 19.5734C10.416 19.327 11.6758 18.8745 13.6801 18.4834C14.7071 18.283 16.607 18.9485 17.5424 19.3852C18.7144 19.9321 19.3473 20.419 19.3473 21.9282C19.3473 22.6788 19.3473 24.0653 18.8093 24.5805C18.1884 25.175 17.2243 26.0082 15.58 26.759C14.228 27.3763 11.7421 26.6565 10.712 25.8002C9.682 24.9439 8.96904 23.9668 8.34999 23.1835C7.86274 22.5671 7.25372 21.4602 5.43219 21.6532C3.4255 21.8658 3.48122 23.7294 3.57881 24.723C3.70791 26.0375 4.73907 27.9205 5.99638 29.6927C7.92781 32.4151 9.44522 33.8256 11.5577 34.6706C13.6703 35.5156 15.3243 35.807 17.5424 35.8774C19.7606 35.9478 23.2678 34.4398 24.7818 32.961C26.2958 31.4823 28.3423 28.0712 29.3265 24.8193C30.3107 21.5674 30.0659 18.9752 29.3265 16.6157C28.5872 14.2562 26.1257 7.80146 25.2455 6.53395C24.3652 5.26643 20.7691 0.983793 19.7881 0.681624C18.807 0.379456 17.8164 0.513224 16.8657 1.6047C15.9151 2.69617 16.4671 3.8881 16.8657 4.66264C17.2644 5.43718 19.1457 7.5672 19.734 8.86448C20.3223 10.1617 20.8413 12.9507 21.346 14.2652C19.0794 12.8933 15.0098 12.7102 13.3198 12.9215Z" fill="url(#paint2_radial_7114_177869)"/>
<mask id="mask0_7114_177869" style="mask-type:alpha" maskUnits="userSpaceOnUse" x="3" y="0" width="27" height="36">
<path d="M13.3198 12.9215C11.6298 13.1327 8.55453 14.7443 6.56959 16.1878C5.70534 16.8164 5.74892 18.1775 6.56959 19.1806C7.52023 20.3425 8.76186 19.7901 9.53574 19.5734C10.416 19.327 11.6758 18.8745 13.6801 18.4834C14.7071 18.283 16.607 18.9485 17.5424 19.3852C18.7144 19.9321 19.3473 20.419 19.3473 21.9282C19.3473 22.6788 19.3473 24.0653 18.8093 24.5805C18.1884 25.175 17.2243 26.0082 15.58 26.759C14.228 27.3763 11.7421 26.6565 10.712 25.8002C9.682 24.9439 8.96904 23.9668 8.34999 23.1835C7.86274 22.5671 7.25372 21.4602 5.43219 21.6532C3.4255 21.8658 3.48122 23.7294 3.57881 24.723C3.70791 26.0375 4.73907 27.9205 5.99638 29.6927C7.92781 32.4151 9.44522 33.8256 11.5577 34.6706C13.6703 35.5156 15.3243 35.807 17.5424 35.8774C19.7606 35.9478 23.2678 34.4398 24.7818 32.961C26.2958 31.4823 28.3423 28.0712 29.3265 24.8193C30.3107 21.5674 30.0659 18.9752 29.3265 16.6157C28.5872 14.2562 26.1257 7.80146 25.2455 6.53395C24.3652 5.26643 20.7691 0.983793 19.7881 0.681624C18.807 0.379456 17.8164 0.513224 16.8657 1.6047C15.9151 2.69617 16.4671 3.8881 16.8657 4.66264C17.2644 5.43718 19.1457 7.5672 19.734 8.86448C20.3223 10.1617 20.8413 12.9507 21.346 14.2652C19.0794 12.8933 15.0098 12.7102 13.3198 12.9215Z" fill="#FFE560"/>
</mask>
<g mask="url(#mask0_7114_177869)">
<path d="M13.4838 33.4315C11.0428 33.1321 7.25391 30.5033 7.25391 30.5033V36.3905L29.1327 36.3904V23.4381C29.1327 23.4381 24.6767 30.8324 21.7673 32.1868C18.9735 33.4874 16.1162 33.7543 13.4838 33.4315Z" fill="url(#paint3_linear_7114_177869)"/>
<path opacity="0.8" d="M11.5635 28.1811C10.4844 27.7223 8.69086 24.4489 8.69086 24.4489L9.81628 18.939C9.81628 18.939 13.53 17.1809 14.2144 17.1379C16.2495 17.0103 19.1339 18.2952 19.8943 18.6807C21.904 19.6995 22.4792 22.2446 22.1726 23.8627C21.782 25.9245 20.2583 27.6792 18.6883 28.3201C16.0547 29.395 12.9901 28.7876 11.5635 28.1811Z" fill="url(#paint4_linear_7114_177869)"/>
</g>
<path fill-rule="evenodd" clip-rule="evenodd" d="M18.1744 0.0978797C18.786 -0.0673021 19.3859 -0.00875257 19.9474 0.164218C20.1684 0.232269 20.3966 0.384316 20.5973 0.537996C20.8122 0.702553 21.0519 0.913778 21.3035 1.15252C21.8076 1.63083 22.3878 2.24638 22.9583 2.88509C24.0962 4.15886 25.2318 5.56514 25.6901 6.22512C25.9436 6.59014 26.2815 7.27731 26.6449 8.09146C27.0152 8.92133 27.4317 9.92851 27.8422 10.9661C28.6622 13.0385 29.4678 15.2559 29.8431 16.4537C30.6109 18.9037 30.8641 21.6077 29.8447 24.9761C28.8402 28.2951 26.753 31.7924 25.1601 33.3483C24.3352 34.1539 23.0109 34.9331 21.6323 35.5007C20.2556 36.0674 18.7429 36.4571 17.5253 36.4184C15.2535 36.3463 13.536 36.0449 11.3567 35.1732C9.10599 34.2729 7.51408 32.7675 5.55488 30.0059C4.91561 29.1049 4.32773 28.1673 3.88097 27.2795C3.43891 26.4011 3.11428 25.5314 3.04007 24.7759C2.99081 24.2744 2.93755 23.4514 3.20778 22.7098C3.34696 22.3279 3.57639 21.954 3.94434 21.6599C4.31323 21.3651 4.78826 21.177 5.37516 21.1148C6.41731 21.0044 7.16201 21.2672 7.71565 21.6812C8.13746 21.9966 8.44299 22.406 8.6506 22.6842C8.69674 22.7461 8.73804 22.8014 8.77471 22.8478C8.85291 22.9467 8.93169 23.0475 9.01156 23.1496C9.57953 23.876 10.2024 24.6725 11.0581 25.3839C11.4874 25.7407 12.279 26.1066 13.1458 26.3044C14.0233 26.5047 14.8405 26.5015 15.3552 26.2665C16.9279 25.5484 17.8426 24.7567 18.4349 24.1895C18.4854 24.1411 18.5496 24.0446 18.6099 23.8739C18.6688 23.7073 18.7127 23.502 18.7434 23.2711C18.8052 22.8073 18.806 22.308 18.806 21.9281C18.806 21.2515 18.6655 20.8874 18.4626 20.6351C18.2426 20.3617 17.8939 20.1466 17.3135 19.8757C16.8713 19.6693 16.1915 19.4048 15.5035 19.2177C14.7919 19.0242 14.1654 18.9402 13.7838 19.0147C12.2889 19.3063 11.2321 19.6281 10.4098 19.8785C10.1451 19.9591 9.90464 20.0323 9.68172 20.0947C9.62054 20.1118 9.54888 20.1339 9.46874 20.1586C9.12802 20.2637 8.63388 20.4161 8.13948 20.4349C7.47076 20.4602 6.74918 20.2549 6.15062 19.5233C5.67016 18.9361 5.40324 18.2283 5.39644 17.5492C5.3896 16.8651 5.65113 16.1864 6.2512 15.75C7.26995 15.0091 8.56125 14.2298 9.81459 13.6076C11.0532 12.9927 12.3126 12.5018 13.2527 12.3842C14.1514 12.2719 15.6376 12.2672 17.1845 12.4625C18.2757 12.6002 19.434 12.8418 20.454 13.2359C20.3466 12.8493 20.2396 12.436 20.1332 12.0253C20.1046 11.9147 20.076 11.8043 20.0475 11.6947C19.7775 10.6569 19.512 9.68546 19.241 9.08801C18.9759 8.5033 18.3976 7.69472 17.7957 6.89233C17.6899 6.75125 17.5832 6.61014 17.4786 6.47177C17.2951 6.22911 17.1181 5.99487 16.9631 5.78398C16.7245 5.45925 16.5067 5.14786 16.3844 4.91032C16.1848 4.52254 15.9053 3.9564 15.823 3.32221C15.7369 2.65934 15.8668 1.92742 16.4575 1.24911C16.9882 0.639794 17.5614 0.263424 18.1744 0.0978797ZM21.7902 13.9044C22.5704 14.4064 23.4985 15.2 24.2311 15.8651C24.6284 16.2258 24.9772 16.5571 25.2267 16.7981C25.3515 16.9187 25.4516 17.017 25.5208 17.0852L25.6006 17.1643L25.6216 17.1853L25.6271 17.1909L25.6286 17.1924C25.8395 17.4043 25.8393 17.7477 25.6273 17.9586C25.4154 18.1695 25.0726 18.1686 24.8617 17.9567M24.8617 17.9567L24.8557 17.9506L24.8363 17.9312L24.7601 17.8557C24.6934 17.7898 24.596 17.6943 24.4743 17.5767C24.2307 17.3413 23.8904 17.0181 23.5033 16.6667C22.7193 15.9549 21.7784 15.1597 21.0657 14.7283C20.0287 14.1006 18.5336 13.7241 17.0489 13.5367C15.5719 13.3502 14.1783 13.3597 13.387 13.4586C12.637 13.5523 11.5137 13.9728 10.296 14.5774C9.093 15.1746 7.8542 15.9229 6.88801 16.6256C6.62384 16.8177 6.47504 17.1339 6.47908 17.5383C6.48318 17.9476 6.64838 18.4219 6.98859 18.8377C7.34067 19.2681 7.71522 19.3675 8.09845 19.353C8.4357 19.3402 8.74736 19.2452 9.07764 19.1446C9.17949 19.1135 9.28311 19.0819 9.3898 19.0521C9.58774 18.9967 9.81114 18.9286 10.0633 18.8518C10.8878 18.6006 12.02 18.2557 13.5764 17.952C14.2218 17.8261 15.0587 17.9747 15.7877 18.173C16.5403 18.3777 17.2781 18.6643 17.7714 18.8946C18.3629 19.1706 18.9167 19.4724 19.3061 19.9564C19.7126 20.4617 19.8887 21.0956 19.8887 21.9281V21.939C19.8887 22.3099 19.8887 22.8735 19.8167 23.4141C19.7802 23.688 19.7232 23.9729 19.6308 24.2346C19.5397 24.4923 19.4022 24.7622 19.1837 24.9715C18.5343 25.5933 17.5208 26.4679 15.8049 27.2514C14.9675 27.6337 13.8658 27.5793 12.9048 27.3599C11.9331 27.1381 10.9668 26.7159 10.366 26.2165C9.41449 25.4255 8.71818 24.5336 8.15378 23.8107C8.07517 23.71 7.99912 23.6126 7.9253 23.5192C7.86098 23.4378 7.80068 23.3577 7.74166 23.2793C7.53867 23.0097 7.35094 22.7604 7.06727 22.5483C6.7392 22.303 6.26863 22.1089 5.48924 22.1915C5.07281 22.2356 4.8023 22.3602 4.6203 22.5057C4.43737 22.6519 4.31058 22.8458 4.22505 23.0805C4.04585 23.5723 4.06924 24.1779 4.11758 24.67C4.17247 25.2289 4.42797 25.958 4.8481 26.7928C5.26352 27.6183 5.81988 28.5083 6.43792 29.3795C8.34157 32.0627 9.78448 33.3782 11.7588 34.1679C13.8046 34.9862 15.3951 35.2675 17.5596 35.3363C18.5601 35.368 19.9101 35.0388 21.2201 34.4995C22.5282 33.961 23.7145 33.2468 24.4036 32.5737C25.8386 31.1721 27.8445 27.8473 28.8084 24.6625C29.7574 21.527 29.521 19.0465 28.81 16.7775C28.4459 15.6158 27.6511 13.4261 26.8354 11.3644C26.4281 10.335 26.018 9.34334 25.6562 8.53274C25.2874 7.70641 24.9874 7.11142 24.8008 6.84269C24.3789 6.23515 23.2764 4.86636 22.1509 3.60638C21.5897 2.97822 21.0319 2.38724 20.5583 1.93796C20.3211 1.7129 20.112 1.53007 19.939 1.39763C19.8527 1.33154 19.7807 1.28207 19.7228 1.24735C19.6942 1.23018 19.6715 1.21807 19.6543 1.20985C19.6374 1.20181 19.6288 1.19895 19.6288 1.19895C19.2093 1.06975 18.8233 1.04409 18.4567 1.14312C18.0914 1.24179 17.6939 1.47804 17.274 1.9602C16.9141 2.37336 16.8447 2.78314 16.8966 3.18274C16.9523 3.61102 17.1481 4.02811 17.3471 4.41487C17.4242 4.5646 17.591 4.80991 17.8356 5.14294C17.9868 5.34869 18.1554 5.5717 18.3351 5.80932C18.4406 5.9489 18.55 6.09352 18.6618 6.24265C19.2474 7.02322 19.9039 7.9283 20.2271 8.64085C20.5444 9.34067 20.8326 10.4123 21.0953 11.422C21.1236 11.5309 21.1517 11.6391 21.1795 11.7463C21.3954 12.5793 21.5959 13.3528 21.7902 13.9044" fill="url(#paint5_linear_7114_177869)"/>
<defs>
<linearGradient id="paint0_linear_7114_177869" x1="21.5906" y1="14.1046" x2="12.841" y2="5.2755" gradientUnits="userSpaceOnUse">
<stop stop-color="#783E11" stop-opacity="0.22"/>
<stop offset="1" stop-color="#783E11" stop-opacity="0.1"/>
</linearGradient>
<linearGradient id="paint1_linear_7114_177869" x1="12.5075" y1="5.82124" x2="16.1513" y2="7.26854" gradientUnits="userSpaceOnUse">
<stop stop-color="#CD942F"/>
<stop offset="1" stop-color="#C18B2C"/>
</linearGradient>
<radialGradient id="paint2_radial_7114_177869" cx="0" cy="0" r="1" gradientTransform="matrix(-13.9828 23.754 -23.5374 -7.38276 26.9931 12.893)" gradientUnits="userSpaceOnUse">
<stop stop-color="#FBEB9D"/>
<stop offset="0.3596" stop-color="#F6E071"/>
<stop offset="1" stop-color="#ECC91A"/>
</radialGradient>
<linearGradient id="paint3_linear_7114_177869" x1="17.3331" y1="35.4161" x2="17.5799" y2="28.1093" gradientUnits="userSpaceOnUse">
<stop stop-color="#783E11" stop-opacity="0.22"/>
<stop offset="1" stop-color="#783E11" stop-opacity="0.1"/>
</linearGradient>
<linearGradient id="paint4_linear_7114_177869" x1="21.8538" y1="24.5604" x2="16.3211" y2="24.4307" gradientUnits="userSpaceOnUse">
<stop stop-color="#783E11" stop-opacity="0.22"/>
<stop offset="1" stop-color="#783E11" stop-opacity="0.1"/>
</linearGradient>
<linearGradient id="paint5_linear_7114_177869" x1="28.7652" y1="12.6508" x2="28.8551" y2="36.4211" gradientUnits="userSpaceOnUse">
<stop stop-color="#CD942F"/>
<stop offset="1" stop-color="#C18B2C"/>
</linearGradient>
</defs>
</svg>
