<svg width="34" height="34" viewBox="0 0 34 34" fill="none" xmlns="http://www.w3.org/2000/svg">
<circle cx="17" cy="17" r="17" fill="url(#paint0_radial_5652_33854)"/>
<g opacity="0.5">
<path fill-rule="evenodd" clip-rule="evenodd" d="M17 34C26.3888 34 34 26.3888 34 17C34 7.61116 26.3888 0 17 0C7.61116 0 0 7.61116 0 17C0 26.3888 7.61116 34 17 34ZM17.0001 32.5141C25.5683 32.5141 32.5141 25.5683 32.5141 17.0001C32.5141 8.43195 25.5683 1.48608 17.0001 1.48608C8.43195 1.48608 1.48608 8.43195 1.48608 17.0001C1.48608 25.5683 8.43195 32.5141 17.0001 32.5141Z" fill="url(#paint1_radial_5652_33854)"/>
<path fill-rule="evenodd" clip-rule="evenodd" d="M17 34C26.3888 34 34 26.3888 34 17C34 7.61116 26.3888 0 17 0C7.61116 0 0 7.61116 0 17C0 26.3888 7.61116 34 17 34ZM17.0001 32.5141C25.5683 32.5141 32.5141 25.5683 32.5141 17.0001C32.5141 8.43195 25.5683 1.48608 17.0001 1.48608C8.43195 1.48608 1.48608 8.43195 1.48608 17.0001C1.48608 25.5683 8.43195 32.5141 17.0001 32.5141Z" fill="#C08200" fill-opacity="0.28"/>
</g>
<path fill-rule="evenodd" clip-rule="evenodd" d="M22.2435 26.4382C22.2435 26.7468 21.9208 26.8456 21.5615 26.7219C21.5615 26.7219 19.79 25.8227 17.0154 25.8227C14.2409 25.8227 12.4386 26.7219 12.4386 26.7219C12.0882 26.8429 11.7566 26.7468 11.7566 26.4387V25.3418C11.7566 25.2367 11.7566 25.1602 11.8961 25.0648C11.8961 25.0648 13.9336 23.9339 17.0154 23.9339C20.0973 23.9339 22.1035 25.0643 22.1035 25.0643C22.243 25.1484 22.243 25.2362 22.243 25.3412L22.2435 26.4382Z" fill="#783E11"/>
<path fill-rule="evenodd" clip-rule="evenodd" d="M19.1091 15.4819C19.1091 17.5117 20.734 19.1569 22.7387 19.1569C24.7443 19.1569 26.3692 17.5117 26.3692 15.4819C26.3692 13.4512 24.7443 11.806 22.7387 11.806C20.734 11.806 19.1091 13.4512 19.1091 15.4819Z" fill="#222222"/>
<path fill-rule="evenodd" clip-rule="evenodd" d="M5.74709 10.5231C7.22313 10.3733 8.53942 9.76677 9.55415 8.92527C10.5689 8.08376 11.008 7.53715 11.2211 6.97135C11.2746 6.8277 11.2523 6.67455 11.1719 6.5476L11.1478 6.50957C10.9005 6.12031 10.3312 6.10628 9.97685 6.5624C9.62246 7.01852 8.9093 7.62735 8.58288 7.93478C7.78457 8.68663 6.72375 9.18008 5.5523 9.41599C5.1201 9.50298 4.89903 9.93166 5.10316 10.253C5.22668 10.4483 5.48037 10.5503 5.74709 10.5231Z" fill="#783E11"/>
<path fill-rule="evenodd" clip-rule="evenodd" d="M28.5987 10.5231C27.1227 10.3733 25.8064 9.76676 24.7917 8.92525C23.7769 8.08374 23.3378 7.53714 23.1247 6.97134C23.0712 6.82769 23.0935 6.67453 23.1739 6.54758L23.1981 6.50956C23.4453 6.1203 24.0146 6.10626 24.369 6.56238C24.7234 7.01851 25.4365 7.62734 25.7629 7.93476C26.5613 8.68661 27.6221 9.18007 28.7935 9.41597C29.2257 9.50297 29.4468 9.93164 29.2427 10.253C29.1191 10.4483 28.8655 10.5503 28.5987 10.5231Z" fill="#783E11"/>
<path fill-rule="evenodd" clip-rule="evenodd" d="M6.07874 15.355C6.07874 17.9314 8.19747 20.0198 10.8115 20.0198C13.4267 20.0198 15.5454 17.9314 15.5454 15.355C15.5454 12.7773 13.4267 10.689 10.8115 10.689C8.19747 10.689 6.07874 12.7773 6.07874 15.355Z" fill="#222222"/>
<ellipse opacity="0.9" cx="2.50724" cy="1.74526" rx="2.50724" ry="1.74526" transform="matrix(0.716544 -0.697542 0.716544 0.697542 6.23236 14.2549)" fill="white"/>
<path fill-rule="evenodd" clip-rule="evenodd" d="M18.3476 15.355C18.3476 17.9314 20.4663 20.0198 23.0803 20.0198C25.6955 20.0198 27.8142 17.9314 27.8142 15.355C27.8142 12.7773 25.6955 10.689 23.0803 10.689C20.4663 10.689 18.3476 12.7773 18.3476 15.355Z" fill="#222222"/>
<ellipse opacity="0.9" cx="2.50724" cy="1.74526" rx="2.50724" ry="1.74526" transform="matrix(0.716544 -0.697542 0.716544 0.697542 18.5012 14.2549)" fill="white"/>
<defs>
<radialGradient id="paint0_radial_5652_33854" cx="0" cy="0" r="1" gradientUnits="userSpaceOnUse" gradientTransform="translate(15.4754 7.00962) rotate(73.7184) scale(27.5504)">
<stop stop-color="#FFF1AA"/>
<stop offset="0.34375" stop-color="#FFE564"/>
<stop offset="0.760417" stop-color="#F4CC00"/>
<stop offset="1" stop-color="#F29E0B"/>
</radialGradient>
<radialGradient id="paint1_radial_5652_33854" cx="0" cy="0" r="1" gradientUnits="userSpaceOnUse" gradientTransform="translate(15.4754 7.00962) rotate(73.7184) scale(27.5504)">
<stop stop-color="#FBEB9D"/>
<stop offset="0.34375" stop-color="#F6E071"/>
<stop offset="0.786458" stop-color="#ECC91A"/>
<stop offset="1" stop-color="#E3BE00"/>
</radialGradient>
</defs>
</svg>
