<svg width="33" height="29" viewBox="0 0 33 29" fill="none" xmlns="http://www.w3.org/2000/svg">
<path fill-rule="evenodd" clip-rule="evenodd" d="M4.62543 1.44697C2.0635 2.93184 0.0663122 5.72583 0.0203269 8.77565C-0.00219592 10.3036 0.093916 11.8784 0.649983 13.3181C1.092 14.4624 2.04012 16.3724 2.99801 17.7249C3.69637 18.7081 4.48591 19.6013 5.31677 20.4577C6.2946 21.4648 12.1436 26.3402 14.7754 28.5237C15.5191 29.1408 16.5915 29.1345 17.3291 28.5102C20.0155 26.2364 26.0912 21.0746 26.9439 20.1785C27.8215 19.2498 28.65 18.2755 29.3562 17.1899C30.4022 15.5749 31.3245 14.0505 31.8046 11.8488C32.095 10.5172 32.1285 8.37253 31.7158 6.72019C31.1687 4.53794 29.4973 2.83396 27.696 1.65051C26.6914 0.989833 25.5955 0.611665 24.4248 0.473745C23.6891 0.386988 22.9533 0.393662 22.2214 0.518235C20.806 0.759595 19.541 1.37245 18.4132 2.31787C17.4608 3.11091 16.6868 4.07524 16.0555 5.17415C16.0368 5.20418 16.0197 5.23421 16.001 5.26313C15.8942 5.10074 15.8069 4.94836 15.7134 4.79932C14.7991 3.34226 13.6456 2.16549 12.1795 1.35799C11.2949 0.870821 10.3557 0.570511 9.3666 0.460398C9.08523 0.429254 8.80464 0.414795 8.52405 0.414795C8.15305 0.414795 7.78283 0.440377 7.41261 0.492653C6.42821 0.629461 5.49681 0.942006 4.62543 1.44697Z" fill="url(#paint0_radial_34724_828)"/>
<path fill-rule="evenodd" clip-rule="evenodd" d="M4.62543 1.44697C2.0635 2.93184 0.0663122 5.72583 0.0203269 8.77565C-0.00219592 10.3036 0.093916 11.8784 0.649983 13.3181C1.092 14.4624 2.04012 16.3724 2.99801 17.7249C3.69637 18.7081 4.48591 19.6013 5.31677 20.4577C6.2946 21.4648 12.1436 26.3402 14.7754 28.5237C15.5191 29.1408 16.5915 29.1345 17.3291 28.5102C20.0155 26.2364 26.0912 21.0746 26.9439 20.1785C27.8215 19.2498 28.65 18.2755 29.3562 17.1899C30.4022 15.5749 31.3245 14.0505 31.8046 11.8488C32.095 10.5172 32.1285 8.37253 31.7158 6.72019C31.1687 4.53794 29.4973 2.83396 27.696 1.65051C26.6914 0.989833 25.5955 0.611665 24.4248 0.473745C23.6891 0.386988 22.9533 0.393662 22.2214 0.518235C20.806 0.759595 19.541 1.37245 18.4132 2.31787C17.4608 3.11091 16.6868 4.07524 16.0555 5.17415C16.0368 5.20418 16.0197 5.23421 16.001 5.26313C15.8942 5.10074 15.8069 4.94836 15.7134 4.79932C14.7991 3.34226 13.6456 2.16549 12.1795 1.35799C11.2949 0.870821 10.3557 0.570511 9.3666 0.460398C9.08523 0.429254 8.80464 0.414795 8.52405 0.414795C8.15305 0.414795 7.78283 0.440377 7.41261 0.492653C6.42821 0.629461 5.49681 0.942006 4.62543 1.44697Z" fill="#E31F37" fill-opacity="0.4"/>
<defs>
<radialGradient id="paint0_radial_34724_828" cx="0" cy="0" r="1" gradientTransform="matrix(7.26112 22.689 -24.8607 6.62682 14.5666 6.42871)" gradientUnits="userSpaceOnUse">
<stop stop-color="#FFC9C8"/>
<stop offset="0.34375" stop-color="#FF9B98"/>
<stop offset="1" stop-color="#FA342E"/>
</radialGradient>
</defs>
</svg>
