<svg width="34" height="34" viewBox="0 0 34 34" fill="none" xmlns="http://www.w3.org/2000/svg">
<circle cx="17" cy="17" r="17" fill="url(#paint0_radial_5652_33842)"/>
<g opacity="0.5">
<path fill-rule="evenodd" clip-rule="evenodd" d="M17 34C26.3888 34 34 26.3888 34 17C34 7.61116 26.3888 0 17 0C7.61116 0 0 7.61116 0 17C0 26.3888 7.61116 34 17 34ZM17.0001 32.5141C25.5683 32.5141 32.5141 25.5683 32.5141 17.0001C32.5141 8.43195 25.5683 1.48608 17.0001 1.48608C8.43195 1.48608 1.48608 8.43195 1.48608 17.0001C1.48608 25.5683 8.43195 32.5141 17.0001 32.5141Z" fill="url(#paint1_radial_5652_33842)"/>
<path fill-rule="evenodd" clip-rule="evenodd" d="M17 34C26.3888 34 34 26.3888 34 17C34 7.61116 26.3888 0 17 0C7.61116 0 0 7.61116 0 17C0 26.3888 7.61116 34 17 34ZM17.0001 32.5141C25.5683 32.5141 32.5141 25.5683 32.5141 17.0001C32.5141 8.43195 25.5683 1.48608 17.0001 1.48608C8.43195 1.48608 1.48608 8.43195 1.48608 17.0001C1.48608 25.5683 8.43195 32.5141 17.0001 32.5141Z" fill="#C08200" fill-opacity="0.28"/>
</g>
<path fill-rule="evenodd" clip-rule="evenodd" d="M10.1751 22.4771C10.1751 22.1685 10.5099 21.9982 10.7329 22.1934C12.5592 23.7894 14.7612 24.4668 17.1322 24.4663C19.5037 24.4658 21.7047 23.7869 23.53 22.1902C23.7531 21.9951 24.0879 22.1654 24.0879 22.4734V23.4697C24.0879 23.5748 24.0464 23.6767 23.9738 23.7466C22.0661 25.5907 19.6992 26.4375 17.1327 26.438C14.5661 26.4385 12.1983 25.5933 10.2897 23.7503C10.217 23.6798 10.1756 23.5784 10.1756 23.4733L10.1751 22.4771Z" fill="#783E11"/>
<path opacity="0.5" fill-rule="evenodd" clip-rule="evenodd" d="M6.40558 10.8238C7.37491 9.70058 8.62675 8.97024 9.8981 8.62169C11.1695 8.27313 11.8691 8.22696 12.4548 8.37694C12.6031 8.41549 12.7158 8.52162 12.7737 8.66025L12.791 8.70187C12.968 9.12766 12.653 9.60205 12.0761 9.63072C11.4992 9.6594 10.5914 9.89438 10.1524 9.98543C9.07859 10.2081 8.06591 10.7941 7.20076 11.6184C6.88159 11.9225 6.40364 11.8577 6.25751 11.5062C6.16838 11.293 6.23034 11.0267 6.40558 10.8238Z" fill="#783E11"/>
<path opacity="0.5" fill-rule="evenodd" clip-rule="evenodd" d="M27.4828 10.8238C26.5135 9.70058 25.2617 8.97024 23.9903 8.62169C22.719 8.27313 22.0194 8.22696 21.4337 8.37694C21.2853 8.41549 21.1726 8.52162 21.1147 8.66025L21.0974 8.70187C20.9204 9.12766 21.2354 9.60205 21.8123 9.63072C22.3892 9.6594 23.297 9.89438 23.7361 9.98543C24.8098 10.2081 25.8225 10.7941 26.6877 11.6184C27.0068 11.9225 27.4848 11.8577 27.6309 11.5062C27.72 11.293 27.6581 11.0267 27.4828 10.8238Z" fill="#783E11"/>
<path fill-rule="evenodd" clip-rule="evenodd" d="M10.69 16.9871C9.59906 16.9924 8.58679 16.5845 7.73038 15.8842C7.67022 15.8346 7.63526 15.7562 7.63556 15.6747L7.6403 14.9225C7.64161 14.7252 7.84265 14.5969 8.00352 14.695C8.72342 15.1377 9.52836 15.3865 10.3813 15.3822C11.4822 15.3773 12.5084 14.9537 13.3788 14.2331C13.539 14.0998 13.7701 14.2199 13.7686 14.4351L13.7615 15.6519C13.7612 15.7339 13.7252 15.8128 13.6637 15.8625C12.7986 16.5686 11.7801 16.9827 10.69 16.9871Z" fill="#783E11"/>
<path fill-rule="evenodd" clip-rule="evenodd" d="M23.1984 16.9871C24.2894 16.9923 25.3016 16.5845 26.158 15.8842C26.2182 15.8346 26.2532 15.7562 26.2529 15.6747L26.2481 14.9225C26.2468 14.7252 26.0458 14.5969 25.8849 14.695C25.165 15.1376 24.3601 15.3865 23.5072 15.3822C22.4062 15.3773 21.38 14.9536 20.5096 14.2331C20.3495 14.0998 20.1183 14.2199 20.1198 14.4351L20.1269 15.6519C20.1273 15.7339 20.1632 15.8128 20.2248 15.8625C21.0898 16.5685 22.1084 16.9827 23.1984 16.9871Z" fill="#783E11"/>
<defs>
<radialGradient id="paint0_radial_5652_33842" cx="0" cy="0" r="1" gradientUnits="userSpaceOnUse" gradientTransform="translate(15.4754 7.00962) rotate(73.7184) scale(27.5504)">
<stop stop-color="#FFF1AA"/>
<stop offset="0.34375" stop-color="#FFE564"/>
<stop offset="0.760417" stop-color="#F4CC00"/>
<stop offset="1" stop-color="#F29E0B"/>
</radialGradient>
<radialGradient id="paint1_radial_5652_33842" cx="0" cy="0" r="1" gradientUnits="userSpaceOnUse" gradientTransform="translate(15.4754 7.00962) rotate(73.7184) scale(27.5504)">
<stop stop-color="#FBEB9D"/>
<stop offset="0.34375" stop-color="#F6E071"/>
<stop offset="0.786458" stop-color="#ECC91A"/>
<stop offset="1" stop-color="#E3BE00"/>
</radialGradient>
</defs>
</svg>
