<svg width="34" height="34" viewBox="0 0 34 34" fill="none" xmlns="http://www.w3.org/2000/svg">
<path fill-rule="evenodd" clip-rule="evenodd" d="M14.2314 15.6185L14.2317 15.632C14.239 15.8423 14.4181 16.0106 14.6378 16.0106L14.812 16.0106L14.826 16.0104C15.0439 16.0033 15.2183 15.8307 15.2184 15.6188V14.7957C15.2184 14.7445 15.2215 14.6937 15.2275 14.6442C15.3327 13.7748 16.3333 13.1721 17.2794 13.1721H17.3375C18.1584 13.1721 19.16 13.8325 19.2721 14.6454C19.2724 14.6478 19.2727 14.6502 19.2731 14.6526C19.2757 14.6728 19.2778 14.6932 19.2794 14.7136C19.2796 14.7165 19.2798 14.7194 19.28 14.7223C19.2803 14.7268 19.2806 14.7313 19.2808 14.7358C19.2819 14.7554 19.2824 14.7751 19.2824 14.7948V14.7223V14.7358C19.2831 14.7561 19.2857 14.776 19.2895 14.7954C19.325 14.9769 19.4903 15.1144 19.6888 15.1144L19.877 15.1142C20.0692 15.1079 20.2275 14.9729 20.2623 14.7957C20.2669 14.772 20.2694 14.7473 20.2694 14.7223L20.2711 14.705L20.2772 14.6452C20.2769 14.6416 20.2766 14.638 20.2764 14.6344C20.2767 14.6371 20.2771 14.6398 20.2774 14.6425L21.135 3.12693C21.2473 2.09157 22.0706 1.14352 23.2066 1.23153L23.2647 1.23153C24.5405 1.34311 25.1892 2.59054 25.087 3.66407L24.5944 18.657C31.0459 21.3218 26.6381 27.1524 23.7185 31.0143C23.5624 31.2209 23.4105 31.4218 23.2647 31.6163C23.1303 31.7812 22.316 31.7788 22.0274 31.778C22.0094 31.7779 21.9934 31.7779 21.9798 31.7779L10.3482 31.7779L10.3278 31.7776C10.0775 31.7711 9.84616 31.6451 9.71129 31.4404C7.09366 27.469 6.40161 22.9492 6.2135 21.2457C6.02538 19.5423 5.96138 16.8716 5.96138 16.8716L5.64453 7.04007C5.64453 6.09656 6.31553 4.96936 7.29349 4.96936C8.27144 4.96936 9.06423 5.73423 9.06423 6.67774L9.58016 16.2774L9.58039 16.2909C9.5807 16.2995 9.58129 16.3081 9.58216 16.3165C9.60253 16.5147 9.77581 16.6695 9.98656 16.6695L10.1607 16.6695L10.1747 16.6692C10.3927 16.6621 10.5671 16.4894 10.5671 16.2774L10.5082 14.7954C10.5082 13.8555 11.5482 13.2813 12.5186 13.2813C13.3142 13.2813 14.1342 13.7857 14.2236 14.6399C14.2289 14.6905 14.2317 14.7424 14.2317 14.7954L14.2314 15.6185ZM14.7464 13.3326C14.9054 13.1343 15.0891 12.9634 15.2813 12.822C15.8468 12.406 16.5706 12.1721 17.2794 12.1721H17.3375C18.0311 12.1721 18.7293 12.4558 19.2536 12.8667C19.3146 12.9146 19.3756 12.9661 19.4357 13.0211L20.1408 3.01913C20.2927 1.61854 21.443 0.116771 23.2416 0.231531L23.3084 0.231531L23.3518 0.235334C25.3509 0.410162 26.206 2.30972 26.0852 3.72926L25.6213 18.0247C27.118 18.7669 28.104 19.7487 28.5863 20.9566C29.1272 22.3109 28.9539 23.7504 28.5011 25.0759C27.7054 27.4058 25.8837 29.8119 24.5178 31.6159C24.36 31.8243 24.2083 32.0247 24.065 32.216L24.0527 32.2323L24.0398 32.2481C23.8705 32.4559 23.6651 32.5536 23.5654 32.5955C23.448 32.6448 23.334 32.6744 23.2458 32.6933C23.068 32.7314 22.8787 32.75 22.7228 32.7605C22.4419 32.7795 22.153 32.7784 22.0216 32.778C22.005 32.7779 21.991 32.7779 21.9798 32.7779H10.3352L10.3019 32.7774C9.73512 32.7627 9.1969 32.4771 8.87634 31.9908C6.12701 27.8196 5.41317 23.1089 5.21954 21.3555C5.12173 20.4698 5.0576 19.3494 5.0179 18.4647C4.99791 18.0193 4.98388 17.6279 4.97484 17.3477C4.97032 17.2076 4.96704 17.0951 4.96488 17.0174L4.96248 16.9277L4.96195 16.9071L4.64453 7.06325V7.04007C4.64453 6.35297 4.8816 5.63056 5.29284 5.06369C5.70585 4.49438 6.38742 3.96936 7.29349 3.96936C8.77544 3.96936 10.04 5.1262 10.0639 6.63433L10.3314 13.0562C10.4131 12.9852 10.498 12.92 10.5846 12.8607C11.1494 12.4741 11.8536 12.2813 12.5186 12.2813C13.2855 12.2813 14.1991 12.6274 14.7464 13.3326Z" fill="#CD942F"/>
<path fill-rule="evenodd" clip-rule="evenodd" d="M17.2795 13.1721C16.2793 13.1721 15.2184 13.8456 15.2184 14.7954L15.2184 15.6185C15.2184 15.8306 15.044 16.0033 14.826 16.0104L14.812 16.0106L14.6379 16.0106C14.4181 16.0106 14.239 15.8423 14.2317 15.632L14.2315 15.6185L14.2317 14.7954C14.2315 13.8472 13.3614 13.2813 12.5186 13.2813C11.5482 13.2813 10.5082 13.8555 10.5082 14.7954L10.5671 16.2774C10.5671 16.4894 10.3927 16.6622 10.1747 16.6693L10.1607 16.6695L9.98656 16.6695C9.76679 16.6695 9.58776 16.5012 9.5804 16.2909L9.58016 16.2774L9.06424 6.67777C9.06424 5.73426 8.27145 4.96939 7.29349 4.96939C6.31554 4.96939 5.64454 6.09658 5.64454 7.0401L5.96138 16.8716C5.96138 16.8716 6.02538 19.5423 6.2135 21.2458C6.40162 22.9492 7.09367 27.4691 9.7113 31.4405C9.84617 31.6451 10.0775 31.7711 10.3278 31.7776L10.3482 31.7779L21.9798 31.7779C22.2116 31.7779 23.1219 31.7916 23.2647 31.6163C26.1355 27.7852 31.391 21.4644 24.5945 18.657L25.087 3.66409C25.1892 2.59056 24.5405 1.34313 23.2647 1.23156L23.2067 1.23156C22.0706 1.14354 21.2473 2.09159 21.135 3.12696L20.2694 14.7223C20.2694 14.9344 20.095 15.1071 19.877 15.1142L19.6888 15.1144C19.4691 15.1144 19.29 14.9461 19.2827 14.7358L19.2824 14.7223V14.7954C19.2827 13.9155 18.2084 13.1721 17.3375 13.1721H17.2795Z" fill="url(#paint0_radial_26139_3454)"/>
<path fill-rule="evenodd" clip-rule="evenodd" d="M17.2795 13.1721C16.2793 13.1721 15.2184 13.8456 15.2184 14.7954L15.2184 15.6185C15.2184 15.8306 15.044 16.0033 14.826 16.0104L14.812 16.0106L14.6379 16.0106C14.4181 16.0106 14.239 15.8423 14.2317 15.632L14.2315 15.6185L14.2317 14.7954C14.2315 13.8472 13.3614 13.2813 12.5186 13.2813C11.5482 13.2813 10.5082 13.8555 10.5082 14.7954L10.5671 16.2774C10.5671 16.4894 10.3927 16.6622 10.1747 16.6693L10.1607 16.6695L9.98656 16.6695C9.76679 16.6695 9.58776 16.5012 9.5804 16.2909L9.58016 16.2774L9.06424 6.67777C9.06424 5.73426 8.27145 4.96939 7.29349 4.96939C6.31554 4.96939 5.64454 6.09658 5.64454 7.0401L5.96138 16.8716C5.96138 16.8716 6.02538 19.5423 6.2135 21.2458C6.40162 22.9492 7.09367 27.4691 9.7113 31.4405C9.84617 31.6451 10.0775 31.7711 10.3278 31.7776L10.3482 31.7779L21.9798 31.7779C22.2116 31.7779 23.1219 31.7916 23.2647 31.6163C26.1355 27.7852 31.391 21.4644 24.5945 18.657L25.087 3.66409C25.1892 2.59056 24.5405 1.34313 23.2647 1.23156L23.2067 1.23156C22.0706 1.14354 21.2473 2.09159 21.135 3.12696L20.2694 14.7223C20.2694 14.9344 20.095 15.1071 19.877 15.1142L19.6888 15.1144C19.4691 15.1144 19.29 14.9461 19.2827 14.7358L19.2824 14.7223V14.7954C19.2827 13.9155 18.2084 13.1721 17.3375 13.1721H17.2795Z" fill="#FFE45C" fill-opacity="0.23"/>
<path opacity="0.8" d="M10.3096 21.6404C9.77453 20.7901 9.6433 19.0984 9.6433 19.0984H24.2041L23.9326 22.899L20.6769 26.0507C19.4827 24.2788 18.0857 24.1073 16.0846 23.7381C14.1451 23.3802 11.5566 23.6216 10.3096 21.6404Z" fill="url(#paint1_linear_26139_3454)"/>
<path d="M14.3815 13.6602C14.3295 12.0822 15.4954 10.7584 16.9856 10.7033L17.4957 10.6844C18.9859 10.6293 20.2362 11.8638 20.2883 13.4418L20.4586 18.6059C20.5106 20.1839 19.3447 21.5078 17.8544 21.5629L17.3444 21.5818C15.8541 21.6369 14.6039 20.4023 14.5518 18.8243L14.3815 13.6602Z" fill="url(#paint2_radial_26139_3454)"/>
<path d="M14.3815 13.6602C14.3295 12.0822 15.4954 10.7584 16.9856 10.7033L17.4957 10.6844C18.9859 10.6293 20.2362 11.8638 20.2883 13.4418L20.4586 18.6059C20.5106 20.1839 19.3447 21.5078 17.8544 21.5629L17.3444 21.5818C15.8541 21.6369 14.6039 20.4023 14.5518 18.8243L14.3815 13.6602Z" fill="#FFE45C" fill-opacity="0.23"/>
<path d="M9.47996 13.788C9.42792 12.21 10.5938 10.8862 12.0841 10.831L12.5938 10.8122C14.084 10.7571 15.3343 11.9916 15.3864 13.5696L15.5557 18.705C15.6078 20.283 14.4419 21.6069 12.9516 21.662L12.4419 21.6808C10.9516 21.7359 9.70137 20.5014 9.64933 18.9234L9.47996 13.788Z" fill="url(#paint3_radial_26139_3454)"/>
<path d="M9.47996 13.788C9.42792 12.21 10.5938 10.8862 12.0841 10.831L12.5938 10.8122C14.084 10.7571 15.3343 11.9916 15.3864 13.5696L15.5557 18.705C15.6078 20.283 14.4419 21.6069 12.9516 21.662L12.4419 21.6808C10.9516 21.7359 9.70137 20.5014 9.64933 18.9234L9.47996 13.788Z" fill="#FFE45C" fill-opacity="0.23"/>
<path fill-rule="evenodd" clip-rule="evenodd" d="M17.5306 11.7426L17.0205 11.7615C16.0822 11.7962 15.3481 12.6297 15.3809 13.6233L15.5512 18.7874C15.584 19.7809 16.3712 20.5582 17.3095 20.5235L17.8195 20.5047C18.7579 20.47 19.492 19.6364 19.4592 18.6429L19.2889 13.4788C19.2561 12.4852 18.4689 11.7079 17.5306 11.7426ZM16.9856 10.7033C15.4954 10.7584 14.3295 12.0822 14.3815 13.6602L14.5518 18.8243C14.6039 20.4023 15.8541 21.6369 17.3444 21.5818L17.8544 21.5629C19.3447 21.5078 20.5106 20.1839 20.4586 18.6059L20.2883 13.4418C20.2362 11.8638 18.9859 10.6293 17.4957 10.6844L16.9856 10.7033Z" fill="#CD942F"/>
<path fill-rule="evenodd" clip-rule="evenodd" d="M12.6287 11.8704L12.119 11.8893C11.1807 11.924 10.4466 12.7575 10.4794 13.7511L10.6487 18.8865C10.6815 19.88 11.4687 20.6573 12.407 20.6226L12.9167 20.6038C13.855 20.5691 14.5891 19.7355 14.5563 18.742L14.387 13.6066C14.3542 12.613 13.567 11.8357 12.6287 11.8704ZM12.0841 10.831C10.5938 10.8862 9.42792 12.21 9.47996 13.788L9.64933 18.9234C9.70137 20.5014 10.9516 21.7359 12.4419 21.6808L12.9516 21.662C14.4419 21.6069 15.6078 20.283 15.5557 18.705L15.3864 13.5696C15.3343 11.9916 14.084 10.7571 12.5938 10.8122L12.0841 10.831Z" fill="#CD942F"/>
<path d="M28.0859 25.0497C28.5334 24.0071 28.8603 21.5748 28.619 19.926C28.5777 19.6437 20.2733 16.5524 19.7293 16.8503C18.8375 17.3386 18.8209 19.0074 19.0931 19.926C19.6496 21.8045 21.5284 22.3675 23.4145 23.0976C23.1711 23.706 22.3177 24.8671 21.093 25.7798L23.4973 32.0674C23.4973 32.0674 26.5906 28.533 28.0859 25.0497Z" fill="url(#paint4_radial_26139_3454)"/>
<path d="M28.0859 25.0497C28.5334 24.0071 28.8603 21.5748 28.619 19.926C28.5777 19.6437 20.2733 16.5524 19.7293 16.8503C18.8375 17.3386 18.8209 19.0074 19.0931 19.926C19.6496 21.8045 21.5284 22.3675 23.4145 23.0976C23.1711 23.706 22.3177 24.8671 21.093 25.7798L23.4973 32.0674C23.4973 32.0674 26.5906 28.533 28.0859 25.0497Z" fill="#FFE45C" fill-opacity="0.23"/>
<path fill-rule="evenodd" clip-rule="evenodd" d="M19.9015 17.3329C19.6995 17.4848 19.5375 17.8047 19.47 18.295C19.3983 18.8164 19.4562 19.3916 19.5725 19.784C19.7585 20.4119 20.2287 20.9449 20.9283 21.4231C21.6285 21.9018 22.5117 22.2937 23.4473 22.6559L23.9188 22.8384L23.731 23.3079C23.455 23.9979 22.6938 25.2104 21.3918 26.1807C21.1704 26.3457 20.8571 26.3 20.6921 26.0785C20.5271 25.8571 20.5728 25.5438 20.7943 25.3788C21.6717 24.725 22.2584 23.9508 22.5802 23.3872C21.7967 23.066 21.0218 22.6984 20.364 22.2487C19.5639 21.7017 18.8903 21.0017 18.6137 20.0681C18.4577 19.5419 18.3879 18.8234 18.4794 18.1586C18.5677 17.5166 18.8306 16.7723 19.4892 16.4117C19.5942 16.3542 19.6982 16.3395 19.7573 16.3341C19.8249 16.328 19.8925 16.3296 19.9533 16.3338C20.0751 16.3424 20.2163 16.3651 20.3651 16.3953C20.6653 16.4561 21.0506 16.5583 21.4834 16.6859C22.3521 16.9421 23.4524 17.3129 24.5315 17.6999C25.6112 18.0872 26.6773 18.4934 27.4786 18.8218C27.8782 18.9855 28.2183 19.1324 28.4632 19.2495C28.5839 19.3072 28.6925 19.3629 28.7763 19.4133C28.8166 19.4376 28.866 19.4695 28.9116 19.5074C28.934 19.5261 28.9679 19.5565 29.0011 19.5979C29.0279 19.6313 29.0942 19.7201 29.1138 19.8536C29.2427 20.7351 29.218 21.8017 29.1075 22.7717C28.9979 23.7353 28.7973 24.66 28.5453 25.2469C27.7761 27.0388 26.604 28.8281 25.6351 30.159C25.1488 30.827 24.7098 31.3847 24.3921 31.7759C24.2331 31.9716 24.1043 32.1259 24.0148 32.2316C23.9701 32.2845 23.9352 32.3253 23.9113 32.3531L23.8837 32.3849L23.8764 32.3934L23.8736 32.3965C23.8736 32.3966 23.8735 32.3967 23.4973 32.0674L23.8736 32.3965C23.6918 32.6043 23.3758 32.6255 23.168 32.4436C22.9602 32.2618 22.9391 31.9459 23.121 31.7381L23.1226 31.7362L23.1286 31.7293L23.1535 31.7006C23.1756 31.6749 23.2086 31.6364 23.2514 31.5858C23.3369 31.4847 23.4614 31.3355 23.6159 31.1455C23.9248 30.7651 24.3527 30.2215 24.8266 29.5705C25.7782 28.2634 26.9003 26.5439 27.6264 24.8524C27.822 24.3968 28.0086 23.584 28.114 22.6586C28.2091 21.8225 28.2326 20.9408 28.1515 20.2107C28.1177 20.1934 28.0779 20.1737 28.0318 20.1517C27.8125 20.0468 27.4928 19.9083 27.0995 19.7471C26.3151 19.4257 25.2634 19.0248 24.1939 18.6412C23.1236 18.2574 22.0433 17.8936 21.2006 17.6451C20.7778 17.5204 20.4247 17.4277 20.1665 17.3754C20.0486 17.3515 19.9612 17.3383 19.9015 17.3329Z" fill="#CD942F"/>
<defs>
<radialGradient id="paint0_radial_26139_3454" cx="0" cy="0" r="1" gradientTransform="matrix(-6.35384 21.1738 -19.2827 -6.51843 16.9109 10.47)" gradientUnits="userSpaceOnUse">
<stop stop-color="#FBEB9D"/>
<stop offset="0.34375" stop-color="#F6E071"/>
<stop offset="1" stop-color="#ECC91A"/>
</radialGradient>
<linearGradient id="paint1_linear_26139_3454" x1="22.4714" y1="23.9414" x2="14.4507" y2="23.9414" gradientUnits="userSpaceOnUse">
<stop stop-color="#783E11" stop-opacity="0.22"/>
<stop offset="1" stop-color="#783E11" stop-opacity="0.1"/>
</linearGradient>
<radialGradient id="paint2_radial_26139_3454" cx="0" cy="0" r="1" gradientTransform="matrix(2.4362 7.14995 -3.71559 3.49451 16.2303 14.2084)" gradientUnits="userSpaceOnUse">
<stop stop-color="#FBEB9D"/>
<stop offset="0.34375" stop-color="#F6E071"/>
<stop offset="1" stop-color="#ECC91A"/>
</radialGradient>
<radialGradient id="paint3_radial_26139_3454" cx="0" cy="0" r="1" gradientTransform="matrix(2.43544 7.13086 -3.71565 3.48565 11.3284 14.327)" gradientUnits="userSpaceOnUse">
<stop stop-color="#FBEB9D"/>
<stop offset="0.34375" stop-color="#F6E071"/>
<stop offset="1" stop-color="#ECC91A"/>
</radialGradient>
<radialGradient id="paint4_radial_26139_3454" cx="0" cy="0" r="1" gradientTransform="matrix(3.2377 11.6176 -7.38619 4.7648 20.096 17.5307)" gradientUnits="userSpaceOnUse">
<stop stop-color="#FBEB9D"/>
<stop offset="0.43202" stop-color="#F6E071"/>
<stop offset="1" stop-color="#ECC91A"/>
</radialGradient>
</defs>
</svg>
