<svg width="34" height="34" viewBox="0 0 34 34" fill="none" xmlns="http://www.w3.org/2000/svg">
<path d="M21.2221 15.5881V13.2708L28.8756 3.99612V3.94106H21.2221V0.997925H33.0021V3.52813L25.5298 12.6101V12.6789H33.0021V15.5881H21.2221Z" fill="url(#paint0_radial_26139_3493)"/>
<path d="M25.0297 12.4305L25.144 12.2928L32.5024 3.34851V1.49792H21.7221V3.44128H29.3754V4.17566L21.7221 13.4501V15.0878H32.5024V13.1786H25.0297V12.4305ZM33.0024 12.6786V15.5878H21.2221V13.2704L28.8754 3.99597V3.94128H21.2221V0.997925H33.0024V3.5282L25.5297 12.6102V12.6786H33.0024Z" fill="#3993F0"/>
<path d="M10.2997 25.0673V23.101L16.794 15.231V15.1843H10.2997V12.6869H20.2955V14.8339L13.9549 22.5403V22.5987H20.2955V25.0673H10.2997Z" fill="url(#paint1_radial_26139_3493)"/>
<path d="M13.4549 22.3607L13.5692 22.223L19.7957 14.6537V13.1869H10.7997V14.684H17.2938V15.4105L10.7997 23.2806V24.5677H19.7957V23.099H13.4549V22.3607ZM20.2957 22.599V25.0677H10.2997V23.101L16.7938 15.2308V15.184H10.2997V12.6869H20.2957V14.8344L13.9549 22.5404V22.599H20.2957Z" fill="#3993F0"/>
<path d="M0.997925 33.0021V31.1238L6.29343 24.8917V24.8525H0.997925V22.629H9.37304V24.8525L4.27194 30.8147V30.8636H9.37304V33.0021H0.997925Z" fill="url(#paint2_radial_26139_3493)"/>
<path d="M3.77238 30.63L8.87303 24.6671V23.129H1.49793V24.3527H6.7939V25.0753L6.67476 25.215L1.49793 31.3067V32.5021H8.87303V31.3634H3.77238V30.63ZM9.37304 30.8634V33.0021H0.997925V31.1241L6.29389 24.8917V24.8527H0.997925V22.629H9.37304V24.8527L4.27238 30.8146V30.8634H9.37304Z" fill="#3993F0"/>
<defs>
<radialGradient id="paint0_radial_26139_3493" cx="0" cy="0" r="1" gradientTransform="matrix(11.5496 14.7658 -18.3174 15.2542 21.4525 0.822266)" gradientUnits="userSpaceOnUse">
<stop stop-color="#9ECCFD"/>
<stop offset="0.342175" stop-color="#77B6F8"/>
<stop offset="0.45" stop-color="#70B1F5"/>
<stop offset="1" stop-color="#5BA8F7"/>
</radialGradient>
<radialGradient id="paint1_radial_26139_3493" cx="0" cy="0" r="1" gradientTransform="matrix(15.0021 12.5295 -15.3407 19.5552 10.4951 12.5378)" gradientUnits="userSpaceOnUse">
<stop stop-color="#A5D0FE"/>
<stop offset="0.45" stop-color="#70B1F5"/>
<stop offset="1" stop-color="#5BA8F7"/>
</radialGradient>
<radialGradient id="paint2_radial_26139_3493" cx="0" cy="0" r="1" gradientTransform="matrix(15.3751 14.0591 -17.2703 20.0889 1.1617 22.5041)" gradientUnits="userSpaceOnUse">
<stop stop-color="#AFD6FF"/>
<stop offset="0.45" stop-color="#70B1F5"/>
<stop offset="1" stop-color="#5BA8F7"/>
</radialGradient>
</defs>
</svg>
