<svg width="34" height="34" viewBox="0 0 34 34" fill="none" xmlns="http://www.w3.org/2000/svg">
<circle cx="17" cy="17" r="17" fill="url(#paint0_radial_5557_33956)"/>
<g opacity="0.5">
<path fill-rule="evenodd" clip-rule="evenodd" d="M17 34C26.3888 34 34 26.3888 34 17C34 7.61116 26.3888 0 17 0C7.61116 0 0 7.61116 0 17C0 26.3888 7.61116 34 17 34ZM17.0001 32.5141C25.5683 32.5141 32.5141 25.5683 32.5141 17.0001C32.5141 8.43195 25.5683 1.48608 17.0001 1.48608C8.43195 1.48608 1.48608 8.43195 1.48608 17.0001C1.48608 25.5683 8.43195 32.5141 17.0001 32.5141Z" fill="url(#paint1_radial_5557_33956)"/>
<path fill-rule="evenodd" clip-rule="evenodd" d="M17 34C26.3888 34 34 26.3888 34 17C34 7.61116 26.3888 0 17 0C7.61116 0 0 7.61116 0 17C0 26.3888 7.61116 34 17 34ZM17.0001 32.5141C25.5683 32.5141 32.5141 25.5683 32.5141 17.0001C32.5141 8.43195 25.5683 1.48608 17.0001 1.48608C8.43195 1.48608 1.48608 8.43195 1.48608 17.0001C1.48608 25.5683 8.43195 32.5141 17.0001 32.5141Z" fill="#C08200" fill-opacity="0.28"/>
</g>
<ellipse cx="11.6107" cy="13.4271" rx="1.65651" ry="2.42712" fill="#783E11"/>
<ellipse cx="21.6151" cy="13.4271" rx="1.65651" ry="2.42712" fill="#783E11"/>
<path fill-rule="evenodd" clip-rule="evenodd" d="M10.0286 24.937C10.0286 25.2052 10.3641 25.3533 10.5876 25.1836C12.4178 23.7962 14.6246 22.9355 17.0007 22.936C19.3774 22.9364 21.5832 23.7985 23.4124 25.1863C23.636 25.356 23.9715 25.2079 23.9715 24.9402V24.0742C23.9715 23.9829 23.93 23.8942 23.8572 23.8335C21.9453 22.2305 19.5733 21.0568 17.0012 21.0563C14.429 21.0559 12.0561 22.2283 10.1434 23.8303C10.0706 23.8915 10.029 23.9797 10.029 24.0711L10.0286 24.937Z" fill="#783E11"/>
<defs>
<radialGradient id="paint0_radial_5557_33956" cx="0" cy="0" r="1" gradientUnits="userSpaceOnUse" gradientTransform="translate(15.4754 7.00962) rotate(73.7184) scale(27.5504)">
<stop stop-color="#FFF1AA"/>
<stop offset="0.34375" stop-color="#FFE564"/>
<stop offset="0.760417" stop-color="#F4CC00"/>
<stop offset="1" stop-color="#F29E0B"/>
</radialGradient>
<radialGradient id="paint1_radial_5557_33956" cx="0" cy="0" r="1" gradientUnits="userSpaceOnUse" gradientTransform="translate(15.4754 7.00962) rotate(73.7184) scale(27.5504)">
<stop stop-color="#FBEB9D"/>
<stop offset="0.34375" stop-color="#F6E071"/>
<stop offset="0.786458" stop-color="#ECC91A"/>
<stop offset="1" stop-color="#E3BE00"/>
</radialGradient>
</defs>
</svg>
