<svg width="34" height="34" viewBox="0 0 34 34" fill="none" xmlns="http://www.w3.org/2000/svg">
<path d="M1.36119 8.06929C0.549591 6.16429 0.731768 2.86405 0.847862 1.53105C0.872334 1.25006 1.17501 1.09341 1.42539 1.22328C3.7776 2.4434 6.07086 3.20978 9.24269 3.45155L4.00352 11.7613C4.00352 11.7613 2.15586 9.93455 1.36119 8.06929Z" fill="url(#paint0_linear_5557_34075)"/>
<path d="M32.6388 8.06929C33.4504 6.16429 33.2682 2.86405 33.1521 1.53105C33.1277 1.25006 32.825 1.09341 32.5746 1.22328C30.2224 2.4434 27.9291 3.20978 24.7573 3.45155L29.9965 11.7613C29.9965 11.7613 31.8442 9.93455 32.6388 8.06929Z" fill="url(#paint1_linear_5557_34075)"/>
<circle cx="17" cy="17" r="17" fill="url(#paint2_radial_5557_34075)"/>
<path fill-rule="evenodd" clip-rule="evenodd" d="M17 34C26.3888 34 34 26.3888 34 17C34 7.61116 26.3888 0 17 0C7.61116 0 0 7.61116 0 17C0 26.3888 7.61116 34 17 34ZM17.0001 32.5141C25.5683 32.5141 32.5141 25.5683 32.5141 17.0001C32.5141 8.43195 25.5683 1.48608 17.0001 1.48608C8.43195 1.48608 1.48608 8.43195 1.48608 17.0001C1.48608 25.5683 8.43195 32.5141 17.0001 32.5141Z" fill="url(#paint3_radial_5557_34075)"/>
<path fill-rule="evenodd" clip-rule="evenodd" d="M17 34C26.3888 34 34 26.3888 34 17C34 7.61116 26.3888 0 17 0C7.61116 0 0 7.61116 0 17C0 26.3888 7.61116 34 17 34ZM17.0001 32.5141C25.5683 32.5141 32.5141 25.5683 32.5141 17.0001C32.5141 8.43195 25.5683 1.48608 17.0001 1.48608C8.43195 1.48608 1.48608 8.43195 1.48608 17.0001C1.48608 25.5683 8.43195 32.5141 17.0001 32.5141Z" fill="#8E52EC" fill-opacity="0.3"/>
<path fill-rule="evenodd" clip-rule="evenodd" d="M11.4473 23.7288C11.4473 23.4203 11.7207 23.2499 11.9028 23.4451C13.3937 25.0412 15.1915 25.7185 17.1272 25.718C19.0633 25.7175 20.8603 25.0386 22.3505 23.442C22.5326 23.2468 22.8059 23.4172 22.8059 23.7252V24.7214C22.8059 24.8265 22.7721 24.9285 22.7128 24.9984C21.1553 26.8425 19.223 27.6893 17.1276 27.6898C15.0322 27.6903 13.0991 26.845 11.5409 25.002C11.4816 24.9316 11.4477 24.8301 11.4477 24.725L11.4473 23.7288Z" fill="#222222"/>
<path fill-rule="evenodd" clip-rule="evenodd" d="M23.8865 18.0014C23.8865 18.9211 23.1499 19.6665 22.2415 19.6665C21.3332 19.6665 20.5965 18.9211 20.5965 18.0014C20.5965 17.0812 21.3332 16.3358 22.2415 16.3358C23.1499 16.3358 23.8865 17.0812 23.8865 18.0014Z" fill="#222222"/>
<path fill-rule="evenodd" clip-rule="evenodd" d="M9.12753 18.0014C9.12753 18.9211 9.86378 19.6665 10.7721 19.6665C11.6809 19.6665 12.4171 18.9211 12.4171 18.0014C12.4171 17.0812 11.6809 16.3358 10.7721 16.3358C9.86378 16.3358 9.12753 17.0812 9.12753 18.0014Z" fill="#222222"/>
<path fill-rule="evenodd" clip-rule="evenodd" d="M19.98 17.8827C21.4629 17.8362 22.8566 17.3996 23.8892 16.5543C24.4232 16.1174 25.4363 15.271 25.6884 14.7214C25.7518 14.5819 25.7402 14.4275 25.6689 14.2953L25.6474 14.2556C25.428 13.8501 24.744 13.828 24.4757 14.2267C24.2489 14.5629 23.3365 15.2146 22.9894 15.4985C22.1406 16.1928 21.0479 16.6111 19.8629 16.7647C19.4257 16.8213 19.1752 17.2335 19.3564 17.5683C19.466 17.7717 19.712 17.8912 19.98 17.8827Z" fill="#222222"/>
<path fill-rule="evenodd" clip-rule="evenodd" d="M13.3092 17.8676C11.8263 17.8211 10.4326 17.3845 9.39998 16.5392C8.86598 16.1023 7.85284 15.2559 7.60081 14.7063C7.5374 14.5668 7.54898 14.4124 7.62028 14.2802L7.64175 14.2406C7.86122 13.835 8.54518 13.8129 8.81349 14.2116C9.04025 14.5478 9.95273 15.1995 10.2998 15.4834C11.1486 16.1777 12.2413 16.596 13.4263 16.7496C13.8635 16.8062 14.114 17.2184 13.9327 17.5532C13.8231 17.7566 13.5772 17.8761 13.3092 17.8676Z" fill="#222222"/>
<defs>
<linearGradient id="paint0_linear_5557_34075" x1="4.99367" y1="0.947571" x2="4.99367" y2="11.7613" gradientUnits="userSpaceOnUse">
<stop stop-color="#B389F4"/>
<stop offset="1" stop-color="#8F53ED"/>
</linearGradient>
<linearGradient id="paint1_linear_5557_34075" x1="29.0063" y1="0.947571" x2="29.0063" y2="11.7613" gradientUnits="userSpaceOnUse">
<stop stop-color="#B389F4"/>
<stop offset="1" stop-color="#8F53ED"/>
</linearGradient>
<radialGradient id="paint2_radial_5557_34075" cx="0" cy="0" r="1" gradientUnits="userSpaceOnUse" gradientTransform="translate(15.4754 7.00962) rotate(73.7184) scale(27.5504)">
<stop stop-color="#CEAEFF"/>
<stop offset="0.34375" stop-color="#C19AFE"/>
<stop offset="0.96875" stop-color="#A16AF8"/>
</radialGradient>
<radialGradient id="paint3_radial_5557_34075" cx="0" cy="0" r="1" gradientUnits="userSpaceOnUse" gradientTransform="translate(15.4754 7.00962) rotate(73.7184) scale(27.5504)">
<stop stop-color="#D9C2FE"/>
<stop offset="0.34375" stop-color="#B791F4"/>
<stop offset="0.96875" stop-color="#8E52EC"/>
</radialGradient>
</defs>
</svg>
