<svg width="34" height="34" viewBox="0 0 34 34" fill="none" xmlns="http://www.w3.org/2000/svg">
<circle cx="17" cy="17" r="17" fill="url(#paint0_radial_5557_34045)"/>
<g opacity="0.5">
<path fill-rule="evenodd" clip-rule="evenodd" d="M17 34C26.3888 34 34 26.3888 34 17C34 7.61116 26.3888 0 17 0C7.61116 0 0 7.61116 0 17C0 26.3888 7.61116 34 17 34ZM17.0001 32.5141C25.5683 32.5141 32.5141 25.5683 32.5141 17.0001C32.5141 8.43195 25.5683 1.48608 17.0001 1.48608C8.43195 1.48608 1.48608 8.43195 1.48608 17.0001C1.48608 25.5683 8.43195 32.5141 17.0001 32.5141Z" fill="url(#paint1_radial_5557_34045)"/>
<path fill-rule="evenodd" clip-rule="evenodd" d="M17 34C26.3888 34 34 26.3888 34 17C34 7.61116 26.3888 0 17 0C7.61116 0 0 7.61116 0 17C0 26.3888 7.61116 34 17 34ZM17.0001 32.5141C25.5683 32.5141 32.5141 25.5683 32.5141 17.0001C32.5141 8.43195 25.5683 1.48608 17.0001 1.48608C8.43195 1.48608 1.48608 8.43195 1.48608 17.0001C1.48608 25.5683 8.43195 32.5141 17.0001 32.5141Z" fill="#C08200" fill-opacity="0.28"/>
</g>
<ellipse cx="11.6106" cy="12.8771" rx="1.65651" ry="2.42712" fill="#783E11"/>
<ellipse cx="21.615" cy="12.8771" rx="1.65651" ry="2.42712" fill="#783E11"/>
<path opacity="0.6" fill-rule="evenodd" clip-rule="evenodd" d="M25.2165 8.37589C25.2091 8.19132 25.0742 8.01932 24.8787 7.93153C23.797 7.44528 22.6427 7.2706 21.6046 7.51605C21.0678 7.64282 20.6119 7.87312 20.2383 8.17964C20.1438 8.25769 20.0981 8.37264 20.1029 8.49264L20.1045 8.52863C20.1201 8.89691 20.6037 9.15248 20.9362 8.96005C21.2169 8.79795 21.5322 8.67229 21.8811 8.58993C22.7342 8.38852 23.6658 8.47091 24.5711 8.77581C24.905 8.88833 25.2294 8.67992 25.2165 8.37589Z" fill="#783E11"/>
<path opacity="0.6" fill-rule="evenodd" clip-rule="evenodd" d="M8.4224 8.27337C8.35115 8.10295 8.40068 7.89007 8.54076 7.72789C9.31561 6.83005 10.288 6.18387 11.3326 5.96762C11.8726 5.85567 12.3831 5.87173 12.8513 5.99162C12.9699 6.02244 13.0599 6.10727 13.1062 6.21809L13.12 6.25136C13.2616 6.59171 12.9312 7.02774 12.5486 6.99385C12.2256 6.96558 11.8868 6.98496 11.5358 7.05775C10.6775 7.23576 9.86797 7.70414 9.1764 8.36304C8.92127 8.60616 8.53921 8.55437 8.4224 8.27337Z" fill="#783E11"/>
<path fill-rule="evenodd" clip-rule="evenodd" d="M12.0796 22.6913C12.0796 22.9595 12.316 23.1076 12.4735 22.9379C13.7632 21.5505 15.3264 21.0804 17.0008 21.0809C18.6755 21.0813 20.222 21.5524 21.511 22.9403C21.6685 23.1099 21.9049 22.9619 21.9049 22.6941V21.6366C21.9049 21.5452 21.8757 21.4566 21.8244 21.3958C20.4772 19.7929 18.8133 19.106 17.0008 19.1055C15.1883 19.1051 13.5087 19.7907 12.1608 21.3927C12.1095 21.4539 12.0802 21.5421 12.0802 21.6334L12.0796 22.6913Z" fill="#783E11"/>
<path fill-rule="evenodd" clip-rule="evenodd" d="M7.27582 20.1724L7.26232 20.1565C6.87961 19.7042 6.35724 18.883 6.58742 17.8477C6.80991 16.847 7.59572 16.306 8.11704 16.0325C9.76894 15.1658 11.3634 15.917 12.2543 16.727L12.2672 16.7387L21.2139 25.2082L21.3004 25.2867C21.3349 25.3164 21.3686 25.3435 21.4011 25.3679L21.7804 24.7323L22.1408 24.146C23.0091 22.7562 23.7623 21.726 24.6581 20.9075C25.2129 20.4006 25.8236 20.0116 26.4983 19.8427C27.2163 19.6629 27.9044 19.7603 28.4826 20.0657C29.0216 20.3504 29.3728 20.7647 29.5848 21.1002C29.779 21.4075 29.9512 21.7997 30.0034 22.2003L30.0594 22.6307L29.115 25.1192L28.7198 26.1841L28.7164 26.193C28.2756 27.3415 27.389 29.4904 26.7999 30.6685L26.6013 31.0327L26.1756 31.415C23.4667 33.0786 20.2937 33.9934 17.3023 33.9934C14.3648 34.0807 11.4463 33.2495 9.26228 32.1326C8.16017 31.569 7.11029 31.0405 6.46738 30.0343C6.1605 29.4824 5.99574 28.8229 6.10327 28.1202C6.21008 27.4223 6.56099 26.8404 7.00929 26.3921C7.29674 26.1047 7.62759 25.8821 7.98045 25.7306C7.92984 25.4714 7.9109 25.2152 7.91708 24.9744C7.93568 24.2505 8.18744 23.4029 8.83848 22.7519C8.99667 22.5937 9.17143 22.4459 9.36258 22.3165L7.40373 20.3164L7.27582 20.1724ZM21.1661 25.7526L21.1669 25.7517L21.1661 25.7526Z" fill="#CE9635"/>
<path fill-rule="evenodd" clip-rule="evenodd" d="M8.82505 17.3164C8.06018 17.7177 7.96369 18.1966 8.48296 18.8102L8.57006 18.9082L14.8478 25.3182L14.8736 25.3467C14.9879 25.4857 15.1223 25.8147 14.77 26.0949C14.5171 26.2961 14.2555 26.2631 13.9853 25.9959L13.0975 25.0429L12.5401 24.4787C12.1025 24.0445 11.8596 23.7897 11.7035 23.664L11.6164 23.5993C11.0709 23.2524 10.5273 23.2444 9.97732 23.7944C9.42733 24.3444 9.43583 25.3676 9.88907 25.875L10.2361 26.2338L11.0294 27.0277L11.7033 27.7177C11.9133 27.9556 11.8193 28.3201 11.7033 28.4438C11.599 28.5552 11.2791 28.6566 11.0619 28.5415L10.9937 28.4948L9.50557 27.2435C9.21629 26.9804 8.59256 27.009 8.12908 27.4725C7.15772 28.4438 7.83036 29.733 9.88907 30.5582C13.7171 32.5508 20.5172 33.0141 25.3304 29.7786C25.8872 28.6649 26.7591 26.5563 27.1984 25.4117L27.5965 24.3388L28.3975 22.2283C28.3522 21.8809 27.618 20.4197 25.9048 21.9851C25.177 22.6501 24.516 23.5302 23.6643 24.8936L23.3128 25.4654L22.8026 26.3204C22.5567 26.7379 22.3049 27.0914 21.7142 27.1096C21.1728 27.1263 20.6134 26.8081 20.1769 26.4276L20.061 26.3225L11.0203 17.764C10.4082 17.2075 9.58544 16.9175 8.82505 17.3164Z" fill="white"/>
<defs>
<radialGradient id="paint0_radial_5557_34045" cx="0" cy="0" r="1" gradientUnits="userSpaceOnUse" gradientTransform="translate(15.4754 7.00962) rotate(73.7184) scale(27.5504)">
<stop stop-color="#FFF1AA"/>
<stop offset="0.34375" stop-color="#FFE564"/>
<stop offset="0.760417" stop-color="#F4CC00"/>
<stop offset="1" stop-color="#F29E0B"/>
</radialGradient>
<radialGradient id="paint1_radial_5557_34045" cx="0" cy="0" r="1" gradientUnits="userSpaceOnUse" gradientTransform="translate(15.4754 7.00962) rotate(73.7184) scale(27.5504)">
<stop stop-color="#FBEB9D"/>
<stop offset="0.34375" stop-color="#F6E071"/>
<stop offset="0.786458" stop-color="#ECC91A"/>
<stop offset="1" stop-color="#E3BE00"/>
</radialGradient>
</defs>
</svg>
