<svg width="34" height="34" viewBox="0 0 34 34" fill="none" xmlns="http://www.w3.org/2000/svg">
<path d="M1 7C1 3.68629 3.68629 1 7 1H27C30.3137 1 33 3.68629 33 7V27C33 30.3137 30.3137 33 27 33H7C3.68629 33 1 30.3137 1 27V7Z" fill="url(#paint0_linear_26139_3472)"/>
<path fill-rule="evenodd" clip-rule="evenodd" d="M27 2.5H7C4.51472 2.5 2.5 4.51472 2.5 7V27C2.5 29.4853 4.51472 31.5 7 31.5H27C29.4853 31.5 31.5 29.4853 31.5 27V7C31.5 4.51472 29.4853 2.5 27 2.5ZM7 1C3.68629 1 1 3.68629 1 7V27C1 30.3137 3.68629 33 7 33H27C30.3137 33 33 30.3137 33 27V7C33 3.68629 30.3137 1 27 1H7Z" fill="url(#paint1_linear_26139_3472)"/>
<path fill-rule="evenodd" clip-rule="evenodd" d="M27 2.5H7C4.51472 2.5 2.5 4.51472 2.5 7V27C2.5 29.4853 4.51472 31.5 7 31.5H27C29.4853 31.5 31.5 29.4853 31.5 27V7C31.5 4.51472 29.4853 2.5 27 2.5ZM7 1C3.68629 1 1 3.68629 1 7V27C1 30.3137 3.68629 33 7 33H27C30.3137 33 33 30.3137 33 27V7C33 3.68629 30.3137 1 27 1H7Z" fill="#57C137" fill-opacity="0.5"/>
<g filter="url(#filter0_i_26139_3472)">
<path fill-rule="evenodd" clip-rule="evenodd" d="M15.4127 21.5312L11.0929 15.7387H7.29999L15.6803 27L27.3 8H23.7038L15.4127 21.5312Z" fill="white"/>
</g>
<path fill-rule="evenodd" clip-rule="evenodd" d="M11.0929 15.7388L15.4127 21.5313L23.7038 8.00005H27.3L15.6803 27L7.30001 15.7388H11.0929ZM15.3153 19.3934L23.0318 6.80005H29.4405L15.7777 29.1409L4.91119 14.5388H11.6949L15.3153 19.3934Z" fill="#57C137" fill-opacity="0.5"/>
<defs>
<filter id="filter0_i_26139_3472" x="7.29999" y="8" width="20" height="20" filterUnits="userSpaceOnUse" color-interpolation-filters="sRGB">
<feFlood flood-opacity="0" result="BackgroundImageFix"/>
<feBlend mode="normal" in="SourceGraphic" in2="BackgroundImageFix" result="shape"/>
<feColorMatrix in="SourceAlpha" type="matrix" values="0 0 0 0 0 0 0 0 0 0 0 0 0 0 0 0 0 0 127 0" result="hardAlpha"/>
<feOffset dy="2"/>
<feGaussianBlur stdDeviation="0.5"/>
<feComposite in2="hardAlpha" operator="arithmetic" k2="-1" k3="1"/>
<feColorMatrix type="matrix" values="0 0 0 0 0 0 0 0 0 0 0 0 0 0 0 0 0 0 0.04 0"/>
<feBlend mode="normal" in2="shape" result="effect1_innerShadow_26139_3472"/>
</filter>
<linearGradient id="paint0_linear_26139_3472" x1="17" y1="2.5" x2="17" y2="33" gradientUnits="userSpaceOnUse">
<stop stop-color="#A5EF99"/>
<stop offset="0.278531" stop-color="#5FCF40"/>
<stop offset="0.96875" stop-color="#57C137"/>
</linearGradient>
<linearGradient id="paint1_linear_26139_3472" x1="17" y1="2.5" x2="17" y2="33" gradientUnits="userSpaceOnUse">
<stop stop-color="#A5EF99"/>
<stop offset="0.298675" stop-color="#5FCF40"/>
<stop offset="0.96875" stop-color="#57C137"/>
</linearGradient>
</defs>
</svg>
