<svg width="34" height="34" viewBox="0 0 34 34" fill="none" xmlns="http://www.w3.org/2000/svg">
<circle cx="17" cy="17" r="17" fill="url(#paint0_radial_5557_33915)"/>
<g opacity="0.5">
<path fill-rule="evenodd" clip-rule="evenodd" d="M17 34C26.3888 34 34 26.3888 34 17C34 7.61116 26.3888 0 17 0C7.61116 0 0 7.61116 0 17C0 26.3888 7.61116 34 17 34ZM17.0001 32.5141C25.5683 32.5141 32.5141 25.5683 32.5141 17.0001C32.5141 8.43195 25.5683 1.48608 17.0001 1.48608C8.43195 1.48608 1.48608 8.43195 1.48608 17.0001C1.48608 25.5683 8.43195 32.5141 17.0001 32.5141Z" fill="url(#paint1_radial_5557_33915)"/>
<path fill-rule="evenodd" clip-rule="evenodd" d="M17 34C26.3888 34 34 26.3888 34 17C34 7.61116 26.3888 0 17 0C7.61116 0 0 7.61116 0 17C0 26.3888 7.61116 34 17 34ZM17.0001 32.5141C25.5683 32.5141 32.5141 25.5683 32.5141 17.0001C32.5141 8.43195 25.5683 1.48608 17.0001 1.48608C8.43195 1.48608 1.48608 8.43195 1.48608 17.0001C1.48608 25.5683 8.43195 32.5141 17.0001 32.5141Z" fill="#C08200" fill-opacity="0.28"/>
</g>
<ellipse cx="22.1453" cy="12.8656" rx="1.65651" ry="2.42712" fill="#783E11"/>
<path d="M22.1704 25.0108C22.1894 24.865 22.0495 24.7489 21.9081 24.7893C19.7949 25.3944 17.6553 25.1329 15.6216 24.1806C13.6602 23.2614 11.8525 21.8409 10.5886 19.9371C10.4965 19.7983 10.2828 19.819 10.2242 19.9749L9.81556 21.0602C9.79512 21.1145 9.79915 21.175 9.8272 21.2258C10.9296 23.2232 12.6259 25.015 14.6742 25.9769C16.7689 26.954 19.6298 27.4264 21.8272 26.7601C21.901 26.7377 21.9537 26.6736 21.9637 26.5971L22.1704 25.0108Z" fill="#783E11"/>
<path fill-rule="evenodd" clip-rule="evenodd" d="M12.4945 11.0006C11.425 10.9068 10.3974 11.2054 9.49769 11.7899C9.43444 11.8314 9.39346 11.9017 9.38678 11.9779L9.32709 12.681C9.3115 12.8655 9.49769 13.0017 9.66383 12.9232C10.4077 12.5683 11.2184 12.4014 12.0544 12.4749C13.1337 12.5692 14.1038 13.0486 14.8958 13.7927C15.0414 13.9303 15.2784 13.8369 15.2953 13.6358L15.3924 12.4984C15.3991 12.4217 15.3706 12.3451 15.3145 12.2936C14.5265 11.5635 13.5631 11.0936 12.4945 11.0006Z" fill="#783E11"/>
<defs>
<radialGradient id="paint0_radial_5557_33915" cx="0" cy="0" r="1" gradientUnits="userSpaceOnUse" gradientTransform="translate(15.4754 7.00962) rotate(73.7184) scale(27.5504)">
<stop stop-color="#FFF1AA"/>
<stop offset="0.34375" stop-color="#FFE564"/>
<stop offset="0.760417" stop-color="#F4CC00"/>
<stop offset="1" stop-color="#F29E0B"/>
</radialGradient>
<radialGradient id="paint1_radial_5557_33915" cx="0" cy="0" r="1" gradientUnits="userSpaceOnUse" gradientTransform="translate(15.4754 7.00962) rotate(73.7184) scale(27.5504)">
<stop stop-color="#FBEB9D"/>
<stop offset="0.34375" stop-color="#F6E071"/>
<stop offset="0.786458" stop-color="#ECC91A"/>
<stop offset="1" stop-color="#E3BE00"/>
</radialGradient>
</defs>
</svg>
