<svg width="32" height="32" viewBox="0 0 32 32" fill="none" xmlns="http://www.w3.org/2000/svg">
	<circle cx="16" cy="16" r="15.5" stroke="#05B5AB"/>
	<path fill-rule="evenodd" clip-rule="evenodd" d="M8.31618 21.5477C8.43314 22.0099 8.84903 22.3337 9.3258 22.3337H23.2041C23.7017 22.3337 24.1298 21.9816 24.2259 21.4934L25.8736 13.1216C26.0585 12.1821 25.0826 11.4404 24.2269 11.8702L21.2506 13.3649C20.6881 13.6474 20.003 13.4259 19.7124 12.8675L16.9725 7.60237C16.542 6.77524 15.3584 6.77592 14.9289 7.60353L12.1987 12.8646C11.9083 13.4242 11.2218 13.6462 10.6587 13.3627L7.85343 11.9499C6.97198 11.506 5.97706 12.3041 6.21917 13.2609L8.31618 21.5477Z" fill="#55D0E0"/>
</svg>
