<svg width="22" height="22" viewBox="0 0 22 22" fill="none" xmlns="http://www.w3.org/2000/svg">
	<circle cx="11" cy="11" r="11" fill="#55D0E0" fill-opacity="0.69"/>
	<path fill-rule="evenodd" clip-rule="evenodd" d="M6.41247 14.3123C6.4823 14.5882 6.7306 14.7815 7.01525 14.7815H15.3011C15.5982 14.7815 15.8538 14.5713 15.9112 14.2798L16.8949 9.28153C17.0053 8.7206 16.4227 8.27782 15.9118 8.5344L14.1349 9.42681C13.799 9.59549 13.3899 9.4632 13.2164 9.12981L11.5806 5.98634C11.3236 5.49252 10.6169 5.49292 10.3605 5.98704L8.7305 9.1281C8.55711 9.46222 8.14726 9.59477 7.81105 9.42546L6.13619 8.58201C5.60993 8.31698 5.01592 8.79347 5.16047 9.3647L6.41247 14.3123Z" fill="white"/>
</svg>
