<svg width="32" height="32" viewBox="0 0 32 32" fill="none" xmlns="http://www.w3.org/2000/svg">
	<g clip-path="url(#clip0_60637_516)">
		<rect width="32" height="32" fill="#E6F4FF"/>
		<path fill-rule="evenodd" clip-rule="evenodd" d="M16.0376 16.4389C12.9006 16.4389 12.1635 11.9508 14.3846 10.3649C14.7534 10.1016 15.4623 9.85352 16.0377 9.85352C20.1291 9.85352 19.8039 16.4389 16.0376 16.4389ZM15.0989 11.3654C15.1509 11.3282 15.2959 11.2496 15.5099 11.1807C15.7196 11.1133 15.9107 11.0828 16.0377 11.0828C16.6921 11.0828 17.0797 11.3281 17.3275 11.6429C17.6029 11.9927 17.7701 12.5195 17.7554 13.1159C17.7407 13.7114 17.5464 14.2632 17.2437 14.6398C16.963 14.9891 16.5792 15.2096 16.0376 15.2096C15.2003 15.2096 14.611 14.6541 14.4008 13.7253C14.1787 12.7443 14.4989 11.7938 15.0989 11.3654Z" fill="#0075FF"/>
		<path d="M11.2494 11.7564C11.4956 11.5774 11.9449 11.4076 12.3444 11.3738C12.1963 11.8005 12.1119 12.2479 12.0859 12.6942C12.0664 12.7024 12.0483 12.7106 12.0318 12.7185C11.9946 12.7364 11.9758 12.7485 11.9723 12.7507C11.6496 12.9854 11.4168 13.5754 11.5667 14.2498C11.7028 14.8623 12.0437 15.1314 12.4551 15.143C12.5862 15.6474 12.7204 16.1436 12.7775 16.3535C12.6827 16.3661 12.5845 16.3726 12.483 16.3726C10.1419 16.3726 9.59184 12.9617 11.2494 11.7564Z" fill="#0075FF"/>
		<path d="M9.87639 17.3269C10.4821 16.9465 11.1877 16.7704 11.865 16.7081C11.8631 16.7403 11.8623 16.7765 11.862 16.8174C11.861 16.9632 11.8286 17.1079 11.7428 17.2257C11.601 17.4203 11.3953 17.6437 11.1627 17.8965C11.0801 17.9862 10.994 18.0796 10.9063 18.1768C10.7728 18.2312 10.6469 18.2946 10.5302 18.3679C10.1078 18.6332 9.76565 19.0511 9.641 19.7535H9.74637C9.5487 20.1315 9.39914 20.5411 9.33669 20.9827H9.30506C8.79421 20.9827 8.33327 20.558 8.37452 19.9931C8.4679 18.7143 9.04677 17.848 9.87639 17.3269Z" fill="#0075FF"/>
		<path d="M19.7716 11.3807C22.5434 11.662 22.2336 16.3724 19.5069 16.3724C19.4043 16.3724 19.3052 16.3659 19.2095 16.3533C19.2418 16.2041 19.322 15.9408 19.4198 15.6194L19.4202 15.6183C19.4654 15.4699 19.5143 15.3092 19.564 15.1417C19.8267 15.1277 20.0093 15.0161 20.157 14.8289C20.3374 14.6004 20.4672 14.2433 20.477 13.8402C20.4868 13.4361 20.3739 13.1035 20.2177 12.9014C20.164 12.8319 20.0981 12.767 20.0111 12.7152C19.9925 12.2662 19.9149 11.8135 19.7716 11.3807Z" fill="#0075FF"/>
		<path d="M20.1342 16.8163C20.1325 16.7755 20.1299 16.7393 20.1261 16.7073C20.8062 16.7688 21.5154 16.9448 22.1238 17.3269C22.9534 17.848 23.5323 18.7143 23.6256 19.9931C23.6669 20.558 23.206 20.9827 22.6951 20.9827H22.6633C22.601 20.5411 22.4516 20.1315 22.2541 19.7534H22.3592C22.2345 19.051 21.8923 18.6332 21.4699 18.3679C21.3536 18.2948 21.2281 18.2315 21.095 18.1772C21.0067 18.0795 20.9202 17.9855 20.8371 17.8953C20.6045 17.6426 20.3988 17.4192 20.2571 17.2246C20.1713 17.1068 20.1403 16.9619 20.1342 16.8163Z" fill="#0075FF"/>
		<path fill-rule="evenodd" clip-rule="evenodd" d="M12.4123 17.6843C13.489 17.0668 14.8118 16.8779 16.0003 16.8779C17.1887 16.8779 18.5115 17.0668 19.5882 17.6843C20.7016 18.3229 21.5111 19.3998 21.6443 21.0417C21.6954 21.6722 21.1797 22.1462 20.61 22.1462H11.3905C10.8208 22.1462 10.3051 21.6722 10.3562 21.0417C10.4894 19.3998 11.2989 18.3229 12.4123 17.6843ZM20.3949 20.9169C20.2478 19.8283 19.7032 19.1674 18.9767 18.7507C18.1648 18.2851 17.0881 18.1072 16.0003 18.1072C14.9124 18.1072 13.8357 18.2851 13.0238 18.7507C12.2973 19.1674 11.7527 19.8283 11.6056 20.9169H20.3949Z" fill="#0075FF"/>
	</g>
	<defs>
		<clipPath id="clip0_60637_516">
			<path d="M0 16C0 7.16344 7.16344 0 16 0C24.8366 0 32 7.16344 32 16C32 24.8366 24.8366 32 16 32C7.16344 32 0 24.8366 0 16Z" fill="white"/>
		</clipPath>
	</defs>
</svg>
