<svg width="32" height="32" viewBox="0 0 32 32" fill="none" xmlns="http://www.w3.org/2000/svg">
	<rect width="32" height="32" fill="#1F86FF"/>
	<path fill-rule="evenodd" clip-rule="evenodd" d="M7.93457 11.9674C7.93457 10.8539 8.83728 9.95117 9.95083 9.95117H22.0484C23.1619 9.95117 24.0647 10.8539 24.0647 11.9674V20.0325C24.0647 21.146 23.1619 22.0487 22.0484 22.0487H9.95083C8.83728 22.0487 7.93457 21.146 7.93457 20.0325V11.9674ZM21.7583 11.3626H10.3386L15.7232 15.8663C15.8715 15.9904 16.0871 15.9916 16.2369 15.8694L21.7583 11.3626ZM9.34595 12.3723V20.0325C9.34595 20.3665 9.61677 20.6374 9.95083 20.6374H22.0484C22.3825 20.6374 22.6533 20.3665 22.6533 20.0325V12.4539L17.1294 16.9627C16.4552 17.513 15.4852 17.5072 14.8177 16.9489L9.34595 12.3723Z" fill="white"/>
</svg>