<svg width="32" height="32" viewBox="0 0 32 32" fill="none" xmlns="http://www.w3.org/2000/svg">
	<rect width="32" height="32" fill="#1F86FF"/>
	<path fill-rule="evenodd" clip-rule="evenodd" d="M10.959 8.80518C9.28864 8.80518 7.93457 10.1592 7.93457 11.8296V15.7622C7.93457 16.8802 8.54123 17.8565 9.44332 18.3799V19.8062C9.44332 21.0558 10.9541 21.6816 11.8377 20.798L13.7039 18.9319C13.7507 18.8851 13.7932 18.8365 13.8317 18.7865H17.8857C19.556 18.7865 20.9101 17.4325 20.9101 15.7622V15.4295H21.2419C22.0214 15.4295 22.6533 16.0614 22.6533 16.8409V19.4791C22.6533 20.0199 22.3495 20.492 21.8967 20.73L21.142 21.1267V22.7901L19.2423 20.8905H17.0442C16.492 20.8905 16.0139 20.5734 15.782 20.1114H14.2925C14.5796 21.3659 15.7026 22.3018 17.0442 22.3018H18.6577L20.1589 23.8031C21.0425 24.6867 22.5533 24.0609 22.5533 22.8113V21.9793C23.4519 21.5071 24.0647 20.5646 24.0647 19.4791V16.8409C24.0647 15.2819 22.8009 14.0181 21.2419 14.0181H20.9101V11.8296C20.9101 10.1592 19.556 8.80518 17.8857 8.80518H10.959ZM10.8547 17.5671L10.1516 17.1592C9.66685 16.8779 9.34595 16.3567 9.34595 15.7622V11.8296C9.34595 10.9387 10.0681 10.2166 10.959 10.2166H17.8857C18.7765 10.2166 19.4987 10.9387 19.4987 11.8296V15.7622C19.4987 16.653 18.7765 17.3752 17.8857 17.3752H13.1367L12.713 17.926C12.713 17.926 12.71 17.9298 12.7059 17.9339L10.8547 19.7851V17.5671Z" fill="white"/>
</svg>