<svg width="32" height="32" viewBox="0 0 32 32" fill="none" xmlns="http://www.w3.org/2000/svg">
	<rect width="32" height="32" fill="#1F86FF"/>
	<path d="M13.5809 15.3946C13.7623 15.3946 13.9438 15.324 14.0749 15.1829C14.3471 14.9107 14.3471 14.4571 14.0749 14.1849L13.7724 13.8723H18.6215C19.0147 13.8723 19.3272 13.5598 19.3272 13.1666C19.3272 12.7735 19.0147 12.461 18.6215 12.461H13.7724L14.0749 12.1585C14.3471 11.8863 14.3471 11.4327 14.0749 11.1605C13.8027 10.8883 13.349 10.8883 13.0768 11.1605L11.5646 12.6727C11.4336 12.8037 11.3529 12.9852 11.3529 13.1666C11.3529 13.3582 11.4235 13.5296 11.5646 13.6707L13.0768 15.1829C13.218 15.324 13.3994 15.3946 13.5809 15.3946Z" fill="white"/>
	<path d="M18.1172 16.212C17.845 15.9398 17.3914 15.9398 17.1192 16.212C16.847 16.4841 16.847 16.9378 17.1192 17.21L17.4216 17.5124H12.5725C12.1793 17.5124 11.8668 17.825 11.8668 18.2181C11.8668 18.6113 12.1793 18.9238 12.5725 18.9238H17.4216L17.1192 19.2263C16.847 19.4985 16.847 19.9521 17.1192 20.2243C17.2603 20.3654 17.4418 20.436 17.6232 20.436C17.8047 20.436 17.9862 20.3654 18.1273 20.2243L19.6395 18.7121C19.7706 18.5811 19.8512 18.3996 19.8512 18.208C19.8512 18.0165 19.7806 17.8451 19.6395 17.704L18.1273 16.1918L18.1172 16.212Z" fill="white"/>
	<path fill-rule="evenodd" clip-rule="evenodd" d="M24.3676 15.7076C24.3676 17.1694 23.9946 18.611 23.299 19.8812V19.8913C23.299 20.0728 23.6115 21.0708 23.7829 21.6051C24.1963 22.9056 24.418 23.6113 23.9543 24.0751C23.4417 24.5977 22.5885 24.2987 21.4145 23.8873L21.4037 23.8835C21.3786 23.875 21.3524 23.866 21.3254 23.8568C20.8089 23.6809 19.9596 23.3915 19.7202 23.4298C18.5104 24.0952 17.0688 24.4682 15.5969 24.4682C10.7579 24.4682 6.82617 20.5365 6.82617 15.6975C6.82617 10.8585 10.7579 6.92676 15.5969 6.92676C20.4359 6.92676 24.3676 10.8685 24.3676 15.7076ZM22.5155 22.2639C22.4893 22.1808 22.4642 22.1012 22.4421 22.0285L22.432 22.0185C21.9985 20.6474 21.7465 19.7703 22.059 19.2058C22.6437 18.1472 22.9563 16.9274 22.9563 15.7076C22.9563 11.6448 19.6597 8.33814 15.5969 8.33814C11.5341 8.33814 8.23755 11.6347 8.23755 15.6975C8.23755 19.7603 11.5341 23.0568 15.5969 23.0568C16.8268 23.0568 18.0366 22.7544 19.1052 22.1697C19.7504 21.8168 20.7384 22.1596 21.8675 22.5528C21.945 22.5786 22.0298 22.6076 22.1179 22.6376C22.3046 22.7014 22.506 22.7702 22.6841 22.825C22.6356 22.645 22.5729 22.446 22.5155 22.2639Z" fill="white"/>
</svg>
