<svg width="24" height="24" viewBox="0 0 24 24" fill="none" xmlns="http://www.w3.org/2000/svg">
	<path fill-rule="evenodd" clip-rule="evenodd" d="M17.485 6.85158L5.80293 11.7014L8.33918 12.785C8.58331 12.8894 8.75979 13.108 8.81027 13.3686L9.6174 17.5361L11.8166 15.6497C12.1105 15.3976 12.5427 15.3922 12.8428 15.6368L15.3955 17.717L17.485 6.85158ZM17.2914 5.41606C18.1744 5.04952 19.1105 5.81218 18.93 6.75096L16.7071 18.3101C16.5357 19.2017 15.4745 19.5873 14.7707 19.0138L12.3473 17.039L9.87604 19.1588C9.35197 19.6083 8.53778 19.3246 8.40649 18.6468L7.49635 13.9474L4.37956 12.6157C3.56556 12.2679 3.5715 11.112 4.38904 10.7726L17.2914 5.41606Z" fill="white"/>
	<path fill-rule="evenodd" clip-rule="evenodd" d="M11.932 12.1975L8.40858 13.9989L7.7713 12.7523L13.667 9.73816C14.4267 9.34979 15.1854 10.2614 14.6655 10.9379L11.3178 15.2945L10.25 18.3477L8.92846 17.8855L10.0282 14.7413C10.0563 14.6609 10.0971 14.5855 10.149 14.5179L11.932 12.1975Z" fill="white"/>
</svg>
