<svg xmlns="http://www.w3.org/2000/svg" width="28" height="28" fill="none" viewBox="0 0 28 28"><path fill="#fff" d="M21.7 17.133c.451 0 .817.366.817.817v2.333a3.33 3.33 0 0 1-.8 2.188c-.525.6-1.263.963-2.059.963H7.408c-.796 0-1.533-.363-2.058-.963a3.33 3.33 0 0 1-.8-2.188V17.95a.817.817 0 1 1 1.634 0v2.333c0 .435.151.834.395 1.112.24.276.542.405.83.405h12.25c.286 0 .588-.13.828-.405.244-.278.396-.677.396-1.112V17.95c0-.45.366-.817.817-.817M13.533 4.566c.451 0 .817.366.817.817v10.596l3.272-3.273a.817.817 0 0 1 1.155 1.154L14.12 18.52a.815.815 0 0 1-1.174 0L8.29 13.86a.816.816 0 1 1 1.155-1.154l3.273 3.273V5.383c0-.451.365-.817.816-.817"/></svg>