<svg width="20" height="20" viewBox="0 0 20 20" fill="none" xmlns="http://www.w3.org/2000/svg">
	<path d="M5.4834 3.15723C5.96925 2.74838 6.62052 2.796 7.07129 3.10547C7.15312 3.16169 7.21531 3.22354 7.25488 3.26562C7.79167 3.83686 8.20202 4.29936 8.52441 4.66309C8.85322 5.03405 9.07345 5.28234 9.25 5.45215C9.2929 5.49341 9.37906 5.57678 9.44824 5.69434C9.66605 6.06453 9.69093 6.54098 9.44238 6.94336C9.21676 7.30861 8.81093 7.83275 8.13574 8.31641C8.1227 8.32575 8.11268 8.33412 8.10449 8.34082C8.09349 8.41715 8.09713 8.53744 8.13965 8.70996C8.18971 8.91297 8.28367 9.14859 8.41406 9.39844C8.67596 9.90026 9.04986 10.3964 9.375 10.7217L9.46484 10.8115C9.79009 11.1367 10.2863 11.5106 10.7881 11.7725C11.0379 11.9028 11.2736 11.9968 11.4766 12.0469C11.6491 12.0894 11.7694 12.093 11.8457 12.082C11.8524 12.0738 11.8608 12.0638 11.8701 12.0508C12.3538 11.3756 12.8779 10.9698 13.2432 10.7441C13.692 10.4669 14.2275 10.5315 14.6104 10.8174C14.6276 10.8303 14.6445 10.8437 14.6602 10.8584C15.1625 11.3293 15.8509 11.978 17.0049 13.0713C17.0244 13.0898 17.0428 13.1098 17.0596 13.1309C17.4221 13.5856 17.5028 14.2846 17.0684 14.8008C16.4113 15.5814 15.1712 16.4744 13.4062 16.4795C11.6779 16.4844 9.56672 15.637 7.12305 13.2451C7.11382 13.237 7.10452 13.2285 7.0957 13.2197L6.9668 13.0908C6.95793 13.082 6.94958 13.0728 6.94141 13.0635C4.54979 10.6194 3.72387 8.51445 3.75586 6.79102C3.78854 5.03294 4.7111 3.80728 5.4834 3.15723ZM6.29688 4.02832C6.26924 4.0285 6.25017 4.03651 6.23438 4.0498C5.6449 4.546 4.94768 5.47784 4.92285 6.8125C4.8983 8.13319 5.53008 9.98177 7.85645 12.3301C10.2054 14.6573 12.0672 15.3161 13.4023 15.3125C14.7497 15.3087 15.6866 14.63 16.1758 14.0488C16.1894 14.0325 16.1983 14.0123 16.1973 13.9814C16.1963 13.9533 16.1862 13.9174 16.1641 13.8818C15.0596 12.8356 14.3875 12.2025 13.8955 11.7412C13.8834 11.7349 13.874 11.7338 13.8691 11.7334C13.8657 11.7332 13.8623 11.7334 13.8623 11.7334C13.8616 11.7336 13.8593 11.7346 13.8564 11.7363C13.599 11.8954 13.1972 12.2016 12.8184 12.7305C12.7251 12.8606 12.5302 13.1066 12.1992 13.1982C11.8629 13.2913 11.5095 13.2569 11.1963 13.1797C10.8769 13.1009 10.5525 12.9655 10.248 12.8066C9.64127 12.4899 9.04895 12.045 8.63965 11.6357L8.55078 11.5469C8.14148 11.1376 7.69658 10.5452 7.37988 9.93848C7.22091 9.63386 7.08563 9.30876 7.00684 8.98926C6.92966 8.67615 6.89531 8.3235 6.98828 7.9873C7.07993 7.65628 7.32589 7.46144 7.45605 7.36816C7.98497 6.98929 8.29117 6.58753 8.4502 6.33008C8.45208 6.32696 8.45312 6.32422 8.45312 6.32422C8.45325 6.32362 8.45315 6.32141 8.45312 6.31934C8.45308 6.3161 8.45254 6.30951 8.44922 6.30078C8.44699 6.29859 8.44447 6.29591 8.44141 6.29297C8.22864 6.08834 7.97891 5.80699 7.6748 5.46387L7.65137 5.4375C7.32999 5.07492 6.92971 4.62254 6.40527 4.06445C6.4038 4.06289 6.4015 4.06068 6.40137 4.06055C6.36315 4.0369 6.32519 4.02817 6.29688 4.02832Z" fill="#2066b0"/>
</svg>
