<svg width="22" height="22" viewBox="0 0 22 22" fill="none" xmlns="http://www.w3.org/2000/svg">
<path fill-rule="evenodd" clip-rule="evenodd" d="M10.9854 3.3501C15.2021 3.35035 18.6201 6.76905 18.6201 10.9858C18.6199 15.2024 15.2019 18.6204 10.9854 18.6206C6.76856 18.6206 3.34986 15.2026 3.34961 10.9858C3.34961 6.7689 6.76841 3.3501 10.9854 3.3501ZM11 5.09717C7.73952 5.09723 5.09668 7.74097 5.09668 11.0015C5.09677 14.2619 7.73958 16.9047 11 16.9048C14.2605 16.9048 16.9042 14.2619 16.9043 11.0015C16.9043 7.74093 14.2605 5.09717 11 5.09717ZM13.4258 8.60498C13.6048 8.42599 13.8952 8.42599 14.0742 8.60498L14.6572 9.18799C14.8362 9.36698 14.8362 9.65744 14.6572 9.83643L10.4141 14.0796C10.2351 14.2586 9.94461 14.2586 9.76562 14.0796L7.5166 11.8306C7.33797 11.6516 7.33797 11.362 7.5166 11.1831L8.10059 10.5991C8.27952 10.4206 8.56915 10.4205 8.74805 10.5991L10.0898 11.9409L13.4258 8.60498Z" fill="#00ACE3"/>
</svg>
