<svg width="120" height="81" viewBox="0 0 120 81" fill="none" xmlns="http://www.w3.org/2000/svg">
<path fill-rule="evenodd" clip-rule="evenodd" d="M37.6106 29.1103L37.5836 17.0885L42.3962 20.004L37.6107 22.925V28.8897L52.1911 19.9949L32.4912 8V25.9859L18 17.142L18.006 40.852L32.4912 32.0156L32.494 50L52.1701 37.9961L37.6106 29.1103ZM32.5126 32.0025L34.829 33.393L32.5326 31.9903L32.5126 32.0025ZM27.6478 29.0067L23.1075 26.2335V31.7786L27.6478 29.0067ZM42.3842 38.0079L37.6106 40.9022V35.092L42.3842 38.0079ZM72.1656 34.6695C75.4616 34.6695 77.9092 32.657 77.9092 29.6061C77.9092 26.6531 76.1034 24.7359 73.0854 24.7359C71.6925 24.7359 70.5432 25.2241 69.6776 26.0665C69.8842 24.3253 71.3629 23.0541 72.9908 23.0541C73.3666 23.0541 76.1951 23.0482 76.1951 23.0482L77.7947 20C77.7947 20 74.2435 20.0805 72.5926 20.0805C68.8207 20.1459 66.2729 23.5602 66.2729 27.707C66.2729 32.538 68.7578 34.6695 72.1656 34.6695ZM72.1856 27.4357C73.4094 27.4357 74.2579 28.2365 74.2579 29.6057C74.2579 30.8381 73.504 31.8534 72.1856 31.8562C70.9246 31.8562 70.0761 30.9155 70.0761 29.6268C70.0761 28.2572 70.9246 27.4357 72.1856 27.4357ZM90.6367 24.034V34.3023H86.9547V27.0993H83.4095V34.3023H79.7275V24.0333L90.6367 24.034ZM61.1077 31.4583C62.4064 31.3638 63.2759 30.8647 63.2759 30.8647L64.6386 33.3749C63.7659 33.9331 62.334 34.2961 61.2961 34.3346C57.5829 34.4025 55 32.1523 55 28.8742C55 25.6374 57.7481 23.3337 61.2961 23.3337C62.702 23.3337 63.9107 23.7093 64.8182 24.3942C64.3226 25.2685 63.3659 27.0168 63.3659 27.0168C63.3659 27.0168 62.0585 26.3346 61.0701 26.3346C59.4583 26.3346 58.2844 27.2674 58.2844 28.8949C58.2844 30.5633 59.6147 31.5024 61.1077 31.4583Z" fill="white"/>
<mask id="mask0_9929_27545" style="mask-type:luminance" maskUnits="userSpaceOnUse" x="29" y="61" width="61" height="9">
<path d="M90 61H29V70H90V61Z" fill="white"/>
</mask>
<g mask="url(#mask0_9929_27545)">
<path d="M37.3493 68.4039C36.2616 68.4039 35.6023 67.6239 35.6023 66.6009C35.6023 65.5779 36.2646 64.8099 37.3493 64.8099C38.434 64.8099 39.0963 65.5509 39.0963 66.6009C39.0963 67.6509 38.437 68.4039 37.3493 68.4039ZM37.3493 63.2109C35.2802 63.2109 33.8887 64.6029 33.8887 66.6009C33.8887 68.5989 35.3136 69.9999 37.3493 69.9999C39.385 69.9999 40.7978 68.5689 40.7978 66.6009C40.7978 64.6329 39.4184 63.2109 37.3493 63.2109Z" fill="white"/>
<path d="M30.6832 63.3613H29V69.8533H30.6832V63.3613Z" fill="white"/>
<path d="M32.5275 63.3613L30.7987 65.6953H32.8556L34.5844 63.3613H32.5275Z" fill="white"/>
<path d="M85.9043 68.5213C85.3909 68.5213 85.0354 68.2153 85.0354 67.8613C85.0354 67.5073 85.2632 67.2943 85.719 67.2943H87.4842C87.2928 68.0143 86.6487 68.5213 85.9104 68.5213M89.0945 68.3113V65.6083C89.0945 64.3693 88.0737 63.3643 86.8128 63.3643H83.8747V64.9003H86.7156C87.1318 64.9003 87.4691 65.2333 87.4691 65.6413V65.9863H85.6916C84.1087 65.9863 83.4038 66.8803 83.4038 67.8493C83.4038 68.8183 84.3062 69.9103 85.7585 69.9103C87.2108 69.9103 87.3293 69.5083 87.7364 68.8843C87.8883 69.5233 88.4869 69.8533 89.0824 69.8533H90.003V68.3083H89.0945V68.3113Z" fill="white"/>
<path d="M74.295 66.0373C73.982 66.0043 72.9764 65.9203 72.5966 65.8693C72.1196 65.8063 71.9342 65.5813 71.9342 65.3413C71.9342 65.1013 72.1986 64.6963 73.0797 64.6963C73.9608 64.6963 74.3952 65.1553 74.4591 65.6053H75.9782C75.9782 64.4833 74.9695 63.2563 73.0645 63.2563C71.1595 63.2563 70.3027 64.2253 70.3027 65.3683C70.3027 66.5113 70.9589 67.0723 72.0132 67.2043C72.6999 67.2853 73.2194 67.3393 73.818 67.3993C74.3284 67.4503 74.4803 67.6273 74.4803 67.8643C74.4803 68.2003 74.1735 68.5243 73.1921 68.5243C72.2107 68.5243 71.7914 68.1313 71.7215 67.6483H70.2024C70.2024 68.9803 71.3964 69.9703 73.2042 69.9703C75.012 69.9703 76.118 69.0193 76.118 67.8163C76.118 66.6133 75.5316 66.1633 74.295 66.0433V66.0373Z" fill="white"/>
<path d="M80.8912 66.0373C80.5782 66.0043 79.5726 65.9203 79.1928 65.8693C78.7158 65.8063 78.5304 65.5813 78.5304 65.3413C78.5304 65.1013 78.7947 64.6963 79.6759 64.6963C80.557 64.6963 80.9914 65.1553 81.0552 65.6053H82.5744C82.5744 64.4833 81.5657 63.2563 79.6607 63.2563C77.7556 63.2563 76.8988 64.2253 76.8988 65.3683C76.8988 66.5113 77.5551 67.0723 78.6094 67.2043C79.2961 67.2853 79.8156 67.3393 80.4142 67.3993C80.9246 67.4503 81.0765 67.6273 81.0765 67.8643C81.0765 68.2003 80.7696 68.5243 79.7883 68.5243C78.8069 68.5243 78.3876 68.1313 78.3177 67.6483H76.7986C76.7986 68.9803 77.9926 69.9703 79.8004 69.9703C81.6082 69.9703 82.7142 69.0193 82.7142 67.8163C82.7142 66.6133 82.1308 66.1633 80.8912 66.0433V66.0373Z" fill="white"/>
<path d="M65.5903 68.5243C65.0769 68.5243 64.7214 68.2183 64.7214 67.8643C64.7214 67.5103 64.9523 67.2973 65.405 67.2973H67.1702C66.9788 68.0173 66.3378 68.5243 65.5964 68.5243M68.7775 65.6053C68.7775 64.3663 67.7566 63.3613 66.4957 63.3613H63.5547V64.8973H66.3955C66.8117 64.8973 67.149 65.2303 67.149 65.6383V65.9833H65.3716C63.7886 65.9833 63.0807 66.8773 63.0807 67.8463C63.0807 68.8153 63.9831 69.9073 65.4354 69.9073C66.8877 69.9073 67.0062 69.5053 67.4133 68.8813C67.5652 69.5203 68.1638 69.8503 68.7593 69.8503H69.6799V68.3053H68.7745V65.6023H68.7714L68.7775 65.6053Z" fill="white"/>
<path d="M52.3129 68.4039C51.2252 68.4039 50.5659 67.6239 50.5659 66.6009C50.5659 65.5779 51.2252 64.8099 52.3129 64.8099C53.4006 64.8099 54.0599 65.5509 54.0599 66.6009C54.0599 67.6509 53.4006 68.4039 52.3129 68.4039ZM52.3129 63.2109C50.2438 63.2109 48.8523 64.6029 48.8523 66.6009C48.8523 68.5989 50.2773 69.9999 52.3129 69.9999C54.3486 69.9999 55.7614 68.5689 55.7614 66.6009C55.7614 64.6329 54.382 63.2109 52.3129 63.2109Z" fill="white"/>
<path d="M62.7434 63.3613H60.6743L58.3014 66.5593L60.7746 69.8533H62.8497L60.3674 66.5413L62.7404 63.3613H62.7434Z" fill="white"/>
<path d="M58.1434 61H56.4602V69.853H58.1434V61Z" fill="white"/>
<path d="M44.86 68.41C43.7722 68.41 43.1099 67.63 43.1099 66.607C43.1099 65.584 43.7692 64.81 44.86 64.81C45.9507 64.81 46.61 65.554 46.61 66.607C46.61 67.66 45.9507 68.41 44.86 68.41ZM45.0119 63.211C44.228 63.211 43.5535 63.481 43.1008 63.898V61H41.4084V66.523C41.4084 68.635 42.7635 70 44.8782 70C46.9928 70 48.3054 68.56 48.3054 66.586C48.3054 64.612 47.0384 63.211 45.0119 63.211Z" fill="white"/>
</g>
</svg>
