<svg width="66" height="51" viewBox="0 0 66 51" fill="none" xmlns="http://www.w3.org/2000/svg">
<path fill-rule="evenodd" clip-rule="evenodd" d="M43.238 9.68996C44.7084 9.68996 45.9004 10.882 45.9004 12.3524V29.2125C45.9004 30.6829 44.7084 31.8749 43.238 31.8749H17.6624C16.192 31.8749 15 30.6829 15 29.2125V12.3524C15 10.882 16.192 9.68996 17.6624 9.68996H43.238ZM43.4623 19.9901H17.4371L17.4379 28.4192C17.4379 28.8743 17.7805 29.2494 18.2219 29.3007L18.3254 29.3066H42.5752C43.0303 29.3066 43.4055 28.964 43.4567 28.5227L43.4627 28.4192L43.4623 19.9901ZM33.9743 0.131027L58.2981 8.03432C59.6965 8.4887 60.4619 9.99072 60.0075 11.3892L54.7974 27.4241C54.343 28.8225 52.841 29.5878 51.4426 29.1334L49.0695 28.3619V25.6622L51.6058 26.486C52.0386 26.6266 52.5013 26.4167 52.6864 26.0128L52.7241 25.9162L55.3284 17.8995L49.0695 15.8663V11.6996L56.5527 14.1317L57.4438 11.3904C57.5953 10.9242 57.3401 10.4236 56.874 10.2721L33.811 2.77849C33.3782 2.63785 32.9156 2.84777 32.7304 3.2517L32.6928 3.34829L31.8012 6.08949L35.5674 7.31279H28.8404L30.6194 1.84041C31.0738 0.44196 32.5758 -0.323356 33.9743 0.131027ZM25.043 22.1664V27.1034H20.106V22.1664H25.043ZM42.5752 12.2584H18.3254C17.8703 12.2584 17.4951 12.601 17.4439 13.0423L17.4379 13.1458L17.4371 16.0284H43.4623L43.4627 13.1458C43.4627 12.6557 43.0654 12.2584 42.5752 12.2584Z" fill="white"/>
<mask id="mask0_9929_27447" style="mask-type:luminance" maskUnits="userSpaceOnUse" x="0" y="39" width="66" height="10">
<path d="M66 39H0V48.7377H66V39Z" fill="white"/>
</mask>
<g mask="url(#mask0_9929_27447)">
<path d="M9.03365 47.0103C7.85678 47.0103 7.14343 46.1663 7.14343 45.0595C7.14343 43.9526 7.86007 43.1217 9.03365 43.1217C10.2072 43.1217 10.9239 43.9234 10.9239 45.0595C10.9239 46.1955 10.2105 47.0103 9.03365 47.0103ZM9.03365 41.3916C6.79497 41.3916 5.28937 42.8977 5.28937 45.0595C5.28937 47.2212 6.83113 48.7371 9.03365 48.7371C11.2362 48.7371 12.7648 47.1888 12.7648 45.0595C12.7648 42.9302 11.2723 41.3916 9.03365 41.3916Z" fill="white"/>
<path d="M1.82119 41.5542H0V48.5783H1.82119V41.5542Z" fill="white"/>
<path d="M3.81661 41.5542L1.94611 44.0795H4.17164L6.04214 41.5542H3.81661Z" fill="white"/>
<path d="M61.5686 47.1378C61.0131 47.1378 60.6285 46.8067 60.6285 46.4237C60.6285 46.0407 60.875 45.8102 61.3681 45.8102H63.2781C63.071 46.5893 62.374 47.1378 61.5752 47.1378M65.0204 46.9106V43.986C65.0204 42.6455 63.9158 41.5581 62.5516 41.5581H59.3727V43.22H62.4464C62.8967 43.22 63.2616 43.5803 63.2616 44.0217V44.395H61.3385C59.6258 44.395 58.8632 45.3623 58.8632 46.4107C58.8632 47.4592 59.8395 48.6407 61.4109 48.6407C62.9822 48.6407 63.1104 48.2057 63.5509 47.5306C63.7153 48.2219 64.3629 48.579 65.0072 48.579H66.0033V46.9074H65.0204V46.9106Z" fill="white"/>
<path d="M49.0077 44.4504C48.6691 44.4147 47.581 44.3238 47.1701 44.2686C46.654 44.2004 46.4534 43.957 46.4534 43.6973C46.4534 43.4376 46.7394 42.9994 47.6928 42.9994C48.6461 42.9994 49.1162 43.4961 49.1852 43.9829H50.8289C50.8289 42.769 49.7375 41.4414 47.6763 41.4414C45.6152 41.4414 44.6881 42.4898 44.6881 43.7265C44.6881 44.9632 45.3982 45.5702 46.5389 45.713C47.2818 45.8007 47.844 45.8591 48.4916 45.924C49.0439 45.9792 49.2082 46.1707 49.2082 46.4271C49.2082 46.7907 48.8762 47.1412 47.8144 47.1412C46.7526 47.1412 46.2989 46.716 46.2233 46.1934H44.5797C44.5797 47.6346 45.8716 48.7057 47.8275 48.7057C49.7835 48.7057 50.9801 47.6768 50.9801 46.3752C50.9801 45.0736 50.3457 44.5867 49.0077 44.4568V44.4504Z" fill="white"/>
<path d="M56.1445 44.4504C55.8059 44.4147 54.7178 44.3238 54.3069 44.2686C53.7907 44.2004 53.5902 43.957 53.5902 43.6973C53.5902 43.4376 53.8762 42.9994 54.8295 42.9994C55.7829 42.9994 56.253 43.4961 56.322 43.9829H57.9657C57.9657 42.769 56.8743 41.4414 54.8131 41.4414C52.7519 41.4414 51.8249 42.4898 51.8249 43.7265C51.8249 44.9632 52.535 45.5702 53.6757 45.713C54.4186 45.8007 54.9808 45.8591 55.6284 45.924C56.1806 45.9792 56.345 46.1707 56.345 46.4271C56.345 46.7907 56.013 47.1412 54.9512 47.1412C53.8894 47.1412 53.4357 46.716 53.3601 46.1934H51.7164C51.7164 47.6346 53.0084 48.7057 54.9643 48.7057C56.9203 48.7057 58.1169 47.6768 58.1169 46.3752C58.1169 45.0736 57.4857 44.5867 56.1445 44.4568V44.4504Z" fill="white"/>
<path d="M39.5896 47.1404C39.034 47.1404 38.6494 46.8093 38.6494 46.4263C38.6494 46.0433 38.8992 45.8128 39.389 45.8128H41.299C41.0919 46.5918 40.3982 47.1404 39.5961 47.1404M43.038 43.9821C43.038 42.6416 41.9334 41.5542 40.5692 41.5542H37.387V43.2161H40.4607C40.9111 43.2161 41.276 43.5764 41.276 44.0178V44.3911H39.3529C37.6402 44.3911 36.8742 45.3584 36.8742 46.4068C36.8742 47.4552 37.8505 48.6368 39.4219 48.6368C40.9932 48.6368 41.1215 48.2018 41.562 47.5267C41.7263 48.218 42.3739 48.5751 43.0183 48.5751H44.0143V46.9034H43.0347V43.9789H43.0314L43.038 43.9821Z" fill="white"/>
<path d="M25.2238 47.0103C24.0469 47.0103 23.3336 46.1663 23.3336 45.0595C23.3336 43.9526 24.0469 43.1217 25.2238 43.1217C26.4006 43.1217 27.114 43.9234 27.114 45.0595C27.114 46.1955 26.4006 47.0103 25.2238 47.0103ZM25.2238 41.3916C22.9851 41.3916 21.4795 42.8977 21.4795 45.0595C21.4795 47.2212 23.0213 48.7371 25.2238 48.7371C27.4263 48.7371 28.9549 47.1888 28.9549 45.0595C28.9549 42.9302 27.4625 41.3916 25.2238 41.3916Z" fill="white"/>
\<path d="M36.5092 41.5542H34.2705L31.7031 45.0143L34.379 48.5783H36.6243L33.9385 44.9949L36.5059 41.5542H36.5092Z" fill="white"/>
<path d="M31.5322 39H29.7111V48.5787H31.5322V39Z" fill="white"/>
<path d="M17.16 47.0174C15.9832 47.0174 15.2665 46.1734 15.2665 45.0666C15.2665 43.9597 15.9799 43.1223 17.16 43.1223C18.3402 43.1223 19.0535 43.9273 19.0535 45.0666C19.0535 46.2059 18.3402 47.0174 17.16 47.0174ZM17.3244 41.3922C16.4763 41.3922 15.7465 41.6844 15.2566 42.1355V39H13.4256V44.9757C13.4256 47.2608 14.8918 48.7377 17.1797 48.7377C19.4677 48.7377 20.8879 47.1797 20.8879 45.0439C20.8879 42.9081 19.517 41.3922 17.3244 41.3922Z" fill="white"/>
</g>
</svg>
