<svg width="120" height="81" viewBox="0 0 120 81" fill="none" xmlns="http://www.w3.org/2000/svg">
<path d="M15 16.7949L20.4723 26.5355V32.477L15.0064 42.1985L15 16.7949Z" fill="#5B57A2"/>
<path d="M36.0115 22.9911L41.1392 19.8613L51.6334 19.8516L36.0115 29.3818V22.9911Z" fill="#D90751"/>
<path d="M35.9825 16.7376L36.0115 29.6339L30.5264 26.2776V7L35.9825 16.7376Z" fill="#FAB718"/>
<path d="M51.6334 19.8516L41.1388 19.8614L35.9825 16.7376L30.5264 7L51.6334 19.8516Z" fill="#ED6F26"/>
<path d="M36.0115 42.2529V35.9961L30.5264 32.7036L30.5294 52.0003L36.0115 42.2529Z" fill="#63B22F"/>
<path d="M41.1264 39.1513L20.4719 26.5355L15 16.7949L51.6112 39.1385L41.1264 39.1513Z" fill="#1487C9"/>
<path d="M30.5298 52L36.0111 42.2527L41.1261 39.1514L51.6109 39.1387L30.5298 52Z" fill="#017F36"/>
<path d="M15.0063 42.1986L30.5711 32.7036L25.3383 29.5063L20.4722 32.4771L15.0063 42.1986Z" fill="#984995"/>
<path d="M94.3519 23.7689V34.7706H90.407V27.0531H86.6085V34.7706H82.6636V23.7681L94.3519 23.7689Z" fill="black"/>
<path fill-rule="evenodd" clip-rule="evenodd" d="M74.5618 35.1642C78.0933 35.1642 80.7157 33.0079 80.7157 29.739C80.7157 26.5752 78.7809 24.5209 75.5473 24.5209C74.055 24.5209 72.8236 25.044 71.8961 25.9467C72.1175 24.081 73.7018 22.719 75.446 22.719C75.8486 22.719 78.8792 22.7127 78.8792 22.7127L80.593 19.4468C80.593 19.4468 76.7881 19.533 75.0194 19.533C70.978 19.6032 68.2483 23.2613 68.2483 27.7043C68.2483 32.8804 70.9106 35.1642 74.5618 35.1642ZM74.5833 27.4137C75.8945 27.4137 76.8036 28.2717 76.8036 29.7387C76.8036 31.059 75.9958 32.1469 74.5833 32.1499C73.2322 32.1499 72.3231 31.1419 72.3231 29.7612C72.3231 28.2938 73.2322 27.4137 74.5833 27.4137Z" fill="black"/>
<path d="M65.0372 31.0874C65.0372 31.0874 64.1056 31.6222 62.7142 31.7234C61.1145 31.7707 59.6892 30.7646 59.6892 28.9769C59.6892 27.2332 60.9469 26.2338 62.6739 26.2338C63.7328 26.2338 65.1336 26.9647 65.1336 26.9647C65.1336 26.9647 66.1587 25.0916 66.6896 24.1548C65.7173 23.4209 64.4223 23.0186 62.916 23.0186C59.1146 23.0186 56.1702 25.4868 56.1702 28.9548C56.1702 32.4671 58.9376 34.8779 62.916 34.8052C64.028 34.7639 65.5622 34.3751 66.4972 33.7769L65.0372 31.0874Z" fill="black"/>
<mask id="mask0_9929_27473" style="mask-type:luminance" maskUnits="userSpaceOnUse" x="29" y="61" width="61" height="9">
<path d="M90 61H29V70H90V61Z" fill="white"/>
</mask>
<g mask="url(#mask0_9929_27473)">
<path d="M37.3493 68.4039C36.2616 68.4039 35.6023 67.6239 35.6023 66.6009C35.6023 65.5779 36.2646 64.8099 37.3493 64.8099C38.434 64.8099 39.0963 65.5509 39.0963 66.6009C39.0963 67.6509 38.437 68.4039 37.3493 68.4039ZM37.3493 63.2109C35.2802 63.2109 33.8887 64.6029 33.8887 66.6009C33.8887 68.5989 35.3136 69.9999 37.3493 69.9999C39.385 69.9999 40.7978 68.5689 40.7978 66.6009C40.7978 64.6329 39.4184 63.2109 37.3493 63.2109Z" fill="black"/>
<path d="M30.6832 63.3613H29V69.8533H30.6832V63.3613Z" fill="black"/>
<path d="M32.5275 63.3613L30.7987 65.6953H32.8556L34.5844 63.3613H32.5275Z" fill="black"/>
<path d="M85.9043 68.5213C85.3909 68.5213 85.0354 68.2153 85.0354 67.8613C85.0354 67.5073 85.2632 67.2943 85.719 67.2943H87.4842C87.2928 68.0143 86.6487 68.5213 85.9104 68.5213M89.0945 68.3113V65.6083C89.0945 64.3693 88.0737 63.3643 86.8128 63.3643H83.8747V64.9003H86.7156C87.1318 64.9003 87.4691 65.2333 87.4691 65.6413V65.9863H85.6916C84.1087 65.9863 83.4038 66.8803 83.4038 67.8493C83.4038 68.8183 84.3062 69.9103 85.7585 69.9103C87.2108 69.9103 87.3293 69.5083 87.7364 68.8843C87.8883 69.5233 88.4869 69.8533 89.0824 69.8533H90.003V68.3083H89.0945V68.3113Z" fill="black"/>
<path d="M74.295 66.0373C73.982 66.0043 72.9764 65.9203 72.5966 65.8693C72.1196 65.8063 71.9342 65.5813 71.9342 65.3413C71.9342 65.1013 72.1986 64.6963 73.0797 64.6963C73.9608 64.6963 74.3952 65.1553 74.4591 65.6053H75.9782C75.9782 64.4833 74.9695 63.2563 73.0645 63.2563C71.1595 63.2563 70.3027 64.2253 70.3027 65.3683C70.3027 66.5113 70.9589 67.0723 72.0132 67.2043C72.6999 67.2853 73.2194 67.3393 73.818 67.3993C74.3284 67.4503 74.4803 67.6273 74.4803 67.8643C74.4803 68.2003 74.1735 68.5243 73.1921 68.5243C72.2107 68.5243 71.7914 68.1313 71.7215 67.6483H70.2024C70.2024 68.9803 71.3964 69.9703 73.2042 69.9703C75.012 69.9703 76.118 69.0193 76.118 67.8163C76.118 66.6133 75.5316 66.1633 74.295 66.0433V66.0373Z" fill="black"/>
<path d="M80.8912 66.0373C80.5782 66.0043 79.5726 65.9203 79.1928 65.8693C78.7158 65.8063 78.5304 65.5813 78.5304 65.3413C78.5304 65.1013 78.7947 64.6963 79.6759 64.6963C80.557 64.6963 80.9914 65.1553 81.0552 65.6053H82.5744C82.5744 64.4833 81.5657 63.2563 79.6607 63.2563C77.7556 63.2563 76.8988 64.2253 76.8988 65.3683C76.8988 66.5113 77.5551 67.0723 78.6094 67.2043C79.2961 67.2853 79.8156 67.3393 80.4142 67.3993C80.9246 67.4503 81.0765 67.6273 81.0765 67.8643C81.0765 68.2003 80.7696 68.5243 79.7883 68.5243C78.8069 68.5243 78.3876 68.1313 78.3177 67.6483H76.7986C76.7986 68.9803 77.9926 69.9703 79.8004 69.9703C81.6082 69.9703 82.7142 69.0193 82.7142 67.8163C82.7142 66.6133 82.1308 66.1633 80.8912 66.0433V66.0373Z" fill="black"/>
<path d="M65.5903 68.5243C65.0769 68.5243 64.7214 68.2183 64.7214 67.8643C64.7214 67.5103 64.9523 67.2973 65.405 67.2973H67.1702C66.9788 68.0173 66.3378 68.5243 65.5964 68.5243M68.7775 65.6053C68.7775 64.3663 67.7566 63.3613 66.4957 63.3613H63.5547V64.8973H66.3955C66.8117 64.8973 67.149 65.2303 67.149 65.6383V65.9833H65.3716C63.7886 65.9833 63.0807 66.8773 63.0807 67.8463C63.0807 68.8153 63.9831 69.9073 65.4354 69.9073C66.8877 69.9073 67.0062 69.5053 67.4133 68.8813C67.5652 69.5203 68.1638 69.8503 68.7593 69.8503H69.6799V68.3053H68.7745V65.6023H68.7714L68.7775 65.6053Z" fill="black"/>
<path d="M52.3129 68.4039C51.2252 68.4039 50.5659 67.6239 50.5659 66.6009C50.5659 65.5779 51.2252 64.8099 52.3129 64.8099C53.4006 64.8099 54.0599 65.5509 54.0599 66.6009C54.0599 67.6509 53.4006 68.4039 52.3129 68.4039ZM52.3129 63.2109C50.2438 63.2109 48.8523 64.6029 48.8523 66.6009C48.8523 68.5989 50.2773 69.9999 52.3129 69.9999C54.3486 69.9999 55.7614 68.5689 55.7614 66.6009C55.7614 64.6329 54.382 63.2109 52.3129 63.2109Z" fill="black"/>
<path d="M62.7434 63.3613H60.6743L58.3014 66.5593L60.7746 69.8533H62.8497L60.3674 66.5413L62.7404 63.3613H62.7434Z" fill="black"/>
<path d="M58.1434 61H56.4602V69.853H58.1434V61Z" fill="black"/>
<path d="M44.86 68.41C43.7722 68.41 43.1099 67.63 43.1099 66.607C43.1099 65.584 43.7692 64.81 44.86 64.81C45.9507 64.81 46.61 65.554 46.61 66.607C46.61 67.66 45.9507 68.41 44.86 68.41ZM45.0119 63.211C44.228 63.211 43.5535 63.481 43.1008 63.898V61H41.4084V66.523C41.4084 68.635 42.7635 70 44.8782 70C46.9928 70 48.3054 68.56 48.3054 66.586C48.3054 64.612 47.0384 63.211 45.0119 63.211Z" fill="black"/>
</g>
</svg>
