<svg xmlns="http://www.w3.org/2000/svg" width="24" height="24" fill="none"><path fill="#333333" d="M17.01 13.54a.7.7 0 0 1 .7.7v1.8h1.8a.7.7 0 0 1 0 1.4h-1.8v1.8a.7.7 0 0 1-1.4 0v-1.8h-1.8a.7.7 0 0 1 0-1.4h1.8v-1.8a.7.7 0 0 1 .7-.7"/><path fill="#333333" fill-rule="evenodd" d="M18.001 5.897a2.1 2.1 0 0 1 2.1 2.101V12a.701.701 0 0 1-1.4 0V8.4l-5.58 4.555a1.8 1.8 0 0 1-2.293-.014L5.301 8.318v7.684a.7.7 0 0 0 .7.7h5.367a.7.7 0 0 1 0 1.4H6.001c-1.16 0-2.101-.94-2.102-2.1V7.998c0-1.16.942-2.1 2.102-2.1zm-6.275 5.97a.4.4 0 0 0 .51.004l5.602-4.573H6.263z" clip-rule="evenodd"/></svg>
