<svg xmlns="http://www.w3.org/2000/svg" width="24" height="24" fill="none"><path fill="#333" fill-rule="evenodd" d="M12 8.451a3.549 3.549 0 1 1-.001 7.097A3.549 3.549 0 0 1 12 8.451Zm0 1.4a2.149 2.149 0 1 0 0 4.298 2.149 2.149 0 0 0 0-4.297Z" clip-rule="evenodd"/><path fill="#333" fill-rule="evenodd" d="M15.752 4.048a4.2 4.2 0 0 1 4.2 4.2v7.504a4.2 4.2 0 0 1-4.2 4.2H8.248a4.2 4.2 0 0 1-4.2-4.2V8.248a4.2 4.2 0 0 1 4.2-4.2h7.504Zm-7.504 1.4a2.8 2.8 0 0 0-2.8 2.8v7.504a2.8 2.8 0 0 0 2.8 2.8h7.504a2.8 2.8 0 0 0 2.8-2.8V8.248a2.8 2.8 0 0 0-2.8-2.8H8.248Z" clip-rule="evenodd"/></svg>