<svg width="24" height="24" viewBox="0 0 24 24" fill="none" xmlns="http://www.w3.org/2000/svg">
<path d="M17.0146 4.96777C18.3762 5.106 19.4385 6.25629 19.4385 7.6543C19.4385 7.79045 19.2992 7.88229 19.1738 7.8291L18.3213 7.46777C18.2575 7.44072 18.2129 7.38192 18.1973 7.31445C18.0433 6.64989 17.4497 6.1543 16.7383 6.1543H7.15918C6.33075 6.1543 5.65918 6.82587 5.65918 7.6543V16.2998C5.65939 17.1281 6.33088 17.7998 7.15918 17.7998H16.7383C17.0638 17.7998 17.3647 17.695 17.6104 17.5186C17.6598 17.4832 17.7218 17.4676 17.7812 17.4805L17.8311 17.4912L18.7959 17.5732C18.9401 17.5856 19.0222 17.7423 18.9385 17.8604C18.4997 18.4784 17.8091 18.9047 17.0146 18.9854L16.7383 18.999H7.15918L6.88281 18.9854C5.61204 18.8562 4.60157 17.846 4.47266 16.5752L4.45898 16.2998V7.6543C4.45898 6.25636 5.52136 5.10608 6.88281 4.96777L7.15918 4.9541H16.7383L17.0146 4.96777Z" fill="#909090"/>
<path fill-rule="evenodd" clip-rule="evenodd" d="M14.5762 8.0498C14.748 7.87798 15.0061 7.82662 15.2305 7.91992L22.2363 10.8389L22.3184 10.8809C22.5002 10.992 22.6121 11.1935 22.6055 11.4111C22.5987 11.6288 22.4746 11.8231 22.2861 11.9229L22.2012 11.96L19.4414 12.915L18.4863 15.6748C18.4049 15.91 18.1863 16.0714 17.9375 16.0791C17.7199 16.0858 17.5184 15.9738 17.4072 15.792L17.3652 15.71L14.4463 8.7041C14.353 8.47975 14.4043 8.22163 14.5762 8.0498ZM17.8662 13.7939L18.4023 12.2471L18.4287 12.1836C18.4976 12.0402 18.6214 11.9286 18.7734 11.876L20.3203 11.3398L16.1133 9.58691L17.8662 13.7939Z" fill="#909090"/>
<path d="M14.0889 13.665C14.3622 13.721 14.5684 13.963 14.5684 14.2529C14.5684 14.5428 14.3622 14.7848 14.0889 14.8408L13.9688 14.8525H8.54785C8.21648 14.8525 7.94824 14.5843 7.94824 14.2529C7.94824 13.9216 8.21648 13.6533 8.54785 13.6533H13.9688L14.0889 13.665Z" fill="#909090"/>
<path d="M12.7344 10.167C13.0074 10.2232 13.2129 10.4652 13.2129 10.7549C13.2129 11.0446 13.0074 11.2865 12.7344 11.3428L12.6133 11.3545H8.54785C8.21648 11.3545 7.94824 11.0863 7.94824 10.7549C7.94824 10.4235 8.21648 10.1553 8.54785 10.1553H12.6133L12.7344 10.167Z" fill="#909090"/>
</svg>
