<svg width="24" height="24" viewBox="0 0 24 24" fill="none" xmlns="http://www.w3.org/2000/svg">
<path d="M16.5654 13.082C16.8968 13.082 17.165 13.3503 17.165 13.6816V15.916H19.3994C19.7308 15.916 19.999 16.1843 19.999 16.5156C19.999 16.847 19.7308 17.1152 19.3994 17.1152H17.165V19.3496C17.165 19.6809 16.8968 19.9492 16.5654 19.9492C16.2341 19.9492 15.9659 19.6809 15.9658 19.3496V17.1152H13.7314C13.4001 17.1152 13.1319 16.847 13.1318 16.5156C13.1319 16.1843 13.4001 15.916 13.7314 15.916H15.9658V13.6816C15.9658 13.3503 16.2341 13.082 16.5654 13.082Z" fill="#15C674"/>
<path fill-rule="evenodd" clip-rule="evenodd" d="M11.9961 4.32227C13.9653 4.32231 15.7768 4.66287 17.1182 5.2373C17.7876 5.52403 18.3675 5.88089 18.7891 6.30762C19.0857 6.60798 19.3149 6.95958 19.4277 7.35254C19.4788 7.44077 19.5097 7.542 19.5098 7.65137V11.8428C19.1372 11.61 18.7352 11.4204 18.3105 11.2803V9.86035C17.9655 10.112 17.562 10.3343 17.1182 10.5244C15.7768 11.0988 13.9653 11.4404 11.9961 11.4404C10.0268 11.4404 8.21545 11.0988 6.87402 10.5244C6.42639 10.3327 6.02002 10.1078 5.67285 9.85352V11.8828H5.68555C5.68555 12.0883 5.78048 12.3347 6.05566 12.6133C6.33336 12.8944 6.76505 13.1751 7.3457 13.4238C8.4029 13.8766 9.86325 14.1807 11.5127 14.2314C11.3393 14.6061 11.205 15.0028 11.1182 15.417C9.49194 15.3319 8.0134 15.0143 6.87402 14.5264C6.42639 14.3347 6.02002 14.1097 5.67285 13.8555V15.8818H5.68555C5.68555 16.0873 5.78056 16.3337 6.05566 16.6123C6.33334 16.8934 6.76511 17.1742 7.3457 17.4229C8.34641 17.8514 9.7084 18.148 11.25 18.2217C11.3839 18.6518 11.5694 19.0592 11.7979 19.4375C9.90554 19.4154 8.17028 19.0805 6.87402 18.5254C6.20443 18.2386 5.62371 17.8819 5.20215 17.4551C4.82644 17.0746 4.55513 16.6134 4.49805 16.0879C4.4832 16.0356 4.47363 15.9809 4.47363 15.9238V7.65137C4.47365 7.53049 4.50984 7.41833 4.57129 7.32422C4.6867 6.94259 4.91256 6.60082 5.20215 6.30762C5.62374 5.88076 6.20437 5.52408 6.87402 5.2373C8.21544 4.66291 10.0269 4.32227 11.9961 4.32227ZM11.9961 5.52148C10.1493 5.52148 8.50511 5.84333 7.3457 6.33984C6.76506 6.58851 6.33337 6.86926 6.05566 7.15039C5.78052 7.42897 5.68558 7.67538 5.68555 7.88086C5.68555 8.08636 5.78048 8.33271 6.05566 8.61133C6.33335 8.89248 6.76503 9.17318 7.3457 9.42188C8.50511 9.91839 10.1493 10.2402 11.9961 10.2402C13.8428 10.2402 15.4862 9.91835 16.6455 9.42188C17.2262 9.1732 17.6578 8.89247 17.9355 8.61133C18.2107 8.33271 18.3057 8.08636 18.3057 7.88086C18.3056 7.67538 18.2107 7.42897 17.9355 7.15039C17.6578 6.86929 17.2261 6.58849 16.6455 6.33984C15.4862 5.84339 13.8427 5.52153 11.9961 5.52148Z" fill="#15C674"/>
</svg>
