<svg width="24" height="24" viewBox="0 0 24 24" fill="none" xmlns="http://www.w3.org/2000/svg">
<path fill-rule="evenodd" clip-rule="evenodd" d="M12.1681 4.02148C12.4081 4.02145 12.6253 4.16423 12.7199 4.38477C12.8144 4.60535 12.7682 4.86137 12.6027 5.03516C10.9522 6.76836 9.97536 9.02474 9.82926 11.4004H12.3683C12.6996 11.4006 12.9689 11.6687 12.9689 12C12.9689 12.3313 12.6996 12.5994 12.3683 12.5996H9.82633C9.95064 14.7744 10.7724 16.8504 12.1691 18.5205C13.0538 17.4622 13.7142 16.235 14.1076 14.9141L14.6818 15.0859L15.257 15.2568C14.891 16.486 14.3182 17.6421 13.5666 18.6777C14.699 18.4401 15.7541 17.918 16.63 17.1572C17.3693 16.5152 17.9588 15.7233 18.3615 14.8379L18.423 14.7324C18.587 14.5068 18.8926 14.4193 19.1564 14.5391C19.458 14.6762 19.5913 15.0324 19.4543 15.334L19.2658 15.7197C18.8038 16.6062 18.1781 17.4025 17.4172 18.0635C16.3008 19.033 14.9374 19.6742 13.4787 19.916C13.0485 19.9873 12.6144 20.0218 12.1818 20.0225C12.1774 20.0226 12.1726 20.0244 12.1681 20.0244C12.1637 20.0243 12.1589 20.0226 12.1545 20.0225C11.1294 20.0204 10.1095 19.8233 9.15251 19.4336C7.78305 18.8759 6.59483 17.9489 5.71989 16.7568C4.845 15.5648 4.31696 14.1533 4.19548 12.6797C4.07404 11.2061 4.36355 9.72739 5.03141 8.4082C5.69932 7.08901 6.72004 5.98048 7.97966 5.20605C9.23933 4.43168 10.6895 4.02193 12.1681 4.02148ZM5.39372 12.5996C5.49987 13.8456 5.94763 15.0386 6.68766 16.0469C7.43137 17.06 8.44163 17.8473 9.60563 18.3213C9.98398 18.4753 10.3742 18.5934 10.7707 18.6768C9.48602 16.9066 8.73751 14.7968 8.62516 12.5996H5.39372ZM10.7707 5.36621C10.0092 5.52634 9.27736 5.8174 8.60856 6.22852C7.53784 6.8868 6.66947 7.82883 6.10173 8.9502C5.71289 9.71826 5.4756 10.5501 5.39762 11.4004H8.62712C8.74724 9.21871 9.49419 7.12458 10.7707 5.36621Z" fill="#909090"/>
<path d="M14.8537 14.5107C15.1711 14.6054 15.3515 14.9394 15.257 15.2568L14.1076 14.9141C14.2023 14.5969 14.5364 14.4164 14.8537 14.5107Z" fill="#909090"/>
<path fill-rule="evenodd" clip-rule="evenodd" d="M16.5998 4.55664C16.8113 3.9854 17.5823 3.95007 17.8634 4.4502L17.9132 4.55664L18.3976 5.86523C18.6408 6.52197 19.1588 7.04017 19.8156 7.2832L21.1242 7.76758C21.7327 7.99346 21.7328 8.85532 21.1242 9.08105L19.8156 9.56543C19.1587 9.80851 18.6407 10.3265 18.3976 10.9834L17.9132 12.292C17.6876 12.9009 16.8256 12.9006 16.5998 12.292L16.1154 10.9834C15.8724 10.3266 15.3541 9.80859 14.6974 9.56543L13.3888 9.08105C12.7796 8.85547 12.7797 7.99318 13.3888 7.76758L14.6974 7.2832C15.3542 7.04008 15.8723 6.52201 16.1154 5.86523L16.5998 4.55664ZM17.2414 6.28223C16.8768 7.26738 16.0995 8.04451 15.1144 8.40918L15.0734 8.42383L15.1144 8.43945C16.0995 8.80417 16.8768 9.58124 17.2414 10.5664L17.256 10.6064L17.2716 10.5664C17.6363 9.58107 18.4133 8.80408 19.3986 8.43945L19.4386 8.42383L19.3986 8.40918C18.4134 8.04461 17.6364 7.26735 17.2716 6.28223L17.256 6.24121L17.2414 6.28223Z" fill="#909090"/>
</svg>
