<svg width="24" height="24" viewBox="0 0 24 24" fill="none" xmlns="http://www.w3.org/2000/svg">
<path d="M5.76562 15.2462H7.67773C8.00906 15.2462 8.27727 15.5145 8.27734 15.8458C8.27734 16.1772 8.00911 16.4454 7.67773 16.4454H6.90332C7.09013 16.6607 7.29026 16.8669 7.50391 17.0616L7.72363 17.254C8.75175 18.1194 9.87301 18.6264 11.1055 18.7716C12.3429 18.9173 13.7333 18.7022 15.3008 18.0607L15.417 18.0265C15.6912 17.9747 15.9742 18.1205 16.084 18.3888C16.2092 18.6952 16.0621 19.0453 15.7559 19.171L15.4365 19.298C13.8469 19.9033 12.356 20.1278 10.9648 19.964C9.47621 19.7886 8.14013 19.1728 6.95117 18.172L6.69629 17.9474C6.44005 17.7138 6.20053 17.4661 5.97754 17.2071V18.1495L5.96582 18.2696C5.91007 18.5433 5.668 18.7491 5.37793 18.7491C5.08782 18.7491 4.84582 18.5433 4.79004 18.2696L4.77734 18.1495V15.8458C4.77742 15.5145 5.0466 15.2462 5.37793 15.2462H5.66504C5.69874 15.2435 5.7322 15.2433 5.76562 15.2462Z" fill="#909090"/>
<path d="M15.0381 5.3175C15.1745 5.06153 15.4706 4.94418 15.7383 5.02355L15.8496 5.07043L16.1289 5.22668C17.5039 6.04507 18.594 7.3469 19.2676 8.79797C19.9854 10.3447 20.2539 12.1135 19.8438 13.7169L19.7529 14.0441C19.6421 14.4154 19.5039 14.7747 19.3467 15.1222L20.0977 14.8341L20.2158 14.8019C20.4909 14.7561 20.7689 14.9085 20.873 15.1788C20.9769 15.4492 20.8725 15.7482 20.6377 15.8986L20.5293 15.9542L18.3789 16.7814C18.0698 16.9002 17.7236 16.7455 17.6045 16.4366L16.7773 14.2902C16.6583 13.9809 16.8128 13.6338 17.1221 13.5148C17.4313 13.3958 17.7784 13.5503 17.8975 13.8595L18.2207 14.7003C18.37 14.3793 18.5005 14.0465 18.6035 13.7013L18.6816 13.42C19.0098 12.1371 18.8061 10.6526 18.1797 9.30285C17.5929 8.03873 16.6553 6.93719 15.5166 6.2589L15.2861 6.12902L15.1855 6.06164C14.9705 5.88382 14.902 5.57339 15.0381 5.3175Z" fill="#909090"/>
<path fill-rule="evenodd" clip-rule="evenodd" d="M11.9414 9.56066C12.2791 8.96095 13.1653 8.96095 13.5029 9.56066L13.5664 9.69836L13.9551 10.7482C14.0867 11.1038 14.367 11.3841 14.7227 11.5157L15.7725 11.9044C16.5069 12.1763 16.5528 13.1677 15.9102 13.5294L15.7725 13.5929L14.7227 13.9816C14.4115 14.0968 14.1575 14.3255 14.0107 14.6193L13.9551 14.7491L13.5664 15.7989C13.2945 16.5334 12.3031 16.5793 11.9414 15.9366L11.8779 15.7989L11.4893 14.7491C11.374 14.4379 11.1453 14.184 10.8516 14.0372L10.7217 13.9816L9.67188 13.5929C8.88857 13.3028 8.88854 12.1944 9.67188 11.9044L10.7217 11.5157C11.0773 11.3841 11.3576 11.1038 11.4893 10.7482L11.8779 9.69836L11.9414 9.56066ZM12.7217 11.4259C12.4526 12.0103 11.9838 12.479 11.3994 12.7482C11.9837 13.0171 12.4524 13.4863 12.7217 14.0704C12.9908 13.4864 13.4599 13.0172 14.0439 12.7482C13.4598 12.4789 12.9906 12.0102 12.7217 11.4259Z" fill="#909090"/>
<path d="M10.0762 2.84972C10.2624 2.6278 10.575 2.5737 10.8203 2.70617L10.9209 2.77453L12.6865 4.25597C12.9227 4.45417 12.9644 4.794 12.7979 5.04504C12.7543 5.15099 12.6806 5.23967 12.5889 5.3048L11.2812 6.86437C11.0682 7.11818 10.6904 7.15061 10.4365 6.93761C10.1828 6.72459 10.1493 6.34669 10.3623 6.09289L10.8662 5.4923C10.653 5.52354 10.4395 5.56102 10.2275 5.61144L9.94434 5.68469C9.07183 5.92913 8.28453 6.36447 7.61523 6.94152C6.41628 8.00496 5.67378 9.54895 5.37012 11.3165L5.29004 11.8663C5.28303 11.9255 5.26366 11.9803 5.24121 12.0323C5.23869 12.1106 5.23731 12.189 5.2373 12.2677C5.2373 12.599 4.96897 12.8682 4.6377 12.8683C4.30632 12.8683 4.03711 12.5991 4.03711 12.2677C4.03725 9.90381 5.03121 7.65702 6.70215 6.14758C7.48813 5.41748 8.4559 4.85476 9.61719 4.52941L9.94629 4.44445C9.9622 4.44067 9.97822 4.4374 9.99414 4.43371C10.125 4.40331 10.2563 4.37672 10.3877 4.35265C10.5414 4.32456 10.6955 4.30188 10.8496 4.28234L10.1494 3.69445L10.0645 3.60754C9.89125 3.389 9.89002 3.07173 10.0762 2.84972Z" fill="#909090"/>
<path d="M8.62109 8.67297C8.82575 8.30726 9.36585 8.30705 9.57031 8.67297L9.6084 8.75597L9.7666 9.18761L10.1953 9.34777L10.2783 9.38586C10.6412 9.59104 10.641 10.1277 10.2783 10.3331L10.1953 10.3722L9.7666 10.5314L9.6084 10.963C9.44393 11.4103 8.84032 11.4385 8.62109 11.047L8.58301 10.963L8.42383 10.5314L7.99609 10.3722C7.52204 10.1956 7.52214 9.52451 7.99609 9.34777L8.42383 9.18761L8.58301 8.75597L8.62109 8.67297Z" fill="#909090"/>
</svg>
