<svg width="24" height="24" viewBox="0 0 24 24" fill="none" xmlns="http://www.w3.org/2000/svg">
<path d="M19.2483 13.4209C18.9711 13.3372 18.68 13.464 18.5471 13.709L18.5003 13.8213L18.4163 14.082C17.4933 16.7439 14.9622 18.6542 11.9876 18.6543C9.45286 18.6542 7.24231 17.2663 6.07253 15.209L6.96218 15.6299C7.26184 15.7713 7.61858 15.6434 7.76003 15.3438C7.90138 15.0441 7.77351 14.6873 7.4739 14.5459L5.16823 13.457C5.1434 13.4453 5.11838 13.4349 5.09304 13.4268C5.07966 13.4222 5.06572 13.4196 5.05202 13.416C5.04356 13.4139 5.03512 13.4119 5.02663 13.4102C4.93064 13.3895 4.82842 13.3906 4.72781 13.4209C4.55124 13.4743 4.42016 13.6034 4.35281 13.7607C4.34709 13.7736 4.34108 13.7864 4.3362 13.7998C4.33238 13.8108 4.32864 13.8218 4.32546 13.833C4.32304 13.8411 4.31976 13.8492 4.31765 13.8574L3.69948 16.2617L3.68093 16.3828C3.66733 16.6612 3.85071 16.9199 4.13112 16.9922C4.45183 17.0746 4.77885 16.882 4.86159 16.5615L5.04909 15.835C6.42972 18.236 9.01826 19.8544 11.9876 19.8545C15.489 19.8544 18.4647 17.6054 19.5501 14.4746L19.6487 14.1689L19.6721 14.0488C19.6972 13.7714 19.5253 13.5048 19.2483 13.4209Z" fill="#909090"/>
<path fill-rule="evenodd" clip-rule="evenodd" d="M12.5393 7.81543C12.3462 7.32029 11.624 7.30962 11.4163 7.79883L11.3792 7.91113L11.3167 8.1875C10.9361 9.84482 9.59698 11.1119 7.92116 11.4004C7.2638 11.5137 7.23943 12.4487 7.88991 12.5957L8.02077 12.625C9.65406 12.9933 10.9363 14.2572 11.3294 15.8848L11.3811 16.0977C11.5341 16.7296 12.4383 16.7154 12.5716 16.0791L12.5843 16.0186C12.9388 14.3203 14.2584 12.9891 15.9534 12.6191L16.054 12.5967C16.7098 12.4536 16.6865 11.511 16.0247 11.4004L15.7063 11.334C14.1386 10.9467 12.9209 9.68495 12.6028 8.08203L12.5725 7.92871L12.5393 7.81543ZM11.9671 9.82129C12.4704 10.7562 13.2402 11.5213 14.1751 12.0205C13.2445 12.5368 12.4791 13.3092 11.971 14.2441C11.4611 13.3063 10.6947 12.5323 9.76198 12.0166C10.6941 11.5171 11.4618 10.7545 11.9671 9.82129Z" fill="#909090"/>
<path d="M11.9876 4.14258C8.48617 4.1427 5.51047 6.3917 4.42507 9.52246L4.32644 9.82812L4.303 9.94824C4.27798 10.2257 4.44986 10.4923 4.72683 10.5762C5.00404 10.6599 5.29517 10.533 5.428 10.2881L5.47488 10.1758L5.55886 9.91504C6.4818 7.25314 9.01291 5.34289 11.9876 5.34277C14.5214 5.3429 16.7325 6.72906 17.9026 8.78516L17.0139 8.36621C16.7143 8.22476 16.3566 8.35268 16.2151 8.65234C16.0739 8.95194 16.2027 9.30879 16.5022 9.4502L18.8079 10.5391C18.8295 10.5492 18.8513 10.558 18.8733 10.5654C18.9899 10.607 19.1198 10.6146 19.2473 10.5762C19.4204 10.5239 19.5508 10.3991 19.6194 10.2461C19.628 10.2277 19.636 10.209 19.6428 10.1895C19.6451 10.1827 19.6467 10.1758 19.6487 10.1689C19.6518 10.159 19.6558 10.1489 19.6585 10.1387L20.2766 7.73438L20.2942 7.61328C20.3078 7.33501 20.1252 7.07632 19.845 7.00391C19.5242 6.92153 19.1962 7.11399 19.1135 7.43457L18.927 8.16113C17.5463 5.76027 14.9567 4.14271 11.9876 4.14258Z" fill="#909090"/>
</svg>
