<svg width="24" height="24" viewBox="0 0 24 24" fill="none" xmlns="http://www.w3.org/2000/svg">
<path fill-rule="evenodd" clip-rule="evenodd" d="M10.251 5.56585C10.6567 4.50078 12.1636 4.50086 12.5693 5.56585L13.499 8.00824C13.8878 9.02899 14.6942 9.83516 15.7148 10.2241L18.1582 11.1547C19.2229 11.5606 19.223 13.0674 18.1582 13.4731L15.7148 14.4028C14.6942 14.7916 13.8879 15.5979 13.499 16.6186L12.5693 19.0619C12.1636 20.1268 10.6569 20.1266 10.251 19.0619L9.32031 16.6186C8.93142 15.5979 8.12523 14.7915 7.10449 14.4028L4.66211 13.4731C3.59705 13.0673 3.59696 11.5604 4.66211 11.1547L7.10449 10.2241C8.12534 9.83523 8.93149 9.02909 9.32031 8.00824L10.251 5.56585ZM11.3848 5.97308L11.3809 5.97601C11.3809 5.97601 11.376 5.98228 11.3721 5.99261L10.4424 8.43499C9.93174 9.77604 8.8723 10.8355 7.53125 11.3461L5.08887 12.2758C5.07851 12.2798 5.07227 12.2846 5.07227 12.2846L5.06934 12.2885C5.06719 12.2918 5.06255 12.3007 5.0625 12.3139C5.06257 12.3267 5.06714 12.3358 5.06934 12.3393L5.07227 12.3422C5.07227 12.3422 5.07862 12.3471 5.08887 12.351L7.53125 13.2817C8.87212 13.7923 9.93171 14.851 10.4424 16.1918L11.3721 18.6342C11.3758 18.6441 11.3795 18.6491 11.3809 18.6508L11.3848 18.6547C11.3883 18.6569 11.3974 18.6606 11.4102 18.6606C11.4233 18.6605 11.4322 18.6569 11.4355 18.6547L11.4385 18.6508C11.4385 18.6508 11.4433 18.6445 11.4473 18.6342L12.3779 16.1918C12.8886 14.8511 13.9474 13.7923 15.2881 13.2817L17.7305 12.351C17.7409 12.347 17.7471 12.3422 17.7471 12.3422L17.751 12.3393C17.7531 12.3359 17.7568 12.3269 17.7568 12.3139C17.7568 12.3011 17.7532 12.2921 17.751 12.2885L17.7471 12.2846C17.7454 12.2833 17.7404 12.2796 17.7305 12.2758L15.2881 11.3461C13.9472 10.8355 12.8886 9.77588 12.3779 8.43499L11.4473 5.99261C11.4433 5.98239 11.4385 5.97601 11.4385 5.97601L11.4355 5.97308C11.4321 5.97088 11.423 5.96632 11.4102 5.96624C11.3969 5.96628 11.3881 5.97093 11.3848 5.97308Z" fill="#15C674"/>
<path fill-rule="evenodd" clip-rule="evenodd" d="M16.8496 4.22015C17.1063 3.49571 18.0831 3.45047 18.4297 4.08441L18.4902 4.22015L18.665 4.71332C18.7387 4.92066 18.902 5.08409 19.1094 5.15765L19.6025 5.33246C20.3751 5.60638 20.3752 6.69929 19.6025 6.97308L19.1094 7.14789C18.9019 7.22151 18.7386 7.38471 18.665 7.59222L18.4902 8.08539C18.2162 8.85754 17.1236 8.85753 16.8496 8.08539L16.6748 7.59222C16.6012 7.38473 16.4379 7.22152 16.2305 7.14789L15.7373 6.97308C14.9646 6.69928 14.9647 5.60634 15.7373 5.33246L16.2305 5.15765C16.4379 5.08409 16.6011 4.92067 16.6748 4.71332L16.8496 4.22015ZM17.6699 5.18011C17.4845 5.61911 17.1363 5.9674 16.6973 6.15277C17.1361 6.3381 17.4844 6.68573 17.6699 7.12445C17.8553 6.68598 18.2032 6.33818 18.6416 6.15277C18.203 5.96731 17.8553 5.61882 17.6699 5.18011Z" fill="#15C674"/>
</svg>
