<svg width="24" height="24" viewBox="0 0 24 24" fill="none" xmlns="http://www.w3.org/2000/svg">
<path d="M12 7.54297C14.4615 7.54297 16.457 9.53845 16.457 12C16.457 14.4615 14.4615 16.457 12 16.457L11.7705 16.4512C9.49162 16.3356 7.66441 14.5084 7.54883 12.2295L7.54297 12C7.54297 9.53845 9.53845 7.54297 12 7.54297ZM12 8.44336C10.0355 8.44336 8.44336 10.0355 8.44336 12C8.44336 13.9645 10.0355 15.5566 12 15.5566C13.9645 15.5566 15.5566 13.9645 15.5566 12C15.5566 10.0355 13.9645 8.44336 12 8.44336ZM11.998 13.2119C12.3292 13.2122 12.5977 13.4803 12.5977 13.8115V13.8525C12.5977 14.1837 12.3292 14.4529 11.998 14.4531C11.6667 14.4531 11.3984 14.1839 11.3984 13.8525V13.8115C11.3984 13.4802 11.6667 13.2119 11.998 13.2119ZM11.998 9.32129C12.2466 9.32129 12.4482 9.52296 12.4482 9.77148V12.4023C12.4482 12.6509 12.2466 12.8525 11.998 12.8525C11.7495 12.8525 11.5479 12.6509 11.5479 12.4023V9.77148C11.5479 9.52296 11.7495 9.32129 11.998 9.32129Z" fill="#333333"/>
</svg>
