<svg width="24" height="24" viewBox="0 0 24 24" fill="none" xmlns="http://www.w3.org/2000/svg">
<path d="M11.9971 13.9248C12.3837 13.9248 12.6973 14.2384 12.6973 14.625V14.6846C12.6971 15.071 12.3836 15.3838 11.9971 15.3838C11.6106 15.3838 11.297 15.071 11.2969 14.6846V14.625C11.2969 14.2384 11.6105 13.9248 11.9971 13.9248Z" fill="#333333"/>
<path d="M11.9971 8.22168C12.3008 8.22168 12.5469 8.46773 12.5469 8.77148V12.8076C12.5469 13.1114 12.3008 13.3574 11.9971 13.3574C11.6933 13.3574 11.4473 13.1114 11.4473 12.8076V8.77148C11.4473 8.46773 11.6933 8.22168 11.9971 8.22168Z" fill="#333333"/>
<path fill-rule="evenodd" clip-rule="evenodd" d="M12 5.54199C15.5667 5.54199 18.458 8.43334 18.458 12C18.458 15.5667 15.5667 18.458 12 18.458L11.668 18.4492C8.36561 18.282 5.71804 15.6344 5.55078 12.332L5.54199 12C5.54199 8.43334 8.43334 5.54199 12 5.54199ZM12 6.6416C9.04086 6.6416 6.6416 9.04086 6.6416 12C6.6416 14.9591 9.04086 17.3584 12 17.3584C14.9591 17.3584 17.3584 14.9591 17.3584 12C17.3584 9.04086 14.9591 6.6416 12 6.6416Z" fill="#333333"/>
</svg>
