<svg width="24" height="24" viewBox="0 0 24 24" fill="none" xmlns="http://www.w3.org/2000/svg">
<path d="M16.4336 12C16.4336 9.5514 14.4486 7.56641 12 7.56641C9.5514 7.56641 7.56641 9.5514 7.56641 12C7.56641 14.4486 9.5514 16.4336 12 16.4336V17.4336L11.7207 17.4268C8.94211 17.2861 6.71392 15.0579 6.57324 12.2793L6.56641 12C6.56641 8.99911 8.99911 6.56641 12 6.56641C15.0009 6.56641 17.4336 8.99911 17.4336 12C17.4336 15.0009 15.0009 17.4336 12 17.4336V16.4336C14.4486 16.4336 16.4336 14.4486 16.4336 12Z" fill="#333333"/>
<path d="M11.4976 9.2832C11.4976 9.00706 11.7214 8.7832 11.9976 8.7832C12.2737 8.7832 12.4976 9.00706 12.4976 9.2832V12.6797L12.4878 12.7803C12.4411 13.008 12.2391 13.1787 11.9976 13.1787C11.7214 13.1787 11.4976 12.9549 11.4976 12.6787V9.2832Z" fill="#333333"/>
<path d="M11.2974 14.2588V14.209C11.2974 13.8224 11.611 13.5088 11.9976 13.5088C12.3842 13.5088 12.6978 13.8224 12.6978 14.209V14.2588C12.6977 14.6453 12.3841 14.959 11.9976 14.959C11.611 14.959 11.2974 14.6453 11.2974 14.2588Z" fill="#333333"/>
</svg>
