<svg width="24" height="24" viewBox="0 0 24 24" fill="none" xmlns="http://www.w3.org/2000/svg">
<path d="M11.9961 14.502C12.4101 14.5022 12.7461 14.8379 12.7461 15.252V15.3242C12.7461 15.7383 12.4101 16.074 11.9961 16.0742C11.5819 16.0742 11.2461 15.7384 11.2461 15.3242V15.252C11.2461 14.8377 11.5819 14.502 11.9961 14.502Z" fill="#333333"/>
<path d="M11.9961 7.40039C12.3272 7.40065 12.5957 7.66879 12.5957 8V13C12.5957 13.3312 12.3272 13.5993 11.9961 13.5996C11.6647 13.5996 11.3965 13.3314 11.3965 13V8C11.3965 7.66863 11.6647 7.40039 11.9961 7.40039Z" fill="#333333"/>
<path fill-rule="evenodd" clip-rule="evenodd" d="M12 4C16.4183 4 20 7.58173 20 12C20 16.4183 16.4183 20 12 20L11.5879 19.9893C7.49765 19.7817 4.2183 16.5024 4.01074 12.4121L4 12C4 7.58173 7.58173 4 12 4ZM12 5.2002C8.24447 5.2002 5.2002 8.24447 5.2002 12C5.2002 15.7555 8.24447 18.7998 12 18.7998C15.7555 18.7998 18.7998 15.7555 18.7998 12C18.7998 8.24447 15.7555 5.2002 12 5.2002Z" fill="#333333"/>
</svg>
