<svg width="24" height="24" viewBox="0 0 24 24" fill="none" xmlns="http://www.w3.org/2000/svg">
<path d="M10.0391 4.1076C8.70924 4.08092 7.27607 4.51348 6.16511 5.6242C5.05859 6.73061 4.60025 8.1651 4.59382 9.48846C4.58755 10.7953 5.02327 12.0741 5.81257 12.8635C7.1041 14.155 11.1691 18.2398 11.9395 18.9894C12.4397 19.4761 13.3528 19.8795 14.3048 19.9914C15.2733 20.1052 16.4119 19.9311 17.2764 19.09C18.8945 17.5157 18.8043 15.0577 17.4757 13.7648C16.9416 13.2452 15.5445 11.8487 14.2286 10.5305C12.9183 9.21788 11.6846 7.97929 11.4893 7.78924C11.2026 7.51034 10.714 7.2526 10.1651 7.18182C9.58927 7.10763 8.91736 7.23783 8.35065 7.78924C7.79247 8.33248 7.61879 9.00472 7.63288 9.57147C7.63989 9.85286 7.6928 10.1174 7.77253 10.342C7.84798 10.5544 7.96482 10.7779 8.1319 10.9406C8.43491 11.2354 12.4344 15.2187 12.8233 15.6076C13.0576 15.8417 13.4367 15.8417 13.671 15.6076C13.9053 15.3733 13.9053 14.9933 13.671 14.759C13.2833 14.3713 9.28012 10.3842 8.96882 10.0812C8.9824 10.0944 8.94536 10.0579 8.90339 9.93963C8.86565 9.83316 8.83693 9.69484 8.83307 9.54217C8.82555 9.24018 8.91471 8.91527 9.18757 8.64959C9.45218 8.39212 9.74046 8.33633 10.0118 8.37127C10.3102 8.40975 10.5568 8.55655 10.6524 8.64959C10.8395 8.83164 12.0616 10.0575 13.3799 11.3781C14.6923 12.6928 16.0968 14.0979 16.6387 14.6252C17.4613 15.4255 17.5955 17.1048 16.4395 18.2297C15.9171 18.738 15.1883 18.8862 14.4454 18.799C13.6858 18.7098 13.0423 18.3878 12.7764 18.1291C12.0135 17.3867 7.96244 13.3161 6.6612 12.0148C6.15423 11.5078 5.78888 10.5696 5.79401 9.49432C5.79916 8.43511 6.16519 7.3213 7.01374 6.47284C7.85773 5.62909 8.95679 5.28564 10.0147 5.30682C11.0863 5.32832 12.0532 5.72185 12.6133 6.26678C13.2974 6.9324 14.1727 7.8148 15.0528 8.70233C15.9305 9.58751 16.8132 10.4789 17.503 11.1555C17.7396 11.3872 18.1197 11.3831 18.3516 11.1467C18.5834 10.9101 18.5793 10.53 18.3428 10.298C17.6606 9.62888 16.7858 8.74549 15.9053 7.8576C15.0273 6.9721 14.1436 6.08202 13.4503 5.40741C12.6329 4.61212 11.3554 4.13405 10.0391 4.1076Z" fill="#333333"/>
</svg>
