<svg width="24" height="24" viewBox="0 0 24 24" fill="none" xmlns="http://www.w3.org/2000/svg">
<path d="M11.2886 4.13281C11.0515 4.53227 10.8684 4.96871 10.7515 5.43164C8.26035 5.97641 6.42433 8.11538 6.42432 10.6367C6.42432 12.4208 7.33205 14.2826 8.49756 15.9209C9.65313 17.5452 11.0062 18.871 11.7759 19.5713C11.8996 19.6837 12.0753 19.683 12.1997 19.5645C12.9669 18.8329 14.3263 17.4471 15.4897 15.7998C16.231 14.7502 16.8654 13.632 17.2339 12.5342H17.9028C18.105 12.5341 18.3039 12.5195 18.4995 12.4951C18.1005 13.9135 17.3156 15.2952 16.4702 16.4922C15.2436 18.229 13.8223 19.676 13.0278 20.4336C12.4511 20.9832 11.5611 20.9982 10.9683 20.459C10.1665 19.7296 8.74504 18.3381 7.52002 16.6162C6.30489 14.9082 5.2251 12.795 5.2251 10.6367C5.22511 7.23781 7.89859 4.47522 11.2886 4.13281Z" fill="#15C674"/>
<path d="M10.6069 7.82129C10.6225 8.26278 10.694 8.68959 10.8179 9.09375C10.3646 9.44209 10.0718 9.98885 10.0718 10.6045C10.0718 11.6565 10.925 12.5097 11.9771 12.5098C12.4719 12.5097 12.9205 12.3183 13.2593 12.0088C13.6402 12.2036 14.0494 12.35 14.48 12.4375C13.9148 13.2078 13.0055 13.7099 11.9771 13.71C10.2623 13.7099 8.87256 12.3193 8.87256 10.6045C8.87259 9.38209 9.58017 8.32764 10.6069 7.82129Z" fill="#15C674"/>
<path d="M18.0288 6.40039C18.3881 6.40039 18.68 6.69155 18.6802 7.05078C18.6802 7.41017 18.3882 7.70215 18.0288 7.70215C17.6696 7.70197 17.3784 7.41006 17.3784 7.05078C17.3786 6.69166 17.6697 6.40057 18.0288 6.40039Z" fill="#15C674"/>
<path d="M15.311 6.40039C15.6701 6.40047 15.9614 6.69172 15.9614 7.05078C15.9613 7.40978 15.67 7.70109 15.311 7.70117C14.952 7.70117 14.6607 7.40983 14.6606 7.05078C14.6606 6.69166 14.9519 6.40039 15.311 6.40039Z" fill="#15C674"/>
<path fill-rule="evenodd" clip-rule="evenodd" d="M16.6704 1.41113C17.0014 1.4114 17.2698 1.67971 17.27 2.01074V3.07324H17.6138C19.6016 3.0737 21.2134 4.68491 21.2134 6.67285V7.42871C21.2134 9.41665 19.6016 11.0288 17.6138 11.0293H15.728C13.7398 11.0293 12.1274 9.41694 12.1274 7.42871V6.67285C12.1274 4.68463 13.7398 3.07324 15.728 3.07324H16.0708V2.01074C16.071 1.67955 16.3392 1.41113 16.6704 1.41113ZM15.728 4.27246C14.4025 4.27246 13.3276 5.34737 13.3276 6.67285V7.42871C13.3276 8.75419 14.4025 9.8291 15.728 9.8291H17.6138C18.9389 9.82864 20.0132 8.75391 20.0132 7.42871V6.67285C20.0132 5.34765 18.9389 4.27292 17.6138 4.27246H15.728Z" fill="#15C674"/>
</svg>
