<svg width="24" height="24" viewBox="0 0 24 24" fill="none" xmlns="http://www.w3.org/2000/svg">
<path fill-rule="evenodd" clip-rule="evenodd" d="M10.2797 5.69538V8.35852C10.2797 8.68989 10.5483 8.95852 10.8797 8.95852C10.9099 8.95852 10.925 8.95827 10.9354 8.9581C10.9467 8.95792 10.9524 8.95783 10.9662 8.95824C13.854 9.04607 15.7412 10.5468 16.9923 12.3572C17.9422 13.7318 18.5119 15.2701 18.8425 16.4579C18.1798 15.8587 17.3162 15.1635 16.3069 14.5467C14.8254 13.6415 12.9902 12.8811 10.9916 12.8809H10.8797C10.5483 12.8809 10.2797 13.1495 10.2797 13.4809V16.6938L4.57588 11.1946L10.2797 5.69538ZM10.9696 4.14656C10.6642 4.001 10.2735 4.03447 9.98976 4.30799L3.60711 10.4617C3.19553 10.8585 3.19553 11.5306 3.60711 11.9275L9.98976 18.0812C10.2735 18.3547 10.6642 18.3882 10.9696 18.2426C11.2698 18.0995 11.4797 17.7909 11.4797 17.4235V14.0986C12.999 14.2079 14.4387 14.8115 15.6812 15.5707C17.0529 16.4088 18.1449 17.4126 18.783 18.0631C19.431 18.7235 20.447 18.0959 20.2714 17.2554C20.0071 15.9905 19.3743 13.6935 17.9795 11.675C16.6401 9.73672 14.5772 8.03257 11.4797 7.785V4.96563C11.4797 4.59829 11.2698 4.2897 10.9696 4.14656Z" fill="#15C674"/>
</svg>
