<svg width="24" height="24" viewBox="0 0 24 24" fill="none" xmlns="http://www.w3.org/2000/svg">
<path d="M18.7793 12C18.7793 8.25612 15.7439 5.2207 12 5.2207C8.25612 5.2207 5.2207 8.25612 5.2207 12C5.2207 15.7439 8.25612 18.7793 12 18.7793C15.7439 18.7793 18.7793 15.7439 18.7793 12ZM19.9785 12C19.9785 16.4066 16.4066 19.9785 12 19.9785C7.59338 19.9785 4.02148 16.4066 4.02148 12C4.02148 7.59338 7.59338 4.02148 12 4.02148C16.4066 4.02148 19.9785 7.59338 19.9785 12Z" fill="#909090"/>
<path d="M11.7627 14.293V10.375L10.6807 11.0517C10.3998 11.2273 10.0292 11.1421 9.85352 10.8613C9.67795 10.5804 9.76316 10.2099 10.044 10.0342L12.044 8.78417L12.1162 8.74608C12.2873 8.66907 12.4865 8.67608 12.6533 8.76854C12.8439 8.87432 12.9619 9.07495 12.9619 9.29296V14.293C12.9619 14.6243 12.6937 14.8926 12.3623 14.8926C12.0309 14.8926 11.7627 14.6243 11.7627 14.293Z" fill="#909090"/>
</svg>
