<svg width="24" height="24" viewBox="0 0 24 24" fill="none" xmlns="http://www.w3.org/2000/svg">
<path d="M12.4453 13.7012C12.8693 13.7017 13.2129 14.0456 13.2129 14.4697C13.2126 14.8936 12.8691 15.2368 12.4453 15.2373H7.56543C7.16759 15.2373 6.84019 14.9353 6.80078 14.5479L6.79688 14.4697L6.80078 14.3906C6.84019 14.0032 7.16759 13.7012 7.56543 13.7012H12.4453Z" fill="#15C674"/>
<path fill-rule="evenodd" clip-rule="evenodd" d="M17.3086 5.71484C18.7995 5.71506 20.0076 6.9232 20.0078 8.41406V16.292C20.0076 17.7829 18.7995 18.991 17.3086 18.9912H6.69141C5.20055 18.991 3.9924 17.7829 3.99219 16.292V8.41406C3.9924 6.9232 5.20055 5.71505 6.69141 5.71484H17.3086ZM5.19141 16.292C5.19162 17.1201 5.86329 17.7918 6.69141 17.792H17.3086C18.1367 17.7918 18.8084 17.1201 18.8086 16.292V10.5605H5.19141V16.292ZM6.69141 6.91406C5.86329 6.91427 5.19162 7.58595 5.19141 8.41406V9.36133H18.8086V8.41406C18.8084 7.58595 18.1367 6.91427 17.3086 6.91406H6.69141Z" fill="#15C674"/>
</svg>
