<svg width="24" height="24" viewBox="0 0 24 24" fill="none" xmlns="http://www.w3.org/2000/svg">
<path d="M15.877 3.97949C17.3127 3.97976 18.4766 5.14332 18.4766 6.5791V6.84082C18.4906 6.89167 18.5 6.94468 18.5 7V8C18.5 8.05499 18.4904 8.10763 18.4766 8.1582V9.55371C18.4763 9.88473 18.208 10.1531 17.877 10.1533C17.5457 10.1533 17.2766 9.88489 17.2764 9.55371V6.5791C17.2764 5.80607 16.6499 5.17897 15.877 5.17871H8.11133C7.33813 5.17871 6.71094 5.8059 6.71094 6.5791V17.3945C6.71094 18.1674 7.33882 18.7949 8.1123 18.7949H16.8057C17.137 18.7949 17.4053 19.0632 17.4053 19.3945C17.4053 19.7259 17.137 19.9941 16.8057 19.9941H12.0605C12.0405 19.9962 12.0205 20 12 20H10C9.97946 20 9.95946 19.9962 9.93945 19.9941H8.1123C6.67665 19.9941 5.51172 18.8308 5.51172 17.3945V6.5791C5.51172 5.14316 6.67539 3.97949 8.11133 3.97949H15.877Z" fill="#909090"/>
<path d="M19.0713 11.6475C19.3056 11.4134 19.6847 11.4134 19.9189 11.6475C20.1531 11.8817 20.153 12.2608 19.9189 12.4951L17.9902 14.4229L19.9189 16.3516C20.1531 16.5858 20.153 16.9649 19.9189 17.1992C19.6846 17.4332 19.3055 17.4334 19.0713 17.1992L17.1426 15.2705L15.2148 17.1992C14.9805 17.4332 14.6014 17.4334 14.3672 17.1992C14.1331 16.965 14.1332 16.5859 14.3672 16.3516L16.2949 14.4229L14.3672 12.4951C14.1331 12.2609 14.1332 11.8818 14.3672 11.6475C14.6015 11.4134 14.9806 11.4134 15.2148 11.6475L17.1426 13.5752L19.0713 11.6475Z" fill="#909090"/>
<path d="M12 13.2959C12.3314 13.2959 12.5996 13.5641 12.5996 13.8955C12.5996 14.2269 12.3314 14.4951 12 14.4951H9C8.66863 14.4951 8.40039 14.2269 8.40039 13.8955C8.40039 13.5641 8.66863 13.2959 9 13.2959H12Z" fill="#909090"/>
<path d="M12 10.3359C12.3314 10.3359 12.5996 10.6042 12.5996 10.9355C12.5996 11.2669 12.3314 11.5352 12 11.5352H9C8.66863 11.5352 8.40039 11.2669 8.40039 10.9355C8.40039 10.6042 8.66863 10.3359 9 10.3359H12Z" fill="#909090"/>
<path d="M15 7.46973C15.3314 7.46973 15.5996 7.73797 15.5996 8.06934C15.5996 8.40071 15.3314 8.66895 15 8.66895H9C8.66863 8.66895 8.40039 8.40071 8.40039 8.06934C8.40039 7.73797 8.66863 7.46973 9 7.46973H15Z" fill="#909090"/>
</svg>
