<svg width="24" height="24" viewBox="0 0 24 24" fill="none" xmlns="http://www.w3.org/2000/svg">
<path d="M18.7534 7.44556C18.7534 7.25454 18.6316 7.14758 18.5122 7.13404C17.8934 7.06389 16.8906 7.00957 15.6079 7.14283C14.5476 7.25302 13.7563 7.62947 13.2329 7.97388C12.971 8.14628 12.7768 8.31037 12.6509 8.42798C12.6402 8.43798 12.6303 8.44799 12.6206 8.45728V17.5461C12.7094 17.4929 12.8017 17.4355 12.8999 17.3801C13.6361 16.9649 14.6611 16.4885 15.7378 16.3206C16.6231 16.1825 17.4327 16.1994 18.0708 16.2639C18.4572 16.303 18.7534 16.0005 18.7534 15.7424V7.44556ZM5.24658 15.7424C5.24661 16.0005 5.54284 16.303 5.9292 16.2639C6.56731 16.1994 7.37692 16.1825 8.26221 16.3206C9.3389 16.4885 10.3639 16.9649 11.1001 17.3801C11.1983 17.4355 11.2906 17.4929 11.3794 17.5461V8.45728C11.3697 8.44799 11.3598 8.43798 11.3491 8.42798C11.2232 8.31037 11.029 8.14628 10.7671 7.97388C10.2437 7.62947 9.45243 7.25302 8.39209 7.14283C7.10936 7.00957 6.10665 7.06389 5.48779 7.13404C5.36836 7.14758 5.24658 7.25454 5.24658 7.44556V15.7424ZM19.9526 15.7424C19.9526 16.8379 18.911 17.5543 17.9507 17.4573C17.39 17.4006 16.6851 17.3871 15.9224 17.5061C15.0505 17.6421 14.1703 18.0406 13.4888 18.4251C13.1528 18.6146 12.8746 18.7954 12.6812 18.928C12.5846 18.9941 12.5094 19.0486 12.4595 19.0852C12.4346 19.1034 12.4157 19.1172 12.4038 19.1262C12.398 19.1306 12.3937 19.134 12.3911 19.136L12.3179 19.1848C12.2205 19.2405 12.1106 19.2666 12.0005 19.2629H11.9985C11.8888 19.2664 11.7792 19.2404 11.6821 19.1848L11.6089 19.136C11.6063 19.134 11.602 19.1306 11.5962 19.1262C11.5843 19.1172 11.5654 19.1034 11.5405 19.0852C11.4906 19.0486 11.4154 18.9941 11.3188 18.928C11.1254 18.7954 10.8472 18.6146 10.5112 18.4251C9.82973 18.0406 8.94946 17.6421 8.07764 17.5061C7.31488 17.3871 6.61002 17.4006 6.04932 17.4573C5.08896 17.5543 4.04739 16.8379 4.04736 15.7424V7.44556C4.04736 6.71629 4.55709 6.03188 5.35205 5.94166C6.0452 5.86306 7.1359 5.80609 8.51611 5.94947C9.80139 6.08304 10.7733 6.54127 11.4263 6.97095C11.657 7.12277 11.8477 7.27207 11.9995 7.40162C12.1514 7.27195 12.3427 7.12296 12.5737 6.97095C13.2267 6.54127 14.1986 6.08304 15.4839 5.94947C16.8641 5.80609 17.9548 5.86306 18.6479 5.94166C19.4429 6.03188 19.9526 6.71629 19.9526 7.44556V15.7424Z" fill="#15C674"/>
</svg>
