<svg width="24" height="24" viewBox="0 0 24 24" fill="none" xmlns="http://www.w3.org/2000/svg">
<path d="M15.5604 4.03059C16.0777 3.06127 17.2824 2.69497 18.2518 3.21223C19.221 3.72961 19.5874 4.93432 19.0701 5.90363L17.3016 9.21711C17.6572 9.79523 17.9206 10.5003 18.0506 11.345C18.3255 13.1336 17.6041 15.0818 16.7547 16.6741C15.8933 18.289 14.8376 19.6524 14.2967 20.3089C13.9387 20.7432 13.3743 20.9425 12.8191 20.8177C11.979 20.6285 10.2897 20.1739 8.47833 19.263C6.6696 18.3534 4.70135 16.9694 3.35235 14.9027C2.74713 13.975 3.34385 12.8821 4.24395 12.5911C5.19133 12.2854 6.42938 11.8142 7.20294 11.262C7.86367 10.7903 8.31437 10.2024 8.90802 9.51691C8.95841 9.45872 9.01023 9.40077 9.06231 9.34211C9.09876 9.2827 9.14714 9.23002 9.20489 9.18488C9.72321 8.61908 10.3423 8.04987 11.2244 7.60871C11.9777 7.23218 12.9366 7.04206 13.9022 7.13508L15.5604 4.03059ZM9.57305 10.5853C9.10524 11.1363 8.58912 11.7457 7.9002 12.2376C6.96228 12.9073 5.56718 13.4258 4.61309 13.7337C4.47877 13.7772 4.38262 13.8744 4.33868 13.9779C4.2978 14.0744 4.30428 14.1649 4.35723 14.2464C4.83051 14.9715 5.39541 15.6065 6.00958 16.1634C6.06033 16.0783 6.13143 16.0036 6.22344 15.9505C6.70992 15.67 7.17672 15.2363 7.46954 14.9642C7.71218 14.7387 8.09255 14.752 8.31817 14.9945C8.54375 15.2372 8.52958 15.6175 8.28692 15.8431C8.02586 16.0857 7.51269 16.565 6.93536 16.9202C7.61183 17.4196 8.32023 17.8401 9.01739 18.1907C9.13266 18.2487 9.24903 18.3017 9.36309 18.3558C9.37173 18.3466 9.37917 18.3362 9.38848 18.3275C10.1968 17.5728 10.782 16.7927 11.3533 15.7855C11.5168 15.4972 11.8835 15.3964 12.1717 15.5599C12.4594 15.7235 12.5604 16.0893 12.3973 16.3773C11.8581 17.3277 11.2909 18.1174 10.5525 18.8675C11.6257 19.283 12.5443 19.5255 13.0828 19.6468C13.1902 19.6708 13.2969 19.6359 13.3709 19.5462C13.8877 18.919 14.8878 17.6249 15.6961 16.1097C16.0709 15.4071 16.3906 14.6793 16.6082 13.9642C15.2504 13.8738 13.6948 13.3106 12.3514 12.5921C11.2729 12.0153 10.2652 11.303 9.57305 10.5853ZM14.7469 8.55598C13.7359 8.16013 12.5696 8.27808 11.7615 8.68195C11.2023 8.96159 10.7689 9.30503 10.3807 9.68977C10.9394 10.2892 11.8483 10.9626 12.9178 11.5345C14.2139 12.2276 15.6361 12.7176 16.7723 12.7728C16.8047 12.7743 16.8362 12.78 16.867 12.7864C16.9221 12.3504 16.9267 11.9275 16.865 11.5267C16.601 9.81039 15.7172 8.93605 14.7469 8.55598ZM17.6873 4.26984C17.3026 4.06463 16.8233 4.2104 16.618 4.59504L15.1131 7.41242C15.1371 7.42134 15.1615 7.42944 15.1854 7.43879C15.6479 7.62002 16.0827 7.88024 16.4705 8.22297L18.0115 5.33918C18.2168 4.95451 18.0719 4.47519 17.6873 4.26984Z" fill="#15C674"/>
<path d="M15.5604 4.03059C16.0777 3.06127 17.2824 2.69497 18.2518 3.21223C19.221 3.72961 19.5874 4.93432 19.0701 5.90363L17.3016 9.21711C17.6572 9.79523 17.9206 10.5003 18.0506 11.345C18.3255 13.1336 17.6041 15.0818 16.7547 16.6741C15.8933 18.289 14.8376 19.6524 14.2967 20.3089C13.9387 20.7432 13.3743 20.9425 12.8191 20.8177C11.979 20.6285 10.2897 20.1739 8.47833 19.263C6.6696 18.3534 4.70135 16.9694 3.35235 14.9027C2.74713 13.975 3.34385 12.8821 4.24395 12.5911C5.19133 12.2854 6.42938 11.8142 7.20294 11.262C7.86367 10.7903 8.31437 10.2024 8.90802 9.51691C8.95841 9.45872 9.01023 9.40077 9.06231 9.34211C9.09876 9.2827 9.14714 9.23002 9.20489 9.18488C9.72321 8.61908 10.3423 8.04987 11.2244 7.60871C11.9777 7.23218 12.9366 7.04206 13.9022 7.13508L15.5604 4.03059ZM9.57305 10.5853C9.10524 11.1363 8.58912 11.7457 7.9002 12.2376C6.96228 12.9073 5.56718 13.4258 4.61309 13.7337C4.47877 13.7772 4.38262 13.8744 4.33868 13.9779C4.2978 14.0744 4.30428 14.1649 4.35723 14.2464C4.83051 14.9715 5.39541 15.6065 6.00958 16.1634C6.06033 16.0783 6.13143 16.0036 6.22344 15.9505C6.70992 15.67 7.17672 15.2363 7.46954 14.9642C7.71218 14.7387 8.09255 14.752 8.31817 14.9945C8.54375 15.2372 8.52958 15.6175 8.28692 15.8431C8.02586 16.0857 7.51269 16.565 6.93536 16.9202C7.61183 17.4196 8.32023 17.8401 9.01739 18.1907C9.13266 18.2487 9.24903 18.3017 9.36309 18.3558C9.37173 18.3466 9.37917 18.3362 9.38848 18.3275C10.1968 17.5728 10.782 16.7927 11.3533 15.7855C11.5168 15.4972 11.8835 15.3964 12.1717 15.5599C12.4594 15.7235 12.5604 16.0893 12.3973 16.3773C11.8581 17.3277 11.2909 18.1174 10.5525 18.8675C11.6257 19.283 12.5443 19.5255 13.0828 19.6468C13.1902 19.6708 13.2969 19.6359 13.3709 19.5462C13.8877 18.919 14.8878 17.6249 15.6961 16.1097C16.0709 15.4071 16.3906 14.6793 16.6082 13.9642C15.2504 13.8738 13.6948 13.3106 12.3514 12.5921C11.2729 12.0153 10.2652 11.303 9.57305 10.5853ZM14.7469 8.55598C13.7359 8.16013 12.5696 8.27808 11.7615 8.68195C11.2023 8.96159 10.7689 9.30503 10.3807 9.68977C10.9394 10.2892 11.8483 10.9626 12.9178 11.5345C14.2139 12.2276 15.6361 12.7176 16.7723 12.7728C16.8047 12.7743 16.8362 12.78 16.867 12.7864C16.9221 12.3504 16.9267 11.9275 16.865 11.5267C16.601 9.81039 15.7172 8.93605 14.7469 8.55598ZM17.6873 4.26984C17.3026 4.06463 16.8233 4.2104 16.618 4.59504L15.1131 7.41242C15.1371 7.42134 15.1615 7.42944 15.1854 7.43879C15.6479 7.62002 16.0827 7.88024 16.4705 8.22297L18.0115 5.33918C18.2168 4.95451 18.0719 4.47519 17.6873 4.26984Z" fill="#15C674"/>
<path d="M15.5604 4.03059C16.0777 3.06127 17.2824 2.69497 18.2518 3.21223C19.221 3.72961 19.5874 4.93432 19.0701 5.90363L17.3016 9.21711C17.6572 9.79523 17.9206 10.5003 18.0506 11.345C18.3255 13.1336 17.6041 15.0818 16.7547 16.6741C15.8933 18.289 14.8376 19.6524 14.2967 20.3089C13.9387 20.7432 13.3743 20.9425 12.8191 20.8177C11.979 20.6285 10.2897 20.1739 8.47833 19.263C6.6696 18.3534 4.70135 16.9694 3.35235 14.9027C2.74713 13.975 3.34385 12.8821 4.24395 12.5911C5.19133 12.2854 6.42938 11.8142 7.20294 11.262C7.86367 10.7903 8.31437 10.2024 8.90802 9.51691C8.95841 9.45872 9.01023 9.40077 9.06231 9.34211C9.09876 9.2827 9.14714 9.23002 9.20489 9.18488C9.72321 8.61908 10.3423 8.04987 11.2244 7.60871C11.9777 7.23218 12.9366 7.04206 13.9022 7.13508L15.5604 4.03059ZM9.57305 10.5853C9.10524 11.1363 8.58912 11.7457 7.9002 12.2376C6.96228 12.9073 5.56718 13.4258 4.61309 13.7337C4.47877 13.7772 4.38262 13.8744 4.33868 13.9779C4.2978 14.0744 4.30428 14.1649 4.35723 14.2464C4.83051 14.9715 5.39541 15.6065 6.00958 16.1634C6.06033 16.0783 6.13143 16.0036 6.22344 15.9505C6.70992 15.67 7.17672 15.2363 7.46954 14.9642C7.71218 14.7387 8.09255 14.752 8.31817 14.9945C8.54375 15.2372 8.52958 15.6175 8.28692 15.8431C8.02586 16.0857 7.51269 16.565 6.93536 16.9202C7.61183 17.4196 8.32023 17.8401 9.01739 18.1907C9.13266 18.2487 9.24903 18.3017 9.36309 18.3558C9.37173 18.3466 9.37917 18.3362 9.38848 18.3275C10.1968 17.5728 10.782 16.7927 11.3533 15.7855C11.5168 15.4972 11.8835 15.3964 12.1717 15.5599C12.4594 15.7235 12.5604 16.0893 12.3973 16.3773C11.8581 17.3277 11.2909 18.1174 10.5525 18.8675C11.6257 19.283 12.5443 19.5255 13.0828 19.6468C13.1902 19.6708 13.2969 19.6359 13.3709 19.5462C13.8877 18.919 14.8878 17.6249 15.6961 16.1097C16.0709 15.4071 16.3906 14.6793 16.6082 13.9642C15.2504 13.8738 13.6948 13.3106 12.3514 12.5921C11.2729 12.0153 10.2652 11.303 9.57305 10.5853ZM14.7469 8.55598C13.7359 8.16013 12.5696 8.27808 11.7615 8.68195C11.2023 8.96159 10.7689 9.30503 10.3807 9.68977C10.9394 10.2892 11.8483 10.9626 12.9178 11.5345C14.2139 12.2276 15.6361 12.7176 16.7723 12.7728C16.8047 12.7743 16.8362 12.78 16.867 12.7864C16.9221 12.3504 16.9267 11.9275 16.865 11.5267C16.601 9.81039 15.7172 8.93605 14.7469 8.55598ZM17.6873 4.26984C17.3026 4.06463 16.8233 4.2104 16.618 4.59504L15.1131 7.41242C15.1371 7.42134 15.1615 7.42944 15.1854 7.43879C15.6479 7.62002 16.0827 7.88024 16.4705 8.22297L18.0115 5.33918C18.2168 4.95451 18.0719 4.47519 17.6873 4.26984Z" fill="#15C674"/>
<path d="M15.5604 4.03059C16.0777 3.06127 17.2824 2.69497 18.2518 3.21223C19.221 3.72961 19.5874 4.93432 19.0701 5.90363L17.3016 9.21711C17.6572 9.79523 17.9206 10.5003 18.0506 11.345C18.3255 13.1336 17.6041 15.0818 16.7547 16.6741C15.8933 18.289 14.8376 19.6524 14.2967 20.3089C13.9387 20.7432 13.3743 20.9425 12.8191 20.8177C11.979 20.6285 10.2897 20.1739 8.47833 19.263C6.6696 18.3534 4.70135 16.9694 3.35235 14.9027C2.74713 13.975 3.34385 12.8821 4.24395 12.5911C5.19133 12.2854 6.42938 11.8142 7.20294 11.262C7.86367 10.7903 8.31437 10.2024 8.90802 9.51691C8.95841 9.45872 9.01023 9.40077 9.06231 9.34211C9.09876 9.2827 9.14714 9.23002 9.20489 9.18488C9.72321 8.61908 10.3423 8.04987 11.2244 7.60871C11.9777 7.23218 12.9366 7.04206 13.9022 7.13508L15.5604 4.03059ZM9.57305 10.5853C9.10524 11.1363 8.58912 11.7457 7.9002 12.2376C6.96228 12.9073 5.56718 13.4258 4.61309 13.7337C4.47877 13.7772 4.38262 13.8744 4.33868 13.9779C4.2978 14.0744 4.30428 14.1649 4.35723 14.2464C4.83051 14.9715 5.39541 15.6065 6.00958 16.1634C6.06033 16.0783 6.13143 16.0036 6.22344 15.9505C6.70992 15.67 7.17672 15.2363 7.46954 14.9642C7.71218 14.7387 8.09255 14.752 8.31817 14.9945C8.54375 15.2372 8.52958 15.6175 8.28692 15.8431C8.02586 16.0857 7.51269 16.565 6.93536 16.9202C7.61183 17.4196 8.32023 17.8401 9.01739 18.1907C9.13266 18.2487 9.24903 18.3017 9.36309 18.3558C9.37173 18.3466 9.37917 18.3362 9.38848 18.3275C10.1968 17.5728 10.782 16.7927 11.3533 15.7855C11.5168 15.4972 11.8835 15.3964 12.1717 15.5599C12.4594 15.7235 12.5604 16.0893 12.3973 16.3773C11.8581 17.3277 11.2909 18.1174 10.5525 18.8675C11.6257 19.283 12.5443 19.5255 13.0828 19.6468C13.1902 19.6708 13.2969 19.6359 13.3709 19.5462C13.8877 18.919 14.8878 17.6249 15.6961 16.1097C16.0709 15.4071 16.3906 14.6793 16.6082 13.9642C15.2504 13.8738 13.6948 13.3106 12.3514 12.5921C11.2729 12.0153 10.2652 11.303 9.57305 10.5853ZM14.7469 8.55598C13.7359 8.16013 12.5696 8.27808 11.7615 8.68195C11.2023 8.96159 10.7689 9.30503 10.3807 9.68977C10.9394 10.2892 11.8483 10.9626 12.9178 11.5345C14.2139 12.2276 15.6361 12.7176 16.7723 12.7728C16.8047 12.7743 16.8362 12.78 16.867 12.7864C16.9221 12.3504 16.9267 11.9275 16.865 11.5267C16.601 9.81039 15.7172 8.93605 14.7469 8.55598ZM17.6873 4.26984C17.3026 4.06463 16.8233 4.2104 16.618 4.59504L15.1131 7.41242C15.1371 7.42134 15.1615 7.42944 15.1854 7.43879C15.6479 7.62002 16.0827 7.88024 16.4705 8.22297L18.0115 5.33918C18.2168 4.95451 18.0719 4.47519 17.6873 4.26984Z" fill="#15C674"/>
</svg>
