<svg width="24" height="24" viewBox="0 0 24 24" fill="none" xmlns="http://www.w3.org/2000/svg">
<path d="M12.2622 4.21786L12.3833 4.23543C12.654 4.3022 12.8496 4.55145 12.8384 4.8409C12.8271 5.13077 12.612 5.36419 12.3364 5.40926L12.2153 5.41707L11.9321 5.41122C11.3642 5.41096 10.7902 5.47649 10.2231 5.61141L9.93994 5.68465C7.33934 6.41336 5.83609 8.60098 5.36963 11.3165L5.28955 11.8663C5.2506 12.1953 4.95254 12.4305 4.62354 12.3917C4.29453 12.3528 4.05943 12.0547 4.09814 11.7257L4.13818 11.419C4.59493 8.2676 6.33039 5.45009 9.6167 4.52938L9.9458 4.44442C10.6051 4.28758 11.2724 4.21167 11.9331 4.212L12.2622 4.21786Z" fill="#909090"/>
<path d="M5.20408 16.1598L5.15099 16.0507C5.05365 15.7893 5.14958 15.4874 5.39521 15.3337C5.64095 15.18 5.95455 15.2258 6.14698 15.4278L6.22161 15.5235L6.37675 15.7616C6.69629 16.2312 7.07353 16.6687 7.50428 17.0614L7.7237 17.2534C8.75186 18.1189 9.87283 18.6261 11.1054 18.7713C12.3428 18.917 13.733 18.7023 15.3005 18.0607L15.4174 18.026C15.6916 17.9742 15.974 18.1202 16.0838 18.3885C16.2092 18.6952 16.062 19.0455 15.7555 19.1711L15.4363 19.2975C13.8467 19.9028 12.3561 20.1272 10.965 19.9634C9.47633 19.788 8.14038 19.1725 6.9514 18.1717L6.69591 17.9476C6.19513 17.491 5.75674 16.9822 5.38506 16.4359L5.20408 16.1598Z" fill="#909090"/>
<path d="M7.67773 15.2462C8.00911 15.2462 8.27734 15.5144 8.27734 15.8458C8.27734 16.1772 8.00911 16.4454 7.67773 16.4454H5.97754L5.97754 18.1495L5.96582 18.2696C5.91007 18.5432 5.668 18.7491 5.37793 18.7491C5.08782 18.7491 4.84582 18.5432 4.79004 18.2696L4.77734 18.1495L4.77734 15.8458C4.77734 15.5144 5.04656 15.2462 5.37793 15.2462H7.67773Z" fill="#909090"/>
<path d="M4.03711 12.2677C4.03726 8.74146 6.24761 5.4744 9.62012 4.52938L9.94922 4.44442C10.6085 4.28754 11.2758 4.21171 11.9365 4.212L12.2666 4.21786L12.3867 4.23543C12.6576 4.30203 12.854 4.55129 12.8428 4.8409C12.8315 5.1306 12.6162 5.364 12.3408 5.40926L12.2197 5.41707L11.9365 5.41122C11.3686 5.41093 10.7946 5.47652 10.2275 5.61141L9.94434 5.68465C7.1507 6.46733 5.23745 9.21339 5.2373 12.2677C5.2373 12.599 4.96897 12.8681 4.6377 12.8682C4.30632 12.8682 4.03711 12.599 4.03711 12.2677Z" fill="#909090"/>
<path d="M11.2811 6.86402C11.0681 7.11786 10.6902 7.15093 10.4364 6.93793C10.1825 6.72492 10.1494 6.34702 10.3625 6.09318L11.4559 4.79L10.1498 3.694L10.0645 3.60719C9.89134 3.38863 9.88969 3.07126 10.0759 2.84925C10.2621 2.62726 10.575 2.57388 10.8203 2.70648L10.9212 2.7746L12.6867 4.25602C12.9406 4.46902 12.973 4.84767 12.76 5.10152L11.2811 6.86402Z" fill="#909090"/>
<path d="M18.7911 16.1636L18.7153 16.2597C18.5221 16.4608 18.2085 16.5056 17.9634 16.3511C17.7182 16.1965 17.6233 15.8941 17.7217 15.633L17.7755 15.5242L17.9226 15.2811C18.2068 14.7893 18.4371 14.2595 18.6037 13.7009L18.6814 13.4199C19.0096 12.137 18.806 10.6527 18.1795 9.30293C17.5928 8.03876 16.6553 6.93728 15.5166 6.25897L15.2859 6.12919L15.1855 6.06103C14.9704 5.88321 14.9024 5.5735 15.0384 5.31761C15.1748 5.06159 15.4705 4.94421 15.7382 5.0236L15.85 5.07013L16.1294 5.2269C17.5044 6.0453 18.5938 7.34663 19.2673 8.7977C19.9852 10.3444 20.2542 12.1132 19.844 13.7168L19.7531 14.0443C19.5593 14.6936 19.2913 15.3095 18.9607 15.8815L18.7911 16.1636Z" fill="#909090"/>
<path d="M16.7778 14.2897C16.6588 13.9804 16.8128 13.6337 17.122 13.5147C17.4313 13.3957 17.778 13.5497 17.897 13.8589L18.5077 15.4457L20.0981 14.8336L20.2156 14.802C20.4908 14.7561 20.7692 14.9082 20.8734 15.1788C20.9772 15.4492 20.8724 15.748 20.6376 15.8984L20.5291 15.9537L18.3791 16.7811C18.07 16.9001 17.7234 16.7459 17.6042 16.4369L16.7778 14.2897Z" fill="#909090"/>
<path d="M9.81569 12.0003C9.81569 12.4146 9.47991 12.7503 9.06569 12.7503C8.65148 12.7503 8.31569 12.4146 8.31569 12.0003C8.31569 11.5861 8.65148 11.2503 9.06569 11.2503C9.47991 11.2503 9.81569 11.5861 9.81569 12.0003Z" fill="#909090"/>
<path d="M15.6586 12.0003C15.6586 12.4146 15.3228 12.7503 14.9086 12.7503C14.4944 12.7503 14.1586 12.4146 14.1586 12.0003C14.1586 11.5861 14.4944 11.2503 14.9086 11.2503C15.3228 11.2503 15.6586 11.5861 15.6586 12.0003Z" fill="#909090"/>
<path d="M13.2478 11.9994C13.2478 12.6773 12.6982 13.2269 12.0203 13.2269C11.3423 13.2269 10.7927 12.6773 10.7927 11.9994C10.7927 11.3214 11.3423 10.7718 12.0203 10.7718C12.6982 10.7718 13.2478 11.3214 13.2478 11.9994Z" fill="#909090"/>
<path d="M9.04183 13.9515H14.9979V10.0492H9.04183V13.9515ZM16.1981 14.0511C16.1981 14.6586 15.7059 15.1507 15.0985 15.1507H8.94222C8.3347 15.1507 7.84261 14.6586 7.84261 14.0511V9.94956C7.84261 9.34205 8.3347 8.84996 8.94222 8.84996H15.0985C15.7059 8.85004 16.1981 9.3421 16.1981 9.94956V14.0511Z" fill="#909090"/>
</svg>
