<svg width="24" height="24" viewBox="0 0 24 24" fill="none" xmlns="http://www.w3.org/2000/svg">
<path fill-rule="evenodd" clip-rule="evenodd" d="M5.46651 4.52432C5.98744 4.08595 6.68053 4.11392 7.18721 4.42568L7.28585 4.49307C7.318 4.51644 7.34764 4.53953 7.37276 4.5624L7.43721 4.62783C8.0974 5.32979 8.59931 5.89486 8.9919 6.33779C9.29165 6.67598 9.51703 6.93113 9.70186 7.12295L9.87374 7.29385C9.8951 7.31408 9.92254 7.34169 9.95186 7.3749L10.0427 7.49307C10.2976 7.88857 10.3512 8.40258 10.1189 8.85049L10.0691 8.93838C9.8422 9.30562 9.45788 9.81262 8.85128 10.3095L8.47335 10.5985C8.46612 10.6048 8.46105 10.6109 8.45675 10.6151C8.43298 10.7242 8.4335 10.8948 8.49288 11.1356C8.55545 11.3891 8.67194 11.679 8.83077 11.9833C9.14985 12.5947 9.60418 13.1991 10.0017 13.5966L10.1091 13.703C10.5066 14.1005 11.111 14.5559 11.7224 14.8749C12.0267 15.0337 12.3166 15.1503 12.57 15.2128C12.8103 15.272 12.9805 15.2725 13.0896 15.2489C13.0939 15.2446 13.0996 15.2389 13.1062 15.2313C13.1178 15.2178 13.1315 15.2004 13.1472 15.1786L13.3298 14.9364C13.3907 14.8594 13.4512 14.7851 13.5124 14.7147L13.6843 14.5263C13.9695 14.2249 14.2489 13.9936 14.4929 13.8192L14.7663 13.6366C15.2662 13.328 15.8638 13.3988 16.2937 13.7196C16.3114 13.7329 16.3292 13.7474 16.3454 13.7626L19.1589 16.4169C19.1791 16.436 19.1982 16.4576 19.2155 16.4794C19.6003 16.9621 19.7005 17.6815 19.3112 18.245L19.2273 18.3554C18.9357 18.7018 18.5508 19.0644 18.0739 19.3827L17.8718 19.5106C16.8418 20.1369 15.4315 20.5426 13.6911 20.2216C11.8924 19.8896 9.79949 18.79 7.43331 16.4716C7.42551 16.4646 7.41549 16.4595 7.40792 16.4521L7.25264 16.2968C7.24512 16.2891 7.24018 16.2793 7.23311 16.2714C4.98901 13.9803 3.90201 11.9504 3.55538 10.1952C3.19734 8.38165 3.63895 6.92146 4.30343 5.86514L4.44014 5.65908C4.67113 5.32435 4.92182 5.03518 5.17061 4.79287L5.46651 4.52432ZM4.96553 7.1874C4.6599 7.92841 4.514 8.85299 4.73311 9.96279C5.025 11.4408 5.97745 13.3039 8.18038 15.5272C10.4757 17.8011 12.3966 18.7627 13.9099 19.0419C15.0592 19.2537 16.0073 19.0781 16.7526 18.745L14.0183 16.0116C13.8944 16.1561 13.7055 16.3254 13.4353 16.4003L13.2907 16.4335C12.9532 16.4956 12.603 16.457 12.2819 16.3778C11.9086 16.2857 11.5265 16.1266 11.1657 15.9384C10.4468 15.5631 9.74432 15.0355 9.26046 14.5517L9.15303 14.4452C8.66911 13.9613 8.14166 13.2581 7.76632 12.539C7.57822 12.1785 7.41994 11.7968 7.32784 11.4237C7.23733 11.0568 7.20001 10.6513 7.30538 10.2704L7.3503 10.1405C7.40904 10.0021 7.49293 9.89025 7.57784 9.79971L4.96553 7.1874ZM15.4724 14.6396C15.446 14.6377 15.4216 14.6431 15.3972 14.6581L15.1901 14.7958C15.0738 14.879 14.947 14.9834 14.8112 15.1063L17.7956 18.0907C17.997 17.9218 18.1693 17.7492 18.3093 17.5829L18.3454 17.5185C18.3698 17.4477 18.3639 17.35 18.2927 17.2489C16.9633 15.9896 16.1546 15.2292 15.5632 14.6747C15.529 14.6521 15.4975 14.6414 15.4724 14.6396ZM6.56905 5.45693C6.43207 5.36346 6.30497 5.38799 6.23995 5.44229L6.00753 5.65322C5.86859 5.78858 5.72911 5.94459 5.59346 6.11807L8.48995 9.01357C8.75095 8.74537 8.93113 8.49697 9.04757 8.3085L9.06319 8.27334C9.06614 8.26194 9.0665 8.25 9.06612 8.23818C9.06531 8.21576 9.05716 8.18815 9.03975 8.15713C8.77949 7.90932 8.47347 7.5634 8.09346 7.13467C7.70295 6.69409 7.21305 6.14189 6.56905 5.45693Z" fill="#909090"/>
<path d="M13.2605 7.12686L13.6052 7.22842C15.1673 7.74409 16.0931 8.83269 16.6257 10.162L16.7341 10.4511L16.7624 10.5692C16.7997 10.8455 16.6393 11.1198 16.3659 11.2157C16.0925 11.3115 15.7964 11.1971 15.653 10.9579L15.6013 10.8476L15.5134 10.6142C15.0863 9.54213 14.3903 8.74717 13.2165 8.36318L12.9577 8.28701L12.8435 8.24502C12.5932 8.12182 12.456 7.83596 12.529 7.55557C12.6022 7.27512 12.8618 7.09252 13.1403 7.10732L13.2605 7.12686Z" fill="#909090"/>
<path d="M13.2624 3.8749L13.6198 3.98135C15.3715 4.52475 16.6606 5.22222 17.6521 6.22939C18.7062 7.30035 19.3728 8.6703 19.944 10.4218C20.0465 10.7367 19.8741 11.0749 19.5593 11.1776C19.2444 11.2803 18.9053 11.1087 18.8024 10.7938C18.2559 9.11801 17.6622 7.95063 16.7966 7.07119C16.0421 6.30482 15.0418 5.71731 13.5837 5.23037L12.9304 5.02725L12.8171 4.98232C12.5701 4.85281 12.4401 4.56347 12.5202 4.28506C12.6006 4.00648 12.8651 3.8304 13.1433 3.85244L13.2624 3.8749Z" fill="#909090"/>
</svg>
