<svg width="24" height="24" viewBox="0 0 24 24" fill="none" xmlns="http://www.w3.org/2000/svg">
<path d="M11.7012 4.08882C11.5544 4.47715 11.4523 4.88706 11.3994 5.31245C8.58551 5.60034 6.42482 7.88577 6.4248 10.621C6.42482 12.4051 7.33255 14.2669 8.49805 15.9052C9.65357 17.5294 11.0067 18.8554 11.7764 19.5556C11.9001 19.6678 12.0759 19.6673 12.2002 19.5488C12.9674 18.8172 14.3269 17.4313 15.4902 15.7841C16.5175 14.3295 17.3404 12.7431 17.5332 11.2617C17.963 11.1948 18.3761 11.0768 18.7656 10.914C18.6683 12.862 17.6256 14.8412 16.4707 16.4765C15.2442 18.2131 13.8229 19.6602 13.0283 20.4179C12.4517 20.9674 11.5616 20.9823 10.9688 20.4433C10.1671 19.7139 8.74549 18.3223 7.52051 16.6005C6.30539 14.8925 5.22463 12.7793 5.22461 10.621C5.22463 7.08555 8.11835 4.23971 11.7012 4.08882ZM11.5811 7.51265C11.7052 7.92779 11.8792 8.32142 12.0947 8.68745C12.0635 8.68592 12.0316 8.68357 12 8.68355C10.9482 8.68381 10.0948 9.53694 10.0947 10.5888C10.0948 11.6407 10.9482 12.4938 12 12.4941C13.0518 12.4938 13.9052 11.6407 13.9053 10.5888C13.9053 10.5699 13.9029 10.551 13.9023 10.5322C14.2643 10.7554 14.655 10.9367 15.0674 11.0693C14.8363 12.5558 13.5511 13.6941 12 13.6943C10.2854 13.694 8.89554 12.3035 8.89551 10.5888C8.89555 9.01629 10.0646 7.71738 11.5811 7.51265ZM14.1816 3.45699C14.416 3.22267 14.795 3.22267 15.0293 3.45699L16.7051 5.13277L18.3799 3.45796C18.6142 3.22378 18.9933 3.22369 19.2275 3.45796C19.4618 3.69223 19.4617 4.0713 19.2275 4.30562L17.5527 5.98042L19.2275 7.65523C19.4617 7.88956 19.4618 8.26863 19.2275 8.50288C18.9933 8.73711 18.6142 8.73702 18.3799 8.50288L16.7051 6.82808L15.0293 8.50386C14.795 8.73813 14.4159 8.73815 14.1816 8.50386C13.9473 8.26956 13.9474 7.89052 14.1816 7.6562L15.8574 5.98042L14.1816 4.30464C13.9473 4.07034 13.9474 3.6913 14.1816 3.45699Z" fill="#15C674"/>
</svg>
