<svg width="24" height="24" viewBox="0 0 24 24" fill="none" xmlns="http://www.w3.org/2000/svg">
<path d="M9.00879 4.19635C9.33667 4.20095 9.60029 4.46812 9.60059 4.79596V8.50007C9.60059 8.83128 9.33213 9.09942 9.00098 9.09968C8.66963 9.09964 8.40039 8.83142 8.40039 8.50007V6.15241C6.48901 7.35214 5.2199 9.47815 5.21973 11.8995C5.21973 15.6443 8.2562 18.6807 12.001 18.6807C15.7454 18.6803 18.7812 15.644 18.7812 11.8995C18.781 8.71721 16.7237 6.06411 13.8057 5.32233C13.4849 5.24058 13.2907 4.91474 13.3721 4.59382C13.4538 4.27281 13.7805 4.07863 14.1016 4.16022C17.5712 5.04224 19.9812 8.18891 19.9814 11.8995C19.9814 16.3067 16.4081 19.8795 12.001 19.8799C7.59346 19.8799 4.01953 16.307 4.01953 11.8995C4.01969 9.20252 5.35757 6.8183 7.4043 5.37409L5.09082 5.34186C4.75973 5.33699 4.49543 5.06459 4.5 4.73346C4.50468 4.40218 4.77711 4.13705 5.1084 4.14167L9.00879 4.19635Z" fill="#15C674"/>
<path d="M15.0488 9.42878C15.2727 9.1849 15.6523 9.16806 15.8965 9.39167C16.1406 9.61546 16.1571 9.99504 15.9336 10.2393L11.9404 14.5958C11.7218 14.8343 11.3531 14.8561 11.1074 14.6456L8.56641 12.4678C8.31484 12.2522 8.28633 11.8737 8.50195 11.6221C8.71766 11.3709 9.09618 11.3412 9.34766 11.5567L11.4473 13.3565L15.0488 9.42878Z" fill="#15C674"/>
</svg>
