<svg width="24" height="24" viewBox="0 0 24 24" fill="none" xmlns="http://www.w3.org/2000/svg">
<path d="M11.7012 4.08789C11.5545 4.47621 11.4523 4.88615 11.3994 5.31152C8.58551 5.59941 6.42482 7.88484 6.4248 10.6201C6.4248 12.4042 7.33254 14.266 8.49805 15.9043C9.65358 17.5285 11.0067 18.8545 11.7764 19.5547C11.9001 19.6669 12.0759 19.6664 12.2002 19.5479C12.9674 18.8163 14.3269 17.4303 15.4902 15.7832C16.5175 14.3286 17.3404 12.7422 17.5332 11.2607C17.963 11.1939 18.3762 11.0759 18.7656 10.9131C18.6684 12.861 17.6255 14.8403 16.4707 16.4756C15.2442 18.2122 13.8229 19.6593 13.0283 20.417C12.4517 20.9665 11.5616 20.9814 10.9688 20.4424C10.1671 19.713 8.74549 18.3214 7.52051 16.5996C6.30538 14.8916 5.22461 12.7784 5.22461 10.6201C5.22463 7.08462 8.11835 4.23878 11.7012 4.08789ZM11.5811 7.50879C11.7055 7.92565 11.8792 8.3211 12.0957 8.68848C12.0567 8.68608 12.0171 8.68265 11.9775 8.68262C10.9255 8.68266 10.0723 9.53587 10.0723 10.5879C10.0723 11.6399 10.9255 12.4931 11.9775 12.4932C13.0293 12.4928 13.8828 11.6398 13.8828 10.5879C13.8828 10.564 13.8798 10.5403 13.8789 10.5166C14.2412 10.7426 14.6325 10.9267 15.0459 11.0615C14.8177 12.5513 13.531 13.693 11.9775 13.6934C10.2628 13.6933 8.87305 12.3027 8.87305 10.5879C8.87309 9.00747 10.0536 7.70349 11.5811 7.50879ZM16.7051 2.43359C18.6745 2.43385 20.2705 4.03053 20.2705 6C20.2703 7.96925 18.6743 9.56518 16.7051 9.56543C14.7356 9.56543 13.1389 7.96941 13.1387 6C13.1387 4.03037 14.7355 2.43359 16.7051 2.43359ZM15.5703 8.07715C15.9073 8.26155 16.294 8.36621 16.7051 8.36621C18.0116 8.36596 19.071 7.30651 19.0713 6C19.0713 5.58894 18.9666 5.20218 18.7822 4.86523L15.5703 8.07715ZM16.7051 3.63281C15.3982 3.63281 14.3379 4.69311 14.3379 6C14.338 6.46025 14.4717 6.88853 14.6992 7.25195L17.957 3.99414C17.5936 3.76659 17.1653 3.6329 16.7051 3.63281Z" fill="#15C674"/>
</svg>
