<svg width="24" height="24" viewBox="0 0 24 24" fill="none" xmlns="http://www.w3.org/2000/svg">
<path d="M9.5336 4.27876C10.904 3.84332 12.3671 3.7843 13.768 4.10884C15.1686 4.43338 16.4563 5.12897 17.4955 6.12251C18.5347 7.11611 19.2871 8.37162 19.6742 9.7563C19.7634 10.0754 19.5773 10.4073 19.2582 10.4965C18.9391 10.5856 18.6081 10.3986 18.5189 10.0795C18.1899 8.9023 17.5499 7.83545 16.6664 6.99067C15.7828 6.14582 14.6875 5.55371 13.4965 5.27778C12.3057 5.00199 11.0628 5.05226 9.89785 5.42231C8.73278 5.7925 7.68868 6.46959 6.87539 7.38228C6.06208 8.29504 5.50874 9.40986 5.27481 10.6098C5.04093 11.8096 5.13452 13.0503 5.54531 14.2016C5.95621 15.353 6.66998 16.373 7.61074 17.1538C8.55142 17.9344 9.68473 18.4475 10.892 18.6391C11.2192 18.691 11.4428 18.9985 11.391 19.3256C11.3391 19.6529 11.0308 19.8766 10.7035 19.8247C9.28349 19.5992 7.95056 18.9948 6.84414 18.0766C5.73768 17.1583 4.89871 15.9592 4.41543 14.6049C3.93222 13.2508 3.822 11.7916 4.09707 10.3803C4.37222 8.96894 5.0223 7.65704 5.97891 6.58345C6.93539 5.51006 8.16341 4.7142 9.5336 4.27876ZM13.6479 19.2065V17.7153C13.6483 16.2796 14.8127 15.1155 16.2484 15.1157H19.0619L17.6723 13.7631C17.4348 13.532 17.4294 13.1519 17.6605 12.9145C17.8917 12.6771 18.2718 12.6717 18.5092 12.9028L20.9564 15.2856C21.0725 15.3985 21.1381 15.5543 21.1381 15.7163C21.138 15.878 21.0724 16.0331 20.9564 16.1459L18.5092 18.5288C18.2717 18.7599 17.8917 18.7545 17.6605 18.517C17.4295 18.2796 17.4349 17.8995 17.6723 17.6684L19.06 16.3159H16.2475C15.4745 16.316 14.8482 16.9432 14.848 17.7163L14.8471 19.2065C14.847 19.5379 14.5788 19.8071 14.2475 19.8071C13.9161 19.807 13.6478 19.5379 13.6479 19.2065ZM14.1732 9.37446C14.3893 9.12335 14.7677 9.09505 15.0189 9.31099C15.2701 9.52693 15.2992 9.90541 15.0834 10.1567L11.5863 14.226C11.3706 14.4769 10.992 14.5056 10.7406 14.2905L8.53262 12.3979C8.28114 12.1822 8.25258 11.8038 8.46817 11.5522C8.68382 11.3006 9.06227 11.2711 9.31387 11.4868L11.0658 12.9887L14.1732 9.37446Z" fill="#15C674"/>
</svg>
