<svg width="24" height="24" viewBox="0 0 24 24" fill="none" xmlns="http://www.w3.org/2000/svg">
<path fill-rule="evenodd" clip-rule="evenodd" d="M19.5114 12.583C20.671 12.5833 21.611 13.523 21.611 14.6826V18.3301C21.611 19.4899 20.6702 20.4297 19.5104 20.4297H14.2263C13.0666 20.4296 12.1267 19.4898 12.1267 18.3301V14.6826C12.1267 13.5229 13.0666 12.5831 14.2263 12.583H19.5114ZM17.6784 17.1006C17.1261 17.4732 16.4004 17.4648 15.8571 17.0791L13.3259 15.2803V18.3301C13.3259 18.8271 13.7293 19.2304 14.2263 19.2305H19.5104C20.0075 19.2305 20.4108 18.8271 20.4108 18.3301V15.2568L17.6784 17.1006ZM14.2263 13.7822C13.9927 13.7823 13.7799 13.8715 13.6198 14.0176L16.5524 16.1006C16.6882 16.1968 16.8695 16.1986 17.0075 16.1055L20.1101 14.0117C19.951 13.8695 19.7415 13.7823 19.5114 13.7822H14.2263Z" fill="#15C674"/>
<path d="M9.53779 13.0742C9.85937 12.9952 10.1841 13.1921 10.2634 13.5137C10.3426 13.8353 10.1465 14.1608 9.8249 14.2402C8.49277 14.5686 7.61176 15.1991 7.04365 15.9375C6.50309 16.6403 6.22412 17.4721 6.13447 18.2988H9.68134C10.0125 18.299 10.281 18.5682 10.281 18.8994C10.2808 19.2305 10.0124 19.4988 9.68134 19.499H5.9997C5.40687 19.4988 4.86862 19.0084 4.92158 18.3516L4.9665 17.9512C5.09995 17.0135 5.4446 16.0484 6.09247 15.2061C6.83849 14.2364 7.96151 13.4627 9.53779 13.0742Z" fill="#15C674"/>
<path fill-rule="evenodd" clip-rule="evenodd" d="M12.2292 3.40527C17.123 3.66424 16.6539 11.9372 11.9919 11.9375L11.8093 11.9336C8.07866 11.7598 7.19094 6.26459 9.78486 4.16113L9.91279 4.0625C10.3766 3.72111 11.2684 3.39948 11.9919 3.39941L12.2292 3.40527ZM11.9919 4.59961C11.7919 4.59964 11.518 4.64742 11.2321 4.74219C10.9425 4.83826 10.7261 4.95396 10.6237 5.0293C9.71839 5.69621 9.29085 7.11684 9.59736 8.51367C9.89436 9.86676 10.7585 10.7372 11.9919 10.7373C12.7706 10.7372 13.3481 10.4039 13.7673 9.86621C14.2082 9.30059 14.4773 8.49298 14.4977 7.63965C14.5182 6.78539 14.287 6.00196 13.8747 5.46191C13.4905 4.95882 12.9039 4.59967 11.9919 4.59961Z" fill="#15C674"/>
</svg>
