<svg width="24" height="24" viewBox="0 0 24 24" fill="none" xmlns="http://www.w3.org/2000/svg">
<path fill-rule="evenodd" clip-rule="evenodd" d="M18.0148 12.7432C19.3954 12.7433 20.5148 13.8626 20.5148 15.2432V17.1123C20.5148 18.4929 19.3954 19.6121 18.0148 19.6123H16.716C16.6547 19.7208 16.5779 19.8256 16.4816 19.9219L15.593 20.8096C14.7166 21.6855 13.2184 21.0652 13.218 19.8262V19.4736C12.2379 19.1354 11.5324 18.2073 11.5324 17.1123V15.2432C11.5324 13.8626 12.652 12.7435 14.0324 12.7432H18.0148ZM14.0324 13.9434C13.3145 13.9437 12.7326 14.5256 12.7326 15.2432V17.1123C12.7326 17.6774 13.0961 18.1616 13.6096 18.3389L14.4182 18.6182V19.8262C14.4182 19.8853 14.4332 19.9157 14.4465 19.9346C14.4636 19.9588 14.4941 19.9844 14.5363 20.002C14.5785 20.0194 14.6184 20.0226 14.6477 20.0176C14.6704 20.0136 14.7034 20.0028 14.7453 19.9609L15.633 19.0732C15.6461 19.0602 15.6587 19.0443 15.6711 19.0225L16.0158 18.4121H18.0148C18.688 18.4119 19.2412 17.9004 19.3078 17.2451L19.3146 17.1123V15.2432C19.3146 14.5703 18.8033 14.0169 18.1477 13.9502L18.0148 13.9434H14.0324Z" fill="#15C674"/>
<path d="M9.53828 13.0742C9.85984 12.9953 10.1846 13.1921 10.2639 13.5137C10.343 13.8353 10.1469 14.1608 9.82539 14.2402C8.49303 14.5686 7.61232 15.199 7.04414 15.9375C6.50347 16.6403 6.22462 17.472 6.13496 18.2988H9.68184C10.013 18.2991 10.2814 18.5682 10.2814 18.8994C10.2813 19.2305 10.0129 19.4988 9.68184 19.499H6.00019C5.40719 19.499 4.86908 19.0085 4.92207 18.3516L4.96699 17.9512C5.10046 17.0135 5.44498 16.0485 6.09297 15.2061C6.83905 14.2363 7.96178 13.4627 9.53828 13.0742Z" fill="#15C674"/>
<path fill-rule="evenodd" clip-rule="evenodd" d="M12.2297 3.40527C17.1232 3.66453 16.6541 11.9369 11.9924 11.9375L11.8098 11.9336C8.0789 11.76 7.19121 6.26454 9.78535 4.16113L9.91328 4.0625C10.3772 3.72112 11.2689 3.39941 11.9924 3.39941L12.2297 3.40527ZM11.9924 4.59961C11.7924 4.59961 11.5185 4.64744 11.2326 4.74219C10.943 4.83821 10.7267 4.95394 10.6242 5.0293C9.71876 5.69619 9.29128 7.11673 9.59785 8.51367C9.89487 9.86683 10.7589 10.7373 11.9924 10.7373C12.771 10.7371 13.3486 10.4038 13.7678 9.86621C14.2086 9.3006 14.4778 8.49288 14.4982 7.63965C14.5187 6.78546 14.2875 6.00195 13.8752 5.46191C13.491 4.95881 12.9043 4.59974 11.9924 4.59961Z" fill="#15C674"/>
</svg>
