<svg width="24" height="24" viewBox="0 0 24 24" fill="none" xmlns="http://www.w3.org/2000/svg">
<path d="M17.1738 12C17.1738 9.14268 14.8573 6.82617 12 6.82617C9.14268 6.82617 6.82617 9.14268 6.82617 12C6.82617 14.8573 9.14268 17.1738 12 17.1738C14.8573 17.1738 17.1738 14.8573 17.1738 12ZM18.2734 12C18.2734 15.4648 15.4648 18.2734 12 18.2734C8.53517 18.2734 5.72656 15.4648 5.72656 12C5.72656 8.53517 8.53517 5.72656 12 5.72656C15.4648 5.72656 18.2734 8.53517 18.2734 12Z" fill="#333333"/>
<path d="M11.3896 9.14355C11.3896 8.8398 11.6357 8.59375 11.9395 8.59375C12.2432 8.59375 12.4893 8.8398 12.4893 9.14355V11.5293H14.4102L14.5205 11.54C14.7712 11.5912 14.9598 11.8133 14.96 12.0791C14.96 12.345 14.7713 12.567 14.5205 12.6182L14.4102 12.6289H11.9395C11.7938 12.6289 11.6539 12.5717 11.5508 12.4688C11.4476 12.3656 11.3896 12.225 11.3896 12.0791V9.14355Z" fill="#333333"/>
</svg>
