<svg width="24" height="24" viewBox="0 0 24 24" fill="none" xmlns="http://www.w3.org/2000/svg">
<path d="M15.3848 12C15.3848 10.1305 13.8695 8.61523 12 8.61523C10.1305 8.61523 8.61523 10.1305 8.61523 12C8.61523 13.8695 10.1305 15.3848 12 15.3848C13.8695 15.3848 15.3848 13.8695 15.3848 12ZM16.2852 12C16.2852 14.3665 14.3665 16.2852 12 16.2852C9.63348 16.2852 7.71484 14.3665 7.71484 12C7.71484 9.63348 9.63348 7.71484 12 7.71484C14.3665 7.71484 16.2852 9.63348 16.2852 12Z" fill="#333333"/>
<path d="M11.5098 10.0869C11.5098 9.83839 11.7114 9.63672 11.96 9.63672C12.2085 9.63672 12.4102 9.83839 12.4102 10.0869V11.6035H13.6152L13.7061 11.6133C13.9109 11.6553 14.0653 11.8364 14.0654 12.0537C14.0654 12.2711 13.9111 12.4531 13.7061 12.4951L13.6152 12.5039H11.96C11.8406 12.5039 11.726 12.4565 11.6416 12.3721C11.5573 12.2877 11.5098 12.173 11.5098 12.0537V10.0869Z" fill="#333333"/>
</svg>
