<svg width="24" height="24" viewBox="0 0 24 24" fill="none" xmlns="http://www.w3.org/2000/svg">
<path d="M11.9502 9.13184C12.2261 9.1321 12.4502 9.35586 12.4502 9.63184V11.5664H13.999L14.0996 11.5762C14.3272 11.623 14.499 11.825 14.499 12.0664C14.4989 12.3077 14.3271 12.5088 14.0996 12.5557L13.999 12.5664H11.9502C11.8177 12.5664 11.6904 12.5135 11.5967 12.4199C11.503 12.3262 11.4502 12.199 11.4502 12.0664V9.63184C11.4502 9.35569 11.6741 9.13184 11.9502 9.13184Z" fill="#333333"/>
<path fill-rule="evenodd" clip-rule="evenodd" d="M12 6.75391C14.8973 6.75391 17.2461 9.10267 17.2461 12C17.2461 14.8973 14.8973 17.2461 12 17.2461C9.10267 17.2461 6.75391 14.8973 6.75391 12C6.75391 9.10267 9.10267 6.75391 12 6.75391ZM12 7.75391C9.65495 7.75391 7.75391 9.65495 7.75391 12C7.75391 14.345 9.65495 16.2461 12 16.2461C14.345 16.2461 16.2461 14.345 16.2461 12C16.2461 9.65495 14.345 7.75391 12 7.75391Z" fill="#333333"/>
</svg>
