<svg width="24" height="24" viewBox="0 0 24 24" fill="none" xmlns="http://www.w3.org/2000/svg">
<path d="M12 4C16.4183 4 20 7.58173 20 12C20 16.4183 16.4183 20 12 20C7.58173 20 4 16.4183 4 12C4 7.58173 7.58173 4 12 4ZM12 5.2002C8.24447 5.2002 5.2002 8.24447 5.2002 12C5.2002 15.7555 8.24447 18.7998 12 18.7998C15.7555 18.7998 18.7998 15.7555 18.7998 12C18.7998 8.24447 15.7555 5.2002 12 5.2002ZM11.915 7.40723C12.2464 7.40723 12.5146 7.67547 12.5146 8.00684V11.5098H15.3682L15.4893 11.5225C15.7625 11.5785 15.9678 11.8205 15.9678 12.1104C15.9677 12.4002 15.7625 12.6422 15.4893 12.6982L15.3682 12.71H11.915C11.7559 12.71 11.6037 12.6467 11.4912 12.5342C11.3787 12.4217 11.3155 12.2694 11.3154 12.1104V8.00684C11.3154 7.67547 11.5837 7.40723 11.915 7.40723Z" fill="#333333"/>
</svg>
