<svg width="24" height="24" viewBox="0 0 24 24" fill="none" xmlns="http://www.w3.org/2000/svg">
<path d="M9.91483 4.90039C11.534 4.91819 13.0056 5.79336 13.7605 7.16602C14.0585 7.10159 14.3635 7.0693 14.6697 7.06934L14.8914 7.0752C17.0603 7.18563 18.8023 8.90481 18.9676 11.0625C20.5567 11.7048 21.6238 13.2241 21.6004 14.9414L21.5984 14.9404C21.6354 17.2029 19.7829 19.0383 17.4871 19.0996H7.82108C7.8113 19.0996 7.80144 19.0972 7.79178 19.0967C7.7546 19.098 7.70883 19.0996 7.6658 19.0996C4.84639 19.0996 2.54892 16.8765 2.40799 14.0859L2.40115 13.8145C2.37974 11.7392 3.61226 9.87065 5.50955 8.99609C5.68038 6.70845 7.58012 4.90039 9.90799 4.90039H9.91483ZM9.90311 6.09961C8.13349 6.10221 6.69608 7.54617 6.69608 9.33203V9.35645C6.71552 9.6219 6.55752 9.86933 6.30838 9.96289C4.6491 10.5847 3.58203 12.122 3.60135 13.8066V13.8145C3.60159 16.0733 5.42347 17.9004 7.6658 17.9004C7.70517 17.9004 7.73828 17.8985 7.80252 17.8965C7.82247 17.8959 7.84235 17.899 7.86209 17.9004H17.4549C19.14 17.8555 20.4336 16.5154 20.4002 14.9453C20.4 14.9385 20.4001 14.9316 20.4002 14.9248C20.4179 13.6259 19.5389 12.451 18.2127 12.0664C17.9562 11.9921 17.7791 11.7573 17.7791 11.4902C17.7791 11.4621 17.7805 11.4353 17.781 11.4219C17.7817 11.4052 17.782 11.4009 17.782 11.3984C17.782 9.6686 16.3853 8.26968 14.6697 8.26953C14.3173 8.26948 13.9674 8.32943 13.6375 8.44629C13.3324 8.55418 12.9966 8.40002 12.8787 8.09863C12.417 6.91877 11.2416 6.1149 9.90311 6.09961ZM13.4568 10.5039C13.6911 10.2697 14.0702 10.2696 14.3045 10.5039C14.5386 10.7382 14.5386 11.1173 14.3045 11.3516L12.7254 12.9307L14.3045 14.5098C14.5386 14.7441 14.5386 15.1231 14.3045 15.3574C14.0702 15.5917 13.6911 15.5916 13.4568 15.3574L11.8777 13.7783L10.2986 15.3574C10.0643 15.5917 9.68528 15.5916 9.45096 15.3574C9.21664 15.1231 9.21664 14.7441 9.45096 14.5098L11.0301 12.9307L9.45096 11.3516C9.21664 11.1172 9.21664 10.7382 9.45096 10.5039C9.68528 10.2697 10.0643 10.2696 10.2986 10.5039L11.8777 12.083L13.4568 10.5039Z" fill="#15C674"/>
</svg>
