<svg width="24" height="24" viewBox="0 0 24 24" fill="none" xmlns="http://www.w3.org/2000/svg">
<path d="M17.4043 14.5507C17.7357 14.5507 18.0039 14.819 18.0039 15.1503V17.0507H19.9043L20.0254 17.0624C20.2987 17.1184 20.5039 17.3604 20.5039 17.6503C20.5039 17.9402 20.2987 18.1822 20.0254 18.2382L19.9043 18.2499H18.0039V20.1503C18.0039 20.4817 17.7356 20.7499 17.4043 20.7499C17.0729 20.7499 16.8047 20.4817 16.8047 20.1503V18.2499H14.9043C14.5729 18.2499 14.3047 17.9817 14.3047 17.6503C14.3047 17.319 14.5729 17.0507 14.9043 17.0507H16.8047V15.1503C16.8047 14.819 17.0729 14.5507 17.4043 14.5507ZM10.4121 3.79388C11.4847 3.26648 12.7557 3.30437 13.7998 3.90716L18.1084 6.39447L18.3125 6.52142C19.3056 7.18658 19.9092 8.30687 19.9092 9.51263V12.6728C19.9091 13.0041 19.6399 13.2734 19.3086 13.2734C18.9773 13.2733 18.709 13.0041 18.709 12.6728V9.51263C18.709 8.70881 18.3066 7.96194 17.6445 7.51849L17.5088 7.43353L13.2002 4.94623C12.504 4.54431 11.6565 4.51936 10.9414 4.87103L10.7998 4.94623L6.49121 7.43353C5.7487 7.86226 5.29102 8.65523 5.29102 9.51263V14.4931C5.29109 15.348 5.74617 16.1387 6.48535 16.5683L10.6104 18.9648L10.8311 19.08C11.3565 19.3249 11.9481 19.3987 12.5215 19.288C12.8468 19.2253 13.1618 19.4383 13.2246 19.7636C13.2874 20.0889 13.0743 20.4039 12.749 20.4667C11.8678 20.6369 10.9565 20.5025 10.1641 20.0888L10.0068 20.0019L5.88281 17.6054C4.77394 16.9611 4.09187 15.7756 4.0918 14.4931V9.51263C4.0918 8.22649 4.77777 7.03755 5.8916 6.39447L10.2002 3.90716L10.4121 3.79388ZM11.0742 7.08783C11.6998 6.78035 12.4418 6.80166 13.0508 7.15326L15.6758 8.66986L15.7949 8.7431C16.3741 9.13114 16.7256 9.78499 16.7256 10.4882V12.3417C16.7256 12.6729 16.4571 12.942 16.126 12.9423C15.7946 12.9423 15.5264 12.6731 15.5264 12.3417V10.4882C15.5264 10.207 15.3941 9.9443 15.1748 9.77533L15.0762 9.70892L12.4502 8.19232C12.2067 8.0519 11.9131 8.03423 11.6572 8.13959L11.5508 8.19232L8.9248 9.70892C8.64651 9.86973 8.47461 10.1668 8.47461 10.4882V13.5195C8.47463 13.8409 8.64653 14.138 8.9248 14.2988L12.3008 16.248C12.5871 16.4138 12.6857 16.7806 12.5205 17.0673C12.3549 17.3542 11.9871 17.4524 11.7002 17.287L8.3252 15.3378C7.67551 14.9627 7.27541 14.2697 7.27539 13.5195V10.4882C7.27539 9.73798 7.67549 9.045 8.3252 8.66986L10.9502 7.15326L11.0742 7.08783Z" fill="#909090"/>
</svg>
