<svg width="24" height="24" viewBox="0 0 24 24" fill="none" xmlns="http://www.w3.org/2000/svg">
<path d="M13.6445 8.37402C13.8253 8.09654 14.197 8.01766 14.4746 8.19824C14.7522 8.3789 14.8308 8.75061 14.6504 9.02832L10.3555 15.6289C10.1748 15.9065 9.80308 15.9852 9.52539 15.8047C9.24775 15.624 9.16909 15.2523 9.34961 14.9746L13.6445 8.37402Z" fill="#15C674"/>
<path fill-rule="evenodd" clip-rule="evenodd" d="M16.499 4.60156C18.1004 4.60183 19.3993 5.8996 19.3994 7.50098V16.499C19.3994 18.1005 18.1004 19.3991 16.499 19.3994H7.50098C5.89944 19.3993 4.60059 18.1006 4.60059 16.499V7.50098C4.60069 5.89951 5.89951 4.60167 7.50098 4.60156H16.499ZM7.50098 5.80078C6.56225 5.80089 5.80089 6.56225 5.80078 7.50098V16.499C5.80078 17.4378 6.56218 18.1991 7.50098 18.1992H16.499C17.4377 18.199 18.1992 17.4377 18.1992 16.499V7.50098C18.1991 6.56235 17.4376 5.80105 16.499 5.80078H7.50098Z" fill="#15C674"/>
</svg>
