<svg width="24" height="24" viewBox="0 0 24 24" fill="none" xmlns="http://www.w3.org/2000/svg">
<path d="M14.9938 4.89926C16.0382 4.16537 17.4646 4.98819 17.3512 6.25961L16.2887 18.1746L16.2731 18.2967C16.0682 19.5276 14.4947 19.9934 13.6569 19.0194L10.8619 15.7694C10.6679 15.5438 10.4114 15.3819 10.1266 15.3026L10.0026 15.2743L5.79066 14.4784C4.52806 14.2398 4.14494 12.6432 5.10902 11.8504L5.20667 11.7772L14.9938 4.89926ZM16.1559 6.15316C16.1786 5.89892 15.8931 5.73407 15.6842 5.8807L5.89613 12.7586C5.67952 12.9112 5.75284 13.2494 6.01331 13.2987L10.2252 14.0946C10.8267 14.2082 11.372 14.5231 11.7711 14.9871L14.567 18.2371C14.74 18.4381 15.0698 18.3324 15.0934 18.0682L16.1559 6.15316Z" fill="#15C674"/>
</svg>
