<svg width="24" height="24" viewBox="0 0 24 24" fill="none" xmlns="http://www.w3.org/2000/svg">
<path d="M16.7939 19.9922V18.0918H14.8945C14.5632 18.0918 14.2939 17.8236 14.2939 17.4922C14.2939 17.1609 14.5632 16.8926 14.8945 16.8926H16.7939V14.9922C16.7939 14.6609 17.0632 14.3926 17.3945 14.3926C17.7257 14.3929 17.9941 14.661 17.9941 14.9922V16.8926H19.8945C20.2257 16.8929 20.4941 17.161 20.4941 17.4922C20.4941 17.8234 20.2257 18.0916 19.8945 18.0918H17.9941V19.9922C17.9941 20.3234 17.7257 20.5916 17.3945 20.5918C17.0632 20.5918 16.7939 20.3236 16.7939 19.9922ZM11 14.9004C11.3314 14.9004 11.5996 15.1687 11.5996 15.5C11.5996 15.8314 11.3314 16.0996 11 16.0996H8C7.66863 16.0996 7.40039 15.8314 7.40039 15.5C7.40039 15.1687 7.66863 14.9004 8 14.9004H11ZM18.4004 12.5547V10.8194C18.4002 10.6289 18.2649 10.4651 18.0781 10.4278L14.5996 9.73051V13.4659C14.5996 13.7972 14.3314 14.0664 14 14.0664C13.6686 14.0664 13.4004 13.7972 13.4004 13.4659V6.49125C13.4001 5.91637 12.8539 5.48584 12.2812 5.62797L12.2695 5.6309L12.2578 5.63285L6.28125 6.87016L6.13574 6.91899C5.81296 7.06008 5.59961 7.37907 5.59961 7.73442V18.4004H12.2334C12.5648 18.4004 12.833 18.6687 12.833 19C12.833 19.3314 12.5648 19.5996 12.2334 19.5996H4C3.66863 19.5996 3.40039 19.3314 3.40039 19C3.40039 18.6687 3.66863 18.4004 4 18.4004H4.40039V7.73442C4.40039 6.77246 5.05829 5.93703 5.99121 5.70512L6.00293 5.70219L6.01465 5.70024L12.0146 4.45805V4.45902C13.3271 4.14787 14.5994 5.13463 14.5996 6.49125V8.50785L18.3135 9.25102C19.0612 9.40056 19.5994 10.0569 19.5996 10.8194V12.5547C19.5996 12.8861 19.3314 13.1553 19 13.1553C18.6686 13.1553 18.4004 12.8861 18.4004 12.5547ZM11 11.9004C11.3314 11.9004 11.5996 12.1687 11.5996 12.5C11.5996 12.8314 11.3314 13.0996 11 13.0996H8C7.66863 13.0996 7.40039 12.8314 7.40039 12.5C7.40039 12.1687 7.66863 11.9004 8 11.9004H11ZM11 8.90043C11.3314 8.90043 11.5996 9.16867 11.5996 9.50004C11.5996 9.83141 11.3314 10.0996 11 10.0996H8C7.66863 10.0996 7.40039 9.83141 7.40039 9.50004C7.40039 9.16867 7.66863 8.90043 8 8.90043H11Z" fill="#15C674"/>
</svg>
