<svg width="24" height="24" viewBox="0 0 24 24" fill="none" xmlns="http://www.w3.org/2000/svg">
<path d="M17.7461 15.1983C17.9804 14.964 18.3604 14.964 18.5947 15.1983L20.8516 17.4561C20.8944 17.4989 20.9269 17.5479 20.9541 17.5987C20.9992 17.6829 21.0273 17.7777 21.0273 17.8799C21.0273 17.9403 21.0156 17.9978 20.999 18.0528C20.9935 18.0711 20.9887 18.0896 20.9814 18.1075C20.9811 18.1084 20.9809 18.1094 20.9805 18.1104C20.9764 18.1202 20.9704 18.1291 20.9658 18.1387C20.9373 18.1983 20.9009 18.2554 20.8516 18.3047L18.5947 20.5616C18.3604 20.7959 17.9804 20.7959 17.7461 20.5616C17.5121 20.3273 17.5121 19.9481 17.7461 19.7139L18.9805 18.4795H14.9219C14.5905 18.4795 14.3223 18.2113 14.3223 17.8799C14.3223 17.5486 14.5905 17.2803 14.9219 17.2803H18.9805L17.7461 16.0469C17.5118 15.8126 17.5118 15.4326 17.7461 15.1983Z" fill="#15C674"/>
<path d="M12.0146 4.45902C13.327 4.14788 14.5993 5.13467 14.5996 6.49124V8.50785L18.3135 9.25101C19.0612 9.40055 19.5994 10.0569 19.5996 10.8194V12.3448C19.5994 12.6759 19.3312 12.9444 19 12.9444C18.6688 12.9444 18.4006 12.6759 18.4004 12.3448V10.8194C18.4002 10.6289 18.2649 10.4651 18.0781 10.4278L14.5996 9.7305V13.6172C14.5996 13.9486 14.3314 14.2168 14 14.2168C13.6686 14.2168 13.4004 13.9486 13.4004 13.6172V6.49124C13.4001 5.9164 12.8539 5.48586 12.2812 5.62796L12.2695 5.63089L12.2578 5.63285L6.28125 6.87015L6.13574 6.91898C5.81298 7.06006 5.59964 7.3791 5.59961 7.73441V18.4004H11.4873C11.8187 18.4004 12.0869 18.6687 12.0869 19C12.0869 19.3314 11.8187 19.5996 11.4873 19.5996H4C3.66863 19.5996 3.40039 19.3314 3.40039 19C3.40041 18.6687 3.66864 18.4004 4 18.4004H4.40039V7.73441C4.40043 6.77248 5.05831 5.93702 5.99121 5.70511L6.00293 5.70218L6.01465 5.70023L12.0146 4.45902Z" fill="#15C674"/>
<path d="M11 14.9004C11.3314 14.9004 11.5996 15.1687 11.5996 15.5C11.5996 15.8314 11.3314 16.0996 11 16.0996H8C7.66863 16.0996 7.40039 15.8314 7.40039 15.5C7.40041 15.1687 7.66864 14.9004 8 14.9004H11Z" fill="#15C674"/>
<path d="M16.5 11.4004C16.8314 11.4004 17.0996 11.6687 17.0996 12V12.5996C17.0996 12.931 16.8313 13.1993 16.5 13.1993C16.1687 13.1993 15.9004 12.931 15.9004 12.5996V12C15.9004 11.6687 16.1686 11.4004 16.5 11.4004Z" fill="#15C674"/>
<path d="M11 11.9004C11.3314 11.9004 11.5996 12.1687 11.5996 12.5C11.5996 12.8314 11.3314 13.0996 11 13.0996H8C7.66863 13.0996 7.40039 12.8314 7.40039 12.5C7.40041 12.1687 7.66864 11.9004 8 11.9004H11Z" fill="#15C674"/>
<path d="M11 8.90042C11.3314 8.90042 11.5996 9.16868 11.5996 9.50003C11.5996 9.8314 11.3314 10.0996 11 10.0996H8C7.66863 10.0996 7.40039 9.8314 7.40039 9.50003C7.40041 9.16868 7.66864 8.90042 8 8.90042H11Z" fill="#15C674"/>
</svg>
