<svg width="24" height="24" viewBox="0 0 24 24" fill="none" xmlns="http://www.w3.org/2000/svg">
<path d="M10.3032 5.98483C11.2404 5.04801 12.7596 5.04805 13.6968 5.98483L19.1118 11.3999H20.8267C21.1578 11.4001 21.4262 11.6683 21.4263 11.9995C21.4263 12.3307 21.1578 12.5988 20.8267 12.5991H19.1128L13.6968 18.0141C12.7596 18.951 11.2404 18.9511 10.3032 18.0141L4.88818 12.5991H3.03271C2.70134 12.5991 2.43311 12.3308 2.43311 11.9995C2.43315 11.6681 2.70137 11.3999 3.03271 11.3999H4.88916L10.3032 5.98483ZM12.8481 6.83346C12.3796 6.36531 11.6204 6.36527 11.1519 6.83346L5.98486 11.9995L11.1519 17.1655C11.6204 17.6338 12.3796 17.6338 12.8481 17.1655L18.0142 11.9995L12.8481 6.83346Z" fill="#15C674"/>
</svg>
