<svg width="24" height="24" viewBox="0 0 24 24" fill="none" xmlns="http://www.w3.org/2000/svg">
<path d="M19.7627 12C19.7627 9.94109 18.0931 8.27148 16.0342 8.27148H14.2314C13.9001 8.27148 13.6318 8.00325 13.6318 7.67188C13.6318 7.3405 13.9001 7.07227 14.2314 7.07227H16.0342C18.7558 7.07227 20.9629 9.27835 20.9629 12C20.9628 14.7216 18.7558 16.9277 16.0342 16.9277H14.2314C13.9002 16.9277 13.632 16.6594 13.6318 16.3281C13.6318 15.9968 13.9001 15.7275 14.2314 15.7275H16.0342C18.093 15.7275 19.7626 14.0589 19.7627 12Z" fill="#15C674"/>
<path d="M15.8936 11.4004C16.2249 11.4004 16.4941 11.6686 16.4941 12C16.4941 12.3314 16.2249 12.5996 15.8936 12.5996H8.18359C7.85222 12.5996 7.58398 12.3314 7.58398 12C7.58398 11.6686 7.85222 11.4004 8.18359 11.4004H15.8936Z" fill="#15C674"/>
<path d="M4.23682 12C4.23682 14.0589 5.90642 15.7285 7.96533 15.7285H9.76807C10.0994 15.7285 10.3677 15.9968 10.3677 16.3281C10.3677 16.6595 10.0994 16.9277 9.76807 16.9277H7.96533C5.24368 16.9277 3.03662 14.7217 3.03662 12C3.03669 9.27841 5.24372 7.07227 7.96533 7.07227H9.76807C10.0993 7.07227 10.3675 7.34063 10.3677 7.67188C10.3677 8.00325 10.0994 8.27246 9.76807 8.27246H7.96533C5.90647 8.27246 4.23689 9.94115 4.23682 12Z" fill="#15C674"/>
</svg>
