<svg width="24" height="24" viewBox="0 0 24 24" fill="none" xmlns="http://www.w3.org/2000/svg">
<path d="M17.3164 14.8994C17.5507 14.6651 17.9307 14.6651 18.165 14.8994L20.416 17.1514C20.4178 17.1531 20.4201 17.1545 20.4219 17.1562C20.4658 17.2001 20.4989 17.2505 20.5264 17.3027C20.5347 17.3186 20.5438 17.334 20.5508 17.3506C20.5585 17.3691 20.5636 17.3882 20.5693 17.4072C20.5861 17.4625 20.5977 17.5203 20.5977 17.5811C20.5977 17.6773 20.5725 17.7671 20.5322 17.8477C20.5216 17.8689 20.5123 17.891 20.499 17.9111C20.4771 17.9444 20.4511 17.9756 20.4219 18.0049L18.165 20.2617C17.9307 20.496 17.5507 20.496 17.3164 20.2617C17.0824 20.0275 17.0824 19.6483 17.3164 19.4141L18.5498 18.1807H14.4922C14.1608 18.1807 13.8926 17.9124 13.8926 17.5811C13.8926 17.2497 14.1608 16.9814 14.4922 16.9814H18.5508L17.3164 15.748C17.0821 15.5137 17.0821 15.1337 17.3164 14.8994Z" fill="#15C674"/>
<path d="M15.0127 4.10352C16.4484 4.10378 17.6123 5.26735 17.6123 6.70312V11.791C17.6123 12.1222 17.3438 12.3904 17.0127 12.3906C16.6813 12.3906 16.4121 12.1224 16.4121 11.791V6.70312C16.4121 5.93009 15.7857 5.303 15.0127 5.30273H7.40039C6.62719 5.30273 6 5.92993 6 6.70312V17.3027C6.00013 18.0758 6.62727 18.7021 7.40039 18.7021H11.415C11.7464 18.7021 12.0156 18.9714 12.0156 19.3027C12.0155 19.634 11.7463 19.9023 11.415 19.9023H7.40039C5.96453 19.9023 4.80091 18.7386 4.80078 17.3027V6.70312C4.80078 5.26718 5.96445 4.10352 7.40039 4.10352H15.0127Z" fill="#15C674"/>
<path d="M11.2246 12.4883C11.9171 12.4883 12.6735 12.5763 13.3564 12.8428C13.6649 12.9634 13.8176 13.3116 13.6973 13.6201C13.5769 13.9285 13.2294 14.0809 12.9209 13.9609C12.4234 13.7668 11.8275 13.6875 11.2246 13.6875C10.4793 13.6875 9.75684 13.8086 9.21191 14.1084C8.73923 14.3686 8.38079 14.7715 8.24805 15.4326H11.2246C11.5557 15.4328 11.8241 15.7011 11.8242 16.0322C11.8242 16.3635 11.5558 16.6326 11.2246 16.6328H8.0918C7.50913 16.6328 6.93861 16.1411 7.02832 15.4551L7.0625 15.2393C7.2609 14.1872 7.8597 13.4826 8.63379 13.0566C9.4284 12.6196 10.3802 12.4883 11.2246 12.4883Z" fill="#15C674"/>
<path d="M18.5977 5.95215C19.4458 6.5705 19.998 7.5704 19.998 8.7002V11.9932C19.9978 12.3796 19.6843 12.6924 19.2979 12.6924C18.9205 12.6924 18.6151 12.3942 18.6006 12.0205V6C18.6006 5.984 18.5979 5.96808 18.5977 5.95215Z" fill="#15C674"/>
<path fill-rule="evenodd" clip-rule="evenodd" d="M11.4727 7.29688C14.0392 7.5755 13.7484 12.0315 11.2158 12.0322L11.0166 12.0234C9.07232 11.839 8.60381 8.9557 9.92969 7.76562L10.0674 7.65234C10.3235 7.46247 10.8164 7.2832 11.2158 7.2832L11.4727 7.29688ZM11.2158 8.4834C11.1791 8.4834 11.0869 8.49442 10.9678 8.53418C10.9138 8.55221 10.8662 8.5726 10.8291 8.59082C10.8023 8.60403 10.7869 8.61327 10.7822 8.61621C10.5003 8.82572 10.2793 9.37445 10.4189 10.0156C10.5496 10.6151 10.8721 10.833 11.2158 10.833C11.4603 10.8329 11.6275 10.738 11.7686 10.5557C11.9313 10.3452 12.0525 10.0105 12.0615 9.62891C12.0705 9.24639 11.9654 8.93506 11.8252 8.75C11.7134 8.60248 11.5478 8.48354 11.2158 8.4834Z" fill="#15C674"/>
</svg>
