<svg width="24" height="24" viewBox="0 0 24 24" fill="none" xmlns="http://www.w3.org/2000/svg">
<path d="M18.957 8.58008C19.721 9.14995 20.2178 10.0584 20.2178 11.085V16.2764C20.2177 18.0029 18.8183 19.4033 17.0918 19.4033H9.57129C8.51678 19.4033 7.58665 18.8791 7.02051 18.0791C7.18905 18.1145 7.36388 18.1348 7.54297 18.1348H9.06934C9.22951 18.1779 9.3975 18.2031 9.57129 18.2031H17.0918C18.1556 18.2031 19.0184 17.3401 19.0186 16.2764V11.085C19.0186 10.9204 18.9959 10.7609 18.957 10.6084V8.58008Z" fill="#909090"/>
<path d="M11.4932 12.9668C11.7667 13.0226 11.9727 13.2646 11.9727 13.5547C11.9727 13.8447 11.7667 14.0867 11.4932 14.1426L11.3721 14.1543H7.19629C6.86492 14.1543 6.59668 13.8861 6.59668 13.5547C6.59668 13.2233 6.86492 12.9551 7.19629 12.9551H11.3721L11.4932 12.9668Z" fill="#909090"/>
<path d="M14.2988 10.1836C14.5724 10.2394 14.7783 10.4814 14.7783 10.7715C14.7783 11.0615 14.5724 11.3035 14.2988 11.3594L14.1777 11.3711H7.19629C6.86492 11.3711 6.59668 11.1029 6.59668 10.7715C6.59668 10.4401 6.86492 10.1719 7.19629 10.1719H14.1777L14.2988 10.1836Z" fill="#909090"/>
<path d="M8.24512 7.42383C8.51845 7.47983 8.72363 7.72182 8.72363 8.01172C8.72363 8.30162 8.51845 8.5436 8.24512 8.59961L8.12402 8.61133H7.04395C6.71257 8.61133 6.44434 8.34309 6.44434 8.01172C6.44434 7.68035 6.71257 7.41211 7.04395 7.41211H8.12402L8.24512 7.42383Z" fill="#909090"/>
<path d="M14.2988 7.42383C14.5725 7.47961 14.7783 7.72161 14.7783 8.01172C14.7783 8.30182 14.5725 8.54383 14.2988 8.59961L14.1787 8.61133H10.4863C10.155 8.61133 9.88672 8.34309 9.88672 8.01172C9.88672 7.68035 10.155 7.41211 10.4863 7.41211H14.1787L14.2988 7.42383Z" fill="#909090"/>
<path fill-rule="evenodd" clip-rule="evenodd" d="M15.3086 4.69922C16.791 4.69922 17.993 5.90047 17.9932 7.38281V14.4941C17.9932 15.9766 16.791 17.1787 15.3086 17.1787H6.43359C4.95125 17.1786 3.75 15.9765 3.75 14.4941V7.38281C3.75012 5.90054 4.95132 4.69934 6.43359 4.69922H15.3086ZM6.43359 5.89844C5.61407 5.89856 4.94934 6.56328 4.94922 7.38281V14.4941C4.94922 15.3138 5.61399 15.9784 6.43359 15.9785H15.3086C16.1283 15.9785 16.793 15.3138 16.793 14.4941V7.38281C16.7928 6.56321 16.1282 5.89844 15.3086 5.89844H6.43359Z" fill="#909090"/>
</svg>
