<svg width="24" height="24" viewBox="0 0 24 24" fill="none" xmlns="http://www.w3.org/2000/svg">
<path d="M12 20.1797C12.3313 20.1798 12.5996 20.449 12.5996 20.7803V21.5352C12.5993 21.8662 12.3311 22.1346 12 22.1348C11.6688 22.1348 11.4007 21.8663 11.4004 21.5352V20.7803C11.4004 20.4489 11.6686 20.1797 12 20.1797Z" fill="#909090"/>
<path d="M5.36719 17.7842C5.60142 17.5499 5.98149 17.5491 6.21582 17.7832C6.45001 18.0174 6.44975 18.3975 6.21582 18.6318L5.68164 19.166C5.44741 19.4002 5.06832 19.4001 4.83398 19.166C4.59967 18.9317 4.59968 18.5527 4.83398 18.3184L5.36719 17.7842Z" fill="#909090"/>
<path d="M17.7832 17.7832C18.0175 17.549 18.3975 17.5501 18.6318 17.7842L19.166 18.3184C19.4001 18.5527 19.4003 18.9318 19.166 19.166C18.9318 19.4003 18.5527 19.4001 18.3184 19.166L17.7842 18.6318C17.5501 18.3975 17.549 18.0174 17.7832 17.7832Z" fill="#909090"/>
<path fill-rule="evenodd" clip-rule="evenodd" d="M10.8418 7.75195C11.328 7.6076 11.7896 7.7549 12.1094 8.04688C12.4194 8.33006 12.5996 8.74699 12.5996 9.18457V14.8154C12.5996 15.253 12.4193 15.67 12.1094 15.9531C11.8296 16.2085 11.4416 16.3526 11.0234 16.2881L10.8418 16.2471C9.05468 15.7161 7.77449 14.0018 7.77441 12C7.77444 9.99809 9.05454 8.28289 10.8418 7.75195ZM11.1836 8.90234C9.92565 9.27601 8.97366 10.5078 8.97363 12C8.9737 13.4921 9.92579 14.7229 11.1836 15.0967L11.2197 15.1035C11.2293 15.1038 11.2374 15.102 11.2432 15.1006C11.2566 15.0971 11.2764 15.0877 11.2998 15.0664C11.3506 15.02 11.3994 14.93 11.3994 14.8154V9.18457C11.3994 9.06991 11.3507 8.97907 11.2998 8.93262C11.2765 8.91144 11.2565 8.90189 11.2432 8.89844C11.2374 8.89703 11.2293 8.89624 11.2197 8.89648L11.1836 8.90234Z" fill="#909090"/>
<path fill-rule="evenodd" clip-rule="evenodd" d="M12 4.8418C15.9535 4.8419 19.1582 8.04648 19.1582 12C19.1581 15.9534 15.9534 19.1581 12 19.1582C8.0465 19.1582 4.84193 15.9535 4.8418 12C4.84181 8.04642 8.04642 4.84181 12 4.8418ZM12 6.04102C8.70917 6.04103 6.04103 8.70917 6.04102 12C6.04115 15.2907 8.70924 17.959 12 17.959C15.2907 17.9589 17.9589 15.2907 17.959 12C17.959 8.70922 15.2908 6.04111 12 6.04102Z" fill="#909090"/>
<path d="M3.21973 11.4004C3.5511 11.4004 3.82031 11.6686 3.82031 12C3.82018 12.3313 3.55102 12.5996 3.21973 12.5996H2.46484C2.13355 12.5996 1.86537 12.3313 1.86523 12C1.86523 11.6686 2.13347 11.4004 2.46484 11.4004H3.21973Z" fill="#909090"/>
<path d="M21.5352 11.4004C21.8663 11.4006 22.1348 11.6688 22.1348 12C22.1346 12.3311 21.8662 12.5994 21.5352 12.5996H20.7803C20.449 12.5996 20.1798 12.3313 20.1797 12C20.1797 11.6686 20.4489 11.4004 20.7803 11.4004H21.5352Z" fill="#909090"/>
<path d="M4.83398 4.83398C5.0683 4.59967 5.44733 4.59967 5.68164 4.83398L6.21484 5.36719C6.44916 5.6015 6.45013 5.98151 6.21582 6.21582C5.9815 6.45013 5.6015 6.44916 5.36719 6.21484L4.83398 5.68164C4.59967 5.44733 4.59968 5.0683 4.83398 4.83398Z" fill="#909090"/>
<path d="M18.3184 4.83398C18.5527 4.59967 18.9317 4.59967 19.166 4.83398C19.4001 5.06832 19.4003 5.44741 19.166 5.68164L18.6318 6.21484C18.3975 6.44916 18.0175 6.45013 17.7832 6.21582C17.5491 5.98149 17.5499 5.60142 17.7842 5.36719L18.3184 4.83398Z" fill="#909090"/>
<path d="M12 1.86523C12.3313 1.86533 12.5996 2.13353 12.5996 2.46484V3.21973C12.5996 3.55104 12.3313 3.82021 12 3.82031C11.6686 3.82031 11.4004 3.5511 11.4004 3.21973V2.46484C11.4004 2.13347 11.6686 1.86523 12 1.86523Z" fill="#909090"/>
</svg>
