<svg width="24" height="24" viewBox="0 0 24 24" fill="none" xmlns="http://www.w3.org/2000/svg">
<path d="M13.4637 14.1654C14.1268 14.1654 14.6644 14.7036 14.6649 15.3666C14.6649 16.03 14.1271 16.5678 13.4637 16.5678C12.8006 16.5674 12.2625 16.0298 12.2625 15.3666C12.263 14.7038 12.8009 14.1659 13.4637 14.1654Z" fill="#15C674"/>
<path d="M8.93341 13.8168C9.4606 13.8169 9.88849 14.2447 9.88849 14.7719C9.88843 15.299 9.46057 15.7269 8.93341 15.727C8.40618 15.727 7.97838 15.2991 7.97833 14.7719C7.97833 14.2446 8.40615 13.8168 8.93341 13.8168Z" fill="#15C674"/>
<path d="M12.7137 10.4584C13.2407 10.4585 13.6685 10.8864 13.6688 11.4135C13.6688 11.9407 13.2409 12.3685 12.7137 12.3686C12.1864 12.3686 11.7586 11.9407 11.7586 11.4135C11.7588 10.8864 12.1866 10.4584 12.7137 10.4584Z" fill="#15C674"/>
<path d="M8.93243 9.41153C9.59557 9.41153 10.1332 9.94967 10.1336 10.6127C10.1336 11.2761 9.59584 11.8139 8.93243 11.8139C8.26938 11.8135 7.73126 11.2758 7.73126 10.6127C7.7317 9.94993 8.26965 9.41195 8.93243 9.41153Z" fill="#15C674"/>
<path fill-rule="evenodd" clip-rule="evenodd" d="M11.1863 4.23477C11.3732 4.21498 11.5588 4.28433 11.6873 4.42129C11.8158 4.55836 11.8733 4.74786 11.8416 4.93301C11.7285 5.59107 11.957 6.02769 12.1014 6.27676C12.1368 6.33786 12.1976 6.41996 12.2723 6.50528C12.3451 6.58846 12.4136 6.65581 12.4481 6.68692C12.6387 6.85876 12.8268 6.95602 12.9725 7.01797C13.2701 7.14445 13.6836 7.1962 13.9783 7.14297C14.1589 7.11028 14.2669 7.07802 14.3494 7.04727C14.4486 7.01031 14.5065 6.98015 14.658 6.91348C14.865 6.82242 15.1063 6.85505 15.2811 6.99844C15.4558 7.14203 15.5343 7.37243 15.4852 7.59317C15.3006 8.4207 15.3622 9.13275 15.5955 9.77969C15.7781 10.2858 16.0735 10.7689 16.451 11.1527C16.7644 11.4714 17.1086 11.7296 17.5731 11.9496C17.8197 12.0664 18.108 12.1627 18.283 12.2055C18.4554 12.2475 18.8948 12.3099 19.1561 12.31C19.3297 12.31 19.4952 12.385 19.6092 12.516C19.7231 12.6473 19.7743 12.8225 19.7498 12.9945C19.5859 14.1446 19.2048 15.2441 18.4822 16.3256C17.626 17.607 16.4089 18.6058 14.9852 19.1957C13.5613 19.7855 11.9938 19.9407 10.4822 19.64C8.97075 19.3393 7.58178 18.5969 6.492 17.5072C5.40235 16.4175 4.65991 15.0284 4.35919 13.517C4.05859 12.0054 4.21278 10.4379 4.80255 9.01407C5.39163 7.592 6.38971 6.36357 7.67267 5.50625C8.42752 5.00188 9.54106 4.40913 11.1863 4.23477ZM10.6219 5.53555C9.59883 5.74781 8.87254 6.14824 8.33966 6.5043C7.25716 7.22765 6.41068 8.26673 5.91095 9.47305C5.41198 10.6777 5.28164 12.0038 5.53595 13.2826C5.79033 14.5614 6.41874 15.7366 7.34064 16.6586C8.26259 17.5805 9.4379 18.2079 10.7166 18.4623C11.9953 18.7166 13.3207 18.5862 14.5252 18.0873C15.7298 17.5883 16.7597 16.7436 17.4842 15.6596C17.9674 14.9364 18.2675 14.2081 18.4432 13.4506C18.2673 13.426 18.1068 13.3981 17.9979 13.3715C17.7452 13.3098 17.3806 13.1857 17.0594 13.0336C16.4599 12.7496 16.0014 12.4072 15.5955 11.9945C15.0894 11.4799 14.7043 10.8464 14.4666 10.1879C14.256 9.60394 14.1575 8.98504 14.1844 8.32559C13.6387 8.42228 12.9925 8.32918 12.5037 8.12149C12.2783 8.02567 11.9642 7.86495 11.6453 7.57754C11.5172 7.46199 11.2332 7.17313 11.0623 6.87832C10.9186 6.63027 10.6755 6.17393 10.6219 5.53555Z" fill="#15C674"/>
</svg>
