<svg width="24" height="24" viewBox="0 0 24 24" fill="none" xmlns="http://www.w3.org/2000/svg">
<path d="M15.4346 9.97363C15.4346 9.20043 14.8074 8.57324 14.0342 8.57324H6.71582C5.94262 8.57324 5.31543 9.20043 5.31543 9.97363V17.292C5.31543 18.0652 5.94262 18.6924 6.71582 18.6924H14.0342C14.8074 18.6924 15.4346 18.0652 15.4346 17.292V9.97363ZM16.6338 17.292C16.6338 18.7279 15.4701 19.8916 14.0342 19.8916H6.71582C5.27988 19.8916 4.11621 18.7279 4.11621 17.292V9.97363C4.11621 8.53769 5.27988 7.37402 6.71582 7.37402H14.0342C15.4701 7.37402 16.6338 8.53769 16.6338 9.97363V17.292Z" fill="#15C674"/>
<path d="M17.2858 4.0127C18.7218 4.0127 19.8854 5.17636 19.8854 6.6123V13.9307C19.8854 14.9138 19.34 15.7687 18.5352 16.2102C18.1736 16.4085 17.7897 16.0968 17.7897 15.6845C17.7897 15.4138 17.9669 15.1817 18.1759 15.0097C18.4874 14.7534 18.6862 14.3657 18.6862 13.9307V6.6123C18.6862 5.83911 18.059 5.21191 17.2858 5.21191H9.96746C9.53123 5.21204 9.14219 5.41196 8.88577 5.72502C8.71412 5.93459 8.48194 6.1123 8.21105 6.1123C7.79983 6.1123 7.48872 5.72979 7.68557 5.36874C8.12602 4.56088 8.98222 4.01285 9.96746 4.0127H17.2858Z" fill="#15C674"/>
<path d="M12.4272 11.5947C12.6512 11.3505 13.0306 11.3337 13.2749 11.5576C13.519 11.7814 13.5356 12.161 13.312 12.4053L10.3003 15.6904C10.0816 15.9289 9.71294 15.9508 9.46729 15.7402L7.55127 14.0977C7.29992 13.882 7.27124 13.5035 7.48682 13.252C7.70248 13.0006 8.08101 12.971 8.33252 13.1865L9.80811 14.4512L12.4272 11.5947Z" fill="#15C674"/>
</svg>
