<svg width="24" height="24" viewBox="0 0 24 24" fill="none" xmlns="http://www.w3.org/2000/svg">
<path fill-rule="evenodd" clip-rule="evenodd" d="M17.3838 12.5986C18.2914 12.6907 18.9998 13.4568 19 14.3887V16.6787L18.9902 16.8623C18.9043 17.7096 18.2311 18.3828 17.3838 18.4688L17.2002 18.4785H6.7998C5.86784 18.4784 5.10184 17.77 5.00977 16.8623L5 16.6787V14.3887C5.00017 13.3948 5.80589 12.589 6.7998 12.5889H17.2002L17.3838 12.5986ZM6.7998 13.7891C6.46863 13.7892 6.20037 14.0575 6.2002 14.3887V16.6787C6.2003 17.0099 6.46859 17.2782 6.7998 17.2783H17.2002C17.5314 17.2782 17.7997 17.0099 17.7998 16.6787V14.3887C17.7996 14.0575 17.5314 13.7892 17.2002 13.7891H6.7998Z" fill="#15C674"/>
<path fill-rule="evenodd" clip-rule="evenodd" d="M17.3838 5.50977C18.2915 5.60184 18.9999 6.36784 19 7.2998V9.58984L18.9902 9.77344C18.9043 10.6207 18.2311 11.2939 17.3838 11.3799L17.2002 11.3896H6.7998C5.86784 11.3895 5.10184 10.6811 5.00977 9.77344L5 9.58984V7.2998C5.00011 6.30585 5.80585 5.50011 6.7998 5.5H17.2002L17.3838 5.50977ZM6.7998 6.7002C6.46859 6.7003 6.2003 6.96859 6.2002 7.2998V9.58984C6.2003 9.92106 6.46859 10.1893 6.7998 10.1895H17.2002C17.5314 10.1893 17.7997 9.92106 17.7998 9.58984V7.2998C17.7997 6.96859 17.5314 6.7003 17.2002 6.7002H6.7998Z" fill="#15C674"/>
</svg>
