<svg width="24" height="24" viewBox="0 0 24 24" fill="none" xmlns="http://www.w3.org/2000/svg">
<path d="M17.6583 6.09961C18.5417 6.09983 19.2579 6.8157 19.2579 7.69922V16.3008C19.2578 17.1843 18.5417 17.9002 17.6583 17.9004H11.2784C10.9471 17.9004 10.6788 17.6321 10.6788 17.3008C10.6788 16.9694 10.947 16.7012 11.2784 16.7012H17.6583C17.879 16.7009 18.0586 16.5215 18.0587 16.3008V7.69922C18.0587 7.47844 17.879 7.29905 17.6583 7.29883H11.2784C10.947 7.2988 10.6788 7.03057 10.6788 6.69922C10.6788 6.36786 10.947 6.09964 11.2784 6.09961H17.6583Z" fill="#909090"/>
<path d="M6.18659 13.1514L8.59577 13.7129C8.756 13.7502 8.89435 13.8523 8.97761 13.9941C9.06078 14.1359 9.08264 14.3059 9.03718 14.4639L8.35163 16.8408L8.30671 16.9531C8.17724 17.2002 7.88794 17.3311 7.60945 17.251C7.33096 17.1707 7.15505 16.906 7.17683 16.6279L7.19831 16.5078L7.47663 15.543L4.47761 17.2988L4.36726 17.3496C4.10309 17.4394 3.80282 17.3351 3.65632 17.085C3.50982 16.8347 3.56572 16.5213 3.77351 16.335L3.87214 16.2637L6.82722 14.5332L5.91511 14.3213L5.79988 14.2812C5.5467 14.1647 5.40138 13.8827 5.46687 13.6006C5.53263 13.3184 5.78775 13.1295 6.06648 13.1367L6.18659 13.1514Z" fill="#909090"/>
<path d="M7.51667 6.72949C7.79406 6.64532 8.08585 6.77132 8.21882 7.0166L8.26472 7.12793L8.98445 9.49512C9.03221 9.65251 9.01196 9.82279 8.93074 9.96582C8.84949 10.1089 8.71346 10.2133 8.55378 10.2529L6.15242 10.8477L6.03327 10.8652C5.75452 10.8767 5.49662 10.6905 5.42683 10.4092C5.35723 10.1279 5.49836 9.84374 5.75007 9.72363L5.86433 9.68262L6.81452 9.44629L4.07038 7.9375C3.78004 7.77783 3.6744 7.4134 3.83406 7.12305C3.99383 6.83298 4.35827 6.72713 4.64851 6.88672L7.39558 8.39746L7.11628 7.47754L7.09382 7.3584C7.06804 7.08072 7.23952 6.81383 7.51667 6.72949Z" fill="#909090"/>
</svg>
