<svg width="24" height="24" viewBox="0 0 24 24" fill="none" xmlns="http://www.w3.org/2000/svg">
<path fill-rule="evenodd" clip-rule="evenodd" d="M15.7451 10.3926C16.463 10.3926 17.0457 10.9746 17.0459 11.6924V12.2666C17.0742 12.2648 17.103 12.2627 17.1318 12.2627H18.2998C19.0176 12.2628 19.6004 12.8448 19.6006 13.5625V18.6367C19.6006 18.6741 19.5954 18.7106 19.5889 18.7461C19.5785 18.8031 19.5585 18.8561 19.5332 18.9062C19.5044 18.963 19.4694 19.0159 19.4248 19.0605C19.3163 19.1696 19.1662 19.2373 19 19.2373H11.3086C11.0597 19.2373 10.8466 19.086 10.7559 18.8701C10.7258 18.7986 10.709 18.7202 10.709 18.6377V15.3896C10.7091 14.6718 11.2909 14.0898 12.0088 14.0898H13.1768C13.2106 14.0898 13.2441 14.0922 13.2773 14.0947V11.6924C13.2775 10.9746 13.8594 10.3927 14.5771 10.3926H15.7451ZM12.0088 15.2891C11.9537 15.2891 11.9084 15.3346 11.9082 15.3896V18.0381H13.2773V15.3896C13.2772 15.3346 13.2319 15.2891 13.1768 15.2891H12.0088ZM14.5771 11.5918C14.5221 11.5919 14.4767 11.6374 14.4766 11.6924V15.3701C14.4767 15.3766 14.4775 15.3831 14.4775 15.3896V18.0381H15.832V13.5625C15.832 13.5018 15.8376 13.4423 15.8457 13.3838V11.6924C15.8455 11.6373 15.8002 11.5918 15.7451 11.5918H14.5771ZM17.1318 13.4619C17.0951 13.4619 17.0634 13.4829 17.0459 13.5127V18.0381H18.4004V13.5625C18.4002 13.5075 18.3548 13.462 18.2998 13.4619H17.1318Z" fill="#15C674"/>
<path d="M8.69727 14.5391C9.02864 14.5391 9.29688 14.8073 9.29688 15.1387C9.29669 15.4699 9.02852 15.7383 8.69727 15.7383H8.49512C8.1013 15.7384 7.78125 16.0583 7.78125 16.4521C7.78154 16.8457 8.10148 17.1649 8.49512 17.165H8.65918C8.99055 17.165 9.25977 17.4343 9.25977 17.7656C9.25936 18.0967 8.9903 18.3652 8.65918 18.3652H8.49512C7.43874 18.3651 6.58232 17.5085 6.58203 16.4521C6.58203 15.3956 7.43856 14.5392 8.49512 14.5391H8.69727Z" fill="#15C674"/>
<path d="M10.1367 9.71289C10.468 9.71302 10.7363 9.98121 10.7363 10.3125C10.7361 10.6436 10.4679 10.912 10.1367 10.9121H6.80078C6.40685 10.9121 6.08691 11.232 6.08691 11.626C6.08721 12.0197 6.40703 12.3389 6.80078 12.3389H10.0215C10.3526 12.3392 10.6211 12.6083 10.6211 12.9395C10.6207 13.2703 10.3524 13.5388 10.0215 13.5391H6.80078C5.74429 13.5391 4.88799 12.6824 4.8877 11.626C4.8877 10.5693 5.74411 9.71289 6.80078 9.71289H10.1367Z" fill="#15C674"/>
<path fill-rule="evenodd" clip-rule="evenodd" d="M16.6641 4.75879C17.756 4.75879 18.6309 5.6547 18.6309 6.73535C18.6307 7.81583 17.7559 8.71191 16.6641 8.71191H5.4375C4.34577 8.71178 3.47091 7.81575 3.4707 6.73535C3.4707 5.65478 4.34564 4.75892 5.4375 4.75879H16.6641ZM5.4375 5.95801C5.01967 5.95814 4.66992 6.30618 4.66992 6.73535C4.67013 7.16435 5.01979 7.51256 5.4375 7.5127H16.6641C17.0819 7.5127 17.4314 7.16443 17.4316 6.73535C17.4316 6.3061 17.082 5.95801 16.6641 5.95801H5.4375Z" fill="#15C674"/>
</svg>
