<svg width="24" height="24" viewBox="0 0 24 24" fill="none" xmlns="http://www.w3.org/2000/svg">
<path d="M13.8379 18.3369C14.3888 18.3369 14.8359 18.784 14.8359 19.335C14.8358 19.8858 14.3887 20.332 13.8379 20.332C13.287 20.332 12.841 19.8858 12.8408 19.335C12.8408 18.784 13.287 18.3369 13.8379 18.3369Z" fill="#15C674"/>
<path d="M17.7305 18.3369C18.2814 18.3369 18.7285 18.784 18.7285 19.335C18.7285 19.8859 18.2814 20.332 17.7305 20.332C17.1796 20.332 16.7334 19.8859 16.7334 19.335C16.7334 18.784 17.1795 18.3369 17.7305 18.3369Z" fill="#15C674"/>
<path d="M8.69727 14.5391C9.02864 14.5391 9.29688 14.8073 9.29688 15.1387C9.29669 15.4699 9.02852 15.7383 8.69727 15.7383H8.49512C8.1013 15.7384 7.78125 16.0583 7.78125 16.4521C7.78154 16.8457 8.10148 17.1649 8.49512 17.165H8.65918C8.99055 17.165 9.25977 17.4343 9.25977 17.7656C9.25936 18.0967 8.9903 18.3652 8.65918 18.3652H8.49512C7.43874 18.3651 6.58232 17.5085 6.58203 16.4521C6.58203 15.3956 7.43856 14.5392 8.49512 14.5391H8.69727Z" fill="#15C674"/>
<path fill-rule="evenodd" clip-rule="evenodd" d="M11.2207 9.67773C11.5061 9.67773 11.7519 9.87848 11.8086 10.1582L11.9551 10.8818H19.6963C19.8728 10.8818 20.0413 10.96 20.1553 11.0947C20.269 11.2294 20.3172 11.4072 20.2881 11.5811L19.5039 16.2529L19.5029 16.2578C19.438 16.6265 19.2714 16.9786 19.0068 17.2451C18.7395 17.5144 18.3819 17.6838 17.9893 17.6846H13.3545V17.6826C12.9592 17.6888 12.5965 17.525 12.3242 17.2559C12.0552 16.99 11.8851 16.6366 11.8184 16.2656L10.7295 10.877H10.2402C9.90886 10.877 9.64062 10.6087 9.64062 10.2773C9.64062 9.94597 9.90886 9.67773 10.2402 9.67773H11.2207ZM12.9951 16.0293L12.998 16.0459C13.0259 16.2081 13.0951 16.3303 13.168 16.4023C13.2377 16.4712 13.2989 16.4855 13.3379 16.4844H17.9873C18.026 16.4842 18.0869 16.4683 18.1553 16.3994C18.2266 16.3276 18.2935 16.2078 18.3213 16.0498L18.9883 12.082H12.1973L12.9951 16.0293Z" fill="#15C674"/>
<path d="M7.83691 9.71289C8.16817 9.71302 8.4375 9.98121 8.4375 10.3125C8.43732 10.6436 8.16806 10.912 7.83691 10.9121H6.80078C6.40685 10.9121 6.08691 11.232 6.08691 11.626C6.08721 12.0197 6.40703 12.3389 6.80078 12.3389H8.61816C8.94934 12.3391 9.21777 12.6082 9.21777 12.9395C9.21737 13.2703 8.94909 13.5388 8.61816 13.5391H6.80078C5.74429 13.5391 4.88799 12.6824 4.8877 11.626C4.8877 10.5693 5.74411 9.71289 6.80078 9.71289H7.83691Z" fill="#15C674"/>
<path fill-rule="evenodd" clip-rule="evenodd" d="M16.6641 4.75879C17.756 4.75879 18.6309 5.6547 18.6309 6.73535C18.6307 7.81583 17.7559 8.71191 16.6641 8.71191H5.4375C4.34577 8.71178 3.47091 7.81575 3.4707 6.73535C3.4707 5.65478 4.34564 4.75892 5.4375 4.75879H16.6641ZM5.4375 5.95801C5.01967 5.95814 4.66992 6.30618 4.66992 6.73535C4.67013 7.16435 5.01979 7.51256 5.4375 7.5127H16.6641C17.0819 7.5127 17.4314 7.16443 17.4316 6.73535C17.4316 6.3061 17.082 5.95801 16.6641 5.95801H5.4375Z" fill="#15C674"/>
</svg>
