<svg width="24" height="24" viewBox="0 0 24 24" fill="none" xmlns="http://www.w3.org/2000/svg">
<path d="M5.85254 5.79102C7.28848 5.79102 8.45215 6.95468 8.45215 8.39062V11.375H11.0488L10.458 10.8135L10.3779 10.7207C10.2185 10.492 10.2362 10.175 10.4355 9.96484C10.6351 9.75467 10.9507 9.72067 11.1875 9.86816L11.2842 9.94238L12.9854 11.5586C13.1044 11.6718 13.1717 11.8289 13.1719 11.9932C13.1718 12.1575 13.1046 12.3155 12.9854 12.4287L11.2842 14.0449L11.1875 14.1191C10.9508 14.2664 10.6351 14.2324 10.4355 14.0225C10.2361 13.8124 10.2186 13.4954 10.3779 13.2666L10.458 13.1738L11.0898 12.5742H8.45215V15.3438C8.45198 16.7795 7.28837 17.9434 5.85254 17.9434H5.38281C5.05155 17.9434 4.78337 17.675 4.7832 17.3438C4.7832 17.0124 5.05144 16.7432 5.38281 16.7432H5.85254C6.62563 16.7432 7.25276 16.1168 7.25293 15.3438V12.5742H5.46191C5.13054 12.5742 4.8623 12.306 4.8623 11.9746C4.86231 11.6432 5.13054 11.375 5.46191 11.375H7.25293V8.39062C7.25293 7.61743 6.62574 6.99023 5.85254 6.99023H5.38281C5.05144 6.99023 4.7832 6.722 4.7832 6.39062C4.7832 6.05925 5.05144 5.79102 5.38281 5.79102H5.85254Z" fill="#909090"/>
<path d="M17.4785 6.10352C18.3617 6.10404 19.0781 6.81979 19.0781 7.70312V16.3047C19.0781 17.188 18.3617 17.9038 17.4785 17.9043H11.6123C11.281 17.9043 11.0127 17.636 11.0127 17.3047C11.0127 16.9733 11.281 16.7051 11.6123 16.7051H17.4785C17.699 16.7046 17.8779 16.5252 17.8779 16.3047V7.70312C17.8779 7.48254 17.699 7.30326 17.4785 7.30273H11.6123C11.281 7.30271 11.0127 7.03448 11.0127 6.70312C11.0127 6.37177 11.281 6.10354 11.6123 6.10352H17.4785Z" fill="#909090"/>
</svg>
