<svg width="24" height="24" viewBox="0 0 24 24" fill="none" xmlns="http://www.w3.org/2000/svg">
<path d="M17.3105 5.01562C18.8014 5.01584 20.0096 6.22398 20.0098 7.71484V9.34766C20.0098 9.67903 19.7415 9.94824 19.4102 9.94824C19.0788 9.94824 18.8105 9.67903 18.8105 9.34766V7.71484C18.8103 6.88673 18.1387 6.21505 17.3105 6.21484H6.69336C5.86524 6.21505 5.19357 6.88673 5.19336 7.71484V16.2998C5.19357 17.1279 5.86524 17.7996 6.69336 17.7998H13.2002C13.5316 17.7998 13.8008 18.068 13.8008 18.3994C13.8008 18.7308 13.5316 18.999 13.2002 18.999H6.69336C5.2025 18.9988 3.99435 17.7907 3.99414 16.2998V7.71484C3.99435 6.22399 5.2025 5.01584 6.69336 5.01562H17.3105Z" fill="#15C674"/>
<path d="M20.2793 11.6025C20.5031 11.3583 20.8826 11.3417 21.127 11.5654C21.371 11.7893 21.3877 12.1688 21.1641 12.4131L16.8252 17.1514C16.437 17.575 15.772 17.5854 15.3711 17.1738L13.416 15.165C13.185 14.9277 13.1896 14.5476 13.4268 14.3164C13.6642 14.0853 14.0442 14.0907 14.2754 14.3281L16.083 16.1846L20.2793 11.6025Z" fill="#15C674"/>
<path d="M8.80469 13.2598C9.03885 13.0256 9.41897 13.0259 9.65332 13.2598C9.88731 13.494 9.88731 13.8732 9.65332 14.1074L8.82812 14.9316L9.65332 15.7568C9.88763 15.9912 9.88763 16.3712 9.65332 16.6055C9.41901 16.8398 9.039 16.8398 8.80469 16.6055L7.97949 15.7803L7.15527 16.6055C6.92102 16.8395 6.54187 16.8395 6.30762 16.6055C6.07375 16.3711 6.07345 15.991 6.30762 15.7568L7.13184 14.9316L6.30762 14.1074C6.07375 13.8731 6.07345 13.4939 6.30762 13.2598C6.54178 13.0256 6.92092 13.0259 7.15527 13.2598L7.97949 14.084L8.80469 13.2598Z" fill="#15C674"/>
<path d="M7.52344 7.41016C7.85458 7.41042 8.12207 7.67856 8.12207 8.00977C8.12207 8.34114 7.85383 8.60938 7.52246 8.60938H6.73145C6.4003 8.60911 6.13184 8.34097 6.13184 8.00977C6.13184 7.67839 6.40105 7.41016 6.73242 7.41016H7.52344Z" fill="#15C674"/>
<path d="M10.7656 7.41016C11.097 7.41016 11.3652 7.67839 11.3652 8.00977C11.3652 8.34114 11.097 8.60938 10.7656 8.60938H9.97461C9.64324 8.60938 9.375 8.34114 9.375 8.00977C9.375 7.67839 9.64324 7.41016 9.97461 7.41016H10.7656Z" fill="#15C674"/>
</svg>
