<svg width="24" height="24" viewBox="0 0 24 24" fill="none" xmlns="http://www.w3.org/2000/svg">
<path d="M19.3467 16.6826C19.581 16.4485 19.9601 16.4484 20.1943 16.6826C20.4286 16.9169 20.4285 17.296 20.1943 17.5303L18.2637 19.4609C17.9513 19.7733 17.4452 19.7734 17.1328 19.4609L15.2021 17.5312C14.9681 17.2971 14.9683 16.9179 15.2021 16.6836C15.4364 16.4493 15.8165 16.4485 16.0508 16.6826L17.6992 18.3301L19.3467 16.6826Z" fill="#15C674"/>
<path d="M17.3105 5.01562C18.8014 5.01584 20.0096 6.22398 20.0098 7.71484V8.14844C20.0098 8.47981 19.7415 8.74902 19.4102 8.74902C19.0788 8.74902 18.8105 8.47981 18.8105 8.14844V7.71484C18.8103 6.88673 18.1387 6.21505 17.3105 6.21484H6.69336C5.86524 6.21505 5.19357 6.88673 5.19336 7.71484V16.2998C5.19357 17.1279 5.86524 17.7996 6.69336 17.7998H12.9062C13.2374 17.8 13.5059 18.0682 13.5059 18.3994C13.5059 18.7307 13.2374 18.9988 12.9062 18.999H6.69336C5.20252 18.9988 3.99435 17.7907 3.99414 16.2998V7.71484C3.99435 6.22399 5.2025 5.01584 6.69336 5.01562H17.3105Z" fill="#15C674"/>
<path d="M17.6982 10.5254C18.0295 10.5254 18.2976 10.7939 18.2979 11.125V14.3066L19.3467 13.2578C19.581 13.0238 19.9601 13.0237 20.1943 13.2578C20.4286 13.4921 20.4286 13.8721 20.1943 14.1064L18.2637 16.0371C17.9514 16.3493 17.4452 16.3491 17.1328 16.0371L15.2021 14.1064C14.9682 13.8722 14.9683 13.493 15.2021 13.2588C15.4364 13.0246 15.8164 13.0238 16.0508 13.2578L17.0986 14.3047V11.126C17.0986 10.7946 17.3669 10.5254 17.6982 10.5254Z" fill="#15C674"/>
<path d="M7.98047 7.41016C8.31184 7.41016 8.58008 7.67839 8.58008 8.00977C8.58008 8.34114 8.31184 8.60938 7.98047 8.60938H7.18945C6.85808 8.60938 6.58984 8.34114 6.58984 8.00977C6.58984 7.67839 6.85808 7.41016 7.18945 7.41016H7.98047Z" fill="#15C674"/>
<path d="M10.9609 7.41016C11.2923 7.41016 11.5605 7.67839 11.5605 8.00977C11.5605 8.34114 11.2923 8.60938 10.9609 8.60938H10.1699C9.83855 8.60938 9.57031 8.34114 9.57031 8.00977C9.57031 7.67839 9.83855 7.41016 10.1699 7.41016H10.9609Z" fill="#15C674"/>
</svg>
