<svg width="24" height="24" viewBox="0 0 24 24" fill="none" xmlns="http://www.w3.org/2000/svg">
<path d="M16.5 4.5C18.1569 4.5 19.5 5.84315 19.5 7.5V12.7002L18.2998 12.2002V7.5C18.2998 6.50589 17.4941 5.7002 16.5 5.7002H7.5C6.50589 5.7002 5.7002 6.50589 5.7002 7.5V16.5C5.7002 17.4941 6.50589 18.2998 7.5 18.2998H12.4014L12.9014 19.5H7.5L7.3457 19.4961C5.81166 19.4184 4.58163 18.1883 4.50391 16.6543L4.5 16.5V7.5C4.5 5.84315 5.84315 4.5 7.5 4.5H16.5Z" fill="#15C674"/>
<path d="M11.8418 11.7002C12.0137 11.5283 12.2717 11.4769 12.4961 11.5703L19.9961 14.6953C20.2259 14.7911 20.3729 15.0187 20.3652 15.2676C20.3575 15.5164 20.1971 15.735 19.9619 15.8164L16.9873 16.8457L15.958 19.8203C15.8766 20.0555 15.658 20.2159 15.4092 20.2236C15.1603 20.2313 14.9327 20.0843 14.8369 19.8545L11.7119 12.3545C11.6185 12.1301 11.6699 11.8721 11.8418 11.7002ZM15.3379 17.9385L15.9482 16.1777C16.0084 16.0038 16.1455 15.8668 16.3193 15.8066L18.0801 15.1963L13.3789 13.2373L15.3379 17.9385Z" fill="#15C674"/>
</svg>
