<svg width="24" height="24" viewBox="0 0 24 24" fill="none" xmlns="http://www.w3.org/2000/svg">
<path d="M17.292 12.5664C18.1754 12.5667 18.8916 13.2825 18.8916 14.166V17.79C18.8916 18.6735 18.1754 19.3904 17.292 19.3906H11.6602C11.3288 19.3906 11.0605 19.1214 11.0605 18.79C11.0607 18.4588 11.3289 18.1904 11.6602 18.1904H17.292C17.5127 18.1902 17.6924 18.0108 17.6924 17.79V14.166C17.6924 13.9453 17.5127 13.7659 17.292 13.7656H11.6602C11.3288 13.7656 11.0605 13.4974 11.0605 13.166C11.0605 12.8346 11.3288 12.5664 11.6602 12.5664H17.292Z" fill="#909090"/>
<path d="M7.29492 13.9609C7.523 13.721 7.90331 13.7107 8.14355 13.9385L9.82812 15.5381C9.94733 15.6513 10.0145 15.8093 10.0146 15.9736C10.0146 16.1379 9.94717 16.295 9.82812 16.4082L8.14355 18.0088L8.04785 18.083C7.81104 18.2308 7.49462 18.1966 7.29492 17.9863C7.09565 17.7761 7.07865 17.4591 7.23828 17.2305L7.31738 17.1377L7.92969 16.5566H4.73926C4.40811 16.5564 4.13867 16.2882 4.13867 15.957C4.13867 15.6257 4.40886 15.3574 4.74023 15.3574H7.89551L7.31738 14.8086C7.07751 14.5805 7.06712 14.2011 7.29492 13.9609Z" fill="#909090"/>
<path d="M17.292 4.60938C18.1754 4.60964 18.8916 5.32549 18.8916 6.20898V9.83301C18.8916 10.7165 18.1754 11.4333 17.292 11.4336H11.6602C11.3288 11.4336 11.0605 11.1644 11.0605 10.833C11.0607 10.5018 11.3289 10.2334 11.6602 10.2334H17.292C17.5127 10.2331 17.6924 10.0538 17.6924 9.83301V6.20898C17.6924 5.98823 17.5127 5.80886 17.292 5.80859H11.6602C11.3288 5.80859 11.0605 5.54036 11.0605 5.20898C11.0605 4.87761 11.3288 4.60938 11.6602 4.60938H17.292Z" fill="#909090"/>
<path d="M7.29492 6.00781C7.523 5.76784 7.90331 5.7576 8.14355 5.98535L9.82812 7.58496C9.94733 7.69815 10.0145 7.85613 10.0146 8.02051C10.0146 8.18482 9.94717 8.34184 9.82812 8.45508L8.14355 10.0557L8.04785 10.1299C7.81104 10.2777 7.49462 10.2435 7.29492 10.0332C7.09565 9.82294 7.07865 9.50602 7.23828 9.27734L7.31738 9.18457L7.93164 8.60156H4.60449C4.27313 8.60155 4.00488 8.33332 4.00488 8.00195C4.00488 7.67059 4.27313 7.40236 4.60449 7.40234H7.89355L7.31738 6.85547C7.07751 6.62734 7.06712 6.24801 7.29492 6.00781Z" fill="#909090"/>
</svg>
