<svg width="24" height="24" viewBox="0 0 24 24" fill="none" xmlns="http://www.w3.org/2000/svg">
<path d="M15.8301 10.0732C16.2526 10.0734 16.6705 10.2214 16.9883 10.5039C17.3084 10.7885 17.5039 11.1913 17.5039 11.6279V12.2432L17.8926 12.248C18.0076 12.2482 18.1232 12.2673 18.2324 12.3037L18.3398 12.3457L18.4424 12.4004C18.5412 12.4597 18.6307 12.5354 18.7061 12.625L20.2891 14.5078H20.2881C20.4414 14.6899 20.5288 14.9209 20.5293 15.1631V16.7441C20.5292 17.0277 20.4106 17.2933 20.21 17.4844C20.0422 17.6441 19.8279 17.7395 19.6035 17.7666C19.3703 18.4514 18.7443 18.9627 17.9717 18.9629C17.2026 18.9629 16.5785 18.4564 16.3428 17.7764H15.1025C14.8668 18.4561 14.2433 18.9625 13.4746 18.9629C12.7054 18.9629 12.0804 18.4565 11.8447 17.7764C11.6486 17.7751 11.3087 17.7346 11.0479 17.5029C10.8359 17.3145 10.6721 17.0064 10.6719 16.6875V11.6279C10.6719 11.1912 10.8672 10.7886 11.1875 10.5039C11.5054 10.2214 11.9231 10.0733 12.3457 10.0732H15.8301ZM8.69727 14.5391C9.02864 14.5391 9.29688 14.8073 9.29688 15.1387C9.29669 15.4699 9.02852 15.7383 8.69727 15.7383H8.49512C8.1013 15.7384 7.78125 16.0583 7.78125 16.4521C7.78154 16.8457 8.10148 17.1649 8.49512 17.165H8.65918C8.99055 17.165 9.25977 17.4343 9.25977 17.7656C9.25936 18.0967 8.9903 18.3652 8.65918 18.3652H8.49512C7.43874 18.3651 6.58232 17.5085 6.58203 16.4521C6.58203 15.3956 7.43856 14.5392 8.49512 14.5391H8.69727ZM12.3457 11.2725C12.1986 11.2725 12.0694 11.3258 11.9844 11.4014C11.9019 11.4748 11.8711 11.5583 11.8711 11.6279V16.5771H12.3428C12.3569 16.5772 12.3708 16.5801 12.3848 16.5811C12.4113 16.5831 12.4375 16.5845 12.4629 16.5898C12.7362 16.6456 12.9422 16.8869 12.9424 17.1768C12.9424 17.5278 13.2076 17.7627 13.4746 17.7627C13.7413 17.7622 14.0059 17.5274 14.0059 17.1768C14.0061 16.8457 14.2743 16.5773 14.6055 16.5771H16.8398C17.1711 16.5771 17.4392 16.8456 17.4395 17.1768C17.4395 17.5278 17.7047 17.7627 17.9717 17.7627C18.2386 17.7625 18.5029 17.5276 18.5029 17.1768C18.5032 16.8457 18.7714 16.5773 19.1025 16.5771C19.1055 16.5771 19.1084 16.5781 19.1113 16.5781C19.1148 16.5781 19.1186 16.5772 19.1221 16.5771H19.3291V15.2314L17.8301 13.4473L16.8965 13.4365C16.5682 13.4323 16.3039 13.1642 16.3037 12.8359V11.6279C16.3037 11.5582 16.2729 11.4748 16.1904 11.4014C16.1055 11.3259 15.977 11.2726 15.8301 11.2725H12.3457ZM8.69727 9.71289C9.02852 9.71302 9.29785 9.98121 9.29785 10.3125C9.29767 10.6436 9.02841 10.912 8.69727 10.9121H6.80078C6.40685 10.9121 6.08691 11.232 6.08691 11.626C6.08721 12.0197 6.40703 12.3389 6.80078 12.3389H8.61816C8.94934 12.3391 9.21777 12.6082 9.21777 12.9395C9.21737 13.2703 8.94909 13.5388 8.61816 13.5391H6.80078C5.74429 13.5391 4.88799 12.6824 4.8877 11.626C4.8877 10.5693 5.74411 9.71289 6.80078 9.71289H8.69727ZM16.6641 4.75879C17.756 4.75879 18.6309 5.6547 18.6309 6.73535C18.6307 7.81583 17.7559 8.71191 16.6641 8.71191H5.4375C4.34577 8.71178 3.47091 7.81575 3.4707 6.73535C3.4707 5.65478 4.34564 4.75892 5.4375 4.75879H16.6641ZM5.4375 5.95801C5.01967 5.95814 4.66992 6.30618 4.66992 6.73535C4.67013 7.16435 5.01979 7.51256 5.4375 7.5127H16.6641C17.0819 7.5127 17.4314 7.16443 17.4316 6.73535C17.4316 6.3061 17.082 5.95801 16.6641 5.95801H5.4375Z" fill="#15C674"/>
</svg>
