<svg width="24" height="24" viewBox="0 0 24 24" fill="none" xmlns="http://www.w3.org/2000/svg">
<path d="M11.8055 10.4055C11.9808 10.245 12.2343 10.2034 12.452 10.299C12.6697 10.3948 12.8103 10.61 12.8104 10.8479V15.1565C12.8103 15.4877 12.5419 15.7559 12.2108 15.7561C11.8795 15.756 11.6103 15.4877 11.6102 15.1565V12.2121L11.2488 12.5442C11.0046 12.7677 10.625 12.7511 10.4012 12.5071C10.1776 12.2628 10.1942 11.8833 10.4383 11.6594L11.8055 10.4055Z" fill="#15C674"/>
<path fill-rule="evenodd" clip-rule="evenodd" d="M11.3035 5.00217C11.7719 4.47741 12.6304 4.52006 13.036 5.12522L16.1004 9.70139L19.0604 8.97092L19.2029 8.94553C19.9121 8.86459 20.5286 9.4867 20.409 10.217L19.1912 17.6291C19.1037 18.1604 18.6447 18.5499 18.1063 18.55H5.89923C5.36275 18.5499 4.90489 18.163 4.81525 17.634L3.53302 10.0725C3.40728 9.3291 4.04516 8.69843 4.76447 8.79807L4.909 8.82736L8.0672 9.6926L11.2156 5.11447L11.3035 5.00217ZM9.01642 10.4319C8.75119 10.8177 8.27069 10.9931 7.81916 10.8694L4.74201 10.0256L5.9842 17.3508H18.0213L19.2 10.1721L16.3201 10.884C15.8708 10.9948 15.3999 10.8125 15.1424 10.428L12.1209 5.91525L9.01642 10.4319Z" fill="#15C674"/>
</svg>
