<svg width="24" height="24" viewBox="0 0 24 24" fill="none" xmlns="http://www.w3.org/2000/svg">
<path d="M18.957 8.58008C19.721 9.14995 20.2178 10.0584 20.2178 11.085V16.2764C20.2177 18.0029 18.8183 19.4033 17.0918 19.4033H9.57129C8.51678 19.4033 7.58665 18.8791 7.02051 18.0791C7.18905 18.1145 7.36388 18.1348 7.54297 18.1348H9.06934C9.22951 18.1779 9.3975 18.2031 9.57129 18.2031H17.0918C18.1556 18.2031 19.0184 17.3401 19.0186 16.2764V11.085C19.0186 10.9204 18.9959 10.7609 18.957 10.6084V8.58008Z" fill="#909090"/>
<path d="M9.17383 12.9668C9.44708 13.0229 9.65234 13.2648 9.65234 13.5547C9.65234 13.8445 9.44708 14.0865 9.17383 14.1426L9.05273 14.1543H7.16504C6.83367 14.1543 6.56543 13.8861 6.56543 13.5547C6.56543 13.2233 6.83367 12.9551 7.16504 12.9551H9.05273L9.17383 12.9668Z" fill="#909090"/>
<path d="M9.17383 10.1836C9.44708 10.2397 9.65234 10.4816 9.65234 10.7715C9.65234 11.0613 9.44708 11.3033 9.17383 11.3594L9.05273 11.3711H7.16504C6.83367 11.3711 6.56543 11.1029 6.56543 10.7715C6.56543 10.4401 6.83367 10.1719 7.16504 10.1719H9.05273L9.17383 10.1836Z" fill="#909090"/>
<path d="M9.17285 7.42383C9.44646 7.47962 9.65234 7.72163 9.65234 8.01172C9.65234 8.30181 9.44646 8.54381 9.17285 8.59961L9.05273 8.61133H7.04395C6.71257 8.61133 6.44434 8.34309 6.44434 8.01172C6.44434 7.68035 6.71257 7.41211 7.04395 7.41211H9.05273L9.17285 7.42383Z" fill="#909090"/>
<path d="M14.3818 9.75586C15.0348 9.75595 15.5645 10.2855 15.5645 10.9385C15.5644 11.5914 15.0347 12.121 14.3818 12.1211C13.7288 12.1211 13.1993 11.5914 13.1992 10.9385C13.1992 10.2854 13.7288 9.75586 14.3818 9.75586Z" fill="#909090"/>
<path fill-rule="evenodd" clip-rule="evenodd" d="M15.3086 4.69922C16.791 4.69922 17.993 5.90047 17.9932 7.38281V14.4941C17.9932 15.9766 16.791 17.1787 15.3086 17.1787H6.43359C4.95125 17.1786 3.75 15.9765 3.75 14.4941V7.38281C3.75012 5.90054 4.95132 4.69934 6.43359 4.69922H15.3086ZM6.43359 5.89844C5.61407 5.89856 4.94934 6.56328 4.94922 7.38281V14.4941C4.94922 15.3138 5.61399 15.9784 6.43359 15.9785H15.3086C16.1283 15.9785 16.793 15.3138 16.793 14.4941V13.8164C16.6482 13.8525 16.4996 13.8651 16.3555 13.8535L16.1904 13.8301L16.0498 13.8008C15.9893 13.7884 15.9284 13.81 15.8887 13.8535L15.8564 13.9043L15.7959 14.0537C15.6521 14.4078 15.3454 14.7286 14.9238 14.834L14.7363 14.8652C14.4941 14.8868 14.2488 14.8865 14.0049 14.8623L13.7617 14.8301C13.3161 14.7572 12.994 14.4556 12.8291 14.1064L12.7686 13.9551L12.7178 13.8037C12.6982 13.7449 12.6496 13.7029 12.5918 13.6904L12.5322 13.6885L12.3857 13.708C12.0081 13.7605 11.5785 13.6565 11.2764 13.3457L11.1553 13.1992C11.0121 12.9965 10.8894 12.782 10.7881 12.5596L10.6934 12.334C10.5083 11.8504 10.6639 11.3552 10.9531 11.0293L11.0508 10.9199L11.082 10.8691C11.0964 10.8326 11.0978 10.7914 11.0859 10.7539L11.0576 10.7012L10.9678 10.5859C10.6996 10.2418 10.5762 9.73625 10.7939 9.26465L10.9014 9.0498C11.0153 8.83812 11.1506 8.63365 11.3066 8.43945L11.4365 8.30078C11.7583 8.00756 12.1961 7.92725 12.5742 8.00488L12.7139 8.03418L12.7734 8.03516C12.8318 8.02647 12.8838 7.98788 12.9072 7.93066L12.9434 7.84082L13.0146 7.69141C13.2036 7.35073 13.5452 7.07597 13.9873 7.02637L14.2305 7.00586C14.4745 6.99181 14.72 6.99742 14.96 7.02539L15.0576 7.04102C15.5396 7.13719 15.8717 7.50887 16.0039 7.90625L16.0449 8.03125L16.0732 8.08398C16.11 8.1301 16.1702 8.15494 16.2314 8.14648L16.375 8.12695L16.5391 8.11426C16.6231 8.11278 16.7083 8.1204 16.793 8.13477V7.38281C16.7928 6.56321 16.1282 5.89844 15.3086 5.89844H6.43359ZM14.2998 8.2041L14.1211 8.21875C14.1177 8.21917 14.1099 8.22147 14.0977 8.23145C14.0909 8.23701 14.0834 8.24496 14.0762 8.25488L14.0557 8.29199L14.0186 8.38184C13.7854 8.95576 13.1995 9.29764 12.5938 9.22852L12.4727 9.20898L12.332 9.18066C12.3005 9.17426 12.2746 9.17671 12.2588 9.18164L12.2422 9.19043C12.1321 9.32741 12.0374 9.47156 11.958 9.61914L11.8828 9.76758V9.76953C11.8827 9.77148 11.8827 9.77649 11.8838 9.7832C11.8864 9.79873 11.8944 9.82335 11.9141 9.84863L12.0039 9.96387L12.0752 10.0635C12.3837 10.5418 12.3639 11.1635 12.0254 11.6211L11.9482 11.7168L11.8506 11.8262C11.8293 11.8502 11.8189 11.8743 11.8154 11.8896C11.814 11.8959 11.8134 11.9004 11.8135 11.9023C11.8137 11.9037 11.8143 11.9049 11.8145 11.9053L11.8799 12.0615C11.9505 12.2165 12.0362 12.366 12.1357 12.5068L12.1367 12.5078C12.1381 12.5088 12.1419 12.5112 12.1484 12.5137C12.1631 12.5193 12.1888 12.5239 12.2207 12.5195L12.3672 12.499L12.4893 12.4883C13.0983 12.4583 13.6608 12.8368 13.8564 13.4248L13.9072 13.5762L13.9248 13.6143C13.9312 13.6244 13.9378 13.6325 13.9434 13.6377C13.9486 13.6425 13.9528 13.6448 13.9541 13.6455L14.124 13.668C14.2925 13.6846 14.4621 13.6848 14.6299 13.6699H14.6318C14.6334 13.6692 14.6372 13.6664 14.6426 13.6621C14.6547 13.6522 14.6715 13.6322 14.6836 13.6025L14.7441 13.4531L14.7959 13.3418C15.0745 12.7993 15.6839 12.5013 16.291 12.626L16.4316 12.6543L16.4746 12.6582C16.487 12.6577 16.4979 12.6558 16.5059 12.6533C16.5169 12.6498 16.5212 12.6459 16.5225 12.6445L16.5557 12.5801C16.5763 12.5328 16.597 12.4724 16.6211 12.3965C16.633 12.3591 16.6456 12.3207 16.6582 12.2793C16.6704 12.2391 16.6836 12.1945 16.6973 12.1514C16.7116 12.106 16.7286 12.0545 16.748 12.002V9.68066C16.7411 9.64866 16.7301 9.60341 16.7158 9.55371C16.6993 9.49623 16.6817 9.44722 16.666 9.40918L16.626 9.32812L16.6123 9.32129C16.605 9.31851 16.5951 9.31575 16.583 9.31445L16.54 9.31543L16.3965 9.33496C15.7826 9.4203 15.1933 9.08373 14.9502 8.52441L14.9062 8.41016L14.8652 8.28516C14.8549 8.25403 14.839 8.23352 14.8281 8.22363L14.8203 8.21777C14.6533 8.19832 14.478 8.19385 14.2998 8.2041Z" fill="#909090"/>
</svg>
