<svg width="24" height="24" viewBox="0 0 24 24" fill="none" xmlns="http://www.w3.org/2000/svg">
<path d="M7.05225 11.9429C7.5654 12.0597 8.08184 12.1885 8.53076 12.3228C8.99595 12.462 9.50899 12.6443 10.0112 12.8355C10.3205 12.9536 10.4756 13.2995 10.3579 13.609C10.24 13.9186 9.89316 14.0745 9.5835 13.9566C9.09632 13.7711 8.61356 13.6008 8.18701 13.4732C7.77361 13.3496 7.2855 13.2266 6.78564 13.1129C6.46277 13.0393 6.26021 12.718 6.3335 12.3951C6.40703 12.072 6.7292 11.8695 7.05225 11.9429Z" fill="#15C674"/>
<path d="M7.05225 9.44977C7.5654 9.56658 8.08184 9.69538 8.53076 9.82965C8.99595 9.9688 9.50899 10.1511 10.0112 10.3423C10.3205 10.4604 10.4756 10.8063 10.3579 11.1158C10.24 11.4254 9.89316 11.5814 9.5835 11.4634C9.09632 11.2779 8.61356 11.1076 8.18701 10.98C7.77361 10.8564 7.2855 10.7335 6.78564 10.6197C6.46277 10.5461 6.26021 10.2248 6.3335 9.90192C6.40703 9.57887 6.7292 9.37633 7.05225 9.44977Z" fill="#15C674"/>
<path d="M16.9478 11.9429C17.2708 11.8695 17.593 12.072 17.6665 12.3951C17.7398 12.718 17.5372 13.0393 17.2144 13.1129C16.7145 13.2266 16.2264 13.3496 15.813 13.4732C15.3864 13.6008 14.9037 13.7711 14.4165 13.9566C14.1068 14.0745 13.76 13.9186 13.6421 13.609C13.5244 13.2995 13.6795 12.9536 13.9888 12.8355C14.491 12.6443 15.0041 12.462 15.4692 12.3228C15.9182 12.1885 16.4346 12.0597 16.9478 11.9429Z" fill="#15C674"/>
<path d="M16.9478 9.44977C17.2708 9.37633 17.593 9.57887 17.6665 9.90192C17.7398 10.2248 17.5372 10.5461 17.2144 10.6197C16.7145 10.7335 16.2264 10.8564 15.813 10.98C15.3864 11.1076 14.9037 11.2779 14.4165 11.4634C14.1068 11.5814 13.76 11.4254 13.6421 11.1158C13.5244 10.8063 13.6795 10.4604 13.9888 10.3423C14.491 10.1511 15.0041 9.9688 15.4692 9.82965C15.9182 9.69538 16.4346 9.56658 16.9478 9.44977Z" fill="#15C674"/>
<path fill-rule="evenodd" clip-rule="evenodd" d="M18.4897 5.08454C19.2772 4.93038 19.9963 5.53902 19.9966 6.34137V15.6783L19.9917 15.7974C19.9381 16.3852 19.4913 16.8706 18.9009 16.9781L18.1353 17.1236C17.3173 17.2847 16.3774 17.4909 15.6411 17.7125L15.2935 17.8218C14.4624 18.0955 13.5071 18.4833 12.7397 18.8121C12.4907 18.9188 12.23 18.9174 11.9995 18.8384C11.7693 18.9171 11.509 18.9186 11.2603 18.8121C10.4929 18.4833 9.53757 18.0955 8.70654 17.8218L8.35889 17.7125C7.62259 17.4909 6.68268 17.2847 5.86475 17.1236L5.09912 16.9781C4.50873 16.8706 4.06191 16.3852 4.0083 15.7974L4.00342 15.6783V6.34137C4.00373 5.53902 4.72279 4.93038 5.51025 5.08454L6.2124 5.22711C6.94094 5.37989 7.72615 5.5613 8.35889 5.75055C9.55059 6.10701 11.1118 6.76872 11.9995 7.15973C12.8871 6.76876 14.449 6.10711 15.6411 5.75055C16.2738 5.5613 17.0591 5.37989 17.7876 5.22711L18.4897 5.08454ZM5.23193 6.27399C5.22345 6.28116 5.21624 6.29039 5.21143 6.30036C5.20719 6.30925 5.20368 6.32223 5.20361 6.34137V15.6783C5.20363 15.7242 5.24036 15.7839 5.31396 15.7974C6.25134 15.968 7.65279 16.2465 8.70459 16.5631C9.52482 16.8099 10.49 17.1899 11.3032 17.5298V8.16559C10.4128 7.77784 9.05021 7.21058 8.01514 6.90094C7.23054 6.66627 6.16386 6.43542 5.27979 6.26227C5.26543 6.25946 5.25827 6.26123 5.25439 6.26227C5.24896 6.26373 5.24053 6.2668 5.23193 6.27399ZM18.7202 6.26227C17.8361 6.43542 16.7695 6.66627 15.9849 6.90094C14.9498 7.21058 13.5872 7.77784 12.6968 8.16559V17.5298C13.51 17.1899 14.4752 16.8099 15.2954 16.5631C16.3472 16.2465 17.7487 15.968 18.686 15.7974C18.7596 15.7839 18.7964 15.7242 18.7964 15.6783V6.34137C18.7963 6.32223 18.7928 6.30925 18.7886 6.30036C18.7838 6.29039 18.7766 6.28116 18.7681 6.27399C18.7595 6.2668 18.751 6.26373 18.7456 6.26227C18.7417 6.26123 18.7346 6.25946 18.7202 6.26227Z" fill="#15C674"/>
</svg>
