<svg width="24" height="24" viewBox="0 0 24 24" fill="none" xmlns="http://www.w3.org/2000/svg">
<path fill-rule="evenodd" clip-rule="evenodd" d="M15.3636 4.07826C16.4507 3.67463 17.6405 4.23499 18.0218 5.33021L19.7181 10.2033C20.0994 11.2985 19.5278 12.5132 18.4407 12.9171L17.2103 13.3742C16.4744 13.6475 15.6923 13.4781 15.1448 13.0011L14.2405 13.2072C14.2939 13.414 14.3255 13.6301 14.3255 13.8536C14.3254 14.705 13.9116 15.4576 13.2767 15.9288L15.2142 18.9943C15.3907 19.2744 15.3067 19.6456 15.0267 19.8224C14.7467 19.9989 14.3765 19.9146 14.1995 19.6349L12.1575 16.4025C12.0213 16.4247 11.8821 16.4396 11.7396 16.4396C11.5961 16.4396 11.4558 16.4249 11.3187 16.4025L9.27863 19.6339C9.10177 19.914 8.73161 19.998 8.45148 19.8214C8.17161 19.6444 8.08714 19.2733 8.26398 18.9933L10.1995 15.9279C9.69276 15.551 9.328 14.9951 9.20246 14.3517L6.88019 14.88C5.85635 15.1125 4.83303 14.544 4.48664 13.5499L4.21515 12.7706C3.86895 11.7762 4.30666 10.6634 5.23957 10.1691L12.7698 6.17982C12.8982 5.45257 13.3978 4.80843 14.1331 4.53529L15.3636 4.07826ZM11.7396 12.4669C10.9741 12.4669 10.353 13.0883 10.3528 13.8536C10.353 14.619 10.9741 15.2394 11.7396 15.2394C12.5048 15.2392 13.1252 14.6189 13.1253 13.8536C13.1252 13.0884 12.5048 12.4672 11.7396 12.4669ZM5.77961 11.2374C5.37983 11.4492 5.191 11.9265 5.33918 12.3527L5.61066 13.132C5.75918 13.5579 6.19832 13.8019 6.63703 13.7023L9.26398 13.1046C9.58522 12.0418 10.5719 11.2677 11.7396 11.2677C12.4941 11.2678 13.1712 11.5931 13.6439 12.1085L14.4798 11.9191L12.9251 7.4513L5.77961 11.2374ZM16.8978 5.7472C16.7342 5.27797 16.223 5.03804 15.7571 5.21107L14.5277 5.6681C14.0619 5.84111 13.8157 6.36189 13.9788 6.83118L15.6761 11.7052C15.8397 12.1744 16.3499 12.4144 16.8157 12.2413L18.0462 11.7843C18.5119 11.6112 18.7573 11.0905 18.5941 10.6212L16.8978 5.7472Z" fill="#15C674"/>
</svg>
