<svg width="24" height="24" viewBox="0 0 24 24" fill="none" xmlns="http://www.w3.org/2000/svg">
<path d="M8.55147 3.69727C8.99329 3.69727 9.35146 4.05544 9.35146 4.49727V4.99219H14.6318V4.49727C14.6318 4.05544 14.99 3.69727 15.4318 3.69727C15.8737 3.69727 16.2318 4.05544 16.2318 4.49727V4.99219H17.3101C18.8012 4.99219 20.0101 6.20102 20.0101 7.69219V10.9835C20.0101 11.3148 19.7414 11.5835 19.4101 11.5835C19.0787 11.5835 18.8101 11.3148 18.8101 10.9835V7.69219C18.8101 6.86376 18.1385 6.19219 17.3101 6.19219H16.2318V6.92695C16.2318 7.36878 15.8737 7.72695 15.4318 7.72695C14.99 7.72695 14.6318 7.36878 14.6318 6.92695V6.19219H9.35147V6.92695C9.35147 7.36878 8.99329 7.72695 8.55147 7.72695C8.10964 7.72695 7.75147 7.36878 7.75147 6.92695V6.19219H6.69365C5.86523 6.19219 5.19365 6.86376 5.19365 7.69219V16.2764C5.19365 17.1048 5.86522 17.7764 6.69365 17.7764H11.6288C11.9602 17.7764 12.2288 18.045 12.2288 18.3764C12.2288 18.7077 11.9602 18.9764 11.6288 18.9764H6.69365C5.20248 18.9764 3.99365 17.7675 3.99365 16.2764V7.69219C3.99365 6.20102 5.20248 4.99219 6.69365 4.99219H7.75146V4.49727C7.75146 4.05544 8.10964 3.69727 8.55147 3.69727Z" fill="#333333"/>
<path fill-rule="evenodd" clip-rule="evenodd" d="M15.1706 9.29883C14.7288 9.29883 14.3706 9.657 14.3706 10.0988V10.9449C14.3706 11.3868 14.7288 11.7449 15.1706 11.7449H15.9787C16.4205 11.7449 16.7787 11.3868 16.7787 10.9449V10.0988C16.7787 9.657 16.4205 9.29883 15.9787 9.29883H15.1706ZM15.5706 10.4988V10.5449H15.5787V10.4988H15.5706Z" fill="#333333"/>
<path fill-rule="evenodd" clip-rule="evenodd" d="M10.854 10.0988C10.854 9.657 11.2122 9.29883 11.654 9.29883H12.4621C12.9039 9.29883 13.2621 9.657 13.2621 10.0988V10.9449C13.2621 11.3868 12.9039 11.7449 12.4621 11.7449H11.654C11.2122 11.7449 10.854 11.3868 10.854 10.9449V10.0988ZM12.054 10.5449V10.4988H12.0621V10.5449H12.054Z" fill="#333333"/>
<path fill-rule="evenodd" clip-rule="evenodd" d="M7.97383 9.29883C7.532 9.29883 7.17383 9.657 7.17383 10.0988V10.9449C7.17383 11.3868 7.532 11.7449 7.97383 11.7449H8.78193C9.22376 11.7449 9.58193 11.3868 9.58193 10.9449V10.0988C9.58193 9.657 9.22376 9.29883 8.78193 9.29883H7.97383ZM8.37383 10.4988V10.5449H8.38193V10.4988H8.37383Z" fill="#333333"/>
<path fill-rule="evenodd" clip-rule="evenodd" d="M7.17383 13.923C7.17383 13.4812 7.532 13.123 7.97383 13.123H8.78193C9.22376 13.123 9.58193 13.4812 9.58193 13.923V14.7692C9.58193 15.211 9.22376 15.5692 8.78193 15.5692H7.97383C7.532 15.5692 7.17383 15.211 7.17383 14.7692V13.923ZM8.37383 14.3692V14.323H8.38193V14.3692H8.37383Z" fill="#333333"/>
<path d="M19.5322 14.2661C19.7665 14.5004 19.7665 14.8803 19.5322 15.1146L18.0487 16.598L19.5327 18.0821C19.7671 18.3164 19.7671 18.6963 19.5327 18.9306C19.2984 19.1649 18.9185 19.1649 18.6842 18.9306L17.2002 17.4466L15.7162 18.9306C15.4819 19.1649 15.102 19.1649 14.8676 18.9306C14.6333 18.6963 14.6333 18.3164 14.8676 18.0821L16.3517 16.598L14.8682 15.1146C14.6339 14.8803 14.6339 14.5004 14.8682 14.2661C15.1025 14.0317 15.4824 14.0317 15.7167 14.2661L17.2002 15.7495L18.6836 14.2661C18.918 14.0317 19.2979 14.0317 19.5322 14.2661Z" fill="#333333"/>
</svg>
