<svg width="24" height="24" viewBox="0 0 24 24" fill="none" xmlns="http://www.w3.org/2000/svg">
<path d="M12.0002 12.7998C12.3315 12.7998 12.5998 13.0681 12.5998 13.3994C12.5998 13.7308 12.3315 13.999 12.0002 13.999C9.77942 13.999 8.36809 14.6194 7.4924 15.4434C6.65231 16.2339 6.24446 17.2698 6.13302 18.2998H12.1496L12.2707 18.3115C12.5439 18.3677 12.7492 18.6096 12.7492 18.8994C12.7492 19.1892 12.5439 19.4312 12.2707 19.4873L12.1496 19.499H6.00021C5.40714 19.499 4.86896 19.0087 4.92209 18.3516L4.9465 18.1064C5.09229 16.8736 5.59791 15.5783 6.67013 14.5693C7.81856 13.4888 9.55046 12.7998 12.0002 12.7998Z" fill="#333333"/>
<path d="M18.8215 13.7305C19.0558 13.4965 19.4349 13.4963 19.6692 13.7305C19.9034 13.9647 19.9032 14.3438 19.6692 14.5781L17.8479 16.3994L19.6692 18.2207C19.9035 18.455 19.9044 18.836 19.6701 19.0703C19.4359 19.3044 19.0558 19.3034 18.8215 19.0693L17.0002 17.2471L15.1789 19.0693C14.9448 19.3035 14.5646 19.3042 14.3303 19.0703C14.096 18.836 14.096 18.455 14.3303 18.2207L16.1516 16.3984L14.3313 14.5781C14.097 14.3438 14.097 13.9648 14.3313 13.7305C14.5656 13.4965 14.9447 13.4963 15.1789 13.7305L16.9992 15.5508L18.8215 13.7305Z" fill="#333333"/>
<path fill-rule="evenodd" clip-rule="evenodd" d="M12.2297 3.40527C17.1232 3.66451 16.6541 11.9369 11.9924 11.9375L11.8098 11.9336C8.07892 11.76 7.19123 6.26454 9.78537 4.16113L9.9133 4.0625C10.3772 3.72112 11.2689 3.39941 11.9924 3.39941L12.2297 3.40527ZM11.9924 4.59961C11.7924 4.59961 11.5185 4.64743 11.2326 4.74219C10.943 4.83822 10.7267 4.95394 10.6242 5.0293C9.71878 5.69619 9.2913 7.11673 9.59787 8.51367C9.89489 9.86683 10.7589 10.7373 11.9924 10.7373C12.771 10.7372 13.3486 10.4038 13.7678 9.86621C14.2086 9.3006 14.4778 8.49288 14.4983 7.63965C14.5187 6.78545 14.2875 6.00195 13.8752 5.46191C13.4911 4.95881 12.9044 4.59974 11.9924 4.59961Z" fill="#333333"/>
</svg>
