<svg width="24" height="24" viewBox="0 0 24 24" fill="none" xmlns="http://www.w3.org/2000/svg">
<path fill-rule="evenodd" clip-rule="evenodd" d="M14.5286 6.4043C14.8599 6.40445 15.1282 6.67263 15.1282 7.00391V7.875H15.4935C16.3249 7.875 17.1068 8.27207 17.596 8.94434L19.7982 11.9707L19.8362 12.0371C20.1062 12.3234 20.2728 12.7083 20.2728 13.1328V16.1602C20.2728 17.0437 19.5558 17.7598 18.6722 17.7598H18.598C18.3947 18.8996 17.4007 19.7655 16.2025 19.7656C15.0041 19.7656 14.0101 18.8997 13.8069 17.7598H10.9837C10.7805 18.8996 9.78642 19.7655 8.58819 19.7656C7.38985 19.7656 6.39588 18.8997 6.19269 17.7598H5.78839C4.90481 17.7598 4.18878 17.0437 4.18878 16.1602V14.7734C4.18878 14.4421 4.45702 14.1729 4.78839 14.1729C5.11976 14.1729 5.388 14.4421 5.388 14.7734V16.1602C5.388 16.381 5.56756 16.5605 5.78839 16.5605H6.27862C6.60088 15.5928 7.51214 14.8945 8.58819 14.8945C9.66413 14.8946 10.5755 15.5929 10.8978 16.5605H13.8929C14.2151 15.5928 15.1264 14.8945 16.2025 14.8945C17.2795 14.8946 18.1916 15.5943 18.513 16.5635C18.5259 16.5626 18.5389 16.5605 18.5521 16.5605H18.6722C18.893 16.5605 19.0726 16.381 19.0726 16.1602V13.1328C19.0726 12.912 18.893 12.7324 18.6722 12.7324H14.5286C14.1973 12.7324 13.928 12.4642 13.928 12.1328V7.00391C13.928 6.67254 14.1973 6.4043 14.5286 6.4043ZM8.58819 16.0938C7.90575 16.0938 7.35186 16.6476 7.35186 17.3301C7.35201 18.0124 7.90584 18.5654 8.58819 18.5654C9.27042 18.5653 9.8234 18.0123 9.82354 17.3301C9.82354 16.6477 9.27051 16.0939 8.58819 16.0938ZM16.2025 16.0938C15.52 16.0938 14.9661 16.6476 14.9661 17.3301C14.9663 18.0124 15.5201 18.5654 16.2025 18.5654C16.8847 18.5653 17.4377 18.0123 17.4378 17.3301C17.4378 16.6477 16.8848 16.0939 16.2025 16.0938ZM15.1282 11.5332H17.9954L16.6253 9.65039C16.3619 9.28858 15.941 9.07422 15.4935 9.07422H15.1282V11.5332Z" fill="#909090"/>
<path fill-rule="evenodd" clip-rule="evenodd" d="M7.77765 3.66797C8.16402 3.66804 8.48427 3.79492 8.763 3.92676C8.9169 3.99963 9.55404 4.35671 10.1419 4.6875C10.7533 5.03153 11.3439 5.3666 11.4495 5.42383C11.754 5.58879 12.0597 5.85916 12.2474 6.17969C12.429 6.48981 12.5189 6.78626 12.5189 7.25684V10.0996C12.5188 10.5214 12.4312 10.8464 12.2493 11.1602C12.0737 11.4632 11.852 11.6981 11.5003 11.8926C11.372 11.9635 10.7733 12.3038 10.1448 12.6543C9.83565 12.8267 9.52362 12.9992 9.27179 13.1348C9.14629 13.2023 9.03258 13.2619 8.94073 13.3086C8.86227 13.3485 8.76454 13.3971 8.68976 13.4238C8.64039 13.4415 8.591 13.4621 8.53253 13.4863C8.4782 13.5089 8.40816 13.5375 8.33819 13.5635C8.1929 13.6174 8.00414 13.6738 7.77765 13.6738C7.38138 13.6738 6.9848 13.505 6.74542 13.3945C6.59709 13.3261 5.97999 12.9849 5.40558 12.6621C4.82977 12.3386 4.21148 11.9855 4.06183 11.8857C3.82197 11.7258 3.50707 11.518 3.30206 11.1533C3.11593 10.822 3.05796 10.5181 3.03741 10.1309C3.01865 9.77513 3.03641 7.52689 3.03644 7.23828C3.03646 6.82056 3.12098 6.51964 3.29913 6.19434C3.50454 5.81946 3.79958 5.60751 4.05304 5.44531C4.19293 5.35592 4.82203 5.01161 5.40851 4.69141C6.02177 4.35658 6.61576 4.03351 6.73956 3.96094C7.0953 3.75241 7.41498 3.66797 7.77765 3.66797ZM4.23468 7.24219C4.23453 7.59649 4.21918 9.75497 4.23565 10.0674C4.25048 10.3469 4.28331 10.4504 4.34796 10.5654C4.39371 10.6468 4.46785 10.7144 4.72784 10.8877C4.82977 10.9555 5.39205 11.2783 5.99347 11.6162C6.28671 11.781 6.57948 11.9442 6.8128 12.0723C6.92939 12.1362 7.03048 12.1907 7.1087 12.2324C7.13477 12.2463 7.15805 12.2581 7.17804 12.2686V9.00977L4.23468 7.24219ZM8.37726 9.00977V12.248C8.38325 12.245 8.39014 12.2426 8.39679 12.2393C8.4765 12.1987 8.5813 12.1438 8.70343 12.0781C8.94713 11.947 9.25246 11.7779 9.55987 11.6064C10.1649 11.2691 10.7981 10.9103 10.9202 10.8428C11.068 10.7611 11.1359 10.6868 11.2103 10.5586C11.2785 10.4409 11.3187 10.3259 11.3187 10.0996V7.25684C11.3187 7.25222 11.3177 7.24767 11.3177 7.24316L8.37726 9.00977ZM7.77765 4.86719C7.63919 4.86719 7.52793 4.8901 7.34698 4.99609C7.20225 5.08094 6.57856 5.42034 5.9837 5.74512C5.59682 5.95635 5.22998 6.15812 4.98565 6.29395L7.77667 7.96973L10.5589 6.29883C10.2992 6.15272 9.92336 5.94178 9.55304 5.7334C8.9326 5.38428 8.35273 5.06068 8.24933 5.01172C8.01576 4.90126 7.8923 4.86725 7.77765 4.86719Z" fill="#909090"/>
</svg>
