<svg width="24" height="24" viewBox="0 0 24 24" fill="none" xmlns="http://www.w3.org/2000/svg">
<path fill-rule="evenodd" clip-rule="evenodd" d="M8.37369 6.73633C8.70481 6.73655 8.97319 7.00479 8.9733 7.33594C8.97304 7.66695 8.70471 7.93631 8.37369 7.93652H7.47623C7.25554 7.93671 7.07595 8.11523 7.07584 8.33594V14.9238C7.0761 15.1444 7.25564 15.324 7.47623 15.3242H16.4909C16.6879 15.3242 16.8618 15.4198 16.9713 15.5664C16.9782 15.5725 16.9861 15.5775 16.9928 15.584L19.0202 17.5479C19.5366 18.048 19.1825 18.9219 18.4635 18.9219H4.99771C4.3079 18.9216 3.9422 18.1067 4.40006 17.5908L6.07877 15.7002C5.95079 15.4701 5.8767 15.2057 5.87662 14.9238V8.33594C5.87673 7.45249 6.5928 6.73652 7.47623 6.73633H8.37369ZM5.88736 17.7227H17.4762L16.2389 16.5244H7.47623C7.31486 16.5244 7.1592 16.4996 7.01236 16.4551L5.88736 17.7227Z" fill="#15C674"/>
<path fill-rule="evenodd" clip-rule="evenodd" d="M13.2233 9.94531C13.8307 9.94531 14.3238 10.4375 14.3239 11.0449V12.8945C14.3238 13.502 13.8308 13.9941 13.2233 13.9941H11.2936C10.6863 13.994 10.1941 13.5018 10.194 12.8945V11.0449C10.1941 10.4376 10.6863 9.9455 11.2936 9.94531H13.2233ZM11.3932 12.7939H13.1237V11.1445H11.3932V12.7939Z" fill="#15C674"/>
<path fill-rule="evenodd" clip-rule="evenodd" d="M18.154 9.94531C18.7613 9.94539 19.2544 10.4376 19.2545 11.0449V12.8945C19.2545 13.5019 18.7614 13.9941 18.154 13.9941H16.2243C15.6168 13.9941 15.1248 13.502 15.1247 12.8945V11.0449C15.1248 10.4375 15.6168 9.94531 16.2243 9.94531H18.154ZM16.3239 12.7939H18.0544V11.1445H16.3239V12.7939Z" fill="#15C674"/>
<path fill-rule="evenodd" clip-rule="evenodd" d="M13.2233 5.0957C13.8307 5.0957 14.3237 5.58797 14.3239 6.19531V8.04492C14.3238 8.65235 13.8308 9.14453 13.2233 9.14453H11.2936C10.6863 9.14434 10.1941 8.65224 10.194 8.04492V6.19531C10.1942 5.58808 10.6864 5.09589 11.2936 5.0957H13.2233ZM11.3932 7.94434H13.1237V6.29492H11.3932V7.94434Z" fill="#15C674"/>
<path fill-rule="evenodd" clip-rule="evenodd" d="M18.154 5.0957C18.7613 5.09578 19.2544 5.58801 19.2545 6.19531V8.04492C19.2545 8.65231 18.7614 9.14446 18.154 9.14453H16.2243C15.6168 9.14453 15.1248 8.65235 15.1247 8.04492V6.19531C15.1249 5.58797 15.6169 5.0957 16.2243 5.0957H18.154ZM16.3239 7.94434H18.0544V6.29492H16.3239V7.94434Z" fill="#15C674"/>
</svg>
