<svg width="24" height="24" viewBox="0 0 24 24" fill="none" xmlns="http://www.w3.org/2000/svg">
<path fill-rule="evenodd" clip-rule="evenodd" d="M8.3738 6.73564C8.70492 6.73586 8.9733 7.00411 8.97341 7.33525C8.9733 7.6664 8.70492 7.93562 8.3738 7.93584H7.47634C7.25565 7.93603 7.07606 8.11455 7.07595 8.33525V14.9231C7.07606 15.1438 7.25565 15.3233 7.47634 15.3235H16.491C16.6879 15.3235 16.8619 15.4192 16.9715 15.5657C16.9784 15.5718 16.9863 15.5768 16.9929 15.5833L19.0203 17.5472C19.5367 18.0473 19.1826 18.9212 18.4636 18.9212H4.99782C4.30794 18.9209 3.94209 18.106 4.40017 17.5901L6.07888 15.6995C5.95093 15.4694 5.87676 15.205 5.87673 14.9231V8.33525C5.87684 7.45181 6.59291 6.73583 7.47634 6.73564H8.3738ZM5.88747 17.722H17.4763L16.239 16.5237H7.47634C7.31494 16.5237 7.15933 16.4989 7.01247 16.4544L5.88747 17.722Z" fill="#15C674"/>
<path fill-rule="evenodd" clip-rule="evenodd" d="M16.6033 3.25908C16.829 3.30034 17.0149 3.46911 17.075 3.69658C17.1008 3.79423 17.1197 3.88939 17.1336 3.98076C17.223 4.57151 17.1169 5.12679 16.8299 5.62724C17.7039 5.74753 18.4228 6.14121 18.9158 6.84209C19.0113 6.97791 19.0464 7.14732 19.0125 7.30986C18.9784 7.47249 18.8782 7.61433 18.7361 7.70049C18.1563 8.05192 17.9137 8.4957 17.9187 9.07744L17.9275 9.24932C17.961 9.58472 18.0845 9.86342 18.2986 10.1028L18.4129 10.22L18.4187 10.2249C18.5717 10.37 18.7389 10.4795 18.9236 10.5569C19.2149 10.6793 19.3615 11.0072 19.2586 11.306C19.1997 11.4768 19.1364 11.6421 19.0691 11.802L19.0672 11.8079C18.9021 12.1893 18.7051 12.5437 18.4754 12.8714C18.1953 13.2708 17.9344 13.5925 17.7029 13.7972L17.7039 13.7981C17.6997 13.802 17.6954 13.8061 17.6912 13.8099L17.6902 13.8089C17.3322 14.1338 16.9092 14.3338 16.4295 14.345H16.4158C16.0835 14.345 15.73 14.2526 15.3728 14.1058C15.1091 13.9984 14.8952 13.9564 14.7244 13.9563C14.5836 13.9563 14.4226 13.9812 14.239 14.0384L14.0476 14.1067C13.7031 14.2462 13.3688 14.3427 13.0681 14.3538L13.0691 14.3548C13.0676 14.3548 13.0657 14.3538 13.0642 14.3538C12.5605 14.3735 12.1172 14.148 11.7468 13.8079C11.7441 13.8055 11.7408 13.8035 11.7381 13.8011C11.7364 13.7995 11.7349 13.7978 11.7332 13.7962C11.4902 13.5805 11.2222 13.2511 10.9343 12.844C10.5902 12.3593 10.3125 11.805 10.0984 11.1868L10.0974 11.1849C9.86648 10.5119 9.74685 9.84674 9.74685 9.19267C9.74693 8.44107 9.90973 7.75753 10.2625 7.16826C10.5381 6.69957 10.9091 6.32254 11.3728 6.04717C11.8397 5.76997 12.3489 5.62843 12.8894 5.61943L12.8992 5.61846C13.159 5.61848 13.4458 5.67677 13.7468 5.7708L13.8445 5.804C13.8468 5.22584 14.0483 4.65722 14.4236 4.1956C14.6695 3.88938 14.9918 3.65915 15.366 3.49346L15.3689 3.4915C15.7377 3.33086 16.1185 3.24329 16.5047 3.24932L16.6033 3.25908ZM16.4988 6.79717C16.3103 6.78116 16.0265 6.81961 15.6248 6.96416C15.3876 7.05117 15.1911 7.11902 15.0398 7.16631C14.9643 7.18991 14.8927 7.21073 14.8299 7.22588C14.7817 7.23748 14.689 7.25903 14.5916 7.25908C14.4413 7.25908 14.2765 7.21566 14.1521 7.179C14.008 7.1365 13.8338 7.07543 13.6336 7.00029C13.2689 6.86422 13.0349 6.81928 12.9021 6.81865C12.5706 6.82533 12.269 6.91145 11.9861 7.07939C11.6995 7.24954 11.4704 7.47963 11.2947 7.77959L11.2918 7.78447C11.0701 8.15485 10.9461 8.6167 10.9461 9.19267C10.9461 9.69772 11.0389 10.2308 11.2322 10.7942L11.3777 11.1741C11.4802 11.4183 11.5939 11.644 11.7185 11.8519L11.9129 12.1507L11.9138 12.1517C12.1237 12.4484 12.2922 12.6566 12.4207 12.7923L12.5359 12.9046L12.5506 12.9173C12.7759 13.1268 12.9277 13.1594 13.0183 13.1556H13.0232C13.1178 13.1523 13.3006 13.1146 13.5974 12.9944C13.9743 12.8424 14.3522 12.7571 14.7244 12.7571C15.0872 12.7572 15.4571 12.8441 15.8279 12.9954H15.8299C16.0993 13.1062 16.2876 13.1421 16.407 13.1438C16.5487 13.1393 16.7066 13.0853 16.8914 12.9153L16.9041 12.9036C17.0227 12.8005 17.2182 12.5747 17.4929 12.1829C17.6647 11.938 17.8133 11.6694 17.9431 11.3772C17.8222 11.2935 17.7062 11.2018 17.5974 11.0989C17.0221 10.5656 16.727 9.88184 16.7185 9.09014C16.7114 8.3024 16.9925 7.63895 17.5242 7.12432C17.2608 6.94389 16.9265 6.83155 16.5008 6.79717H16.4988ZM15.8484 4.59209C15.6196 4.69387 15.4632 4.81586 15.3572 4.94853L15.3543 4.95244C15.1789 5.16817 15.0784 5.42019 15.0506 5.67314C15.2755 5.60318 15.4828 5.45127 15.6726 5.20928C15.8333 4.99927 15.925 4.78268 15.9539 4.5501C15.9194 4.56289 15.884 4.57658 15.8484 4.59209Z" fill="#15C674"/>
</svg>
