<svg width="24" height="24" viewBox="0 0 24 24" fill="none" xmlns="http://www.w3.org/2000/svg">
<path d="M7.53906 15.9684C7.53896 15.8581 7.44926 15.7682 7.33887 15.7682H5.50293C5.39263 15.7683 5.30284 15.8581 5.30273 15.9684V17.8044C5.30274 17.9148 5.39256 18.0045 5.50293 18.0046H7.33887C7.44932 18.0046 7.53906 17.9148 7.53906 17.8044V15.9684ZM13.5977 15.9684C13.5976 15.8581 13.5079 15.7682 13.3975 15.7682H11.5615C11.4512 15.7683 11.3614 15.8581 11.3613 15.9684V17.8044C11.3613 17.9148 11.4512 18.0045 11.5615 18.0046H13.3975C13.5079 18.0046 13.5977 17.9148 13.5977 17.8044V15.9684ZM7.53906 9.91374C7.53896 9.80337 7.44926 9.71355 7.33887 9.71354H5.50293C5.39263 9.71365 5.30284 9.80344 5.30273 9.91374V11.7497C5.30274 11.8601 5.39256 11.9498 5.50293 11.9499H7.33887C7.44932 11.9499 7.53906 11.8601 7.53906 11.7497V9.91374ZM18.9824 8.69304C18.9824 7.69432 18.8699 6.86669 18.627 6.31022C18.5084 6.03893 18.3711 5.86068 18.2285 5.75163C18.0937 5.64869 17.9234 5.58269 17.6846 5.58269C17.4457 5.58269 17.2754 5.64869 17.1406 5.75163C16.998 5.86068 16.8607 6.03893 16.7422 6.31022C16.4992 6.86669 16.3867 7.69432 16.3867 8.69304C16.3867 9.69087 16.5004 10.5183 16.7441 11.0749C16.8632 11.3466 17.0008 11.5252 17.1436 11.6344C17.2784 11.7375 17.4479 11.8024 17.6846 11.8024C17.9212 11.8024 18.0908 11.7375 18.2256 11.6344C18.3684 11.5252 18.506 11.3466 18.625 11.0749C18.8687 10.5183 18.9824 9.69087 18.9824 8.69304ZM12.2031 12.1354V6.18327L10.7793 7.25163C10.5142 7.45045 10.1373 7.39661 9.93848 7.13151C9.73965 6.86642 9.7935 6.48952 10.0586 6.29069L12.4434 4.50261C12.625 4.36659 12.8682 4.34456 13.0713 4.44597C13.2746 4.5476 13.4033 4.75581 13.4033 4.98308V12.1354C13.4033 12.4668 13.1341 12.735 12.8027 12.735C12.4715 12.7349 12.2031 12.4667 12.2031 12.1354ZM8.73926 17.8044C8.73926 18.5776 8.11206 19.2048 7.33887 19.2048H5.50293C4.72982 19.2046 4.10352 18.5775 4.10352 17.8044V15.9684C4.10362 15.1954 4.72989 14.5691 5.50293 14.569H7.33887C8.112 14.569 8.73915 15.1953 8.73926 15.9684V17.8044ZM14.7979 17.8044C14.7978 18.5776 14.1707 19.2048 13.3975 19.2048H11.5615C10.7884 19.2046 10.1621 18.5775 10.1621 17.8044V15.9684C10.1622 15.1954 10.7885 14.5691 11.5615 14.569H13.3975C14.1706 14.569 14.7977 15.1953 14.7979 15.9684V17.8044ZM8.73926 11.7497C8.73926 12.5229 8.11206 13.1501 7.33887 13.1501H5.50293C4.72982 13.15 4.10352 12.5228 4.10352 11.7497V9.91374C4.10362 9.1407 4.72989 8.51443 5.50293 8.51433H7.33887C8.112 8.51433 8.73915 9.14063 8.73926 9.91374V11.7497ZM20.1816 8.69304C20.1816 9.74348 20.0679 10.7705 19.7236 11.5563C19.5486 11.9558 19.3023 12.3214 18.9541 12.5876C18.5979 12.8599 18.1691 13.0026 17.6846 13.0026C17.2001 13.0026 16.7712 12.8599 16.415 12.5876C16.0669 12.3214 15.8205 11.9558 15.6455 11.5563C15.3013 10.7705 15.1875 9.74348 15.1875 8.69304C15.1875 7.64344 15.2993 6.61584 15.6426 5.82976C15.8172 5.42999 16.0643 5.06393 16.4131 4.79753C16.7698 4.5252 17.1992 4.38347 17.6846 4.38347C18.1699 4.38347 18.5993 4.5252 18.9561 4.79753C19.3049 5.06393 19.5519 5.42999 19.7266 5.82976C20.0699 6.61584 20.1816 7.64344 20.1816 8.69304Z" fill="#15C674"/>
</svg>
