<svg width="24" height="24" viewBox="0 0 24 24" fill="none" xmlns="http://www.w3.org/2000/svg">
<path fill-rule="evenodd" clip-rule="evenodd" d="M7.33887 14.5698C8.112 14.5698 8.73915 15.1961 8.73926 15.9692V17.8052C8.73903 18.5782 8.11192 19.2055 7.33887 19.2055H5.50293C4.72996 19.2054 4.10374 18.5781 4.10352 17.8052V15.9692C4.10362 15.1962 4.72989 14.5699 5.50293 14.5698H7.33887ZM5.50293 15.769C5.39263 15.7691 5.30284 15.8589 5.30273 15.9692V17.8052C5.30296 17.9154 5.3927 18.0052 5.50293 18.0053H7.33887C7.44918 18.0053 7.53883 17.9154 7.53906 17.8052V15.9692C7.53896 15.8588 7.44926 15.769 7.33887 15.769H5.50293Z" fill="#15C674"/>
<path fill-rule="evenodd" clip-rule="evenodd" d="M13.3975 14.5698C14.1706 14.5698 14.7977 15.1961 14.7979 15.9692V17.8052C14.7976 18.5782 14.1705 19.2055 13.3975 19.2055H11.5615C10.7886 19.2054 10.1623 18.5781 10.1621 17.8052V15.9692C10.1622 15.1962 10.7885 14.5699 11.5615 14.5698H13.3975ZM11.5615 15.769C11.4512 15.7691 11.3614 15.8589 11.3613 15.9692V17.8052C11.3616 17.9154 11.4513 18.0052 11.5615 18.0053H13.3975C13.5078 18.0053 13.5974 17.9154 13.5977 17.8052V15.9692C13.5976 15.8588 13.5079 15.769 13.3975 15.769H11.5615Z" fill="#15C674"/>
<path fill-rule="evenodd" clip-rule="evenodd" d="M7.33887 8.51511C8.112 8.51512 8.73915 9.14142 8.73926 9.91453V11.7505C8.73903 12.5235 8.11192 13.1509 7.33887 13.1509H5.50293C4.72996 13.1508 4.10374 12.5234 4.10352 11.7505V9.91453C4.10362 9.14148 4.72989 8.51522 5.50293 8.51511H7.33887ZM5.50293 9.71433C5.39263 9.71444 5.30284 9.80423 5.30273 9.91453V11.7505C5.30296 11.8607 5.3927 11.9506 5.50293 11.9507H7.33887C7.44918 11.9507 7.53883 11.8607 7.53906 11.7505V9.91453C7.53896 9.80416 7.44926 9.71433 7.33887 9.71433H5.50293Z" fill="#15C674"/>
<path fill-rule="evenodd" clip-rule="evenodd" d="M17.6846 4.38425C18.1699 4.38425 18.5993 4.52599 18.9561 4.79832C19.3048 5.0647 19.5519 5.43086 19.7266 5.83054C20.0698 6.61658 20.1816 7.64438 20.1816 8.69382C20.1816 9.74412 20.0678 10.7713 19.7236 11.5571C19.5486 11.9565 19.3022 12.3222 18.9541 12.5884C18.598 12.8606 18.169 13.0034 17.6846 13.0034C17.2002 13.0034 16.7712 12.8606 16.415 12.5884C16.067 12.3222 15.8205 11.9565 15.6455 11.5571C15.3013 10.7713 15.1876 9.74412 15.1875 8.69382C15.1875 7.64438 15.2994 6.61658 15.6426 5.83054C15.8172 5.43086 16.0644 5.0647 16.4131 4.79832C16.7698 4.52599 17.1992 4.38425 17.6846 4.38425ZM17.6846 5.58347C17.4457 5.58347 17.2754 5.64947 17.1406 5.75242C16.9981 5.86149 16.8607 6.03985 16.7422 6.31101C16.4993 6.86747 16.3867 7.69532 16.3867 8.69382C16.3868 9.69147 16.5004 10.5192 16.7441 11.0757C16.8631 11.3472 17.0008 11.5261 17.1436 11.6352C17.2783 11.7382 17.448 11.8032 17.6846 11.8032C17.9211 11.8032 18.0908 11.7382 18.2256 11.6352C18.3683 11.5261 18.506 11.3472 18.625 11.0757C18.8687 10.5192 18.9824 9.69147 18.9824 8.69382C18.9824 7.69532 18.8698 6.86747 18.627 6.31101C18.5085 6.03985 18.3711 5.86149 18.2285 5.75242C18.0937 5.64947 17.9234 5.58347 17.6846 5.58347Z" fill="#15C674"/>
<path d="M10.1289 5.47019C10.65 4.53883 11.9952 3.98056 13.2881 4.6489C14.2623 5.15281 14.5301 6.07983 14.4834 6.91355C14.4378 7.72558 14.101 8.54135 13.7451 9.09324C13.4212 9.5956 12.7666 10.5168 12.2021 11.2993C12.0763 11.4738 11.9535 11.6417 11.8398 11.7983H14.1592C14.4903 11.7985 14.7587 12.0668 14.7588 12.3979C14.7587 12.7291 14.4903 12.9973 14.1592 12.9975H10.6602C10.4342 12.9973 10.227 12.8701 10.125 12.6684C10.0232 12.4667 10.043 12.2246 10.1768 12.0425L10.1787 12.0405C10.1787 12.0405 10.1809 12.037 10.1826 12.0346C10.1863 12.0297 10.1922 12.0227 10.1992 12.0132C10.2136 11.9936 10.2345 11.9643 10.2617 11.9272C10.3162 11.853 10.395 11.7455 10.4912 11.6137C10.6836 11.3502 10.9461 10.9886 11.2285 10.5971C11.7975 9.80824 12.4336 8.91381 12.7373 8.44285C13.009 8.02147 13.2539 7.40382 13.2852 6.84617C13.3151 6.31054 13.155 5.93081 12.7363 5.71433C12.0289 5.34894 11.3863 5.67965 11.1758 6.05613C11.014 6.34528 10.6486 6.44834 10.3594 6.2866C10.0706 6.1247 9.96725 5.75923 10.1289 5.47019Z" fill="#15C674"/>
</svg>
