<svg width="24" height="24" viewBox="0 0 24 24" fill="none" xmlns="http://www.w3.org/2000/svg">
<path d="M4.86671 18.1956L4.86671 8.11067L4.30421 8.65559L4.20851 8.73079C3.97308 8.88053 3.65709 8.85031 3.45558 8.64192C3.22525 8.4037 3.23202 8.02363 3.47023 7.79329L5.0503 6.26497L5.11866 6.20833C5.28677 6.08819 5.50759 6.06163 5.70167 6.14387C5.92339 6.23791 6.06788 6.45577 6.06788 6.69661L6.06691 18.1956C6.0669 18.5269 5.79859 18.7952 5.4673 18.7952C5.13593 18.7952 4.8667 18.527 4.86671 18.1956Z" fill="#909090"/>
<path d="M12.6831 9.68977C12.6831 8.80108 12.4452 8.21881 12.1401 7.84993C11.8345 7.48039 11.4215 7.2756 10.979 7.21126C10.5302 7.14603 10.0676 7.22857 9.69972 7.41731C9.33108 7.60648 9.09948 7.87798 9.01905 8.16829L8.97511 8.28157C8.84818 8.53007 8.55919 8.66366 8.2798 8.58626C7.96082 8.49769 7.77371 8.16706 7.86183 7.84797L7.90187 7.72102C8.117 7.09693 8.59865 6.63384 9.15187 6.34993C9.74285 6.04671 10.4578 5.92287 11.1519 6.02376C11.8521 6.12562 12.5474 6.45956 13.065 7.08528C13.583 7.71182 13.8833 8.58263 13.8833 9.68977C13.8832 11.5439 12.6958 12.8457 11.564 14.054C10.565 15.1206 9.54412 16.1743 8.9087 17.5863H13.1099L13.231 17.598C13.5043 17.6539 13.7104 17.896 13.7105 18.1859C13.7105 18.4758 13.5044 18.7178 13.231 18.7738L13.1099 18.7865H8.03761C7.84667 18.7865 7.66726 18.6952 7.55421 18.5413C7.44117 18.3873 7.4081 18.1884 7.46534 18.0062C8.13377 15.8783 9.55022 14.4484 10.688 13.2337C11.8683 11.9737 12.683 11.0026 12.6831 9.68977Z" fill="#909090"/>
<path d="M18.6157 8.99837C18.6157 9.99989 18.1718 10.5081 17.7525 10.7894C17.5311 10.9378 17.3059 11.0284 17.1343 11.0814C17.0494 11.1076 16.9803 11.1238 16.9351 11.1331C16.9128 11.1377 16.8964 11.1404 16.8872 11.1419C16.8833 11.1426 16.8805 11.1437 16.8794 11.1439C16.5744 11.1845 16.3493 11.4493 16.3589 11.7572C16.3686 12.0659 16.6112 12.3171 16.9194 12.3372C16.922 12.3374 16.9271 12.3374 16.9351 12.3382C16.951 12.3398 16.9773 12.3431 17.0122 12.348C17.0827 12.3578 17.1874 12.3759 17.315 12.4066C17.5729 12.4686 17.9112 12.5799 18.2437 12.7767C18.879 13.1527 19.5396 13.8578 19.5396 15.2972C19.5396 16.5448 18.7265 17.3555 17.7446 17.6282C16.7403 17.9072 15.7146 17.5917 15.2505 16.7327C15.093 16.4412 14.7286 16.3322 14.437 16.4896C14.1455 16.647 14.0364 17.0115 14.1939 17.3031C14.9937 18.784 16.6775 19.1702 18.0659 18.7845C19.4768 18.3925 20.7398 17.1721 20.7398 15.2972C20.7398 13.384 19.8101 12.3098 18.855 11.7445C18.783 11.7019 18.7104 11.6631 18.6392 11.6263C19.2644 11.1263 19.8159 10.2989 19.8159 8.99837C19.8158 7.48045 18.8737 6.51142 17.7525 6.19173C16.6693 5.88296 15.3636 6.16792 14.5982 7.16048L15.0737 7.52669L15.5484 7.89387C15.9651 7.35346 16.7309 7.14864 17.4234 7.34602C18.0774 7.53253 18.6156 8.06513 18.6157 8.99837ZM14.7066 8.00227C14.9688 8.20455 15.3459 8.15597 15.5484 7.89387L14.5982 7.16048C14.3958 7.42282 14.4443 7.79987 14.7066 8.00227Z" fill="#909090"/>
</svg>
