<svg width="24" height="24" viewBox="0 0 24 24" fill="none" xmlns="http://www.w3.org/2000/svg">
<path d="M19.1372 14.2461C19.3715 14.0118 19.7515 14.0118 19.9858 14.2461C20.22 14.4804 20.22 14.8595 19.9858 15.0938L18.2876 16.791L19.9858 18.4883C20.2201 18.7226 20.2201 19.1026 19.9858 19.3369C19.7515 19.5712 19.3715 19.5712 19.1372 19.3369L17.4399 17.6387L15.7427 19.3369C15.5084 19.5711 15.1293 19.571 14.895 19.3369C14.6607 19.1026 14.6607 18.7226 14.895 18.4883L16.5913 16.791L14.895 15.0938C14.6607 14.8594 14.6607 14.4804 14.895 14.2461C15.1293 14.0118 15.5084 14.0118 15.7427 14.2461L17.4399 15.9424L19.1372 14.2461ZM6.21631 13.7793L9.24268 14.3848C9.56733 14.4499 9.77731 14.7651 9.7124 15.0898C9.64742 15.4147 9.33218 15.6254 9.00732 15.5605L7.25244 15.209C8.20928 16.7201 9.83249 17.697 11.6099 17.834C11.9401 17.8594 12.1878 18.1473 12.1626 18.4775C12.1368 18.8076 11.8482 19.0557 11.5181 19.0303C9.44739 18.8708 7.54581 17.7731 6.37158 16.0586L6.08057 17.5186C6.01542 17.8432 5.6993 18.0542 5.37451 17.9893C5.05002 17.9242 4.84036 17.6087 4.90479 17.2842L5.51025 14.25C5.57519 13.9251 5.89136 13.7144 6.21631 13.7793ZM7.12354 4.90918L10.1343 5.62109L10.2495 5.66016C10.5027 5.77729 10.6471 6.05966 10.5806 6.3418L9.87158 9.3457C9.79533 9.66804 9.47229 9.86709 9.1499 9.79102C8.82741 9.71485 8.62746 9.39183 8.70361 9.06934L9.11963 7.30762C7.80209 8.09965 6.87317 9.3923 6.52295 10.8613C6.44581 11.1831 6.1213 11.3822 5.79932 11.3057C5.47727 11.2288 5.27845 10.9041 5.35498 10.582C5.75934 8.88654 6.80275 7.38447 8.28564 6.41602L6.84814 6.07715C6.52593 6.00078 6.32673 5.6778 6.40283 5.35547C6.47894 5.03324 6.8013 4.83353 7.12354 4.90918ZM13.8306 5.53027C15.6997 6.03427 17.315 7.31918 18.2036 9.11133L18.8862 7.66406C19.0276 7.36466 19.3845 7.23595 19.6841 7.37695C19.9837 7.51807 20.1119 7.87515 19.9712 8.1748L18.6528 10.9736C18.5292 11.236 18.2404 11.3669 17.9692 11.3008L17.855 11.2607L15.063 9.94531C14.7634 9.80401 14.6347 9.44714 14.7759 9.14746C14.917 8.84793 15.2741 8.71958 15.5737 8.86035L17.0933 9.57617C16.353 8.1339 15.039 7.09856 13.5181 6.68848C13.1986 6.60207 13.0094 6.27273 13.0952 5.95312C13.1816 5.63353 13.5109 5.44431 13.8306 5.53027Z" fill="#15C674"/>
</svg>
