<svg width="24" height="24" viewBox="0 0 24 24" fill="none" xmlns="http://www.w3.org/2000/svg">
<path d="M18.0029 15.5781C18.334 15.5785 18.6025 15.8466 18.6025 16.1777C18.6025 16.5089 18.334 16.777 18.0029 16.7773H16.6436C16.3122 16.7773 16.0439 16.5091 16.0439 16.1777C16.0439 15.8464 16.3122 15.5781 16.6436 15.5781H18.0029Z" fill="#15C674"/>
<path fill-rule="evenodd" clip-rule="evenodd" d="M17.2021 11.7666C17.975 11.767 18.6015 12.3931 18.6016 13.166V13.8223H18.6934C19.6317 13.8227 20.3924 14.5831 20.3926 15.5215V18.4072C20.3926 19.3458 19.6319 20.107 18.6934 20.1074H18.5C18.2932 20.6217 17.7905 20.9851 17.2021 20.9854H13.2432C12.6547 20.9853 12.1522 20.6218 11.9453 20.1074H11.7529C10.8142 20.1072 10.0537 19.346 10.0537 18.4072V15.5215C10.0539 14.5829 10.8144 13.8225 11.7529 13.8223H11.8438V13.166C11.8439 12.393 12.4701 11.7667 13.2432 11.7666H17.2021ZM13.2432 18.71C13.1329 18.7101 13.0431 18.7999 13.043 18.9102V19.5859C13.0431 19.6962 13.1329 19.786 13.2432 19.7861H17.2021C17.3122 19.7857 17.4022 19.6961 17.4023 19.5859V18.9102C17.4022 18.8 17.3122 18.7104 17.2021 18.71H13.2432ZM11.7529 15.0215C11.4771 15.0217 11.2531 15.2457 11.2529 15.5215V18.4072C11.2529 18.6832 11.477 18.907 11.7529 18.9072H11.8438C11.8454 18.1355 12.4711 17.5108 13.2432 17.5107H17.2021C17.974 17.5111 18.5999 18.1357 18.6016 18.9072H18.6934C18.9691 18.9068 19.1934 18.6831 19.1934 18.4072V15.5215C19.1931 15.2458 18.969 15.0219 18.6934 15.0215H11.7529ZM13.2432 12.9658C13.1329 12.9659 13.0431 13.0557 13.043 13.166V13.8223H17.4023V13.166C17.4022 13.0559 17.3122 12.9662 17.2021 12.9658H13.2432Z" fill="#15C674"/>
<path fill-rule="evenodd" clip-rule="evenodd" d="M13.6162 4.11035C14.2303 4.10929 14.8392 4.39749 15.2695 4.76172L15.4434 4.92188L15.4463 4.92578L17.6064 7.15234C17.8848 7.43419 18.1012 7.75792 18.2529 8.12988C18.4299 8.56415 18.4001 9.01769 18.3994 9.2832V10.0684C18.3994 10.3995 18.13 10.6677 17.7988 10.668C17.4677 10.6678 17.1992 10.3996 17.1992 10.0684V9.69531H14.7871C14.2601 9.69531 13.7534 9.48603 13.3799 9.11426C13.0063 8.74214 12.796 8.23717 12.7959 7.70996V5.30859H8.46484C8.09943 5.30859 7.89049 5.3226 7.71582 5.37402C7.56055 5.41983 7.39386 5.50802 7.16016 5.72852C6.88804 5.98537 6.78812 6.34586 6.78809 7.11621V16.9189C6.78809 17.5548 6.86661 17.9548 7.13574 18.2275C7.32814 18.4225 7.47634 18.5257 7.62891 18.5889C7.78373 18.6528 7.9902 18.6943 8.32617 18.6943C8.65732 18.6946 8.92676 18.9637 8.92676 19.2949C8.92662 19.626 8.65724 19.8943 8.32617 19.8945C7.89469 19.8945 7.51819 19.8422 7.16992 19.6982C6.81916 19.553 6.54151 19.333 6.28223 19.0703C5.6476 18.4273 5.5879 17.5782 5.58789 16.9189V7.11621C5.58792 6.30696 5.67275 5.48267 6.33594 4.85645C6.67215 4.53913 6.99945 4.33495 7.37695 4.22363C7.73497 4.11819 8.10059 4.10938 8.46484 4.10938L13.6162 4.11035ZM13.9951 7.70996C13.9952 7.91745 14.0786 8.11725 14.2266 8.26465C14.3747 8.41176 14.5769 8.49512 14.7871 8.49512H17.1016C17.0143 8.30984 16.9005 8.14553 16.7529 7.99609L16.749 7.99219L14.5879 5.76465C14.4253 5.59981 14.2086 5.46415 13.9951 5.38477V7.70996Z" fill="#15C674"/>
</svg>
