<svg width="24" height="24" viewBox="0 0 24 24" fill="none" xmlns="http://www.w3.org/2000/svg">
<path d="M14.9951 14.5107C15.6117 14.4274 16.1459 14.691 16.6035 15.1221C16.8446 15.3492 16.8559 15.7295 16.6289 15.9707C16.4017 16.2119 16.0215 16.2233 15.7803 15.9961C15.4808 15.7141 15.2917 15.6819 15.1562 15.7002C14.978 15.7243 14.7042 15.8593 14.2959 16.2676L13.0234 17.5391C12.4801 18.0824 12.4686 18.7506 12.9043 19.1865C13.3064 19.5886 14 19.5644 14.584 18.9805C14.8182 18.7464 15.1984 18.7464 15.4326 18.9805C15.6665 19.2147 15.6666 19.5949 15.4326 19.8291C14.5722 20.6894 13.0979 21.0773 12.0557 20.0352C11.0475 19.0268 11.2742 17.5923 12.1748 16.6914L13.4473 15.4189C13.9134 14.9529 14.4212 14.5884 14.9951 14.5107Z" fill="#15C674"/>
<path fill-rule="evenodd" clip-rule="evenodd" d="M13.6162 4.11035C14.2303 4.10929 14.8392 4.39749 15.2695 4.76172L15.4434 4.92188L15.4463 4.92578L17.6064 7.15234C17.8848 7.43419 18.1012 7.75792 18.2529 8.12988C18.4299 8.56415 18.4001 9.01769 18.3994 9.2832V10.0684C18.3994 10.3995 18.13 10.6677 17.7988 10.668C17.4677 10.6678 17.1992 10.3996 17.1992 10.0684V9.69531H14.7861C14.2589 9.69531 13.7525 9.48634 13.3789 9.11426C13.0053 8.74214 12.795 8.23717 12.7949 7.70996V5.30859H8.46484C8.09943 5.30859 7.89049 5.3226 7.71582 5.37402C7.56055 5.41983 7.39386 5.50802 7.16016 5.72852C6.88804 5.98537 6.78812 6.34586 6.78809 7.11621V16.9189C6.78809 17.5548 6.86661 17.9548 7.13574 18.2275C7.32814 18.4225 7.47634 18.5257 7.62891 18.5889C7.78373 18.6528 7.9902 18.6943 8.32617 18.6943H9.52344C9.85442 18.6948 10.123 18.9638 10.123 19.2949C10.1229 19.6259 9.85434 19.8941 9.52344 19.8945H8.32617C7.89469 19.8945 7.51819 19.8422 7.16992 19.6982C6.81916 19.553 6.54151 19.333 6.28223 19.0703C5.6476 18.4273 5.5879 17.5782 5.58789 16.9189V7.11621C5.58792 6.30696 5.67275 5.48267 6.33594 4.85645C6.67215 4.53913 6.99945 4.33495 7.37695 4.22363C7.73497 4.11819 8.10059 4.10938 8.46484 4.10938L13.6162 4.11035ZM13.9941 7.70996C13.9943 7.91745 14.0776 8.11725 14.2256 8.26465C14.3737 8.41206 14.5757 8.49512 14.7861 8.49512H17.1016C17.0143 8.30977 16.9006 8.14558 16.7529 7.99609L16.749 7.99219L14.5879 5.76465C14.4251 5.59959 14.2079 5.4641 13.9941 5.38477V7.70996Z" fill="#15C674"/>
<path d="M18.1182 12.21C18.6854 12.2157 19.2326 12.4472 19.6904 12.9053C20.2084 13.4233 20.4291 14.0475 20.3672 14.6787C20.3071 15.2897 19.9895 15.8432 19.5566 16.2764L18.1416 17.6934C17.6483 18.1865 17.0899 18.4992 16.4727 18.499C15.8556 18.4986 15.324 18.1854 14.8828 17.7441C14.6487 17.5099 14.6489 17.1308 14.8828 16.8965C15.1171 16.6622 15.4961 16.6623 15.7305 16.8965C16.043 17.209 16.2888 17.2986 16.4736 17.2988C16.6584 17.2987 16.929 17.2086 17.293 16.8447L18.707 15.4287C18.9958 15.1399 19.1463 14.8311 19.1729 14.5615C19.1943 14.343 19.14 14.1045 18.9375 13.8594L18.8418 13.7539C18.5882 13.5002 18.3351 13.4115 18.1064 13.4092C17.8676 13.4069 17.5987 13.4987 17.3359 13.7002C17.0731 13.9015 16.6958 13.8525 16.4941 13.5898C16.2926 13.327 16.3429 12.9498 16.6055 12.748C17.0381 12.4163 17.5616 12.2045 18.1182 12.21Z" fill="#15C674"/>
<path d="M11.1406 14.375C11.472 14.375 11.7412 14.6432 11.7412 14.9746C11.7412 15.306 11.472 15.5742 11.1406 15.5742H9.5C9.16863 15.5742 8.90039 15.306 8.90039 14.9746C8.90039 14.6432 9.16863 14.375 9.5 14.375H11.1406Z" fill="#15C674"/>
<path d="M13.8379 11.375C14.1692 11.375 14.4375 11.6433 14.4375 11.9746C14.4375 12.306 14.1692 12.5742 13.8379 12.5742H9.5C9.16863 12.5742 8.90039 12.306 8.90039 11.9746C8.90039 11.6432 9.16863 11.375 9.5 11.375H13.8379Z" fill="#15C674"/>
</svg>
