<svg width="24" height="24" viewBox="0 0 24 24" fill="none" xmlns="http://www.w3.org/2000/svg">
<path d="M12.0005 16.585C12.3592 16.5852 12.6509 16.8765 12.6509 17.2354L12.6499 17.5869C12.6498 17.9458 12.3584 18.2363 11.9995 18.2363C11.6408 18.2361 11.3492 17.9456 11.3491 17.5869L11.3501 17.2354C11.3501 16.8764 11.6415 16.585 12.0005 16.585ZM12.0005 7.51562C12.2488 7.51584 12.4507 7.71742 12.4507 7.96582V14.4189C12.4506 14.6673 12.2488 14.8689 12.0005 14.8691C11.752 14.8691 11.5504 14.6674 11.5503 14.4189V7.96582C11.5503 7.71729 11.752 7.51563 12.0005 7.51562Z" fill="black"/>
<path d="M12.4502 7.96562C12.4502 7.7171 12.2487 7.51562 12.0002 7.51562C11.7517 7.51562 11.5502 7.7171 11.5502 7.96563L11.5502 14.4191C11.5502 14.6676 11.7517 14.8691 12.0002 14.8691C12.2487 14.8691 12.4502 14.6676 12.4502 14.4191L12.4502 7.96562Z" fill="black"/>
<path d="M12.6501 17.2354C12.6501 16.8764 12.3591 16.5854 12.0001 16.5854C11.6411 16.5854 11.3501 16.8764 11.3501 17.2354L11.3501 17.586C11.3501 17.9449 11.6411 18.236 12.0001 18.236C12.3591 18.236 12.6501 17.9449 12.6501 17.586V17.2354Z" fill="black"/>
</svg>
