<svg width="24" height="24" viewBox="0 0 24 24" fill="none" xmlns="http://www.w3.org/2000/svg">
<path d="M18.7256 12C18.7256 8.28545 15.7145 5.27441 12 5.27441C8.28545 5.27441 5.27441 8.28545 5.27441 12C5.27441 15.7145 8.28545 18.7256 12 18.7256C15.7145 18.7256 18.7256 15.7145 18.7256 12ZM11.3125 16V15.9277C11.3125 15.5411 11.6261 15.2275 12.0127 15.2275C12.3993 15.2275 12.7129 15.5411 12.7129 15.9277V16C12.7129 16.3866 12.3993 16.7002 12.0127 16.7002C11.6261 16.7002 11.3125 16.3866 11.3125 16ZM11.3135 13.5V8.5C11.3135 8.1134 11.6271 7.7998 12.0137 7.7998C12.4003 7.7998 12.7139 8.1134 12.7139 8.5V13.5C12.7139 13.8866 12.4003 14.2002 12.0137 14.2002C11.6271 14.2002 11.3135 13.8866 11.3135 13.5ZM20.126 12C20.126 16.4877 16.4877 20.126 12 20.126C7.51225 20.126 3.87402 16.4877 3.87402 12C3.87402 7.51225 7.51225 3.87402 12 3.87402C16.4877 3.87402 20.126 7.51225 20.126 12Z" fill="#15C674"/>
</svg>
