<svg width="24" height="24" viewBox="0 0 24 24" fill="none" xmlns="http://www.w3.org/2000/svg">
<path d="M4.67334 14.2646C5.0045 14.2648 5.27283 14.5331 5.27295 14.8643V16.3252C5.27306 17.6506 6.34793 18.7256 7.67334 18.7256H9.13428C9.46541 18.7259 9.73389 18.994 9.73389 19.3252C9.73377 19.6563 9.46534 19.9245 9.13428 19.9248H7.67334C5.68519 19.9248 4.07385 18.3133 4.07373 16.3252V14.8643C4.07385 14.533 4.34204 14.2646 4.67334 14.2646Z" fill="#15C674"/>
<path d="M19.3286 14.2646C19.6598 14.2648 19.9281 14.5331 19.9282 14.8643V16.3252C19.9281 18.3132 18.3166 19.9246 16.3286 19.9248H14.8677C14.5365 19.9247 14.2682 19.6564 14.2681 19.3252C14.2681 18.9939 14.5364 18.7257 14.8677 18.7256H16.3286C17.6539 18.7254 18.7289 17.6505 18.729 16.3252V14.8643C18.7291 14.533 18.9973 14.2646 19.3286 14.2646Z" fill="#15C674"/>
<path d="M14.6177 14.8389C14.8705 14.6266 15.2478 14.658 15.4614 14.9102C15.6486 15.1313 15.6474 15.4486 15.4751 15.668L15.3911 15.7559L15.3823 15.7637C15.3781 15.7671 15.3721 15.7712 15.3657 15.7764C15.3528 15.7868 15.3348 15.8009 15.313 15.8174C15.2693 15.8505 15.2077 15.8954 15.1294 15.9473C14.9726 16.0512 14.7465 16.1858 14.4575 16.3193C13.8788 16.5867 13.0413 16.8515 11.9995 16.8516C10.9578 16.8515 10.1211 16.5867 9.54248 16.3193C9.25347 16.1858 9.02749 16.0513 8.87061 15.9473C8.79205 15.8952 8.7298 15.8505 8.68604 15.8174C8.66427 15.8009 8.64721 15.7867 8.63428 15.7764C8.6278 15.7712 8.6219 15.7672 8.61768 15.7637L8.60986 15.7559C8.35711 15.5417 8.32456 15.163 8.53857 14.9102C8.75198 14.6584 9.12858 14.6264 9.38135 14.8379C9.38149 14.838 9.38305 14.8391 9.38525 14.8408C9.3897 14.8444 9.39827 14.851 9.41064 14.8604C9.4358 14.8794 9.47734 14.9099 9.53369 14.9473C9.64659 15.0221 9.81974 15.1257 10.0464 15.2305C10.5 15.44 11.1647 15.6523 11.9995 15.6523C12.8345 15.6523 13.4999 15.4401 13.9536 15.2305C14.1802 15.1257 14.3534 15.0221 14.4663 14.9473C14.5226 14.91 14.5642 14.8794 14.5894 14.8604C14.6017 14.851 14.6103 14.8444 14.6147 14.8408C14.6159 14.8399 14.6171 14.8393 14.6177 14.8389Z" fill="#15C674"/>
<path d="M12.355 9.66211C12.6864 9.66211 12.9556 9.93035 12.9556 10.2617V12.4688C12.9553 13.2624 12.3117 13.9053 11.5181 13.9053C11.1867 13.9053 10.9185 13.637 10.9185 13.3057C10.9185 12.9743 11.1867 12.7061 11.5181 12.7061C11.649 12.7061 11.7551 12.5996 11.7554 12.4688V10.2617C11.7554 9.93049 12.0238 9.66235 12.355 9.66211Z" fill="#15C674"/>
<path d="M9.02881 8.01855C9.47064 8.01855 9.82861 8.37653 9.82861 8.81836V9.34668C9.82861 9.78851 9.47064 10.1475 9.02881 10.1475C8.58698 10.1475 8.229 9.78851 8.229 9.34668V8.81836C8.229 8.37653 8.58698 8.01855 9.02881 8.01855Z" fill="#15C674"/>
<path d="M14.9692 8.01855C15.4111 8.01855 15.769 8.37653 15.769 8.81836V9.34668C15.769 9.78851 15.4111 10.1475 14.9692 10.1475C14.5274 10.1475 14.1694 9.78851 14.1694 9.34668V8.81836C14.1694 8.37653 14.5274 8.01855 14.9692 8.01855Z" fill="#15C674"/>
<path d="M9.13916 4.07324C9.47039 4.07341 9.73975 4.34158 9.73975 4.67285C9.73965 5.00403 9.47033 5.2723 9.13916 5.27246H7.67334C6.34786 5.27246 5.27295 6.34737 5.27295 7.67285V9.13867C5.27285 9.46985 5.00451 9.73909 4.67334 9.73926C4.34203 9.73926 4.07383 9.46996 4.07373 9.13867V7.67285C4.07373 5.68463 5.68511 4.07324 7.67334 4.07324H9.13916Z" fill="#15C674"/>
<path d="M16.3286 4.07324C18.3167 4.07341 19.9282 5.68473 19.9282 7.67285V9.13184C19.9279 9.46286 19.6597 9.73128 19.3286 9.73145C18.9974 9.73145 18.7293 9.46296 18.729 9.13184V7.67285C18.729 6.34747 17.654 5.27263 16.3286 5.27246H14.8696C14.5385 5.27227 14.2701 5.00402 14.27 4.67285C14.27 4.3416 14.5384 4.07343 14.8696 4.07324H16.3286Z" fill="#15C674"/>
</svg>
