<svg width="24" height="24" viewBox="0 0 24 24" fill="none" xmlns="http://www.w3.org/2000/svg">
<path d="M18.957 8.58008C19.721 9.14995 20.2178 10.0584 20.2178 11.085V16.2764C20.2177 18.0029 18.8183 19.4033 17.0918 19.4033H9.57129C8.51678 19.4033 7.58665 18.8791 7.02051 18.0791C7.18905 18.1145 7.36388 18.1348 7.54297 18.1348H9.06934C9.22951 18.1779 9.3975 18.2031 9.57129 18.2031H17.0918C18.1556 18.2031 19.0184 17.3401 19.0186 16.2764V11.085C19.0186 10.9204 18.9959 10.7609 18.957 10.6084V8.58008Z" fill="#909090"/>
<path d="M9.36914 12.9668C9.64275 13.0226 9.84863 13.2646 9.84863 13.5547C9.84863 13.8448 9.64275 14.0868 9.36914 14.1426L9.24902 14.1543H7.17676C6.84539 14.1543 6.57715 13.8861 6.57715 13.5547C6.57715 13.2233 6.84539 12.9551 7.17676 12.9551H9.24902L9.36914 12.9668Z" fill="#909090"/>
<path d="M13.7275 7.98047L13.7871 8.64062L13.335 8.67969L14.8896 9.9834C15.8794 10.8134 16.0095 12.2883 15.1797 13.2783L15.1494 13.3135C14.3359 14.2837 12.8893 14.4111 11.9189 13.5977C11.6657 13.3847 11.6331 13.0067 11.8457 12.7529C12.0585 12.4992 12.4365 12.4662 12.6904 12.6787C13.1528 13.066 13.8418 13.005 14.2295 12.543L14.2598 12.5068C14.6639 12.0247 14.6011 11.3066 14.1191 10.9023L12.498 9.54395L12.543 10.0449C12.5718 10.3747 12.3278 10.6661 11.998 10.6953C11.6681 10.7241 11.3767 10.4794 11.3477 10.1494L11.2002 8.48047C11.1539 8.39966 11.121 8.30886 11.1123 8.20996C11.0844 7.89083 11.2875 7.60463 11.583 7.5166L11.7148 7.49219L13.6709 7.31934L13.7275 7.98047Z" fill="#909090"/>
<path d="M9.36914 10.1836C9.64275 10.2394 9.84863 10.4814 9.84863 10.7715C9.84863 11.0616 9.64275 11.3036 9.36914 11.3594L9.24902 11.3711H7.17676C6.84539 11.3711 6.57715 11.1029 6.57715 10.7715C6.57715 10.4401 6.84539 10.1719 7.17676 10.1719H9.24902L9.36914 10.1836Z" fill="#909090"/>
<path d="M13.6709 7.31934C14.0355 7.28759 14.3575 7.55725 14.3896 7.92188C14.4217 8.28653 14.1517 8.60824 13.7871 8.64062L13.729 7.97998L13.6709 7.31934Z" fill="#909090"/>
<path d="M9.36914 7.42383C9.64267 7.47968 9.84863 7.72168 9.84863 8.01172C9.84863 8.30175 9.64267 8.54376 9.36914 8.59961L9.24805 8.61133H7.04395C6.71257 8.61133 6.44434 8.34309 6.44434 8.01172C6.44434 7.68035 6.71257 7.41211 7.04395 7.41211H9.24805L9.36914 7.42383Z" fill="#909090"/>
<path fill-rule="evenodd" clip-rule="evenodd" d="M15.3086 4.69922C16.791 4.69922 17.993 5.90047 17.9932 7.38281V14.4941C17.9932 15.9766 16.791 17.1787 15.3086 17.1787H6.43359C4.95125 17.1786 3.75 15.9765 3.75 14.4941V7.38281C3.75012 5.90054 4.95132 4.69934 6.43359 4.69922H15.3086ZM6.43359 5.89844C5.61407 5.89856 4.94934 6.56328 4.94922 7.38281V14.4941C4.94922 15.3138 5.61399 15.9784 6.43359 15.9785H15.3086C16.1283 15.9785 16.793 15.3138 16.793 14.4941V7.38281C16.7928 6.56321 16.1282 5.89844 15.3086 5.89844H6.43359Z" fill="#909090"/>
</svg>
