<svg width="24" height="24" viewBox="0 0 24 24" fill="none" xmlns="http://www.w3.org/2000/svg">
<path d="M12.1003 14.2393C12.4292 14.2777 12.6648 14.5754 12.6266 14.9043C12.418 16.6896 11.4667 18.3772 9.55633 18.918C8.09242 19.3323 6.52017 19.0069 5.38836 18.0703V18.6006C5.38811 18.9317 5.11997 19.2002 4.78876 19.2002C4.45763 19.2001 4.1894 18.9317 4.18915 18.6006V16.6211C4.18915 16.5796 4.19383 16.5391 4.20184 16.5C4.2578 16.2268 4.49898 16.0216 4.78876 16.0215H6.76825C7.0994 16.0217 7.36786 16.2899 7.36786 16.6211C7.36786 16.9523 7.0994 17.2204 6.76825 17.2207H6.24872C7.06025 17.8399 8.16977 18.0624 9.22918 17.7627C10.5176 17.398 11.2616 16.2511 11.4352 14.7656C11.4738 14.4366 11.7713 14.2009 12.1003 14.2393Z" fill="#15C674"/>
<path d="M14.7341 4.05371C16.0718 4.05371 17.1718 5.06406 17.3161 6.36328C18.7385 6.37892 19.8863 7.53582 19.8864 8.96191V15.2314C19.8864 16.9581 18.4871 18.3584 16.7604 18.3584H13.7028C13.3715 18.3583 13.1032 18.0891 13.1032 17.7578C13.1034 17.4266 13.3716 17.1583 13.7028 17.1582H16.7604C17.8243 17.1582 18.6872 16.2953 18.6872 15.2314V8.96191C18.6871 8.18883 18.0599 7.56252 17.2868 7.5625L9.03875 7.56152C8.55814 7.56161 8.16766 7.95197 8.16766 8.43262C8.1675 8.76385 7.89933 9.03223 7.56805 9.03223C7.23686 9.03213 6.9686 8.76379 6.96844 8.43262C6.96844 7.28922 7.89538 6.36238 9.03875 6.3623H16.1032C15.9693 5.72876 15.4074 5.25293 14.7341 5.25293H7.7829C6.73364 5.25303 5.88251 6.10404 5.88251 7.15332V8.52051C5.88251 8.85188 5.61427 9.12109 5.2829 9.12109C4.95161 9.12099 4.68329 8.85182 4.68329 8.52051V7.15332C4.68329 5.4413 6.0709 4.05381 7.7829 4.05371H14.7341Z" fill="#15C674"/>
<path d="M11.6657 10.1377C11.9971 10.1377 12.2653 10.4059 12.2653 10.7373V12.7168C12.2653 13.048 11.9969 13.3162 11.6657 13.3164H9.68719C9.35591 13.3163 9.08758 13.0481 9.08758 12.7168C9.08758 12.3855 9.35591 12.1173 9.68719 12.1172H10.2106C9.39865 11.4898 8.28384 11.2628 7.2204 11.5645C5.93396 11.9296 5.19081 13.0785 5.01727 14.5664C4.97867 14.8952 4.68114 15.131 4.35223 15.0928C4.0233 15.0542 3.78752 14.7558 3.82586 14.4268C4.03428 12.6405 4.98426 10.9518 6.89325 10.4102C8.35928 9.99436 9.93469 10.3212 11.0661 11.2627V10.7373C11.0661 10.406 11.3344 10.1378 11.6657 10.1377Z" fill="#15C674"/>
<path d="M16.6716 12.3398C17.0029 12.3398 17.2712 12.6081 17.2712 12.9395C17.2712 13.2708 17.0029 13.5391 16.6716 13.5391H16.2116C15.8803 13.539 15.612 13.2708 15.612 12.9395C15.612 12.6081 15.8803 12.3399 16.2116 12.3398H16.6716Z" fill="#15C674"/>
<path d="M16.6735 9.85156C17.0049 9.85156 17.2741 10.1198 17.2741 10.4512C17.2741 10.7825 17.0049 11.0508 16.6735 11.0508H15.3522C15.0209 11.0507 14.7526 10.7825 14.7526 10.4512C14.7526 10.1199 15.0209 9.85166 15.3522 9.85156H16.6735Z" fill="#15C674"/>
</svg>
