<svg width="24" height="24" viewBox="0 0 24 24" fill="none" xmlns="http://www.w3.org/2000/svg">
<path d="M11.8682 8.50879C13.7115 8.50902 15.1119 9.83315 15.4248 11.5898C15.7211 13.2545 15.1925 15.343 14.6562 16.7773C14.2245 17.932 13.6967 18.9016 13.3174 20.3389C13.2329 20.659 12.9041 20.8506 12.584 20.7666C12.2637 20.6821 12.0719 20.3535 12.1562 20.0332C12.552 18.5336 13.1688 17.3292 13.5322 16.3574C14.0509 14.9701 14.481 13.1351 14.2432 11.7998C14.0217 10.5565 13.0719 9.70824 11.8682 9.70801C10.676 9.70817 9.70925 10.6751 9.70898 11.8672C9.70898 12.6787 9.987 13.4786 10.2168 13.9951C10.3838 14.3705 10.5701 14.7925 10.6934 15.2432C10.9869 16.3165 10.9276 17.4564 10.5234 18.4932L10.0742 19.6455C9.95382 19.9539 9.60541 20.1063 9.29688 19.9863C8.98814 19.866 8.83568 19.5177 8.95605 19.209L9.40527 18.0566C9.7157 17.26 9.76172 16.3842 9.53613 15.5596C9.44031 15.2093 9.29162 14.8667 9.12109 14.4834C8.86237 13.9019 8.50977 12.9224 8.50977 11.8672C8.51003 10.0123 10.0133 8.50895 11.8682 8.50879Z" fill="#15C674"/>
<path d="M17.4775 12.7559C17.8079 12.7761 18.0598 13.0601 18.04 13.3906C17.8893 15.8983 17.2391 18.1426 15.8926 20.4766C15.7271 20.7635 15.3592 20.8616 15.0723 20.6963C14.7855 20.5307 14.6872 20.1639 14.8525 19.877C16.1059 17.7045 16.7031 15.6405 16.8428 13.3184C16.8629 12.9878 17.1469 12.736 17.4775 12.7559Z" fill="#15C674"/>
<path d="M6.7041 13.998C7.00602 13.862 7.36173 13.997 7.49805 14.2988C7.57427 14.4676 7.64938 14.6366 7.71191 14.7754C7.97194 15.3526 8.14767 16.0362 8.16504 16.7158C8.18225 17.3937 8.04166 18.1117 7.61621 18.7061C7.42329 18.9755 7.04774 19.0376 6.77832 18.8447C6.50955 18.6517 6.44801 18.277 6.64062 18.0078C6.87033 17.6868 6.97865 17.2501 6.96582 16.7461C6.95298 16.2441 6.82041 15.7176 6.61816 15.2686C6.54942 15.116 6.48362 14.9677 6.4043 14.792C6.26823 14.4901 6.40223 14.1344 6.7041 13.998Z" fill="#15C674"/>
<path d="M4.55078 7.69922C4.71676 7.41254 5.08433 7.31458 5.37109 7.48047C5.65775 7.64646 5.75573 8.01402 5.58984 8.30078C4.96063 9.38857 4.59961 10.6512 4.59961 12C4.59961 13.3488 4.96063 14.6114 5.58984 15.6992C5.75573 15.986 5.65775 16.3535 5.37109 16.5195C5.08433 16.6854 4.71676 16.5875 4.55078 16.3008C3.8187 15.0352 3.40039 13.5654 3.40039 12C3.40039 10.4346 3.8187 8.96478 4.55078 7.69922Z" fill="#15C674"/>
<path d="M12 3.40039C16.7496 3.40039 20.5996 7.25035 20.5996 12C20.5996 12.806 20.5266 13.6916 20.4551 14.3672C20.4192 14.7064 20.3834 14.9965 20.3564 15.2021C20.343 15.3049 20.3312 15.3868 20.3232 15.4434C20.3193 15.4714 20.3166 15.4937 20.3145 15.5088C20.3134 15.5163 20.3121 15.5224 20.3115 15.5264C20.3112 15.5284 20.3117 15.5301 20.3115 15.5312L20.3105 15.5322C20.2617 15.86 19.9566 16.0869 19.6289 16.0381C19.3013 15.9892 19.0754 15.684 19.124 15.3564C19.1241 15.3557 19.1248 15.3532 19.125 15.3516C19.1255 15.3484 19.126 15.3434 19.127 15.3369C19.1289 15.3235 19.132 15.3029 19.1357 15.2764C19.1432 15.2233 19.154 15.1448 19.167 15.0459C19.193 14.8481 19.227 14.5678 19.2617 14.2402C19.3315 13.5811 19.4004 12.7441 19.4004 12C19.4004 7.91309 16.0869 4.59961 12 4.59961C10.5839 4.59961 9.2623 4.99685 8.13867 5.68555C7.85621 5.85868 7.4867 5.77066 7.31348 5.48828C7.1403 5.20576 7.2292 4.83626 7.51172 4.66309C8.81871 3.86196 10.3563 3.40039 12 3.40039Z" fill="#15C674"/>
<path d="M11.7861 11.2754C12.1021 11.1765 12.4388 11.3521 12.5381 11.668C12.8599 12.6935 12.8574 13.5229 12.8574 14.2383C12.8574 14.5695 12.589 14.8377 12.2578 14.8379C11.9265 14.8379 11.6582 14.5696 11.6582 14.2383C11.6582 13.5304 11.6557 12.8629 11.3936 12.0273C11.2945 11.7113 11.4701 11.3746 11.7861 11.2754Z" fill="#15C674"/>
<path d="M11.8682 5.99121C14.6363 5.9916 17.0645 7.92869 17.7832 10.3115C17.8787 10.6286 17.6988 10.9638 17.3818 11.0596C17.0647 11.1552 16.7296 10.9753 16.6338 10.6582C16.0653 8.77333 14.0979 7.19083 11.8682 7.19043C9.05582 7.19043 6.7763 9.5317 7.04688 11.9375C7.08379 12.2666 6.84661 12.5634 6.51758 12.6006C6.1885 12.6374 5.8916 12.4004 5.85449 12.0713C5.48857 8.81583 8.487 5.99121 11.8682 5.99121Z" fill="#15C674"/>
</svg>
