<svg width="24" height="24" viewBox="0 0 24 24" fill="none" xmlns="http://www.w3.org/2000/svg">
<path d="M18.8105 7.71387C18.8103 6.88575 18.1387 6.21408 17.3105 6.21387H6.69336C5.86524 6.21408 5.19357 6.88575 5.19336 7.71387V16.2988C5.19357 17.1269 5.86524 17.7986 6.69336 17.7988H17.3105C18.1387 17.7986 18.8103 17.1269 18.8105 16.2988V7.71387ZM8.55566 13.9189V9.37012H7.57715C7.24578 9.37012 6.97657 9.10187 6.97656 8.77051C6.97656 8.43914 7.24578 8.1709 7.57715 8.1709H10.7344C11.0656 8.1711 11.334 8.43926 11.334 8.77051C11.334 9.10175 11.0656 9.36992 10.7344 9.37012H9.75488V13.9189C9.75488 14.2503 9.48664 14.5186 9.15527 14.5186C8.8239 14.5186 8.55566 14.2503 8.55566 13.9189ZM14.251 12.8193C14.5823 12.8193 14.8515 13.0876 14.8516 13.4189C14.8516 13.7503 14.5823 14.0186 14.251 14.0186H11.8535C11.5223 14.0184 11.2539 13.7502 11.2539 13.4189C11.254 13.0877 11.5223 12.8195 11.8535 12.8193H14.251ZM14.251 10.6611C14.5823 10.6611 14.8515 10.9294 14.8516 11.2607C14.8516 11.5921 14.5823 11.8604 14.251 11.8604H11.8535C11.5223 11.8602 11.2539 11.592 11.2539 11.2607C11.254 10.9295 11.5223 10.6613 11.8535 10.6611H14.251ZM20.0098 16.2988C20.0096 17.7897 18.8014 18.9978 17.3105 18.998H6.69336C5.2025 18.9978 3.99435 17.7897 3.99414 16.2988V7.71387C3.99435 6.22301 5.2025 5.01486 6.69336 5.01465H17.3105C18.8014 5.01486 20.0096 6.22301 20.0098 7.71387V16.2988Z" fill="#15C674"/>
</svg>
