<svg width="24" height="24" viewBox="0 0 24 24" fill="none" xmlns="http://www.w3.org/2000/svg">
<path fill-rule="evenodd" clip-rule="evenodd" d="M17.0967 14.2656C18.1238 14.2656 18.9568 15.0979 18.957 16.125C18.957 17.1522 18.1239 17.9854 17.0967 17.9854C16.0696 17.9852 15.2373 17.1521 15.2373 16.125C15.2375 15.0981 16.0697 14.2658 17.0967 14.2656ZM17.0967 15.4648C16.7325 15.465 16.4368 15.7608 16.4365 16.125C16.4365 16.4894 16.7323 16.785 17.0967 16.7852C17.4612 16.7852 17.7568 16.4895 17.7568 16.125C17.7566 15.7607 17.461 15.4648 17.0967 15.4648Z" fill="#15C674"/>
<path fill-rule="evenodd" clip-rule="evenodd" d="M16.6318 11.4492C17.0199 11.4058 17.4139 11.4037 17.7959 11.4482C18.3903 11.5177 18.8049 11.9569 18.9648 12.4375L19.0156 12.5908C19.0686 12.75 19.2275 12.849 19.3936 12.8262L19.5713 12.8018C20.0604 12.7338 20.6186 12.8984 20.9521 13.3691C21.1811 13.6924 21.3655 14.041 21.5049 14.4043C21.7114 14.9429 21.5403 15.4993 21.2119 15.8691L21.0938 16.002C20.9825 16.1274 20.9761 16.3149 21.0791 16.4473L21.1904 16.5889C21.4943 16.9789 21.6305 17.5457 21.3887 18.0703C21.2297 18.4152 21.026 18.7466 20.7773 19.0566C20.4145 19.5091 19.8428 19.6436 19.3525 19.543L19.1797 19.5068C19.0155 19.4732 18.8504 19.5617 18.7871 19.7168L18.7119 19.9014C18.5256 20.3605 18.1014 20.7622 17.5244 20.8135C17.1388 20.8477 16.748 20.8337 16.3613 20.7705C15.7947 20.6779 15.4029 20.2527 15.248 19.7871L15.1865 19.6016C15.1335 19.4424 14.9738 19.3431 14.8076 19.3662L14.6279 19.3916C14.1383 19.4596 13.5794 19.2939 13.2461 18.8223C13.018 18.4994 12.8341 18.1516 12.6953 17.7891C12.4893 17.2507 12.6601 16.6948 12.9883 16.3252L13.1084 16.1904C13.2195 16.0649 13.225 15.8784 13.1221 15.7461L13.0117 15.6045C12.7077 15.2141 12.5721 14.6468 12.8145 14.1221C12.9739 13.7771 13.1786 13.4457 13.4277 13.1357C13.7907 12.6843 14.3608 12.5499 14.8506 12.6504L15.0225 12.6855C15.1868 12.7193 15.3519 12.631 15.415 12.4756L15.46 12.3652C15.6471 11.904 16.0686 11.5123 16.6318 11.4492ZM17.6562 12.6396C17.3715 12.6065 17.0696 12.6076 16.7656 12.6416C16.7062 12.6483 16.6207 12.6972 16.5723 12.8164L16.5273 12.9268C16.2467 13.6183 15.5124 14.0114 14.7812 13.8613L14.6094 13.8262C14.48 13.7996 14.3955 13.8455 14.3623 13.8867C14.1747 14.1201 14.0229 14.3685 13.9043 14.625C13.8838 14.6692 13.878 14.7622 13.959 14.8662L14.0693 15.0078C14.528 15.5965 14.5011 16.4291 14.0059 16.9873L13.8857 17.1221C13.7986 17.2203 13.7978 17.3141 13.8154 17.3604C13.919 17.6309 14.0569 17.8897 14.2266 18.1299C14.2547 18.1696 14.3323 18.2213 14.4629 18.2031L14.6426 18.1777C15.3818 18.0749 16.0895 18.5145 16.3252 19.2227L16.3867 19.4082C16.4281 19.5325 16.5077 19.5792 16.5547 19.5869C16.8412 19.6337 17.1314 19.6436 17.418 19.6182C17.4663 19.6139 17.5499 19.5727 17.5996 19.4502L17.6748 19.2656C17.9555 18.5743 18.6899 18.181 19.4209 18.3311L19.5947 18.3672C19.7242 18.3936 19.8077 18.3469 19.8408 18.3057C20.0281 18.0722 20.1805 17.8239 20.2988 17.5674C20.3191 17.5229 20.3249 17.4298 20.2441 17.3262L20.1328 17.1846C19.6742 16.5958 19.7009 15.7632 20.1963 15.2051L20.3145 15.0723C20.4018 14.9738 20.4025 14.8802 20.3848 14.834C20.2808 14.5629 20.143 14.303 19.9727 14.0625C19.9443 14.0228 19.8665 13.9721 19.7363 13.9902L19.5596 14.0146C18.8203 14.1175 18.1125 13.678 17.877 12.9697L17.8262 12.8164C17.7832 12.6874 17.7001 12.6448 17.6562 12.6396Z" fill="#15C674"/>
<path d="M12.584 6.49512C13.4676 6.49519 14.1846 7.21112 14.1846 8.09473V10.4521C14.1841 10.7831 13.915 11.0517 13.584 11.0518C13.253 11.0516 12.9848 10.783 12.9844 10.4521V8.09473C12.9844 7.87386 12.8048 7.69441 12.584 7.69434H11.416C11.1951 7.69434 11.0156 7.87381 11.0156 8.09473V19.2422C10.3534 19.2422 9.81693 18.7051 9.81641 18.043V8.09473C9.81641 7.21107 10.5324 6.49512 11.416 6.49512H12.584Z" fill="#15C674"/>
<path fill-rule="evenodd" clip-rule="evenodd" d="M6.77539 10.6494C7.65905 10.6494 8.37598 11.3654 8.37598 12.249V17.6416C8.37598 18.5253 7.65905 19.2412 6.77539 19.2412H5.60742C4.72377 19.2412 4.00781 18.5253 4.00781 17.6416V12.249C4.00781 11.3654 4.72377 10.6494 5.60742 10.6494H6.77539ZM5.60742 11.8486C5.38651 11.8486 5.20703 12.0281 5.20703 12.249V17.6416C5.20703 17.8625 5.38651 18.042 5.60742 18.042H6.77539C6.9963 18.042 7.17578 17.8625 7.17578 17.6416V12.249C7.17578 12.0281 6.9963 11.8486 6.77539 11.8486H5.60742Z" fill="#15C674"/>
<path d="M18.752 3.25684C19.6356 3.25684 20.3525 3.97279 20.3525 4.85645V9.82227C20.3525 10.1536 20.0833 10.4219 19.752 10.4219C19.4208 10.4216 19.1524 10.1535 19.1523 9.82227V4.85645C19.1523 4.63553 18.9729 4.45605 18.752 4.45605H17.584C17.3631 4.45613 17.1836 4.63558 17.1836 4.85645V9.12695C17.1836 9.45832 16.9154 9.72754 16.584 9.72754C16.2527 9.72746 15.9844 9.45828 15.9844 9.12695V4.85645C15.9844 3.97284 16.7004 3.25691 17.584 3.25684H18.752Z" fill="#15C674"/>
</svg>
