<svg width="24" height="24" viewBox="0 0 24 24" fill="none" xmlns="http://www.w3.org/2000/svg">
<path d="M10.7088 12.2139C10.5254 11.938 10.1527 11.8627 9.87682 12.0459L6.2274 14.4727C6.22295 14.4757 6.21906 14.4794 6.21471 14.4825C6.15137 14.4462 6.1032 14.4139 6.06627 14.3789C5.99235 14.309 5.91767 14.1994 5.86412 13.9434C5.79631 13.6193 5.47823 13.4112 5.15416 13.4785C4.82987 13.5463 4.62168 13.8642 4.68932 14.1885C4.77884 14.6169 4.94591 14.971 5.24205 15.251C5.42717 15.426 5.64367 15.5487 5.86803 15.6494C5.9548 16.1023 6.13792 16.5009 6.43444 16.8223C6.72767 17.1399 7.09959 17.3473 7.51354 17.4727C7.89834 18.4262 8.85987 19.1106 9.98912 19C10.2728 19.3717 10.6786 19.6526 11.0878 19.8262C11.6474 20.0636 12.3481 20.1628 12.9618 19.9268C12.9758 19.9214 12.9902 19.9156 13.0038 19.9092L13.0057 19.9082C13.0067 19.9076 13.008 19.9061 13.0096 19.9053C13.0135 19.9035 13.0193 19.9008 13.0262 19.8975C13.0406 19.8906 13.0623 19.8812 13.0887 19.8682C13.1418 19.8422 13.2183 19.8037 13.3143 19.7549C13.5069 19.6569 13.7789 19.5145 14.0975 19.3369C14.3868 19.1756 14.4912 18.8099 14.3299 18.5205C14.1686 18.2314 13.8029 18.1281 13.5135 18.2891C13.2102 18.458 12.9518 18.5923 12.7704 18.6846C12.6799 18.7306 12.6086 18.7664 12.5604 18.7901C12.5433 18.7985 12.5285 18.8052 12.5174 18.8106C12.2832 18.895 11.9249 18.8779 11.5565 18.7217C11.3425 18.6309 11.1706 18.5114 11.0458 18.3887L12.7665 17.2422C13.0417 17.0583 13.1162 16.6857 12.9325 16.4102C12.7487 16.1348 12.376 16.0607 12.1005 16.2442L10.0907 17.584C10.0045 17.6414 9.94055 17.7191 9.89537 17.8047C9.36005 17.8624 8.89336 17.5733 8.66979 17.127L11.5145 15.2305C11.7898 15.0466 11.8642 14.674 11.6805 14.3985C11.4967 14.1231 11.1241 14.049 10.8485 14.2325L7.9442 16.168C7.88722 16.206 7.84087 16.2541 7.80162 16.3057C7.5846 16.2312 7.42796 16.1289 7.31627 16.0078C7.1886 15.8695 7.08523 15.6705 7.03697 15.375L10.5409 13.0459C10.8167 12.8625 10.892 12.4898 10.7088 12.2139Z" fill="#15C674"/>
<path d="M18.6854 12.8086C18.4511 12.5744 18.0711 12.5743 17.8368 12.8086C17.6025 13.0429 17.6025 13.4229 17.8368 13.6573L19.0712 14.8907H15.0126C14.6812 14.8907 14.413 15.1589 14.413 15.4903C14.413 15.8216 14.6812 16.0899 15.0126 16.0899H19.0702L17.8368 17.3233C17.6028 17.5575 17.6028 17.9367 17.8368 18.1709C18.0711 18.4052 18.4511 18.4052 18.6854 18.1709L20.9422 15.9141C20.9854 15.8709 21.0185 15.8218 21.0458 15.7705C21.0773 15.7113 21.1001 15.6472 21.1102 15.5782C21.1204 15.5098 21.1208 15.44 21.1073 15.3721C21.1035 15.353 21.0963 15.3349 21.0907 15.3164C21.085 15.2974 21.0798 15.2783 21.0721 15.2598C21.0679 15.2497 21.0622 15.2403 21.0575 15.2305C21.0289 15.1711 20.9915 15.1147 20.9422 15.0655L18.6854 12.8086Z" fill="#15C674"/>
<path fill-rule="evenodd" clip-rule="evenodd" d="M5.98912 5.69339C5.66487 5.67014 5.42668 5.78797 5.24303 5.9053C5.12378 5.9815 5.0052 6.04801 4.85533 6.20706C4.74602 6.32308 4.59369 6.51643 4.31822 6.8555C4.00072 7.24633 3.55111 7.9325 3.18248 8.53128C2.99561 8.83483 2.82356 9.12592 2.69225 9.3594C2.62678 9.47582 2.56889 9.58222 2.52428 9.66995C2.48854 9.74024 2.43628 9.84658 2.40904 9.94046C2.39541 9.98742 2.38642 10.0084 2.3651 10.0723C2.34818 10.123 2.31674 10.2197 2.30748 10.335C2.28576 10.6075 2.39436 10.8254 2.50377 10.9991C2.56941 11.1031 2.66277 11.1948 2.72545 11.2539C2.79988 11.3241 2.88856 11.4003 2.98229 11.4766C3.17074 11.6301 3.40269 11.8038 3.63365 11.9688C3.86514 12.1341 4.10279 12.2961 4.30455 12.4248C4.4823 12.5382 4.69336 12.6664 4.84166 12.7207C4.95989 12.764 5.118 12.8263 5.28307 12.8399C5.3758 12.8475 5.4547 12.8399 5.51451 12.8321C5.5614 12.8259 5.6362 12.8141 5.68541 12.8067C5.85705 12.7807 6.03563 12.6975 6.15416 12.6387C6.29407 12.5693 6.44745 12.4825 6.59264 12.3965C6.87741 12.2278 7.18398 12.0295 7.32604 11.9414C7.59283 11.776 7.91444 11.542 8.23717 11.3096C8.56885 11.0708 8.91687 10.8223 9.26549 10.6006C9.61638 10.3775 9.948 10.1951 10.2421 10.0821C10.5455 9.96547 10.7436 9.94921 10.8583 9.97268C11.1796 10.0387 11.3581 10.105 11.5282 10.1797C11.6987 10.2547 11.9387 10.3764 12.2762 10.5C12.572 10.6084 13.0377 10.7913 13.5018 10.9102C13.9398 11.0224 14.5283 11.1209 15.0301 10.9317C15.3842 10.7981 15.8831 10.5397 16.2079 10.2217C16.3549 10.0778 16.5848 9.80868 16.5887 9.44339C16.5934 8.99382 16.2739 8.72006 15.9881 8.58206C15.3573 8.27736 14.6321 7.81964 13.868 7.36136C13.1361 6.92239 12.3494 6.47061 11.6796 6.26565C10.8986 6.02681 10.1851 6.22037 9.61803 6.42093C9.47473 6.47162 9.33256 6.52624 9.20104 6.5762C9.06683 6.62718 8.94169 6.6747 8.8192 6.71683C8.57252 6.80165 8.36301 6.85627 8.17174 6.8721C8.07055 6.88038 7.94086 6.83696 7.69029 6.63382C7.54012 6.51206 7.4802 6.45168 7.30162 6.30276C7.16281 6.187 6.98815 6.0506 6.786 5.95315C6.52142 5.82563 6.25529 5.7125 5.98912 5.69339ZM5.98717 6.91409C6.05121 6.93676 6.13916 6.9738 6.26451 7.03421C6.32944 7.06551 6.41296 7.12352 6.53307 7.22366C6.61365 7.29086 6.81456 7.46924 6.93444 7.56643C7.22377 7.801 7.67537 8.11672 8.27135 8.06741C8.60798 8.0395 8.92613 7.94915 9.20983 7.85159C9.35248 7.80253 9.49368 7.74885 9.62682 7.69827C9.76266 7.64667 9.89016 7.59779 10.0174 7.55276C10.5332 7.37033 10.9334 7.29249 11.328 7.41311C11.8339 7.56785 12.4964 7.93816 13.2508 8.39065C13.8738 8.76426 14.5544 9.18915 15.1756 9.51468C15.0081 9.62722 14.7944 9.73866 14.6063 9.8096C14.4806 9.85689 14.2153 9.85356 13.7997 9.7471C13.4102 9.64732 13.0216 9.49511 12.6883 9.37308C12.3969 9.26635 12.2509 9.18673 12.0106 9.08108C11.7699 8.97531 11.5113 8.88137 11.1005 8.7969C10.6577 8.70588 10.2032 8.81139 9.81139 8.96194C9.4097 9.11632 9.00155 9.34658 8.62194 9.58792C8.24018 9.83062 7.86596 10.0984 7.536 10.336C7.19708 10.58 6.91688 10.7828 6.6942 10.9209C6.51833 11.03 6.25529 11.202 5.98131 11.3643C5.84689 11.4439 5.72232 11.5132 5.62096 11.5635C5.52918 11.609 5.49099 11.6212 5.49205 11.6221L5.50572 11.6201C5.4694 11.6256 5.43716 11.631 5.41295 11.6348C5.40109 11.6367 5.39082 11.6375 5.38268 11.6387C5.35649 11.63 5.31787 11.6173 5.25377 11.5938C5.267 11.5986 5.2472 11.5914 5.1776 11.5518C5.11755 11.5176 5.04044 11.4708 4.95006 11.4131C4.76913 11.2977 4.54891 11.148 4.33092 10.9922C4.11251 10.8362 3.90264 10.6783 3.7401 10.5459C3.65852 10.4795 3.59411 10.4237 3.54869 10.3809C3.54277 10.3753 3.53769 10.3698 3.53307 10.3653C3.5418 10.3389 3.55152 10.3084 3.56139 10.2744C3.55219 10.3062 3.55082 10.2981 3.59362 10.2139C3.62773 10.1468 3.67703 10.057 3.73815 9.94827C3.86 9.73159 4.02399 9.45412 4.20494 9.16018C4.57239 8.56332 4.9863 7.93677 5.24987 7.61233C5.55498 7.23677 5.65914 7.10386 5.72838 7.0303C5.75698 6.99995 5.73991 7.01261 5.88951 6.91702C5.90484 6.90723 5.91686 6.90052 5.92565 6.89554C5.93913 6.89893 5.95927 6.90422 5.98717 6.91409Z" fill="#15C674"/>
<path d="M18.6844 6.49808C18.277 5.97948 17.6002 5.77098 16.9784 5.94046C16.6528 6.02923 16.2782 6.12562 15.993 6.18167C15.8129 6.21707 15.6928 6.23664 15.5848 6.25198C15.257 6.29876 15.0296 6.60283 15.076 6.93069C15.1227 7.25862 15.4258 7.48689 15.7538 7.44046C15.8877 7.42144 16.029 7.39684 16.2245 7.35843C16.5542 7.29361 16.964 7.18887 17.2948 7.09866C17.4657 7.05227 17.6409 7.11175 17.7411 7.23929L20.3915 10.6133C20.4854 10.7329 20.5029 10.896 20.4374 11.0332L20.4276 11.0537C20.2848 11.3525 20.4112 11.7105 20.7098 11.8535C21.0087 11.9965 21.3676 11.8702 21.5106 11.5713L21.5204 11.5508C21.7828 11.0017 21.7108 10.3507 21.3348 9.8721L18.6844 6.49808Z" fill="#15C674"/>
</svg>
