<svg width="24" height="24" viewBox="0 0 24 24" fill="none" xmlns="http://www.w3.org/2000/svg">
<path d="M7 5.51997C7.3313 5.51997 7.59949 5.78832 7.59961 6.11958V17.8793C7.59961 18.2107 7.33137 18.479 7 18.479C6.66863 18.479 6.40039 18.2107 6.40039 17.8793V6.11958C6.40051 5.78832 6.6687 5.51997 7 5.51997Z" fill="#15C674"/>
<path d="M16.6045 5.67134C16.8497 5.44848 17.2293 5.46719 17.4521 5.71236C17.6748 5.95755 17.6572 6.33718 17.4121 6.56001L11.4229 12.0034L17.4033 17.435C17.6484 17.6578 17.667 18.0374 17.4443 18.2827C17.2216 18.5277 16.8419 18.5462 16.5967 18.3237L10.1279 12.4487C10.0028 12.3351 9.93177 12.1733 9.93164 12.0043C9.93164 11.8354 10.0029 11.6737 10.1279 11.56L16.6045 5.67134Z" fill="#15C674"/>
</svg>
