<svg width="24" height="24" viewBox="0 0 24 24" fill="none" xmlns="http://www.w3.org/2000/svg">
<path d="M6.69629 5.70703C7.02744 5.70729 7.2959 5.97543 7.2959 6.30664V17.6943C7.2959 18.0255 7.02744 18.2937 6.69629 18.2939C6.36492 18.2939 6.09668 18.0257 6.09668 17.6943V6.30664C6.09668 5.97527 6.36492 5.70703 6.69629 5.70703Z" fill="#15C674"/>
<path d="M13.9834 7.33594C14.2185 7.10289 14.5987 7.10408 14.832 7.33887C15.0652 7.574 15.0639 7.95412 14.8291 8.1875L11.5908 11.3994H18.6953C19.0266 11.3994 19.2948 11.6688 19.2949 12C19.2948 12.3313 19.0266 12.5996 18.6953 12.5996H11.5889L14.8311 15.8154C15.0662 16.0488 15.0672 16.4288 14.834 16.6641C14.6006 16.8993 14.2206 16.9013 13.9854 16.668L9.70996 12.4258C9.59662 12.3132 9.53327 12.1598 9.5332 12C9.5333 11.8403 9.59671 11.6868 9.70996 11.5742L13.9834 7.33594Z" fill="#15C674"/>
</svg>
