<svg width="24" height="24" viewBox="0 0 24 24" fill="none" xmlns="http://www.w3.org/2000/svg">
<path d="M13.916 13.2754C14.3302 13.2754 14.666 13.6112 14.666 14.0254C14.666 14.4396 14.3302 14.7754 13.916 14.7754C13.5018 14.7754 13.166 14.4396 13.166 14.0254C13.166 13.6112 13.5018 13.2754 13.916 13.2754Z" fill="#15C674"/>
<path fill-rule="evenodd" clip-rule="evenodd" d="M17.0352 11.1553C18.195 11.1553 19.1357 12.0951 19.1357 13.2549V17.1689C19.1357 18.3287 18.195 19.2695 17.0352 19.2695H13.1211C11.9613 19.2695 11.0215 18.3287 11.0215 17.1689V13.2549C11.0215 12.0951 11.9613 11.1553 13.1211 11.1553H17.0352ZM16.9697 16.1328C16.6143 15.8271 16.0834 15.8452 15.75 16.1748L13.835 18.0693H17.0352C17.5322 18.0693 17.9355 17.666 17.9355 17.1689V16.9629L16.9697 16.1328ZM13.1211 12.3545C12.624 12.3545 12.2207 12.7578 12.2207 13.2549V17.1689C12.2207 17.3948 12.3048 17.6007 12.4424 17.7588L14.9062 15.3223C15.6842 14.5528 16.9223 14.5093 17.752 15.2227L17.9355 15.3799V13.2549C17.9355 12.7578 17.5322 12.3545 17.0352 12.3545H13.1211Z" fill="#15C674"/>
<path d="M16.0439 4.73145C17.4799 4.73145 18.6435 5.89513 18.6436 7.33105V8.6377C18.6436 8.96907 18.3753 9.23828 18.0439 9.23828C17.7126 9.23828 17.4443 8.96907 17.4443 8.6377V7.33105C17.4443 6.55787 16.8171 5.93067 16.0439 5.93066H7.46484C6.69165 5.93066 6.06446 6.55786 6.06445 7.33105V16.4326C6.06445 16.7167 6.16508 16.9765 6.32422 17.1572C6.48132 17.3355 6.67705 17.4189 6.8623 17.4189H8.52637C8.85762 17.4189 9.12676 17.6874 9.12695 18.0186C9.12695 18.3499 8.85774 18.6191 8.52637 18.6191H6.8623C6.30634 18.6191 5.79085 18.3676 5.42383 17.9512C5.05896 17.5371 4.86523 16.9896 4.86523 16.4326V7.33105C4.86524 5.89512 6.02891 4.73145 7.46484 4.73145H16.0439Z" fill="#15C674"/>
</svg>
