<svg width="24" height="24" viewBox="0 0 24 24" fill="none" xmlns="http://www.w3.org/2000/svg">
<path fill-rule="evenodd" clip-rule="evenodd" d="M4.37697 6.16309C4.56976 5.94655 4.88457 5.90293 5.12599 6.04297L5.22462 6.11426L18.2832 17.7354L18.3652 17.8242C18.5321 18.0476 18.5252 18.3645 18.333 18.5811C18.1404 18.7975 17.8254 18.8428 17.584 18.7031L17.4854 18.6318L15.9092 17.2295C14.9897 18.4216 14.0349 19.4318 13.3535 20.1025L13.0274 20.4189C12.4866 20.9341 11.6704 20.9798 11.082 20.5391L10.9678 20.4443C10.166 19.7149 8.74447 18.3234 7.51954 16.6016C6.30447 14.8936 5.22462 12.7803 5.22462 10.6221C5.22463 9.75001 5.40179 8.92021 5.72072 8.16211L4.42677 7.01074L4.34474 6.9209C4.17778 6.69736 4.18425 6.37965 4.37697 6.16309ZM6.68165 9.01758C6.51459 9.52499 6.42385 10.0641 6.42384 10.6221C6.42384 12.4061 7.33163 14.268 8.49708 15.9062C9.65256 17.5304 11.0057 18.8563 11.7754 19.5566L11.8233 19.5938C11.9416 19.6676 12.0903 19.6535 12.1992 19.5498L12.5137 19.2461C13.1828 18.5873 14.1203 17.5936 15.0108 16.4297L12.9756 14.6182C12.8673 14.7713 12.6912 14.8729 12.4893 14.873C12.1996 14.8728 11.9574 14.6677 11.9014 14.3945L11.8897 14.2734V13.6514L10.2871 12.2256V14.1836C10.2871 14.515 10.0189 14.7842 9.68751 14.7842C9.35632 14.784 9.0879 14.5148 9.0879 14.1836V11.1582L6.68165 9.01758Z" fill="#909090"/>
<path d="M11.999 4.08301C15.7187 4.08301 18.7744 6.98863 18.7744 10.6221C18.7744 12.2549 18.075 13.9223 17.1748 15.4033L16.2588 14.5947C17.0389 13.2696 17.5752 11.8926 17.5752 10.6221C17.5752 7.69497 15.1004 5.28223 11.999 5.28223C10.3146 5.28247 8.81525 5.99477 7.79689 7.11426L6.89845 6.32031C8.14376 4.94716 9.97234 4.08325 11.999 4.08301Z" fill="#909090"/>
<path fill-rule="evenodd" clip-rule="evenodd" d="M12.4893 7.97461C13.3453 7.97464 14.2017 8.06402 14.8574 8.42676C15.1984 8.61555 15.4908 8.88189 15.6934 9.24316C15.8944 9.60185 15.9873 10.0192 15.9873 10.4834C15.9873 11.6117 15.1625 12.1955 14.5322 12.4668C14.3649 12.5387 14.1988 12.594 14.0459 12.6377L11.8897 10.7314V8.57422C11.8897 8.24306 12.1582 7.97489 12.4893 7.97461ZM13.0889 11.6064C13.1105 11.6023 13.1329 11.5965 13.1553 11.5947L13.166 11.5938C13.1771 11.5926 13.196 11.5909 13.2197 11.5879C13.2684 11.5816 13.3414 11.5708 13.4287 11.5537C13.6069 11.5188 13.8362 11.4594 14.0576 11.3643C14.5198 11.1654 14.7881 10.893 14.7881 10.4834C14.7881 10.1793 14.7277 9.97344 14.6475 9.83008C14.5686 9.6895 14.45 9.57273 14.2764 9.47656C14.0006 9.32409 13.6051 9.23222 13.0889 9.19434C13.0888 9.95843 13.0889 10.8163 13.0889 11.6064Z" fill="#909090"/>
<path d="M9.68751 7.97461C10.0189 7.97461 10.2871 8.24285 10.2871 8.57422V9.31543L9.1504 8.31055C9.24798 8.11198 9.4512 7.97476 9.68751 7.97461Z" fill="#909090"/>
</svg>
