<svg width="24" height="24" viewBox="0 0 24 24" fill="none" xmlns="http://www.w3.org/2000/svg">
<path d="M17.5757 10.6221C17.5757 7.69497 15.1009 5.28223 11.9995 5.28223C8.89838 5.28247 6.42433 7.69512 6.42432 10.6221C6.42432 12.4062 7.33205 14.268 8.49756 15.9062C9.65314 17.5306 11.0062 18.8564 11.7759 19.5566L11.8237 19.5938C11.9421 19.6676 12.0907 19.6537 12.1997 19.5498L12.5142 19.2461C13.3042 18.4683 14.4717 17.2266 15.4897 15.7852C16.6669 14.1184 17.5757 12.2789 17.5757 10.6221ZM18.7749 10.6221C18.7749 12.6637 17.6831 14.7601 16.4702 16.4775C15.397 17.9971 14.175 19.2944 13.354 20.1025L13.0278 20.4189C12.4871 20.9343 11.6709 20.9798 11.0825 20.5391L10.9683 20.4443C10.1665 19.7149 8.74505 18.3235 7.52002 16.6016C6.30489 14.8935 5.2251 12.7804 5.2251 10.6221C5.22512 6.98878 8.28008 4.08325 11.9995 4.08301C15.7191 4.08301 18.7749 6.98863 18.7749 10.6221Z" fill="#909090"/>
<path d="M9.08853 14.184V8.57458C9.08853 8.24321 9.35677 7.97497 9.68814 7.97497C10.0195 7.97497 10.2877 8.24321 10.2877 8.57458V14.184C10.2877 14.5153 10.0195 14.7845 9.68814 14.7845C9.35677 14.7845 9.08853 14.5153 9.08853 14.184Z" fill="#909090"/>
<path d="M14.7882 10.4838C14.7882 10.1795 14.7279 9.9738 14.6476 9.83044C14.5687 9.68968 14.4504 9.57317 14.2765 9.47692C14.0007 9.32431 13.6056 9.23257 13.089 9.19469C13.089 9.95879 13.089 10.8167 13.089 11.6068C13.1109 11.6026 13.1327 11.5969 13.1554 11.5951L13.1662 11.5941C13.1773 11.593 13.1957 11.5914 13.2199 11.5882C13.2686 11.582 13.3411 11.5712 13.4289 11.5541C13.6072 11.5192 13.8361 11.46 14.0578 11.3646C14.5202 11.1657 14.7882 10.8935 14.7882 10.4838ZM15.9875 10.4838C15.9875 11.6123 15.1627 12.196 14.5324 12.4672C14.208 12.6067 13.8907 12.6865 13.6593 12.7318C13.5423 12.7547 13.443 12.7696 13.3722 12.7787C13.337 12.7832 13.3081 12.7863 13.2873 12.7884C13.2769 12.7895 13.2683 12.7898 13.2619 12.7904C13.2588 12.7907 13.2562 12.7912 13.2541 12.7914H13.2492L13.1271 12.7884C13.1141 12.7868 13.1018 12.7821 13.089 12.7797C13.089 13.1326 13.089 13.4434 13.089 13.6888C13.089 13.871 13.09 14.0179 13.09 14.1185V14.2738L13.0773 14.3949C13.0213 14.6682 12.7793 14.8734 12.4894 14.8734C12.1996 14.8733 11.9575 14.6682 11.9015 14.3949L11.8898 14.2738V8.57458C11.8898 8.24329 12.1581 7.97504 12.4894 7.97497C13.3457 7.97497 14.2017 8.06417 14.8576 8.42712C15.1988 8.61595 15.4908 8.88203 15.6935 9.24352C15.8946 9.60225 15.9874 10.0195 15.9875 10.4838Z" fill="#909090"/>
</svg>
