<svg width="24" height="24" viewBox="0 0 24 24" fill="none" xmlns="http://www.w3.org/2000/svg">
<path d="M18.8003 7.7998C18.8003 6.91615 18.0834 6.19922 17.1997 6.19922H6.80029C5.91664 6.19922 5.19971 6.91615 5.19971 7.7998V16.1992C5.19971 17.0829 5.91664 17.7998 6.80029 17.7998H17.1997C18.0834 17.7998 18.8003 17.0829 18.8003 16.1992V7.7998ZM20.0005 16.1992C20.0005 17.7456 18.7461 19 17.1997 19H6.80029C5.2539 19 4.00049 17.7456 4.00049 16.1992V7.7998C4.00049 6.25341 5.2539 5 6.80029 5H17.1997C18.7461 5 20.0005 6.25341 20.0005 7.7998V16.1992Z" fill="#15C674"/>
<path d="M14.2695 16.1631H9.73047C9.34387 16.1631 9.03027 15.8495 9.03027 15.4629C9.03027 15.0763 9.34387 14.7627 9.73047 14.7627H14.2695C14.6561 14.7627 14.9697 15.0763 14.9697 15.4629C14.9697 15.8495 14.6561 16.1631 14.2695 16.1631Z" fill="#15C674"/>
<path d="M8.46289 8.39746C8.90472 8.39746 9.26367 8.75544 9.26367 9.19727C9.26367 9.63909 8.90472 9.99707 8.46289 9.99707H7.71191C7.27009 9.99707 6.91211 9.63909 6.91211 9.19727C6.91211 8.75544 7.27009 8.39747 7.71191 8.39746H8.46289ZM12.375 8.39746C12.8168 8.39746 13.1758 8.75544 13.1758 9.19727C13.1758 9.63909 12.8168 9.99707 12.375 9.99707H11.624C11.1823 9.997 10.8242 9.63905 10.8242 9.19727C10.8242 8.75548 11.1823 8.39753 11.624 8.39746H12.375ZM16.2871 8.39746C16.7289 8.39746 17.0879 8.75544 17.0879 9.19727C17.0879 9.63909 16.7289 9.99707 16.2871 9.99707H15.5361C15.0944 9.99693 14.7363 9.63901 14.7363 9.19727C14.7363 8.75552 15.0944 8.3976 15.5361 8.39746H16.2871Z" fill="#15C674"/>
<path d="M8.46289 11.6611C8.90472 11.6611 9.26367 12.0191 9.26367 12.4609C9.26367 12.9028 8.90472 13.2607 8.46289 13.2607H7.71191C7.27009 13.2607 6.91211 12.9028 6.91211 12.4609C6.91211 12.0191 7.27009 11.6611 7.71191 11.6611H8.46289ZM12.375 11.6611C12.8168 11.6611 13.1758 12.0191 13.1758 12.4609C13.1758 12.9028 12.8168 13.2607 12.375 13.2607H11.624C11.1823 13.2607 10.8242 12.9027 10.8242 12.4609C10.8242 12.0192 11.1823 11.6612 11.624 11.6611H12.375ZM16.2871 11.6611C16.7289 11.6611 17.0879 12.0191 17.0879 12.4609C17.0879 12.9028 16.7289 13.2607 16.2871 13.2607H15.5361C15.0944 13.2606 14.7363 12.9027 14.7363 12.4609C14.7363 12.0192 15.0944 11.6613 15.5361 11.6611H16.2871Z" fill="#15C674"/>
</svg>
