<svg width="24" height="24" viewBox="0 0 24 24" fill="none" xmlns="http://www.w3.org/2000/svg">
<path d="M11.79 18.126C12.0845 18.2085 12.3016 18.4751 12.3018 18.7959C12.3018 19.1825 11.9882 19.4961 11.6016 19.4961H8.56934C7.45232 19.4961 6.46074 18.9577 5.84082 18.126H11.79Z" fill="#15C674"/>
<path d="M17.7451 13.8574C17.9794 13.6231 18.3594 13.6232 18.5938 13.8574L20.8447 16.1094C20.8465 16.1111 20.8488 16.1125 20.8506 16.1143C20.8885 16.1522 20.9187 16.1949 20.9443 16.2393C20.9957 16.3277 21.0273 16.4293 21.0273 16.5391C21.0273 16.7072 20.9571 16.858 20.8457 16.9668L18.5938 19.2197C18.3594 19.454 17.9794 19.454 17.7451 19.2197C17.5111 18.9855 17.5111 18.6063 17.7451 18.3721L18.9785 17.1387H14.9219C14.5905 17.1387 14.3223 16.8704 14.3223 16.5391C14.3223 16.2077 14.5905 15.9395 14.9219 15.9395H18.9795L17.7451 14.7061C17.5108 14.4717 17.5108 14.0917 17.7451 13.8574Z" fill="#15C674"/>
<path fill-rule="evenodd" clip-rule="evenodd" d="M16.2598 5.03223C17.6957 5.03223 18.8594 6.1959 18.8594 7.63184V10.9355C18.8594 11.2669 18.5911 11.5352 18.2598 11.5352C17.9284 11.5352 17.6602 11.2669 17.6602 10.9355V7.63184C17.6602 6.85864 17.033 6.23145 16.2598 6.23145H5.49609C4.7229 6.23145 4.0957 6.85864 4.0957 7.63184V14.0176C4.93643 13.2188 6.18051 13.0186 7.18164 13.0186C7.97 13.0186 8.86119 13.1396 9.60938 13.5439C10.3878 13.9648 10.9854 14.6818 11.1416 15.7734C11.2408 16.4668 10.6616 16.958 10.082 16.958H5.28027C5.27049 16.958 5.26075 16.9562 5.25098 16.9561C5.24609 16.9562 5.24124 16.958 5.23633 16.958C3.94419 16.958 2.89665 15.9103 2.89648 14.6182V7.63184C2.89648 6.1959 4.06015 5.03223 5.49609 5.03223H16.2598ZM7.18164 14.2178C6.04828 14.2178 5.0773 14.5084 4.64941 15.2256C4.60953 15.2925 4.60865 15.3362 4.6123 15.3633C4.61692 15.3967 4.63637 15.4486 4.69043 15.5107C4.80632 15.6437 5.03038 15.7577 5.28027 15.7578H9.91797C9.78794 15.184 9.46615 14.8306 9.03906 14.5996C8.53753 14.3286 7.8718 14.2178 7.18164 14.2178Z" fill="#15C674"/>
<path fill-rule="evenodd" clip-rule="evenodd" d="M11.9775 7.32031C12.6988 6.98282 13.514 6.89816 14.2891 7.08105C14.9313 7.23274 15.5983 7.57109 16.1084 8.14453C16.6259 8.72651 16.9531 9.52065 16.9531 10.5225C16.9529 11.3375 16.2757 12.0713 15.3721 12.0713C14.9596 12.0712 14.6399 11.9385 14.4092 11.7812C14.1475 11.9729 13.826 12.0879 13.4766 12.0879C12.6005 12.0879 11.8927 11.3768 11.8926 10.502C11.8926 9.62704 12.6005 8.91602 13.4766 8.91602C14.3526 8.91609 15.0605 9.62709 15.0605 10.502C15.0605 10.5875 15.0511 10.671 15.0381 10.7529C15.0436 10.758 15.0484 10.7644 15.0547 10.7695C15.1109 10.8151 15.2079 10.8709 15.3721 10.8711C15.6022 10.8711 15.7536 10.6856 15.7539 10.5225C15.7539 9.79863 15.523 9.2922 15.2109 8.94141C14.8914 8.58233 14.457 8.3539 14.0127 8.24902C13.5008 8.12832 12.9627 8.18434 12.4863 8.40723C12.0103 8.63018 11.6229 9.00737 11.3877 9.47754C11.1526 9.94798 11.0829 10.4852 11.1904 11C11.2981 11.5147 11.5768 11.9785 11.9805 12.3154C12.3842 12.6522 12.8904 12.8427 13.416 12.8564C13.7485 12.865 14.0771 12.8027 14.3799 12.6758C14.6854 12.5475 15.0378 12.6915 15.166 12.9971C15.2937 13.3024 15.15 13.654 14.8447 13.7822C14.3862 13.9746 13.8884 14.0697 13.3848 14.0566C12.5888 14.0359 11.8223 13.7465 11.2109 13.2363C10.5998 12.7262 10.1785 12.0244 10.0156 11.2451C9.85289 10.4657 9.95849 9.65361 10.3145 8.94141C10.6705 8.22936 11.2566 7.6579 11.9775 7.32031ZM13.4766 10.1152C13.2655 10.1152 13.0918 10.2875 13.0918 10.502C13.0919 10.7163 13.2655 10.8877 13.4766 10.8877C13.6876 10.8876 13.8603 10.7163 13.8604 10.502C13.8604 10.2876 13.6876 10.1153 13.4766 10.1152Z" fill="#15C674"/>
<path fill-rule="evenodd" clip-rule="evenodd" d="M7.17871 8.20898C7.84587 8.209 8.37319 8.49501 8.71484 8.94238C9.04234 9.37135 9.1742 9.91219 9.16211 10.417C9.14993 10.9221 8.99216 11.4502 8.66797 11.8662C8.33268 12.2963 7.82325 12.5957 7.17871 12.5957C6.07295 12.5956 5.44134 11.7606 5.26172 10.9424C5.08697 10.1462 5.28035 9.13771 6.04688 8.57324C6.19812 8.46191 6.3862 8.37487 6.56543 8.31543C6.74666 8.25535 6.96281 8.20901 7.17871 8.20898ZM7.17871 9.4082C7.12459 9.40823 7.03909 9.42239 6.94336 9.4541C6.84555 9.48654 6.77961 9.52301 6.75781 9.53906C6.48208 9.74229 6.32791 10.204 6.43359 10.6855C6.53456 11.1449 6.8121 11.3954 7.17871 11.3955C7.41806 11.3955 7.59113 11.2963 7.72168 11.1289C7.86302 10.9475 7.95494 10.6791 7.96191 10.3877C7.96888 10.0959 7.88942 9.83949 7.76074 9.6709C7.64608 9.52078 7.47175 9.40822 7.17871 9.4082Z" fill="#15C674"/>
<path d="M19.8154 7.5C20.6807 8.11473 21.2464 9.12368 21.249 10.2656L21.252 11.4336C21.2528 11.8201 20.9402 12.1347 20.5537 12.1357C20.1672 12.1366 19.8526 11.824 19.8516 11.4375L19.8496 10.2686C19.8493 10.1461 19.8368 10.0265 19.8154 9.91016V7.5Z" fill="#15C674"/>
</svg>
