<svg width="24" height="24" viewBox="0 0 24 24" fill="none" xmlns="http://www.w3.org/2000/svg">
<path d="M17.0161 5.49023C17.347 5.49076 17.6157 5.7588 17.6157 6.08984C17.6157 6.42089 17.347 6.68893 17.0161 6.68945H12.6001V18.749H14.689C15.0201 18.7493 15.2886 19.0174 15.2886 19.3486C15.2886 19.6798 15.0201 19.948 14.689 19.9482H9.31201C8.98064 19.9482 8.7124 19.68 8.7124 19.3486C8.7124 19.0173 8.98064 18.749 9.31201 18.749H11.4009V6.68945H6.98584C6.65447 6.68945 6.38623 6.42121 6.38623 6.08984C6.38623 5.75847 6.65447 5.49023 6.98584 5.49023H17.0161Z" fill="#15C674"/>
<path fill-rule="evenodd" clip-rule="evenodd" d="M6.68506 7.51562C6.91268 7.51595 7.12101 7.64467 7.22217 7.84863L9.479 12.3975H9.99658C10.1556 12.3975 10.3079 12.4608 10.4204 12.5732C10.5329 12.6858 10.5962 12.838 10.5962 12.9971C10.5962 14.0347 10.1844 15.03 9.45068 15.7637C8.717 16.4974 7.72167 16.9092 6.68408 16.9092C5.64648 16.9092 4.65119 16.4974 3.91748 15.7637C3.18377 15.03 2.77197 14.0347 2.77197 12.9971C2.77197 12.6657 3.04021 12.3975 3.37158 12.3975H3.89111L6.14697 7.84863L6.18994 7.77539C6.30081 7.61409 6.48576 7.51562 6.68506 7.51562ZM4.0415 13.5967C4.15386 14.0918 4.40139 14.5503 4.76611 14.915C5.27478 15.4237 5.96474 15.709 6.68408 15.709C7.40341 15.709 8.09341 15.4237 8.60205 14.915C8.96675 14.5503 9.21431 14.0918 9.32666 13.5967H9.12158L9.10596 13.5977H4.26318C4.2581 13.5977 4.25262 13.5968 4.24756 13.5967H4.0415ZM5.22998 12.3975H8.13916L6.68408 9.46484L5.22998 12.3975Z" fill="#15C674"/>
<path fill-rule="evenodd" clip-rule="evenodd" d="M17.3169 7.51562C17.5445 7.51595 17.7528 7.64467 17.854 7.84863L20.1108 12.3975H20.6284C20.7875 12.3975 20.9398 12.4608 21.0522 12.5732C21.1647 12.6858 21.228 12.838 21.228 12.9971C21.228 14.0347 20.8162 15.03 20.0825 15.7637C19.3488 16.4974 18.3535 16.9092 17.3159 16.9092C16.2783 16.9092 15.283 16.4974 14.5493 15.7637C13.8156 15.03 13.4038 14.0347 13.4038 12.9971C13.4038 12.6657 13.672 12.3975 14.0034 12.3975H14.5229L16.7788 7.84863L16.8218 7.77539C16.9326 7.61409 17.1176 7.51562 17.3169 7.51562ZM14.6733 13.5967C14.7857 14.0918 15.0332 14.5503 15.3979 14.915C15.9066 15.4237 16.5966 15.709 17.3159 15.709C18.0352 15.709 18.7252 15.4237 19.2339 14.915C19.5986 14.5503 19.8461 14.0918 19.9585 13.5967H19.7534L19.7378 13.5977H14.895C14.8899 13.5977 14.8845 13.5968 14.8794 13.5967H14.6733ZM15.8618 12.3975H18.771L17.3159 9.46484L15.8618 12.3975Z" fill="#15C674"/>
</svg>
