<svg width="24" height="24" viewBox="0 0 24 24" fill="none" xmlns="http://www.w3.org/2000/svg">
<path fill-rule="evenodd" clip-rule="evenodd" d="M14.2139 3.90625C14.8183 3.90631 15.2051 4.5511 14.92 5.08398L12.5479 9.51758H16.4522C16.6806 9.51763 16.8893 9.64775 16.9903 9.85254C17.0911 10.0573 17.0667 10.3013 16.9278 10.4824L9.54402 20.1074C9.00086 20.8148 7.88278 20.2372 8.14558 19.3848L9.75398 14.1689H4.87019C4.67451 14.1689 4.49122 14.0734 4.37898 13.9131C4.26677 13.7527 4.23972 13.5472 4.30671 13.3633L7.60945 4.30078L7.64851 4.21582C7.75284 4.02699 7.95241 3.90639 8.17293 3.90625H14.2139ZM5.72761 12.9688H10.5665C10.7569 12.9688 10.9358 13.0598 11.0489 13.2129C11.162 13.3661 11.1958 13.5641 11.1397 13.7461L9.94832 17.6074L15.2344 10.7178H11.546C11.3351 10.7177 11.1397 10.6066 11.0313 10.4258C10.9231 10.2451 10.9175 10.0208 11.0167 9.83496L13.546 5.10547H8.59187L5.72761 12.9688Z" fill="#15C674"/>
<path d="M17.7813 13.2217C18.1126 13.2218 18.3809 13.49 18.3809 13.8213V15.8271H20.3966C20.7279 15.8271 20.9962 16.0954 20.9962 16.4268C20.9962 16.7581 20.7279 17.0264 20.3966 17.0264H18.3809V19.043C18.3809 19.3742 18.1126 19.6424 17.7813 19.6426C17.45 19.6426 17.1817 19.3743 17.1817 19.043V17.0264H15.1749C14.8436 17.0263 14.5753 16.7581 14.5753 16.4268C14.5753 16.0955 14.8436 15.8273 15.1749 15.8271H17.1817V13.8213C17.1817 13.4899 17.45 13.2217 17.7813 13.2217Z" fill="#15C674"/>
</svg>
