<svg width="24" height="24" viewBox="0 0 24 24" fill="none" xmlns="http://www.w3.org/2000/svg">
<path d="M18.8387 15.7256C19.1674 15.7642 19.4031 16.0619 19.365 16.3907C19.1715 18.0468 18.2867 19.6219 16.5027 20.127C15.1731 20.5033 13.7474 20.2238 12.699 19.3995V19.7901C12.6988 20.1212 12.4305 20.3896 12.0994 20.3897C11.7682 20.3897 11.5 20.1212 11.4998 19.7901V17.9668C11.4999 17.6355 11.7681 17.3672 12.0994 17.3672H13.9226C14.2537 17.3676 14.5222 17.6357 14.5222 17.9668C14.5222 18.298 14.2537 18.5661 13.9226 18.5664H13.5887C14.3117 19.0623 15.2638 19.2306 16.1756 18.9727C17.3376 18.6437 18.014 17.6082 18.1726 16.252C18.2113 15.923 18.5096 15.6872 18.8387 15.7256Z" fill="#15C674"/>
<path d="M9.27323 9.41215C10.0335 9.21744 10.7772 9.32721 11.4705 9.71098C11.7601 9.87147 11.865 10.2366 11.7049 10.5264C11.5443 10.8162 11.1783 10.9212 10.8885 10.7608C10.4472 10.5166 10.0173 10.4609 9.57108 10.5752C9.10695 10.6942 8.57731 11.0105 7.98807 11.5996L7.98709 11.5987L5.9578 13.6348L5.95682 13.6358C4.85402 14.7391 4.74938 16.2221 5.7449 17.2178C6.50197 17.9749 7.44851 18.0273 8.35819 17.5342C8.64948 17.3763 9.01371 17.4842 9.17166 17.7754C9.32946 18.0666 9.22145 18.4309 8.93045 18.5889C7.63211 19.2926 6.08838 19.2586 4.89627 18.0664C3.32823 16.4982 3.64787 14.248 5.10819 12.7871L7.13944 10.751C7.82039 10.0701 8.53107 9.60234 9.27323 9.41215Z" fill="#15C674"/>
<path d="M18.4168 11.9131C18.7481 11.9131 19.0163 12.1814 19.0164 12.5127V14.3262C19.0164 14.3295 19.0174 14.3327 19.0174 14.336C19.0174 14.6672 18.7489 14.9353 18.4178 14.9356H16.5955C16.2641 14.9356 15.9959 14.6673 15.9959 14.336C15.9959 14.0047 16.2642 13.7364 16.5955 13.7364H16.9305C16.2069 13.2335 15.251 13.0609 14.3357 13.3204C13.1754 13.6495 12.4993 14.6865 12.3406 16.045C12.3022 16.3739 12.0045 16.6094 11.6756 16.5713C11.3464 16.5329 11.1108 16.2354 11.1492 15.9063C11.3426 14.2492 12.2256 12.6717 14.0086 12.1661C15.3404 11.7886 16.7691 12.0708 17.8172 12.9004V12.5127C17.8172 12.1815 18.0856 11.9133 18.4168 11.9131Z" fill="#15C674"/>
<path d="M12.0017 5.85258C13.4611 4.39342 15.7067 4.06694 17.2762 5.63578C17.914 6.2736 18.2362 7.03378 18.2635 7.82328C18.2902 8.60359 18.0282 9.37075 17.575 10.044C17.3899 10.3188 17.0168 10.3921 16.742 10.2071C16.4674 10.0219 16.3949 9.64882 16.5799 9.37406C16.9201 8.86864 17.0806 8.3465 17.0642 7.86527C17.048 7.39338 16.8605 6.91741 16.4275 6.48441C15.4329 5.49037 13.9549 5.59695 12.8504 6.70121L11.3377 8.25785C11.1068 8.49549 10.7267 8.50136 10.489 8.27055C10.2517 8.03964 10.2456 7.65948 10.4764 7.42191L11.9949 5.85941L12.0017 5.85258Z" fill="#15C674"/>
</svg>
