<svg width="24" height="24" viewBox="0 0 24 24" fill="none" xmlns="http://www.w3.org/2000/svg">
<path fill-rule="evenodd" clip-rule="evenodd" d="M17 5.05273C18.4359 5.05273 19.5995 6.21646 19.5996 7.65234V16.4111C19.5996 17.8471 18.4359 19.0107 17 19.0107H10.7979C9.36191 19.0107 8.19824 17.8471 8.19824 16.4111V7.65234C8.19831 6.21646 9.36195 5.05273 10.7979 5.05273H17ZM10.7979 6.25293C10.0247 6.25293 9.39753 6.8792 9.39746 7.65234V16.4111C9.39746 17.1843 10.0247 17.8115 10.7979 17.8115H17C17.7732 17.8115 18.4004 17.1843 18.4004 16.4111V7.65234C18.4003 6.8792 17.7732 6.25293 17 6.25293H10.7979Z" fill="#333333"/>
<path d="M5.2207 15.4805C5.93758 15.4807 6.51927 16.0614 6.51953 16.7783C6.51953 17.4954 5.93775 18.0769 5.2207 18.0771C4.50366 18.0769 3.92188 17.4954 3.92188 16.7783C3.92214 16.0614 4.50382 15.4807 5.2207 15.4805Z" fill="#333333"/>
<path d="M5.2207 10.6475C5.93758 10.6477 6.51927 11.2284 6.51953 11.9453C6.51953 12.6624 5.93775 13.2439 5.2207 13.2441C4.50366 13.2439 3.92188 12.6624 3.92188 11.9453C3.92214 11.2284 4.50382 10.6477 5.2207 10.6475Z" fill="#333333"/>
<path d="M5.2207 5.92285C5.93758 5.92312 6.51927 6.50382 6.51953 7.2207C6.51953 7.93781 5.93775 8.51927 5.2207 8.51953C4.50366 8.51927 3.92188 7.93781 3.92188 7.2207C3.92214 6.50382 4.50382 5.92311 5.2207 5.92285Z" fill="#333333"/>
</svg>
