<svg width="24" height="24" viewBox="0 0 24 24" fill="none" xmlns="http://www.w3.org/2000/svg">
<path d="M14.917 5.125C15.2484 5.12501 15.5166 5.39324 15.5166 5.72461C15.5166 6.05597 15.2484 6.32421 14.917 6.32422H7.47754C6.70434 6.32422 6.07715 6.95141 6.07715 7.72461V16.3301C6.07741 17.1031 6.7045 17.7295 7.47754 17.7295H16.6279C16.9593 17.7295 17.2275 17.9987 17.2275 18.3301C17.2273 18.6612 16.9591 18.9297 16.6279 18.9297H7.47754C6.04176 18.9297 4.87819 17.7658 4.87793 16.3301V7.72461C4.87793 6.28867 6.0416 5.125 7.47754 5.125H14.917Z" fill="#15C674"/>
<path fill-rule="evenodd" clip-rule="evenodd" d="M15.1846 9.05762C15.3657 8.50809 16.1431 8.50807 16.3242 9.05762L16.9336 10.9092C16.9931 11.09 17.1346 11.2324 17.3154 11.292L19.168 11.9014C19.7179 12.0823 19.7178 12.86 19.168 13.041L17.3154 13.6504C17.1349 13.7099 16.9932 13.8518 16.9336 14.0322L16.3242 15.8848L16.2832 15.9814C16.0636 16.4025 15.4441 16.4027 15.2246 15.9814L15.1846 15.8848L14.5752 14.0322C14.523 13.8742 14.4078 13.7452 14.2588 13.6758L14.1924 13.6504L12.3408 13.041C11.7908 12.8601 11.7908 12.0823 12.3408 11.9014L14.1924 11.292C14.3506 11.2399 14.4793 11.1247 14.5488 10.9756L14.5752 10.9092L15.1846 9.05762ZM15.6201 11.2529C15.4515 11.7657 15.0489 12.1682 14.5361 12.3369L14.1279 12.4707L14.5361 12.6055C14.9847 12.753 15.3488 13.0793 15.5459 13.502L15.6201 13.6895L15.7539 14.0967L15.8887 13.6895L15.9619 13.502C16.159 13.0792 16.524 12.753 16.9727 12.6055L17.3799 12.4707L16.9727 12.3369C16.4598 12.1682 16.0573 11.7658 15.8887 11.2529L15.7539 10.8447L15.6201 11.2529Z" fill="#15C674"/>
<path d="M11.4482 14.5586C11.7796 14.5586 12.0488 14.8268 12.0488 15.1582C12.0488 15.4896 11.7796 15.7578 11.4482 15.7578H8.40137C8.07 15.7578 7.80176 15.4896 7.80176 15.1582C7.80176 14.8268 8.07 14.5586 8.40137 14.5586H11.4482Z" fill="#15C674"/>
<path d="M9.87891 11.6035C10.2102 11.6036 10.4785 11.8718 10.4785 12.2031C10.4785 12.5344 10.2102 12.8027 9.87891 12.8027H8.40137C8.07 12.8027 7.80176 12.5345 7.80176 12.2031C7.80176 11.8718 8.07 11.6035 8.40137 11.6035H9.87891Z" fill="#15C674"/>
<path d="M11.6641 8.64062C11.9954 8.6407 12.2637 8.90891 12.2637 9.24023C12.2637 9.57156 11.9954 9.83977 11.6641 9.83984H8.40137C8.07 9.83984 7.80176 9.57161 7.80176 9.24023C7.80176 8.90886 8.07 8.64062 8.40137 8.64062H11.6641Z" fill="#15C674"/>
<path d="M18.1211 6.79395C18.2444 6.43321 18.7545 6.4333 18.8779 6.79395L19.0596 7.32422C19.0996 7.44138 19.1915 7.53417 19.3086 7.57422L19.8389 7.75488C20.1998 7.87815 20.1998 8.38845 19.8389 8.51172L19.3086 8.69336C19.1915 8.73339 19.0996 8.82529 19.0596 8.94238L18.8779 9.47266C18.7547 9.83364 18.2444 9.83364 18.1211 9.47266L17.9404 8.94238C17.9104 8.85453 17.8506 8.78067 17.7734 8.73242L17.6904 8.69336L17.1602 8.51172C16.7995 8.38829 16.7994 7.87821 17.1602 7.75488L17.4521 7.6543L17.6904 7.57422C17.7783 7.54421 17.8521 7.48439 17.9004 7.40723L17.9404 7.32422L18.1211 6.79395Z" fill="#15C674"/>
</svg>
