<svg width="24" height="24" viewBox="0 0 24 24" fill="none" xmlns="http://www.w3.org/2000/svg">
<path d="M12 4.08301C12.9816 4.08307 13.9165 4.28662 14.7617 4.65137C14.4809 4.95335 14.234 5.28704 14.0264 5.64648C13.3994 5.4122 12.7166 5.28229 12 5.28223C8.89886 5.28247 6.42482 7.69512 6.4248 10.6221C6.4248 12.4062 7.33254 14.268 8.49805 15.9062C9.65359 17.5305 11.0067 18.8564 11.7764 19.5566C11.9001 19.6689 12.0759 19.6683 12.2002 19.5498C12.9674 18.8182 14.3269 17.4324 15.4902 15.7852C16.0083 15.0515 16.4735 14.284 16.833 13.5137C17.2084 13.6561 17.6032 13.7582 18.0127 13.8154C17.595 14.7571 17.0476 15.6607 16.4707 16.4775C15.2442 18.2142 13.8229 19.6613 13.0283 20.4189C12.4516 20.9685 11.5616 20.9834 10.9688 20.4443C10.1671 19.7149 8.74551 18.3234 7.52051 16.6016C6.30538 14.8935 5.22461 12.7804 5.22461 10.6221C5.22463 6.98878 8.28057 4.08325 12 4.08301Z" fill="#909090"/>
<path d="M12 7.48535C12.4749 7.48535 12.9237 7.5946 13.3262 7.78516C13.3047 7.98225 13.2939 8.18294 13.2939 8.38574C13.294 8.6839 13.3175 8.97647 13.3633 9.26172C13.0172 8.90651 12.535 8.68457 12 8.68457C10.948 8.68461 10.0948 9.53783 10.0947 10.5898C10.0947 11.6419 10.948 12.4951 12 12.4951C12.9604 12.4951 13.7516 11.7836 13.8828 10.8594C14.1081 11.3042 14.3919 11.7142 14.7246 12.0791C14.1971 13.0419 13.1751 13.6953 12 13.6953C10.2852 13.6953 8.89551 12.3046 8.89551 10.5898C8.89555 8.87508 10.2852 7.4854 12 7.48535Z" fill="#909090"/>
<path d="M18.7783 4.90137C19.1096 4.90137 19.3778 5.16972 19.3779 5.50098V7.73535H21.6123C21.9436 7.73537 22.2118 8.00371 22.2119 8.33496C22.2119 8.66632 21.9437 8.93455 21.6123 8.93457H19.3779V11.1689L19.3662 11.29C19.3103 11.5635 19.0683 11.7686 18.7783 11.7686C18.4883 11.7686 18.2463 11.5635 18.1904 11.29L18.1787 11.1689V8.93457H15.9443C15.613 8.93455 15.3447 8.66632 15.3447 8.33496C15.3449 8.00371 15.6131 7.73537 15.9443 7.73535H18.1787V5.50098C18.1788 5.16972 18.447 4.90137 18.7783 4.90137Z" fill="#909090"/>
</svg>
