<svg width="24" height="24" viewBox="0 0 24 24" fill="none" xmlns="http://www.w3.org/2000/svg">
<path d="M12.1689 11.2227C12.7374 11.2804 13.2229 11.6195 13.4834 12.0986C13.6138 12.3384 13.6884 12.6132 13.6885 12.9053C13.6885 13.0244 13.6748 13.1408 13.6514 13.2529C13.6301 13.3547 13.5992 13.4527 13.5605 13.5469C13.5516 13.5688 13.5411 13.5899 13.5312 13.6113C13.5177 13.6406 13.5044 13.6699 13.4893 13.6982C13.4806 13.7145 13.4711 13.7302 13.4619 13.7461C13.445 13.7756 13.4278 13.8047 13.4092 13.833C13.398 13.85 13.3858 13.8662 13.374 13.8828C13.3559 13.9083 13.3378 13.9336 13.3184 13.958C13.3035 13.9766 13.2881 13.9947 13.2725 14.0127C13.2528 14.0354 13.2327 14.0575 13.2119 14.0791C13.1982 14.0934 13.1842 14.1073 13.1699 14.1211C13.1455 14.1447 13.1205 14.1674 13.0947 14.1895C13.0789 14.203 13.0632 14.2165 13.0469 14.2295C13.023 14.2485 12.9985 14.2665 12.9736 14.2842C12.9551 14.2974 12.9361 14.3098 12.917 14.3223C12.8946 14.3369 12.8718 14.3507 12.8486 14.3643C12.8237 14.3788 12.7991 14.3939 12.7734 14.4072C12.752 14.4184 12.73 14.4282 12.708 14.4385C12.6841 14.4496 12.6602 14.4607 12.6357 14.4707C12.6237 14.4756 12.6118 14.4807 12.5996 14.4854V16.1748C12.5996 16.5061 12.3313 16.7744 12 16.7744C11.6687 16.7744 11.4004 16.5061 11.4004 16.1748V14.4883C11.3838 14.482 11.3669 14.4765 11.3506 14.4697C11.3266 14.4598 11.3037 14.4475 11.2803 14.4365C11.2574 14.4258 11.2342 14.416 11.2119 14.4043C11.1829 14.3891 11.1549 14.3723 11.127 14.3555C11.1107 14.3457 11.0941 14.3365 11.0781 14.3262C11.053 14.3099 11.0291 14.292 11.0049 14.2744C10.9834 14.2588 10.9621 14.2431 10.9414 14.2266C10.9262 14.2144 10.9112 14.2021 10.8965 14.1895C10.8681 14.1651 10.8402 14.1404 10.8135 14.1143C10.8031 14.1041 10.7933 14.0934 10.7832 14.083C10.7583 14.0574 10.7342 14.0311 10.7109 14.0039C10.6969 13.9876 10.6833 13.971 10.6699 13.9541C10.6538 13.9337 10.6383 13.9128 10.623 13.8916C10.6068 13.869 10.5903 13.8466 10.5752 13.8232C10.5569 13.795 10.5401 13.7657 10.5234 13.7363C10.5154 13.7221 10.5076 13.7078 10.5 13.6934C10.4853 13.6656 10.4721 13.6371 10.459 13.6084C10.4487 13.586 10.438 13.5639 10.4287 13.541C10.4192 13.5176 10.4108 13.4937 10.4023 13.4697C10.3934 13.4444 10.3837 13.4194 10.376 13.3936C10.3472 13.2979 10.3269 13.1987 10.3154 13.0967C10.3145 13.0885 10.3123 13.0805 10.3115 13.0723C10.3061 13.0174 10.3047 12.9616 10.3047 12.9053C10.3047 12.6132 10.3784 12.3384 10.5088 12.0986C10.6389 11.8593 10.8251 11.6548 11.0498 11.5029C11.1398 11.4421 11.2358 11.3895 11.3369 11.3467C11.5394 11.261 11.7624 11.2139 11.9961 11.2139L12.1689 11.2227Z" fill="#909090"/>
<path fill-rule="evenodd" clip-rule="evenodd" d="M12 3.54688C14.403 3.54688 16.3515 5.49448 16.3516 7.89746V8.06543C17.7228 8.39602 18.7421 9.62983 18.7422 11.1025V13.7363L18.7334 14.083C18.5529 17.6449 15.6076 20.4771 12.001 20.4775L11.6533 20.4688C8.20622 20.2938 5.44229 17.5302 5.26758 14.083L5.25781 13.7363V11.1025C5.25786 9.62945 6.27767 8.39466 7.64941 8.06445V7.89746C7.64946 5.4945 9.59705 3.54693 12 3.54688ZM8.38379 9.17773C7.32067 9.17779 6.45904 10.0394 6.45898 11.1025V13.7363C6.45908 16.7969 8.94039 19.2783 12.001 19.2783C15.0612 19.2778 17.5419 16.7966 17.542 13.7363V11.1025C17.5419 10.0395 16.6801 9.178 15.6172 9.17773H8.38379ZM12 4.74609C10.2598 4.74615 8.84868 6.15725 8.84863 7.89746V7.97754H15.1514V7.89746C15.1513 6.15722 13.7403 4.74609 12 4.74609Z" fill="#909090"/>
</svg>
