<svg width="24" height="24" viewBox="0 0 24 24" fill="none" xmlns="http://www.w3.org/2000/svg">
<path d="M4.22633 11.1794C4.67837 6.79314 8.59517 3.59763 12.9851 4.03874C17.382 4.4806 20.5881 8.40357 20.1462 12.8005C19.7042 17.197 15.7821 20.4023 11.3855 19.9606C9.55326 19.7765 7.92635 18.9873 6.68531 17.8112C6.44481 17.5832 6.43392 17.2031 6.66188 16.9626C6.88976 16.7225 7.26911 16.7126 7.50953 16.9401C8.56442 17.9399 9.94602 18.6105 11.5046 18.7673C15.2421 19.1428 18.5772 16.4177 18.9529 12.6803C19.3285 8.94288 16.6025 5.60769 12.865 5.2321C9.18264 4.8622 5.89354 7.50332 5.43824 11.1559L5.91188 10.6979C6.14975 10.4677 6.52897 10.474 6.75953 10.7116C6.98982 10.9495 6.98367 11.3287 6.74586 11.5592L5.31813 12.945C5.09871 13.1576 4.754 13.1706 4.51832 12.9762L2.93824 11.6725C2.683 11.4615 2.64725 11.0822 2.85816 10.8268C3.06922 10.5718 3.44755 10.536 3.70289 10.7467L4.22633 11.1794Z" fill="#15C674"/>
<path d="M11.9168 7.4069C12.2479 7.40707 12.5162 7.6754 12.5164 8.00651V11.861L15.2136 14.5583C15.4478 14.7925 15.4476 15.1726 15.2136 15.4069C14.9793 15.6412 14.5993 15.6412 14.365 15.4069L11.4929 12.5339C11.3804 12.4214 11.3172 12.2691 11.3171 12.11V8.00651C11.3173 7.67529 11.5855 7.4069 11.9168 7.4069Z" fill="#15C674"/>
</svg>
