<svg width="24" height="24" viewBox="0 0 24 24" fill="none" xmlns="http://www.w3.org/2000/svg">
<path fill-rule="evenodd" clip-rule="evenodd" d="M15.334 2.22504C15.5595 2.26645 15.7446 2.43521 15.8047 2.66254C15.8429 2.80737 15.8717 2.94954 15.8926 3.08734L15.918 3.28559C16.0133 4.20821 15.7887 5.06598 15.2559 5.83246L15.1367 5.99457L15.1328 5.99945L15.0977 6.04144C15.1878 6.04156 15.2764 6.04482 15.3633 6.05219L15.3623 6.05316C16.8678 6.17495 18.0662 6.78141 18.8652 7.91742C18.9607 8.05328 18.9959 8.22266 18.9619 8.38519C18.9278 8.54783 18.8277 8.68969 18.6855 8.77582C17.635 9.41259 17.1585 10.2557 17.168 11.35L17.1855 11.6694C17.2486 12.2917 17.4805 12.8198 17.8818 13.27L18.0967 13.4887L18.1025 13.4936L18.3193 13.683C18.542 13.86 18.7822 14.0013 19.041 14.1098C19.3324 14.2321 19.4788 14.56 19.376 14.8588C19.2823 15.1307 19.1825 15.3931 19.0762 15.6459L19.0742 15.6518C18.8793 16.1021 18.6562 16.5273 18.4053 16.9282L18.1455 17.3207C17.6833 17.98 17.2742 18.4817 16.9277 18.7827L16.9268 18.7817C16.396 19.2655 15.788 19.5471 15.1094 19.5629L15.0957 19.5639C14.6212 19.5639 14.0968 19.4294 13.54 19.2006C13.0745 19.0107 12.6749 18.9301 12.335 18.9301C11.9702 18.9302 11.5563 19.0125 11.0879 19.2016L11.0889 19.2026C10.5393 19.4251 10.0394 19.566 9.6123 19.5805L9.61133 19.5795C8.91131 19.6073 8.27403 19.2918 7.71191 18.769C7.34769 18.4473 6.92831 17.9371 6.45996 17.2748C5.9213 16.5164 5.48383 15.6445 5.14453 14.6645L5.14355 14.6625C4.77854 13.599 4.59181 12.5559 4.5918 11.5356C4.5918 10.3642 4.84556 9.31885 5.37988 8.42621C5.79819 7.71381 6.35912 7.14445 7.06055 6.72797C7.76504 6.30973 8.53071 6.09605 9.34766 6.08246H9.35742L9.54883 6.0893C10.0045 6.12146 10.5296 6.26372 11.1064 6.47894H11.1084L11.3115 6.55219C11.168 5.58256 11.4246 4.5866 12.0156 3.77875L12.1387 3.61957C12.496 3.17361 12.9703 2.83106 13.5361 2.58051L13.5391 2.57855L13.749 2.49262C14.2406 2.30472 14.7373 2.20753 15.2344 2.21527L15.334 2.22504ZM15.2627 7.2475C14.8803 7.21503 14.3595 7.29435 13.6777 7.53949L13.6787 7.54047C13.2914 7.68262 12.9758 7.79185 12.7363 7.86664C12.6171 7.90389 12.5101 7.93451 12.4189 7.95648C12.3424 7.97493 12.2287 8.00043 12.1182 8.00043C11.9333 8.00041 11.712 7.94509 11.5088 7.88519C11.2856 7.81939 11.0099 7.72438 10.6865 7.60297C10.0768 7.37554 9.64575 7.28371 9.3623 7.28266C8.75333 7.2936 8.19406 7.45073 7.67285 7.76019C7.14879 8.07141 6.73048 8.49402 6.41211 9.03754L6.40918 9.04242C6.00591 9.71615 5.79102 10.5398 5.79102 11.5356C5.79103 12.4072 5.9517 13.3184 6.2793 14.2729C6.54814 15.0492 6.8786 15.7333 7.26855 16.3305L7.43848 16.5805L7.43945 16.5815L7.7666 17.0278C7.97132 17.2968 8.15004 17.5103 8.30371 17.6723L8.51562 17.8774L8.5293 17.8901L8.68164 18.0229C9.02851 18.3033 9.32054 18.3917 9.56641 18.3813H9.57227L9.76074 18.3608C9.97433 18.3254 10.2632 18.2423 10.6387 18.0903L10.6396 18.0893L10.8564 18.0073C11.3608 17.8264 11.8546 17.73 12.335 17.7299C12.8001 17.7299 13.283 17.8276 13.7793 18.0082L13.9932 18.0903L13.9941 18.0912L14.3311 18.2162C14.6423 18.319 14.8929 18.3616 15.0879 18.3627C15.4274 18.3532 15.77 18.2174 16.1279 17.8881L16.1406 17.8764L16.334 17.6889C16.5479 17.4617 16.8242 17.1156 17.1631 16.6323L17.3887 16.2914C17.6053 15.9452 17.7985 15.575 17.9697 15.1801L18.0586 14.9575C17.7782 14.7918 17.517 14.5931 17.2754 14.3637C16.4729 13.6171 16.0374 12.6779 15.9756 11.5844L15.9688 11.3627C15.9568 10.0402 16.4821 8.95887 17.4902 8.14984C16.9505 7.63271 16.2231 7.32585 15.2646 7.24848L15.2627 7.2475ZM14.7256 3.45746C14.4994 3.49904 14.2641 3.57218 14.0186 3.67914C13.5984 3.86566 13.2906 4.09966 13.0732 4.37152L13.0703 4.37738L13.0693 4.37641C12.6262 4.92153 12.4263 5.5934 12.4854 6.24164C13.138 6.21004 13.7072 5.87445 14.1836 5.26605L14.3447 5.03559C14.6527 4.54758 14.7749 4.0269 14.7256 3.45746Z" fill="#333333"/>
</svg>
