<svg width="24" height="24" viewBox="0 0 24 24" fill="none" xmlns="http://www.w3.org/2000/svg">
<path d="M10.6084 6.33441C10.9953 6.33454 11.3086 6.64868 11.3086 7.03558C11.3085 7.42239 10.9952 7.73564 10.6084 7.73577C10.2215 7.73577 9.90733 7.42247 9.90723 7.03558C9.90723 6.6486 10.2214 6.33441 10.6084 6.33441Z" fill="#333333"/>
<path d="M13.4287 6.33441C13.8157 6.33441 14.1299 6.6486 14.1299 7.03558C14.1298 7.42247 13.8156 7.73577 13.4287 7.73577C13.0418 7.73577 12.7286 7.42247 12.7285 7.03558C12.7285 6.6486 13.0417 6.33441 13.4287 6.33441Z" fill="#333333"/>
<path fill-rule="evenodd" clip-rule="evenodd" d="M8.45898 3.75531C8.70521 3.60257 9.01923 3.6495 9.21094 3.85199L9.28516 3.94866L9.6709 4.57171C10.3111 4.27525 11.0245 4.1098 11.7764 4.1098H12.2744C13.0185 4.10983 13.7244 4.27315 14.3594 4.5639L14.7412 3.94964L14.8154 3.85296C15.0071 3.65042 15.3211 3.60353 15.5674 3.75628C15.8135 3.90916 15.9109 4.2114 15.8145 4.47308L15.7607 4.58245L15.3828 5.19085C16.4806 6.05943 17.2067 7.37677 17.2822 8.86663L17.2891 9.12445V9.24163C17.4355 9.19707 17.591 9.1733 17.752 9.17327C18.6284 9.17354 19.3384 9.8838 19.3389 10.7602V14.0502C19.3387 14.9268 18.6285 15.6379 17.752 15.6381C17.5908 15.6381 17.4356 15.6134 17.2891 15.5688V15.6547C17.289 16.739 16.504 17.6384 15.4717 17.8198V19.5141C15.4715 20.3906 14.7612 21.1016 13.8848 21.102C13.008 21.102 12.2971 20.3908 12.2969 19.5141V17.8549H11.6787V19.5141C11.6785 20.3907 10.9684 21.1017 10.0918 21.102C9.215 21.102 8.5041 20.3908 8.50391 19.5141V17.8061C7.50869 17.5954 6.76178 16.7127 6.76172 15.6547V15.5512C6.6007 15.6063 6.42871 15.638 6.24902 15.6381C5.37222 15.6381 4.6613 14.927 4.66113 14.0502V10.7612C4.66129 9.88439 5.37221 9.17327 6.24902 9.17327C6.42855 9.17336 6.60083 9.20425 6.76172 9.25921V9.12445L6.76758 8.86663C6.84273 7.3841 7.56156 6.07127 8.65039 5.20257L8.26562 4.58148L8.21191 4.4721C8.11548 4.21048 8.21301 3.90822 8.45898 3.75531ZM9.70312 19.5141C9.70332 19.7281 9.87774 19.9018 10.0918 19.9018C10.3056 19.9015 10.4793 19.7279 10.4795 19.5141V17.8549H9.70312V19.5141ZM13.4961 19.5141C13.4963 19.7281 13.6707 19.9018 13.8848 19.9018C14.0985 19.9014 14.2723 19.7279 14.2725 19.5141V17.8549H13.4961V19.5141ZM7.96094 15.6547C7.96101 16.2068 8.40887 16.6545 8.96094 16.6547H15.0889C15.6411 16.6547 16.0888 16.2069 16.0889 15.6547V9.72406H7.96094V15.6547ZM6.24902 10.3725C6.03495 10.3725 5.86051 10.5471 5.86035 10.7612V14.0502C5.86052 14.2643 6.03496 14.4379 6.24902 14.4379C6.46275 14.4375 6.63655 14.264 6.63672 14.0502V10.7602C6.6363 10.5466 6.4626 10.3729 6.24902 10.3725ZM17.752 10.3725C17.538 10.3726 17.3634 10.5472 17.3633 10.7612V14.0502C17.3635 14.2642 17.538 14.4378 17.752 14.4379C17.9658 14.4377 18.1395 14.2641 18.1396 14.0502V10.7602C18.1392 10.5465 17.9656 10.3728 17.752 10.3725ZM11.7764 5.30902C9.87347 5.30902 8.29556 6.70283 8.00781 8.52484H16.042C15.7542 6.70296 14.1772 5.30914 12.2744 5.30902H11.7764Z" fill="#333333"/>
</svg>
