<svg width="24" height="24" viewBox="0 0 24 24" fill="none" xmlns="http://www.w3.org/2000/svg">
<path fill-rule="evenodd" clip-rule="evenodd" d="M9.43004 4H10.66C10.99 4 11.26 4.27 11.26 4.6C11.26 4.93 10.99 5.2 10.66 5.2H9.43004C7.29004 5.2 5.60004 6.85 5.60004 8.82V10.93C5.60004 12.9 7.29004 14.55 9.43004 14.55H16.99L14.01 11.57C13.78 11.34 13.78 10.96 14.01 10.72C14.24 10.49 14.62 10.49 14.86 10.72L18.86 14.73C18.91 14.78 18.96 14.85 18.99 14.92C19.02 15 19.04 15.08 19.04 15.16C19.04 15.24 19.02 15.31 18.99 15.39C18.96 15.46 18.92 15.53 18.86 15.59L14.86 19.59C14.63 19.82 14.25 19.82 14.01 19.59C13.77 19.36 13.78 18.98 14.01 18.74L16.99 15.76H9.43004C6.68004 15.76 4.40004 13.63 4.40004 10.94V8.83C4.40004 6.14 6.68004 4.01 9.43004 4.01V4Z" fill="#333333"/>
</svg>
