<svg width="24" height="24" viewBox="0 0 24 24" fill="none" xmlns="http://www.w3.org/2000/svg">
<path d="M17.0098 13.6406C17.3409 13.6409 17.6094 13.909 17.6094 14.2402V16.1406H19.5098C19.8409 16.1409 20.1094 16.409 20.1094 16.7402C20.1092 17.0713 19.8408 17.3396 19.5098 17.3398H17.6094V19.2402C17.6092 19.5713 17.3408 19.8396 17.0098 19.8398C16.6785 19.8398 16.4103 19.5715 16.4102 19.2402V17.3398H14.5098C14.1785 17.3398 13.9103 17.0715 13.9102 16.7402C13.9102 16.4089 14.1784 16.1406 14.5098 16.1406H16.4102V14.2402C16.4102 13.9089 16.6784 13.6406 17.0098 13.6406Z" fill="#15C674"/>
<path fill-rule="evenodd" clip-rule="evenodd" d="M18.001 5.99805C19.1051 5.99852 20.001 6.89377 20.001 7.99805V12C20.0008 12.331 19.7314 12.5993 19.4004 12.5996C19.0692 12.5995 18.801 12.3311 18.8008 12V8.18945L13.0576 12.8779C12.4261 13.3933 11.5169 13.388 10.8916 12.8652L5.2002 8.10352V16.002C5.20033 16.4437 5.55923 16.8018 6.00098 16.8018H11.3682C11.6991 16.8022 11.9678 17.0713 11.9678 17.4023C11.9675 17.7332 11.699 18.0015 11.3682 18.002H6.00098C4.89649 18.002 4.00013 17.1064 4 16.002V7.99805C4 6.89348 4.89641 5.99805 6.00098 5.99805H18.001ZM11.6621 11.9443C11.846 12.0978 12.1132 12.0997 12.2988 11.9482L18.1094 7.20508C18.0739 7.20022 18.0378 7.19731 18.001 7.19727H5.98633L11.6621 11.9443Z" fill="#15C674"/>
</svg>
