<svg width="24" height="24" viewBox="0 0 24 24" fill="none" xmlns="http://www.w3.org/2000/svg">
<path fill-rule="evenodd" clip-rule="evenodd" d="M18.3848 4.49419C18.6092 4.2508 18.9888 4.23494 19.2324 4.45903C19.476 4.68344 19.4918 5.06295 19.2676 5.30669L17.2148 7.53423L19.2715 7.51958C19.5127 7.51782 19.7317 7.66041 19.8271 7.88189C19.9225 8.10352 19.8761 8.36121 19.709 8.53521L12.5791 15.9512C12.591 15.9983 12.5996 16.047 12.5996 16.0977V18.6641H15.7129C16.044 18.6644 16.3124 18.9326 16.3125 19.2637C16.3125 19.5949 16.044 19.8631 15.7129 19.8633H12.0508C12.034 19.8647 12.0172 19.8682 12 19.8682C11.9828 19.8682 11.966 19.8647 11.9492 19.8633H8.28711C7.95574 19.8633 7.6875 19.5951 7.6875 19.2637C7.68755 18.9324 7.95577 18.6641 8.28711 18.6641H11.4004V16.0977C11.4004 16.0607 11.4037 16.0245 11.4102 15.9893L7.88379 12.4336L7.87598 12.4249L6.06348 10.5254L6.06445 10.5245L4.66797 9.07622C4.64016 9.04734 4.61525 9.01533 4.59375 8.98149L4.55762 8.92583C4.01657 8.44823 3.67383 7.7511 3.67383 6.97271C3.67415 5.53353 4.84102 4.36724 6.28027 4.36724C7.7193 4.3675 8.88543 5.53369 8.88574 6.97271C8.88574 7.18875 8.85617 7.39794 8.80664 7.59868L15.6123 7.54692C15.6375 7.49375 15.669 7.44208 15.7109 7.39653L18.3848 4.49419ZM8.13379 8.80278C7.77079 9.17066 7.29974 9.43037 6.77148 9.5313L6.92969 9.69536L6.93164 9.69732L8.73633 11.5879L11.9727 14.8516L17.8574 8.72954L8.13379 8.80278ZM6.28027 5.56646C5.50376 5.56646 4.87336 6.19627 4.87305 6.97271C4.87305 7.20321 4.92991 7.42026 5.02832 7.61235H7.00293L7.5332 7.60747C7.63008 7.41651 7.68652 7.20136 7.68652 6.97271C7.68621 6.19643 7.05656 5.56672 6.28027 5.56646Z" fill="#909090"/>
</svg>
