<svg width="24" height="24" viewBox="0 0 24 24" fill="none" xmlns="http://www.w3.org/2000/svg">
<path d="M5.62061 18.1826C5.28938 18.1826 5.02026 18.4511 5.02002 18.7822C5.02002 19.1136 5.28923 19.3828 5.62061 19.3828H18.4331C18.7643 19.3826 19.0327 19.1135 19.0327 18.7822C19.0325 18.4512 18.7641 18.1828 18.4331 18.1826H5.62061Z" fill="#333333"/>
<path d="M10.9985 5.78711C10.6673 5.78711 10.3982 6.05553 10.3979 6.38672C10.3979 6.71809 10.6672 6.9873 10.9985 6.9873H15.5503L6.97119 15.5654C6.73694 15.7997 6.73706 16.1797 6.97119 16.4141C7.20551 16.6484 7.58551 16.6484 7.81982 16.4141L16.3979 7.83594V12.3867C16.3979 12.7181 16.6672 12.9873 16.9985 12.9873C17.3299 12.9873 17.5981 12.7181 17.5981 12.3867V6.38672C17.5981 6.32205 17.5859 6.2605 17.5669 6.20215C17.5622 6.18758 17.5591 6.17244 17.5532 6.1582C17.5456 6.1398 17.5352 6.12289 17.5259 6.10547C17.4987 6.0546 17.4653 6.00579 17.4224 5.96289C17.3794 5.91995 17.3307 5.88656 17.2798 5.85938C17.2624 5.85006 17.2455 5.83962 17.2271 5.83203C17.2157 5.82736 17.2035 5.82523 17.1919 5.82129C17.1666 5.81265 17.1414 5.80308 17.1147 5.79785C17.0764 5.79033 17.0374 5.78711 16.9985 5.78711H10.9985Z" fill="#333333"/>
</svg>
