<svg width="24" height="24" viewBox="0 0 24 24" fill="none" xmlns="http://www.w3.org/2000/svg">
<path d="M9.65758 4.90431C11.0157 3.54625 13.2174 3.54619 14.5756 4.90431C15.4153 5.74424 15.7354 6.90787 15.5355 7.99513C16.6151 7.79962 17.7693 8.11963 18.6039 8.95411C19.956 10.3064 19.9559 12.4992 18.6039 13.8516L13.6468 18.8086C13.4958 18.9598 13.4958 19.2052 13.6468 19.3565L14.6244 20.334C14.8583 20.5683 14.8583 20.9474 14.6244 21.1817C14.3901 21.4159 14.0101 21.4159 13.7757 21.1817L12.7992 20.2051C12.1793 19.5852 12.1784 18.5799 12.7982 17.96L17.7552 13.0029C18.6386 12.1192 18.6387 10.6864 17.7552 9.80275C16.9366 8.98415 15.6473 8.9241 14.7591 9.62208C14.7084 9.68137 14.6564 9.74031 14.6009 9.79689L10.8588 13.6162C10.6269 13.8529 10.2468 13.8569 10.0101 13.625C9.77382 13.3933 9.77007 13.014 10.0013 12.7774L10.0052 12.7725C10.0315 12.6736 10.0811 12.5795 10.1586 12.502L13.7074 8.95411C13.772 8.88954 13.8384 8.82795 13.9066 8.76954C14.6112 7.87461 14.5505 6.57559 13.7269 5.75197C12.8374 4.86279 11.3956 4.86366 10.5062 5.75294L4.95153 11.3067C4.71723 11.541 4.33819 11.5409 4.10387 11.3067C3.86971 11.0723 3.86964 10.6933 4.10387 10.459L9.65758 4.90431Z" fill="#15C674"/>
<path d="M11.6654 6.94533C11.8996 6.71129 12.2797 6.71144 12.514 6.94533C12.7483 7.17962 12.7483 7.56062 12.514 7.79493L8.6566 11.6514C7.77333 12.535 7.77339 13.9679 8.6566 14.8516C9.54026 15.7352 10.974 15.736 11.8578 14.8526L15.7152 10.9951C15.9495 10.7609 16.3286 10.7609 16.5629 10.9951C16.7971 11.2294 16.797 11.6085 16.5629 11.8428L12.7054 15.7002C11.353 17.0523 9.16026 17.0525 7.80797 15.7002C6.45612 14.3479 6.45607 12.155 7.80797 10.8027L11.6654 6.94533Z" fill="#15C674"/>
</svg>
