<svg width="24" height="24" viewBox="0 0 24 24" fill="none" xmlns="http://www.w3.org/2000/svg">
<path d="M20.1143 9.44629C20.1141 8.34199 19.2185 7.4465 18.1143 7.44629H17.6904V8.51953C17.6904 8.52542 17.6886 8.53126 17.6885 8.53711V11.3691C17.6887 11.3755 17.6904 11.3822 17.6904 11.3887V12.3027H18.1143C19.2185 12.3025 20.114 11.407 20.1143 10.3027V9.44629ZM8.66406 17.1367V9.30176C8.6385 9.35312 8.61338 9.40487 8.58789 9.45605C8.2309 10.173 7.87923 10.878 7.46777 11.751C7.21854 12.2792 6.46391 12.2908 6.20508 11.7588L5.02344 9.3291V17.1367C5.02344 17.4681 4.7552 17.7373 4.42383 17.7373C4.09246 17.7373 3.82422 17.4681 3.82422 17.1367V6.82812C3.82422 6.49675 4.09246 6.22852 4.42383 6.22852C4.493 6.22852 4.55829 6.24311 4.62012 6.26465C4.78852 6.30501 4.93874 6.41424 5.02051 6.58203L6.83203 10.3047C7.06988 9.81602 7.29102 9.36804 7.51367 8.9209C7.87016 8.20498 8.22732 7.48835 8.64746 6.59082C8.7366 6.40039 8.91276 6.27959 9.10645 6.25195C9.15678 6.23825 9.20899 6.22852 9.26367 6.22852C9.59504 6.22852 9.86328 6.49675 9.86328 6.82812V17.1367C9.86328 17.4681 9.59504 17.7373 9.26367 17.7373C8.9323 17.7373 8.66406 17.4681 8.66406 17.1367ZM10.9854 14.6172V9.33398C10.9854 7.6219 12.3729 6.23438 14.085 6.23438H14.8154C15.1468 6.23438 15.415 6.50261 15.415 6.83398C15.415 7.16536 15.1468 7.43359 14.8154 7.43359H14.085C13.0356 7.43359 12.1846 8.28464 12.1846 9.33398V14.6172C12.1846 15.6665 13.0356 16.5176 14.085 16.5176H14.8154C15.1466 16.5176 15.4148 16.786 15.415 17.1172C15.415 17.4486 15.1468 17.7178 14.8154 17.7178H14.085C12.3729 17.7178 10.9854 16.3293 10.9854 14.6172ZM21.3135 10.3027C21.3133 12.0697 19.8813 13.5017 18.1143 13.502H17.6885V17.1406C17.6883 17.4718 17.4201 17.7402 17.0889 17.7402C16.7576 17.7402 16.4895 17.4718 16.4893 17.1406V7.03516C16.4893 7.03156 16.4902 7.02799 16.4902 7.02441V6.84668C16.4902 6.68755 16.5535 6.5344 16.666 6.42188C16.7785 6.30962 16.9309 6.2471 17.0898 6.24707H18.1143C19.8813 6.24728 21.3133 7.67925 21.3135 9.44629V10.3027Z" fill="#15C674"/>
</svg>
