<svg width="24" height="24" viewBox="0 0 24 24" fill="none" xmlns="http://www.w3.org/2000/svg">
<path d="M8.83105 4.99219C9.1622 4.99245 9.43164 5.26059 9.43164 5.5918C9.43154 5.92292 9.16214 6.19115 8.83105 6.19141H7.40039C6.20166 6.19142 5.2295 7.16357 5.22949 8.3623V14.8271C5.22974 16.0257 6.2018 16.9971 7.40039 16.9971H8.99805V19.6836C8.99836 19.9733 9.35011 20.1164 9.55273 19.9092L12.2236 17.1777L12.3994 16.9971H17.4092C17.6554 16.9969 17.8984 16.9335 18.1123 16.8115C18.4402 16.6244 18.6806 16.3137 18.7793 15.9492L18.8447 15.707C18.9315 15.3875 19.2604 15.1987 19.5801 15.2852C19.8996 15.372 20.0895 15.7018 20.0029 16.0215L19.9375 16.2627C19.7553 16.9356 19.3116 17.5082 18.7061 17.8535C18.3111 18.0787 17.8638 18.1971 17.4092 18.1973H12.9043L10.4111 20.748C9.45656 21.7244 7.79816 21.049 7.79785 19.6836V18.1973H7.40039C5.53906 18.1973 4.03052 16.6884 4.03027 14.8271V8.3623C4.03028 6.50083 5.53891 4.9922 7.40039 4.99219H8.83105Z" fill="#15C674"/>
<path d="M14.2305 6.59863C14.8564 6.59863 15.3643 7.10651 15.3643 7.73242C15.3642 8.35832 14.8564 8.86523 14.2305 8.86523C13.6046 8.86515 13.0977 8.35827 13.0977 7.73242C13.0977 7.10656 13.6046 6.59872 14.2305 6.59863Z" fill="#15C674"/>
<path fill-rule="evenodd" clip-rule="evenodd" d="M18.7363 4.40039C19.7652 4.40039 20.5994 5.23391 20.5996 6.2627V12.2383C20.5996 13.2673 19.7653 14.1016 18.7363 14.1016H12.7607C11.732 14.1012 10.8984 13.2671 10.8984 12.2383V6.2627C10.8987 5.23411 11.7322 4.4007 12.7607 4.40039H18.7363ZM17.8838 10.0947C17.5209 9.7593 16.9556 9.77945 16.6172 10.1396L14.0225 12.9014H18.7363C19.1026 12.9014 19.3994 12.6045 19.3994 12.2383V11.4961L17.8838 10.0947ZM12.7607 5.59961C12.3949 5.59992 12.0979 5.89685 12.0977 6.2627V12.2383C12.0977 12.4931 12.2432 12.7112 12.4541 12.8223C12.4635 12.8106 12.472 12.7982 12.4824 12.7871L15.7422 9.31738C16.532 8.47679 17.8525 8.43059 18.6992 9.21387L19.3994 9.86133V6.2627C19.3992 5.89666 19.1024 5.59961 18.7363 5.59961H12.7607Z" fill="#15C674"/>
</svg>
