<svg width="24" height="24" viewBox="0 0 24 24" fill="none" xmlns="http://www.w3.org/2000/svg">
<path d="M13.6343 13.3807C13.8234 13.1087 14.1972 13.0413 14.4692 13.2303L17.7407 15.5028C17.8737 15.5952 17.9652 15.7376 17.9917 15.8973C18.013 16.026 17.9896 16.1569 17.9302 16.2713C17.8987 16.346 17.8529 16.4123 17.7964 16.4676L15.1099 20.1112C14.9132 20.3776 14.5376 20.4346 14.271 20.2381C14.0046 20.0415 13.9477 19.6659 14.1441 19.3992L16.0161 16.8592L5.75831 18.5155C5.44176 18.5665 5.14166 18.3358 5.08741 17.9989C5.03342 17.6618 5.24559 17.3462 5.56202 17.2948L15.8316 15.6366L13.7847 14.2157C13.5128 14.0266 13.4455 13.6527 13.6343 13.3807Z" fill="#15C674"/>
<path d="M14.272 5.04964C14.5386 4.85303 14.9132 4.91002 15.1099 5.17659L17.7944 8.81624C17.8524 8.87247 17.8983 8.94102 17.9302 9.01741C18.0617 9.27125 17.9982 9.58816 17.7642 9.76741L14.5191 12.2489C14.256 12.4498 13.8795 12.3993 13.6782 12.1366C13.4771 11.8735 13.5267 11.4971 13.7896 11.2957L15.9233 9.6639L5.56202 7.99104C5.24555 7.93976 5.03266 7.6249 5.08643 7.28792C5.14066 6.95113 5.44091 6.71955 5.75733 6.77034L16.0161 8.42561L14.145 5.88753C13.9487 5.62088 14.0055 5.24622 14.272 5.04964Z" fill="#15C674"/>
</svg>
