<svg width="24" height="24" viewBox="0 0 24 24" fill="none" xmlns="http://www.w3.org/2000/svg">
<path d="M12.5859 6.06348H7C6.00589 6.06348 5.2002 6.86917 5.2002 7.86328V11.7646C5.20037 12.4255 5.55806 13.0047 6.09961 13.3193L6.69727 13.667V15.7754C6.69727 15.8349 6.71221 15.8658 6.72559 15.8848C6.74279 15.9091 6.77323 15.9346 6.81543 15.9521C6.85779 15.9697 6.89754 15.9728 6.92676 15.9678C6.9494 15.9638 6.98149 15.9531 7.02344 15.9111L8.87402 14.0596L8.89844 14.0322L9.25781 13.5645H13.8711C14.8647 13.5643 15.6709 12.7581 15.6709 11.7637V10.0342H17.2002C18.7464 10.0343 19.9999 11.2877 20 12.834V15.4512C19.9999 16.5274 19.3916 17.4601 18.501 17.9287V18.7568C18.5005 19.9959 17.0023 20.6163 16.126 19.7402L14.6367 18.251H13.0361C11.7056 18.251 10.5945 17.3222 10.3096 16.0781H11.5654C11.8095 16.6496 12.3754 17.0508 13.0361 17.0508H15.1338L16.9746 18.8916C17.0164 18.9333 17.0486 18.9443 17.0713 18.9482C17.1005 18.9533 17.1405 18.9509 17.1826 18.9336C17.2249 18.9161 17.2553 18.8895 17.2725 18.8652C17.2857 18.8464 17.3007 18.8159 17.3008 18.7568V17.2041L17.9424 16.8672C18.4558 16.597 18.7997 16.0627 18.7998 15.4512V12.834C18.7997 11.9505 18.0837 11.2345 17.2002 11.2344H16.8711V11.7637C16.8711 13.4204 15.5278 14.7645 13.8711 14.7646H9.84863C9.81064 14.814 9.76884 14.862 9.72266 14.9082L7.87207 16.7598C6.99559 17.6362 5.49707 17.0149 5.49707 15.7754V14.3574C4.603 13.8381 4.00018 12.873 4 11.7646V7.86328C4 6.20643 5.34315 4.86328 7 4.86328H12.5859V6.06348Z" fill="#15C674"/>
<path d="M16.6562 3.64355C16.9874 3.64382 17.2559 3.91196 17.2559 4.24316V5.66699H18.6797C19.0111 5.66699 19.2793 5.93621 19.2793 6.26758C19.2791 6.59882 19.011 6.86719 18.6797 6.86719H17.2559V8.29102C17.2559 8.62222 16.9874 8.89036 16.6562 8.89062C16.3249 8.89062 16.0557 8.62239 16.0557 8.29102V6.86719H14.6318C14.3006 6.86719 14.0324 6.59882 14.0322 6.26758C14.0322 5.93621 14.3005 5.66699 14.6318 5.66699H16.0557V4.24316C16.0557 3.91179 16.3249 3.64355 16.6562 3.64355Z" fill="#15C674"/>
</svg>
