<svg width="24" height="24" viewBox="0 0 24 24" fill="none" xmlns="http://www.w3.org/2000/svg">
<path d="M12 4.40039C16.6216 4.40039 20.5996 7.4374 20.5996 11.4404C20.5993 11.7716 20.3312 12.04 20 12.04C19.6688 12.04 19.4007 11.7716 19.4004 11.4404C19.4004 8.3301 16.215 5.59961 12 5.59961C7.78502 5.59961 4.59961 8.3301 4.59961 11.4404C4.59977 12.9405 5.32234 14.3326 6.55566 15.3906C6.84862 15.642 7.01759 16.0477 6.9248 16.4678C6.73882 17.3082 6.46862 18.1542 6.23633 18.8174C7.08389 18.4469 8.25472 17.9001 9.43945 17.2295L9.5293 17.1836C9.713 17.1007 9.91411 17.0706 10.1104 17.0918L10.208 17.1064L10.4746 17.1553C10.7432 17.1998 11.0172 17.2331 11.2959 17.2539C11.6263 17.2786 11.8741 17.5661 11.8496 17.8965C11.8249 18.2269 11.5375 18.4749 11.207 18.4502C10.7969 18.4196 10.3949 18.3652 10.0029 18.2891C8.6746 19.0391 7.37466 19.6372 6.49902 20.0137C5.56655 20.4145 4.72912 19.4719 5.03711 18.6133L5.22363 18.0781C5.40802 17.5268 5.59705 16.8921 5.73828 16.2676C4.30794 15.0249 3.40055 13.3321 3.40039 11.4404C3.40039 7.4374 7.37842 4.40039 12 4.40039Z" fill="#15C674"/>
<path d="M17.415 13.7764C17.6493 13.5421 18.0294 13.5421 18.2637 13.7764L20.5146 16.0283C20.5165 16.0301 20.5187 16.0314 20.5205 16.0332C20.5696 16.0823 20.6062 16.139 20.6348 16.1982C20.6395 16.2081 20.6452 16.2174 20.6494 16.2275C20.6549 16.2406 20.6586 16.2542 20.6631 16.2676C20.6832 16.3276 20.6963 16.3912 20.6963 16.458C20.6963 16.559 20.669 16.6529 20.625 16.7363C20.5976 16.7883 20.5642 16.8381 20.5205 16.8818L18.2637 19.1387C18.0294 19.373 17.6493 19.373 17.415 19.1387C17.1811 18.9044 17.181 18.5253 17.415 18.291L18.6484 17.0576H14.5908C14.2594 17.0576 13.9912 16.7894 13.9912 16.458C13.9912 16.1266 14.2594 15.8584 14.5908 15.8584H18.6494L17.415 14.625C17.1808 14.3907 17.1807 14.0107 17.415 13.7764Z" fill="#15C674"/>
</svg>
