<svg width="24" height="24" viewBox="0 0 24 24" fill="none" xmlns="http://www.w3.org/2000/svg">
<path d="M7.99756 19.25L7.99756 4.74023C7.99756 4.40886 8.2658 4.14062 8.59717 4.14062C8.92854 4.14062 9.19678 4.40886 9.19678 4.74023L9.19678 19.25C9.19678 19.5814 8.92854 19.8496 8.59717 19.8496C8.2658 19.8496 7.99756 19.5814 7.99756 19.25Z" fill="#15C674"/>
<path d="M12.0942 14.1816V7.14355C12.0942 6.81218 12.3625 6.54395 12.6938 6.54395C13.0252 6.54395 13.2935 6.81218 13.2935 7.14355V14.1816C13.2935 14.513 13.0252 14.7812 12.6938 14.7812C12.3625 14.7812 12.0942 14.513 12.0942 14.1816Z" fill="#15C674"/>
<path d="M3.90039 14.6094L3.90039 9.38281C3.90039 9.05144 4.16863 8.7832 4.5 8.7832C4.83137 8.7832 5.09961 9.05144 5.09961 9.38281L5.09961 14.6094C5.09954 14.9407 4.83133 15.209 4.5 15.209C4.16867 15.209 3.90046 14.9407 3.90039 14.6094Z" fill="#15C674"/>
<path d="M16.1919 10.5205V4.66016C16.1919 4.32879 16.4601 4.06055 16.7915 4.06055C17.1229 4.06055 17.3911 4.32879 17.3911 4.66016V10.5205C17.3911 10.8519 17.1229 11.1201 16.7915 11.1201C16.4601 11.1201 16.1919 10.8519 16.1919 10.5205Z" fill="#15C674"/>
<path d="M16.6001 13.3408C16.8158 12.732 17.6773 12.732 17.8931 13.3408L18.3491 14.6279C18.47 14.9689 18.7386 15.2376 19.0796 15.3584L20.3657 15.8135C20.9746 16.0292 20.9746 16.8907 20.3657 17.1064L19.0796 17.5625C18.7385 17.6834 18.47 17.9519 18.3491 18.293L17.8931 19.5791C17.6773 20.1879 16.8158 20.1879 16.6001 19.5791L16.145 18.293C16.0242 17.9519 15.7555 17.6834 15.4146 17.5625L14.1274 17.1064C13.5186 16.8907 13.5186 16.0292 14.1274 15.8135L15.4146 15.3584C15.7556 15.2375 16.0242 14.969 16.145 14.6279L16.6001 13.3408ZM17.2466 15.1025C17.0027 15.7245 16.5112 16.2161 15.8892 16.46C16.5108 16.7036 17.0025 17.195 17.2466 17.8164C17.4904 17.1953 17.9819 16.7038 18.603 16.46C17.9816 16.2159 17.4903 15.7242 17.2466 15.1025Z" fill="#15C674"/>
</svg>
