<svg width="24" height="24" viewBox="0 0 24 24" fill="none" xmlns="http://www.w3.org/2000/svg">
<path d="M6.01242 11.1055C6.34359 11.1127 6.60635 11.3866 6.59933 11.7178C6.54967 13.997 8.42173 17.0937 11.989 17.0938C15.5685 17.0935 17.5044 13.9561 17.3962 11.7363C17.3801 11.4054 17.6356 11.1246 17.9665 11.1084C18.2973 11.0924 18.5782 11.347 18.5944 11.6777C18.7238 14.3324 16.5845 17.9317 12.5944 18.2656V19.9658H14.3737C14.7051 19.9658 14.9743 20.2341 14.9743 20.5654C14.9743 20.8968 14.7051 21.165 14.3737 21.165H9.61691C9.28565 21.1649 9.0173 20.8967 9.0173 20.5654C9.0173 20.2341 9.28565 19.966 9.61691 19.9658H11.3952V18.2666C7.39483 17.941 5.34231 14.3543 5.40011 11.6924C5.40733 11.3613 5.6814 11.0986 6.01242 11.1055ZM11.9919 2.98145C12.3233 2.98147 12.5915 3.2497 12.5915 3.58105C12.5915 3.91241 12.3233 4.18064 11.9919 4.18066C10.8068 4.18079 9.84543 5.142 9.84543 6.32715V11.4795C9.84556 12.6645 10.8069 13.6249 11.9919 13.625C13.1742 13.625 14.1374 12.6569 14.1374 11.4688C14.1375 11.1375 14.4068 10.8693 14.738 10.8691C15.0693 10.8692 15.3375 11.1375 15.3376 11.4688C15.3376 13.3138 13.8428 14.8252 11.9919 14.8252C10.1441 14.8251 8.64634 13.3273 8.64621 11.4795V6.32715C8.64621 4.47926 10.144 2.98157 11.9919 2.98145Z" fill="#15C674"/>
<path d="M15.6491 3.58105C15.9225 3.08217 16.6911 3.11794 16.8933 3.68848L17.2829 4.78906C17.4038 5.12996 17.6725 5.39765 18.0134 5.51855L19.114 5.90918C19.7225 6.12501 19.7226 6.98536 19.114 7.20117L18.0134 7.59082C17.6724 7.71169 17.4038 7.98025 17.2829 8.32129L16.8933 9.42188C16.6775 10.0305 15.8171 10.0304 15.6013 9.42188L15.2107 8.32129C15.0898 7.98042 14.8221 7.71167 14.4812 7.59082L13.3806 7.20117C12.7718 6.98542 12.7719 6.12496 13.3806 5.90918L14.4812 5.51855C14.8219 5.39767 15.0898 5.12979 15.2107 4.78906L15.6013 3.68848L15.6491 3.58105ZM16.2468 5.41797C16.0099 5.91638 15.6085 6.31779 15.1101 6.55469C15.6087 6.79158 16.0099 7.19382 16.2468 7.69238C16.4837 7.19363 16.8857 6.79162 17.3845 6.55469C16.8859 6.31775 16.4837 5.91656 16.2468 5.41797Z" fill="#15C674"/>
</svg>
