<svg width="24" height="24" viewBox="0 0 24 24" fill="none" xmlns="http://www.w3.org/2000/svg">
<path d="M8.80389 11.291C9.05189 11.2968 9.24859 11.5029 9.24334 11.751C9.21799 12.914 10.1766 14.4922 11.9943 14.4922C13.7068 14.4919 14.6829 13.0836 14.7531 11.9805L14.7551 11.7646L14.7599 11.6729C14.7922 11.4663 14.9658 11.3035 15.1828 11.293C15.3996 11.2827 15.5888 11.4275 15.6408 11.6299L15.6545 11.7207L15.6574 11.8672C15.6478 13.2991 14.5113 15.1288 12.4474 15.3652V16.0264H13.2687C13.5171 16.0265 13.7189 16.2282 13.7189 16.4766C13.7189 16.725 13.5171 16.9266 13.2687 16.9268H10.7267C10.4782 16.9268 10.2765 16.7251 10.2765 16.4766C10.2766 16.2281 10.4783 16.0264 10.7267 16.0264H11.5471V15.3672C9.40582 15.1273 8.31236 13.1804 8.34393 11.7314C8.34948 11.4831 8.5555 11.2856 8.80389 11.291ZM11.9953 7C12.9893 7 13.795 7.80578 13.7951 8.7998V11.6885L13.7863 11.8721C13.6942 12.7798 12.9273 13.4883 11.9953 13.4883L11.8117 13.4785C10.9646 13.3924 10.2913 12.7192 10.2053 11.8721L10.1955 11.6885V8.7998C10.1956 7.80599 11.0015 7.00034 11.9953 7ZM11.9953 7.90039C11.4986 7.90073 11.096 8.30305 11.0959 8.7998V11.6885C11.0961 12.1852 11.4986 12.5876 11.9953 12.5879C12.4922 12.5879 12.8955 12.1854 12.8957 11.6885V8.7998C12.8956 8.30284 12.4923 7.90039 11.9953 7.90039Z" fill="#333333"/>
</svg>
