<svg width="24" height="24" viewBox="0 0 24 24" fill="none" xmlns="http://www.w3.org/2000/svg">
<path d="M6.01291 11.1055C6.34407 11.1127 6.60684 11.3867 6.59982 11.7178C6.55016 13.9971 8.42213 17.0938 11.9895 17.0938C15.569 17.0935 17.5049 13.9561 17.3967 11.7363C17.3806 11.4054 17.6361 11.1245 17.967 11.1084C18.2978 11.0924 18.5787 11.347 18.5949 11.6777C18.7243 14.3321 16.5853 17.9311 12.5959 18.2656V19.9658H14.3742C14.7056 19.9658 14.9748 20.2341 14.9748 20.5654C14.9748 20.8968 14.7056 21.165 14.3742 21.165H9.6174C9.28608 21.165 9.01779 20.8968 9.01779 20.5654C9.01779 20.2341 9.28608 19.9659 9.6174 19.9658H11.3967V18.2666C7.39557 17.9416 5.34279 14.3546 5.4006 11.6924C5.40782 11.3613 5.68183 11.0985 6.01291 11.1055ZM12.1662 2.83691C13.9459 2.92708 15.3615 4.39913 15.3615 6.20117V11.6055L15.3567 11.7783C15.2666 13.5579 13.7953 14.9734 11.9934 14.9736L11.8195 14.9688C10.0975 14.8812 8.71629 13.5005 8.62912 11.7783L8.62521 11.6055V6.20117C8.62521 4.34102 10.1332 2.83301 11.9934 2.83301L12.1662 2.83691ZM11.9934 4.0332C10.796 4.0332 9.82541 5.00377 9.82541 6.20117V11.6055C9.82553 12.8028 10.796 13.7734 11.9934 13.7734C13.1905 13.7732 14.1612 12.8026 14.1613 11.6055V6.20117C14.1613 5.00391 13.1906 4.03343 11.9934 4.0332Z" fill="black"/>
<path d="M6.01291 11.1055C6.34407 11.1127 6.60684 11.3866 6.59982 11.7178C6.55016 13.997 8.42239 17.0935 11.9895 17.0938C15.569 17.0935 17.5049 13.9561 17.3967 11.7363C17.3806 11.4055 17.6362 11.1247 17.967 11.1084C18.2978 11.0924 18.5787 11.347 18.5949 11.6777C18.7243 14.3322 16.5855 17.9314 12.5959 18.2656V19.9658H14.3752C14.7064 19.9661 14.9758 20.2342 14.9758 20.5654C14.9758 20.8966 14.7064 21.1648 14.3752 21.165H9.61838C9.287 21.165 9.01877 20.8968 9.01877 20.5654C9.01877 20.2341 9.287 19.9658 9.61838 19.9658H11.3967V18.2666C7.39584 17.9413 5.3428 14.3545 5.4006 11.6924C5.40782 11.3614 5.68201 11.0987 6.01291 11.1055Z" fill="#333333"/>
<path fill-rule="evenodd" clip-rule="evenodd" d="M12.1662 2.83691C13.946 2.92691 15.3615 4.39901 15.3615 6.20117V11.6055L15.3567 11.7783C15.2666 13.558 13.7954 14.9736 11.9934 14.9736L11.8195 14.9688C10.0975 14.8812 8.71628 13.5005 8.62912 11.7783L8.62521 11.6055V6.20117C8.62521 4.34104 10.1333 2.83304 11.9934 2.83301L12.1662 2.83691ZM11.9934 4.0332C10.796 4.03323 9.82541 5.00378 9.82541 6.20117V11.6055C9.82553 12.8027 10.7961 13.7734 11.9934 13.7734C13.1907 13.7734 14.1612 12.8027 14.1613 11.6055V6.20117C14.1613 5.00379 13.1907 4.03324 11.9934 4.0332Z" fill="#333333"/>
</svg>
