<svg width="24" height="24" viewBox="0 0 24 24" fill="none" xmlns="http://www.w3.org/2000/svg">
<path d="M7.36813 11.3906C7.67168 11.3972 7.91261 11.6486 7.90621 11.9521C7.86855 13.6796 9.28927 16.0252 11.9912 16.0254C14.7047 16.0254 16.1725 13.6463 16.0908 11.9688L16.6396 11.9424L17.1894 11.915C17.2906 13.9905 15.6363 16.7937 12.5468 17.0967V18.248H13.8379C14.1415 18.2482 14.3876 18.4942 14.3877 18.7979C14.3877 19.1015 14.1415 19.3476 13.8379 19.3477H10.1562C9.85245 19.3477 9.60641 19.1016 9.60641 18.7979C9.60643 18.4941 9.85247 18.248 10.1562 18.248H11.4472V17.0977C8.34832 16.8021 6.76144 14.0066 6.8066 11.9287C6.81328 11.6252 7.06467 11.3842 7.36813 11.3906Z" fill="#333333"/>
<path fill-rule="evenodd" clip-rule="evenodd" d="M11.9941 5.07422C13.4337 5.07422 14.6004 6.24114 14.6005 7.68066V11.8633C14.6005 13.3029 13.4337 14.4697 11.9941 14.4697C10.5546 14.4695 9.38766 13.3028 9.38766 11.8633V7.68066C9.38778 6.24126 10.5547 5.0744 11.9941 5.07422ZM11.9941 6.17383C11.1622 6.17401 10.4874 6.84877 10.4873 7.68066V11.8633C10.4873 12.6953 11.1621 13.3699 11.9941 13.3701C12.8262 13.3701 13.5009 12.6954 13.5009 11.8633V7.68066C13.5008 6.84866 12.8261 6.17383 11.9941 6.17383Z" fill="#333333"/>
<path d="M16.6132 11.3926C16.9165 11.3778 17.1744 11.6118 17.1894 11.915L16.0908 11.9688C16.0761 11.6656 16.3101 11.4075 16.6132 11.3926Z" fill="#333333"/>
</svg>
