<svg width="24" height="24" viewBox="0 0 24 24" fill="none" xmlns="http://www.w3.org/2000/svg">
<path d="M8.31326 10.9688C8.58901 10.9751 8.80844 11.2037 8.80252 11.4795C8.77311 12.829 9.88438 14.6602 11.9939 14.6602C13.9811 14.6598 15.1139 13.0261 15.1951 11.7451L15.197 11.4941L15.2019 11.3936C15.2373 11.1637 15.4304 10.9826 15.6717 10.9707C15.9128 10.9591 16.1228 11.1205 16.1804 11.3457L16.1961 11.4453L16.199 11.6143C16.1878 13.2613 14.8776 15.3681 12.4978 15.6318V16.4307H13.4637C13.7396 16.4308 13.9646 16.6546 13.9646 16.9307C13.9646 17.2065 13.7404 17.4302 13.4646 17.4307H10.532C10.2559 17.4307 10.032 17.2068 10.032 16.9307C10.032 16.6547 10.2551 16.4309 10.531 16.4307H11.4978V15.6338C9.02822 15.367 7.76625 13.1255 7.80252 11.458C7.80854 11.1819 8.03718 10.9627 8.31326 10.9688ZM12.2078 6.01074C13.2547 6.11699 14.072 7.00119 14.072 8.07617V11.4072L14.0613 11.6191C13.9552 12.6661 13.0708 13.4833 11.9959 13.4834L11.784 13.4727C10.8066 13.3736 10.0296 12.5965 9.93045 11.6191L9.91971 11.4072V8.07617C9.91971 6.92958 10.8493 6 11.9959 6L12.2078 6.01074ZM11.9959 7C11.4016 7 10.9197 7.48186 10.9197 8.07617V11.4072C10.9197 12.0015 11.4016 12.4834 11.9959 12.4834C12.5901 12.4833 13.072 12.0015 13.072 11.4072V8.07617C13.072 7.48193 12.5901 7.00011 11.9959 7Z" fill="black"/>
<path d="M8.31277 10.9688C8.58872 10.9748 8.80796 11.2035 8.80203 11.4795C8.77263 12.8289 9.884 14.6601 11.9934 14.6602C13.9808 14.66 15.1134 13.0262 15.1946 11.7451L15.1966 11.4941L15.2014 11.3936C15.2368 11.1637 15.4299 10.9827 15.6712 10.9707C15.9125 10.9589 16.1223 11.1204 16.18 11.3457L16.1956 11.4453L16.1985 11.6143C16.1873 13.2614 14.8775 15.3684 12.4973 15.6318V16.4307H13.4641C13.7401 16.4309 13.9641 16.6546 13.9641 16.9307C13.9639 17.2065 13.74 17.4305 13.4641 17.4307H10.5315C10.2555 17.4307 10.0317 17.2066 10.0315 16.9307C10.0315 16.6545 10.2554 16.4307 10.5315 16.4307H11.4973V15.6328C9.02818 15.3657 7.76578 13.1254 7.80203 11.458C7.80805 11.182 8.03676 10.9628 8.31277 10.9688Z" fill="#333333"/>
<path fill-rule="evenodd" clip-rule="evenodd" d="M12.2073 6.01074C13.2543 6.11693 14.0716 7.00116 14.0716 8.07617V11.4072L14.0608 11.6191C13.9546 12.6661 13.0703 13.4834 11.9954 13.4834L11.7835 13.4727C10.8063 13.3734 10.0291 12.5964 9.92996 11.6191L9.91922 11.4072V8.07617C9.91922 6.92972 10.849 6.0002 11.9954 6L12.2073 6.01074ZM11.9954 7C11.4013 7.0002 10.9192 7.482 10.9192 8.07617V11.4072C10.9193 12.0014 11.4013 12.4832 11.9954 12.4834C12.5896 12.4834 13.0715 12.0015 13.0716 11.4072V8.07617C13.0716 7.48189 12.5896 7.00004 11.9954 7Z" fill="#333333"/>
</svg>
