<svg width="24" height="24" viewBox="0 0 24 24" fill="none" xmlns="http://www.w3.org/2000/svg">
<path d="M18.3784 18.3955L5.56592 18.3955" stroke="#333333" stroke-width="1.2" stroke-linecap="round" stroke-linejoin="round"/>
<path d="M7.34131 9.60254L7.34131 15.6025L13.3413 15.6025" stroke="#333333" stroke-width="1.2" stroke-linecap="round" stroke-linejoin="round"/>
<path d="M7.34131 15.6029L16.9442 6" stroke="#333333" stroke-width="1.2" stroke-linecap="round" stroke-linejoin="round"/>
<path fill-rule="evenodd" clip-rule="evenodd" d="M17.3684 5.57613C17.1341 5.34181 16.7542 5.34181 16.5199 5.57613L7.94126 14.1548V9.6033C7.94126 9.27192 7.67263 9.0033 7.34126 9.0033C7.00989 9.0033 6.74126 9.27192 6.74126 9.6033V15.6033C6.74126 15.9347 7.00989 16.2033 7.34126 16.2033H13.3413C13.6726 16.2033 13.9413 15.9347 13.9413 15.6033C13.9413 15.2719 13.6726 15.0033 13.3413 15.0033H8.78979L17.3684 6.42465C17.6027 6.19034 17.6027 5.81044 17.3684 5.57613ZM5.56582 18.9962L18.3783 18.9962C18.7097 18.9962 18.9783 18.7276 18.9783 18.3962C18.9783 18.0648 18.7097 17.7962 18.3783 17.7962L5.56582 17.7962C5.23445 17.7962 4.96582 18.0648 4.96582 18.3962C4.96582 18.7276 5.23445 18.9962 5.56582 18.9962Z" fill="#333333"/>
</svg>
