<svg width="24" height="24" viewBox="0 0 24 24" fill="none" xmlns="http://www.w3.org/2000/svg">
<path d="M15.292 3.92969C16.6174 3.92969 17.6923 5.00371 17.6924 6.3291V9.80566C17.6924 10.1369 17.4239 10.406 17.0928 10.4062C16.7614 10.4062 16.4922 10.137 16.4922 9.80566V6.3291C16.4921 5.66645 15.9547 5.12891 15.292 5.12891H8.70703C8.04444 5.12901 7.50694 5.66651 7.50684 6.3291V17.6709C7.50694 18.3335 8.04444 18.871 8.70703 18.8711H16.0156C16.347 18.8711 16.6152 19.1394 16.6152 19.4707C16.6152 19.8021 16.347 20.0703 16.0156 20.0703H8.70703C7.3817 20.0702 6.30772 18.9962 6.30762 17.6709V6.3291C6.30772 5.00377 7.3817 3.92979 8.70703 3.92969H15.292Z" fill="#15C674"/>
<path d="M19.6719 11.6045C19.8902 11.3554 20.2693 11.3306 20.5186 11.5488C20.7676 11.7671 20.7932 12.1463 20.5752 12.3955L16.8213 16.6807C16.6046 16.928 16.2291 16.9552 15.9795 16.7412L13.6709 14.7578C13.4195 14.5419 13.3906 14.1635 13.6064 13.9121C13.8223 13.6609 14.2008 13.6319 14.4521 13.8477L16.3096 15.4434L19.6719 11.6045Z" fill="#15C674"/>
<path d="M13.8545 5.76855C14.1859 5.76855 14.4541 6.03679 14.4541 6.36816C14.4541 6.69951 14.1858 6.96777 13.8545 6.96777H10.1455C9.81416 6.96777 9.54593 6.69951 9.5459 6.36816C9.5459 6.03679 9.81414 5.76855 10.1455 5.76855H13.8545Z" fill="#15C674"/>
</svg>
