<svg width="24" height="24" viewBox="0 0 24 24" fill="none" xmlns="http://www.w3.org/2000/svg">
<path d="M16.7305 6.69238C16.7305 5.91935 16.104 5.29226 15.3311 5.29199H8.69043C7.91723 5.29199 7.29004 5.91918 7.29004 6.69238V17.3535C7.29004 18.1267 7.91723 18.7539 8.69043 18.7539H15.3311C16.104 18.7536 16.7305 18.1266 16.7305 17.3535V6.69238ZM17.9307 17.3535C17.9307 18.7893 16.7668 19.9529 15.3311 19.9531H8.69043C7.25449 19.9531 6.09082 18.7895 6.09082 17.3535V6.69238C6.09082 5.25644 7.25449 4.09277 8.69043 4.09277H15.3311C16.7668 4.09304 17.9307 5.25661 17.9307 6.69238V17.3535Z" fill="#15C674"/>
<path d="M15.3306 9.53516V7.11816C15.3306 6.78684 15.0623 6.51861 14.731 6.51855H12.3159C11.9846 6.51866 11.7163 6.78686 11.7163 7.11816C11.7163 7.44947 11.9846 7.71767 12.3159 7.71777H14.1304L14.1313 9.53516C14.1314 9.86652 14.3996 10.1348 14.731 10.1348C15.0623 10.1348 15.3306 9.86651 15.3306 9.53516Z" fill="#15C674"/>
<path d="M8.55518 14.4092L8.55518 16.7139C8.55519 17.0452 8.82347 17.3134 9.15479 17.3135L11.2886 17.3135C11.6199 17.3135 11.8892 17.0452 11.8892 16.7139C11.8892 16.3825 11.6199 16.1143 11.2886 16.1143L9.75537 16.1143L9.7544 14.4092C9.75438 14.0778 9.48614 13.8096 9.15479 13.8096C8.82342 13.8096 8.55516 14.0778 8.55518 14.4092Z" fill="#15C674"/>
</svg>
