<svg width="24" height="24" viewBox="0 0 24 24" fill="none" xmlns="http://www.w3.org/2000/svg">
<path fill-rule="evenodd" clip-rule="evenodd" d="M12.002 9.75182C11.131 9.75182 10.4249 9.04574 10.4249 8.17474C10.4249 7.30374 11.131 6.59766 12.002 6.59766C12.873 6.59766 13.5791 7.30374 13.5791 8.17474C13.5791 9.04574 12.873 9.75182 12.002 9.75182ZM11.3249 8.17474C11.3249 8.54868 11.6281 8.85182 12.002 8.85182C12.376 8.85182 12.6791 8.54868 12.6791 8.17474C12.6791 7.8008 12.376 7.49766 12.002 7.49766C11.6281 7.49766 11.3249 7.8008 11.3249 8.17474Z" fill="#909090"/>
<path fill-rule="evenodd" clip-rule="evenodd" d="M12.002 13.5748C11.131 13.5748 10.4249 12.8687 10.4249 11.9977C10.4249 11.1267 11.131 10.4206 12.002 10.4206C12.873 10.4206 13.5791 11.1267 13.5791 11.9977C13.5791 12.8687 12.873 13.5748 12.002 13.5748ZM11.3249 11.9977C11.3249 12.3716 11.6281 12.6748 12.002 12.6748C12.376 12.6748 12.6791 12.3716 12.6791 11.9977C12.6791 11.6237 12.376 11.3206 12.002 11.3206C11.6281 11.3206 11.3249 11.6237 11.3249 11.9977Z" fill="#909090"/>
<path fill-rule="evenodd" clip-rule="evenodd" d="M10.4249 15.8248C10.4249 16.6958 11.131 17.4018 12.002 17.4018C12.873 17.4018 13.5791 16.6958 13.5791 15.8248C13.5791 14.9538 12.873 14.2477 12.002 14.2477C11.131 14.2477 10.4249 14.9538 10.4249 15.8248ZM12.002 16.5018C11.6281 16.5018 11.3249 16.1987 11.3249 15.8248C11.3249 15.4508 11.6281 15.1477 12.002 15.1477C12.376 15.1477 12.6791 15.4508 12.6791 15.8248C12.6791 16.1987 12.376 16.5018 12.002 16.5018Z" fill="#909090"/>
</svg>
