<svg width="24" height="24" viewBox="0 0 24 24" fill="none" xmlns="http://www.w3.org/2000/svg">
<path fill-rule="evenodd" clip-rule="evenodd" d="M11.9998 9.2806C10.9586 9.2806 10.1144 8.43647 10.1144 7.39518C10.1144 6.3539 10.9586 5.50977 11.9998 5.50977C13.0411 5.50977 13.8853 6.3539 13.8853 7.39518C13.8853 8.43647 13.0411 9.2806 11.9998 9.2806ZM11.1144 7.39518C11.1144 7.88418 11.5108 8.2806 11.9998 8.2806C12.4888 8.2806 12.8853 7.88418 12.8853 7.39518C12.8853 6.90618 12.4888 6.50977 11.9998 6.50977C11.5108 6.50977 11.1144 6.90618 11.1144 7.39518Z" fill="#909090"/>
<path fill-rule="evenodd" clip-rule="evenodd" d="M11.9998 13.8847C10.9585 13.8847 10.1144 13.0406 10.1144 11.9993C10.1144 10.958 10.9586 10.1139 11.9998 10.1139C13.0411 10.1139 13.8853 10.958 13.8853 11.9993C13.8853 13.0406 13.0411 13.8847 11.9998 13.8847ZM11.1144 11.9993C11.1144 12.4883 11.5108 12.8847 11.9998 12.8847C12.4888 12.8847 12.8853 12.4883 12.8853 11.9993C12.8853 11.5103 12.4888 11.1139 11.9998 11.1139C11.5108 11.1139 11.1144 11.5103 11.1144 11.9993Z" fill="#909090"/>
<path fill-rule="evenodd" clip-rule="evenodd" d="M10.1144 16.6035C10.1144 17.6448 10.9585 18.4889 11.9998 18.4889C13.0411 18.4889 13.8853 17.6448 13.8853 16.6035C13.8853 15.5622 13.0411 14.7181 11.9998 14.7181C10.9585 14.7181 10.1144 15.5622 10.1144 16.6035ZM11.9998 17.4889C11.5108 17.4889 11.1144 17.0925 11.1144 16.6035C11.1144 16.1145 11.5108 15.7181 11.9998 15.7181C12.4888 15.7181 12.8853 16.1145 12.8853 16.6035C12.8853 17.0925 12.4888 17.4889 11.9998 17.4889Z" fill="#909090"/>
</svg>
