<svg width="24" height="24" viewBox="0 0 24 24" fill="none" xmlns="http://www.w3.org/2000/svg">
<path fill-rule="evenodd" clip-rule="evenodd" d="M12.0003 8.94382C10.8462 8.94382 9.91068 8.00828 9.91068 6.85423C9.91068 5.70019 10.8462 4.76465 12.0003 4.76465C13.1543 4.76465 14.0898 5.70019 14.0898 6.85423C14.0898 8.00828 13.1543 8.94382 12.0003 8.94382ZM11.0107 6.85423C11.0107 7.40076 11.4537 7.84381 12.0003 7.84381C12.5468 7.84382 12.9898 7.40076 12.9898 6.85423C12.9898 6.3077 12.5468 5.86465 12.0003 5.86465C11.4537 5.86465 11.0107 6.3077 11.0107 6.85423Z" fill="#909090"/>
<path fill-rule="evenodd" clip-rule="evenodd" d="M12.0003 14.0897C10.8462 14.0897 9.91068 13.1542 9.91068 12.0001C9.91068 10.8461 10.8462 9.91052 12.0003 9.91052C13.1543 9.91052 14.0898 10.8461 14.0898 12.0001C14.0898 13.1542 13.1543 14.0897 12.0003 14.0897ZM11.0107 12.0001C11.0107 12.5466 11.4537 12.9897 12.0003 12.9897C12.5468 12.9897 12.9898 12.5466 12.9898 12.0001C12.9898 11.4536 12.5468 11.0105 12.0003 11.0105C11.4537 11.0105 11.0107 11.4536 11.0107 12.0001Z" fill="#909090"/>
<path fill-rule="evenodd" clip-rule="evenodd" d="M9.91068 17.1459C9.91068 18.3 10.8462 19.2355 12.0003 19.2355C13.1543 19.2355 14.0898 18.3 14.0898 17.1459C14.0898 15.9919 13.1543 15.0563 12.0003 15.0563C10.8462 15.0563 9.91068 15.9919 9.91068 17.1459ZM12.0003 18.1355C11.4537 18.1355 11.0107 17.6925 11.0107 17.1459C11.0107 16.5994 11.4537 16.1563 12.0003 16.1563C12.5468 16.1563 12.9898 16.5994 12.9898 17.1459C12.9898 17.6925 12.5468 18.1355 12.0003 18.1355Z" fill="#909090"/>
</svg>
