<svg width="24" height="24" viewBox="0 0 24 24" fill="none" xmlns="http://www.w3.org/2000/svg">
<path fill-rule="evenodd" clip-rule="evenodd" d="M11.9998 7.9498C13.3529 7.9498 14.4498 6.8529 14.4498 5.4998C14.4498 4.14671 13.3529 3.0498 11.9998 3.0498C10.6467 3.0498 9.5498 4.14671 9.5498 5.4998C9.5498 6.8529 10.6467 7.9498 11.9998 7.9498ZM13.2498 5.4998C13.2498 6.19016 12.6902 6.7498 11.9998 6.7498C11.3094 6.7498 10.7498 6.19016 10.7498 5.4998C10.7498 4.80945 11.3094 4.2498 11.9998 4.2498C12.6902 4.2498 13.2498 4.80945 13.2498 5.4998Z" fill="#909090"/>
<path fill-rule="evenodd" clip-rule="evenodd" d="M11.9998 14.4498C13.3529 14.4498 14.4498 13.3529 14.4498 11.9998C14.4498 10.6467 13.3529 9.5498 11.9998 9.5498C10.6467 9.5498 9.5498 10.6467 9.5498 11.9998C9.5498 13.3529 10.6467 14.4498 11.9998 14.4498ZM13.2498 11.9998C13.2498 12.6902 12.6902 13.2498 11.9998 13.2498C11.3094 13.2498 10.7498 12.6902 10.7498 11.9998C10.7498 11.3094 11.3094 10.7498 11.9998 10.7498C12.6902 10.7498 13.2498 11.3094 13.2498 11.9998Z" fill="#909090"/>
<path fill-rule="evenodd" clip-rule="evenodd" d="M14.4498 18.4998C14.4498 19.8529 13.3529 20.9498 11.9998 20.9498C10.6467 20.9498 9.5498 19.8529 9.5498 18.4998C9.5498 17.1467 10.6467 16.0498 11.9998 16.0498C13.3529 16.0498 14.4498 17.1467 14.4498 18.4998ZM11.9998 19.7498C12.6902 19.7498 13.2498 19.1902 13.2498 18.4998C13.2498 17.8094 12.6902 17.2498 11.9998 17.2498C11.3094 17.2498 10.7498 17.8094 10.7498 18.4998C10.7498 19.1902 11.3094 19.7498 11.9998 19.7498Z" fill="#909090"/>
</svg>
