<svg width="24" height="24" viewBox="0 0 24 24" fill="none" xmlns="http://www.w3.org/2000/svg">
<path d="M12.5381 14.3867C12.8114 14.4427 13.0166 14.6847 13.0166 14.9746C13.0166 15.2645 12.8114 15.5065 12.5381 15.5625L12.417 15.5742H8.69922C8.36785 15.5742 8.09961 15.306 8.09961 14.9746C8.09961 14.6432 8.36785 14.375 8.69922 14.375H12.417L12.5381 14.3867Z" fill="#909090"/>
<path d="M13.8203 11.3867C14.0936 11.4427 14.2988 11.6847 14.2988 11.9746C14.2988 12.2645 14.0936 12.5065 13.8203 12.5625L13.6992 12.5742H8.69922C8.36785 12.5742 8.09961 12.306 8.09961 11.9746C8.09961 11.6432 8.36785 11.375 8.69922 11.375H13.6992L13.8203 11.3867Z" fill="#909090"/>
<path fill-rule="evenodd" clip-rule="evenodd" d="M12.9932 4.0127C13.2512 4.0379 13.5046 4.10151 13.7451 4.20215C14.0657 4.33637 14.3574 4.53353 14.6025 4.78223L16.9277 7.1377C17.173 7.38602 17.3676 7.68114 17.5 8.00586C17.6325 8.3308 17.7001 8.67967 17.6992 9.03125V17.333L17.6865 17.5967C17.6268 18.2071 17.3605 18.7812 16.9287 19.2188L16.7354 19.3965C16.3341 19.7295 15.8442 19.9353 15.3281 19.9873L15.0674 20H7.33105L7.07031 19.9873C6.55418 19.9353 6.06433 19.7295 5.66309 19.3965L5.46973 19.2188C5.03797 18.7812 4.77167 18.2071 4.71191 17.5967L4.69922 17.333V6.66699C4.69922 6.04819 4.91127 5.45107 5.29492 4.97656L5.46973 4.78125C5.90147 4.34375 6.46801 4.07338 7.07031 4.0127L7.33105 4H12.7344L12.9932 4.0127ZM7.33105 5.2002C7.00339 5.2002 6.68486 5.31546 6.42969 5.52734L6.32422 5.62402C6.05396 5.89788 5.89941 6.27292 5.89941 6.66699V17.333C5.89941 17.7271 6.05399 18.1022 6.32422 18.376L6.42969 18.4727C6.68489 18.6846 7.00344 18.7998 7.33105 18.7998H15.0674C15.4418 18.7998 15.8045 18.6493 16.0742 18.376L16.1699 18.2686C16.3806 18.008 16.499 17.6778 16.499 17.333V9.02832L16.4922 8.88184C16.4829 8.78504 16.4642 8.68958 16.4365 8.59668L16.3887 8.45898C16.3154 8.2793 16.2075 8.11736 16.0732 7.98145L13.749 5.625C13.6148 5.48888 13.4555 5.38114 13.2822 5.30859C13.109 5.23609 12.9238 5.19973 12.7373 5.2002H7.33105Z" fill="#909090"/>
<path d="M15.2002 4.00293C15.7551 4.0275 16.5499 4.24473 16.9287 4.62891L19.2812 6.82031C19.5265 7.06862 19.7211 7.36383 19.8535 7.68848C19.9859 8.01342 20.0536 8.67969 20.0527 9.03125V17.333L20.0498 17.4658C20.0175 18.1247 19.7447 18.75 19.2822 19.2188C18.8196 19.6875 18.2021 19.9643 17.5518 19.9971C17.5518 19.9971 17.4872 20.0108 17.4648 19.9668C17.4428 19.9227 17.5059 19.8641 17.5068 19.8633C17.714 19.7452 17.6902 19.7349 17.8613 19.5615C18.3548 19.0615 18.8379 18.3828 18.8379 17.6758V17.5605C18.851 17.4863 18.8584 17.4098 18.8584 17.333V9.02832L18.8496 8.81738C18.8458 8.76382 18.8385 8.70528 18.832 8.64453C18.8077 7.86478 18.4836 7.4107 18.0586 6.98047L15.0977 4.12598C15.0949 4.12376 15.0297 4.07049 15.0342 4.03906C15.0391 4.00699 15.0928 4 15.0928 4L15.2002 4.00293Z" fill="#909090"/>
</svg>
