<svg width="24" height="24" viewBox="0 0 24 24" fill="none" xmlns="http://www.w3.org/2000/svg">
<path d="M17.7461 15.1533C17.9804 14.919 18.3604 14.9191 18.5947 15.1533L20.8457 17.4053C20.8475 17.407 20.8498 17.4084 20.8516 17.4102C20.9007 17.4593 20.9373 17.5159 20.9658 17.5752C20.9706 17.585 20.9762 17.5944 20.9805 17.6045C20.988 17.6227 20.9933 17.6414 20.999 17.6602C21.016 17.7157 21.0273 17.7739 21.0273 17.835C21.0273 17.9298 21.0021 18.0179 20.9629 18.0977C20.9346 18.1553 20.8995 18.2108 20.8516 18.2588L18.5947 20.5156C18.3604 20.7499 17.9804 20.7499 17.7461 20.5156C17.5121 20.2814 17.5121 19.9022 17.7461 19.668L18.9795 18.4346H14.9219C14.5905 18.4346 14.3223 18.1663 14.3223 17.835C14.3223 17.5036 14.5905 17.2354 14.9219 17.2354H18.9805L17.7461 16.002C17.5118 15.7676 17.5118 15.3876 17.7461 15.1533Z" fill="#15C674"/>
<path d="M15.9893 3.97949C17.3629 3.97973 18.4766 5.09305 18.4766 6.4668C18.4765 6.79799 18.2081 7.06614 17.877 7.06641C17.5456 7.06641 17.2764 6.79815 17.2764 6.4668C17.2764 5.75579 16.7002 5.17895 15.9893 5.17871H8.11133C7.33813 5.17871 6.71094 5.8059 6.71094 6.5791V17.3945C6.71094 18.1674 7.33882 18.7949 8.1123 18.7949H11.5166C11.5371 18.7949 11.5571 18.7988 11.5771 18.8008H12C12.3314 18.8008 12.5996 19.069 12.5996 19.4004C12.5996 19.7318 12.3314 20 12 20H10C9.97946 20 9.95946 19.9962 9.93945 19.9941H8.1123C6.67665 19.9941 5.51172 18.8308 5.51172 17.3945V6.5791C5.51172 5.14316 6.67539 3.97949 8.11133 3.97949H15.9893Z" fill="#15C674"/>
<path d="M11.4316 13.2959C11.7628 13.2961 12.0312 13.5643 12.0312 13.8955C12.0312 14.2267 11.7628 14.4949 11.4316 14.4951H9C8.66863 14.4951 8.40039 14.2269 8.40039 13.8955C8.40039 13.5641 8.66863 13.2959 9 13.2959H11.4316Z" fill="#15C674"/>
<path d="M19.3291 8.30371C19.5293 8.04011 19.906 7.9878 20.1699 8.1875C20.4339 8.38765 20.4851 8.7643 20.2852 9.02832L16.9736 13.3965C16.6939 13.7654 16.1598 13.8205 15.8105 13.5166L14.085 12.0146C13.8352 11.7971 13.8089 11.4179 14.0264 11.168C14.2439 10.9187 14.6223 10.8924 14.8721 11.1094L16.2754 12.3301L19.3291 8.30371Z" fill="#15C674"/>
<path d="M11.4463 10.3359C11.7775 10.3361 12.0459 10.6043 12.0459 10.9355C12.0459 11.2668 11.7775 11.535 11.4463 11.5352H9C8.66863 11.5352 8.40039 11.2669 8.40039 10.9355C8.40039 10.6042 8.66863 10.3359 9 10.3359H11.4463Z" fill="#15C674"/>
<path d="M15 7.46973C15.3314 7.46973 15.5996 7.73797 15.5996 8.06934C15.5996 8.40071 15.3314 8.66895 15 8.66895H9C8.66863 8.66895 8.40039 8.40071 8.40039 8.06934C8.40039 7.73797 8.66863 7.46973 9 7.46973H15Z" fill="#15C674"/>
</svg>
