<svg width="24" height="24" viewBox="0 0 24 24" fill="none" xmlns="http://www.w3.org/2000/svg">
<path d="M9.59174 10.162L5.89643 12.7607C5.68018 12.9133 5.75335 13.2514 6.01362 13.3007L10.2265 14.0966C10.8275 14.2104 11.3735 14.5254 11.7724 14.9892L14.5673 18.2392C14.7403 18.4393 15.0697 18.3337 15.0937 18.0702L15.29 15.8603L16.3964 16.9667L16.289 18.1767C16.1746 19.4556 14.6244 19.9925 13.7412 19.1122L13.6572 19.0214L10.8622 15.7714C10.6406 15.5139 10.3367 15.3385 10.0029 15.2753L5.79096 14.4794L5.67084 14.453C4.46603 14.1288 4.15594 12.5169 5.20698 11.7782L8.73139 9.30168L9.59174 10.162Z" fill="#15C674"/>
<path fill-rule="evenodd" clip-rule="evenodd" d="M6.5683 4.31926C6.80262 4.08501 7.18167 4.08496 7.41596 4.31926L10.8847 7.78801L14.9951 4.90129C16.0394 4.16776 17.4639 4.99032 17.3505 6.26164L16.6962 13.5995L19.7314 16.6347C19.9651 16.869 19.9654 17.2482 19.7314 17.4823C19.5117 17.702 19.1662 17.7127 18.9306 17.5204L6.52924 5.11906C6.33706 4.88351 6.3487 4.53893 6.5683 4.31926ZM16.1562 6.15519C16.1789 5.90096 15.8934 5.73613 15.6845 5.88273L11.746 8.64933L15.5908 12.4941L16.1562 6.15519Z" fill="#15C674"/>
</svg>
