<svg width="24" height="24" viewBox="0 0 24 24" fill="none" xmlns="http://www.w3.org/2000/svg">
<path d="M3.09744 5.50977C3.33176 5.27546 3.71079 5.27545 3.9451 5.50977L5.25272 6.81641C5.27701 6.85611 5.30524 6.89432 5.33963 6.92871L18.5867 20.1758C18.7287 20.407 18.701 20.7129 18.5008 20.9131C18.2665 21.147 17.8863 21.1472 17.6521 20.9131L15.8387 19.0996H7.82108C7.81131 19.0996 7.80143 19.0972 7.79178 19.0967C7.75461 19.098 7.70883 19.0996 7.6658 19.0996C4.84639 19.0996 2.54892 16.8765 2.40799 14.0859L2.40115 13.8145C2.37974 11.7392 3.61226 9.87065 5.50955 8.99609C5.51474 8.92666 5.52075 8.85758 5.52908 8.78906L3.09744 6.35742C2.86326 6.12323 2.86351 5.74411 3.09744 5.50977ZM9.91483 4.90039C11.534 4.9182 13.0056 5.79337 13.7605 7.16602C14.0585 7.10159 14.3635 7.0693 14.6697 7.06934L14.8914 7.0752C17.0603 7.18564 18.8023 8.90482 18.9676 11.0625C20.5567 11.7048 21.6238 13.2241 21.6004 14.9414L21.5984 14.9404C21.6273 16.7057 20.5055 18.2094 18.9207 18.8145L17.951 17.8447C19.3867 17.5792 20.4303 16.3571 20.4002 14.9453C20.4 14.9385 20.4001 14.9316 20.4002 14.9248C20.4179 13.6259 19.5389 12.451 18.2127 12.0664C17.9562 11.9921 17.7791 11.7573 17.7791 11.4902C17.7791 11.4621 17.7805 11.4353 17.781 11.4219C17.7817 11.4052 17.782 11.4009 17.782 11.3984C17.782 9.66861 16.3852 8.2697 14.6697 8.26953C14.3173 8.26948 13.9674 8.32944 13.6375 8.44629C13.3324 8.55418 12.9966 8.40001 12.8787 8.09863C12.417 6.91878 11.2416 6.11491 9.90311 6.09961C8.89587 6.10109 7.99702 6.57004 7.40897 7.30273L6.55643 6.4502C7.36457 5.50185 8.56515 4.90039 9.90799 4.90039H9.91483ZM6.54178 9.80273C6.47903 9.87228 6.40026 9.92838 6.30838 9.96289C4.6491 10.5847 3.58203 12.122 3.60135 13.8066V13.8145C3.60159 16.0733 5.42347 17.9004 7.6658 17.9004C7.70516 17.9004 7.7383 17.8985 7.80252 17.8965C7.82246 17.8959 7.84236 17.899 7.86209 17.9004H14.6394L13.2 16.4609C13.1491 16.4949 13.094 16.5244 13.032 16.542C11.5448 16.9629 9.91389 16.4501 9.01541 15.1924C9.00818 15.1823 9.00336 15.1706 8.99686 15.1602L8.41873 15.4951C8.26444 15.5842 8.07965 15.4417 8.12576 15.2695L8.58377 13.5576L8.59842 13.5205C8.63411 13.4492 8.71023 13.4063 8.78983 13.4111L8.82889 13.417L10.5398 13.876C10.7115 13.9222 10.7423 14.1519 10.5887 14.2412L10.0408 14.5576C10.5386 15.2045 11.3656 15.5478 12.2137 15.4746L6.54178 9.80273ZM10.8621 9.58887C12.3488 9.16731 13.9792 9.68055 14.8767 10.9395C14.9139 10.9915 14.9384 11.0486 14.9568 11.1064L15.5281 10.7773C15.6824 10.6883 15.8681 10.8308 15.8221 11.0029L15.3631 12.7148L15.3484 12.752C15.3128 12.8232 15.2375 12.866 15.158 12.8613L15.118 12.8555L13.407 12.3965C13.2353 12.3503 13.2046 12.1206 13.3582 12.0312L13.9461 11.6904C13.9303 11.673 13.9132 11.6563 13.8992 11.6367C13.3164 10.8192 12.2233 10.4505 11.1902 10.7432C11.1001 10.7687 11.0157 10.7983 10.9353 10.8291L10.0349 9.92871C10.2825 9.78869 10.5576 9.67525 10.8621 9.58887Z" fill="#15C674"/>
</svg>
