<svg width="24" height="24" viewBox="0 0 24 24" fill="none" xmlns="http://www.w3.org/2000/svg">
<path fill-rule="evenodd" clip-rule="evenodd" d="M4.97103 3.60151L19.4178 18.0478C19.6521 18.2821 19.6521 18.662 19.4178 18.8963C19.1835 19.1306 18.8036 19.1307 18.5693 18.8963L16.6107 16.9378H6.24224C5.08244 16.9378 4.14224 15.9976 4.14224 14.8378V7.16206C4.14224 6.4307 4.5161 5.78667 5.08314 5.41064L4.12252 4.45005C3.8882 4.21574 3.8882 3.83584 4.12251 3.60152C4.35682 3.36721 4.73672 3.3672 4.97103 3.60151ZM5.97495 6.30241L15.4107 15.7378H6.24224C5.74518 15.7378 5.34224 15.3349 5.34224 14.8378V7.16206C5.34224 6.75808 5.60841 6.41626 5.97495 6.30241Z" fill="#909090"/>
<path d="M19.8579 14.8378C19.8579 15.2933 19.7129 15.7149 19.4665 16.0589L18.5897 15.1821C18.6336 15.076 18.6579 14.9598 18.6579 14.8378V12.8409C18.6578 12.8374 18.6578 12.8339 18.6578 12.8304V7.26206C18.6578 6.70977 18.2101 6.26206 17.6578 6.26206H9.66967L8.46967 5.06206H17.6578C18.8728 5.06206 19.8578 6.04703 19.8578 7.26206V12.4278C19.8578 12.4313 19.8579 12.4348 19.8579 12.4383V14.8378Z" fill="#909090"/>
<path d="M8.00005 18.3999C7.66868 18.3999 7.40005 18.6686 7.40005 18.9999C7.40005 19.3313 7.66868 19.5999 8.00005 19.5999H16.0001C16.3314 19.5999 16.6001 19.3313 16.6001 18.9999C16.6001 18.6686 16.3314 18.3999 16.0001 18.3999H8.00005Z" fill="#909090"/>
</svg>
