<svg width="24" height="24" viewBox="0 0 24 24" fill="none" xmlns="http://www.w3.org/2000/svg">
<path fill-rule="evenodd" clip-rule="evenodd" d="M13.6318 14.9863C13.2781 14.1365 14.055 13.2844 14.9004 13.4922L15.0703 13.5479L20.585 15.8457C21.5178 16.2344 21.4763 17.5696 20.5215 17.9004L18.6367 18.5527L17.9844 20.4375C17.6538 21.3926 16.3184 21.4339 15.9297 20.501L13.6318 14.9863ZM16.9355 19.7969L17.5186 18.1143L17.5664 17.998C17.6927 17.7353 17.9196 17.5311 18.1982 17.4346L19.8809 16.8516L14.832 14.748L16.9355 19.7969Z" fill="#909090"/>
<path d="M15.4316 3.71875C15.8735 3.71875 16.2314 4.07673 16.2314 4.51855V5.01367H17.3105C18.8014 5.01388 20.0096 6.22203 20.0098 7.71289V12.9502C20.0098 13.2816 19.7415 13.5498 19.4102 13.5498C19.0788 13.5498 18.8105 13.2816 18.8105 12.9502V7.71289C18.8103 6.88477 18.1387 6.2131 17.3105 6.21289H16.2314V6.94824C16.2314 7.39007 15.8735 7.74805 15.4316 7.74805C14.9898 7.74805 14.6318 7.39007 14.6318 6.94824V6.21289H9.35156V6.94824C9.35156 7.39007 8.99359 7.74805 8.55176 7.74805C8.10993 7.74805 7.75195 7.39007 7.75195 6.94824V6.21289H6.69336C5.86524 6.2131 5.19357 6.88477 5.19336 7.71289V16.2979C5.19357 17.126 5.86524 17.7976 6.69336 17.7979H12.6826L12.8037 17.8096C13.0772 17.8655 13.2832 18.1075 13.2832 18.3975C13.2832 18.6875 13.0772 18.9295 12.8037 18.9854L12.6826 18.9971H6.69336C5.2025 18.9969 3.99435 17.7887 3.99414 16.2979V7.71289C3.99435 6.22203 5.2025 5.01388 6.69336 5.01367H7.75195V4.51855C7.75195 4.07673 8.10993 3.71875 8.55176 3.71875C8.99359 3.71875 9.35156 4.07673 9.35156 4.51855V5.01367H14.6318V4.51855C14.6318 4.07673 14.9898 3.71875 15.4316 3.71875Z" fill="#909090"/>
<path fill-rule="evenodd" clip-rule="evenodd" d="M8.86328 13.1484C9.2668 13.1892 9.58193 13.5301 9.58203 13.9443V14.791L9.57812 14.8721C9.53999 15.2488 9.24007 15.5489 8.86328 15.5869L8.78223 15.5908H7.97363L7.8916 15.5869C7.5152 15.5485 7.21585 15.2485 7.17773 14.8721L7.17383 14.791V13.9443C7.17393 13.5304 7.48847 13.1896 7.8916 13.1484L7.97363 13.1445H8.78223L8.86328 13.1484ZM8.37402 14.3906H8.38184V14.3447H8.37402V14.3906Z" fill="#909090"/>
<path fill-rule="evenodd" clip-rule="evenodd" d="M8.86328 9.32422C9.2668 9.36499 9.58193 9.70589 9.58203 10.1201V10.9668L9.57812 11.0479C9.53999 11.4246 9.24007 11.7246 8.86328 11.7627L8.78223 11.7666H7.97363L7.8916 11.7627C7.5152 11.7243 7.21585 11.4243 7.17773 11.0479L7.17383 10.9668V10.1201C7.17393 9.70616 7.48847 9.36536 7.8916 9.32422L7.97363 9.32031H8.78223L8.86328 9.32422ZM8.37402 10.5664H8.38184V10.5205H8.37402V10.5664Z" fill="#909090"/>
<path fill-rule="evenodd" clip-rule="evenodd" d="M12.5439 9.32422C12.9475 9.36499 13.2626 9.70589 13.2627 10.1201V10.9668L13.2588 11.0479C13.2207 11.4246 12.9207 11.7246 12.5439 11.7627L12.4629 11.7666H11.6543L11.5723 11.7627C11.1959 11.7243 10.8965 11.4243 10.8584 11.0479L10.8545 10.9668V10.1201C10.8546 9.70616 11.1691 9.36536 11.5723 9.32422L11.6543 9.32031H12.4629L12.5439 9.32422ZM12.0547 10.5664H12.0625V10.5205H12.0547V10.5664Z" fill="#909090"/>
<path fill-rule="evenodd" clip-rule="evenodd" d="M16.0605 9.32422C16.4641 9.36499 16.7792 9.70589 16.7793 10.1201V10.9668L16.7754 11.0479C16.7373 11.4246 16.4373 11.7246 16.0605 11.7627L15.9795 11.7666H15.1709L15.0889 11.7627C14.7125 11.7243 14.4131 11.4243 14.375 11.0479L14.3711 10.9668V10.1201C14.3712 9.70616 14.6857 9.36536 15.0889 9.32422L15.1709 9.32031H15.9795L16.0605 9.32422ZM15.5713 10.5664H15.5791V10.5205H15.5713V10.5664Z" fill="#909090"/>
</svg>
