<svg width="24" height="24" viewBox="0 0 24 24" fill="none" xmlns="http://www.w3.org/2000/svg">
<path d="M10.5938 3.15932C10.9226 3.12121 11.2203 3.35678 11.2588 3.68568C11.297 4.01453 11.0612 4.31208 10.7324 4.35072C7.05689 4.78085 4.20126 7.90995 4.20117 11.7003C4.2012 15.7849 7.51695 19.1007 11.6016 19.1007C12.7249 19.1006 13.7863 18.8514 14.7334 18.4064L15.1318 18.2033C15.3594 18.0784 15.6094 18.0608 15.7998 18.0675C16.0017 18.0747 16.2159 18.113 16.4209 18.1613C16.8299 18.2576 17.2952 18.4182 17.7148 18.5646C18.1177 18.7052 18.4773 18.8293 18.7686 18.9074C18.69 18.6024 18.5698 18.2232 18.4385 17.8058C18.3017 17.3711 18.155 16.8972 18.0664 16.4884C18.0222 16.2843 17.9876 16.0753 17.9795 15.8829C17.9722 15.7096 17.9814 15.4587 18.1035 15.2335L18.1045 15.2316L18.2598 14.9318C18.6062 14.2226 18.8411 13.4473 18.9434 12.6329C18.9848 12.3044 19.2856 12.0712 19.6143 12.1124C19.9427 12.1541 20.176 12.4548 20.1348 12.7833C20.001 13.8484 19.6697 14.8552 19.1807 15.7619C19.1797 15.774 19.1772 15.7965 19.1787 15.8322C19.1827 15.9271 19.2017 16.0611 19.2393 16.2345C19.3143 16.581 19.4438 17.0031 19.583 17.4454C19.7175 17.8728 19.8641 18.3271 19.9531 18.6915C19.9973 18.8722 20.0346 19.0618 20.0449 19.2316C20.0501 19.3163 20.0507 19.4208 20.0303 19.5285C20.0107 19.631 19.9617 19.7941 19.8232 19.9328C19.5903 20.1657 19.2841 20.1836 19.124 20.1808C18.9373 20.1775 18.7369 20.1397 18.5527 20.0939C18.1822 20.0018 17.7333 19.8419 17.3193 19.6974C16.8875 19.5467 16.4825 19.4086 16.1455 19.3292C15.9779 19.2898 15.8493 19.27 15.7578 19.2667C15.7178 19.2653 15.6935 19.2673 15.6826 19.2687C14.4714 19.9262 13.0806 20.3008 11.6016 20.3009C6.85421 20.3009 3.00101 16.4477 3.00098 11.7003C3.00107 7.29371 6.32064 3.65917 10.5938 3.15932Z" fill="#15C674"/>
<path d="M13.1768 12.2755C13.4111 12.0417 13.7913 12.0424 14.0254 12.2765L15.5254 13.7775C15.6378 13.89 15.7002 14.0432 15.7002 14.2023C15.7001 14.3614 15.637 14.5137 15.5244 14.6261L14.0244 16.1251C13.79 16.359 13.4099 16.3585 13.1758 16.1242C12.9421 15.8897 12.9426 15.5096 13.1768 15.2755L13.6523 14.7999H8.60059C8.26922 14.7999 8.00098 14.5317 8.00098 14.2003C8.00105 13.869 8.26926 13.6007 8.60059 13.6007H13.6514L13.1758 13.1242C12.9421 12.8897 12.9426 12.5096 13.1768 12.2755Z" fill="#15C674"/>
<path d="M9.17676 7.27553C9.4112 7.04166 9.7913 7.04222 10.0254 7.2765C10.2593 7.51095 10.2587 7.89103 10.0244 8.12514L9.54785 8.60072H11.1455C11.4768 8.60072 11.746 8.86903 11.7461 9.20033C11.7461 9.5317 11.4769 9.79994 11.1455 9.79994H9.5498L10.0254 10.2765C10.2593 10.5109 10.2587 10.891 10.0244 11.1251C9.78996 11.3591 9.40989 11.3585 9.17578 11.1242L7.67578 9.62318C7.56335 9.51061 7.5009 9.35748 7.50098 9.19838C7.50112 9.03933 7.56423 8.88696 7.67676 8.77455L9.17676 7.27553Z" fill="#15C674"/>
<path d="M18.8965 4.00209C19.1308 3.76802 19.5099 3.76799 19.7441 4.00209C19.9784 4.23634 19.9783 4.61542 19.7441 4.84975L17.668 6.92592L19.7441 9.00209C19.9784 9.23634 19.9783 9.61542 19.7441 9.84975C19.5098 10.0841 19.1308 10.0841 18.8965 9.84975L16.8203 7.77357L14.7441 9.84975C14.5098 10.0841 14.1308 10.0841 13.8965 9.84975C13.6623 9.61542 13.6622 9.23636 13.8965 9.00209L15.9727 6.92592L13.8965 4.84975C13.6623 4.61542 13.6622 4.23636 13.8965 4.00209C14.1308 3.76802 14.5099 3.76799 14.7441 4.00209L16.8203 6.07826L18.8965 4.00209Z" fill="#15C674"/>
</svg>
