<svg width="24" height="24" viewBox="0 0 24 24" fill="none" xmlns="http://www.w3.org/2000/svg">
<path d="M18.2705 8.5459C18.2705 7.97612 18.2699 7.58461 18.2451 7.28125C18.2209 6.98489 18.1769 6.82519 18.1182 6.70996C17.984 6.44656 17.7692 6.23286 17.5059 6.09863C17.3907 6.03995 17.2317 5.99493 16.9355 5.9707C16.6321 5.94591 16.2399 5.94531 15.6699 5.94531H14.0039C13.4341 5.94531 13.0426 5.94592 12.7393 5.9707C12.4431 5.99491 12.2841 6.03996 12.1689 6.09863C11.9055 6.23285 11.6909 6.44656 11.5566 6.70996C11.4979 6.82519 11.4539 6.98485 11.4297 7.28125C11.4049 7.58462 11.4043 7.97611 11.4043 8.5459V15.4551C11.4043 16.0249 11.4049 16.4163 11.4297 16.7197C11.4539 17.0161 11.4979 17.1758 11.5566 17.291C11.6909 17.5544 11.9056 17.7681 12.1689 17.9023C12.2841 17.961 12.4431 18.0061 12.7393 18.0303C13.0426 18.0551 13.4341 18.0547 14.0039 18.0547H15.6699C16.2399 18.0547 16.6321 18.0551 16.9355 18.0303C17.2317 18.006 17.3907 17.961 17.5059 17.9023C17.7693 17.7681 17.9839 17.5544 18.1182 17.291C18.1769 17.1758 18.2209 17.0161 18.2451 16.7197C18.2699 16.4163 18.2705 16.0249 18.2705 15.4551V8.5459ZM6.80566 16.3701V7.80859C6.80576 6.90125 7.5409 6.16611 8.44824 6.16602C8.77961 6.16602 9.04883 6.43425 9.04883 6.76563C9.04883 7.097 8.77961 7.36523 8.44824 7.36523C8.20364 7.36533 8.00498 7.56399 8.00488 7.80859V16.3701C8.00493 16.6148 8.20361 16.8134 8.44824 16.8135C8.77958 16.8135 9.04878 17.0818 9.04883 17.4131C9.04883 17.7445 8.77961 18.0127 8.44824 18.0127C7.54087 18.0126 6.80571 17.2775 6.80566 16.3701ZM3.40625 14.5957V9.58301C3.40635 8.67566 4.14148 7.94053 5.04883 7.94043C5.3802 7.94043 5.64941 8.20867 5.64941 8.54004C5.64941 8.87141 5.3802 9.13965 5.04883 9.13965C4.80423 9.13974 4.60556 9.33841 4.60547 9.58301V14.5957C4.60571 14.8402 4.80431 15.038 5.04883 15.0381C5.3802 15.0381 5.64941 15.3073 5.64941 15.6387C5.64927 15.9699 5.38011 16.2383 5.04883 16.2383C4.14157 16.2382 3.40649 15.5029 3.40625 14.5957ZM19.4707 15.4551C19.4707 16.0051 19.4711 16.4538 19.4414 16.8174C19.4111 17.188 19.3458 17.5233 19.1865 17.8359C18.9373 18.3249 18.5398 18.7225 18.0508 18.9717C17.7383 19.1309 17.4036 19.1953 17.0332 19.2256C16.6696 19.2553 16.2201 19.2549 15.6699 19.2549H14.0039C13.4539 19.2549 13.0051 19.2553 12.6416 19.2256C12.2711 19.1953 11.9365 19.1309 11.624 18.9717C11.1349 18.7224 10.7366 18.3251 10.4873 17.8359C10.328 17.5233 10.2637 17.188 10.2334 16.8174C10.2037 16.4538 10.2041 16.0051 10.2041 15.4551V8.5459C10.2041 7.99592 10.2037 7.54714 10.2334 7.18359C10.2637 6.81299 10.328 6.47763 10.4873 6.16504C10.7366 5.67587 11.1348 5.27855 11.624 5.0293C11.9365 4.87008 12.2711 4.80567 12.6416 4.77539C13.0051 4.74569 13.4539 4.74609 14.0039 4.74609H15.6699C16.2201 4.74609 16.6696 4.74568 17.0332 4.77539C17.4036 4.80569 17.7383 4.87009 18.0508 5.0293C18.5398 5.2785 18.9373 5.67605 19.1865 6.16504C19.3458 6.47763 19.4111 6.81299 19.4414 7.18359C19.4711 7.54713 19.4707 7.99593 19.4707 8.5459V15.4551Z" fill="#15C674"/>
</svg>
