<svg width="24" height="24" viewBox="0 0 24 24" fill="none" xmlns="http://www.w3.org/2000/svg">
<path d="M4.49512 16.5967C4.49522 18.1982 5.79395 19.4961 7.39551 19.4961L16.6025 19.4971C18.2038 19.497 19.5016 18.1989 19.502 16.5977L19.502 13.2734C19.5019 12.9421 19.2337 12.6738 18.9023 12.6738C18.6535 12.6738 18.4394 12.8243 18.3486 13.04C18.3164 13.1137 18.2988 13.1957 18.2988 13.2813L18.2988 16.5957C18.2985 17.5342 17.5372 18.2958 16.5986 18.2959L7.40234 18.2959C6.46378 18.2958 5.70252 17.5342 5.70215 16.5957L5.70215 7.39942C5.70223 6.6375 6.20365 5.99142 6.89453 5.77539C7.05288 5.72666 7.22117 5.7002 7.39551 5.7002L10.29 5.70117C10.3336 5.70117 10.376 5.69538 10.417 5.68652C10.6904 5.63082 10.8963 5.38947 10.8965 5.09961C10.8965 4.76838 10.628 4.50023 10.2969 4.5L7.40234 4.5C7.20235 4.50001 7.00694 4.51906 6.81836 4.55762C5.49343 4.8251 4.49557 5.99582 4.49512 7.39942L4.49512 16.5967Z" fill="#333333"/>
<path d="M12.0332 11.0996C11.7995 11.3339 11.7993 11.7131 12.0332 11.9473C12.2675 12.1813 12.6476 12.1813 12.8818 11.9473L18.2705 6.55762C18.288 6.63535 18.2988 6.71584 18.2988 6.79883L18.2988 9.30176C18.2988 9.63313 18.5671 9.90137 18.8984 9.90137C19.2298 9.90137 19.498 9.63313 19.498 9.30176L19.498 6.79883C19.4978 5.52876 18.4684 4.49902 17.1982 4.49902L14.4443 4.49902C14.113 4.49902 13.8437 4.76824 13.8437 5.09961C13.8439 5.43081 14.1131 5.69922 14.4443 5.69922L17.1982 5.69922C17.2714 5.69922 17.3429 5.7061 17.4121 5.71973L12.0332 11.0996Z" fill="#333333"/>
</svg>
