<svg width="24" height="24" viewBox="0 0 24 24" fill="none" xmlns="http://www.w3.org/2000/svg">
<path d="M19.7241 15.0488C19.9508 14.8075 20.3301 14.795 20.5718 15.0215C20.8134 15.248 20.8254 15.6274 20.5991 15.8691L16.8491 19.8691C16.6267 20.1064 16.2562 20.1233 16.0132 19.9072L13.7632 17.9072C13.5156 17.6871 13.4932 17.3082 13.7134 17.0605C13.9336 16.8132 14.3125 16.7908 14.5601 17.0107L16.3735 18.6221L19.7241 15.0488Z" fill="#15C674"/>
<path fill-rule="evenodd" clip-rule="evenodd" d="M15.9058 4.54395C16.3492 4.54395 16.7731 4.72761 17.0757 5.05176L18.6899 6.78125C18.9664 7.0775 19.1196 7.46784 19.1196 7.87305V12.0869C19.1196 12.4183 18.8514 12.6875 18.52 12.6875C18.1887 12.6875 17.9204 12.4183 17.9204 12.0869V8.1875H6.04346V17.1387C6.04346 17.3353 6.12593 17.5307 6.28271 17.6797C6.44058 17.8296 6.66109 17.9189 6.89697 17.9189H10.6401C10.9715 17.9189 11.2407 18.1882 11.2407 18.5195C11.2405 18.8507 10.9714 19.1191 10.6401 19.1191H6.89697C6.36223 19.1191 5.84362 18.9174 5.45654 18.5498C5.06841 18.1811 4.84424 17.6741 4.84424 17.1387V7.87305C4.84425 7.46784 4.99747 7.0775 5.27393 6.78125L6.88818 5.05176C7.19078 4.72759 7.61465 4.54395 8.05811 4.54395H15.9058ZM8.05811 5.74316C7.94722 5.74316 7.84079 5.79003 7.76514 5.87109L6.72314 6.98828H17.2417L16.1987 5.87109C16.1231 5.79003 16.0166 5.74316 15.9058 5.74316H8.05811Z" fill="#15C674"/>
<path d="M14.1606 10.1943C14.4919 10.1943 14.761 10.4627 14.7612 10.7939C14.7612 11.5373 14.4706 12.2526 13.9507 12.7812C13.4303 13.3102 12.7221 13.6093 11.9819 13.6094C11.2417 13.6094 10.5336 13.3101 10.0132 12.7812C9.49317 12.2526 9.20264 11.5374 9.20264 10.7939C9.20283 10.4627 9.471 10.1943 9.80225 10.1943C10.1335 10.1943 10.4017 10.4627 10.4019 10.7939C10.4019 11.2254 10.5715 11.6373 10.8687 11.9395C11.1656 12.2412 11.5663 12.4092 11.9819 12.4092C12.3975 12.4091 12.7983 12.2412 13.0952 11.9395C13.3923 11.6373 13.561 11.2253 13.561 10.7939C13.5612 10.4629 13.8296 10.1945 14.1606 10.1943Z" fill="#15C674"/>
</svg>
