<svg width="24" height="24" viewBox="0 0 24 24" fill="none" xmlns="http://www.w3.org/2000/svg">
<path d="M18.0352 14.8242C18.2695 14.5899 18.6495 14.5899 18.8838 14.8242C19.1177 15.0585 19.1178 15.4377 18.8838 15.6719L17.2393 17.3164L18.8828 18.96C19.1171 19.1943 19.1171 19.5743 18.8828 19.8086C18.6486 20.0425 18.2694 20.0425 18.0352 19.8086L16.3906 18.1641L14.7471 19.8086C14.5128 20.0425 14.1337 20.0425 13.8994 19.8086C13.6651 19.5743 13.6651 19.1943 13.8994 18.96L15.543 17.3164L13.8984 15.6719C13.6644 15.4377 13.6645 15.0585 13.8984 14.8242C14.1328 14.5899 14.5128 14.5899 14.7471 14.8242L16.3906 16.4678L18.0352 14.8242Z" fill="#15C674"/>
<path fill-rule="evenodd" clip-rule="evenodd" d="M15.9062 4.54395C16.3495 4.54408 16.7737 4.72773 17.0762 5.05176L18.6904 6.78125C18.9667 7.07747 19.1201 7.46795 19.1201 7.87305V12.0869C19.1201 12.4181 18.8517 12.6872 18.5205 12.6875C18.1892 12.6875 17.9209 12.4183 17.9209 12.0869V8.1875H6.04395V17.1387C6.04395 17.3353 6.12642 17.5307 6.2832 17.6797C6.44105 17.8295 6.6617 17.9189 6.89746 17.9189H10.6406C10.9718 17.9192 11.2412 18.1883 11.2412 18.5195C11.241 18.8506 10.9716 19.1189 10.6406 19.1191H6.89746C6.36284 19.1191 5.84408 18.9173 5.45703 18.5498C5.0689 18.1811 4.84375 17.6741 4.84375 17.1387V7.87305C4.84376 7.46784 4.99796 7.0775 5.27441 6.78125L6.88867 5.05176C7.19125 4.72774 7.61524 4.54395 8.05859 4.54395H15.9062ZM8.05859 5.74316C7.94782 5.74316 7.84126 5.79017 7.76562 5.87109L6.72363 6.98828H17.2422L16.1992 5.87109C16.1237 5.79014 16.017 5.7433 15.9062 5.74316H8.05859Z" fill="#15C674"/>
<path d="M14.1611 10.1943C14.4922 10.1946 14.7615 10.4629 14.7617 10.7939C14.7617 11.5372 14.471 12.2526 13.9512 12.7812C13.4309 13.3101 12.7225 13.6092 11.9824 13.6094C11.2422 13.6094 10.5341 13.3101 10.0137 12.7812C9.49355 12.2526 9.20312 11.5375 9.20312 10.7939C9.20332 10.4627 9.47149 10.1943 9.80273 10.1943C10.1338 10.1946 10.4021 10.4629 10.4023 10.7939C10.4023 11.2254 10.5718 11.6373 10.8691 11.9395C11.1661 12.2412 11.5668 12.4092 11.9824 12.4092C12.3978 12.409 12.7989 12.2411 13.0957 11.9395C13.3926 11.6373 13.5615 11.2252 13.5615 10.7939C13.5617 10.4629 13.83 10.1945 14.1611 10.1943Z" fill="#15C674"/>
</svg>
