<svg width="24" height="24" viewBox="0 0 24 24" fill="none" xmlns="http://www.w3.org/2000/svg">
<path d="M17.9204 8.18652H6.04346V17.1387C6.04346 17.3353 6.12593 17.5307 6.28271 17.6797C6.44058 17.8296 6.66109 17.9189 6.89697 17.9189H17.0669C17.3028 17.9189 17.5233 17.8296 17.6812 17.6797C17.838 17.5307 17.9204 17.3353 17.9204 17.1387V8.18652ZM9.20264 10.7939C9.20264 10.4626 9.47088 10.1943 9.80225 10.1943C10.1336 10.1943 10.4019 10.4626 10.4019 10.7939C10.4019 11.2254 10.5714 11.6373 10.8687 11.9395C11.1656 12.2412 11.5663 12.4092 11.9819 12.4092C12.3975 12.4091 12.7983 12.2412 13.0952 11.9395C13.3924 11.6373 13.561 11.2254 13.561 10.7939C13.561 10.4627 13.8294 10.1945 14.1606 10.1943C14.492 10.1943 14.7612 10.4626 14.7612 10.7939C14.7612 11.5374 14.4708 12.2526 13.9507 12.7812C13.4303 13.3102 12.7221 13.6093 11.9819 13.6094C11.2417 13.6094 10.5336 13.3101 10.0132 12.7812C9.49306 12.2526 9.20264 11.5375 9.20264 10.7939ZM8.05811 5.74316C7.94722 5.74316 7.84079 5.79003 7.76514 5.87109L6.72412 6.9873H17.2407L16.1987 5.87109C16.1231 5.79003 16.0166 5.74316 15.9058 5.74316H8.05811ZM19.1196 17.1387C19.1196 17.6741 18.8955 18.1811 18.5073 18.5498C18.1203 18.9174 17.6016 19.1191 17.0669 19.1191H6.89697C6.36223 19.1191 5.84362 18.9174 5.45654 18.5498C5.06841 18.1811 4.84424 17.6741 4.84424 17.1387V7.87305C4.84425 7.46784 4.99747 7.0775 5.27393 6.78125L6.88818 5.05176C7.19078 4.72759 7.61465 4.54395 8.05811 4.54395H15.9058C16.3492 4.54395 16.7731 4.72761 17.0757 5.05176L18.6899 6.78125C18.9664 7.0775 19.1196 7.46784 19.1196 7.87305V17.1387Z" fill="black"/>
</svg>
