<svg width="24" height="24" viewBox="0 0 24 24" fill="none" xmlns="http://www.w3.org/2000/svg">
<path d="M5.38672 8.29492C5.71809 8.29492 5.98633 8.56316 5.98633 8.89453V18.6377C5.98608 18.9689 5.71794 19.2373 5.38672 19.2373C5.0555 19.2373 4.78735 18.9689 4.78711 18.6377V8.89453C4.78711 8.56316 5.05535 8.29492 5.38672 8.29492Z" fill="#15C674"/>
<path d="M9.18652 3.99609C9.51789 3.99609 9.78613 4.26433 9.78613 4.5957V13.2334C9.59071 13.8651 9.48535 14.5365 9.48535 15.2324C9.48535 15.928 9.59089 16.599 9.78613 17.2305V18.6377C9.78588 18.9689 9.51774 19.2373 9.18652 19.2373C8.85531 19.2373 8.58716 18.9689 8.58691 18.6377V4.5957C8.58691 4.26433 8.85515 3.99609 9.18652 3.99609Z" fill="#15C674"/>
<path d="M12.9863 6.89062C13.3177 6.89062 13.5859 7.15886 13.5859 7.49023V9.01855C13.162 9.19996 12.7608 9.42418 12.3867 9.68457V7.49023C12.3867 7.15886 12.655 6.89062 12.9863 6.89062Z" fill="#15C674"/>
<path d="M16.7861 5.9541C17.1175 5.9541 17.3857 6.22234 17.3857 6.55371V8.5752C17.0136 8.51167 16.6314 8.47656 16.2412 8.47656C16.223 8.47656 16.2047 8.47739 16.1865 8.47754V6.55371C16.1865 6.22234 16.4548 5.9541 16.7861 5.9541Z" fill="#15C674"/>
<path fill-rule="evenodd" clip-rule="evenodd" d="M14.9951 12.8701C15.188 12.7657 15.4232 12.7743 15.6074 12.8936L18.373 14.6855C18.5434 14.796 18.6462 14.9855 18.6465 15.1885C18.6465 15.3917 18.5435 15.5817 18.373 15.6924L15.6074 17.4834C15.423 17.6028 15.1882 17.6116 14.9951 17.5068C14.802 17.4018 14.6816 17.1993 14.6816 16.9795V13.3975C14.6818 13.1778 14.8021 12.9751 14.9951 12.8701ZM15.8809 15.877L16.9424 15.1885L15.8809 14.5V15.877Z" fill="#15C674"/>
<path fill-rule="evenodd" clip-rule="evenodd" d="M16.2412 10.0283C19.1152 10.0285 21.4453 12.3583 21.4453 15.2324C21.4451 18.1063 19.1151 20.4363 16.2412 20.4365C13.3671 20.4365 11.0373 18.1065 11.0371 15.2324C11.0371 12.3582 13.367 10.0283 16.2412 10.0283ZM16.2412 11.2275C14.0298 11.2275 12.2363 13.021 12.2363 15.2324C12.2365 17.4437 14.0299 19.2363 16.2412 19.2363C18.4524 19.2362 20.2449 17.4436 20.2451 15.2324C20.2451 13.0211 18.4525 11.2277 16.2412 11.2275Z" fill="#15C674"/>
</svg>
