<svg width="24" height="24" viewBox="0 0 24 24" fill="none" xmlns="http://www.w3.org/2000/svg">
<path d="M13.9072 10.6289C14.2386 10.6289 14.5068 10.8971 14.5068 11.2285V18.6377C14.5068 18.9691 14.2386 19.2383 13.9072 19.2383C13.5759 19.2383 13.3076 18.9691 13.3076 18.6377V11.2285C13.3076 10.8971 13.5759 10.6289 13.9072 10.6289Z" fill="#15C674"/>
<path d="M6.2793 8.23438C6.61067 8.23438 6.87891 8.50261 6.87891 8.83398V18.6377C6.87891 18.9691 6.61067 19.2373 6.2793 19.2373C5.94793 19.2373 5.67969 18.9691 5.67969 18.6377V8.83398C5.67969 8.50261 5.94793 8.23438 6.2793 8.23438Z" fill="#15C674"/>
<path d="M10.0938 5.34668C10.4249 5.34694 10.6934 5.61508 10.6934 5.94629V18.6377C10.6932 18.9687 10.4248 19.237 10.0938 19.2373C9.76251 19.2373 9.49435 18.9689 9.49414 18.6377V5.94629C9.49414 5.61492 9.76238 5.34668 10.0938 5.34668Z" fill="#15C674"/>
<path d="M17.7217 7.51172C18.0528 7.51198 18.3213 7.78012 18.3213 8.11133V18.6377C18.321 18.9687 18.0527 19.237 17.7217 19.2373C17.3905 19.2373 17.1223 18.9688 17.1221 18.6377V8.11133C17.1221 7.77996 17.3903 7.51172 17.7217 7.51172Z" fill="#15C674"/>
</svg>
