<svg width="24" height="24" viewBox="0 0 24 24" fill="none" xmlns="http://www.w3.org/2000/svg">
<path fill-rule="evenodd" clip-rule="evenodd" d="M14.6133 6.40039C14.9446 6.40048 15.2129 6.66869 15.2129 7V8.00391H15.4932C16.3246 8.00391 17.1065 8.40104 17.5957 9.07324L19.7979 12.0996L19.8379 12.1689C20.1064 12.455 20.2724 12.8386 20.2725 13.2617V16.29C20.2724 17.1735 19.5554 17.8896 18.6719 17.8896H18.5977C18.394 19.0291 17.4 19.8944 16.2021 19.8945C15.0041 19.8945 14.0102 19.0291 13.8066 17.8896H10.9834C10.7798 19.0291 9.78578 19.8944 8.58789 19.8945C7.38988 19.8945 6.39596 19.0291 6.19238 17.8896H5.78809C4.90457 17.8896 4.18858 17.1735 4.18848 16.29V14.8242C4.18851 14.4929 4.45674 14.2246 4.78809 14.2246C5.11943 14.2246 5.38766 14.4929 5.3877 14.8242V16.29C5.38779 16.5108 5.56732 16.6895 5.78809 16.6895H6.27832C6.60058 15.7217 7.51184 15.0234 8.58789 15.0234C9.66383 15.0236 10.5752 15.7218 10.8975 16.6895H13.8926C14.2148 15.7217 15.1261 15.0234 16.2021 15.0234C17.2795 15.0236 18.1915 15.7237 18.5127 16.6934C18.5257 16.6925 18.5386 16.6895 18.5518 16.6895H18.6719C18.8926 16.6895 19.0722 16.5108 19.0723 16.29V13.2617C19.072 13.0411 18.8926 12.8623 18.6719 12.8623H14.6133C14.2819 12.8623 14.0127 12.5931 14.0127 12.2617V7C14.0127 6.66863 14.2819 6.40039 14.6133 6.40039ZM8.58789 16.2227C7.90545 16.2227 7.35156 16.7765 7.35156 17.459C7.35171 18.1413 7.90554 18.6943 8.58789 18.6943C9.27012 18.6942 9.8231 18.1412 9.82324 17.459C9.82324 16.7766 9.27021 16.2228 8.58789 16.2227ZM16.2021 16.2227C15.5197 16.2227 14.9658 16.7765 14.9658 17.459C14.966 18.1413 15.5198 18.6943 16.2021 18.6943C16.8844 18.6942 17.4374 18.1412 17.4375 17.459C17.4375 16.7766 16.8845 16.2228 16.2021 16.2227ZM15.2129 11.6621H17.9951L16.625 9.7793C16.3616 9.41756 15.9407 9.20312 15.4932 9.20312H15.2129V11.6621Z" fill="#909090"/>
<path d="M7.70312 6.63281C7.93326 6.63294 8.12476 6.78759 8.18555 6.99805C8.57052 7.1075 8.90283 7.35164 9.11035 7.74219L9.16602 7.85547L9.19727 7.95117C9.24642 8.17857 9.13043 8.41735 8.90918 8.51465C8.688 8.61171 8.43409 8.53555 8.2998 8.3457L8.25 8.25781L8.21094 8.18262C8.111 8.0182 7.94658 7.92975 7.69727 7.92969C7.47303 7.92974 7.33194 7.99121 7.2627 8.04688C7.2045 8.09391 7.18695 8.14042 7.19141 8.19922L7.19727 8.23535C7.2066 8.26943 7.229 8.3005 7.28125 8.33691C7.36871 8.39771 7.53157 8.4619 7.79492 8.49512C8.14341 8.53904 8.49572 8.63848 8.77148 8.84473C9.07038 9.06853 9.25098 9.39902 9.25098 9.80566C9.2509 10.1875 9.09927 10.5388 8.78906 10.7812C8.61058 10.9207 8.39783 11.0081 8.16699 11.0566C8.09058 11.2383 7.91174 11.3662 7.70215 11.3662C7.49451 11.3661 7.31673 11.2406 7.23926 11.0615C7.00451 11.0142 6.80181 10.9283 6.63184 10.8076C6.42725 10.6623 6.29297 10.4832 6.20801 10.3076L6.13867 10.1348L6.11719 10.0361C6.09082 9.80501 6.23024 9.5798 6.45996 9.50488C6.68956 9.4303 6.93398 9.53041 7.04883 9.73242L7.08984 9.8252L7.13379 9.91504C7.15326 9.94308 7.1785 9.96912 7.21094 9.99219C7.27702 10.0391 7.41666 10.1045 7.69727 10.1045C7.97099 10.1045 8.11175 10.0408 8.17285 9.99316C8.21808 9.95782 8.25092 9.90953 8.25098 9.80566C8.25098 9.72645 8.22869 9.68804 8.17188 9.64551C8.09162 9.58554 7.93406 9.5206 7.66992 9.4873C7.32102 9.44331 6.98055 9.34638 6.70996 9.1582C6.45802 8.98275 6.27443 8.73145 6.21289 8.41602L6.19434 8.27637C6.16282 7.8672 6.33761 7.50941 6.63477 7.26953C6.80359 7.13331 7.00496 7.0403 7.22266 6.98633C7.28706 6.78174 7.47716 6.63293 7.70312 6.63281Z" fill="#909090"/>
<path fill-rule="evenodd" clip-rule="evenodd" d="M10.7812 4.94727C11.81 4.94742 12.6443 5.78089 12.6445 6.80957V11.1895C12.6445 12.2183 11.8101 13.0526 10.7812 13.0527H4.64551C3.61673 13.0525 2.78321 12.2183 2.7832 11.1895V6.80957C2.78345 5.78094 3.61688 4.94752 4.64551 4.94727H10.7812ZM4.64551 6.14648C4.27962 6.14673 3.98267 6.44368 3.98242 6.80957V8.40039H4.29492L4.41602 8.41211C4.68935 8.46811 4.89453 8.7101 4.89453 9C4.89453 9.2899 4.68935 9.53189 4.41602 9.58789L4.29492 9.59961H3.98242V11.1895C3.98243 11.5555 4.27947 11.8523 4.64551 11.8525H10.7812C11.1474 11.8524 11.4443 11.5556 11.4443 11.1895V9.59961H11.1875C10.8561 9.59961 10.5879 9.33137 10.5879 9C10.5879 8.66863 10.8561 8.40039 11.1875 8.40039H11.4443V6.80957C11.4441 6.44363 11.1472 6.14664 10.7812 6.14648H4.64551Z" fill="#909090"/>
</svg>
