<svg width="24" height="24" viewBox="0 0 24 24" fill="none" xmlns="http://www.w3.org/2000/svg">
<path d="M4.67383 14.2646C5.00476 14.2651 5.27332 14.5333 5.27344 14.8643V16.3252C5.27355 17.6506 6.34842 18.7256 7.67383 18.7256H9.13477C9.46567 18.7261 9.73438 18.9942 9.73438 19.3252C9.73426 19.6561 9.4656 19.9243 9.13477 19.9248H7.67383C5.68567 19.9248 4.07336 18.3133 4.07324 16.3252V14.8643C4.07336 14.533 4.34253 14.2646 4.67383 14.2646Z" fill="#15C674"/>
<path d="M19.3291 14.2646C19.66 14.2651 19.9286 14.5333 19.9287 14.8643V16.3252C19.9286 18.3131 18.3169 19.9244 16.3291 19.9248H14.8682C14.537 19.9247 14.2687 19.6564 14.2686 19.3252C14.2686 18.9939 14.5369 18.7257 14.8682 18.7256H16.3291C17.6541 18.7252 18.7294 17.6503 18.7295 16.3252V14.8643C18.7296 14.533 18.9978 14.2646 19.3291 14.2646Z" fill="#15C674"/>
<path fill-rule="evenodd" clip-rule="evenodd" d="M12.001 12.5547C12.9373 12.5547 13.9871 12.6979 14.8574 13.1709C15.7598 13.6615 16.4442 14.4964 16.6006 15.7725C16.684 16.4537 16.1183 16.945 15.5342 16.9453H8.46777C7.88356 16.9451 7.318 16.4538 7.40137 15.7725L7.43652 15.5381C7.64385 14.3934 8.29872 13.6308 9.14453 13.1709C10.0148 12.6981 11.0648 12.5547 12.001 12.5547ZM12.001 13.7539C11.161 13.7539 10.3392 13.888 9.71777 14.2256C9.16913 14.5239 8.7583 14.9879 8.61914 15.7451H15.3828C15.2437 14.9878 14.8329 14.5239 14.2842 14.2256C13.6627 13.8879 12.841 13.754 12.001 13.7539Z" fill="#15C674"/>
<path fill-rule="evenodd" clip-rule="evenodd" d="M11.9902 6.59961C15.2586 6.59977 14.9988 12.0643 11.9902 12.0645C9.56307 12.064 8.93431 8.56949 10.5098 7.1543L10.6699 7.02441C10.9645 6.80595 11.5306 6.59975 11.9902 6.59961ZM11.9902 7.7998C11.9233 7.79989 11.7981 7.81818 11.6484 7.86816C11.5788 7.89144 11.5153 7.91756 11.4648 7.94238C11.4405 7.95437 11.4207 7.96505 11.4062 7.97363C11.3917 7.98232 11.3848 7.98828 11.3848 7.98828C10.9867 8.28387 10.7265 8.9975 10.8975 9.78223C11.0593 10.5247 11.4827 10.8641 11.9902 10.8643C12.3333 10.8642 12.5775 10.7259 12.7705 10.4766C12.9852 10.1991 13.1332 9.77463 13.1445 9.30371C13.1557 8.83181 13.0268 8.43094 12.8359 8.17871C12.6732 7.96412 12.4294 7.79984 11.9902 7.7998Z" fill="#15C674"/>
<path d="M9.13965 4.07324C9.47065 4.07367 9.74023 4.34175 9.74023 4.67285C9.74013 5.00387 9.47059 5.27203 9.13965 5.27246H7.67383C6.34834 5.27246 5.27344 6.34737 5.27344 7.67285V9.13867C5.27334 9.46969 5.00477 9.73883 4.67383 9.73926C4.34252 9.73926 4.07334 9.46996 4.07324 9.13867V7.67285C4.07324 5.68463 5.6856 4.07324 7.67383 4.07324H9.13965Z" fill="#15C674"/>
<path d="M16.3291 4.07324C18.317 4.07367 19.9287 5.68489 19.9287 7.67285V9.13184C19.9284 9.46269 19.6599 9.73101 19.3291 9.73145C18.9979 9.73145 18.7298 9.46296 18.7295 9.13184V7.67285C18.7295 6.34763 17.6542 5.27289 16.3291 5.27246H14.8701C14.539 5.27227 14.2706 5.00402 14.2705 4.67285C14.2705 4.3416 14.5389 4.07343 14.8701 4.07324H16.3291Z" fill="#15C674"/>
</svg>
