<svg width="24" height="24" viewBox="0 0 24 24" fill="none" xmlns="http://www.w3.org/2000/svg">
<path d="M12 13.5303C13.5346 13.5303 15.2245 13.7774 16.584 14.5713C17.9804 15.3867 18.985 16.7566 19.1289 18.8594C19.1298 18.8727 19.1299 18.8861 19.1299 18.8994C19.1299 19.5068 18.6376 19.9998 18.0303 20H5.95996C5.35245 20 4.86035 19.5069 4.86035 18.8994C4.86036 18.8861 4.86043 18.8727 4.86133 18.8594C5.00525 16.7559 6.01263 15.3864 7.41113 14.5713C8.77297 13.7777 10.4654 13.5303 12 13.5303ZM13.043 16.2637L14.5654 18.6846C14.5887 18.7215 14.6068 18.7604 14.6211 18.7998H17.918C17.7694 17.1872 17.0098 16.2106 15.9785 15.6084C15.4582 15.3046 14.86 15.0913 14.2217 14.9512L13.043 16.2637ZM10.7793 18.7998H13.2197L11.999 16.8594L10.7793 18.7998ZM9.77734 14.9512C9.13767 15.0913 8.53747 15.3043 8.01562 15.6084C6.98173 16.211 6.22086 17.188 6.07227 18.7998H9.37891C9.39323 18.7604 9.41137 18.7215 9.43457 18.6846L10.9561 16.2646L9.77734 14.9512ZM12 14.7295C11.7383 14.7295 11.4762 14.7401 11.2158 14.7568L11.999 15.6299L12.7822 14.7568C12.5225 14.7401 12.2612 14.7295 12 14.7295ZM11.9902 4C13.1989 4.00004 14.0957 4.47326 14.707 5.1875L14.8252 5.33398L14.8271 5.33594C15.4355 6.13512 15.7224 7.20638 15.7002 8.27246C15.6779 9.33925 15.3454 10.4127 14.71 11.2129L14.709 11.2119C14.0844 12.0138 13.1672 12.54 11.9902 12.54C10.0232 12.54 8.80395 11.0907 8.42383 9.36914V9.36816C8.05615 7.69194 8.50232 5.76377 9.83203 4.71875C9.85687 4.6935 9.88437 4.67037 9.91406 4.64941C10.1399 4.49002 10.4646 4.32657 10.8506 4.20117V4.2002C11.2291 4.07404 11.6338 4 11.9902 4ZM11.9902 5.19922C11.7867 5.19922 11.5109 5.24508 11.2295 5.33887L11.2246 5.34082C10.9657 5.42462 10.7687 5.52524 10.6484 5.60254C10.641 5.60863 10.6348 5.6163 10.627 5.62207C9.7198 6.29258 9.2911 7.7205 9.5957 9.11035L9.65918 9.35938C10.0055 10.5741 10.8345 11.3398 11.9902 11.3398C12.7705 11.3398 13.3503 11.0067 13.7656 10.4717L13.7705 10.4668C14.215 9.90709 14.4822 9.10017 14.5 8.24707C14.5178 7.39432 14.2846 6.60618 13.874 6.06543C13.4857 5.56073 12.9006 5.19926 11.9902 5.19922Z" fill="#15C674"/>
</svg>
