<svg width="24" height="24" viewBox="0 0 24 24" fill="none" xmlns="http://www.w3.org/2000/svg">
<path d="M17.1875 6.25293H17.2162C18.3222 6.25293 19.2188 7.1495 19.2188 8.25547V16.0094C19.2188 17.1154 18.3222 18.0119 17.2162 18.0119H6.78965C5.68368 18.0119 4.78711 17.1154 4.78711 16.0094V8.15332C4.78711 7.10376 5.63794 6.25293 6.6875 6.25293" stroke="#15C674" stroke-width="1.2" stroke-linecap="round"/>
<path d="M12.894 10.417H16.6561" stroke="#15C674" stroke-width="1.2" stroke-linecap="round" stroke-linejoin="round"/>
<path d="M12.8945 13.04H15.3902" stroke="#15C674" stroke-width="1.2" stroke-linecap="round" stroke-linejoin="round"/>
<path d="M9.02157 13.0166C7.5722 13.0166 7.23163 10.8789 8.25781 10.1235C8.42821 9.99805 8.75574 9.87988 9.02158 9.87988C10.9119 9.87988 10.7616 13.0166 9.02157 13.0166Z" stroke="#15C674" stroke-width="1.2" stroke-linecap="round" stroke-linejoin="round"/>
<path d="M11.9241 17.7655C12.2006 17.7655 12.4291 17.5394 12.3955 17.2649C12.1576 15.3212 10.5128 14.8164 9.0244 14.8164C7.8181 14.8164 6.50905 15.148 5.92954 16.3085" stroke="#15C674" stroke-width="1.2" stroke-linecap="round" stroke-linejoin="round"/>
<rect x="9.02295" y="4.875" width="5.97703" height="2.71097" rx="1.35549" stroke="#15C674" stroke-width="1.2"/>
<path fill-rule="evenodd" clip-rule="evenodd" d="M17.2158 5.65234C18.6532 5.65234 19.8184 6.81754 19.8184 8.25488V16.0088C19.8182 17.446 18.653 18.6113 17.2158 18.6113H6.79004C5.35282 18.6113 4.1877 17.446 4.1875 16.0088V8.15234C4.1875 6.77142 5.30657 5.65234 6.6875 5.65234C7.01887 5.65234 7.28711 5.92058 7.28711 6.25195C7.28711 6.58332 7.01887 6.85156 6.6875 6.85156C5.96931 6.85156 5.38672 7.43416 5.38672 8.15234V16.0088C5.38672 16.0219 5.38734 16.0349 5.3877 16.0479C5.38903 16.0451 5.39122 16.0428 5.39258 16.04L5.46484 15.9053C6.23409 14.5383 7.80088 14.2168 9.02441 14.2168C9.82287 14.2168 10.7275 14.3498 11.4834 14.7949C12.2699 15.2581 12.8494 16.034 12.9912 17.1924C13.0004 17.2678 13 17.3408 12.9941 17.4111H17.2158C17.9903 17.4111 18.6189 16.7832 18.6191 16.0088V8.25488C18.6191 7.48028 17.9904 6.85156 17.2158 6.85156H17.1875C16.8561 6.85156 16.5879 6.58332 16.5879 6.25195C16.5879 5.92058 16.8561 5.65234 17.1875 5.65234H17.2158ZM9.02441 15.416C7.94685 15.416 7.01022 15.6981 6.55176 16.4248L6.4668 16.5762C6.40839 16.6931 6.41998 16.7975 6.52539 16.916C6.64761 17.0532 6.87377 17.165 7.12598 17.165H11.7705C11.6452 16.486 11.3058 16.0834 10.874 15.8291C10.3761 15.536 9.71413 15.416 9.02441 15.416Z" fill="#909090"/>
<path d="M15.5107 12.4512C15.7844 12.507 15.9902 12.749 15.9902 13.0391C15.9902 13.3292 15.7844 13.5712 15.5107 13.627L15.3906 13.6387H12.8945C12.5632 13.6387 12.2949 13.3704 12.2949 13.0391C12.2949 12.7077 12.5632 12.4395 12.8945 12.4395H15.3906L15.5107 12.4512Z" fill="#909090"/>
<path fill-rule="evenodd" clip-rule="evenodd" d="M9.02148 9.2793C9.68081 9.27941 10.2021 9.5624 10.54 10.0049C10.864 10.4291 10.9944 10.9634 10.9824 11.4619C10.9704 11.9609 10.8149 12.4831 10.4941 12.8945C10.1626 13.3197 9.65876 13.6151 9.02148 13.6152C7.92771 13.615 7.30252 12.7894 7.125 11.9814C6.95251 11.1955 7.14337 10.1981 7.90137 9.63965L8.02051 9.56152C8.14423 9.48809 8.28234 9.4278 8.41504 9.38379C8.59391 9.32454 8.80799 9.27935 9.02148 9.2793ZM9.02148 10.4785C8.96943 10.4786 8.88551 10.4924 8.79199 10.5234C8.74467 10.5392 8.70489 10.5557 8.6748 10.5703L8.61328 10.6055C8.3458 10.8026 8.19346 11.2523 8.29688 11.7236C8.39552 12.173 8.66652 12.4158 9.02148 12.416C9.25361 12.4159 9.42106 12.3188 9.54785 12.1562C9.68544 11.9796 9.7754 11.7176 9.78223 11.4326C9.78901 11.1471 9.71104 10.8972 9.58594 10.7334C9.47493 10.5882 9.30661 10.4786 9.02148 10.4785Z" fill="#909090"/>
<path d="M16.7773 9.82812C17.0508 9.884 17.2568 10.126 17.2568 10.416C17.2568 10.706 17.0508 10.948 16.7773 11.0039L16.6562 11.0156H12.8945C12.5632 11.0156 12.2949 10.7474 12.2949 10.416C12.2949 10.0846 12.5632 9.81641 12.8945 9.81641H16.6562L16.7773 9.82812Z" fill="#909090"/>
<path fill-rule="evenodd" clip-rule="evenodd" d="M13.6445 4.27539C14.7245 4.27539 15.6006 5.15049 15.6006 6.23047C15.6006 7.31045 14.7245 8.18555 13.6445 8.18555H10.3789C9.29893 8.18554 8.42383 7.31045 8.42383 6.23047C8.42384 5.1505 9.29893 4.2754 10.3789 4.27539H13.6445ZM10.3789 5.47461C9.96168 5.47462 9.62306 5.81324 9.62305 6.23047C9.62305 6.64771 9.96167 6.98632 10.3789 6.98633H13.6445C14.0618 6.98633 14.4004 6.64771 14.4004 6.23047C14.4004 5.81323 14.0618 5.47461 13.6445 5.47461H10.3789Z" fill="#909090"/>
</svg>
