<svg width="24" height="24" viewBox="0 0 24 24" fill="none" xmlns="http://www.w3.org/2000/svg">
<path d="M19.4785 14.8252C19.4785 12.9474 17.9559 11.4248 16.0781 11.4248C14.2004 11.4248 12.6777 12.9474 12.6777 14.8252C12.6777 16.703 14.2004 18.2256 16.0781 18.2256C17.9559 18.2256 19.4785 16.703 19.4785 14.8252ZM15.3789 13.0244C15.3789 12.693 15.6471 12.4248 15.9785 12.4248C16.3099 12.4248 16.5781 12.693 16.5781 13.0244V14.4248H17.9785C18.3099 14.4248 18.5781 14.693 18.5781 15.0244C18.5781 15.3558 18.3099 15.624 17.9785 15.624H15.9785C15.8194 15.624 15.6672 15.5608 15.5547 15.4482C15.4422 15.3357 15.3789 15.1835 15.3789 15.0244V13.0244ZM14.832 6.94922V6.21387H9.15137V6.94922C9.15137 7.28059 8.88313 7.54883 8.55176 7.54883C8.22039 7.54883 7.95215 7.28059 7.95215 6.94922V6.21387H6.69336C5.86524 6.21408 5.19357 6.88575 5.19336 7.71387V9.75684C5.2352 9.7476 5.27863 9.74219 5.32324 9.74219H10.8389C11.1701 9.74227 11.4384 10.0105 11.4385 10.3418C11.4385 10.6731 11.1702 10.9413 10.8389 10.9414L5.32324 10.9424C5.27854 10.9424 5.23527 10.936 5.19336 10.9268V16.2988C5.19357 17.1269 5.86524 17.7986 6.69336 17.7988H10.3037C10.6351 17.7988 10.9043 18.0671 10.9043 18.3984C10.9043 18.7298 10.6351 18.998 10.3037 18.998H6.69336C5.2025 18.9978 3.99435 17.7897 3.99414 16.2988V7.71387C3.99435 6.22301 5.2025 5.01486 6.69336 5.01465H7.95215V4.51953C7.95215 4.18816 8.22039 3.91992 8.55176 3.91992C8.88313 3.91992 9.15137 4.18816 9.15137 4.51953V5.01465H14.832V4.51953C14.832 4.18816 15.1003 3.91992 15.4316 3.91992C15.763 3.91992 16.0312 4.18816 16.0312 4.51953V5.01465H17.3105C18.8014 5.01486 20.0096 6.22301 20.0098 7.71387V9.11621C20.0098 9.44758 19.7415 9.7168 19.4102 9.7168C19.0788 9.7168 18.8105 9.44758 18.8105 9.11621V7.71387C18.8103 6.88575 18.1387 6.21408 17.3105 6.21387H16.0312V6.94922C16.0312 7.28059 15.763 7.54883 15.4316 7.54883C15.1003 7.54883 14.832 7.28059 14.832 6.94922ZM20.6777 14.8252C20.6777 17.3657 18.6186 19.4248 16.0781 19.4248C13.5376 19.4248 11.4785 17.3657 11.4785 14.8252C11.4785 12.2847 13.5376 10.2256 16.0781 10.2256C18.6186 10.2256 20.6777 12.2847 20.6777 14.8252Z" fill="#15C674"/>
</svg>
