<svg width="24" height="24" viewBox="0 0 24 24" fill="none" xmlns="http://www.w3.org/2000/svg">
<path d="M11.4004 11.4893L11.4004 4.69727C11.4004 4.36589 11.6686 4.09766 12 4.09766C12.3314 4.09766 12.5996 4.36589 12.5996 4.69727V11.4893C12.5994 11.8205 12.3312 12.0889 12 12.0889C11.6687 12.0889 11.4006 11.8205 11.4004 11.4893Z" fill="black"/>
<path d="M16.0273 5.87891C16.2061 5.65043 16.5177 5.58629 16.7676 5.71094L16.8701 5.77539L17.1074 5.96973C18.2762 6.95953 19.1342 8.2693 19.5732 9.74121C20.0415 11.3111 20.0108 12.9877 19.4844 14.5391C18.9579 16.0905 17.9618 17.4396 16.6347 18.4004C15.3076 19.3612 13.7145 19.8866 12.0762 19.9023C10.438 19.918 8.83542 19.4234 7.49022 18.4883C6.14498 17.5531 5.12347 16.2227 4.56737 14.6816C4.01143 13.1408 3.94773 11.4652 4.38572 9.88672C4.82385 8.30808 5.74195 6.90418 7.01268 5.87012C7.26971 5.66097 7.64826 5.7 7.8574 5.95703C8.06628 6.21401 8.02732 6.59169 7.77049 6.80078C6.69269 7.67779 5.91361 8.86813 5.54197 10.207C5.17039 11.5459 5.2247 12.9674 5.69627 14.2744C6.1679 15.5814 7.03396 16.7098 8.17479 17.5029C9.3158 18.2961 10.6759 18.7155 12.0654 18.7021C13.4548 18.6887 14.8062 18.2435 15.9316 17.4287C17.057 16.6139 17.9012 15.4691 18.3476 14.1533C18.7941 12.8375 18.821 11.4155 18.4238 10.084C18.0514 8.83547 17.3235 7.72429 16.332 6.88477L16.1308 6.7207L16.043 6.63672C15.8621 6.42432 15.849 6.10728 16.0273 5.87891Z" fill="black"/>
</svg>
