<svg width="24" height="24" viewBox="0 0 24 24" fill="none" xmlns="http://www.w3.org/2000/svg">
<path d="M14.6885 7.83203C14.8224 7.66091 15.0559 7.61289 15.2432 7.70605L15.3203 7.75488L15.4824 7.88672C16.2796 8.56171 16.8646 9.45518 17.1641 10.459C17.4834 11.5296 17.4616 12.6734 17.1025 13.7314C16.7435 14.7893 16.0651 15.7101 15.1602 16.3652C14.2553 17.0203 13.1688 17.3779 12.0518 17.3887C10.9346 17.3994 9.84119 17.0624 8.92383 16.4248C8.00651 15.7871 7.30993 14.8799 6.93066 13.8291C6.55145 12.7782 6.50793 11.6351 6.80664 10.5586C7.10542 9.48203 7.73205 8.52451 8.59863 7.81934L8.88184 8.16895L9.16602 8.51758C8.4443 9.10493 7.92272 9.90222 7.67383 10.7988C7.42497 11.6956 7.46144 12.648 7.77734 13.5234C8.09327 14.3988 8.67336 15.1544 9.4375 15.6855C10.2017 16.2167 11.1124 16.4972 12.043 16.4883C12.9734 16.4793 13.8781 16.1814 14.6318 15.6357C15.3857 15.09 15.9519 14.3236 16.251 13.4424C16.55 12.5612 16.5676 11.6085 16.3018 10.7168C16.0357 9.82493 15.4987 9.03733 14.7656 8.46387C14.57 8.31074 14.5355 8.02774 14.6885 7.83203ZM12 6.61035C12.2484 6.61047 12.4502 6.81209 12.4502 7.06055V11.6543C12.4501 11.9027 12.2484 12.1044 12 12.1045C11.7515 12.1045 11.5499 11.9027 11.5498 11.6543V7.06055C11.5498 6.81202 11.7515 6.61035 12 6.61035ZM8.59863 7.81934C8.7914 7.66277 9.07467 7.6921 9.23145 7.88477C9.38816 8.07753 9.35873 8.36076 9.16602 8.51758L8.59863 7.81934Z" fill="black"/>
</svg>
