<svg width="24" height="24" viewBox="0 0 24 24" fill="none" xmlns="http://www.w3.org/2000/svg">
<path d="M15.0461 7.29492C15.2163 7.07748 15.5298 7.03898 15.7473 7.20898C16.7404 7.98597 17.4679 9.05242 17.8284 10.2607C18.1887 11.4691 18.1652 12.76 17.76 13.9541C17.3548 15.1481 16.588 16.1873 15.5667 16.9268C14.5452 17.6661 13.3187 18.0699 12.0579 18.082C10.797 18.0941 9.56295 17.7138 8.52759 16.9941C7.49242 16.2745 6.70663 15.2503 6.27857 14.0645C5.85057 12.8784 5.80181 11.5881 6.13892 10.373C6.47613 9.15802 7.18239 8.07716 8.1604 7.28125C8.37459 7.10697 8.69021 7.13935 8.86451 7.35352C9.0386 7.5677 9.00636 7.88338 8.79224 8.05762L8.64087 8.18457C7.90173 8.83542 7.36692 9.6889 7.10279 10.6406C6.82116 11.6558 6.86143 12.7336 7.219 13.7246C7.5767 14.7157 8.23374 15.5715 9.09888 16.1729C9.96395 16.7741 10.9946 17.092 12.0481 17.082C13.1017 17.0719 14.1272 16.734 14.9807 16.1162C15.8339 15.4984 16.4742 14.6303 16.8127 13.6328C17.1513 12.6351 17.1714 11.5565 16.8704 10.5469C16.5692 9.53716 15.961 8.64537 15.1311 7.99609C14.9141 7.82595 14.8764 7.51226 15.0461 7.29492Z" fill="black"/>
<path d="M12.0002 5.91699C12.2763 5.91713 12.5002 6.14093 12.5002 6.41699V11.6094C12.5001 11.8853 12.2762 12.1092 12.0002 12.1094C11.7242 12.1094 11.5004 11.8854 11.5002 11.6094V6.41699C11.5002 6.14085 11.7241 5.91699 12.0002 5.91699Z" fill="black"/>
</svg>
