<svg width="24" height="24" viewBox="0 0 24 24" fill="none" xmlns="http://www.w3.org/2000/svg">
<path d="M15.5058 6.62598C15.6696 6.41679 15.9546 6.3586 16.1835 6.47266L16.2773 6.53223L16.4863 6.70215C17.5131 7.57172 18.2675 8.7225 18.6533 10.0156C19.0645 11.3947 19.0365 12.8677 18.5742 14.2305C18.1116 15.5934 17.2371 16.78 16.0712 17.624C14.9054 18.468 13.5055 18.9286 12.0663 18.9424C10.6272 18.9561 9.21886 18.5217 8.03705 17.7002C6.85541 16.8787 5.95821 15.7101 5.46967 14.3564C4.98114 13.0026 4.92564 11.5304 5.31049 10.1436C5.69539 8.75667 6.50173 7.52369 7.61811 6.61523L7.96479 7.04199L8.31244 7.46777C7.3729 8.23229 6.69399 9.27032 6.37006 10.4375C6.04617 11.6047 6.0927 12.844 6.50385 13.9834C6.91503 15.1227 7.67044 16.1065 8.66498 16.7979C9.65945 17.4891 10.8446 17.8543 12.0556 17.8428C13.2667 17.8311 14.4446 17.4426 15.4257 16.7324C16.4069 16.0221 17.1439 15.024 17.5331 13.877C17.9222 12.7301 17.9447 11.4906 17.5986 10.3301C17.2739 9.24171 16.6396 8.27284 15.7753 7.54102L15.5996 7.39844L15.5195 7.32129C15.3537 7.12649 15.3421 6.83532 15.5058 6.62598Z" fill="black"/>
<path d="M11.999 5.05762C12.3027 5.05762 12.5488 5.30367 12.5488 5.60742V11.5527C12.5488 11.8565 12.3027 12.1025 11.999 12.1025C11.6954 12.1023 11.4492 11.8563 11.4492 11.5527V5.60742C11.4492 5.30381 11.6954 5.05785 11.999 5.05762Z" fill="black"/>
<path d="M7.61811 6.61523C7.85365 6.42357 8.19979 6.4589 8.39154 6.69434C8.58306 6.92986 8.54779 7.27606 8.31244 7.46777L7.61811 6.61523Z" fill="black"/>
</svg>
