<svg width="24" height="24" viewBox="0 0 24 24" fill="none" xmlns="http://www.w3.org/2000/svg">
<path d="M8.62939 5.00391C8.90236 5.06019 9.10791 5.30216 9.10791 5.5918C9.10791 5.88143 8.90236 6.1234 8.62939 6.17969L8.5083 6.19141H7.40088C6.20214 6.19142 5.22999 7.16357 5.22998 8.3623V14.8271C5.23013 16.0258 6.20223 16.9971 7.40088 16.9971H8.99854V19.6836C8.9987 19.9734 9.35055 20.1165 9.55322 19.9092L12.2241 17.1777L12.3999 16.9971H17.4048C17.6541 16.997 17.9001 16.9321 18.1167 16.8086L18.2349 16.7334C18.502 16.5442 18.6981 16.268 18.7876 15.9502L18.8286 15.8027L18.8735 15.6895C19.0015 15.4416 19.2898 15.3093 19.5688 15.3877C19.8875 15.4776 20.0735 15.8091 19.9839 16.1279L19.9429 16.2744C19.7788 16.8577 19.4193 17.3645 18.9292 17.7119L18.7104 17.8516C18.3128 18.0782 17.8625 18.1972 17.4048 18.1973H12.9048L10.4116 20.748C9.457 21.7245 7.7985 21.0491 7.79834 19.6836V18.1973H7.40088C5.53949 18.1973 4.03091 16.6885 4.03076 14.8271V8.3623C4.03077 6.50083 5.5394 4.9922 7.40088 4.99219H8.5083L8.62939 5.00391Z" fill="#333333"/>
<path d="M15.1509 8.88379C15.281 8.89713 15.4035 8.93646 15.5132 8.99609C15.6782 9.08571 15.8142 9.22174 15.9038 9.38672C15.9786 9.52433 16.021 9.68203 16.021 9.84961L16.0161 9.94824C16.0064 10.0436 15.982 10.1346 15.9468 10.2197C15.9438 10.227 15.9402 10.234 15.937 10.2412C15.9032 10.3175 15.8605 10.3887 15.8091 10.4531C15.8004 10.464 15.7908 10.4739 15.7817 10.4844C15.7702 10.4976 15.7588 10.5108 15.7466 10.5234C15.7395 10.5307 15.7324 10.5379 15.7251 10.5449C15.7112 10.5584 15.6968 10.5713 15.6821 10.584C15.6743 10.5908 15.6668 10.598 15.6587 10.6045C15.6524 10.6096 15.6456 10.6142 15.6392 10.6191C15.6477 10.6595 15.6528 10.7012 15.6528 10.7441V11.7031C15.6527 12.0344 15.3845 12.3027 15.0532 12.3027C14.7219 12.3027 14.4537 12.0344 14.4536 11.7031V10.7441C14.4536 10.7024 14.4572 10.6614 14.4653 10.6221C14.4565 10.6153 14.4476 10.6086 14.439 10.6016C14.4343 10.5978 14.4299 10.5937 14.4253 10.5898C14.4078 10.5751 14.3909 10.5599 14.3745 10.5439C14.3676 10.5372 14.3607 10.5304 14.354 10.5234C14.3405 10.5095 14.3276 10.4952 14.3149 10.4805C14.307 10.4712 14.2991 10.4618 14.2915 10.4521C14.2791 10.4365 14.2668 10.4207 14.2554 10.4043C14.2524 10.4001 14.2495 10.3959 14.2466 10.3916L14.2271 10.3623C14.2195 10.3502 14.2126 10.3377 14.2056 10.3252C14.2014 10.3178 14.1978 10.3102 14.1938 10.3027C14.1842 10.2845 14.175 10.266 14.1665 10.2471C14.162 10.237 14.157 10.2271 14.1528 10.2168C14.1336 10.1698 14.1187 10.1207 14.1069 10.0703C14.0904 9.99934 14.0806 9.92561 14.0806 9.84961C14.0806 9.31376 14.5154 8.87891 15.0513 8.87891L15.1509 8.88379Z" fill="#333333"/>
<path fill-rule="evenodd" clip-rule="evenodd" d="M15.0532 3.11426C16.677 3.11452 17.9974 4.40835 18.0415 6.02148C19.172 6.0964 20.0659 7.03508 20.0659 8.18457V12.3701C20.0659 13.5686 19.0944 14.54 17.896 14.54H12.2104C11.012 14.54 10.0405 13.5686 10.0405 12.3701V8.18457C10.0405 7.03541 10.9339 6.09688 12.064 6.02148C12.1081 4.40827 13.4294 3.11441 15.0532 3.11426ZM12.2104 7.21387C11.6748 7.21387 11.2397 7.64887 11.2397 8.18457V12.3701C11.2397 12.9058 11.6748 13.3408 12.2104 13.3408H17.896C18.4317 13.3408 18.8657 12.9058 18.8657 12.3701V8.18457C18.8657 7.64887 18.4317 7.21387 17.896 7.21387H12.2104ZM15.0532 4.31348C14.0945 4.31363 13.3131 5.06755 13.2661 6.01465H16.8394C16.7924 5.06762 16.0118 4.31373 15.0532 4.31348Z" fill="#333333"/>
</svg>
