<svg width="24" height="24" viewBox="0 0 24 24" fill="none" xmlns="http://www.w3.org/2000/svg">
<path d="M5.79102 15.2468H7.78027C8.11164 15.2468 8.37988 15.5151 8.37988 15.8464C8.37971 16.1777 8.11154 16.446 7.78027 16.446H6.9043C7.09085 16.6609 7.29061 16.8668 7.50391 17.0613L7.72363 17.2537C8.75174 18.119 9.87301 18.6261 11.1055 18.7712C12.3429 18.9169 13.7333 18.7018 15.3008 18.0603L15.417 18.0261C15.6912 17.9744 15.9742 18.1201 16.084 18.3884C16.2092 18.6949 16.0621 19.045 15.7559 19.1707L15.4365 19.2976C13.8469 19.9029 12.356 20.1274 10.9648 19.9636C9.47621 19.7882 8.14013 19.1724 6.95117 18.1716L6.69629 17.947C6.44005 17.7134 6.20053 17.4658 5.97754 17.2068V18.2527L5.96582 18.3738C5.90964 18.6468 5.66761 18.8522 5.37793 18.8523C5.08821 18.8523 4.84624 18.6469 4.79004 18.3738L4.77734 18.2527V15.8464C4.77734 15.5151 5.04656 15.2468 5.37793 15.2468H5.65625C5.70138 15.2425 5.74649 15.241 5.79102 15.2468Z" fill="#909090"/>
<path d="M15.0381 5.31811C15.1745 5.06209 15.4706 4.94381 15.7383 5.02319L15.8496 5.07006L16.1289 5.22729C17.5038 6.04563 18.593 7.34666 19.2666 8.7976C19.9844 10.3443 20.2538 12.1131 19.8438 13.7165L19.7529 14.0447C19.6421 14.4161 19.5039 14.7752 19.3467 15.1228L20.1875 14.7996L20.3057 14.7683C20.5809 14.7224 20.8597 14.8737 20.9639 15.1443C21.0679 15.4149 20.9627 15.7146 20.7275 15.865L20.6191 15.9197L18.3799 16.781C18.0707 16.9 17.7236 16.7463 17.6045 16.4373L16.7441 14.2009C16.6251 13.8917 16.7786 13.5446 17.0879 13.4255C17.3971 13.3065 17.7443 13.461 17.8633 13.7703L18.2207 14.699C18.3698 14.3782 18.5006 14.0458 18.6035 13.7009L18.6816 13.4197C19.0096 12.137 18.8059 10.653 18.1797 9.30346C17.593 8.03944 16.6552 6.93785 15.5166 6.25952L15.2861 6.12963L15.1855 6.06128C14.9706 5.88355 14.9023 5.57393 15.0381 5.31811Z" fill="#909090"/>
<path d="M10.0059 2.78979C10.1922 2.56803 10.5048 2.51556 10.75 2.64819L10.8516 2.71655L12.6865 4.25561C12.9231 4.45413 12.9644 4.79455 12.7969 5.04565C12.7535 5.15076 12.6808 5.23855 12.5898 5.30346L11.2227 6.93335C11.0097 7.18712 10.6318 7.22038 10.3779 7.00756C10.156 6.82133 10.1019 6.50875 10.2344 6.26342L10.3037 6.16284L10.8652 5.49194C10.6523 5.52316 10.4392 5.5617 10.2275 5.61206L9.94434 5.6853C9.07197 5.92972 8.28445 6.36423 7.61523 6.94116C6.41601 8.00465 5.67281 9.54929 5.36914 11.3171L5.28906 11.8669C5.2821 11.9255 5.2633 11.9794 5.24121 12.031C5.23865 12.1098 5.23731 12.1891 5.2373 12.2683C5.23713 12.5995 4.96886 12.8688 4.6377 12.8689C4.30643 12.8689 4.03729 12.5995 4.03711 12.2683C4.03721 9.9103 5.02606 7.66831 6.68945 6.15893C7.47755 5.42334 8.44902 4.85709 9.61621 4.53003L9.94531 4.44506C9.96142 4.44123 9.97802 4.43806 9.99414 4.43432C10.129 4.40301 10.2641 4.37493 10.3994 4.35034C10.5493 4.32317 10.6994 4.30102 10.8496 4.28198L10.0801 3.63549L9.99512 3.54858C9.82166 3.33001 9.81957 3.0119 10.0059 2.78979Z" fill="#909090"/>
</svg>
