<svg width="24" height="24" viewBox="0 0 24 24" fill="none" xmlns="http://www.w3.org/2000/svg">
<path d="M5.75098 15.2456H7.67773C8.00904 15.2456 8.27724 15.5139 8.27734 15.8452C8.27734 16.1766 8.00911 16.4448 7.67773 16.4448H6.90332C7.09012 16.6601 7.29026 16.8662 7.50391 17.061L7.72363 17.2534C8.7518 18.1188 9.87294 18.6258 11.1055 18.771C12.3429 18.9167 13.7333 18.7026 15.3008 18.061L15.417 18.0259C15.6911 17.9741 15.9741 18.12 16.084 18.3882C16.2094 18.6947 16.0623 19.0457 15.7559 19.1714L15.4365 19.2973C13.8469 19.9027 12.356 20.1272 10.9648 19.9634C9.47624 19.788 8.14011 19.1721 6.95117 18.1714L6.69629 17.9477C6.43996 17.714 6.2006 17.4656 5.97754 17.2065V18.1489L5.96582 18.269C5.91007 18.5426 5.668 18.7485 5.37793 18.7485C5.08782 18.7485 4.84582 18.5426 4.79004 18.269L4.77734 18.1489V15.8452C4.77745 15.5139 5.04662 15.2456 5.37793 15.2456H5.66699C5.69512 15.2434 5.72301 15.2438 5.75098 15.2456Z" fill="#909090"/>
<path d="M15.0381 5.31785C15.1745 5.06184 15.4706 4.94452 15.7383 5.0239L15.8496 5.07078L16.1289 5.22703C17.5039 6.04542 18.5931 7.34725 19.2666 8.79832C19.9845 10.345 20.2539 12.1138 19.8438 13.7173L19.7529 14.0444C19.6422 14.4155 19.5037 14.7743 19.3467 15.1216L20.0977 14.8335L20.2158 14.8022C20.491 14.7564 20.7689 14.9087 20.873 15.1792C20.9768 15.4496 20.8725 15.7486 20.6377 15.8989L20.5293 15.9536L18.3789 16.7817C18.0699 16.9004 17.7236 16.7458 17.6045 16.437L16.7783 14.2895C16.6593 13.9803 16.8129 13.6342 17.1221 13.5151C17.4313 13.3961 17.7784 13.5496 17.8975 13.8589L18.2207 14.6997C18.3699 14.3789 18.5006 14.0465 18.6035 13.7016L18.6816 13.4204C19.0098 12.1375 18.8061 10.653 18.1797 9.3032C17.593 8.03909 16.6553 6.93757 15.5166 6.25925L15.2861 6.12937L15.1855 6.06101C14.9705 5.88319 14.902 5.57374 15.0381 5.31785Z" fill="#909090"/>
<path fill-rule="evenodd" clip-rule="evenodd" d="M13.4697 8.9321C14.3531 8.93237 15.0692 9.64831 15.0693 10.5317V13.4702C15.0693 14.3537 14.3532 15.0695 13.4697 15.0698H10.5312C9.64759 15.0698 8.93164 14.3538 8.93164 13.4702V10.5317C8.93174 9.64815 9.64766 8.9321 10.5312 8.9321H13.4697ZM10.5312 10.1313C10.3104 10.1313 10.131 10.3109 10.1309 10.5317V13.4702C10.1309 13.6911 10.3103 13.8706 10.5312 13.8706H13.4697C13.6904 13.8703 13.8701 13.6909 13.8701 13.4702V10.5317C13.87 10.3111 13.6904 10.1316 13.4697 10.1313H10.5312Z" fill="#909090"/>
<path d="M10.0762 2.8491C10.2625 2.62717 10.575 2.57392 10.8203 2.70652L10.9209 2.7739L12.6865 4.25535C12.9227 4.45352 12.9643 4.79338 12.7979 5.04441C12.7543 5.15037 12.6806 5.23903 12.5889 5.30417L11.2812 6.86375C11.0684 7.11745 10.6904 7.15057 10.4365 6.93796C10.1828 6.72504 10.1496 6.34708 10.3623 6.09324L10.8662 5.49167C10.653 5.52291 10.4395 5.56039 10.2275 5.61082L9.94434 5.68406C9.07184 5.9285 8.28452 6.36385 7.61523 6.94089C6.41618 8.00435 5.67281 9.54822 5.36914 11.3159L5.28906 11.8657C5.2821 11.9245 5.26344 11.9789 5.24121 12.0307C5.23866 12.1093 5.23731 12.1881 5.2373 12.2671C5.2373 12.5984 4.96897 12.8675 4.6377 12.8677C4.30632 12.8677 4.03711 12.5984 4.03711 12.2671C4.03726 9.90319 5.03121 7.65638 6.70215 6.14695C7.48806 5.41696 8.45508 4.85412 9.61621 4.52878L9.94531 4.44382C9.966 4.4389 9.98711 4.43491 10.0078 4.43015C10.1339 4.4011 10.2602 4.37521 10.3867 4.35203C10.5408 4.32386 10.6952 4.30129 10.8496 4.28171L10.1494 3.69382L10.0645 3.60691C9.89125 3.38836 9.88999 3.0711 10.0762 2.8491Z" fill="#909090"/>
</svg>
