<svg width="24" height="24" viewBox="0 0 24 24" fill="none" xmlns="http://www.w3.org/2000/svg">
<path d="M9.00049 17.0781C9.88414 17.0781 10.6001 17.7941 10.6001 18.6777C10.6001 19.5614 9.88414 20.2773 9.00049 20.2773C8.11683 20.2773 7.40088 19.5614 7.40088 18.6777C7.40088 17.7941 8.11683 17.0781 9.00049 17.0781Z" fill="#909090"/>
<path d="M16.0005 17.0781C16.8841 17.0781 17.6001 17.7941 17.6001 18.6777C17.6001 19.5614 16.8841 20.2773 16.0005 20.2773C15.1168 20.2773 14.4009 19.5614 14.4009 18.6777C14.4009 17.7941 15.1168 17.0781 16.0005 17.0781Z" fill="#909090"/>
<path d="M5.6001 5.08691C5.83465 5.12753 6.02761 5.30462 6.08252 5.54297L8.07275 14.1885L8.07861 14.2129L8.10107 14.3125C8.16215 14.5396 8.27928 14.7301 8.42627 14.8633C8.59258 15.0137 8.78565 15.0818 8.97021 15.0771H16.3052C16.4858 15.0767 16.6736 15.0066 16.8354 14.8574C16.9992 14.7064 17.1253 14.4836 17.1763 14.2188L17.189 14.165L17.3755 13.5195C17.4674 13.2012 17.8003 13.0175 18.1187 13.1094C18.4366 13.2014 18.6203 13.5335 18.5288 13.8516L18.3423 14.498C18.24 14.9744 18.0026 15.4131 17.6489 15.7393C17.2803 16.0791 16.8076 16.2764 16.3071 16.2773H8.98584C8.47966 16.2863 7.99802 16.0944 7.62158 15.7539C7.24927 15.4171 7.00226 14.9563 6.90381 14.457L5.02002 6.27734H4.00049C3.66912 6.27734 3.40088 6.00911 3.40088 5.67773C3.40088 5.34636 3.66912 5.07812 4.00049 5.07812H5.49756L5.6001 5.08691Z" fill="#909090"/>
<path fill-rule="evenodd" clip-rule="evenodd" d="M13.5972 3.68359C13.977 3.68368 14.2919 3.8088 14.564 3.9375C14.7148 4.00897 15.3366 4.3568 15.9087 4.67871C16.5042 5.01379 17.0791 5.33967 17.1821 5.39551C17.4807 5.5573 17.7808 5.82284 17.9653 6.1377C18.1437 6.44229 18.2319 6.73434 18.2319 7.19531V9.96484C18.2319 10.3782 18.1459 10.6977 17.9673 11.0059C17.7949 11.3032 17.577 11.5338 17.2319 11.7246C17.1074 11.7935 16.5236 12.125 15.9106 12.4668C15.6095 12.6347 15.3054 12.8035 15.0601 12.9355C14.9379 13.0013 14.8273 13.06 14.7378 13.1055C14.6615 13.1442 14.5647 13.1913 14.4907 13.2178L14.1489 13.3545C14.0066 13.4073 13.8202 13.4628 13.5972 13.4629C13.2075 13.4628 12.8186 13.2961 12.5854 13.1885C12.44 13.1213 11.8379 12.7888 11.2788 12.4746C10.7185 12.1598 10.1161 11.8156 9.96924 11.7178C9.73579 11.5621 9.42592 11.3571 9.22412 10.998C9.04138 10.6726 8.98346 10.3746 8.96338 9.99609C8.94507 9.64886 8.96239 7.45647 8.9624 7.17676C8.96247 6.76736 9.04648 6.47236 9.22119 6.15332C9.42322 5.7845 9.71293 5.57637 9.96045 5.41797C10.0969 5.33071 10.7105 4.99447 11.2817 4.68262C11.8795 4.35624 12.4583 4.04122 12.5786 3.9707C12.9272 3.76648 13.2412 3.68364 13.5972 3.68359ZM10.1616 7.20703C10.1608 7.62142 10.146 9.63566 10.1616 9.93262C10.176 10.2035 10.2086 10.3018 10.27 10.4111C10.3125 10.4866 10.3811 10.5509 10.6343 10.7197C10.7324 10.785 11.28 11.0991 11.8667 11.4287C12.1523 11.5892 12.4373 11.7474 12.6646 11.8721C12.7781 11.9344 12.8765 11.9886 12.9526 12.0293C12.9687 12.0379 12.9838 12.0455 12.9976 12.0527V8.91016L10.1616 7.20703ZM14.1968 8.91113V12.0332C14.2738 11.994 14.3745 11.942 14.4917 11.8789C14.7291 11.7511 15.027 11.586 15.3267 11.4189C15.9151 11.0908 16.5312 10.741 16.6509 10.6748C16.7923 10.5966 16.857 10.5262 16.9282 10.4033C16.9931 10.2913 17.0317 10.1826 17.0317 9.96484V7.20801L14.1968 8.91113ZM13.5972 4.88281C13.4652 4.88284 13.3591 4.90485 13.1851 5.00684C13.043 5.09008 12.4356 5.42037 11.8569 5.73633C11.5628 5.8969 11.2706 6.05624 11.0386 6.18457C10.9929 6.20982 10.9491 6.23339 10.9087 6.25586L13.5972 7.87109L16.2749 6.26172C16.0231 6.11985 15.6689 5.92103 15.3198 5.72461C14.7153 5.38442 14.1509 5.07013 14.0503 5.02246C13.8234 4.91516 13.7053 4.88289 13.5972 4.88281Z" fill="#909090"/>
</svg>
