<svg width="24" height="24" viewBox="0 0 24 24" fill="none" xmlns="http://www.w3.org/2000/svg">
<path d="M18.3828 17.1094C18.7142 17.1094 18.9834 17.3776 18.9834 17.709C18.9834 18.5812 18.2755 19.2881 17.4033 19.2881H6.7041C5.83189 19.2881 5.125 18.5812 5.125 17.709C5.125 17.3776 5.39324 17.1094 5.72461 17.1094C6.05598 17.1094 6.32422 17.3776 6.32422 17.709C6.32422 17.9185 6.49463 18.0879 6.7041 18.0879H17.4033C17.6128 18.0879 17.7832 17.9185 17.7832 17.709C17.7832 17.3777 18.0515 17.1095 18.3828 17.1094Z" fill="#909090"/>
<path d="M12.0537 7.12305C12.3851 7.12305 12.6561 7.37184 12.6963 7.69238C13.2534 7.84003 13.7309 8.18798 14.0273 8.74609L14.1035 8.90527L14.1416 9.02051C14.2003 9.29322 14.0612 9.57863 13.7959 9.69531C13.5308 9.81167 13.2267 9.72138 13.0654 9.49414L13.0059 9.3877L12.9355 9.25488C12.7566 8.96316 12.4611 8.80971 12.0449 8.80957C11.6839 8.80963 11.4379 8.90945 11.3027 9.01855C11.1807 9.11721 11.1319 9.23173 11.1426 9.37109L11.1582 9.45898C11.1827 9.54238 11.2366 9.61525 11.3389 9.68652C11.4964 9.79604 11.766 9.89605 12.1719 9.94727C12.68 10.0113 13.1773 10.1549 13.5605 10.4414C13.9717 10.7491 14.2188 11.2002 14.2188 11.7598C14.2186 12.2894 14.0095 12.7698 13.585 13.1016C13.3299 13.3007 13.0209 13.4263 12.6797 13.4932C12.6082 13.7747 12.3554 13.9844 12.0518 13.9844C11.7497 13.9841 11.4975 13.7766 11.4248 13.4971C11.0765 13.4318 10.7812 13.3102 10.5381 13.1377C10.1612 12.8701 9.95838 12.5188 9.85645 12.2061L10.4268 12.0205L10.9971 11.834C11.0354 11.9516 11.1047 12.0684 11.2324 12.1592C11.3614 12.2507 11.6026 12.3525 12.0449 12.3525C12.4741 12.3525 12.7202 12.2532 12.8457 12.1553C12.9522 12.0721 13.0184 11.9557 13.0186 11.7598C13.0186 11.5933 12.9623 11.4925 12.8418 11.4023C12.6932 11.2913 12.4293 11.189 12.0225 11.1377C11.5135 11.0735 11.0307 10.9336 10.6533 10.6709C10.305 10.4283 10.0556 10.0852 9.97168 9.6543L9.94629 9.46387C9.90311 8.904 10.14 8.41406 10.5488 8.08398C10.793 7.88697 11.0892 7.75259 11.4131 7.67871C11.4592 7.365 11.7274 7.12338 12.0537 7.12305Z" fill="#909090"/>
<path d="M10.2412 11.4492C10.5561 11.3469 10.8943 11.5193 10.9971 11.834L9.85645 12.2061C9.75397 11.8911 9.92635 11.5519 10.2412 11.4492Z" fill="#909090"/>
<path d="M7.55469 9.79492C7.98448 9.79501 8.33301 10.1434 8.33301 10.5732C8.33292 11.003 7.98443 11.3515 7.55469 11.3516C7.12487 11.3516 6.77646 11.003 6.77637 10.5732C6.77637 10.1434 7.12482 9.79492 7.55469 9.79492Z" fill="#909090"/>
<path d="M16.5537 9.79492C16.9835 9.79501 17.332 10.1434 17.332 10.5732C17.3319 11.003 16.9835 11.3515 16.5537 11.3516C16.1239 11.3516 15.7755 11.003 15.7754 10.5732C15.7754 10.1434 16.1238 9.79492 16.5537 9.79492Z" fill="#909090"/>
<path fill-rule="evenodd" clip-rule="evenodd" d="M17.7891 4.79492C18.9486 4.79517 19.8887 5.73489 19.8887 6.89453V14.21C19.8887 15.3696 18.9486 16.3103 17.7891 16.3105H6.31836C5.15856 16.3105 4.21875 15.3698 4.21875 14.21V6.89453C4.21875 5.73473 5.15856 4.79492 6.31836 4.79492H17.7891ZM6.31836 5.99414C5.8213 5.99414 5.41797 6.39748 5.41797 6.89453V14.21C5.41797 14.707 5.8213 15.1104 6.31836 15.1104H17.7891C18.2859 15.1101 18.6885 14.7069 18.6885 14.21V6.89453C18.6885 6.39763 18.2859 5.99439 17.7891 5.99414H6.31836Z" fill="#909090"/>
</svg>
