<svg width="24" height="24" viewBox="0 0 24 24" fill="none" xmlns="http://www.w3.org/2000/svg">
<path d="M10.3297 11.2676C10.977 11.2676 11.5024 11.7922 11.5026 12.4395C11.5026 13.0868 10.9771 13.6123 10.3297 13.6123C9.68249 13.6122 9.15785 13.0867 9.15785 12.4395C9.15799 11.7923 9.68258 11.2677 10.3297 11.2676Z" fill="#909090"/>
<path fill-rule="evenodd" clip-rule="evenodd" d="M9.9684 5.20117C10.1881 5.2369 10.3733 5.39249 10.443 5.60938C10.4434 5.61068 10.4446 5.61346 10.4459 5.61719C10.4489 5.62567 10.4543 5.63992 10.4616 5.65918C10.4765 5.69858 10.5005 5.75842 10.5338 5.83105C10.6012 5.97796 10.7031 6.17064 10.8424 6.35938C11.127 6.74481 11.5043 7.03897 12.0084 7.03906C12.5107 7.03906 12.8806 6.7472 13.1578 6.36426C13.2938 6.17642 13.3925 5.98442 13.4577 5.83789C13.4897 5.76571 13.5127 5.70626 13.527 5.66699C13.5341 5.64747 13.5398 5.63248 13.5426 5.62402L13.5446 5.61621C13.6218 5.36421 13.8552 5.19346 14.1188 5.19336H16.5582C16.9025 5.19336 17.2313 5.33754 17.4645 5.59082L20.3795 8.75781L20.4537 8.84668C20.7778 9.27236 20.7895 9.86104 20.4821 10.2988L20.4108 10.3906L19.1569 11.8613C18.7922 12.289 18.1844 12.4157 17.6793 12.1689L17.4352 12.0488V18.0303C17.4349 19.0591 16.6008 19.8926 15.5719 19.8926H8.42738C7.39865 19.8924 6.56435 19.059 6.5641 18.0303V11.8936L6.44496 11.9814C5.92459 12.3629 5.19748 12.2782 4.77894 11.7871L3.58851 10.3906C3.18476 9.91676 3.19825 9.21593 3.61976 8.75781L6.5348 5.59082L6.6266 5.50098C6.8504 5.30361 7.13976 5.19342 7.44105 5.19336H9.87172L9.9684 5.20117ZM14.2018 14.9492C13.8427 14.6298 13.2956 14.6485 12.9596 14.9922L9.34535 18.6934H15.5719C15.938 18.6934 16.2347 18.3963 16.235 18.0303V16.7578L14.2018 14.9492ZM7.41761 6.40332L4.50258 9.57031C4.49192 9.58202 4.49141 9.6002 4.5016 9.6123L5.69203 11.0088C5.70272 11.0213 5.72166 11.0233 5.735 11.0137L6.80922 10.2266C6.99145 10.0929 7.23358 10.0728 7.43519 10.1748C7.63676 10.2769 7.76414 10.484 7.76429 10.71V18.0303C7.76443 18.2289 7.85431 18.4048 7.99281 18.5264C8.01023 18.4051 8.06294 18.2877 8.15492 18.1934L12.1012 14.1543C12.8851 13.3518 14.1616 13.307 14.9996 14.0527L16.235 15.1514V11.0889C16.235 10.8821 16.342 10.6898 16.5172 10.5801C16.6928 10.4705 16.9133 10.459 17.0993 10.5498L18.2057 11.0908C18.2186 11.0971 18.2344 11.0938 18.2438 11.083L19.4977 9.6123L19.5055 9.59082L19.4967 9.57031L16.5817 6.40332C16.5757 6.39689 16.567 6.39258 16.5582 6.39258H14.5231C14.4344 6.5832 14.3058 6.82387 14.1295 7.06738C13.7387 7.60728 13.0534 8.23925 12.0084 8.23926C10.9655 8.23916 10.2743 7.60963 9.87758 7.07227C9.69634 6.82676 9.56367 6.58379 9.4723 6.39258H7.44105L7.41761 6.40332Z" fill="#909090"/>
</svg>
