<svg width="24" height="24" viewBox="0 0 24 24" fill="none" xmlns="http://www.w3.org/2000/svg">
<path d="M8.89355 17.2211C9.76539 17.2211 10.4726 17.9275 10.4727 18.7993C10.4724 19.6709 9.7653 20.3784 8.89355 20.3784C8.0219 20.3783 7.31568 19.6709 7.31543 18.7993C7.31553 17.9275 8.02181 17.2212 8.89355 17.2211Z" fill="#909090"/>
<path d="M15.7441 17.2211C16.616 17.2211 17.3231 17.9275 17.3232 18.7993C17.323 19.6709 16.6159 20.3784 15.7441 20.3784C14.8725 20.3783 14.1663 19.6709 14.166 18.7993C14.1661 17.9275 14.8724 17.2212 15.7441 17.2211Z" fill="#909090"/>
<path d="M5.56836 5.48384C5.80258 5.52468 5.99493 5.70182 6.0498 5.93989L7.99805 14.4008L8.00391 14.4252C8.05325 14.6881 8.17847 14.9082 8.34082 15.0551C8.50116 15.2001 8.68631 15.2656 8.86328 15.2612H16.042C16.2154 15.2609 16.3964 15.1932 16.5527 15.0493L16.5674 15.0278C16.5875 14.9986 16.6135 14.9566 16.6436 14.9018C16.7039 14.7918 16.7695 14.6508 16.834 14.4975L17.0547 14.0083C17.0853 13.9438 17.1113 13.8898 17.1299 13.852L17.1602 13.7915C17.1626 13.7925 17.1973 13.8083 17.6963 14.06L17.1602 13.7895C17.3094 13.4938 17.671 13.3757 17.9668 13.5249C18.2254 13.6556 18.3487 13.948 18.2754 14.2172L18.2324 14.3305L18.2256 14.3422C18.2213 14.3509 18.2152 14.3646 18.207 14.3813C18.1904 14.4152 18.1658 14.4647 18.1377 14.5239L17.9404 14.9624C17.8658 15.1399 17.7819 15.3211 17.6953 15.479C17.6373 15.5847 17.5598 15.7133 17.4658 15.8256L17.3662 15.9311C17.0033 16.2656 16.538 16.4604 16.0449 16.4614H8.87891C8.38033 16.47 7.90568 16.2808 7.53516 15.9458C7.1687 15.6142 6.92599 15.1603 6.8291 14.6694L4.98828 6.67427H4C3.66879 6.67427 3.40064 6.40581 3.40039 6.07466C3.40039 5.74329 3.66863 5.47505 4 5.47505H5.46484L5.56836 5.48384Z" fill="#909090"/>
<path d="M11.2793 6.45845C11.8483 6.30597 12.4333 6.6434 12.5859 7.21236C12.7384 7.78142 12.401 8.36638 11.832 8.519C11.263 8.67148 10.678 8.3341 10.5254 7.76509C10.3729 7.19604 10.7103 6.61108 11.2793 6.45845Z" fill="#909090"/>
<path fill-rule="evenodd" clip-rule="evenodd" d="M14.7607 3.34614C15.7543 3.08001 16.7753 3.66924 17.042 4.66255L18.46 9.95357C18.7263 10.9475 18.1365 11.9695 17.1426 12.2358L11.8516 13.6538C10.8578 13.9197 9.83658 13.3291 9.57031 12.3354L8.15332 7.04536C7.88734 6.05173 8.47623 5.0306 9.46973 4.76411L14.7607 3.34614ZM15.0713 4.50435L9.78027 5.92232C9.42692 6.01726 9.21707 6.38133 9.31152 6.73482L10.7285 12.0258C10.7895 12.2531 10.9627 12.4191 11.1719 12.4848L13.2441 8.62153C13.7895 7.60508 15.0536 7.21885 16.0742 7.7563L16.7188 8.09614L15.8828 4.97407C15.7879 4.62069 15.4248 4.40982 15.0713 4.50435ZM15.5146 8.81782C15.0774 8.58784 14.5365 8.75368 14.3027 9.18892L12.6943 12.185L16.832 11.0766C17.1858 10.9818 17.3956 10.6179 17.3008 10.2641L17.1426 9.67622L15.5146 8.81782Z" fill="#909090"/>
</svg>
