<svg width="24" height="24" viewBox="0 0 24 24" fill="none" xmlns="http://www.w3.org/2000/svg">
<path d="M17.3076 5.00781C18.799 5.00781 20.0078 6.21662 20.0078 7.70801V8.7627C20.0076 9.09385 19.7394 9.3623 19.4082 9.3623C19.077 9.3623 18.8088 9.09385 18.8086 8.7627V7.70801C18.8086 6.87936 18.1363 6.20703 17.3076 6.20703H6.69238C5.86374 6.20703 5.19141 6.87936 5.19141 7.70801V16.291C5.19141 17.1197 5.86374 17.792 6.69238 17.792H11.7354L11.8555 17.8037C12.1291 17.8595 12.335 18.1015 12.335 18.3916C12.335 18.6817 12.1291 18.9237 11.8555 18.9795L11.7354 18.9912H6.69238C5.201 18.9912 3.99219 17.7824 3.99219 16.291V7.70801C3.99219 6.21662 5.201 5.00781 6.69238 5.00781H17.3076Z" fill="#909090"/>
<path fill-rule="evenodd" clip-rule="evenodd" d="M18.8926 11.0723C19.4849 10.5894 20.359 10.6239 20.9111 11.1758L21.3145 11.5791L21.418 11.6943C21.8685 12.2471 21.8686 13.0449 21.418 13.5977L21.3145 13.7119L16.751 18.2744C16.6949 18.3304 16.6285 18.3753 16.5557 18.4053L16.4805 18.4297L14.6875 18.9043C14.0193 19.0807 13.4081 18.4713 13.583 17.8027L14.0518 16.0166L14.0771 15.9404C14.1072 15.8674 14.1518 15.8004 14.208 15.7441L18.7783 11.1758L18.8926 11.0723ZM14.873 17.6133L15.127 17.5459L14.9395 17.3574L14.873 17.6133ZM20.0625 12.0244C19.9573 11.9195 19.7943 11.9058 19.6748 11.9844L19.626 12.0244L15.4619 16.1846L16.3018 17.0244L20.4658 12.8633L20.5049 12.8154C20.5726 12.7129 20.5725 12.5791 20.5049 12.4766L20.4658 12.4277L20.0625 12.0244Z" fill="#909090"/>
<path d="M11.5957 14.5391C12.0042 14.5392 12.3357 14.8699 12.3359 15.2783C12.3359 15.687 12.0043 16.0184 11.5957 16.0186H7.53613C7.15316 16.0183 6.83871 15.7275 6.80078 15.3545L6.79688 15.2783L6.80078 15.2031C6.83868 14.8301 7.15315 14.5393 7.53613 14.5391H11.5957Z" fill="#909090"/>
<path fill-rule="evenodd" clip-rule="evenodd" d="M15.7529 8.11133C16.6365 8.11143 17.3524 8.82733 17.3525 9.71094V10.1455C17.3524 11.0291 16.6365 11.745 15.7529 11.7451H8.24805C7.36444 11.745 6.64854 11.0291 6.64844 10.1455V9.71094C6.64854 8.82733 7.36444 8.11143 8.24805 8.11133H15.7529ZM8.24805 9.31055C8.02718 9.31065 7.84776 9.49007 7.84766 9.71094V10.1455C7.84776 10.3664 8.02718 10.5458 8.24805 10.5459H15.7529C15.9738 10.5458 16.1532 10.3664 16.1533 10.1455V9.71094C16.1532 9.49007 15.9738 9.31065 15.7529 9.31055H8.24805Z" fill="#909090"/>
</svg>
