<svg width="24" height="24" viewBox="0 0 24 24" fill="none" xmlns="http://www.w3.org/2000/svg">
<path d="M14.4325 11.9805C14.706 12.0363 14.912 12.2783 14.912 12.5684C14.912 12.8584 14.706 13.1004 14.4325 13.1562L14.3114 13.168H8.67955C8.3483 13.1678 8.07994 12.8996 8.07994 12.5684C8.07994 12.2371 8.3483 11.9689 8.67955 11.9688H14.3114L14.4325 11.9805Z" fill="#909090"/>
<path d="M14.4325 9.00977C14.706 9.06559 14.912 9.30759 14.912 9.59766C14.912 9.88772 14.706 10.1297 14.4325 10.1855L14.3114 10.1973H8.67955C8.3483 10.1971 8.07994 9.92894 8.07994 9.59766C8.07994 9.26637 8.3483 8.99819 8.67955 8.99805H14.3114L14.4325 9.00977Z" fill="#909090"/>
<path fill-rule="evenodd" clip-rule="evenodd" d="M18.6317 4.87109C19.2997 4.93862 19.8364 5.24004 20.203 5.7334C20.6016 6.26997 20.7508 6.96747 20.7508 7.66992C20.7508 7.82881 20.6873 7.98128 20.5751 8.09375C20.4626 8.20622 20.3093 8.26947 20.1503 8.26953H17.8045C17.8027 9.08767 17.8 10.3205 17.7967 11.5693C17.7922 13.3287 17.7879 15.1205 17.7879 15.8359C17.7879 16.7586 17.3297 17.5501 16.7206 18.0967C16.1156 18.6394 15.3088 18.9901 14.5165 18.9902H5.43345C5.01285 18.99 4.81562 18.6548 4.75865 18.502C4.69875 18.3409 4.64925 18.0184 4.87877 17.748L4.9315 17.6797C5.06152 17.4997 5.22833 17.1605 5.22838 16.5781C5.22838 15.1719 5.2275 13.669 5.2274 12.2695C5.2273 10.8701 5.2274 9.57372 5.2274 8.58008C5.22743 7.45024 5.6003 6.49285 6.35435 5.82617C7.09793 5.16901 8.13618 4.86133 9.34068 4.86133H18.2977C18.4492 4.86168 18.5208 4.86593 18.6317 4.87109ZM9.34068 6.06152C8.32711 6.06152 7.60764 6.32053 7.14927 6.72559C6.70179 7.1213 6.42763 7.72314 6.42759 8.58008V16.5781C6.42757 17.0658 6.34372 17.4662 6.22056 17.79H14.5165C14.9702 17.7899 15.4999 17.5789 15.9188 17.2031C16.3335 16.831 16.5878 16.3456 16.5878 15.8359C16.5878 15.1185 16.593 13.3247 16.5975 11.5664C16.6021 9.80724 16.6063 8.08371 16.6063 7.50293C16.6063 6.9716 16.7101 6.47636 16.8866 6.06152H9.34068ZM18.3661 6.06055H18.3338L18.3417 6.06152C18.3342 6.06611 18.2247 6.10079 18.0809 6.34766C17.9759 6.52804 17.8869 6.7752 17.8407 7.07031H19.494C19.4408 6.80945 19.3524 6.60166 19.2391 6.44922C19.091 6.24994 18.8691 6.09907 18.5038 6.06445L18.368 6.05762L18.3661 6.06055Z" fill="#909090"/>
</svg>
