<svg width="24" height="24" viewBox="0 0 24 24" fill="none" xmlns="http://www.w3.org/2000/svg">
<path d="M15.2725 9.31641C16.215 9.10875 17.1976 9.17513 18.1035 9.50781C19.0092 9.84046 19.8007 10.4254 20.3848 11.1934C20.9689 11.9616 21.321 12.8818 21.3994 13.8438C21.4777 14.8055 21.2792 15.7695 20.8271 16.6221C20.3751 17.4747 19.6887 18.1803 18.8486 18.6553C18.0085 19.1302 17.0496 19.3551 16.0859 19.3027C15.1224 19.2504 14.1938 18.9234 13.4102 18.3604C13.1411 18.167 13.0792 17.7916 13.2725 17.5225C13.4658 17.2534 13.8412 17.1924 14.1104 17.3857C14.7081 17.8152 15.4165 18.0646 16.1514 18.1045C16.8863 18.1444 17.6171 17.9726 18.2578 17.6104C18.8985 17.2482 19.4228 16.7108 19.7676 16.0605C20.1124 15.4102 20.2639 14.6741 20.2041 13.9404C20.1443 13.2069 19.8751 12.5058 19.4297 11.9199C18.9842 11.3341 18.3803 10.8875 17.6895 10.6338C16.9986 10.3801 16.249 10.3299 15.5303 10.4883C14.8606 10.6359 14.2452 10.9612 13.7432 11.4258H14.3262C14.6572 11.4259 14.9255 11.6943 14.9258 12.0254C14.9258 12.3567 14.6574 12.6258 14.3262 12.626H12.3691C12.21 12.626 12.0569 12.5627 11.9443 12.4502C11.8319 12.3377 11.7686 12.1845 11.7686 12.0254V10.0273C11.7686 9.69597 12.0378 9.42676 12.3691 9.42676C12.7004 9.42685 12.9688 9.69603 12.9688 10.0273V10.5078C13.6196 9.91852 14.4122 9.50595 15.2725 9.31641ZM15.8643 13.002C15.8643 12.6706 16.1325 12.4023 16.4639 12.4023C16.7952 12.4023 17.0635 12.6706 17.0635 13.002V14.0732L17.8584 14.4004C18.1647 14.5264 18.3104 14.8772 18.1846 15.1836C18.0586 15.4901 17.7079 15.6367 17.4014 15.5107L16.2354 15.0312C16.0106 14.9387 15.8643 14.7197 15.8643 14.4766V13.002ZM18.6201 7.48535C18.6201 6.79845 18.0629 6.24121 17.376 6.24121H6.78223C6.00903 6.24121 5.38184 6.8684 5.38184 7.6416V15.5459C5.38184 16.3191 6.00903 16.9463 6.78223 16.9463H10.3535C10.6849 16.9463 10.9541 17.2145 10.9541 17.5459C10.9541 17.8773 10.6849 18.1455 10.3535 18.1455H6.78223C5.34629 18.1455 4.18262 16.9818 4.18262 15.5459V7.6416C4.18262 6.20566 5.34629 5.04199 6.78223 5.04199H17.376C18.7256 5.04199 19.8203 6.1357 19.8203 7.48535C19.8203 7.81656 19.5518 8.0847 19.2207 8.08496C18.8893 8.08496 18.6201 7.81672 18.6201 7.48535Z" fill="#15C674"/>
</svg>
