<svg width="24" height="24" viewBox="0 0 24 24" fill="none" xmlns="http://www.w3.org/2000/svg">
<path d="M18.7793 12C18.7793 8.25612 15.7439 5.2207 12 5.2207C8.25612 5.2207 5.2207 8.25612 5.2207 12C5.2207 15.7439 8.25612 18.7793 12 18.7793C15.7439 18.7793 18.7793 15.7439 18.7793 12ZM19.9785 12C19.9785 16.4066 16.4066 19.9785 12 19.9785C7.59338 19.9785 4.02148 16.4066 4.02148 12C4.02148 7.59338 7.59338 4.02148 12 4.02148C16.4066 4.02148 19.9785 7.59338 19.9785 12Z" fill="#828B95"/>
<path d="M12.0002 15.0007C13.6571 15.0007 15.0002 13.6576 15.0002 12.0007C15.0002 10.3439 13.6571 9.00073 12.0002 9.00073C10.3434 9.00073 9.00024 10.3439 9.00024 12.0007C9.00024 13.6576 10.3434 15.0007 12.0002 15.0007Z" fill="#828B95"/>
</svg>
