<svg width="24" height="24" viewBox="0 0 24 24" fill="none" xmlns="http://www.w3.org/2000/svg">
<path d="M18.7793 12C18.7793 8.25612 15.7439 5.2207 12 5.2207C8.25612 5.2207 5.2207 8.25612 5.2207 12C5.2207 15.7439 8.25612 18.7793 12 18.7793C15.7439 18.7793 18.7793 15.7439 18.7793 12ZM19.9785 12C19.9785 16.4066 16.4066 19.9785 12 19.9785C7.59338 19.9785 4.02148 16.4066 4.02148 12C4.02148 7.59338 7.59338 4.02148 12 4.02148C16.4066 4.02148 19.9785 7.59338 19.9785 12Z" fill="#909090"/>
<path d="M14.2485 12.0005C14.2485 10.7588 13.2421 9.7516 12.0005 9.75146C10.7587 9.75146 9.75146 10.7587 9.75146 12.0005C9.7516 13.2421 10.7588 14.2485 12.0005 14.2485C13.242 14.2484 14.2484 13.242 14.2485 12.0005ZM15.4487 12.0005C15.4486 13.9048 13.9048 15.4486 12.0005 15.4487C10.0961 15.4487 8.55238 13.9049 8.55225 12.0005C8.55225 10.096 10.096 8.55225 12.0005 8.55225C13.9049 8.55238 15.4487 10.0961 15.4487 12.0005Z" fill="#909090"/>
</svg>
