<svg width="24" height="24" viewBox="0 0 24 24" fill="none" xmlns="http://www.w3.org/2000/svg">
<path d="M5.23438 11.2803C5.56564 11.2803 5.83382 11.5487 5.83398 11.8799V13.9844C5.834 15.3098 6.90891 16.3848 8.23438 16.3848H9.58008L8.39551 15.25C8.15653 15.0208 8.14895 14.6406 8.37793 14.4014C8.60702 14.1625 8.98636 14.1542 9.22559 14.3828L11.0518 16.1328C11.5033 16.5658 11.5034 17.2877 11.0518 17.7207L9.18066 19.5137C8.94137 19.7425 8.56116 19.7343 8.33203 19.4951C8.1033 19.2559 8.11168 18.8756 8.35059 18.6465L9.45898 17.584H8.23438C6.24617 17.584 4.63478 15.9726 4.63477 13.9844V11.8799C4.63493 11.5487 4.90311 11.2803 5.23438 11.2803Z" fill="#15C674"/>
<path d="M14.7334 4.05371C16.0709 4.05396 17.1712 5.06418 17.3154 6.36328C18.738 6.37876 19.8866 7.53572 19.8867 8.96191V15.2314C19.8866 16.9578 18.4871 18.3581 16.7607 18.3584H13.7031C13.3718 18.3584 13.1036 18.0891 13.1035 17.7578C13.1037 17.4266 13.3718 17.1582 13.7031 17.1582H16.7607C17.8243 17.1579 18.6874 16.295 18.6875 15.2314V8.96191C18.6874 8.18899 18.06 7.56278 17.2871 7.5625L9.56836 7.56152C8.79518 7.56152 8.16799 8.18873 8.16797 8.96191V10.8623C8.16769 11.1933 7.89933 11.4617 7.56836 11.4619C7.23716 11.4619 6.96903 11.1934 6.96875 10.8623V8.96191C6.96877 7.52599 8.13244 6.3623 9.56836 6.3623H16.1016C15.9677 5.72895 15.4065 5.25316 14.7334 5.25293H7.78223C6.73289 5.25293 5.88184 6.10398 5.88184 7.15332V8.39648C5.88184 8.72769 5.61337 8.99681 5.28223 8.99707C4.95086 8.99707 4.68262 8.72786 4.68262 8.39648V7.15332C4.68262 5.44124 6.07014 4.05371 7.78223 4.05371H14.7334Z" fill="#15C674"/>
<path d="M15.6465 12.3398C15.9776 12.3401 16.2461 12.6082 16.2461 12.9395C16.246 13.2707 15.9768 13.5391 15.6455 13.5391H14.3242C13.9932 13.5388 13.7247 13.2705 13.7246 12.9395C13.7246 12.6081 13.9938 12.3398 14.3252 12.3398H15.6465Z" fill="#15C674"/>
<path fill-rule="evenodd" clip-rule="evenodd" d="M11.1641 8.84961C12.1365 8.84987 12.9256 9.63785 12.9258 10.6104C12.9255 11.5827 12.1365 12.3718 11.1641 12.3721C10.1916 12.3719 9.40358 11.5828 9.40332 10.6104C9.40345 9.63776 10.1915 8.84974 11.1641 8.84961ZM11.1641 10.0488C10.8542 10.049 10.6027 10.3005 10.6025 10.6104C10.6028 10.9201 10.8543 11.1717 11.1641 11.1719C11.4737 11.1716 11.7253 10.92 11.7256 10.6104C11.7255 10.3006 11.4738 10.0491 11.1641 10.0488Z" fill="#15C674"/>
<path d="M16.8135 9.9502C17.1444 9.95072 17.4131 10.2188 17.4131 10.5498C17.413 10.8807 17.1443 11.1489 16.8135 11.1494H14.3252C13.9939 11.1494 13.7257 10.8811 13.7256 10.5498C13.7256 10.2184 13.9938 9.9502 14.3252 9.9502H16.8135Z" fill="#15C674"/>
</svg>
