<svg width="24" height="24" viewBox="0 0 24 24" fill="none" xmlns="http://www.w3.org/2000/svg">
<path d="M17.059 11.7207C17.3327 11.753 17.529 12.0017 17.4975 12.2754C17.2318 14.5494 16.0312 16.6372 13.6704 17.3057C11.6193 17.8862 9.40445 17.3097 7.98287 15.8096V17.166L7.9731 17.2666C7.92664 17.4946 7.72462 17.666 7.48287 17.666C7.20673 17.666 6.98287 17.4422 6.98287 17.166V14.5654C6.98287 14.531 6.98601 14.4973 6.99263 14.4648C7.03916 14.2369 7.24116 14.0654 7.48287 14.0654H10.0835L10.184 14.0752C10.4121 14.1217 10.5835 14.3237 10.5835 14.5654C10.5835 14.8416 10.3596 15.0654 10.0835 15.0654H8.66158C9.81286 16.3216 11.6593 16.8349 13.3979 16.3428C15.2404 15.8211 16.2677 14.1842 16.5044 12.1602C16.5367 11.8862 16.7849 11.6887 17.059 11.7207Z" fill="black"/>
<path d="M7.49654 11.832C7.46435 12.106 7.21587 12.3023 6.94185 12.2705C6.66785 12.2383 6.47053 11.9899 6.5024 11.7158L7.49654 11.832Z" fill="black"/>
<path d="M16.52 6.33301C16.7961 6.33302 17.02 6.55687 17.02 6.83301V9.43457L17.0122 9.52344L17.0102 9.52734V9.53516C17.0012 9.57925 16.9841 9.62013 16.9643 9.65918C16.9594 9.66897 16.9552 9.67907 16.9497 9.68848C16.9445 9.69721 16.9388 9.70549 16.9331 9.71387C16.9227 9.72915 16.9118 9.7438 16.8999 9.75781C16.8912 9.76801 16.881 9.77667 16.8715 9.78613C16.8621 9.79562 16.8534 9.80575 16.8432 9.81445C16.83 9.82567 16.8155 9.83491 16.8012 9.84473C16.792 9.85109 16.7836 9.85852 16.7739 9.86426C16.7645 9.86982 16.7544 9.87395 16.7446 9.87891C16.728 9.88734 16.7114 9.89578 16.6938 9.90234C16.6868 9.90496 16.6795 9.90687 16.6723 9.90918C16.6552 9.91466 16.6384 9.92116 16.6206 9.9248H16.6128L16.6088 9.92676L16.52 9.93457H13.9204C13.6442 9.93457 13.4204 9.71071 13.4204 9.43457C13.4204 9.15843 13.6442 8.93457 13.9204 8.93457H15.3422C14.1927 7.66791 12.341 7.14853 10.5991 7.64258C8.75864 8.16477 7.73298 9.80482 7.49654 11.832L6.99947 11.7734L6.5024 11.7158C6.76784 9.43993 7.96741 7.34999 10.3266 6.68066C12.3813 6.09805 14.6001 6.67964 16.02 8.18945V6.83301C16.02 6.55687 16.2438 6.33301 16.52 6.33301Z" fill="black"/>
</svg>
