<svg width="24" height="24" viewBox="0 0 24 24" fill="none" xmlns="http://www.w3.org/2000/svg">
<path d="M17.8694 11.708C18.171 11.7433 18.3869 12.0158 18.3519 12.3174C18.0441 14.9506 16.656 17.3612 13.93 18.1328C11.5329 18.8111 8.94409 18.1221 7.30401 16.3467V18L7.29327 18.1104C7.24206 18.3611 7.02006 18.5498 6.75421 18.5498C6.48847 18.5497 6.26632 18.361 6.21515 18.1104L6.2044 18V14.9795C6.2044 14.6758 6.45059 14.4298 6.75421 14.4297H9.77472L9.88507 14.4404C10.1358 14.4916 10.3245 14.7136 10.3245 14.9795C10.3245 15.2454 10.1358 15.4674 9.88507 15.5186L9.77472 15.5293H8.04718C9.38843 17.0367 11.5759 17.6554 13.6302 17.0742C15.786 16.464 16.9843 14.5487 17.2601 12.1904C17.2953 11.8888 17.5679 11.673 17.8694 11.708Z" fill="black"/>
<path d="M17.2493 5.4502C17.553 5.4503 17.7991 5.69631 17.7991 6V9.02051C17.7991 9.21034 17.7032 9.37847 17.5569 9.47754C17.5276 9.49738 17.4962 9.51436 17.4632 9.52832C17.3975 9.55617 17.3251 9.57126 17.2493 9.57129H14.2298C13.9262 9.57113 13.68 9.32514 13.68 9.02148C13.68 8.71783 13.9262 8.47184 14.2298 8.47168H15.9544C14.6153 6.95261 12.4235 6.32757 10.3655 6.91113C8.21204 7.5219 7.01504 9.43978 6.73956 11.8018L6.71612 11.9102C6.63624 12.153 6.39398 12.3147 6.13019 12.2842C5.82858 12.249 5.61276 11.9754 5.64776 11.6738C5.95525 9.0385 7.34174 6.62609 10.0657 5.85352C12.467 5.17262 15.0615 5.86568 16.6995 7.65234V6C16.6995 5.69624 16.9456 5.4502 17.2493 5.4502Z" fill="black"/>
</svg>
