<svg width="24" height="24" viewBox="0 0 24 24" fill="none" xmlns="http://www.w3.org/2000/svg">
<path d="M16.5519 11.749C16.7985 11.7779 16.9759 12.0014 16.9474 12.248C16.7082 14.2948 15.628 16.1739 13.503 16.7754C11.6564 17.298 9.66415 16.7771 8.38487 15.4258V16.6494L8.37511 16.7402C8.33301 16.9451 8.15201 17.0996 7.93468 17.0996C7.71738 17.0996 7.53633 16.9451 7.49425 16.7402L7.48448 16.6494V14.3086C7.48448 14.0601 7.6862 13.8585 7.93468 13.8584H10.2755L10.3663 13.8682C10.5712 13.9103 10.7257 14.0913 10.7257 14.3086C10.7257 14.5259 10.5712 14.7069 10.3663 14.749L10.2755 14.7588H8.99425C10.0304 15.8898 11.693 16.3521 13.2579 15.9092C14.9163 15.4397 15.8398 13.9662 16.0528 12.1445C16.0817 11.898 16.3053 11.7206 16.5519 11.749Z" fill="black"/>
<path d="M7.94737 11.8486C7.91841 12.0952 7.69493 12.2717 7.44835 12.2432C7.20169 12.2143 7.02419 11.9908 7.05284 11.7441L7.94737 11.8486Z" fill="black"/>
<path d="M16.0685 6.89941C16.317 6.89941 16.5187 7.10108 16.5187 7.34961V9.69141C16.5187 9.74796 16.5075 9.80174 16.4884 9.85156C16.4855 9.85906 16.4809 9.86575 16.4776 9.87305C16.4493 9.93647 16.4083 9.99228 16.3556 10.0361C16.352 10.0391 16.3476 10.0411 16.3439 10.0439C16.3089 10.0712 16.2708 10.0942 16.2286 10.1104C16.2166 10.1149 16.204 10.1175 16.1915 10.1211C16.1807 10.1242 16.1704 10.1296 16.1593 10.1318H16.1524C16.1393 10.1343 16.1259 10.1354 16.1124 10.1367L16.0685 10.1416H13.7286C13.4801 10.1415 13.2784 9.9399 13.2784 9.69141C13.2784 9.44291 13.4801 9.24127 13.7286 9.24121H15.0079C13.9733 8.10127 12.3071 7.63348 10.7394 8.07812C9.08311 8.54813 8.1602 10.0243 7.94737 11.8486L7.5001 11.7959L7.05284 11.7441C7.29178 9.69587 8.37094 7.81523 10.4942 7.21289C12.3434 6.68845 14.3403 7.21176 15.6183 8.57031V7.34961C15.6183 7.10112 15.82 6.89947 16.0685 6.89941Z" fill="black"/>
</svg>
