<svg width="24" height="24" viewBox="0 0 24 24" fill="none" xmlns="http://www.w3.org/2000/svg">
<path d="M18.957 8.58008C19.721 9.14995 20.2178 10.0584 20.2178 11.085V16.2764C20.2177 18.0029 18.8183 19.4033 17.0918 19.4033H9.57129C8.51678 19.4033 7.58665 18.8791 7.02051 18.0791C7.18905 18.1145 7.36388 18.1348 7.54297 18.1348H9.06934C9.22951 18.1779 9.3975 18.2031 9.57129 18.2031H17.0918C18.1556 18.2031 19.0184 17.3401 19.0186 16.2764V11.085C19.0186 10.9204 18.9959 10.7609 18.957 10.6084V8.58008Z" fill="#909090"/>
<path d="M13.2627 8.78711C13.6974 8.78711 14.0498 9.13951 14.0498 9.57422C14.0498 10.0089 13.6974 10.3613 13.2627 10.3613C12.828 10.3613 12.4756 10.0089 12.4756 9.57422C12.4756 9.13951 12.828 8.78711 13.2627 8.78711Z" fill="#909090"/>
<path fill-rule="evenodd" clip-rule="evenodd" d="M13.2578 6.97461C13.5417 6.97464 13.8177 7.0221 14.0703 7.10547L14.0693 7.10645C14.6606 7.30051 15.1585 7.6982 15.4863 8.2207L15.6162 8.45215L15.6172 8.45312L15.6826 8.5957C15.8275 8.933 15.9102 9.30564 15.9102 9.7002C15.9101 10.4935 15.6573 11.0552 15.3271 11.5498C15.1715 11.7829 14.991 12.0117 14.8291 12.2236C14.6618 12.4426 14.4991 12.6624 14.3447 12.9131L14.3428 12.917C14.1798 13.178 14.1234 13.3778 14.0674 13.5596C14.0465 13.6275 13.9982 13.7957 13.9023 13.9346C13.844 14.019 13.757 14.1109 13.6309 14.1777C13.5046 14.2446 13.3769 14.2666 13.2666 14.2666C13.1573 14.2666 13.0301 14.2456 12.9043 14.1797C12.7783 14.1136 12.6907 14.022 12.6318 13.9375C12.5351 13.7987 12.4867 13.63 12.4658 13.5625C12.4098 13.3818 12.3537 13.1822 12.1904 12.9209C12.0806 12.7456 11.9691 12.5804 11.8652 12.4395C11.5483 12.0104 11.1188 11.5186 10.8701 10.9502L10.8691 10.9512C10.7058 10.5829 10.6143 10.1775 10.6143 9.69531C10.6143 9.03873 10.8454 8.42838 11.2256 7.95703L11.2266 7.95508L11.3203 7.84668C11.8008 7.31425 12.49 6.97461 13.2578 6.97461ZM13.2578 8.17383C12.827 8.17383 12.4306 8.37647 12.1592 8.71094L12.1582 8.70996C11.9448 8.97466 11.8135 9.32166 11.8135 9.69531C11.8135 9.93421 11.8473 10.1284 11.9033 10.2998L11.9658 10.4648L11.9678 10.4678L12.0391 10.6152C12.2162 10.9517 12.4728 11.2423 12.8311 11.7275L13.0215 11.999L13.207 12.2852L13.208 12.2861L13.2646 12.3818C13.2837 12.3488 13.3039 12.3153 13.3252 12.2812C13.5115 11.979 13.7032 11.7214 13.876 11.4951C14.0549 11.2609 14.201 11.0757 14.3291 10.8838C14.5663 10.5284 14.7099 10.1951 14.71 9.7002C14.71 9.44271 14.6489 9.20251 14.542 8.9873C14.3853 8.67459 14.1311 8.43188 13.8281 8.29688L13.6953 8.24512C13.5581 8.19982 13.4079 8.17386 13.2578 8.17383Z" fill="#909090"/>
<path d="M9.17383 12.9668C9.44708 13.0229 9.65234 13.2648 9.65234 13.5547C9.65234 13.8445 9.44708 14.0865 9.17383 14.1426L9.05273 14.1543H7.16504C6.83367 14.1543 6.56543 13.8861 6.56543 13.5547C6.56543 13.2233 6.83367 12.9551 7.16504 12.9551H9.05273L9.17383 12.9668Z" fill="#909090"/>
<path d="M9.17383 10.1836C9.44708 10.2397 9.65234 10.4816 9.65234 10.7715C9.65234 11.0613 9.44708 11.3033 9.17383 11.3594L9.05273 11.3711H7.16504C6.83367 11.3711 6.56543 11.1029 6.56543 10.7715C6.56543 10.4401 6.83367 10.1719 7.16504 10.1719H9.05273L9.17383 10.1836Z" fill="#909090"/>
<path d="M9.17285 7.42383C9.44646 7.47962 9.65234 7.72163 9.65234 8.01172C9.65234 8.30181 9.44646 8.54381 9.17285 8.59961L9.05273 8.61133H7.04395C6.71257 8.61133 6.44434 8.34309 6.44434 8.01172C6.44434 7.68035 6.71257 7.41211 7.04395 7.41211H9.05273L9.17285 7.42383Z" fill="#909090"/>
<path fill-rule="evenodd" clip-rule="evenodd" d="M15.3086 4.69922C16.791 4.69922 17.993 5.90047 17.9932 7.38281V14.4941C17.9932 15.9766 16.791 17.1787 15.3086 17.1787H6.43359C4.95125 17.1786 3.75 15.9765 3.75 14.4941V7.38281C3.75012 5.90054 4.95132 4.69934 6.43359 4.69922H15.3086ZM6.43359 5.89844C5.61407 5.89856 4.94934 6.56328 4.94922 7.38281V14.4941C4.94922 15.3138 5.61399 15.9784 6.43359 15.9785H15.3086C16.1283 15.9785 16.793 15.3138 16.793 14.4941V7.38281C16.7928 6.56321 16.1282 5.89844 15.3086 5.89844H6.43359Z" fill="#909090"/>
</svg>
