<svg width="24" height="24" viewBox="0 0 24 24" fill="none" xmlns="http://www.w3.org/2000/svg">
<path fill-rule="evenodd" clip-rule="evenodd" d="M10.6125 4.82909C10.9078 4.68851 11.2857 4.72115 11.5597 4.98534L17.2736 10.4941C17.6673 10.8741 17.6675 11.5166 17.2736 11.8965L11.5597 17.4053C11.2857 17.6693 10.9077 17.7012 10.6125 17.5605C10.3222 17.4222 10.1193 17.124 10.1193 16.7705V13.8633C7.41724 14.0971 5.76571 16.1843 4.58512 17.3877C3.95832 18.0265 2.97651 17.4173 3.14567 16.6074L3.34391 15.6367C3.58139 14.5155 3.9646 13.0021 4.73063 11.6367C5.71831 9.87646 7.36187 8.32813 10.1193 8.08593V5.61913C10.1193 5.2656 10.3222 4.96746 10.6125 4.82909ZM11.3195 8.65624C11.3195 8.98747 11.0511 9.25567 10.7199 9.25585C10.6604 9.25585 10.6662 9.25517 10.6437 9.25585C8.10132 9.33328 6.66376 10.6424 5.77653 12.2236C5.13791 13.3619 4.79701 14.6218 4.56755 15.665C5.80677 14.3809 7.75886 12.642 10.6193 12.6416C10.6546 12.6416 10.6875 12.6416 10.7199 12.6416C11.051 12.6418 11.3193 12.9101 11.3195 13.2412V15.9687L16.2716 11.1943L11.3195 6.41991V8.65624Z" fill="#15C674"/>
<path d="M14.7101 5.32714C14.9401 5.08869 15.3193 5.08162 15.5578 5.31151L20.9494 10.5088C21.3345 10.8806 21.3346 11.5091 20.9494 11.8809L15.5578 17.0781C15.3193 17.308 14.9401 17.3009 14.7101 17.0625C14.4802 16.8239 14.4872 16.4448 14.7258 16.2148L19.9308 11.1943L14.7258 6.1748C14.4872 5.94482 14.4802 5.5657 14.7101 5.32714Z" fill="#15C674"/>
</svg>
