<svg width="24" height="24" viewBox="0 0 24 24" fill="none" xmlns="http://www.w3.org/2000/svg">
<path d="M17.3037 5.70605C17.6351 5.70605 17.9033 5.97429 17.9033 6.30566V17.6943C17.9033 18.0257 17.6351 18.2939 17.3037 18.2939C16.9724 18.2939 16.7041 18.0257 16.7041 17.6943V6.30566C16.7041 5.97429 16.9723 5.70605 17.3037 5.70605Z" fill="#15C674"/>
<path d="M9.16211 7.33984C9.39534 7.10445 9.77534 7.10271 10.0107 7.33594L14.2881 11.5742C14.4017 11.6869 14.4658 11.84 14.4658 12C14.4658 12.1601 14.4018 12.3141 14.2881 12.4268L10.0107 16.665C9.77546 16.8981 9.39536 16.8962 9.16211 16.6611C8.92889 16.4257 8.93064 16.0457 9.16602 15.8125L12.4072 12.6006H5.30469C4.97333 12.6006 4.7051 12.3314 4.70508 12C4.70514 11.6687 4.97336 11.4004 5.30469 11.4004H12.4082L9.16602 8.1875C8.9307 7.95429 8.92896 7.57523 9.16211 7.33984Z" fill="#15C674"/>
</svg>
