<svg width="24" height="24" viewBox="0 0 24 24" fill="none" xmlns="http://www.w3.org/2000/svg">
<path d="M16.9997 5.52058C17.331 5.52058 17.5992 5.78889 17.5993 6.12019V17.88C17.5993 18.2113 17.3311 18.4805 16.9997 18.4805C16.6684 18.4804 16.4001 18.2112 16.4001 17.88V6.12019C16.4002 5.78898 16.6685 5.52073 16.9997 5.52058Z" fill="#15C674"/>
<path d="M6.55535 5.71686C6.77809 5.47207 7.15786 5.4536 7.40301 5.67585L13.8708 11.5557C13.9957 11.6693 14.0679 11.8312 14.068 12.0001C14.068 12.169 13.9958 12.3307 13.8708 12.4444L7.40301 18.3243C7.1578 18.5469 6.77818 18.5284 6.55535 18.2833C6.33317 18.0381 6.35147 17.6593 6.59637 17.4366L12.5749 12.0001L6.59637 6.56452C6.35155 6.34169 6.33286 5.96198 6.55535 5.71686Z" fill="#15C674"/>
</svg>
