<svg width="24" height="24" viewBox="0 0 24 24" fill="none" xmlns="http://www.w3.org/2000/svg">
<path d="M16 18.4004C16.3314 18.4004 16.5996 18.6686 16.5996 19C16.5996 19.3314 16.3314 19.5996 16 19.5996H8C7.66863 19.5996 7.40039 19.3314 7.40039 19C7.40039 18.6686 7.66863 18.4004 8 18.4004H16Z" fill="#15C674"/>
<path d="M10.3848 5.0625C10.7161 5.0625 10.9854 5.33074 10.9854 5.66211C10.9854 5.99348 10.7161 6.26172 10.3848 6.26172H6.24219C5.74513 6.26172 5.3418 6.66505 5.3418 7.16211V14.8379C5.3418 15.3349 5.74513 15.7383 6.24219 15.7383H17.7578C18.2549 15.7383 18.6582 15.3349 18.6582 14.8379V13.458C18.6582 13.1266 18.9264 12.8574 19.2578 12.8574C19.5892 12.8574 19.8574 13.1266 19.8574 13.458V14.8379C19.8574 15.9977 18.9176 16.9375 17.7578 16.9375H6.24219C5.08239 16.9375 4.14258 15.9977 4.14258 14.8379V7.16211C4.14258 6.00231 5.08239 5.0625 6.24219 5.0625H10.3848Z" fill="#15C674"/>
<path d="M13.9668 5.4541C14.2979 5.45436 14.5664 5.7225 14.5664 6.05371V10.624C14.5664 10.9552 14.2979 11.2243 13.9668 11.2246C13.6354 11.2246 13.3672 10.9554 13.3672 10.624V6.05371C13.3672 5.72234 13.6354 5.4541 13.9668 5.4541Z" fill="#15C674"/>
<path d="M17.1191 5.4541C17.4503 5.45436 17.7188 5.7225 17.7188 6.05371V10.624C17.7188 10.9552 17.4503 11.2243 17.1191 11.2246C16.7878 11.2246 16.5195 10.9554 16.5195 10.624V6.05371C16.5195 5.72234 16.7878 5.4541 17.1191 5.4541Z" fill="#15C674"/>
</svg>
