<svg width="24" height="24" viewBox="0 0 24 24" fill="none" xmlns="http://www.w3.org/2000/svg">
<path fill-rule="evenodd" clip-rule="evenodd" d="M10.0935 6.48535C10.367 6.54129 10.573 6.7833 10.573 7.07324C10.573 7.36319 10.367 7.60519 10.0935 7.66113L9.97246 7.67285L7.08183 7.67383C6.86098 7.67384 6.68153 7.85241 6.68144 8.07324V15.3037C6.68144 15.5246 6.86092 15.7041 7.08183 15.7041H16.8455L16.9666 15.7158C17.1144 15.746 17.2404 15.8321 17.3269 15.9492L17.3543 15.9707L19.5603 18.1064L19.6463 18.2041C20.0309 18.7122 19.6778 19.4813 19.0037 19.4814H4.45976C3.76992 19.4811 3.40396 18.6662 3.8621 18.1504L5.69023 16.0908C5.55847 15.8583 5.48222 15.5901 5.48222 15.3037V8.07324C5.48231 7.18969 6.19826 6.47368 7.08183 6.47363H9.97246L10.0935 6.48535ZM5.35038 18.2812H18.0154L16.5916 16.9033H7.08183C6.92572 16.9033 6.77523 16.8796 6.63261 16.8379L5.35038 18.2812Z" fill="#909090"/>
<path d="M15.532 10.875C16.0423 10.875 16.4559 11.2887 16.4559 11.7988C16.4558 12.3091 16.0423 12.7227 15.532 12.7227C15.0218 12.7226 14.6082 12.3091 14.6082 11.7988C14.6082 11.2887 15.0218 10.875 15.532 10.875Z" fill="#909090"/>
<path d="M16.5018 6.76562C16.7751 6.82161 16.9803 7.0636 16.9803 7.35352C16.9803 7.64343 16.7751 7.88542 16.5018 7.94141L16.3807 7.95312H14.6834C14.352 7.95312 14.0838 7.68489 14.0838 7.35352C14.0838 7.02214 14.352 6.75391 14.6834 6.75391H16.3807L16.5018 6.76562Z" fill="#909090"/>
<path fill-rule="evenodd" clip-rule="evenodd" d="M17.7225 4.62305C18.6061 4.62305 19.3221 5.339 19.3221 6.22266V12.9482C19.3221 13.8319 18.6061 14.5488 17.7225 14.5488H13.3416C12.4582 14.5486 11.742 13.8317 11.742 12.9482V6.22266C11.742 5.33916 12.4582 4.6233 13.3416 4.62305H17.7225ZM13.3416 5.82227C13.1209 5.82252 12.9412 6.0019 12.9412 6.22266V12.9482C12.9412 13.169 13.1209 13.3484 13.3416 13.3486H17.7225C17.9434 13.3486 18.1228 13.1692 18.1228 12.9482V6.22266C18.1228 6.00174 17.9434 5.82227 17.7225 5.82227H13.3416Z" fill="#909090"/>
</svg>
