<svg width="24" height="24" viewBox="0 0 24 24" fill="none" xmlns="http://www.w3.org/2000/svg">
<path d="M14.1201 18.4004C14.4515 18.4004 14.7197 18.6686 14.7197 19C14.7197 19.3313 14.4514 19.5996 14.1201 19.5996H8C7.66878 19.5995 7.40046 19.3312 7.40039 19C7.40039 18.6687 7.66874 18.4005 8 18.4004H14.1201Z" fill="#15C674"/>
<path d="M17.8574 5.06055C18.962 5.06055 19.8574 5.95598 19.8574 7.06055V9.27051C19.8574 9.6018 19.5891 9.87096 19.2578 9.87109C18.9264 9.87109 18.6572 9.60188 18.6572 9.27051V7.06055C18.6572 6.61872 18.2992 6.25977 17.8574 6.25977H6.10156C5.65973 6.25977 5.30078 6.61872 5.30078 7.06055V14.9395C5.30078 15.3813 5.65974 15.7393 6.10156 15.7393H12.4131C12.7445 15.7393 13.0137 16.0085 13.0137 16.3398C13.0135 16.6711 12.7444 16.9395 12.4131 16.9395H6.10156C4.99699 16.9395 4.10156 16.044 4.10156 14.9395V7.06055C4.10156 5.95598 4.99699 5.06055 6.10156 5.06055H17.8574Z" fill="#15C674"/>
<path d="M20.5732 11.626C20.7915 11.3768 21.1707 11.3521 21.4199 11.5703C21.6691 11.7886 21.6948 12.1677 21.4766 12.417L17.7227 16.7021C17.5059 16.9494 17.1305 16.9768 16.8809 16.7627L14.5723 14.7793C14.321 14.5634 14.2921 14.185 14.5078 13.9336C14.7237 13.6823 15.1021 13.6534 15.3535 13.8691L17.2109 15.4648L20.5732 11.626Z" fill="#15C674"/>
</svg>
