<svg width="24" height="24" viewBox="0 0 24 24" fill="none" xmlns="http://www.w3.org/2000/svg">
<path fill-rule="evenodd" clip-rule="evenodd" d="M15.9062 4.54395C16.3495 4.54408 16.7737 4.72773 17.0762 5.05176L18.6904 6.78125C18.9667 7.07747 19.1201 7.46795 19.1201 7.87305V11.5645C19.1201 11.8957 18.8517 12.1638 18.5205 12.1641C18.1892 12.164 17.9209 11.8958 17.9209 11.5645V8.18652H6.04395V17.1387C6.04395 17.3353 6.12642 17.5307 6.2832 17.6797C6.44105 17.8295 6.6617 17.9189 6.89746 17.9189H11.1465C11.4774 17.9195 11.7461 18.1885 11.7461 18.5195C11.7459 18.8504 11.4773 19.1186 11.1465 19.1191H6.89746C6.36284 19.1191 5.84408 18.9173 5.45703 18.5498C5.0689 18.1811 4.84375 17.6741 4.84375 17.1387V7.87305C4.84376 7.46784 4.99796 7.0775 5.27441 6.78125L6.88867 5.05176C7.19125 4.72774 7.61524 4.54395 8.05859 4.54395H15.9062ZM8.05859 5.74316C7.94782 5.74316 7.84126 5.79017 7.76562 5.87109L6.72461 6.9873H17.2412L16.1992 5.87109C16.1237 5.79014 16.017 5.7433 15.9062 5.74316H8.05859Z" fill="#15C674"/>
<path fill-rule="evenodd" clip-rule="evenodd" d="M16.4033 15.2607C16.9549 15.261 17.4032 15.7082 17.4033 16.2598L17.3975 16.3623C17.3462 16.866 16.9205 17.2595 16.4033 17.2598L16.3018 17.2539C15.7977 17.2029 15.4043 16.7773 15.4043 16.2598C15.4044 15.7081 15.8516 15.2609 16.4033 15.2607Z" fill="#15C674"/>
<path fill-rule="evenodd" clip-rule="evenodd" d="M16.4199 13.4033C17.9921 13.3737 19.1624 14.355 20.0352 15.4512C20.067 15.4911 20.1601 15.6013 20.2285 15.7109C20.3037 15.8315 20.3954 16.0195 20.3955 16.2588C20.3955 16.4962 20.306 16.6841 20.2324 16.8047C20.1659 16.9136 20.0738 17.0246 20.043 17.0645C19.1687 18.1957 17.9875 19.1471 16.4199 19.1172L16.4209 19.1182C16.4159 19.1183 16.4103 19.1171 16.4053 19.1172C16.3996 19.1171 16.3934 19.1182 16.3877 19.1182C14.7325 19.1497 13.4389 18.0983 12.5908 16.8301C12.5775 16.8101 12.5655 16.789 12.5547 16.7676L12.5537 16.7666C12.5533 16.7657 12.5524 16.7629 12.5518 16.7617C12.5506 16.7593 12.5486 16.7564 12.5469 16.7529C12.5433 16.7457 12.5386 16.7352 12.5332 16.7236C12.5227 16.7009 12.5079 16.6688 12.4932 16.6318C12.4763 16.5896 12.4121 16.4304 12.4121 16.2598C12.4122 16.0895 12.4765 15.9306 12.4932 15.8887C12.5079 15.8517 12.5227 15.8196 12.5332 15.7969C12.5385 15.7853 12.5434 15.7748 12.5469 15.7676C12.5485 15.7643 12.5496 15.7611 12.5508 15.7588C12.5513 15.7578 12.5523 15.7566 12.5527 15.7559L12.5537 15.7539L12.5957 15.6816C13.4406 14.4565 14.7275 13.3721 16.3877 13.4033C16.3934 13.4032 16.3996 13.4035 16.4053 13.4033C16.4103 13.4034 16.4159 13.4022 16.4209 13.4023L16.4199 13.4033ZM16.3877 14.6016C15.3341 14.5724 14.3935 15.2365 13.6572 16.2607C14.3833 17.3015 15.327 17.9483 16.3877 17.9189C16.3986 17.9187 16.41 17.9186 16.4209 17.9189C17.3781 17.9453 18.2003 17.4171 18.9443 16.5166L19.1357 16.2773C19.1398 16.2721 19.1437 16.2665 19.1475 16.2617C19.1448 16.2584 19.1416 16.2546 19.1387 16.251C19.1266 16.236 19.1104 16.2167 19.0957 16.1982C18.295 15.1926 17.4364 14.5737 16.4209 14.6016C16.41 14.6019 16.3986 14.6019 16.3877 14.6016Z" fill="#15C674"/>
<path d="M14.1611 10.1943C14.4923 10.1946 14.7617 10.4627 14.7617 10.7939C14.7617 11.5373 14.4711 12.2526 13.9512 12.7812C13.4309 13.3101 12.7225 13.6092 11.9824 13.6094C11.2423 13.6094 10.5341 13.31 10.0137 12.7812C9.49355 12.2526 9.20312 11.5375 9.20312 10.7939C9.20312 10.4626 9.47136 10.1943 9.80273 10.1943C10.1339 10.1946 10.4023 10.4627 10.4023 10.7939C10.4023 11.2254 10.5718 11.6373 10.8691 11.9395C11.1661 12.2411 11.5669 12.4092 11.9824 12.4092C12.3978 12.409 12.7989 12.2411 13.0957 11.9395C13.3928 11.6373 13.5615 11.2253 13.5615 10.7939C13.5615 10.4627 13.8299 10.1945 14.1611 10.1943Z" fill="#15C674"/>
</svg>
