<svg width="24" height="24" viewBox="0 0 24 24" fill="none" xmlns="http://www.w3.org/2000/svg">
<path fill-rule="evenodd" clip-rule="evenodd" d="M18.864 11.2461C19.8725 11.3485 20.6599 12.1999 20.6599 13.2354V17.6924L20.6492 17.8965C20.5538 18.8379 19.8055 19.586 18.864 19.6816L18.6599 19.6924H11.3836C10.279 19.6923 9.38357 18.7969 9.38357 17.6924V13.2354C9.38364 12.1309 10.2791 11.2354 11.3836 11.2354H18.6599L18.864 11.2461ZM10.5838 17.6924C10.5838 18.1342 10.9418 18.4921 11.3836 18.4922H18.6599C19.1016 18.492 19.4597 18.1341 19.4597 17.6924V13.2988L16.0896 16.0508C15.4581 16.5659 14.5488 16.56 13.9236 16.0371L10.5838 13.2432V17.6924ZM14.6941 15.1172C14.8779 15.2706 15.1452 15.2722 15.3308 15.1211L18.6209 12.4355H11.4881L14.6941 15.1172Z" fill="#15C674"/>
<path d="M9.93435 4.54492C11.5397 4.56239 12.9946 5.45811 13.74 6.77539C15.2003 6.46463 16.6391 6.99945 17.6179 7.98047C17.7911 8.15407 17.9508 8.34218 18.0945 8.54297C18.2872 8.81238 18.2251 9.18703 17.9558 9.37988C17.6863 9.57267 17.3117 9.51067 17.1189 9.24121C17.0134 9.09379 16.8959 8.95502 16.7683 8.82715C15.9537 8.01078 14.7577 7.64945 13.6219 8.05176C13.3189 8.15909 12.9852 8.008 12.865 7.70996C12.4133 6.58706 11.2411 5.75928 9.92361 5.74414C8.21939 5.74688 6.6313 7.27629 6.75466 8.96191C6.77411 9.22733 6.61605 9.47379 6.36697 9.56738C4.72653 10.1821 3.67191 11.703 3.69119 13.3682V13.375C3.69126 15.3167 5.05447 16.9372 6.86794 17.3252C7.19153 17.3948 7.39795 17.7134 7.32888 18.0371C7.25956 18.3611 6.93999 18.5683 6.61599 18.499C4.33069 18.0099 2.60167 16.0203 2.49587 13.6094L2.49099 13.375C2.46999 11.326 3.68228 9.48009 5.55056 8.60938C5.64574 6.33693 7.76161 4.54492 9.92849 4.54492H9.93435Z" fill="#15C674"/>
</svg>
