<svg width="24" height="24" viewBox="0 0 24 24" fill="none" xmlns="http://www.w3.org/2000/svg">
<path d="M17.5625 5.63965C18.9983 5.63972 20.1621 6.80339 20.1621 8.23926V8.50293C20.1619 8.83404 19.8937 9.10247 19.5625 9.10254C19.2313 9.10254 18.9622 8.83408 18.9619 8.50293V8.23926C18.9619 7.46613 18.3356 6.83894 17.5625 6.83887L6.45801 6.83984C6.45474 6.83984 6.4515 6.83892 6.44824 6.83887H6.38184C5.60864 6.83887 4.98145 7.46606 4.98145 8.23926V15.625C4.98145 16.3982 5.60864 17.0254 6.38184 17.0254H10.2363C10.5676 17.0255 10.8359 17.2937 10.8359 17.625C10.8359 17.9563 10.5676 18.2245 10.2363 18.2246H8.26172C8.33754 18.7199 8.76488 19.0996 9.28125 19.0996H11.4453C11.7767 19.0996 12.0459 19.3678 12.0459 19.6992C12.0459 20.0306 11.7767 20.2988 11.4453 20.2988H9.28125C8.10156 20.2988 7.13834 19.3837 7.05762 18.2246H6.38184C4.9459 18.2246 3.78223 17.0609 3.78223 15.625V8.23926C3.78223 6.80332 4.9459 5.63965 6.38184 5.63965H17.5625Z" fill="#909090"/>
<path fill-rule="evenodd" clip-rule="evenodd" d="M16.3457 13.1035C17.6795 12.8219 18.8618 13.9812 18.5742 15.3232C18.4217 16.0336 17.8605 16.5883 17.1504 16.7383C15.8165 17.0196 14.6355 15.8601 14.9229 14.5186C14.9989 14.1638 15.2035 13.8485 15.4395 13.6143C15.6755 13.3801 15.9913 13.1784 16.3457 13.1035ZM17.4014 15.0713C17.5035 14.594 17.0923 14.1722 16.5938 14.2773C16.5152 14.294 16.3969 14.3549 16.2842 14.4668C15.8286 14.9194 16.2516 15.7011 16.9033 15.5635C17.1538 15.5103 17.3491 15.3144 17.4014 15.0713Z" fill="#909090"/>
<path fill-rule="evenodd" clip-rule="evenodd" d="M16.25 10.2451C16.6386 10.2014 17.0333 10.1986 17.416 10.2432C18.0106 10.3126 18.4243 10.7529 18.584 11.2334L18.6357 11.3848C18.6887 11.5438 18.8467 11.643 19.0127 11.6201L19.1875 11.5957C19.6767 11.5276 20.2336 11.693 20.5674 12.1631C20.797 12.4865 20.9832 12.8343 21.123 13.1982C21.3298 13.7366 21.1579 14.2924 20.8301 14.6621L20.7129 14.7949C20.6018 14.9203 20.5964 15.107 20.6992 15.2393L20.8076 15.3809C21.1115 15.7707 21.2482 16.3374 21.0059 16.8623C20.8462 17.2079 20.642 17.5395 20.3926 17.8496C20.0297 18.3007 19.4598 18.4353 18.9697 18.335L18.7979 18.2998C18.6336 18.2664 18.4683 18.3554 18.4053 18.5107L18.332 18.6914C18.1458 19.1503 17.7214 19.5521 17.1445 19.6035C16.7582 19.6379 16.3668 19.625 15.9795 19.5615C15.4135 19.4686 15.0211 19.0433 14.8662 18.5781L14.8057 18.3945C14.7525 18.2356 14.5928 18.1371 14.4268 18.1602L14.249 18.1846C13.7596 18.2525 13.2006 18.0875 12.8672 17.6162C12.6386 17.2929 12.4544 16.9442 12.3154 16.5811C12.1096 16.0427 12.2812 15.4867 12.6094 15.1172L12.7275 14.9834C12.8387 14.858 12.845 14.6714 12.7422 14.5391L12.6309 14.3965C12.3272 14.0061 12.1925 13.4387 12.4355 12.9141C12.5954 12.569 12.7993 12.2374 13.0488 11.9277C13.4119 11.4771 13.982 11.3429 14.4717 11.4434L14.6426 11.4785C14.807 11.5123 14.972 11.424 15.0352 11.2686L15.0791 11.1611C15.2662 10.6997 15.6869 10.3085 16.25 10.2451ZM17.2764 11.4355C16.9913 11.4024 16.6885 11.4022 16.3838 11.4365C16.3243 11.4434 16.2397 11.4926 16.1914 11.6113L16.1475 11.7197C15.8668 12.4112 15.1324 12.8034 14.4014 12.6533L14.2305 12.6191C14.1013 12.5927 14.0169 12.6392 13.9834 12.6807C13.7953 12.9142 13.6422 13.1625 13.5234 13.4189C13.5033 13.463 13.4975 13.5554 13.5781 13.6592L13.6895 13.8018C14.1476 14.3906 14.1203 15.2234 13.625 15.7812L13.5068 15.9141C13.4196 16.0123 13.418 16.106 13.4355 16.1523C13.5392 16.4233 13.6768 16.6825 13.8467 16.9229C13.8747 16.9625 13.9526 17.0141 14.083 16.9961L14.2627 16.9717C15.0013 16.8692 15.7083 17.3074 15.9443 18.0146L16.0049 18.1982C16.0462 18.3224 16.1257 18.3691 16.1729 18.377C16.4602 18.4241 16.7519 18.4348 17.0391 18.4092C17.0874 18.4045 17.1702 18.3628 17.2197 18.2412L17.2939 18.0596C17.5744 17.3684 18.3073 16.9756 19.0381 17.125L19.2109 17.1592C19.3401 17.1855 19.4245 17.1393 19.458 17.0977C19.6462 16.8637 19.7985 16.6151 19.917 16.3584C19.9371 16.3146 19.9424 16.2221 19.8613 16.1182L19.7529 15.9785C19.2941 15.39 19.3204 14.5573 19.8154 13.999L19.9336 13.8662C20.0203 13.7681 20.0204 13.6748 20.0029 13.6289C19.8988 13.3578 19.7598 13.0982 19.5889 12.8574C19.5603 12.8176 19.4832 12.7663 19.3535 12.7842L19.1787 12.8086C18.4393 12.9115 17.7316 12.4712 17.4961 11.7627L17.4453 11.6113C17.4023 11.4821 17.32 11.4406 17.2764 11.4355Z" fill="#909090"/>
</svg>
