<svg width="24" height="24" viewBox="0 0 24 24" fill="none" xmlns="http://www.w3.org/2000/svg">
<path d="M16.1034 11.2478C16.4914 11.2044 16.8854 11.2023 17.2674 11.2468C17.8619 11.3163 18.2765 11.7554 18.4364 12.2361L18.4871 12.3894C18.5401 12.5486 18.699 12.6477 18.8651 12.6248L19.0428 12.6003C19.532 12.5323 20.0902 12.6969 20.4237 13.1677C20.6527 13.4911 20.8371 13.8395 20.9764 14.2029C21.1829 14.7415 21.0118 15.2979 20.6834 15.6677L20.5653 15.8005C20.454 15.9261 20.4485 16.1135 20.5516 16.2458L20.662 16.3874C20.9659 16.7775 21.1021 17.3443 20.8602 17.8689C20.7012 18.2138 20.4975 18.5452 20.2489 18.8552C19.886 19.3077 19.3144 19.4422 18.8241 19.3415L18.6512 19.3054C18.4869 19.2717 18.3219 19.3601 18.2586 19.5154L18.1834 19.6999C17.9971 20.1591 17.5729 20.5608 16.9959 20.6121C16.6103 20.6463 16.2195 20.6323 15.8329 20.5691C15.2661 20.4765 14.8744 20.0513 14.7196 19.5857L14.658 19.4001C14.6051 19.2409 14.4454 19.1417 14.2791 19.1648L14.0995 19.1902C13.6098 19.2583 13.051 19.0926 12.7176 18.6208C12.4895 18.298 12.3057 17.9503 12.1668 17.5876C11.9607 17.0493 12.1316 16.4934 12.4598 16.1238L12.5799 15.989C12.6911 15.8635 12.6966 15.677 12.5936 15.5447L12.4832 15.4031C12.1791 15.0127 12.0436 14.4454 12.286 13.9206C12.4454 13.5756 12.6501 13.2443 12.8993 12.9343C13.2622 12.4828 13.8323 12.3484 14.3221 12.449L14.494 12.4841C14.6583 12.5179 14.8234 12.4296 14.8866 12.2742L14.9315 12.1638C15.1186 11.7025 15.54 11.3109 16.1034 11.2478ZM17.1278 12.4382C16.843 12.4051 16.5412 12.4062 16.2371 12.4402C16.1777 12.4468 16.0922 12.4956 16.0438 12.615L15.9989 12.7253C15.7182 13.4169 14.9839 13.81 14.2528 13.6599L14.0809 13.6248C13.9513 13.5981 13.867 13.644 13.8338 13.6853C13.6462 13.9187 13.4944 14.167 13.3758 14.4236C13.3554 14.4679 13.3494 14.5607 13.4305 14.6648L13.5409 14.8064C13.9995 15.3951 13.9727 16.2277 13.4774 16.7859L13.3573 16.9206C13.2699 17.0191 13.2693 17.1128 13.287 17.1589C13.3906 17.4296 13.5283 17.6883 13.6981 17.9285C13.7262 17.9682 13.8037 18.0199 13.9344 18.0017L14.1141 17.9763C14.8534 17.8734 15.5611 18.3129 15.7967 19.0212L15.8582 19.2068C15.8996 19.3312 15.9792 19.3778 16.0262 19.3855C16.3128 19.4323 16.6029 19.4422 16.8895 19.4167C16.9379 19.4124 17.0214 19.3713 17.0711 19.2488L17.1463 19.0642C17.427 18.3728 18.1614 17.9795 18.8924 18.1296L19.0662 18.1658C19.1957 18.1922 19.2792 18.1455 19.3123 18.1042C19.4996 17.8708 19.6521 17.6225 19.7704 17.366C19.7906 17.3215 19.7965 17.2285 19.7157 17.1248L19.6043 16.9831C19.1456 16.3944 19.1723 15.5618 19.6678 15.0037L19.786 14.8708C19.8734 14.7724 19.874 14.6788 19.8563 14.6326C19.7523 14.3614 19.6146 14.1017 19.4442 13.8611C19.416 13.8214 19.3382 13.7707 19.2079 13.7888L19.0311 13.8132C18.2918 13.9161 17.5841 13.4766 17.3485 12.7683L17.2977 12.615C17.2547 12.4858 17.1716 12.4433 17.1278 12.4382Z" fill="#15C674"/>
<path d="M17.2284 15.9236C17.2282 15.5592 16.9326 15.2634 16.5682 15.2634C16.2039 15.2635 15.9082 15.5593 15.908 15.9236C15.908 16.288 16.2038 16.5836 16.5682 16.5837C16.9327 16.5837 17.2284 16.2881 17.2284 15.9236ZM18.4286 15.9236C18.4286 16.9508 17.5955 17.7839 16.5682 17.7839C15.5411 17.7838 14.7088 16.9508 14.7088 15.9236C14.709 14.8965 15.5411 14.0643 16.5682 14.0642C17.5954 14.0642 18.4284 14.8964 18.4286 15.9236Z" fill="#15C674"/>
<path d="M9.14681 4.03418C9.71642 4.03418 10.2431 4.33682 10.5296 4.8291L10.9095 5.48047C11.1084 5.82237 11.1084 6.24499 10.9095 6.58691L10.5296 7.23828C10.2431 7.73064 9.71647 8.03418 9.14681 8.03418H5.72982C4.84617 8.03418 4.13021 7.31725 4.13021 6.43359V5.63379C4.13021 4.75013 4.84617 4.03418 5.72982 4.03418H9.14681ZM5.32943 6.43359C5.32943 6.65451 5.50891 6.83398 5.72982 6.83398H9.14681C9.28923 6.83398 9.42089 6.75785 9.49252 6.63477L9.84213 6.0332L9.49252 5.43262C9.42087 5.30961 9.28917 5.2334 9.14681 5.2334H5.72982C5.50891 5.2334 5.32943 5.41288 5.32943 5.63379V6.43359Z" fill="#15C674"/>
<path d="M17.2581 4.03418C17.8278 4.03418 18.3544 4.33682 18.641 4.8291L19.0208 5.48047C19.2198 5.82237 19.2197 6.24499 19.0208 6.58691L18.641 7.23828C18.3544 7.73064 17.8278 8.03418 17.2581 8.03418H13.8412C12.9575 8.03418 12.2415 7.31725 12.2415 6.43359V5.63379C12.2415 4.75013 12.9575 4.03418 13.8412 4.03418H17.2581ZM13.4408 6.43359C13.4408 6.65451 13.6202 6.83398 13.8412 6.83398H17.2581C17.4006 6.83398 17.5322 6.75785 17.6038 6.63477L17.9535 6.0332L17.6038 5.43262C17.5322 5.30961 17.4005 5.2334 17.2581 5.2334H13.8412C13.6202 5.2334 13.4408 5.41288 13.4408 5.63379V6.43359Z" fill="#15C674"/>
<path d="M9.59326 10.6457C9.59326 10.4248 9.41378 10.2454 9.19287 10.2454H5.64307C5.42215 10.2454 5.24268 10.4248 5.24268 10.6457V17.217C5.24268 17.438 5.42215 17.6174 5.64307 17.6174H9.19287C9.41378 17.6174 9.59326 17.438 9.59326 17.217V10.6457ZM10.7935 17.217C10.7935 18.1007 10.0765 18.8176 9.19287 18.8176H5.64307C4.75941 18.8176 4.04346 18.1007 4.04346 17.217V10.6457C4.04346 9.76209 4.75941 9.04614 5.64307 9.04614H9.19287C10.0765 9.04614 10.7935 9.76209 10.7935 10.6457V17.217Z" fill="#15C674"/>
<path d="M12.2415 10.4997C12.2415 9.7476 12.8508 9.13833 13.6029 9.13833H17.7025C18.0338 9.13833 18.3031 9.40657 18.3031 9.73794C18.3031 10.0693 18.0338 10.3375 17.7025 10.3375H13.6029C13.5136 10.3375 13.4408 10.4103 13.4408 10.4997C13.4408 10.831 13.1725 11.0993 12.8412 11.0993C12.5098 11.0993 12.2415 10.831 12.2415 10.4997Z" fill="#15C674"/>
</svg>
