<svg width="24" height="24" viewBox="0 0 24 24" fill="none" xmlns="http://www.w3.org/2000/svg">
<path d="M9 16.4004C9.88366 16.4004 10.5996 17.1163 10.5996 18C10.5996 18.8837 9.88366 19.5996 9 19.5996C8.11634 19.5996 7.40039 18.8837 7.40039 18C7.40039 17.1163 8.11634 16.4004 9 16.4004Z" fill="#15C674"/>
<path d="M16 16.4004C16.8837 16.4004 17.5996 17.1163 17.5996 18C17.5996 18.8837 16.8837 19.5996 16 19.5996C15.1163 19.5996 14.4004 18.8837 14.4004 18C14.4004 17.1163 15.1163 16.4004 16 16.4004Z" fill="#15C674"/>
<path d="M14.4814 9.31055C14.717 9.07793 15.0972 9.08008 15.3301 9.31543C15.5629 9.55096 15.5605 9.93106 15.3252 10.1641L12.5566 12.9014C12.3378 13.1178 11.9905 13.1342 11.7529 12.9385L10.0918 11.5693C9.83631 11.3586 9.80007 10.9802 10.0107 10.7246C10.2215 10.4693 10.5999 10.433 10.8555 10.6436L12.0977 11.667L14.4814 9.31055Z" fill="#15C674"/>
<path fill-rule="evenodd" clip-rule="evenodd" d="M5.59961 4.40918C5.83416 4.4498 6.02713 4.62689 6.08203 4.86523L6.50098 6.68555H19C19.1791 6.68555 19.3489 6.76609 19.4629 6.9043C19.5766 7.04238 19.6228 7.22377 19.5889 7.39941L18.3535 13.7666C18.258 14.2636 18.0153 14.7232 17.6484 15.0615C17.2798 15.4014 16.8071 15.5986 16.3066 15.5996H8.98535C8.47918 15.6086 7.99753 15.4167 7.62109 15.0762C7.24878 14.7394 7.00177 14.2786 6.90332 13.7793L5.01953 5.59961H4C3.66863 5.59961 3.40039 5.33137 3.40039 5C3.40039 4.66863 3.66863 4.40039 4 4.40039H5.49707L5.59961 4.40918ZM8.07227 13.5107L8.07812 13.5352C8.12897 13.8062 8.25778 14.0334 8.42578 14.1855C8.59209 14.336 8.78516 14.4041 8.96973 14.3994H16.3047C16.4854 14.399 16.6731 14.3289 16.835 14.1797C16.9987 14.0287 17.1248 13.8059 17.1758 13.541L18.2725 7.88574H6.77734L8.07227 13.5107Z" fill="#15C674"/>
</svg>
