<svg width="24" height="24" viewBox="0 0 24 24" fill="none" xmlns="http://www.w3.org/2000/svg">
<path d="M17.6616 9.26562L17.6616 16.0303C17.6616 16.9139 16.9447 17.6309 16.061 17.6309L7.9585 17.6309C7.07484 17.6309 6.35791 16.9139 6.35791 16.0303L6.35791 7.90137C6.35791 7.01771 7.07484 6.30078 7.9585 6.30078L14.7974 6.30078C14.9608 6.30087 15.1169 6.3683 15.23 6.48633L17.4946 8.85156C17.6013 8.9631 17.6615 9.11128 17.6616 9.26562ZM18.8608 9.26562C18.8607 8.8021 18.6823 8.35637 18.3618 8.02148L16.0972 5.65625C15.7577 5.30174 15.2882 5.10165 14.7974 5.10156L7.9585 5.10156C6.4121 5.10156 5.15869 6.35497 5.15869 7.90137L5.15869 16.0303C5.15869 17.5767 6.4121 18.8301 7.9585 18.8301L16.061 18.8301C17.6074 18.8301 18.8608 17.5767 18.8608 16.0303L18.8608 9.26562Z" fill="#15C674"/>
<path d="M13.9507 6.05176V8.40234C13.9507 9.286 14.6666 10.002 15.5503 10.002H18.1138C18.4449 10.0017 18.7134 9.73355 18.7134 9.40234C18.7134 9.07114 18.4449 8.803 18.1138 8.80273L15.5503 8.80274C15.3294 8.80274 15.1499 8.62326 15.1499 8.40234V6.05176C15.1499 5.72039 14.8817 5.45117 14.5503 5.45117C14.2189 5.45117 13.9507 5.72039 13.9507 6.05176Z" fill="#15C674"/>
<path d="M9.07031 10.1299C8.82741 9.90451 8.44805 9.91824 8.22266 10.1611C7.82106 10.5939 7.53378 11.1281 7.40527 11.665C7.27862 12.1945 7.29303 12.7938 7.5957 13.292C7.9158 13.8188 8.48353 14.1111 9.19922 14.1396C9.89242 14.1672 10.7509 13.9539 11.7852 13.4736C12.6195 13.0862 13.1474 12.9294 13.4678 12.8936C13.6068 12.8781 13.6795 12.8886 13.7129 12.8975C13.7223 12.9293 13.7401 13.0136 13.7344 13.1943C13.7308 13.3072 13.7208 13.425 13.709 13.5625C13.6979 13.6908 13.6846 13.8431 13.6846 13.9873C13.6846 14.5998 14.142 14.9726 14.6143 15.0928C15.078 15.2107 15.6277 15.1288 16.1602 14.874C16.4591 14.731 16.5854 14.3722 16.4424 14.0732C16.2993 13.7746 15.9413 13.6483 15.6426 13.791C15.2924 13.9586 15.0339 13.9611 14.9102 13.9297C14.9023 13.9277 14.8958 13.9239 14.8896 13.9219C14.8924 13.8509 14.8955 13.7678 14.9043 13.666C14.9151 13.5402 14.9297 13.3852 14.9346 13.2324C14.9433 12.9572 14.9338 12.5139 14.668 12.1602C14.3568 11.7463 13.8588 11.6428 13.335 11.7012C12.8196 11.7587 12.1509 11.9806 11.2803 12.3848C10.3319 12.8251 9.67271 12.9573 9.24707 12.9404C8.84384 12.9243 8.68985 12.7821 8.62109 12.6689C8.53493 12.5271 8.49192 12.2802 8.57227 11.9443C8.65083 11.6161 8.83562 11.2652 9.10254 10.9775C9.3279 10.7346 9.3132 10.3553 9.07031 10.1299Z" fill="#15C674"/>
</svg>
