<svg width="24" height="24" viewBox="0 0 24 24" fill="none" xmlns="http://www.w3.org/2000/svg">
<path d="M17.0327 5.63184C16.867 5.63184 16.7319 5.76693 16.7319 5.93262L16.7319 18.0156C16.7319 18.1813 16.867 18.3164 17.0327 18.3164L18.4321 18.3164C18.5978 18.3164 18.7319 18.1813 18.7319 18.0156L18.7319 5.93262C18.7319 5.76693 18.5978 5.63184 18.4321 5.63184L17.0327 5.63184ZM18.4321 4.43262C19.2606 4.43262 19.9321 5.10419 19.9321 5.93262L19.9321 18.0156C19.9321 18.8441 19.2606 19.5156 18.4321 19.5156L17.0327 19.5156C16.2043 19.5156 15.5327 18.8441 15.5327 18.0156L15.5327 5.93262C15.5327 5.10419 16.2043 4.43262 17.0327 4.43262L18.4321 4.43262Z" fill="#15C674"/>
<path d="M11.4229 8.43555C11.2572 8.43555 11.1221 8.57064 11.1221 8.73633L11.1221 18.0156C11.1221 18.1813 11.2572 18.3164 11.4229 18.3164H12.8223C12.988 18.3164 13.1221 18.1813 13.1221 18.0156L13.1221 8.73633C13.1221 8.57064 12.988 8.43555 12.8223 8.43555L11.4229 8.43555ZM12.8223 7.23633C13.6507 7.23633 14.3223 7.9079 14.3223 8.73633L14.3223 18.0156C14.3223 18.8441 13.6507 19.5156 12.8223 19.5156H11.4229C10.5944 19.5156 9.92285 18.8441 9.92285 18.0156L9.92285 8.73633C9.92285 7.9079 10.5944 7.23633 11.4229 7.23633L12.8223 7.23633Z" fill="#15C674"/>
<path d="M5.79639 10.29C5.6307 10.29 5.49561 10.4251 5.49561 10.5908L5.49561 18.0156C5.49561 18.1813 5.6307 18.3164 5.79639 18.3164L7.1958 18.3164C7.36149 18.3164 7.49561 18.1813 7.49561 18.0156L7.49561 10.5908C7.49561 10.4251 7.36149 10.29 7.1958 10.29L5.79639 10.29ZM7.1958 9.09082C8.02423 9.09082 8.6958 9.76239 8.6958 10.5908L8.6958 18.0156C8.6958 18.8441 8.02423 19.5156 7.1958 19.5156L5.79639 19.5156C4.96796 19.5156 4.29639 18.8441 4.29639 18.0156L4.29639 10.5908C4.29639 9.76239 4.96796 9.09082 5.79639 9.09082L7.1958 9.09082Z" fill="#15C674"/>
</svg>
