<svg width="24" height="24" viewBox="0 0 24 24" fill="none" xmlns="http://www.w3.org/2000/svg">
<path d="M9.28076 10.9561C9.28076 10.1829 9.90795 9.55566 10.6812 9.55566H17.3589C18.1321 9.55566 18.7593 10.1829 18.7593 10.9561V17.2793C18.7593 18.0525 18.1321 18.6797 17.3589 18.6797H10.6812C9.90795 18.6797 9.28076 18.0525 9.28076 17.2793V10.9561ZM8.08057 17.2793C8.08057 18.7152 9.24521 19.8789 10.6812 19.8789H17.3589C18.7948 19.8789 19.9585 18.7152 19.9585 17.2793V10.9561C19.9585 9.52011 18.7948 8.35645 17.3589 8.35645H10.6812C9.24521 8.35645 8.08057 9.52011 8.08057 10.9561V17.2793Z" fill="#15C674"/>
<path d="M6.12695 8.21973C6.45825 8.21982 6.72754 8.48802 6.72754 8.81934C6.72748 9.15044 6.45896 9.41859 6.12793 9.41895H5.81055L5.81152 18.6533H6.12695C6.45825 18.6534 6.72754 18.9216 6.72754 19.2529C6.72741 19.584 6.45892 19.8522 6.12793 19.8525H4.2959C3.96461 19.8525 3.69642 19.5842 3.69629 19.2529C3.69629 18.9217 3.96378 18.6536 4.29492 18.6533H4.6123L4.61133 9.41895H4.2959C3.96456 9.41895 3.69634 9.15066 3.69629 8.81934C3.69629 8.48813 3.96378 8.21999 4.29492 8.21973H6.12695Z" fill="#15C674"/>
<path d="M19.3438 3.74805C19.6748 3.74818 19.943 4.01667 19.9434 4.34766V6.17969C19.9434 6.51081 19.6758 6.77988 19.3447 6.78027C19.0135 6.78027 18.7444 6.51181 18.7441 6.18066V5.86328L9.2041 5.86426V6.17969C9.2041 6.51106 8.93586 6.7793 8.60449 6.7793C8.27351 6.77884 8.00488 6.51078 8.00488 6.17969V4.34766C8.00497 4.01664 8.27356 3.7485 8.60449 3.74805C8.93581 3.74805 9.20401 4.01636 9.2041 4.34766V4.66504L18.7441 4.66406V4.34863C18.7442 4.0175 19.0127 3.74831 19.3438 3.74805Z" fill="#15C674"/>
</svg>
