<svg width="20" height="20" viewBox="0 0 20 20" fill="none" xmlns="http://www.w3.org/2000/svg">
<path fill-rule="evenodd" clip-rule="evenodd" d="M12.1064 3.24023C12.5928 3.24037 13.0572 3.4378 13.3975 3.78418C13.7373 4.13034 13.9267 4.59752 13.9268 5.08203C13.9268 5.26759 13.8981 5.45041 13.8447 5.625H14.627C15.5382 5.625 16.2773 6.36412 16.2773 7.27539V8.49121C16.2772 9.09203 15.9548 9.61593 15.4746 9.9043V14.4473C15.4745 15.5791 14.5565 16.4966 13.4248 16.4971H6.57812C5.44599 16.4971 4.52743 15.5794 4.52734 14.4473V9.90527C4.04613 9.61715 3.72276 9.09281 3.72266 8.49121V7.27539C3.72266 6.36412 4.46178 5.625 5.37305 5.625H6.1543C6.10095 5.4504 6.07324 5.26757 6.07324 5.08203C6.07327 4.59744 6.26257 4.13036 6.60254 3.78418C6.94287 3.43779 7.40721 3.24032 7.89355 3.24023C8.94739 3.24045 9.61396 3.92896 10 4.5459C10.3861 3.9289 11.0524 3.24033 12.1064 3.24023ZM10.6504 10.1406V15.1973H13.4248C13.8385 15.1968 14.1747 14.8611 14.1748 14.4473V10.1406H10.6504ZM5.82812 14.4473C5.82821 14.8614 6.16396 15.1973 6.57812 15.1973H9.34961V10.1406H5.82812V14.4473ZM5.37305 6.92578C5.17975 6.92578 5.02344 7.08209 5.02344 7.27539V8.49121C5.02359 8.68438 5.17984 8.84082 5.37305 8.84082H9.34961V6.92578H5.37305ZM10.6504 8.84082H14.627C14.8202 8.84082 14.9764 8.68438 14.9766 8.49121V7.27539C14.9766 7.08209 14.8203 6.92578 14.627 6.92578H10.6504V8.84082ZM7.89355 4.54102C7.75961 4.5411 7.62867 4.59525 7.53027 4.69531C7.43143 4.79598 7.37405 4.93473 7.37402 5.08203C7.37402 5.22932 7.43147 5.36807 7.53027 5.46875C7.62867 5.56881 7.75961 5.62394 7.89355 5.62402H9.10254C9.06821 5.54732 9.03109 5.46809 8.98926 5.39062C8.70289 4.86068 8.3449 4.54125 7.89355 4.54102ZM12.1064 4.54102C11.655 4.54112 11.2972 4.86057 11.0107 5.39062C10.9689 5.46816 10.9318 5.54725 10.8975 5.62402H12.1064C12.2404 5.62389 12.3723 5.56892 12.4707 5.46875C12.5692 5.36811 12.627 5.22908 12.627 5.08203C12.6269 4.93497 12.5693 4.79594 12.4707 4.69531C12.3723 4.59514 12.2404 4.54115 12.1064 4.54102Z" fill="#A7A7A7"/>
</svg>
