<svg width="20" height="20" viewBox="0 0 20 20" fill="none" xmlns="http://www.w3.org/2000/svg">
<path d="M15.9668 10C15.9668 6.70452 13.2955 4.0332 10 4.0332C6.70452 4.0332 4.0332 6.70452 4.0332 10C4.0332 13.2955 6.70452 15.9668 10 15.9668C13.2955 15.9668 15.9668 13.2955 15.9668 10ZM12.4336 9.26953C12.82 9.26475 13.1377 9.57446 13.1426 9.96094C13.1474 10.3474 12.8377 10.665 12.4512 10.6699L7.56641 10.7324C7.17987 10.7373 6.8624 10.4275 6.85742 10.041C6.8525 9.65457 7.16145 9.33715 7.54785 9.33203L12.4336 9.26953ZM17.3672 10C17.3672 14.0687 14.0687 17.3672 10 17.3672C5.93133 17.3672 2.63281 14.0687 2.63281 10C2.63281 5.93133 5.93133 2.63281 10 2.63281C14.0687 2.63281 17.3672 5.93133 17.3672 10Z" fill="#A7A7A7"/>
</svg>
