<svg width="20" height="20" viewBox="0 0 20 20" fill="none" xmlns="http://www.w3.org/2000/svg">
<path fill-rule="evenodd" clip-rule="evenodd" d="M9.98926 5.64453C10.3482 5.64453 10.6396 5.93594 10.6396 6.29492V7.0293H12.6572V6.29688C12.6572 5.93789 12.9486 5.64648 13.3076 5.64648C13.6664 5.64675 13.958 5.93805 13.958 6.29688V7.0293H14.2295C15.4167 7.02956 16.3799 7.99244 16.3799 9.17969V10.3066C16.3799 10.3099 16.3809 10.3131 16.3809 10.3164C16.3809 10.322 16.3799 10.3275 16.3799 10.333V14.3193C16.3799 15.5066 15.4167 16.4695 14.2295 16.4697H5.76953C4.58212 16.4697 3.61816 15.5067 3.61816 14.3193V9.17969C3.61816 7.99228 4.58212 7.0293 5.76953 7.0293H5.83008V6.29688C5.83008 5.93789 6.12148 5.64648 6.48047 5.64648C6.83923 5.64675 7.13086 5.93805 7.13086 6.29688V7.0293H9.33887V6.29492C9.33887 5.93594 9.63027 5.64453 9.98926 5.64453ZM7.14355 11.6338C6.74955 11.9559 6.22457 12.1367 5.70801 12.1367C5.44126 12.1367 5.17234 12.0876 4.91992 11.9971V14.3193C4.91992 14.7888 5.30009 15.1689 5.76953 15.1689H14.2295C14.6987 15.1687 15.0791 14.7886 15.0791 14.3193V12.001C14.8295 12.0892 14.5641 12.1367 14.3008 12.1367C13.7868 12.1367 13.2635 11.9588 12.8701 11.6396C12.4768 11.9585 11.9542 12.1367 11.4404 12.1367C10.9267 12.1367 10.404 11.9585 10.0107 11.6396C9.61754 11.9586 9.0948 12.1366 8.58105 12.1367C8.06416 12.1367 7.53767 11.9564 7.14355 11.6338ZM5.76953 8.33008C5.30009 8.33008 4.91992 8.71025 4.91992 9.17969V10.2314C4.92359 10.2594 4.92871 10.2875 4.92871 10.3164C4.92871 10.488 5.14957 10.8368 5.70801 10.8369C6.26664 10.8369 6.48828 10.488 6.48828 10.3164C6.48828 9.95742 6.77969 9.66602 7.13867 9.66602H7.15137C7.51013 9.66628 7.80176 9.95758 7.80176 10.3164C7.80176 10.488 8.02262 10.8368 8.58105 10.8369C9.13933 10.8367 9.36035 10.4879 9.36035 10.3164C9.36035 9.95742 9.65176 9.66602 10.0107 9.66602C10.1899 9.66627 10.3533 9.73886 10.4707 9.85645C10.5884 9.97417 10.6611 10.1369 10.6611 10.3164C10.6611 10.488 10.882 10.8368 11.4404 10.8369C11.9991 10.8369 12.2207 10.488 12.2207 10.3164C12.2207 9.95742 12.5121 9.66602 12.8711 9.66602C12.9159 9.66605 12.9597 9.671 13.002 9.67969C13.2983 9.74035 13.5215 10.0023 13.5215 10.3164C13.5215 10.488 13.7423 10.8368 14.3008 10.8369C14.8459 10.8369 15.0685 10.5046 15.0791 10.3291V9.17969C15.0791 8.71041 14.6987 8.33034 14.2295 8.33008H5.76953Z" fill="#A7A7A7"/>
<path d="M6.50098 2.99219C6.60117 2.99219 7.41984 3.71623 7.41992 4.3418C7.41992 4.44803 7.40036 4.54962 7.36719 4.64453C7.342 4.71659 7.30798 4.78407 7.2666 4.84668C7.26126 4.85475 7.25656 4.8632 7.25098 4.87109C7.24186 4.88399 7.23143 4.89581 7.22168 4.9082C7.19262 4.94511 7.16123 4.97969 7.12695 5.01172C7.12139 5.01692 7.11604 5.02228 7.11035 5.02734C7.07543 5.05839 7.03841 5.08682 6.99902 5.1123C6.98295 5.12272 6.96693 5.13316 6.9502 5.14258C6.9441 5.146 6.93782 5.14906 6.93164 5.15234C6.91495 5.16124 6.89814 5.16986 6.88086 5.17773C6.87052 5.18244 6.86015 5.18708 6.84961 5.19141C6.74201 5.23565 6.62447 5.26074 6.50098 5.26074L6.40723 5.25586C6.31885 5.24686 6.23443 5.22467 6.15527 5.19238C6.14106 5.18659 6.12713 5.1803 6.11328 5.17383C6.10006 5.16764 6.08709 5.16109 6.07422 5.1543C6.03139 5.13173 5.99064 5.10595 5.95215 5.07715C5.94714 5.0734 5.94243 5.06928 5.9375 5.06543C5.89869 5.03513 5.86256 5.00186 5.8291 4.96582C5.82376 4.96007 5.81867 4.95413 5.81348 4.94824C5.7824 4.91301 5.75396 4.87566 5.72852 4.83594C5.68959 4.77513 5.65669 4.71007 5.63281 4.64062C5.6287 4.62868 5.62472 4.61666 5.62109 4.60449C5.61736 4.59196 5.61453 4.57916 5.61133 4.56641C5.60063 4.52384 5.59242 4.48024 5.58789 4.43555C5.58476 4.40472 5.58301 4.37345 5.58301 4.3418C5.58302 4.25425 5.5985 4.16627 5.62402 4.0791C5.64502 4.00739 5.67327 3.93649 5.70703 3.86719C5.71778 3.84512 5.72944 3.82346 5.74121 3.80176C5.7661 3.75588 5.79274 3.71077 5.82129 3.66699C6.02181 3.35949 6.29616 3.11051 6.43066 3.02441C6.4634 3.00346 6.48803 2.99245 6.50098 2.99219Z" fill="#A7A7A7"/>
<path d="M10.0156 3C10.0958 3.03772 10.2959 3.20516 10.4863 3.43262C10.5405 3.49729 10.5939 3.56684 10.6436 3.63965C10.743 3.78568 10.8269 3.94505 10.8721 4.10449C10.8946 4.18409 10.9082 4.26367 10.9082 4.3418L10.9033 4.43555C10.8893 4.57431 10.8423 4.70288 10.7734 4.81641C10.7696 4.82276 10.7667 4.82968 10.7627 4.83594C10.7551 4.84782 10.7474 4.85959 10.7393 4.87109C10.7303 4.88382 10.7206 4.89596 10.7109 4.9082C10.6808 4.94656 10.6471 4.98156 10.6113 5.01465C10.6074 5.01826 10.6036 5.02185 10.5996 5.02539C10.5632 5.05793 10.5247 5.08779 10.4834 5.11426C10.4468 5.13776 10.409 5.15953 10.3691 5.17773C10.3585 5.18257 10.3477 5.18697 10.3369 5.19141C10.2296 5.23548 10.1124 5.26068 9.98926 5.26074L9.89551 5.25586C9.80759 5.2469 9.72333 5.22438 9.64453 5.19238C9.63003 5.1865 9.61569 5.18042 9.60156 5.17383C9.58833 5.16765 9.57538 5.16108 9.5625 5.1543C9.52046 5.13217 9.48026 5.10724 9.44238 5.0791C9.43548 5.07397 9.42863 5.0688 9.42188 5.06348C9.38358 5.03332 9.34846 4.99963 9.31543 4.96387C9.31183 4.95997 9.30822 4.95611 9.30469 4.95215C9.27065 4.91399 9.23927 4.87355 9.21191 4.83008C9.20811 4.82403 9.20484 4.81767 9.20117 4.81152C9.19101 4.79451 9.18094 4.77746 9.17188 4.75977C9.16756 4.75135 9.16324 4.74294 9.15918 4.73438C9.13943 4.69269 9.12274 4.64934 9.10938 4.60449C9.09636 4.56082 9.08651 4.51585 9.08008 4.46973C9.07425 4.42793 9.07129 4.3852 9.07129 4.3418C9.07132 4.11071 9.17354 3.87554 9.30957 3.66699C9.5099 3.35986 9.78337 3.11069 9.91797 3.02441C9.95128 3.00306 9.97639 2.99219 9.98926 2.99219L10.0156 3Z" fill="#A7A7A7"/>
<path d="M13.3057 2.99219C13.4059 2.99219 14.2245 3.71623 14.2246 4.3418C14.2246 4.4465 14.2061 4.54688 14.1738 4.64062C14.1485 4.7142 14.1134 4.78288 14.0713 4.84668C14.066 4.85475 14.0612 4.8632 14.0557 4.87109C14.0465 4.88399 14.0361 4.89581 14.0264 4.9082C13.9973 4.94511 13.9659 4.97969 13.9316 5.01172C13.9261 5.01692 13.9207 5.02228 13.915 5.02734C13.8801 5.05839 13.8431 5.08682 13.8037 5.1123C13.7876 5.12272 13.7716 5.13316 13.7549 5.14258C13.7488 5.146 13.7425 5.14906 13.7363 5.15234C13.7225 5.15973 13.7086 5.16714 13.6943 5.17383C13.6811 5.17999 13.6678 5.18586 13.6543 5.19141C13.5467 5.23565 13.4292 5.26074 13.3057 5.26074L13.2119 5.25586C13.1235 5.24686 13.0391 5.22467 12.96 5.19238C12.9458 5.18659 12.9318 5.1803 12.918 5.17383C12.9047 5.16764 12.8918 5.16109 12.8789 5.1543C12.8361 5.13173 12.7953 5.10595 12.7568 5.07715C12.7509 5.07269 12.7451 5.06807 12.7393 5.06348C12.7015 5.03376 12.6665 5.001 12.6338 4.96582C12.6285 4.96007 12.6234 4.95413 12.6182 4.94824C12.5871 4.91301 12.5586 4.87566 12.5332 4.83594C12.4943 4.77513 12.4614 4.71007 12.4375 4.64062C12.4334 4.62868 12.4294 4.61666 12.4258 4.60449C12.422 4.59196 12.4192 4.57916 12.416 4.56641C12.4053 4.52384 12.3971 4.48024 12.3926 4.43555C12.3895 4.40472 12.3877 4.37345 12.3877 4.3418C12.3877 4.25425 12.4032 4.16627 12.4287 4.0791C12.4497 4.00739 12.478 3.93649 12.5117 3.86719C12.5225 3.84512 12.5341 3.82346 12.5459 3.80176C12.5708 3.75588 12.5974 3.71077 12.626 3.66699C12.8265 3.35949 13.1008 3.11051 13.2354 3.02441C13.2681 3.00346 13.2927 2.99245 13.3057 2.99219Z" fill="#A7A7A7"/>
</svg>
