<svg width="20" height="20" viewBox="0 0 20 20" fill="none" xmlns="http://www.w3.org/2000/svg">
<path fill-rule="evenodd" clip-rule="evenodd" d="M8.46326 3.52849C9.30141 3.59945 10.1568 3.97022 10.7138 4.70439C10.8931 4.94071 11.0354 5.17158 11.1464 5.40604C11.1884 5.3897 11.2298 5.37424 11.2707 5.35901C11.3335 5.33558 11.3948 5.31268 11.4545 5.28795C13.0909 4.59518 15.0296 5.21129 15.7126 6.83796C15.7795 6.99713 15.7802 7.17635 15.7148 7.33609C15.6493 7.49583 15.523 7.62297 15.3637 7.68946L14.9295 7.87068C16.0509 8.80189 16.5942 10.3268 15.9578 11.7037C15.9432 11.7353 15.9263 11.7652 15.9076 11.7933C15.7369 12.0485 15.4037 12.154 15.1115 12.0288L13.1848 11.2031L12.9877 11.1174L11.9789 10.6847L11.3253 10.4058C11.143 11.5776 10.9662 13.1825 11.4873 15.7032C11.5268 15.8946 11.4781 16.0937 11.3547 16.2452C11.2313 16.3968 11.0462 16.4848 10.8507 16.4848H7.45194C7.11817 16.4848 6.83864 16.232 6.80521 15.8999C6.55311 13.3956 6.88009 11.524 7.77784 9.94738L4.08935 9.95234C3.91652 9.95258 3.75071 9.88397 3.62858 9.76169C3.50644 9.6394 3.43804 9.47351 3.43848 9.30068C3.43982 8.77438 3.58117 8.27817 3.82616 7.83844C4.23584 7.07516 4.95423 6.49211 5.81235 6.2093C6.07975 6.11759 6.35934 6.05573 6.64531 6.02794L5.95163 5.12116C5.73723 4.84088 5.78561 4.44073 6.06063 4.21963C6.73488 3.67759 7.62737 3.45772 8.46326 3.52849ZM12.4901 9.48938L11.0859 8.88709C11.0484 8.87099 11.0102 8.8587 10.9717 8.85004C10.8112 8.80956 10.6398 8.8316 10.4935 8.91417C10.3173 9.01351 10.1975 9.18918 10.1692 9.38941C10.1482 9.53791 10.1222 9.6979 10.0941 9.87078C9.91347 10.9832 9.64607 12.6296 10.0686 15.1848H8.0503C7.89334 12.7256 8.40657 11.1181 9.46356 9.76426C9.58673 9.64579 9.66328 9.47924 9.66304 9.29485C9.66259 8.96128 9.41095 8.68673 9.08731 8.64992C9.06056 8.64655 9.03342 8.64483 9.00602 8.64483H4.88684C4.91145 8.58336 4.9394 8.52305 4.97054 8.46413C5.22353 8.01411 5.66579 7.63512 6.20948 7.44415C6.45024 7.36459 6.71344 7.32055 6.99316 7.32055C7.2648 7.32055 7.52458 7.36482 7.7659 7.44332C7.77478 7.4475 7.78339 7.45171 7.79175 7.45596C7.94234 7.53243 8.06481 7.64502 8.2197 7.83605C8.44579 8.1149 8.85511 8.15767 9.13396 7.93159C9.41281 7.7055 9.45558 7.29617 9.22949 7.01732C9.05858 6.80652 8.85284 6.58594 8.57126 6.40596L7.44186 4.92961C7.72342 4.83543 8.0376 4.79711 8.35359 4.82386C8.90493 4.87054 9.38802 5.10778 9.67809 5.49012C9.9623 5.86474 10.0865 6.17283 10.1438 6.52752C10.1845 6.7787 10.3679 6.98307 10.6133 7.05049C10.8586 7.11791 11.1207 7.03598 11.284 6.84084C11.371 6.7369 11.4193 6.70763 11.4722 6.68144C11.5119 6.66178 11.5614 6.64145 11.646 6.60901L11.6908 6.59192C11.7638 6.56407 11.8546 6.52947 11.9552 6.48768L11.9597 6.48576C12.7809 6.1374 13.6172 6.31481 14.1311 6.7952L13.3746 7.11094C12.5392 6.95545 11.8192 7.19277 11.4503 7.36999C11.1268 7.52545 10.9905 7.91379 11.146 8.23736C11.3014 8.56094 11.6898 8.69722 12.0133 8.54175C12.2888 8.40939 12.8635 8.2395 13.4724 8.48864C13.9562 8.70499 14.3834 9.07771 14.6457 9.52388C14.8301 9.83748 14.9299 10.179 14.9184 10.531L13.5043 9.92443L13.2291 9.80477L12.4901 9.48938Z" fill="#A7A7A7"/>
</svg>
