<svg width="20" height="20" viewBox="0 0 20 20" fill="none" xmlns="http://www.w3.org/2000/svg">
<path d="M10.3335 7.72461C10.5873 7.4708 10.9996 7.47078 11.2534 7.72461L13.0308 9.50195C13.0602 9.53145 13.0865 9.56396 13.1099 9.59863C13.2573 9.81711 13.2567 10.1045 13.1099 10.3232C13.0863 10.3584 13.0605 10.392 13.0308 10.4219L11.2534 12.1992C10.9996 12.4529 10.5873 12.4528 10.3335 12.1992C10.0797 11.9454 10.0798 11.5331 10.3335 11.2793L11.0005 10.6123H7.53467C7.17588 10.6122 6.88445 10.3207 6.88428 9.96191C6.88428 9.60299 7.17577 9.31163 7.53467 9.31152H11.0005L10.3335 8.64453C10.0797 8.39069 10.0797 7.97845 10.3335 7.72461Z" fill="#15C674"/>
<path fill-rule="evenodd" clip-rule="evenodd" d="M13.2212 4.88672C14.878 4.88672 16.2212 6.22986 16.2212 7.88672V12.0352C16.2212 13.692 14.878 15.0352 13.2212 15.0352H9.23096C9.17732 15.118 9.11361 15.1984 9.03857 15.2734L7.91357 16.3984C7.0372 17.2748 5.53893 16.6543 5.53857 15.415V14.6885C4.58615 14.1858 3.93604 13.187 3.93604 12.0352V7.88672C3.93604 6.22987 5.27918 4.88672 6.93604 4.88672H13.2212ZM6.93604 6.18652C5.99715 6.18652 5.23584 6.94783 5.23584 7.88672V12.0352C5.23584 12.6845 5.60078 13.2517 6.14502 13.5391L6.83838 13.9043V15.415C6.83842 15.4375 6.84183 15.4496 6.84326 15.4541C6.8448 15.4588 6.8467 15.4624 6.84912 15.4658C6.85488 15.474 6.86943 15.4884 6.89502 15.499C6.92054 15.5096 6.9409 15.5095 6.95068 15.5078C6.95486 15.5071 6.95889 15.5062 6.96338 15.5039C6.96757 15.5017 6.97856 15.4956 6.99463 15.4795L8.11963 14.3545C8.12621 14.3479 8.13313 14.3389 8.14014 14.3281L8.52393 13.7354H13.2212C14.1601 13.7354 14.9214 12.974 14.9214 12.0352V7.88672C14.9214 6.94783 14.1601 6.18652 13.2212 6.18652H6.93604Z" fill="#15C674"/>
</svg>
