<svg width="24" height="24" viewBox="0 0 24 24" fill="none" xmlns="http://www.w3.org/2000/svg">
<path d="M17.6045 9.25124C18.7087 9.2515 19.6043 10.147 19.6045 11.2512V17.6975C19.6044 18.8019 18.7088 19.6973 17.6045 19.6975H6.60352C5.4992 19.6973 4.60357 18.8019 4.60352 17.6975V11.2512C4.60366 10.1468 5.50001 9.25124 6.60449 9.25124H17.6045Z" fill="#15C674"/>
<path d="M7.98047 6.59108L17.8574 7.48366C18.7345 7.56295 19.4255 8.2306 19.5605 9.07546C19.0417 8.60864 18.3575 8.32168 17.6045 8.32155H6.60449C6.36031 8.32155 6.12324 8.35415 5.89648 8.41042L5.93164 8.18874C6.08692 7.19991 6.98356 6.50099 7.98047 6.59108Z" fill="#15C674"/>
<path d="M7.7832 5.65358C8.14813 4.9457 8.9362 4.51935 9.76367 4.64773L17.9873 5.92605C18.7063 6.03786 19.2773 6.54492 19.4971 7.20437C19.069 6.84737 18.5342 6.61147 17.9414 6.55788L8.06445 5.6653C7.97003 5.65677 7.87617 5.6528 7.7832 5.65358Z" fill="#15C674"/>
</svg>
