<svg width="24" height="24" viewBox="0 0 24 24" fill="none" xmlns="http://www.w3.org/2000/svg">
<path d="M5.35156 5.94068C6.04471 5.86208 7.13544 5.80511 8.51562 5.94849C9.80082 6.08206 10.7728 6.54031 11.4258 6.96997C11.4354 6.97631 11.4446 6.98318 11.4541 6.9895V19.0227C11.4152 18.9949 11.37 18.9624 11.3184 18.927C11.1249 18.7944 10.8466 18.6135 10.5107 18.4241C9.82927 18.0397 8.94891 17.6411 8.07715 17.5051C7.31442 17.3862 6.60952 17.3996 6.04883 17.4563C5.08855 17.5533 4.04705 16.8368 4.04688 15.7415V7.44458C4.04699 6.71541 4.55671 6.0309 5.35156 5.94068Z" fill="#15C674"/>
<path d="M15.4834 5.94849C16.8636 5.80511 17.9543 5.86208 18.6475 5.94068C19.4423 6.0309 19.952 6.71541 19.9521 7.44458V15.7415C19.952 16.8368 18.9105 17.5533 17.9502 17.4563C17.3895 17.3996 16.6846 17.3862 15.9219 17.5051C15.0501 17.6411 14.1698 18.0397 13.4883 18.4241C13.1524 18.6135 12.8741 18.7944 12.6807 18.927C12.6295 18.9621 12.5845 18.9941 12.5459 19.0217V6.98853C12.555 6.98245 12.564 6.97606 12.5732 6.96997C13.2262 6.54031 14.1982 6.08206 15.4834 5.94849Z" fill="#15C674"/>
</svg>
