<svg width="24" height="24" viewBox="0 0 24 24" fill="none" xmlns="http://www.w3.org/2000/svg">
<path d="M18.995 14.1045C19.3073 13.7922 19.8144 13.7924 20.1268 14.1045C20.4391 14.4169 20.4391 14.923 20.1268 15.2354L18.5702 16.7911L20.1268 18.3467C20.4393 18.6591 20.4393 19.1661 20.1268 19.4786C19.8144 19.7908 19.3074 19.7909 18.995 19.4786L17.4393 17.9219L15.8837 19.4786C15.5713 19.7907 15.0652 19.7908 14.7528 19.4786C14.4407 19.1662 14.4406 18.6591 14.7528 18.3467L16.3075 16.7911L14.7528 15.2354C14.4407 14.923 14.4406 14.4169 14.7528 14.1045C15.0652 13.7922 15.5712 13.7924 15.8837 14.1045L17.4393 15.6592L18.995 14.1045Z" fill="#15C674"/>
<path d="M5.31435 14.211C5.40094 13.7778 5.82162 13.4966 6.25478 13.583L9.28114 14.1885C9.71421 14.2752 9.99546 14.6958 9.90907 15.1289C9.8225 15.5622 9.40089 15.8434 8.96767 15.7569L7.69911 15.503C8.64147 16.7312 10.0727 17.5143 11.6249 17.6338C12.0653 17.6677 12.3948 18.0519 12.3612 18.4922C12.3273 18.9327 11.9424 19.2625 11.5018 19.2286C9.52428 19.0762 7.69689 18.0932 6.47841 16.542L6.27626 17.5586C6.18927 17.9914 5.76781 18.2721 5.33485 18.1856C4.90209 18.0989 4.62188 17.678 4.7079 17.2452L5.31435 14.211Z" fill="#15C674"/>
<path d="M6.20692 5.30961C6.30862 4.88001 6.73913 4.61464 7.16884 4.71586L10.1796 5.4268L10.2587 5.44926C10.6417 5.5819 10.8695 5.98567 10.7743 6.38871L10.0653 9.39164C9.96376 9.82163 9.53242 10.0879 9.10243 9.98637C8.67267 9.88465 8.40717 9.45432 8.50868 9.02446L8.80751 7.7559C7.75693 8.52679 7.01661 9.64944 6.71669 10.9073C6.61403 11.3368 6.18148 11.6025 5.75185 11.5C5.32244 11.3974 5.05781 10.9657 5.16005 10.5362C5.54137 8.9367 6.476 7.50471 7.80458 6.50883L6.80165 6.2725C6.37193 6.17074 6.10541 5.73945 6.20692 5.30961Z" fill="#15C674"/>
<path d="M12.9022 5.90043C13.0175 5.47428 13.4564 5.22203 13.8827 5.33696C15.6792 5.82142 17.2479 7.00745 18.1923 8.66508L18.705 7.57914C18.8934 7.17975 19.3699 7.00812 19.7694 7.19633C20.1689 7.38456 20.3402 7.86119 20.1522 8.26078L18.8339 11.0596C18.7044 11.3344 18.4385 11.5015 18.1552 11.5176C18.1038 11.5205 18.0518 11.518 17.9999 11.5108C17.9481 11.5036 17.8964 11.4915 17.8456 11.4737L17.7694 11.4424L14.9774 10.127C14.5779 9.93864 14.4064 9.46215 14.5946 9.06254C14.7828 8.66295 15.2594 8.49169 15.6591 8.67973L16.5936 9.12016C15.8521 8.01507 14.734 7.22376 13.4667 6.88188C13.0401 6.76687 12.7873 6.32701 12.9022 5.90043Z" fill="#15C674"/>
</svg>
