<svg width="24" height="24" viewBox="0 0 24 24" fill="none" xmlns="http://www.w3.org/2000/svg">
<path d="M16.3213 4.67773C17.9778 4.678 19.321 6.02127 19.3213 7.67773V12.625L13.1309 10.0459C12.2893 9.69538 11.3194 9.88759 10.6748 10.5322C10.0302 11.1769 9.83794 12.1468 10.1885 12.9883L12.8271 19.3203H7.67871C6.02224 19.32 4.67897 17.9768 4.67871 16.3203V7.67773C4.67897 6.02127 6.02224 4.678 7.67871 4.67773H16.3213Z" fill="#15C674"/>
<path d="M11.7705 11.6279C11.9711 11.4274 12.2733 11.3675 12.5352 11.4766L20.0352 14.6016C20.3032 14.7133 20.4738 14.9793 20.4648 15.2695C20.4559 15.5598 20.2686 15.8142 19.9941 15.9092L17.0654 16.9229L16.0518 19.8516C15.9567 20.126 15.7024 20.3133 15.4121 20.3223C15.1219 20.3312 14.8559 20.1606 14.7441 19.8926L11.6191 12.3926C11.51 12.1307 11.5699 11.8285 11.7705 11.6279Z" fill="#15C674"/>
</svg>
