<svg width="24" height="24" viewBox="0 0 24 24" fill="none" xmlns="http://www.w3.org/2000/svg">
<path fill-rule="evenodd" clip-rule="evenodd" d="M17.3105 5.01562C18.8014 5.01584 20.0096 6.22398 20.0098 7.71484V9.51367C20.0096 9.72889 19.8685 9.91501 19.6777 10.0146C19.4527 10.1322 19.2439 10.2902 19.0625 10.4883L16.6152 13.1592C16.3061 13.4966 15.7771 13.5048 15.458 13.1768C14.5913 12.2865 13.1668 12.2673 12.2764 13.1338C11.3862 14.0006 11.3666 15.4261 12.2334 16.3164L14.1895 18.3252C14.4144 18.5561 14.3155 18.9886 13.9932 18.9932C13.7175 18.9971 13.4869 18.999 13.4297 18.999H6.69336C5.2025 18.9988 3.99435 17.7907 3.99414 16.2998V7.71484C3.99435 6.22399 5.2025 5.01584 6.69336 5.01562H17.3105ZM7.22656 13.1885C6.95326 12.9154 6.50965 12.9154 6.23633 13.1885C5.96302 13.4618 5.96315 13.9053 6.23633 14.1787L6.99023 14.9316L6.23633 15.6865C5.96339 15.9597 5.9636 16.4025 6.23633 16.6758C6.5097 16.9491 6.9532 16.9491 7.22656 16.6758L7.97949 15.9219L8.73438 16.6758C9.00774 16.9491 9.45027 16.9491 9.72363 16.6758C9.99676 16.4024 9.99692 15.9598 9.72363 15.6865L8.96973 14.9316L9.72363 14.1787C9.99688 13.9053 9.99696 13.4618 9.72363 13.1885C9.45034 12.9158 9.00759 12.9157 8.73438 13.1885L7.97949 13.9424L7.22656 13.1885ZM6.73242 7.30957C6.34582 7.30957 6.03125 7.62317 6.03125 8.00977C6.03125 8.3962 6.34507 8.7097 6.73145 8.70996H7.52246C7.90906 8.70996 8.22266 8.39636 8.22266 8.00977C8.22266 7.62333 7.90981 7.30983 7.52344 7.30957H6.73242ZM9.97461 7.30957C9.58801 7.30957 9.27441 7.62317 9.27441 8.00977C9.27441 8.39636 9.58801 8.70996 9.97461 8.70996H10.7656C11.1522 8.70996 11.4658 8.39636 11.4658 8.00977C11.4658 7.62317 11.1522 7.30957 10.7656 7.30957H9.97461Z" fill="#15C674"/>
<path d="M20.2051 11.5342C20.466 11.2494 20.9092 11.2297 21.1943 11.4902C21.4794 11.7512 21.499 12.1943 21.2383 12.4795L16.8994 17.2178C16.4724 17.6841 15.7409 17.6953 15.2998 17.2422L13.3438 15.2334C13.0748 14.9564 13.0808 14.5136 13.3574 14.2441C13.6343 13.9747 14.078 13.9802 14.3477 14.2568L16.0811 16.0381L20.2051 11.5342Z" fill="#15C674"/>
</svg>
