<svg width="24" height="24" viewBox="0 0 24 24" fill="none" xmlns="http://www.w3.org/2000/svg">
<path fill-rule="evenodd" clip-rule="evenodd" d="M10.7686 4.23855C11.565 3.90287 12.4611 3.90359 13.2568 4.24051C14.4822 4.75956 16.6174 5.66423 18.1748 6.32351C19.0997 6.71504 19.7001 7.62231 19.7002 8.62625V17.1995C19.7002 18.1899 18.9021 18.9993 17.9043 18.9993H6.09961C5.10563 18.9991 4.2998 18.1935 4.2998 17.1995V8.62625C4.29993 7.62237 4.90051 6.71444 5.82617 6.32351C7.38919 5.66342 9.53777 4.75747 10.7686 4.23855ZM10.0645 14.2422C9.84396 14.2424 9.66542 14.4211 9.66504 14.6416V17.2005C9.66526 17.4211 9.84385 17.5997 10.0645 17.5999H13.9355C14.1562 17.5997 14.3347 17.4211 14.335 17.2005V14.6416C14.3346 14.4211 14.1561 14.2424 13.9355 14.2422H10.0645ZM10.8574 10.7344C10.6369 10.7346 10.4584 10.9133 10.458 11.1338V12.4514C10.458 12.6722 10.6367 12.8516 10.8574 12.8518H13.1436C13.3644 12.8517 13.543 12.6723 13.543 12.4514V11.1338C13.5426 10.9133 13.3641 10.7345 13.1436 10.7344H10.8574Z" fill="#15C674"/>
</svg>
