<svg width="24" height="24" viewBox="0 0 24 24" fill="none" xmlns="http://www.w3.org/2000/svg">
<path d="M17.4771 6.70312H12.6113C12.059 6.70312 11.6113 7.15084 11.6113 7.70312V16.3046C11.6113 16.8569 12.059 17.3046 12.6113 17.3046H17.4771C18.0293 17.3046 18.4771 16.8569 18.4771 16.3046V7.70312C18.4771 7.15084 18.0293 6.70312 17.4771 6.70312Z" fill="#15C674" stroke="#15C674" stroke-width="1.2" stroke-linecap="round"/>
<path d="M10.0191 14.5332C11.0627 13.5423 11.6478 12.9867 12.6914 11.9957L10.0191 9.45825" stroke="white" stroke-width="4.5" stroke-linecap="round" stroke-linejoin="round"/>
<path d="M5.38281 17.3434L5.85254 17.3434C6.95711 17.3434 7.85254 16.448 7.85254 15.3434L7.85254 8.39062C7.85254 7.28605 6.95711 6.39063 5.85254 6.39063L5.38281 6.39063" stroke="#15C674" stroke-width="1.6" stroke-linecap="round" stroke-linejoin="round"/>
<path d="M11.5527 11.9746L5.46191 11.9746" stroke="#15C674" stroke-width="1.6" stroke-linecap="round" stroke-linejoin="round"/>
<path d="M10.8707 13.6094C11.5352 12.9784 11.9078 12.6246 12.5723 11.9936L10.8707 10.3779" stroke="#15C674" stroke-width="1.6" stroke-linecap="round" stroke-linejoin="round"/>
</svg>
