<svg width="24" height="24" viewBox="0 0 24 24" fill="none" xmlns="http://www.w3.org/2000/svg">
<path fill-rule="evenodd" clip-rule="evenodd" d="M14.9717 2.82422C15.173 2.82422 15.3642 2.91134 15.4971 3.0625C15.63 3.21367 15.6918 3.41463 15.666 3.61426C15.5394 4.59398 15.0237 5.30276 14.4199 5.81543C15.817 6.72992 17.1009 7.72926 18.0664 8.9834C19.177 10.4262 19.8439 12.1752 19.8438 14.4492C19.8435 17.166 17.1343 20.804 11.9814 20.8047C6.84539 20.805 4.15377 17.4604 4.1543 14.4492C4.15475 12.0637 4.81713 10.2965 5.90137 8.87012C6.84133 7.63353 8.07796 6.68156 9.37598 5.80762C8.7754 5.23939 8.27739 4.48881 8.14258 3.63379C8.11073 3.43161 8.16877 3.22492 8.30176 3.06934C8.43475 2.9138 8.62934 2.82422 8.83398 2.82422H14.9717ZM11.9346 7.94824C11.548 7.94824 11.2344 8.26184 11.2344 8.64844V9.17676C10.847 9.2659 10.5064 9.41684 10.2285 9.64844C9.71112 10.0799 9.53004 10.6805 9.53906 11.2754C9.55091 12.0554 9.94855 12.5783 10.4648 12.9102C10.9291 13.2084 11.5136 13.368 11.9746 13.4922C12.4888 13.6307 12.8786 13.7331 13.166 13.8877C13.4144 14.0214 13.4761 14.1331 13.4902 14.2744C13.5328 14.7001 13.3917 14.9066 13.1758 15.0508C12.9011 15.2339 12.4299 15.3524 11.792 15.3525C11.2294 15.3525 10.8671 15.2022 10.6455 15.0645C10.4101 14.9179 10.3294 14.795 10.2246 14.6885C9.95339 14.4132 9.50979 14.4107 9.23438 14.6816C8.9592 14.9529 8.95565 15.3955 9.22656 15.6709L9.23047 15.6748C9.23842 15.6837 9.25368 15.7022 9.26953 15.7197C9.30431 15.7581 9.3523 15.8091 9.41113 15.8662C9.5294 15.9809 9.69242 16.1199 9.90625 16.2529C10.2376 16.459 10.6748 16.6398 11.2334 16.7148V17.1123C11.2335 17.4988 11.5472 17.8124 11.9336 17.8125C12.32 17.8123 12.6337 17.4987 12.6338 17.1123V16.6904C13.1104 16.6167 13.5691 16.4711 13.9521 16.2158C14.6168 15.7725 14.9751 15.0541 14.8828 14.1338C14.8069 13.3786 14.333 12.9251 13.8301 12.6543C13.3657 12.4044 12.7848 12.2607 12.3389 12.1406C11.8398 12.0062 11.4722 11.8933 11.2217 11.7324C11.0232 11.6048 10.9429 11.4808 10.9395 11.2539C10.935 10.9585 11.0165 10.8141 11.125 10.7236C11.2599 10.6114 11.5642 10.4756 12.2031 10.4756C12.6076 10.4758 13.0379 10.6298 13.3096 10.8154C13.6287 11.0332 14.0651 10.9518 14.2832 10.6328C14.5008 10.314 14.4188 9.87845 14.1006 9.66016C13.7141 9.39589 13.1894 9.18393 12.6348 9.10742V8.64844C12.6348 8.26207 12.3208 7.94862 11.9346 7.94824Z" fill="#15C674"/>
</svg>
