<svg width="24" height="24" viewBox="0 0 24 24" fill="none" xmlns="http://www.w3.org/2000/svg">
<path d="M12.0809 14.0957C12.4647 14.1407 12.7399 14.4883 12.6952 14.8721C12.4835 16.6821 11.5145 18.4143 9.55259 18.9697C8.14114 19.3692 6.62835 19.0958 5.48911 18.2568V18.6006C5.48866 18.9867 5.17504 19.2996 4.78892 19.2998C4.4026 19.2998 4.08918 18.9868 4.08872 18.6006V16.6211C4.08872 16.2345 4.40232 15.9209 4.78892 15.9209H6.76841C7.15459 15.9214 7.46763 16.2348 7.46763 16.6211C7.46743 17.0072 7.15447 17.3208 6.76841 17.3213H6.61509C7.35726 17.7464 8.28212 17.8748 9.17173 17.623C10.4079 17.2729 11.1337 16.17 11.3045 14.71C11.3494 14.326 11.6969 14.0508 12.0809 14.0957Z" fill="#15C674"/>
<path fill-rule="evenodd" clip-rule="evenodd" d="M14.7333 3.95312C16.1279 3.9532 17.2753 5.01117 17.4178 6.36816C18.7925 6.43673 19.8865 7.57024 19.8866 8.96191V15.7578C19.8866 17.1935 18.7226 18.358 17.287 18.3584H12.4569C13.3482 17.4069 13.9175 16.1494 13.9881 14.7598L13.9891 14.7422V14.7236L13.995 14.5049L13.9959 14.4863V14.4678C13.9959 14.1263 13.9642 13.7918 13.9061 13.4668C13.9061 13.4668 13.838 13.1398 13.7782 12.9355C13.7258 12.7567 13.6526 12.5166 13.5838 12.3457L13.5848 10.7148C13.5847 9.60589 12.6856 8.71007 11.5799 8.70898C11.1066 8.70898 10.671 8.87434 10.328 9.14844C9.78541 8.94119 9.20294 8.81223 8.59458 8.78125L8.577 8.78027H8.55845L8.33872 8.77539L8.32115 8.77441H8.30259C7.84358 8.77441 7.39721 8.82906 6.96958 8.93164C6.98583 7.50968 8.1424 6.3623 9.56822 6.3623H15.9989C15.8666 5.78475 15.3509 5.35358 14.7333 5.35352H7.78208C6.78797 5.35352 5.98228 6.15921 5.98228 7.15332V8.52051C5.98228 8.90706 5.66862 9.22063 5.28208 9.2207C4.89548 9.2207 4.58189 8.90711 4.58189 8.52051V7.15332C4.58189 5.38601 6.01477 3.95313 7.78208 3.95312H14.7333ZM16.2118 12.2393C15.8252 12.2393 15.5106 12.5529 15.5106 12.9395C15.5106 13.3259 15.8244 13.6394 16.2108 13.6396H16.6727C17.0591 13.6394 17.3729 13.3259 17.3729 12.9395C17.3729 12.5532 17.0599 12.2398 16.6737 12.2393H16.2118ZM15.3524 9.75098C14.9658 9.75098 14.6512 10.0646 14.6512 10.4512C14.6512 10.8376 14.965 11.1511 15.3514 11.1514H16.6727C17.0592 11.1513 17.3729 10.8377 17.3729 10.4512C17.3729 10.0648 17.06 9.75132 16.6737 9.75098H15.3524Z" fill="#15C674"/>
<path d="M11.6649 10.0371C12.0514 10.0373 12.3651 10.3508 12.3651 10.7373V12.7168C12.3651 12.7649 12.3607 12.812 12.3514 12.8574C12.2864 13.1763 12.0039 13.4166 11.6659 13.417H9.68736C9.30088 13.417 8.98736 13.1032 8.98716 12.7168C8.98716 12.3302 9.30076 12.0166 9.68736 12.0166H9.89243C9.13655 11.5473 8.17235 11.3987 7.24693 11.6611C6.01251 12.0115 5.2868 13.1144 5.11607 14.5771C5.07114 14.9609 4.72348 15.236 4.3397 15.1914C3.95592 15.1465 3.68085 14.7988 3.72544 14.415C3.93679 12.6039 4.90424 10.8698 6.86509 10.3135C8.29207 9.90887 9.82207 10.1939 10.9647 11.0566V10.7373C10.9647 10.3508 11.2785 10.0373 11.6649 10.0371Z" fill="#15C674"/>
</svg>
