<svg width="24" height="24" viewBox="0 0 24 24" fill="none" xmlns="http://www.w3.org/2000/svg">
<path d="M16.3926 3.63574C18.0494 3.63577 19.3925 4.97894 19.3926 6.63574V17.3643C19.3926 19.0211 18.0494 20.3642 16.3926 20.3643H11.2217C10.6694 20.3643 10.2217 19.9165 10.2217 19.3643C10.2217 18.812 10.6694 18.3643 11.2217 18.3643H16.3926C16.9448 18.3642 17.3926 17.9165 17.3926 17.3643V6.63574C17.3925 6.08351 16.9448 5.63577 16.3926 5.63574H11.2217C10.6694 5.63573 10.2217 5.18802 10.2217 4.63574C10.2217 4.08346 10.6694 3.63573 11.2217 3.63574H16.3926ZM7.55469 7.29297C7.94517 6.90272 8.57828 6.9027 8.96875 7.29297L12.9688 11.293C13.0603 11.3845 13.134 11.4939 13.1846 11.6152C13.1858 11.6182 13.1873 11.6211 13.1885 11.624C13.2295 11.7252 13.2513 11.832 13.2578 11.9395C13.259 11.9595 13.2617 11.9796 13.2617 12C13.2617 12.0131 13.2593 12.0261 13.2588 12.0391C13.2581 12.0579 13.2586 12.0769 13.2568 12.0957C13.2477 12.1912 13.225 12.2858 13.1885 12.376C13.1874 12.3787 13.1857 12.3811 13.1846 12.3838C13.1489 12.4695 13.1008 12.5484 13.0439 12.6201C13.0413 12.6234 13.0398 12.6276 13.0371 12.6309C13.0158 12.657 12.9931 12.6826 12.9688 12.707L8.96875 16.707C8.57827 17.0971 7.94511 17.0972 7.55469 16.707C7.16429 16.3166 7.16453 15.6835 7.55469 15.293L9.84766 13H3.26172C2.70943 13 2.26074 12.5523 2.26074 12C2.26074 11.4479 2.70868 11.0003 3.26074 11H9.84766L7.55469 8.70703C7.16441 8.31655 7.16441 7.68345 7.55469 7.29297Z" fill="#15C674"/>
</svg>
