<svg width="24" height="24" viewBox="0 0 24 24" fill="none" xmlns="http://www.w3.org/2000/svg">
<path fill-rule="evenodd" clip-rule="evenodd" d="M20.0078 16.292C20.0076 17.7829 18.7995 18.991 17.3086 18.9912H6.69141C5.20055 18.991 3.9924 17.7829 3.99219 16.292V10.6611H20.0078V16.292ZM7.56543 13.6006C7.1157 13.6006 6.74554 13.9428 6.70117 14.3809L6.69629 14.4697L6.70117 14.5576C6.74547 14.9957 7.11564 15.3379 7.56543 15.3379H12.4453C12.9243 15.3374 13.3132 14.9488 13.3135 14.4697C13.3134 13.9905 12.9245 13.6011 12.4453 13.6006H7.56543Z" fill="#15C674"/>
<path d="M17.3086 5.71484C18.7995 5.71506 20.0076 6.9232 20.0078 8.41406V9.26074H3.99219V8.41406C3.9924 6.9232 5.20055 5.71505 6.69141 5.71484H17.3086Z" fill="#15C674"/>
</svg>
