<svg width="24" height="24" viewBox="0 0 24 24" fill="none" xmlns="http://www.w3.org/2000/svg">
<path d="M17.6583 6.09961C18.542 6.09961 19.2579 6.81556 19.2579 7.69922V16.3008C19.2579 17.1844 18.542 17.9004 17.6583 17.9004H12.2784C11.3949 17.9003 10.6789 17.1843 10.6788 16.3008V7.69922C10.6788 6.81564 11.3949 6.09974 12.2784 6.09961H17.6583Z" fill="#15C674"/>
<path d="M5.27258 13.5547C5.37277 13.1246 5.80245 12.8572 6.23254 12.957L8.64172 13.5176C8.85522 13.5673 9.03947 13.7026 9.15051 13.8916C9.26152 14.0808 9.29036 14.3078 9.22962 14.5186L8.54407 16.8955C8.42149 17.3197 7.9782 17.5647 7.55383 17.4424C7.12957 17.3199 6.88477 16.8765 7.00696 16.4521L7.14563 15.9688L4.57922 17.4717C4.19805 17.6948 3.70779 17.5675 3.4845 17.1865C3.2613 16.8052 3.3903 16.315 3.77161 16.0918L6.29504 14.6133L5.87024 14.5146C5.4402 14.4144 5.17267 13.9848 5.27258 13.5547Z" fill="#15C674"/>
<path d="M7.45911 6.53613C7.88172 6.40797 8.32871 6.64682 8.45715 7.06934L9.1759 9.43652C9.23953 9.64628 9.21378 9.87285 9.10559 10.0635C8.99726 10.2542 8.81555 10.3925 8.60266 10.4453L6.20129 11.04C5.77261 11.146 5.33882 10.8847 5.23254 10.4561C5.12656 10.0275 5.38804 9.59373 5.81653 9.4873L6.26965 9.375L3.97376 8.1123C3.58675 7.89937 3.44548 7.41248 3.65833 7.02539C3.87127 6.63839 4.35815 6.49712 4.74524 6.70996L7.06262 7.9834L6.9259 7.53418C6.79779 7.11158 7.0366 6.66455 7.45911 6.53613Z" fill="#15C674"/>
</svg>
