<svg width="24" height="24" viewBox="0 0 24 24" fill="none" xmlns="http://www.w3.org/2000/svg">
<path d="M10.3055 6.21659L10.3123 6.21641L10.5505 6.20188C10.7084 6.19229 10.9348 6.17859 11.209 6.16215C11.7574 6.12927 12.4972 6.08543 13.2625 6.04158C14.7819 5.95452 16.433 5.86553 16.858 5.86553C17.4917 5.86553 17.9726 6.29189 18.2455 6.72234C18.4408 7.0303 18.5819 7.42127 18.5863 7.8013C18.741 7.91057 18.8641 8.05113 18.9584 8.1954C19.1246 8.44975 19.227 8.75133 19.2775 9.0392C19.328 9.32689 19.3324 9.63275 19.2752 9.90417C19.2614 9.96955 19.2424 10.0402 19.2162 10.112C19.5435 10.4273 19.7248 10.8663 19.799 11.2591C19.8537 11.5487 19.8592 11.8503 19.8098 12.1264C19.7927 12.2219 19.768 12.3197 19.7337 12.4157C19.9248 12.5832 20.0632 12.7771 20.1576 12.9911C20.3027 13.3201 20.3274 13.6621 20.3299 13.946C20.3326 14.2381 20.2998 14.6485 20.126 15.0034C20.036 15.1871 19.9012 15.37 19.7015 15.5062C19.4982 15.6448 19.2556 15.7158 18.9847 15.7158H15.5359C15.4306 15.7158 15.3181 15.7125 15.2197 15.7096C15.1722 15.7082 15.128 15.7069 15.0894 15.7061C15.0669 15.7056 15.0457 15.7053 15.0258 15.7052L15.0303 15.7161C15.1037 15.8932 15.2023 16.1339 15.3029 16.3878C15.4033 16.641 15.507 16.9106 15.5899 17.1445C15.6669 17.3615 15.7434 17.5946 15.7661 17.7495L15.7663 17.7505C15.8255 18.1594 15.838 18.3487 15.838 18.4558V19.2394C15.838 19.6093 15.7091 19.9738 15.4217 20.2608C15.1578 20.5244 14.8094 20.6864 14.4502 20.6913C14.0791 20.6963 13.7134 20.5298 13.4835 20.1775C12.5508 18.7487 11.5222 17.6201 10.7261 16.8487C10.3285 16.4635 9.9902 16.1685 9.75269 15.9709C9.63397 15.8722 9.54054 15.7978 9.47762 15.7488C9.44617 15.7242 9.42235 15.7061 9.40683 15.6943L9.38984 15.6815L9.38563 15.6784C9.36434 15.6628 9.3444 15.6454 9.32601 15.6264C9.06327 15.3554 8.91553 14.9888 8.91553 14.61V7.66201C8.91553 7.33906 8.99503 7.0651 9.13883 6.84274C9.28116 6.62266 9.46865 6.48052 9.64383 6.39022C9.81685 6.30104 9.98436 6.25879 10.1048 6.2381C10.1661 6.22757 10.2183 6.2221 10.257 6.21925C10.2765 6.21782 10.2928 6.21702 10.3055 6.21659Z" fill="#15C674"/>
<path d="M5.12351 15.5723C4.26842 15.5723 3.59251 14.8475 3.6521 13.9945L4.10913 7.45201C4.16311 6.67916 4.80581 6.07979 5.58054 6.07979H6.25465C7.06926 6.07979 7.72965 6.74017 7.72965 7.55479V14.0973C7.72965 14.9119 7.06927 15.5723 6.25465 15.5723H5.12351Z" fill="#15C674"/>
</svg>
