<svg width="24" height="24" viewBox="0 0 24 24" fill="none" xmlns="http://www.w3.org/2000/svg">
<path d="M9.81445 19.6484L14.1898 19.6484" stroke="#A7A7A7" stroke-width="1.4" stroke-linecap="round"/>
<path d="M14.8418 4.71022C13.3601 3.93645 11.5712 3.80577 9.99023 4.35378C8.409 4.90197 7.09415 6.10885 6.42871 7.63112C6.09966 8.38394 5.9333 9.02556 5.93359 10.0364C5.93425 11.9187 6.9626 13.7962 8.22461 15.0393C8.40514 15.2171 8.56637 15.5345 8.56641 16.3518C8.56641 16.712 8.65872 17.1126 8.92969 17.4329C9.21458 17.7694 9.63036 17.9387 10.1113 17.9387H13.8477C14.7324 17.9387 15.3622 17.2762 15.3936 16.4768L15.3916 16.3157C15.3714 15.8608 15.4214 15.5894 15.4834 15.4182C15.5421 15.2563 15.6237 15.1484 15.7373 15.0335C17.377 13.3741 18.6487 11.0923 17.9824 8.53737C17.5353 6.82323 16.3038 5.47373 14.8418 4.71022Z" fill="#A7A7A7"/>
<path d="M14.1895 18.9485C14.576 18.9485 14.8895 19.2622 14.8896 19.6487C14.8896 20.0353 14.5761 20.3489 14.1895 20.3489H9.81445C9.42785 20.3489 9.11426 20.0353 9.11426 19.6487C9.1144 19.2622 9.42794 18.9485 9.81445 18.9485H14.1895Z" fill="#15C674"/>
<path d="M9.99023 4.35374C11.5711 3.80578 13.3602 3.93648 14.8418 4.71018C16.3037 5.47365 17.5352 6.82331 17.9824 8.53733C18.6487 11.0921 17.3769 13.3741 15.7373 15.0334C15.6238 15.1483 15.5421 15.2564 15.4834 15.4182C15.4214 15.5894 15.3714 15.8609 15.3916 16.3157L15.3936 16.4768C15.3622 17.2761 14.7324 17.9387 13.8477 17.9387H10.1113C9.63036 17.9387 9.21458 17.7694 8.92969 17.4328C8.65882 17.1126 8.56641 16.7119 8.56641 16.3518C8.56634 15.5347 8.40511 15.2171 8.22461 15.0393C6.96267 13.7962 5.93425 11.9186 5.93359 10.0364C5.93333 9.02568 6.09969 8.38383 6.42871 7.63108C7.09418 6.10892 8.40908 4.90191 9.99023 4.35374Z" fill="#15C674"/>
</svg>
