<svg width="24" height="24" viewBox="0 0 24 24" fill="none" xmlns="http://www.w3.org/2000/svg">
<path d="M19.3558 16.541C19.6682 16.2286 20.1752 16.2286 20.4876 16.541C20.7997 16.8534 20.7996 17.3595 20.4876 17.6719L18.556 19.6025C18.1654 19.9929 17.5324 19.993 17.1419 19.6025L15.2122 17.6729C14.8999 17.3605 14.9001 16.8544 15.2122 16.542C15.5246 16.2296 16.0307 16.2296 16.3431 16.542L17.8489 18.0479L19.3558 16.541Z" fill="#15C674"/>
<path d="M17.8499 10.3252C18.2914 10.3254 18.6495 10.6835 18.6497 11.125V13.8223L19.3558 13.1162C19.6682 12.8038 20.1752 12.8038 20.4876 13.1162C20.7998 13.4285 20.7996 13.9347 20.4876 14.2471L18.556 16.1787C18.1654 16.5687 17.5323 16.569 17.1419 16.1787L15.2122 14.248C14.8999 13.9357 14.9 13.4296 15.2122 13.1172C15.5246 12.8048 16.0307 12.8048 16.3431 13.1172L17.0501 13.8242V11.126C17.0501 10.6841 17.4081 10.3252 17.8499 10.3252Z" fill="#15C674"/>
<path fill-rule="evenodd" clip-rule="evenodd" d="M17.3105 5.01562C18.8014 5.01584 20.0096 6.22398 20.0098 7.71484V9.79395C20.0093 9.90954 19.7749 9.95903 19.71 9.86328C19.3055 9.26747 18.6232 8.87598 17.8486 8.87598C16.6062 8.87623 15.5986 9.88349 15.5986 11.126C15.5986 11.304 15.4609 11.4497 15.2871 11.4883C14.8839 11.5776 14.5002 11.7782 14.1865 12.0918C13.3083 12.9705 13.308 14.3959 14.1865 15.2744L14.1924 15.2803C14.2576 15.3457 14.2519 15.4512 14.1865 15.5166C13.3083 16.3953 13.308 17.8197 14.1865 18.6982C14.2975 18.8092 14.2185 18.999 14.0615 18.999H6.69336C5.2025 18.9988 3.99435 17.7907 3.99414 16.2998V7.71484C3.99435 6.22399 5.2025 5.01584 6.69336 5.01562H17.3105ZM6.73242 7.30957C6.34582 7.30957 6.03125 7.62317 6.03125 8.00977C6.03125 8.3962 6.34507 8.7097 6.73145 8.70996H7.52246C7.90906 8.70996 8.22266 8.39636 8.22266 8.00977C8.22266 7.62333 7.90981 7.30983 7.52344 7.30957H6.73242ZM9.97461 7.30957C9.58801 7.30957 9.27441 7.62317 9.27441 8.00977C9.27441 8.39636 9.58801 8.70996 9.97461 8.70996H10.7656C11.1522 8.70996 11.4658 8.39636 11.4658 8.00977C11.4658 7.62317 11.1522 7.30957 10.7656 7.30957H9.97461Z" fill="#15C674"/>
</svg>
