<svg width="24" height="24" viewBox="0 0 24 24" fill="none" xmlns="http://www.w3.org/2000/svg">
<path d="M5.23438 11.1807C5.62087 11.1807 5.9344 11.4934 5.93457 11.8799V13.9844C5.93458 15.2546 6.96414 16.2842 8.23438 16.2842H9.33105L8.32617 15.3223C8.04734 15.0549 8.0385 14.6111 8.30566 14.332C8.57298 14.0533 9.01583 14.0437 9.29492 14.3105L11.1211 16.0605C11.6137 16.5329 11.6137 17.3206 11.1211 17.793L9.25 19.5859C8.97083 19.853 8.52711 19.8435 8.25977 19.5645C7.9928 19.2854 8.00247 18.8416 8.28125 18.5742L9.20898 17.6846H8.23438C6.19094 17.6846 4.5342 16.0278 4.53418 13.9844V11.8799C4.53435 11.4934 4.84788 11.1807 5.23438 11.1807Z" fill="#15C674"/>
<path fill-rule="evenodd" clip-rule="evenodd" d="M14.7334 3.95312C16.1279 3.95337 17.2745 5.01131 17.417 6.36816C18.7922 6.43617 19.8866 7.56986 19.8867 8.96191V15.2314C19.8866 16.9578 18.4871 18.3581 16.7607 18.3584H12.8271C12.5803 18.3584 12.4285 18.0672 12.5225 17.8389C12.886 16.9557 12.702 15.8997 11.9668 15.1943L10.1396 13.4443L9.99219 13.3164C9.23283 12.7243 8.13387 12.7927 7.4541 13.501C7.31271 13.6486 7.20044 13.814 7.11621 13.9893C7.07659 14.0716 7.00534 14.0628 6.96777 13.9795V8.96191C6.9678 7.52599 8.13244 6.3623 9.56836 6.3623H15.998C15.8658 5.78491 15.3509 5.35374 14.7334 5.35352H7.78223C6.78811 5.35352 5.98242 6.15921 5.98242 7.15332V8.39648C5.98242 8.78292 5.6686 9.09642 5.28223 9.09668C4.89563 9.09668 4.58105 8.78308 4.58105 8.39648V7.15332C4.58105 5.38601 6.01492 3.95313 7.78223 3.95312H14.7334ZM14.3252 12.2393C13.9386 12.2393 13.624 12.5529 13.624 12.9395C13.6242 13.3258 13.9379 13.6394 14.3242 13.6396H15.6455C16.032 13.6396 16.3456 13.3259 16.3457 12.9395C16.3457 12.553 16.0329 12.2395 15.6465 12.2393H14.3252ZM11.1641 9.11914C10.3432 9.11914 9.67797 9.78469 9.67773 10.6055C9.67773 11.4264 10.3431 12.0928 11.1641 12.0928C11.9849 12.0926 12.6504 11.4263 12.6504 10.6055C12.6502 9.78479 11.9848 9.11931 11.1641 9.11914ZM14.3252 9.84961C13.9386 9.84961 13.625 10.1632 13.625 10.5498C13.6251 10.9363 13.9387 11.25 14.3252 11.25H16.8135C17.1995 11.2495 17.5126 10.936 17.5127 10.5498C17.5127 10.1635 17.1996 9.85014 16.8135 9.84961H14.3252Z" fill="#15C674"/>
</svg>
