<svg width="24" height="24" viewBox="0 0 24 24" fill="none" xmlns="http://www.w3.org/2000/svg">
<path d="M18.3828 17.0078C18.77 17.0078 19.0839 17.3219 19.084 17.709C19.084 18.637 18.3313 19.3896 17.4033 19.3896H6.7041C5.77608 19.3896 5.02344 18.637 5.02344 17.709C5.0235 17.3219 5.33747 17.0078 5.72461 17.0078C6.06322 17.0078 6.34555 17.2481 6.41113 17.5674L6.43164 17.7656C6.45778 17.8922 6.56981 17.9873 6.7041 17.9873H17.4033C17.5376 17.9873 17.6496 17.8922 17.6758 17.7656L17.6963 17.5674C17.7619 17.2482 18.0443 17.0079 18.3828 17.0078Z" fill="#15C674"/>
<path fill-rule="evenodd" clip-rule="evenodd" d="M17.7891 4.79492C18.9486 4.79517 19.8886 5.73494 19.8887 6.89453V14.21C19.8887 15.3696 18.9486 16.3103 17.7891 16.3105H6.31836C5.15856 16.3105 4.21875 15.3698 4.21875 14.21V6.89453C4.21882 5.73479 5.1586 4.79492 6.31836 4.79492H17.7891ZM12.0537 7.12305C11.7656 7.12314 11.5228 7.31157 11.4375 7.57129C11.0827 7.64595 10.7557 7.78944 10.4863 8.00684C10.0535 8.35616 9.80083 8.87677 9.84668 9.47168C9.88952 10.026 10.1758 10.4604 10.5957 10.7529C10.9915 11.0285 11.4921 11.1721 12.0098 11.2373C12.4085 11.2876 12.6531 11.3859 12.7822 11.4824C12.8786 11.5545 12.9189 11.626 12.9189 11.7598C12.9189 11.9281 12.8642 12.0146 12.7842 12.0771C12.682 12.1568 12.4603 12.2529 12.0449 12.2529C11.6182 12.2529 11.3995 12.1541 11.291 12.0771C11.184 12.0011 11.1258 11.9051 11.0928 11.8037C10.973 11.4362 10.5775 11.2348 10.21 11.3545C9.84274 11.4742 9.64156 11.869 9.76074 12.2363C9.86791 12.5655 10.0826 12.9362 10.4805 13.2188C10.75 13.4101 11.0774 13.5396 11.4619 13.6045C11.5648 13.8282 11.7896 13.9843 12.0518 13.9844C12.3151 13.9844 12.5403 13.8268 12.6426 13.6016C13.0185 13.5352 13.3625 13.4016 13.6465 13.1797C14.0975 12.8271 14.3192 12.3172 14.3193 11.7598C14.3193 11.1674 14.0566 10.6872 13.6211 10.3613C13.2182 10.06 12.7013 9.91375 12.1846 9.84863C11.7867 9.79846 11.5347 9.7014 11.3955 9.60449C11.281 9.52473 11.2492 9.45392 11.2422 9.36426C11.2342 9.25967 11.2668 9.1752 11.3652 9.0957C11.4787 9.00415 11.7011 8.91019 12.0449 8.91016C12.4867 8.91028 12.7657 9.09159 12.9141 9.42871C13.0698 9.78226 13.4832 9.94258 13.8369 9.78711C14.1905 9.63133 14.3509 9.218 14.1953 8.86426C13.8872 8.1642 13.3279 7.74345 12.6719 7.58398C12.5903 7.31799 12.3463 7.12305 12.0537 7.12305ZM7.55469 9.7959C7.12486 9.7959 6.77643 10.1444 6.77637 10.5742C6.77646 11.004 7.12487 11.3525 7.55469 11.3525C7.98443 11.3524 8.33292 11.004 8.33301 10.5742C8.33294 10.1445 7.98444 9.79599 7.55469 9.7959ZM16.5537 9.7959C16.1239 9.7959 15.7755 10.1444 15.7754 10.5742C15.7755 11.004 16.1239 11.3525 16.5537 11.3525C16.9835 11.3524 17.3319 11.004 17.332 10.5742C17.332 10.1445 16.9835 9.79599 16.5537 9.7959Z" fill="#15C674"/>
</svg>
