<svg width="24" height="24" viewBox="0 0 24 24" fill="none" xmlns="http://www.w3.org/2000/svg">
<path d="M12.7871 7.90332C12.7871 8.39377 12.9828 8.8639 13.3301 9.20996C13.6774 9.55596 14.1487 9.75 14.6387 9.75H18.4941V17.3516C18.4941 18.8151 17.3073 20.002 15.8437 20.002H8.12598C7.42804 20.002 6.75816 19.7208 6.26465 19.2207C5.77127 18.7207 5.49414 18.0421 5.49414 17.335V6.66895C5.49414 5.96181 5.77127 5.28327 6.26465 4.7832C6.75816 4.2831 7.42804 4.00195 8.12598 4.00195H12.7871V7.90332ZM11.9277 10.1094C11.5411 10.1094 11.2275 10.423 11.2275 10.8096V12.5508H9.48633C9.09973 12.5508 8.78613 12.8644 8.78613 13.251C8.78613 13.6376 9.09973 13.9512 9.48633 13.9512H11.2275V15.6924C11.2275 16.079 11.5411 16.3926 11.9277 16.3926C12.3141 16.3923 12.6279 16.0788 12.6279 15.6924V13.9512H14.3691C14.7555 13.9509 15.0693 13.6374 15.0693 13.251C15.0693 12.8645 14.7555 12.551 14.3691 12.5508H12.6279V10.8096C12.6279 10.4231 12.3141 10.1096 11.9277 10.1094ZM14.1875 4.08789C14.3072 4.11893 14.4254 4.15611 14.54 4.2041C14.8606 4.33833 15.1523 4.53548 15.3975 4.78418L17.7227 7.13965C17.968 7.38797 18.1625 7.68309 18.2949 8.00781C18.3402 8.11891 18.3753 8.23386 18.4053 8.34961H14.6387C14.5183 8.34961 14.4027 8.30265 14.3184 8.21875C14.2341 8.13483 14.1875 8.02088 14.1875 7.90332V4.08789Z" fill="#15C674"/>
</svg>
