<svg width="24" height="24" viewBox="0 0 24 24" fill="none" xmlns="http://www.w3.org/2000/svg">
<path fill-rule="evenodd" clip-rule="evenodd" d="M12 3.99902C16.4189 3.99902 20.001 7.58108 20.001 12C20.001 16.4189 16.4189 20.001 12 20.001C7.58108 20.001 3.99902 16.4189 3.99902 12C3.99902 7.58108 7.58108 3.99902 12 3.99902ZM12 15.0771C11.6134 15.0772 11.2998 15.3907 11.2998 15.7773V15.8496C11.2998 16.2362 11.6134 16.5498 12 16.5498C12.3863 16.5495 12.7002 16.236 12.7002 15.8496V15.7773C12.7002 15.3909 12.3863 15.0775 12 15.0771ZM12.043 7.58887C10.511 7.58905 9.62326 8.57216 9.2998 9.53223C9.17666 9.8984 9.37319 10.2954 9.73926 10.4189C10.1055 10.5421 10.5026 10.3447 10.626 9.97852C10.7979 9.46833 11.2293 8.98942 12.043 8.98926C12.321 8.98933 12.6537 9.07642 12.8994 9.26953C13.1175 9.44121 13.3193 9.73433 13.3193 10.2852C13.3193 10.6927 13.0619 10.9886 12.5029 11.5098C12.0425 11.939 11.2412 12.6216 11.2412 13.6953C11.2414 14.0815 11.5543 14.3941 11.9404 14.3945C12.3268 14.3943 12.6405 14.0816 12.6406 13.6953C12.6406 13.3391 12.8783 13.0727 13.457 12.5332C13.9371 12.0856 14.7197 11.3916 14.7197 10.2852C14.7197 9.32244 14.334 8.61678 13.7646 8.16895C13.2227 7.74298 12.5654 7.58894 12.043 7.58887Z" fill="#15C674"/>
</svg>
