<svg width="24" height="24" viewBox="0 0 24 24" fill="none" xmlns="http://www.w3.org/2000/svg">
<path d="M10.2796 5.55879C10.6721 4.52835 12.1302 4.52831 12.5227 5.55879L13.2708 7.52461C13.7838 8.87181 14.8484 9.93545 16.1956 10.4484L18.1604 11.1975C19.191 11.5899 19.191 13.0482 18.1604 13.4406L16.1956 14.1887C14.8485 14.7016 13.7838 15.7654 13.2708 17.1125L12.5227 19.0783C12.1303 20.109 10.672 20.109 10.2796 19.0783L9.53151 17.1125C9.01849 15.7654 7.95382 14.7016 6.60671 14.1887L4.64088 13.4406C3.61054 13.0481 3.61064 11.5901 4.64088 11.1975L6.60671 10.4484C7.9539 9.93545 9.01852 8.87181 9.53151 7.52461L10.2796 5.55879Z" fill="#15C674"/>
<path d="M16.971 4.05195C17.2071 3.38632 18.1489 3.38634 18.385 4.05195L18.509 4.40254C18.6562 4.81754 18.9827 5.14407 19.3977 5.29121L19.7483 5.41523C20.4139 5.6514 20.4139 6.59317 19.7483 6.8293L19.3977 6.95332C18.9827 7.10049 18.6562 7.42693 18.509 7.84199L18.385 8.1916C18.149 8.85761 17.207 8.85761 16.971 8.1916L16.8469 7.84199C16.6998 7.42692 16.3733 7.10047 15.9583 6.95332L15.6087 6.8293C14.9426 6.59331 14.9426 5.65123 15.6087 5.41523L15.9583 5.29121C16.3733 5.14409 16.6998 4.81756 16.8469 4.40254L16.971 4.05195Z" fill="#15C674"/>
</svg>
