<svg width="24" height="24" viewBox="0 0 24 24" fill="none" xmlns="http://www.w3.org/2000/svg">
<path d="M17.292 12.5664C18.1756 12.5664 18.8916 13.2824 18.8916 14.166V17.79C18.8916 18.6737 18.1756 19.3906 17.292 19.3906H12.6602C11.7765 19.3906 11.0605 18.6737 11.0605 17.79V14.166C11.0605 13.2824 11.7765 12.5664 12.6602 12.5664H17.292Z" fill="#15C674"/>
<path d="M7.15137 13.8232C7.4556 13.5028 7.96183 13.4897 8.28223 13.7939L9.9668 15.3936C10.1258 15.5446 10.2158 15.7543 10.2158 15.9736C10.2158 16.1929 10.1258 16.4027 9.9668 16.5537L8.28223 18.1533C7.96185 18.4575 7.45559 18.4443 7.15137 18.124C6.84715 17.8036 6.86033 17.2974 7.18066 16.9932L7.43066 16.7559H4.74023C4.29841 16.7559 3.93945 16.3979 3.93945 15.9561C3.93945 15.5142 4.29841 15.1562 4.74023 15.1562H7.39355L7.18066 14.9541C6.8603 14.6499 6.84723 14.1436 7.15137 13.8232Z" fill="#15C674"/>
<path d="M17.292 4.60938C18.1756 4.60938 18.8916 5.32533 18.8916 6.20898V9.83301C18.8916 10.7167 18.1756 11.4336 17.292 11.4336H12.6602C11.7765 11.4336 11.0605 10.7167 11.0605 9.83301V6.20898C11.0605 5.32533 11.7765 4.60938 12.6602 4.60938H17.292Z" fill="#15C674"/>
<path d="M7.15137 5.87012C7.4556 5.54972 7.96183 5.53659 8.28223 5.84082L9.9668 7.44043C10.1258 7.59147 10.2158 7.80118 10.2158 8.02051C10.2158 8.2398 10.1258 8.44958 9.9668 8.60059L8.28223 10.2002C7.96185 10.5043 7.45559 10.4912 7.15137 10.1709C6.84715 9.85052 6.86033 9.34428 7.18066 9.04004L7.43262 8.80078H4.60449C4.16268 8.80077 3.80469 8.4428 3.80469 8.00098C3.80469 7.55916 4.16268 7.20119 4.60449 7.20117H7.3916L7.18066 7.00098C6.8603 6.69677 6.84723 6.19052 7.15137 5.87012Z" fill="#15C674"/>
</svg>
