<svg width="24" height="24" viewBox="0 0 24 24" fill="none" xmlns="http://www.w3.org/2000/svg">
<path d="M6.6709 16.1258C6.83851 16.2491 7.00887 16.3678 7.18262 16.4803C7.40063 16.6214 7.6399 16.7556 7.89453 16.8827L6.28027 18.4979C6.00704 18.7711 5.56343 18.7708 5.29004 18.4979C5.01669 18.2246 5.01671 17.7811 5.29004 17.5077L6.6709 16.1258Z" fill="#15C674"/>
<path fill-rule="evenodd" clip-rule="evenodd" d="M17.29 5.50768C17.5634 5.23447 18.007 5.23437 18.2803 5.50768C18.5532 5.78103 18.5533 6.22468 18.2803 6.49792L17.1377 7.63854C17.531 7.93184 18.0411 8.35036 18.5947 8.911C19.0727 9.39503 19.5251 9.92068 19.9531 10.4745C20.0544 10.6055 20.2257 10.8111 20.3535 11.0204C20.4882 11.241 20.6211 11.5353 20.6211 11.8885C20.6209 12.2429 20.4855 12.5363 20.3486 12.7557C20.2182 12.9646 20.0452 13.1677 19.9414 13.2977C17.8942 15.8638 15.3069 17.9114 11.9248 17.8719C10.528 17.8556 9.04681 17.4481 7.89453 16.8729L17.126 7.64049C17.0899 7.61337 17.0556 7.58618 17.0215 7.56139C16.8186 7.41429 16.652 7.30431 16.5342 7.23034C16.4756 7.19357 16.4278 7.16489 16.3945 7.14538C16.3783 7.13589 16.3651 7.12742 16.3555 7.12194C16.3531 7.12059 16.3497 7.11994 16.3477 7.11901C16.2073 7.03413 16.065 6.95289 15.9209 6.87585L17.29 5.50768ZM11.4512 14.7381C11.6038 14.7629 11.7603 14.7782 11.9199 14.7782L12.0693 14.7743C13.6029 14.6964 14.8219 13.4277 14.8223 11.8749L14.8193 11.7255C14.8139 11.6174 14.8002 11.5107 14.7832 11.4061L11.4512 14.7381Z" fill="#15C674"/>
<path d="M11.9307 5.89928C13.3946 5.86158 14.7218 6.22393 15.9209 6.8651L13.4033 9.38268C12.9694 9.12294 12.4626 8.97259 11.9199 8.97252L11.7705 8.97545C10.2861 9.05059 9.09589 10.2411 9.02051 11.7255L9.0166 11.8749C9.01672 12.4175 9.16735 12.9249 9.42676 13.3592L6.6709 16.1151C5.45856 15.2237 4.40719 14.063 3.53125 12.7928L3.48926 12.7215L3.48828 12.7206L3.4873 12.7186L3.48535 12.7137C3.48338 12.7097 3.48071 12.7037 3.47754 12.6971C3.47108 12.6838 3.46151 12.6648 3.45117 12.6424C3.43055 12.5978 3.4032 12.5346 3.375 12.4637C3.33127 12.3538 3.23939 12.1127 3.23926 11.8856C3.23926 11.6583 3.33108 11.4175 3.375 11.3075C3.40332 11.2366 3.43145 11.1734 3.45215 11.1288C3.46233 11.1069 3.47109 11.0883 3.47754 11.0751C3.48064 11.0687 3.48337 11.0625 3.48535 11.0585L3.48828 11.0536L3.48926 11.0516L3.49023 11.0507C3.50112 11.0291 3.51298 11.0072 3.52637 10.9872C5.47712 8.06986 8.3523 5.80776 11.9307 5.89928Z" fill="#15C674"/>
</svg>
