<svg width="24" height="24" viewBox="0 0 24 24" fill="none" xmlns="http://www.w3.org/2000/svg">
<path fill-rule="evenodd" clip-rule="evenodd" d="M9.66113 7.83398C10.67 7.83424 11.4873 8.65223 11.4873 9.66113C11.4871 10.6698 10.6698 11.4871 9.66113 11.4873C8.65223 11.4873 7.83424 10.67 7.83398 9.66113C7.83398 8.65207 8.65207 7.83398 9.66113 7.83398Z" fill="#15C674"/>
<path fill-rule="evenodd" clip-rule="evenodd" d="M16.123 4.87891C17.7797 4.87917 19.123 6.22221 19.123 7.87891V16.123C19.1228 17.7278 17.8621 19.0386 16.2773 19.1191L16.123 19.123H7.87891L7.72461 19.1191C6.19072 19.0414 4.96077 17.8112 4.88281 16.2773L4.87891 16.123V7.87891C4.87891 6.2738 6.13946 4.96312 7.72461 4.88281L7.87891 4.87891H16.123ZM7.87891 6.47852C7.10571 6.47852 6.47852 7.10571 6.47852 7.87891V16.123C6.47872 16.7339 6.87112 17.2514 7.41699 17.4424L12.7773 11.7383C13.5672 10.8978 14.8877 10.8515 15.7344 11.6348L17.5225 13.2891V7.87891C17.5225 7.10587 16.896 6.47878 16.123 6.47852H7.87891Z" fill="#15C674"/>
</svg>
