<svg width="24" height="24" viewBox="0 0 24 24" fill="none" xmlns="http://www.w3.org/2000/svg">
<path d="M19.47 15.4764V8.52512C19.47 7.9846 19.47 7.54255 19.4407 7.18359C19.4104 6.81299 19.3461 6.47763 19.1868 6.16504C18.9375 5.67591 18.5392 5.27853 18.0501 5.0293C17.7375 4.87012 17.403 4.80566 17.0325 4.77539C16.6737 4.74608 16.2322 4.74609 15.6921 4.74609H13.9833C13.4428 4.74609 13.0008 4.74609 12.6419 4.77539C12.2713 4.80567 11.9359 4.87002 11.6233 5.0293C11.1343 5.27852 10.7368 5.67607 10.4876 6.16504C10.3283 6.47763 10.2639 6.81299 10.2337 7.18359C10.2044 7.54254 10.2044 7.98454 10.2044 8.52503V15.4765C10.2044 16.0168 10.2044 16.4585 10.2337 16.8174C10.2639 17.188 10.3283 17.5233 10.4876 17.8359C10.7368 18.3249 11.1343 18.7225 11.6233 18.9717C11.9359 19.131 12.2713 19.1953 12.6419 19.2256C13.0008 19.2549 13.4428 19.2549 13.9833 19.2549H15.6921C16.2322 19.2549 16.6737 19.2549 17.0325 19.2256C17.403 19.1953 17.7376 19.1308 18.0501 18.9717C18.5392 18.7225 18.9375 18.325 19.1868 17.8359C19.3461 17.5233 19.4104 17.188 19.4407 16.8174C19.47 16.4585 19.47 16.0167 19.47 15.4764Z" fill="#15C674"/>
<path d="M5.63965 7.94043V16.2383H5.04883C4.14169 16.2382 3.40669 15.5028 3.40625 14.5957V9.58301C3.40635 8.67566 4.14148 7.94053 5.04883 7.94043H5.63965Z" fill="#15C674"/>
<path d="M9.04883 6.16602V18.0127H8.44824C7.54095 18.0126 6.80584 17.2774 6.80566 16.3701V7.80859C6.80576 6.90125 7.5409 6.16611 8.44824 6.16602H9.04883Z" fill="#15C674"/>
</svg>
