<svg width="24" height="24" viewBox="0 0 24 24" fill="none" xmlns="http://www.w3.org/2000/svg">
<path fill-rule="evenodd" clip-rule="evenodd" d="M11.1859 4.23477C11.3727 4.21498 11.5583 4.28433 11.6868 4.42129C11.8153 4.55836 11.8728 4.74786 11.8411 4.93301C11.728 5.59107 11.9566 6.02769 12.1009 6.27676C12.1363 6.33786 12.1971 6.41996 12.2718 6.50528C12.3446 6.58846 12.4131 6.65581 12.4476 6.68692C12.6382 6.85876 12.8263 6.95602 12.972 7.01797C13.2696 7.14445 13.6831 7.1962 13.9778 7.14297C14.1584 7.11028 14.2664 7.07802 14.3489 7.04727C14.4481 7.01031 14.506 6.98015 14.6575 6.91348C14.8645 6.82242 15.1058 6.85505 15.2806 6.99844C15.4553 7.14203 15.5338 7.37243 15.4847 7.59317C15.3001 8.4207 15.3617 9.13275 15.595 9.77969C15.7776 10.2858 16.0731 10.7689 16.4505 11.1527C16.7639 11.4714 17.1081 11.7296 17.5726 11.9496C17.8192 12.0664 18.1075 12.1627 18.2825 12.2055C18.4549 12.2475 18.8943 12.3099 19.1556 12.31C19.3292 12.31 19.4948 12.385 19.6087 12.516C19.7226 12.6473 19.7738 12.8225 19.7493 12.9945C19.5854 14.1446 19.2043 15.2441 18.4817 16.3256C17.6255 17.607 16.4084 18.6058 14.9847 19.1957C13.5608 19.7855 11.9934 19.9407 10.4817 19.64C8.97026 19.3393 7.58129 18.5969 6.49151 17.5072C5.40186 16.4175 4.65942 15.0284 4.3587 13.517C4.0581 12.0054 4.21229 10.4379 4.80206 9.01407C5.39114 7.592 6.38922 6.36357 7.67218 5.50625C8.42703 5.00188 9.54057 4.40913 11.1859 4.23477ZM13.4632 14.1654C12.8004 14.1659 12.2625 14.7038 12.262 15.3666C12.262 16.0298 12.8001 16.5674 13.4632 16.5678C14.1266 16.5678 14.6644 16.03 14.6644 15.3666C14.6639 14.7036 14.1263 14.1654 13.4632 14.1654ZM8.93292 13.8168C8.40595 13.817 7.97805 14.2449 7.97784 14.7719C7.97811 15.2988 8.40598 15.7268 8.93292 15.727C9.45979 15.7267 9.88773 15.2988 9.888 14.7719C9.88779 14.245 9.45983 13.8171 8.93292 13.8168ZM12.7132 10.4584C12.1862 10.4586 11.7583 10.8865 11.7581 11.4135C11.7581 11.9406 12.1861 12.3684 12.7132 12.3686C13.2402 12.3683 13.6683 11.9406 13.6683 11.4135C13.6681 10.8866 13.2401 10.4587 12.7132 10.4584ZM8.93194 9.41153C8.26916 9.41195 7.73121 9.94993 7.73077 10.6127C7.73077 11.2758 8.26889 11.8135 8.93194 11.8139C9.59535 11.8139 10.1331 11.2761 10.1331 10.6127C10.1327 9.94967 9.59508 9.41153 8.93194 9.41153Z" fill="#15C674"/>
</svg>
