<svg width="24" height="24" viewBox="0 0 24 24" fill="none" xmlns="http://www.w3.org/2000/svg">
<path d="M17.0332 5.63184C16.8675 5.63184 16.7324 5.76693 16.7324 5.93262V18.0156C16.7324 18.1813 16.8675 18.3164 17.0332 18.3164H18.4326C18.5983 18.3164 18.7324 18.1813 18.7324 18.0156V5.93262C18.7324 5.76693 18.5983 5.63184 18.4326 5.63184H17.0332ZM18.4326 4.43262C19.261 4.43262 19.9326 5.10419 19.9326 5.93262V18.0156C19.9326 18.8441 19.261 19.5156 18.4326 19.5156H17.0332C16.2048 19.5156 15.5332 18.8441 15.5332 18.0156L15.5332 5.93262C15.5332 5.10419 16.2048 4.43262 17.0332 4.43262L18.4326 4.43262Z" fill="#15C674"/>
<path d="M12.8228 7.23633C13.6512 7.23633 14.3228 7.9079 14.3228 8.73633L14.3228 18.0156C14.3228 18.8441 13.6512 19.5156 12.8228 19.5156H11.4233C10.5949 19.5156 9.92334 18.8441 9.92334 18.0156L9.92334 8.73633C9.92334 7.9079 10.5949 7.23633 11.4233 7.23633H12.8228Z" fill="#15C674"/>
<path d="M7.19629 9.09082C8.02472 9.09082 8.69629 9.76239 8.69629 10.5908L8.69629 18.0156C8.69629 18.8441 8.02472 19.5156 7.19629 19.5156H5.79688C4.96845 19.5156 4.29688 18.8441 4.29688 18.0156L4.29688 10.5908C4.29687 9.76239 4.96845 9.09082 5.79687 9.09082H7.19629Z" fill="#15C674"/>
</svg>
