<svg width="24" height="24" viewBox="0 0 24 24" fill="none" xmlns="http://www.w3.org/2000/svg">
<path fill-rule="evenodd" clip-rule="evenodd" d="M14.2432 7.39258C14.2432 7.72908 14.2766 8.05771 14.3389 8.37598L7.90234 10.7588V13.1631L18.6719 16.3545C18.7358 16.3732 18.7996 16.3253 18.7998 16.2588V12.459C18.9767 12.4776 19.1561 12.4883 19.3379 12.4883C19.5623 12.4883 19.7833 12.4715 20 12.4434V16.2588L19.9902 16.4189C19.9014 17.1502 19.2127 17.665 18.4863 17.542L18.3311 17.5049L14.3564 16.3271V17.3799C14.3564 17.9874 13.8643 18.4805 13.2568 18.4805H9.25684C8.64932 18.4805 8.15723 17.9874 8.15723 17.3799V14.4902L7.2666 14.2266L5.04297 15.0225L4.91992 15.0576C4.34916 15.1844 3.7867 14.7881 3.71387 14.208L3.70605 14.0811V9.91895C3.70638 9.22755 4.39183 8.74478 5.04297 8.97754L7.18848 9.74414L14.249 7.12891C14.2446 7.21615 14.2432 7.30423 14.2432 7.39258ZM9.35645 17.2803H13.1572V15.9717L9.35645 14.8457V17.2803ZM4.90625 13.7969L6.50098 13.2256V10.7725L4.90625 10.2021V13.7969Z" fill="#909090"/>
<path d="M19.3379 3.76758C19.6693 3.76758 19.9375 4.03582 19.9375 4.36719V6.46484H22.0371L22.1582 6.47656C22.4315 6.53261 22.6377 6.77459 22.6377 7.06445C22.6377 7.35431 22.4315 7.5963 22.1582 7.65234L22.0371 7.66406H19.9375V9.79492C19.9373 10.1261 19.6691 10.3945 19.3379 10.3945C19.0066 10.3945 18.7385 10.1261 18.7383 9.79492V7.66406H16.6396C16.3083 7.66406 16.04 7.39582 16.04 7.06445C16.04 6.73308 16.3083 6.46484 16.6396 6.46484H18.7383V4.36719C18.7383 4.03582 19.0065 3.76758 19.3379 3.76758Z" fill="#909090"/>
</svg>
