<svg width="24" height="24" viewBox="0 0 24 24" fill="none" xmlns="http://www.w3.org/2000/svg">
<path d="M18.7998 7.7998C18.7998 6.91615 18.0829 6.19922 17.1992 6.19922H6.7998C5.91615 6.19922 5.19922 6.91615 5.19922 7.7998V16.1992C5.19922 17.0829 5.91615 17.7998 6.7998 17.7998H17.1992C18.0829 17.7998 18.7998 17.0829 18.7998 16.1992V7.7998ZM16.0059 11.0186C16.0058 10.4847 15.9119 10.1635 15.7998 9.96777C15.6952 9.78509 15.5516 9.67023 15.3525 9.59082C15.1378 9.50522 14.8602 9.46217 14.5078 9.44629C14.3299 9.43828 14.1521 9.43721 13.9668 9.43848C13.9673 10.4102 13.9674 11.2243 13.9668 12.2471C14.2214 12.2153 14.5229 12.1645 14.8184 12.0781C15.1828 11.9716 15.4952 11.8258 15.707 11.6426C15.9015 11.4742 16.0059 11.2814 16.0059 11.0186ZM8.51074 14.4463L8.51465 14.4502C8.52251 14.459 8.53743 14.4746 8.55859 14.4951C8.60151 14.5368 8.66835 14.5961 8.75684 14.6553C8.93416 14.7739 9.18318 14.8848 9.49609 14.8848C9.88298 14.8847 10.1068 14.7988 10.2363 14.6758C10.3596 14.5586 10.5078 14.3021 10.5029 13.707C10.5001 13.3594 10.3812 13.157 10.2051 12.9941C9.99849 12.8033 9.70126 12.6563 9.30371 12.4844C8.94567 12.3295 8.46987 12.1412 8.09668 11.8691C7.68859 11.5716 7.34773 11.1381 7.2998 10.4912C7.23724 9.64597 7.48922 9.0079 7.98633 8.60352C8.44945 8.22689 9.0269 8.13672 9.46191 8.13672C10.0555 8.13681 10.4889 8.31199 10.7842 8.51562C10.9287 8.6153 11.0352 8.71732 11.1084 8.80078C11.145 8.84245 11.1729 8.88019 11.1943 8.91016C11.2051 8.92517 11.2144 8.93899 11.2217 8.9502C11.2252 8.95565 11.2287 8.9604 11.2314 8.96484C11.2329 8.96712 11.2341 8.96968 11.2354 8.97168C11.2359 8.97258 11.2368 8.97376 11.2373 8.97461L11.2383 8.97559L11.29 9.08691C11.3811 9.35078 11.277 9.65123 11.0273 9.79883C10.7777 9.94635 10.4646 9.89253 10.2773 9.68555L10.2061 9.58789L10.207 9.58984L10.208 9.59277C10.2089 9.59424 10.2102 9.59544 10.2109 9.59668C10.2124 9.59908 10.2138 9.60097 10.2148 9.60254C10.2166 9.60518 10.2174 9.60692 10.2178 9.60742C10.217 9.60638 10.2133 9.60104 10.2061 9.59277C10.1895 9.57391 10.1558 9.53969 10.1025 9.50293C10.002 9.43368 9.80521 9.33603 9.46191 9.33594C9.16033 9.33594 8.90318 9.40405 8.74316 9.53418C8.61738 9.63656 8.45653 9.85391 8.49707 10.4023C8.51258 10.6117 8.60213 10.7524 8.80371 10.8994C9.04052 11.072 9.35528 11.199 9.78027 11.3828C10.1656 11.5495 10.6436 11.7659 11.0195 12.1133C11.4258 12.4889 11.6965 13.001 11.7021 13.6973C11.7085 14.4791 11.5155 15.115 11.0635 15.5449C10.6178 15.9689 10.0325 16.0849 9.49609 16.085C8.8854 16.085 8.40778 15.865 8.08984 15.6523C7.93077 15.5459 7.80771 15.439 7.72266 15.3564C7.68016 15.3152 7.64665 15.2793 7.62207 15.252C7.60977 15.2382 7.59961 15.2261 7.5918 15.2168C7.58788 15.2122 7.58384 15.2085 7.58105 15.2051C7.57968 15.2034 7.57825 15.2016 7.57715 15.2002L7.57617 15.1982L7.57422 15.1963C7.36797 14.9373 7.41106 14.5601 7.66992 14.3535C7.92822 14.1477 8.30377 14.1893 8.51074 14.4463ZM17.2061 11.0186C17.2061 11.6847 16.9061 12.1922 16.4932 12.5498C16.0975 12.8923 15.5995 13.0993 15.1543 13.2295C14.717 13.3573 14.2872 13.4221 13.9648 13.4561C13.9638 13.9386 13.9628 14.3701 13.9619 14.71C13.9613 14.9442 13.9613 15.134 13.9619 15.2686C13.9622 15.3361 13.9622 15.3872 13.9629 15.4219C13.9632 15.4393 13.9637 15.4495 13.9639 15.4541L13.9561 15.3926C14.0181 15.7181 13.804 16.0327 13.4785 16.0947C13.1532 16.1565 12.8394 15.9425 12.7773 15.6172C12.7673 15.5644 12.7658 15.5123 12.7656 15.5088C12.7648 15.4896 12.7641 15.468 12.7637 15.4463C12.7628 15.4022 12.762 15.3436 12.7617 15.2744C12.7611 15.1351 12.7611 14.9411 12.7617 14.707C12.7629 14.2373 12.766 13.6011 12.7666 12.8945V8.84375C12.7665 8.68455 12.8298 8.53155 12.9424 8.41895C13.0548 8.30647 13.2072 8.24326 13.3662 8.24316C13.7295 8.24318 14.168 8.22929 14.5625 8.24707C14.9645 8.26521 15.3991 8.3175 15.7979 8.47656C16.2122 8.64195 16.5844 8.92166 16.8418 9.37109C17.0917 9.80754 17.206 10.3563 17.2061 11.0186ZM20 16.1992C20 17.7456 18.7456 19 17.1992 19H6.7998C5.25341 19 4 17.7456 4 16.1992V7.7998C4 6.25341 5.25341 5 6.7998 5H17.1992C18.7456 5 20 6.25341 20 7.7998V16.1992Z" fill="#15C674"/>
</svg>
