<svg width="24" height="24" viewBox="0 0 24 24" fill="none" xmlns="http://www.w3.org/2000/svg">
<path fill-rule="evenodd" clip-rule="evenodd" d="M10.6551 8.87598C12.2025 8.87609 13.4568 10.1302 13.4568 11.6777C13.4568 12.0291 13.3883 12.364 13.2703 12.6738L16.1951 14.8184C16.462 15.0143 16.5196 15.3891 16.324 15.6562C16.3058 15.681 16.2835 15.7015 16.2625 15.7227L15.7732 16.3584C15.5709 16.6204 15.1947 16.6696 14.9324 16.4678C14.6701 16.2656 14.6211 15.8884 14.823 15.626L14.9832 15.417L14.4412 15.0195L14.2215 15.3135C14.0228 15.5786 13.6458 15.6333 13.3806 15.4346C13.1161 15.2359 13.0624 14.8597 13.2605 14.5947L13.4734 14.3096L12.614 13.6787C12.1088 14.1734 11.4181 14.4794 10.6551 14.4795C9.10748 14.4795 7.8533 13.2253 7.8533 11.6777C7.8533 10.1302 9.10748 8.87598 10.6551 8.87598ZM10.6551 10.0752C9.77022 10.0752 9.05252 10.7929 9.05252 11.6777C9.05252 12.5626 9.77022 13.2803 10.6551 13.2803C11.5398 13.2802 12.2576 12.5625 12.2576 11.6777C12.2576 10.793 11.5398 10.0753 10.6551 10.0752Z" fill="#15C674"/>
<path fill-rule="evenodd" clip-rule="evenodd" d="M9.91385 4.90039C11.5331 4.91812 13.0045 5.79331 13.7596 7.16602C14.0576 7.10156 14.3625 7.0693 14.6687 7.06934L14.8904 7.0752C17.0594 7.18553 18.8013 8.90474 18.9666 11.0625C20.5558 11.7047 21.6229 13.2241 21.5994 14.9414L21.5974 14.9404C21.6344 17.203 19.782 19.0384 17.4861 19.0996H7.8201C7.81027 19.0996 7.80051 19.0971 7.7908 19.0967C7.75357 19.098 7.7079 19.0996 7.66483 19.0996C4.84543 19.0996 2.54794 16.8765 2.40701 14.0859L2.40018 13.8145C2.37877 11.7393 3.61132 9.87066 5.50858 8.99609C5.67939 6.70846 7.57917 4.90042 9.90701 4.90039H9.91385ZM9.90213 6.09961C8.13254 6.10224 6.6951 7.54619 6.6951 9.33203V9.35645C6.71456 9.62197 6.55666 9.86938 6.3074 9.96289C4.64815 10.5847 3.58105 12.122 3.60037 13.8066V13.8145C3.60062 16.0733 5.42252 17.9004 7.66483 17.9004C7.70427 17.9004 7.73723 17.8985 7.80154 17.8965C7.82155 17.8959 7.84133 17.899 7.86111 17.9004H17.4539C19.1391 17.8556 20.4327 16.5155 20.3992 14.9453C20.3991 14.9385 20.3991 14.9316 20.3992 14.9248C20.417 13.6259 19.538 12.451 18.2117 12.0664C17.9553 11.992 17.7781 11.7573 17.7781 11.4902C17.7781 11.4621 17.7796 11.4353 17.7801 11.4219C17.7807 11.4051 17.781 11.4009 17.781 11.3984C17.781 9.66853 16.3844 8.26957 14.6687 8.26953C14.3163 8.26949 13.9665 8.32939 13.6365 8.44629C13.3314 8.55415 12.9956 8.40005 12.8777 8.09863C12.416 6.91872 11.2407 6.11482 9.90213 6.09961Z" fill="#15C674"/>
</svg>
