<svg width="24" height="24" viewBox="0 0 24 24" fill="none" xmlns="http://www.w3.org/2000/svg">
<path d="M19.0898 19.3022C19.4211 19.3022 19.6892 19.5716 19.6895 19.9028C19.6892 20.234 19.4211 20.5024 19.0898 20.5024H4.875C4.54414 20.5019 4.2756 20.2337 4.27539 19.9028C4.2756 19.5718 4.54414 19.3026 4.875 19.3022H19.0898Z" fill="#15C674"/>
<path fill-rule="evenodd" clip-rule="evenodd" d="M6.99902 12.0951C7.88255 12.0951 8.59842 12.8113 8.59863 13.6948V16.6948C8.59863 17.5784 7.88268 18.2944 6.99902 18.2944H5.99902C5.11544 18.2943 4.39941 17.5784 4.39941 16.6948V13.6948C4.39963 12.8113 5.11558 12.0952 5.99902 12.0951H6.99902ZM5.99902 13.2944C5.77832 13.2945 5.59885 13.4741 5.59863 13.6948V16.6948C5.59863 16.9156 5.77819 17.0951 5.99902 17.0951H6.99902C7.21994 17.0951 7.39941 16.9157 7.39941 16.6948V13.6948C7.3992 13.474 7.21981 13.2944 6.99902 13.2944H5.99902Z" fill="#15C674"/>
<path fill-rule="evenodd" clip-rule="evenodd" d="M12.499 9.59514C13.3825 9.59515 14.0984 10.3113 14.0986 11.1948V16.6948C14.0986 17.5784 13.3827 18.2944 12.499 18.2944H11.499C10.6155 18.2943 9.89942 17.5783 9.89941 16.6948V11.1948C9.89963 10.3113 10.6156 9.59524 11.499 9.59514H12.499ZM11.499 10.7944C11.2783 10.7945 11.0988 10.9741 11.0986 11.1948V16.6948C11.0986 16.9156 11.2782 17.095 11.499 17.0951H12.499C12.7199 17.0951 12.8994 16.9157 12.8994 16.6948V11.1948C12.8992 10.974 12.7198 10.7944 12.499 10.7944H11.499Z" fill="#15C674"/>
<path fill-rule="evenodd" clip-rule="evenodd" d="M17.999 7.09514C18.8825 7.09514 19.5984 7.81128 19.5986 8.69475V16.6948C19.5986 17.5784 18.8827 18.2944 17.999 18.2944H16.999C16.1155 18.2943 15.3994 17.5783 15.3994 16.6948V8.69475C15.3996 7.81134 16.1156 7.09524 16.999 7.09514H17.999ZM16.999 8.29436C16.7783 8.29446 16.5988 8.47408 16.5986 8.69475V16.6948C16.5986 16.9156 16.7782 17.095 16.999 17.0951H17.999C18.2199 17.0951 18.3994 16.9157 18.3994 16.6948V8.69475C18.3992 8.47402 18.2198 8.29436 17.999 8.29436H16.999Z" fill="#15C674"/>
<path d="M12.3232 3.43108C12.4427 3.11805 12.7877 2.95963 13.0938 3.07659L15.1934 3.87835C15.4944 3.9934 15.6466 4.33347 15.5361 4.64397L14.7637 6.80999C14.6512 7.12558 14.3106 7.29272 14.002 7.18303C13.6935 7.0732 13.5343 6.72803 13.6465 6.41253L13.9609 5.52874L5.17773 9.25237C4.87264 9.38169 4.5267 9.23706 4.4043 8.92913C4.28209 8.62126 4.42937 8.2674 4.73438 8.13811L13.3672 4.47796L12.6611 4.20843C12.3553 4.09148 12.204 3.74405 12.3232 3.43108Z" fill="#15C674"/>
</svg>
