<svg width="24" height="24" viewBox="0 0 24 24" fill="none" xmlns="http://www.w3.org/2000/svg">
<path d="M9.9248 9.10352C10.3114 9.10352 10.625 9.41711 10.625 9.80371V10.4326C10.6249 10.8191 10.3113 11.1328 9.9248 11.1328C9.53827 11.1328 9.22471 10.8191 9.22461 10.4326V9.80371C9.22461 9.41711 9.53821 9.10352 9.9248 9.10352Z" fill="#15C674"/>
<path d="M14.0947 9.10352C14.4813 9.10352 14.7949 9.41711 14.7949 9.80371V10.4326C14.7948 10.8191 14.4813 11.1328 14.0947 11.1328C13.7082 11.1328 13.3946 10.8191 13.3945 10.4326V9.80371C13.3945 9.41711 13.7081 9.10352 14.0947 9.10352Z" fill="#15C674"/>
<path fill-rule="evenodd" clip-rule="evenodd" d="M15.7354 4.61035C17.8491 4.71724 19.5303 6.4652 19.5303 8.60547V13.8994L19.5234 14.123C19.4609 15.2404 18.9325 16.2848 18.0605 16.9971L16.2236 18.4971L15.9482 18.7031C15.3807 19.0903 14.7226 19.3247 14.0381 19.3838L13.6943 19.3984H8.7334L8.52734 19.3936C6.41396 19.2863 4.7334 17.5385 4.7334 15.3984V8.60547C4.7334 6.46543 6.41396 4.71758 8.52734 4.61035L8.7334 4.60547H15.5303L15.7354 4.61035ZM8.7334 5.80566C7.187 5.80566 5.93359 7.05907 5.93359 8.60547V15.3984C5.93359 16.9448 7.187 18.1982 8.7334 18.1982H13.3027V16.6846C13.3027 16.3007 13.3878 15.9373 13.5371 15.6094C13.1029 15.7522 12.5907 15.8555 12.0098 15.8555C11.022 15.8555 10.2313 15.5624 9.68848 15.2705C9.41721 15.1246 9.20508 14.9783 9.05859 14.8652C8.98524 14.8086 8.92757 14.7596 8.88672 14.7236C8.86641 14.7057 8.84999 14.691 8.83789 14.6797C8.83192 14.6741 8.82718 14.6688 8.82324 14.665C8.82128 14.6632 8.81884 14.6616 8.81738 14.6602L8.81445 14.6572C8.57854 14.4246 8.57593 14.0445 8.80859 13.8086C9.04112 13.5728 9.41931 13.5705 9.65527 13.8027L9.65625 13.8018L9.65723 13.8027C9.6612 13.8064 9.66868 13.8135 9.67969 13.8232C9.70251 13.8434 9.74078 13.8755 9.79199 13.915C9.89476 13.9943 10.0518 14.1036 10.2568 14.2139C10.6677 14.4348 11.2638 14.6553 12.0098 14.6553C12.7557 14.6553 13.3519 14.4348 13.7627 14.2139C13.9678 14.1035 14.1248 13.9943 14.2275 13.915C14.2787 13.8756 14.316 13.8434 14.3389 13.8232C14.3501 13.8133 14.3583 13.8065 14.3623 13.8027C14.5983 13.5701 14.9783 13.5726 15.2109 13.8086C15.3028 13.9018 15.3554 14.0177 15.374 14.1377C15.5446 14.1025 15.7214 14.085 15.9023 14.085H18.3232C18.3273 14.0234 18.3301 13.9616 18.3301 13.8994V8.60547C18.3301 7.05917 17.0765 5.80582 15.5303 5.80566H8.7334ZM15.9023 15.2842C15.1291 15.2842 14.502 15.9114 14.502 16.6846V18.0762C14.8506 17.9711 15.1787 17.801 15.4648 17.5674L17.3008 16.0674C17.571 15.8467 17.7932 15.5801 17.9619 15.2842H15.9023Z" fill="#15C674"/>
</svg>
