<svg width="24" height="24" viewBox="0 0 24 24" fill="none" xmlns="http://www.w3.org/2000/svg">
<path fill-rule="evenodd" clip-rule="evenodd" d="M16.0615 5.10156C17.6077 5.10183 18.8613 6.35513 18.8613 7.90137V14.666C18.8612 15.1294 18.6826 15.5753 18.3623 15.9102L16.0977 18.2754C15.7583 18.6298 15.2885 18.8299 14.7979 18.8301H7.95898C6.41259 18.8301 5.1582 17.5767 5.1582 16.0303V7.90137C5.1582 6.35497 6.41259 5.10156 7.95898 5.10156H16.0615ZM7.95898 6.30078C7.07533 6.30078 6.3584 7.01771 6.3584 7.90137V16.0303C6.3584 16.9139 7.07533 17.6309 7.95898 17.6309H13.9512V15.5293C13.9512 14.6456 14.6671 13.9297 15.5508 13.9297H17.6621V7.90137C17.6621 7.01787 16.945 6.30105 16.0615 6.30078H7.95898ZM15.5508 15.1289C15.3299 15.1289 15.1504 15.3084 15.1504 15.5293V17.5127C15.1783 17.4922 15.2062 17.4707 15.2305 17.4453L17.4482 15.1289H15.5508Z" fill="#909090"/>
</svg>
