<svg width="24" height="24" viewBox="0 0 24 24" fill="none" xmlns="http://www.w3.org/2000/svg">
<path d="M18.8003 10.0098H15.0796V17.7998H17.1997C18.0834 17.7998 18.8003 17.0829 18.8003 16.1992V10.0098ZM10.1206 17.7998H13.8804V10.0098H10.1206V17.7998ZM10.1206 8.81055H13.8804V6.19922H10.1206V8.81055ZM5.19971 16.1992C5.19971 17.0829 5.91664 17.7998 6.80029 17.7998H8.92041V10.0098H5.31299C5.27417 10.0098 5.23647 10.0051 5.19971 9.99805V16.1992ZM18.8003 7.7998C18.8003 6.91615 18.0834 6.19922 17.1997 6.19922H15.0796V8.81055H18.8003V7.7998ZM5.19971 8.82129C5.23642 8.81427 5.27423 8.81055 5.31299 8.81055H8.92041V6.19922H6.80029C5.91664 6.19922 5.19971 6.91615 5.19971 7.7998V8.82129ZM20.0005 16.1992C20.0005 17.7456 18.7461 19 17.1997 19H6.80029C5.2539 19 4.00049 17.7456 4.00049 16.1992V7.7998C4.00049 6.25341 5.2539 5 6.80029 5H17.1997C18.7461 5 20.0005 6.25341 20.0005 7.7998V16.1992Z" fill="#15C674"/>
</svg>
