<svg width="24" height="24" viewBox="0 0 24 24" fill="none" xmlns="http://www.w3.org/2000/svg">
<path d="M4 15.9756V7.97461C4.00011 6.92542 4.85023 6.0753 5.89941 6.0752H7.20801C7.53938 6.0752 7.80762 6.34343 7.80762 6.6748C7.80762 7.00618 7.53938 7.27441 7.20801 7.27441H5.89941C5.51297 7.27452 5.19932 7.58816 5.19922 7.97461V15.9756C5.19932 16.362 5.51297 16.6757 5.89941 16.6758H7.20801C7.53938 16.6758 7.80762 16.944 7.80762 17.2754C7.80762 17.6068 7.53938 17.875 7.20801 17.875H5.89941C4.85023 17.8749 4.00011 17.0248 4 15.9756Z" fill="#15C674"/>
<path d="M14.604 6.98438C14.6039 6.598 14.2911 6.28439 13.9048 6.28418H10.0825C9.69607 6.28429 9.38243 6.59793 9.38232 6.98438V16.998C9.38243 17.3845 9.69607 17.6981 10.0825 17.6982H13.9048C14.2911 17.698 14.6039 17.3844 14.604 16.998V6.98438ZM15.8042 16.998C15.8041 18.0472 14.9539 18.8973 13.9048 18.8975H10.0825C9.03333 18.8974 8.18321 18.0472 8.18311 16.998V6.98438C8.18321 5.93519 9.03333 5.08507 10.0825 5.08496H13.9048C14.9539 5.08517 15.8041 5.93525 15.8042 6.98438V16.998Z" fill="#15C674"/>
<path d="M19.9619 7.97461L19.9619 15.9756C19.9618 17.0248 19.1117 17.8749 18.0625 17.875H16.7539C16.4225 17.875 16.1543 17.6068 16.1543 17.2754C16.1543 16.944 16.4225 16.6758 16.7539 16.6758H18.0625C18.4489 16.6757 18.7626 16.362 18.7627 15.9756L18.7627 7.97461C18.7626 7.58816 18.4489 7.27452 18.0625 7.27441H16.7539C16.4225 7.27441 16.1543 7.00618 16.1543 6.6748C16.1543 6.34343 16.4225 6.0752 16.7539 6.0752L18.0625 6.0752C19.1117 6.0753 19.9618 6.92542 19.9619 7.97461Z" fill="#15C674"/>
<path d="M12.7192 9.54102C12.7192 9.14039 12.3943 8.81543 11.9937 8.81543C11.593 8.81543 11.2681 9.14039 11.2681 9.54102C11.2681 9.94164 11.593 10.2666 11.9937 10.2666C12.3943 10.2666 12.7192 9.94164 12.7192 9.54102ZM13.8188 9.54102C13.8188 10.5492 13.0018 11.3662 11.9937 11.3662C10.9855 11.3662 10.1685 10.5492 10.1685 9.54102C10.1685 8.53288 10.9855 7.71582 11.9937 7.71582C13.0018 7.71582 13.8188 8.53288 13.8188 9.54102Z" fill="#15C674"/>
</svg>
