<svg width="24" height="24" viewBox="0 0 24 24" fill="none" xmlns="http://www.w3.org/2000/svg">
<path fill-rule="evenodd" clip-rule="evenodd" d="M17.6348 10.624C17.9257 10.4575 18.2449 10.5064 18.4658 10.6543C18.6506 10.7781 18.7847 10.9783 18.8232 11.21L18.834 11.3115L18.8438 11.4346C18.8804 11.7199 19.0019 11.9924 19.1992 12.2852C19.4334 12.6326 19.7397 12.9601 20.0967 13.3594C20.7758 14.1189 21.6023 15.0931 21.6025 16.5312C21.6025 17.7496 20.8353 18.5841 20.1807 19.0742C19.8464 19.3244 19.515 19.5055 19.2695 19.624C19.1463 19.6835 19.0416 19.7284 18.9668 19.7588C18.9297 19.7739 18.8988 19.7857 18.877 19.7939C18.8664 19.7979 18.8571 19.8013 18.8506 19.8037C18.8477 19.8047 18.8448 19.8059 18.8428 19.8066L18.8398 19.8076L18.8389 19.8086C18.8299 19.8117 18.8186 19.8118 18.8096 19.8145C18.795 19.8188 18.7804 19.822 18.7656 19.8252C18.7401 19.8308 18.715 19.8357 18.6895 19.8379C18.6797 19.8387 18.6699 19.8385 18.6602 19.8389C18.6305 19.8399 18.6014 19.8402 18.5723 19.8369C18.5634 19.8359 18.5547 19.8334 18.5459 19.832C18.517 19.8274 18.4887 19.8222 18.4609 19.8135C18.4516 19.8106 18.4428 19.8061 18.4336 19.8027C18.4065 19.7928 18.3799 19.7823 18.3545 19.7686C18.3457 19.7638 18.3376 19.7581 18.3291 19.7529C18.3042 19.7379 18.2803 19.7217 18.2578 19.7031C18.25 19.6967 18.2429 19.6895 18.2354 19.6826C18.2129 19.6621 18.1921 19.6402 18.1729 19.6162C18.1708 19.6137 18.168 19.6119 18.166 19.6094C18.1628 19.6052 18.1604 19.6 18.1572 19.5957C18.1396 19.5716 18.1235 19.5466 18.1094 19.5195C18.1023 19.5061 18.0968 19.4923 18.0908 19.4785C18.0854 19.4658 18.0779 19.4537 18.0732 19.4404C18.0706 19.4328 18.0697 19.4247 18.0674 19.417C18.0612 19.397 18.0567 19.3768 18.0527 19.3564C18.0487 19.3358 18.0448 19.3155 18.043 19.2949C18.0416 19.2796 18.0422 19.2644 18.042 19.249C18.0417 19.2267 18.0407 19.2046 18.043 19.1826C18.0447 19.1645 18.0484 19.1468 18.0518 19.1289C18.0553 19.1104 18.0592 19.0922 18.0645 19.0742C18.0712 19.0509 18.0793 19.0283 18.0889 19.0059C18.0936 18.9947 18.0981 18.9835 18.1035 18.9727C18.1156 18.9485 18.1301 18.9258 18.1455 18.9033C18.152 18.8939 18.158 18.8841 18.165 18.875C18.1796 18.8561 18.1958 18.8386 18.2129 18.8213C18.2252 18.8088 18.2376 18.7966 18.251 18.7852C18.2568 18.7802 18.2625 18.7743 18.2686 18.7695C18.2701 18.7683 18.2741 18.7652 18.2793 18.7607C18.2905 18.7511 18.3095 18.7347 18.333 18.7119C18.3811 18.6653 18.4467 18.595 18.5117 18.5068C18.646 18.3246 18.7499 18.1039 18.75 17.8652C18.75 17.5993 18.6081 17.3675 18.2842 16.9473C18.0738 16.6744 17.7852 16.3186 17.5898 15.8662C17.0465 16.3285 16.6455 16.8728 16.6455 17.5898C16.6456 17.9415 16.8253 18.3609 17.2275 18.8701C17.3309 19.0013 17.3699 19.1626 17.3506 19.3164C17.3503 19.3184 17.3499 19.3203 17.3496 19.3223C17.3447 19.3585 17.3356 19.3939 17.3242 19.4287C17.3233 19.4314 17.3242 19.4348 17.3232 19.4375C17.3183 19.4518 17.3096 19.4649 17.3037 19.4785C17.2947 19.4994 17.2858 19.5202 17.2744 19.54C17.2641 19.5581 17.2513 19.5741 17.2393 19.5908C17.2294 19.6044 17.221 19.619 17.21 19.6318C17.1904 19.6546 17.1689 19.6749 17.1465 19.6943C17.1399 19.7 17.1348 19.7075 17.1279 19.7129C17.1269 19.7137 17.125 19.714 17.124 19.7148C17.1038 19.7306 17.0815 19.7429 17.0596 19.7559C17.046 19.7639 17.0335 19.7734 17.0195 19.7803C16.8991 19.8394 16.7601 19.8552 16.6221 19.8232C16.6038 19.8191 16.5852 19.8164 16.5674 19.8105C16.5655 19.8099 16.5634 19.8102 16.5615 19.8096C14.9676 19.2619 13.794 17.887 13.7939 16.1445C13.7941 14.9572 14.4208 13.7782 15.1621 12.835C15.9121 11.8808 16.8545 11.0715 17.6348 10.624ZM17.7383 11.9893C17.2053 12.3792 16.609 12.9357 16.1055 13.5762C15.4302 14.4354 14.9933 15.3525 14.9932 16.1445C14.9932 16.672 15.156 17.1615 15.4463 17.5771C15.4523 16.0567 16.5318 15.1178 17.3174 14.5586C17.5895 14.3651 17.907 14.3824 18.1367 14.4941C18.3317 14.5893 18.4973 14.7654 18.5713 14.9932L18.5977 15.0938L18.6328 15.2373C18.7324 15.5635 18.9477 15.8407 19.2354 16.2139C19.5021 16.5598 19.8732 17.0384 19.9385 17.6719C20.2162 17.3516 20.4023 16.974 20.4023 16.5312C20.4021 15.592 19.886 14.924 19.2021 14.1592C18.8775 13.7961 18.4966 13.3901 18.2041 12.9561C18.0096 12.6675 17.8412 12.3477 17.7383 11.9893Z" fill="#15C674"/>
<path d="M16.3203 4.58008C18.0322 4.58034 19.4199 5.96777 19.4199 7.67969V7.99219C19.4199 8.3234 19.1515 8.59251 18.8203 8.59277C18.4889 8.59277 18.2207 8.32356 18.2207 7.99219V7.67969C18.2207 6.63051 17.3694 5.77956 16.3203 5.7793H7.68066C6.63132 5.7793 5.78027 6.63035 5.78027 7.67969V16.3193C5.78027 17.3687 6.63132 18.2197 7.68066 18.2197H12.001C12.3319 18.2203 12.6006 18.4883 12.6006 18.8193C12.6006 19.1504 12.3319 19.4184 12.001 19.4189H7.68066C5.96858 19.4189 4.58008 18.0314 4.58008 16.3193V7.67969C4.58008 5.9676 5.96858 4.58008 7.68066 4.58008H16.3203Z" fill="#15C674"/>
<path d="M14.1924 9.28125C14.419 9.03957 14.7983 9.02746 15.04 9.25391C15.2818 9.48054 15.294 9.85982 15.0674 10.1016L11.3174 14.1016C11.095 14.3388 10.7245 14.3557 10.4814 14.1396L8.23145 12.1396C7.98397 11.9195 7.96155 11.5406 8.18164 11.293C8.40173 11.0454 8.78065 11.0232 9.02832 11.2432L10.8418 12.8545L14.1924 9.28125Z" fill="#15C674"/>
</svg>
