<svg width="24" height="24" viewBox="0 0 24 24" fill="none" xmlns="http://www.w3.org/2000/svg">
<path d="M17.5205 12.3086C17.7464 12.1446 18.0644 12.1567 18.2783 12.3525C18.4916 12.5484 18.5309 12.8634 18.3877 13.1025L18.3154 13.2002L15.6113 16.1523C15.2839 16.5098 14.7374 16.541 14.373 16.2383L14.3027 16.1729L13.1045 14.9414L13.0283 14.8467C12.8777 14.6118 12.9076 14.2951 13.1152 14.0928C13.323 13.8905 13.6403 13.8694 13.8711 14.0264L13.9639 14.1045L14.9404 15.1074L17.4307 12.3896L17.5205 12.3086Z" fill="#909090"/>
<path d="M9.10156 7.4209C9.3749 7.4769 9.58008 7.71889 9.58008 8.00879C9.58008 8.29869 9.3749 8.54067 9.10156 8.59668L8.98047 8.6084H8.18945C7.85808 8.6084 7.58984 8.34016 7.58984 8.00879C7.58984 7.67742 7.85808 7.40918 8.18945 7.40918H8.98047L9.10156 7.4209Z" fill="#909090"/>
<path d="M12.082 7.4209C12.3554 7.4769 12.5605 7.71889 12.5605 8.00879C12.5605 8.29869 12.3554 8.54067 12.082 8.59668L11.9609 8.6084H11.1699C10.8386 8.6084 10.5703 8.34016 10.5703 8.00879C10.5703 7.67742 10.8386 7.40918 11.1699 7.40918H11.9609L12.082 7.4209Z" fill="#909090"/>
<path fill-rule="evenodd" clip-rule="evenodd" d="M18.3105 5.01465C19.8014 5.01486 21.0096 6.22301 21.0098 7.71387V16.2988C21.0096 17.7897 19.8014 18.9978 18.3105 18.998H7.69336C6.2025 18.9978 4.99435 17.7897 4.99414 16.2988V7.71387C4.99435 6.22301 6.2025 5.01486 7.69336 5.01465H18.3105ZM6.19336 16.2988C6.19357 17.1269 6.86524 17.7986 7.69336 17.7988H18.3105C19.1387 17.7986 19.8103 17.1269 19.8105 16.2988V10.8936H6.19336V16.2988ZM7.69336 6.21387C6.86524 6.21408 6.19357 6.88575 6.19336 7.71387V9.69434H19.8105V7.71387C19.8103 6.88575 19.1387 6.21408 18.3105 6.21387H7.69336Z" fill="#909090"/>
</svg>
