<svg width="24" height="24" viewBox="0 0 24 24" fill="none" xmlns="http://www.w3.org/2000/svg">
<path d="M12.6426 11.4121C12.9157 11.4683 13.1211 11.7103 13.1211 12C13.1211 12.2897 12.9157 12.5317 12.6426 12.5879L12.5215 12.5996H8.50195C8.17058 12.5996 7.90234 12.3314 7.90234 12C7.90234 11.6686 8.17058 11.4004 8.50195 11.4004H12.5215L12.6426 11.4121Z" fill="#909090"/>
<path d="M12.6426 8.41211C12.9157 8.4683 13.1211 8.71027 13.1211 9C13.1211 9.28973 12.9157 9.5317 12.6426 9.58789L12.5215 9.59961H8.50195C8.17058 9.59961 7.90234 9.33137 7.90234 9C7.90234 8.66863 8.17058 8.40039 8.50195 8.40039H12.5215L12.6426 8.41211Z" fill="#909090"/>
<path fill-rule="evenodd" clip-rule="evenodd" d="M16.5986 4.50195C18.1999 4.50232 19.4979 5.80006 19.498 7.40137V16.5977C19.4979 18.199 18.1999 19.4967 16.5986 19.4971H7.40234C5.80087 19.497 4.50304 18.1991 4.50293 16.5977V7.40137C4.50304 5.7999 5.80088 4.50206 7.40234 4.50195H16.5986ZM7.40234 5.70117C6.46362 5.70128 5.70226 6.46264 5.70215 7.40137V16.5977C5.70225 17.5364 6.46362 18.2977 7.40234 18.2979H16.5986C17.5371 18.2975 18.2987 17.5362 18.2988 16.5977V7.40137C18.2987 6.4628 17.5371 5.70154 16.5986 5.70117H7.40234Z" fill="#909090"/>
</svg>
