<svg width="24" height="24" viewBox="0 0 24 24" fill="none" xmlns="http://www.w3.org/2000/svg">
<path d="M15.5791 9.6543C15.8527 9.59847 16.0586 9.35647 16.0586 9.06641C16.0586 8.77634 15.8527 8.53434 15.5791 8.47852L15.458 8.4668H8.54199C8.21062 8.4668 7.94238 8.73503 7.94238 9.06641C7.94238 9.39778 8.21062 9.66602 8.54199 9.66602H15.458L15.5791 9.6543Z" fill="#909090"/>
<path d="M15.5791 12.6543C15.8527 12.5985 16.0586 12.3565 16.0586 12.0664C16.0586 11.7763 15.8527 11.5343 15.5791 11.4785L15.458 11.4668H8.54199C8.21062 11.4668 7.94238 11.735 7.94238 12.0664C7.94238 12.3978 8.21062 12.666 8.54199 12.666H15.458L15.5791 12.6543Z" fill="#909090"/>
<path fill-rule="evenodd" clip-rule="evenodd" d="M16.5986 19.4971C18.1999 19.4967 19.4979 18.199 19.498 16.5977V7.40137C19.4979 5.80006 18.1999 4.50232 16.5986 4.50195H7.40234C5.80087 4.50206 4.50304 5.7999 4.50293 7.40137V16.5977C4.50304 18.1991 5.80088 19.497 7.40234 19.4971H16.5986ZM7.40234 18.2979C6.46362 18.2977 5.70226 17.5364 5.70215 16.5977V7.40137C5.70225 6.46264 6.46362 5.70128 7.40234 5.70117H16.5986C17.5371 5.70154 18.2987 6.4628 18.2988 7.40137V16.5977C18.2987 17.5362 17.5371 18.2975 16.5986 18.2979H7.40234Z" fill="#909090"/>
</svg>
