<svg width="24" height="24" viewBox="0 0 24 24" fill="none" xmlns="http://www.w3.org/2000/svg">
<path d="M11.3584 11.4121C11.0853 11.4683 10.8799 11.7103 10.8799 12C10.8799 12.2897 11.0853 12.5317 11.3584 12.5879L11.4795 12.5996H15.499C15.8304 12.5996 16.0986 12.3314 16.0986 12C16.0986 11.6686 15.8304 11.4004 15.499 11.4004H11.4795L11.3584 11.4121Z" fill="#909090"/>
<path d="M11.3584 8.41211C11.0853 8.4683 10.8799 8.71027 10.8799 9C10.8799 9.28973 11.0853 9.5317 11.3584 9.58789L11.4795 9.59961H15.499C15.8304 9.59961 16.0986 9.33137 16.0986 9C16.0986 8.66863 15.8304 8.40039 15.499 8.40039H11.4795L11.3584 8.41211Z" fill="#909090"/>
<path fill-rule="evenodd" clip-rule="evenodd" d="M7.40234 4.50195C5.8011 4.50232 4.50304 5.80006 4.50293 7.40137V16.5977C4.50304 18.199 5.8011 19.4967 7.40234 19.4971H16.5986C18.2001 19.497 19.4979 18.1991 19.498 16.5977V7.40137C19.4979 5.7999 18.2001 4.50206 16.5986 4.50195H7.40234ZM16.5986 5.70117C17.5374 5.70128 18.2987 6.46264 18.2988 7.40137V16.5977C18.2987 17.5364 17.5374 18.2977 16.5986 18.2979H7.40234C6.46384 18.2975 5.70225 17.5362 5.70215 16.5977V7.40137C5.70226 6.4628 6.46384 5.70154 7.40234 5.70117H16.5986Z" fill="#909090"/>
</svg>
