<svg width="24" height="24" viewBox="0 0 24 24" fill="none" xmlns="http://www.w3.org/2000/svg">
<path d="M17.5947 12.8516C17.829 12.6172 18.209 12.6172 18.4434 12.8516C18.6777 13.0859 18.6777 13.4659 18.4434 13.7002L16.9961 15.1465L18.4434 16.5928C18.6777 16.8271 18.6777 17.2071 18.4434 17.4414C18.209 17.6757 17.829 17.6757 17.5947 17.4414L16.1475 15.9941L14.7012 17.4414C14.4669 17.6757 14.0878 17.6757 13.8535 17.4414C13.6192 17.2071 13.6192 16.8281 13.8535 16.5938L15.2998 15.1465L13.8535 13.6992C13.6192 13.4649 13.6192 13.0859 13.8535 12.8516C14.0878 12.6172 14.4669 12.6172 14.7012 12.8516L16.1475 14.2979L17.5947 12.8516ZM16.6104 6.60547V6.09766H12.4629C12.4608 6.11604 12.4609 6.13485 12.457 6.15332L10.0547 17.6855H11.4775C11.8087 17.6857 12.0771 17.9539 12.0771 18.2852C12.0771 18.6164 11.8087 18.8846 11.4775 18.8848H7.57812C7.24675 18.8848 6.97852 18.6165 6.97852 18.2852C6.97852 17.9538 7.24675 17.6855 7.57812 17.6855H8.83008L11.2432 6.09766H6.92383V6.60547C6.92375 6.93677 6.65554 7.20508 6.32422 7.20508C5.9929 7.20508 5.72469 6.93677 5.72461 6.60547V5.49805C5.72461 5.16668 5.99285 4.89844 6.32422 4.89844H17.21C17.5413 4.89844 17.8096 5.16668 17.8096 5.49805V6.60547C17.8095 6.93677 17.5413 7.20508 17.21 7.20508C16.8786 7.20508 16.6104 6.93677 16.6104 6.60547Z" fill="#15C674"/>
</svg>
