<svg width="24" height="24" viewBox="0 0 24 24" fill="none" xmlns="http://www.w3.org/2000/svg">
<path d="M15.5791 14.3447C15.8527 14.4006 16.0586 14.6426 16.0586 14.9326C16.0586 15.2227 15.8527 15.4647 15.5791 15.5205L15.458 15.5322H8.54199C8.21062 15.5322 7.94238 15.264 7.94238 14.9326C7.94238 14.6012 8.21062 14.333 8.54199 14.333H15.458L15.5791 14.3447Z" fill="#909090"/>
<path d="M15.5791 11.3447C15.8527 11.4006 16.0586 11.6426 16.0586 11.9326C16.0586 12.2227 15.8527 12.4647 15.5791 12.5205L15.458 12.5322H8.54199C8.21062 12.5322 7.94238 12.264 7.94238 11.9326C7.94238 11.6012 8.21062 11.333 8.54199 11.333H15.458L15.5791 11.3447Z" fill="#909090"/>
<path fill-rule="evenodd" clip-rule="evenodd" d="M16.5986 4.50195C18.1999 4.50232 19.4979 5.80006 19.498 7.40137V16.5977C19.4979 18.199 18.1999 19.4967 16.5986 19.4971H7.40234C5.80087 19.497 4.50304 18.1991 4.50293 16.5977V7.40137C4.50304 5.7999 5.80088 4.50206 7.40234 4.50195H16.5986ZM7.40234 5.70117C6.46362 5.70128 5.70226 6.46264 5.70215 7.40137V16.5977C5.70225 17.5364 6.46362 18.2977 7.40234 18.2979H16.5986C17.5371 18.2975 18.2987 17.5362 18.2988 16.5977V7.40137C18.2987 6.4628 17.5371 5.70154 16.5986 5.70117H7.40234Z" fill="#909090"/>
</svg>
