<svg width="24" height="24" viewBox="0 0 24 24" fill="none" xmlns="http://www.w3.org/2000/svg">
<path d="M10.2617 14.5693C10.0289 14.7229 9.71277 14.6971 9.50781 14.4922C9.30298 14.2872 9.27706 13.9711 9.43066 13.7383L9.50781 13.6445L11.1523 12.001L9.50781 10.3555C9.27366 10.1211 9.27355 9.74207 9.50781 9.50781C9.74209 9.27371 10.1212 9.27371 10.3555 9.50781L12 11.1523L13.6445 9.50781C13.8788 9.27371 14.2579 9.27371 14.4922 9.50781C14.7264 9.74207 14.7263 10.1211 14.4922 10.3555L12.8486 12.001L14.4922 13.6445L14.5693 13.7383C14.7229 13.9711 14.697 14.2872 14.4922 14.4922C14.2872 14.6971 13.9711 14.7229 13.7383 14.5693L13.6436 14.4922L12 12.8486L10.3564 14.4922L10.2617 14.5693Z" fill="#333333"/>
<path fill-rule="evenodd" clip-rule="evenodd" d="M7.40137 19.4971C5.80012 19.4967 4.50206 18.199 4.50195 16.5977L4.50195 7.40137C4.50206 5.80006 5.80012 4.50232 7.40137 4.50195L16.5977 4.50195C18.1991 4.50206 19.497 5.7999 19.4971 7.40137L19.4971 16.5977C19.497 18.1991 18.1991 19.497 16.5977 19.4971L7.40137 19.4971ZM16.5977 18.2979C17.5364 18.2977 18.2977 17.5364 18.2979 16.5977L18.2979 7.40137C18.2977 6.46264 17.5364 5.70128 16.5977 5.70117L7.40137 5.70117C6.46287 5.70154 5.70128 6.4628 5.70117 7.40137L5.70117 16.5977C5.70128 17.5362 6.46286 18.2975 7.40137 18.2979L16.5977 18.2979Z" fill="#333333"/>
</svg>
