<svg width="24" height="24" viewBox="0 0 24 24" fill="none" xmlns="http://www.w3.org/2000/svg">
<path d="M19.8508 14.2119C20.0629 13.9574 20.4419 13.9227 20.6965 14.1348C20.9509 14.3469 20.9847 14.725 20.7727 14.9795L17.4992 18.9092C17.3913 19.0386 17.233 19.1164 17.0647 19.124C16.8965 19.1315 16.7325 19.0682 16.6135 18.9492L14.6496 16.9844C14.4154 16.7501 14.4154 16.37 14.6496 16.1357C14.8838 15.9019 15.263 15.9019 15.4973 16.1357L16.9973 17.6357L19.8508 14.2119Z" fill="black"/>
<path d="M12.0002 13.0996C12.8012 13.0996 13.6522 13.1766 14.4641 13.3838C14.1146 13.6826 13.8104 14.0324 13.5627 14.4219C13.0571 14.3384 12.5289 14.2988 12.0002 14.2988C10.7533 14.2988 9.50682 14.5025 8.56075 15.0449C7.68223 15.5488 7.03246 16.3603 6.88399 17.6992H12.9123C12.9859 18.1216 13.1153 18.5247 13.2951 18.8994H6.7502C6.15459 18.8994 5.61898 18.4038 5.67208 17.749C5.82107 15.9133 6.72364 14.7153 7.96407 14.0039C9.16864 13.3133 10.6552 13.0996 12.0002 13.0996Z" fill="black"/>
<path d="M7.28731 12.9307C7.28612 13.0965 7.24915 13.2614 7.15157 13.3955C6.96079 13.6575 6.66864 13.9658 6.34395 14.3203C6.11876 14.3975 5.90747 14.4927 5.717 14.6123C5.18784 14.9448 4.76984 15.4777 4.64181 16.375H4.82833C4.64298 16.7484 4.50006 17.1477 4.42794 17.5742H4.3752C3.84694 17.5742 3.37282 17.1357 3.41524 16.5547C3.5194 15.1288 4.16256 14.1715 5.07931 13.5957C5.74848 13.1755 6.53073 12.9781 7.28731 12.9072C7.28722 12.9149 7.28737 12.9227 7.28731 12.9307Z" fill="black"/>
<path fill-rule="evenodd" clip-rule="evenodd" d="M12.258 5.00586C16.6896 5.23353 16.2649 12.4995 12.0432 12.5L11.716 12.4854C8.42114 12.1837 7.70988 7.33174 10.1604 5.58203C10.5805 5.28222 11.3881 5 12.0432 5L12.258 5.00586ZM12.0432 6.2002C11.8725 6.2002 11.6335 6.24015 11.3811 6.32129C11.1245 6.4038 10.9386 6.50086 10.8576 6.55859C10.0912 7.10582 9.71827 8.28162 9.9836 9.4541C10.2375 10.5754 10.9707 11.2998 12.0432 11.2998C12.7248 11.2997 13.2178 11.0174 13.5725 10.5762C13.9485 10.1082 14.1817 9.43577 14.1994 8.7207C14.2171 8.00471 14.017 7.35604 13.6692 6.91406C13.3482 6.50647 12.8482 6.2003 12.0432 6.2002Z" fill="black"/>
<path d="M7.84005 6.73242C7.6956 7.14871 7.60156 7.5813 7.55977 8.0166C7.41355 8.06816 7.32051 8.11933 7.29513 8.1377C6.84539 8.46497 6.57353 9.22935 6.75606 10.0508C6.92824 10.8248 7.39053 11.2244 7.99435 11.2246C8.00141 11.2246 8.00884 11.2228 8.01583 11.2227C8.14723 11.724 8.27271 12.1897 8.33028 12.4014C8.22223 12.4157 8.11008 12.4248 7.99435 12.4248L7.75118 12.4131C5.37126 12.1916 4.79708 8.73097 6.42013 7.30273L6.59005 7.16699C6.87121 6.96277 7.38469 6.77028 7.84005 6.73242Z" fill="black"/>
<path d="M16.2942 6.73828C19.4522 7.05729 19.0999 12.4234 15.9943 12.4238L15.7512 12.4121C15.7193 12.4091 15.6877 12.4026 15.6565 12.3984C15.7048 12.1771 15.8418 11.739 15.9973 11.2227C16.3963 11.2218 16.6778 11.061 16.8918 10.79C17.128 10.4907 17.287 10.0399 17.299 9.54492C17.3111 9.04888 17.1735 8.62229 16.9621 8.34863C16.8621 8.2192 16.7319 8.1057 16.5539 8.02832C16.5187 7.59283 16.433 7.15757 16.2942 6.73828Z" fill="black"/>
</svg>
