<svg width="24" height="24" viewBox="0 0 24 24" fill="none" xmlns="http://www.w3.org/2000/svg">
<path d="M12.0005 4.57617C12.9274 4.57623 13.8162 4.73964 14.6392 5.04004C14.4082 5.36766 14.2315 5.73579 14.1187 6.13086C13.4546 5.90172 12.7424 5.77545 12.0005 5.77539C8.41357 5.77543 5.50541 8.68359 5.50537 12.2705C5.50537 15.8575 8.41354 18.7656 12.0005 18.7656C15.5872 18.7654 18.4956 15.8573 18.4956 12.2705C18.4956 11.7264 18.4263 11.1984 18.3003 10.6934C18.7051 10.6153 19.0853 10.47 19.4302 10.2695C19.6017 10.9077 19.6958 11.5781 19.6958 12.2705C19.6958 16.5201 16.25 19.9656 12.0005 19.9658C7.7508 19.9658 4.30518 16.5202 4.30518 12.2705C4.30521 8.02084 7.75082 4.57621 12.0005 4.57617Z" fill="#333333"/>
<path d="M11.8882 7.64648C12.2193 7.64675 12.4878 7.91489 12.4878 8.24609V11.749H15.3413L15.4624 11.7617C15.7354 11.818 15.9409 12.0599 15.9409 12.3496C15.9409 12.6393 15.7354 12.8813 15.4624 12.9375L15.3413 12.9492H11.8882C11.7292 12.9492 11.5768 12.8858 11.4644 12.7734C11.3519 12.6609 11.2886 12.5087 11.2886 12.3496V8.24609C11.2886 7.91472 11.5568 7.64648 11.8882 7.64648Z" fill="#333333"/>
<path fill-rule="evenodd" clip-rule="evenodd" d="M17.8813 4.49023C19.2194 4.62635 20.2632 5.75686 20.2632 7.13086L20.2495 7.40234C20.1134 8.7403 18.9837 9.78402 17.6099 9.78418L17.3384 9.77051C16.0894 9.64374 15.0963 8.65126 14.9692 7.40234L14.9556 7.13086C14.9556 5.6651 16.1441 4.47656 17.6099 4.47656L17.8813 4.49023ZM17.6099 5.67676C16.8069 5.67676 16.1558 6.32785 16.1558 7.13086C16.1559 7.93373 16.807 8.58496 17.6099 8.58496C18.4126 8.58479 19.0638 7.93362 19.064 7.13086C19.064 6.32795 18.4127 5.67693 17.6099 5.67676Z" fill="#333333"/>
<path d="M13.7583 2.4043C14.0317 2.46026 14.2378 2.70226 14.2378 2.99219C14.2378 3.28212 14.0317 3.52411 13.7583 3.58008L13.6372 3.5918H10.3628C10.0314 3.5918 9.76318 3.32356 9.76318 2.99219C9.76318 2.66082 10.0314 2.39258 10.3628 2.39258H13.6372L13.7583 2.4043Z" fill="#333333"/>
</svg>
