<svg width="24" height="24" viewBox="0 0 24 24" fill="none" xmlns="http://www.w3.org/2000/svg">
<path d="M11.6399 12.8008C11.9711 12.8055 12.2362 13.0779 12.2317 13.4092C12.2269 13.7403 11.9544 14.0054 11.6233 14.001C11.5704 14.0003 11.5169 13.999 11.4631 13.999C9.24234 13.999 7.83096 14.6194 6.95529 15.4434C6.11524 16.2339 5.70735 17.2698 5.59591 18.2998H11.9631L12.0832 18.3115C12.3568 18.3673 12.5627 18.6093 12.5627 18.8994C12.5627 19.1895 12.3568 19.4315 12.0832 19.4873L11.9631 19.499H5.4631C4.87008 19.499 4.33186 19.0086 4.38498 18.3516L4.40939 18.1064C4.55518 16.8736 5.06084 15.5783 6.13302 14.5693C7.28143 13.4888 9.01338 12.7998 11.4631 12.7998C11.5223 12.7998 11.5815 12.8 11.6399 12.8008Z" fill="#333333"/>
<path fill-rule="evenodd" clip-rule="evenodd" d="M19.1643 11.5996C19.5248 11.5788 19.8047 11.8756 19.8049 12.209L19.8215 13.5186C19.8241 13.9754 19.8158 14.4416 19.7717 14.8809C19.6875 15.7191 19.4671 16.5865 18.8713 17.2705L18.7473 17.4043C18.0478 18.1164 16.8648 18.3529 15.8606 18.1191C15.8383 18.1778 15.8148 18.2347 15.7951 18.291C15.7137 18.5239 15.6695 18.697 15.6526 18.8086L15.632 19.0205C15.576 19.2938 15.334 19.499 15.0442 19.499C14.7129 19.4989 14.4446 19.2307 14.4445 18.8994C14.4446 18.5869 14.5496 18.2168 14.6623 17.8945C14.6945 17.8024 14.73 17.7086 14.7668 17.6143C14.5867 17.4769 14.4203 17.3148 14.2776 17.123C13.9055 16.6233 13.7199 15.9768 13.7717 15.2109L13.8029 14.9229C14.0101 13.5268 14.9944 12.7561 16.0295 12.3242C17.099 11.8782 18.3633 11.7349 19.091 11.6084L19.1643 11.5996ZM18.6135 12.9014C17.9249 13.0128 17.1657 13.1504 16.4914 13.4316C15.6729 13.7732 15.108 14.2722 14.9875 15.1182L14.969 15.292C14.9339 15.8109 15.0608 16.1649 15.2404 16.4062C15.2533 16.4235 15.2677 16.4395 15.2815 16.4561C15.3646 16.2854 15.4419 16.1313 15.507 16.0049C15.5638 15.8947 15.6113 15.8039 15.6447 15.7412C15.6614 15.71 15.6756 15.6859 15.6848 15.6689L15.6975 15.6436L15.6994 15.6416C15.8586 15.3511 16.2233 15.2443 16.5139 15.4033C16.8043 15.5626 16.9103 15.9272 16.7512 16.2178C16.7508 16.2186 16.7501 16.2211 16.7492 16.2227C16.7472 16.2263 16.7434 16.2319 16.7395 16.2393C16.7313 16.2543 16.7198 16.2776 16.7043 16.3066C16.6732 16.365 16.6283 16.4502 16.5744 16.5547C16.5113 16.6771 16.4368 16.8261 16.3567 16.9902C16.9671 17.0659 17.5807 16.879 17.8908 16.5635L18.0354 16.3984C18.3485 15.9933 18.5095 15.4465 18.5783 14.7607C18.6378 14.1682 18.6246 13.5511 18.6135 12.9014Z" fill="#333333"/>
<path fill-rule="evenodd" clip-rule="evenodd" d="M11.6926 3.40527C16.5865 3.66424 16.1174 11.9372 11.4553 11.9375L11.2727 11.9336C7.54194 11.7599 6.65423 6.26457 9.24826 4.16113L9.37619 4.0625C9.84 3.72109 10.7317 3.39945 11.4553 3.39941L11.6926 3.40527ZM11.4553 4.59961C11.2553 4.59963 10.9815 4.6474 10.6955 4.74219C10.4782 4.81426 10.3022 4.89706 10.1848 4.96582L10.0871 5.0293C9.18173 5.69619 8.75423 7.11679 9.06076 8.51367C9.35777 9.8668 10.2218 10.7373 11.4553 10.7373C12.234 10.7372 12.8115 10.4039 13.2307 9.86621C13.6716 9.30059 13.9407 8.49297 13.9611 7.63965C13.9816 6.78539 13.7504 6.00196 13.3381 5.46191C12.9539 4.95879 12.3674 4.59967 11.4553 4.59961Z" fill="#333333"/>
</svg>
