<svg width="24" height="24" viewBox="0 0 24 24" fill="none" xmlns="http://www.w3.org/2000/svg">
<path d="M10.9062 12.083C11.1824 12.083 11.4062 12.3069 11.4062 12.583V15.3154C11.4058 15.5912 11.1821 15.8154 10.9062 15.8154C10.6305 15.8153 10.4067 15.5911 10.4062 15.3154V12.583C10.4062 12.3069 10.6302 12.0831 10.9062 12.083Z" fill="#333333"/>
<path d="M13.0986 12.083C13.3746 12.0833 13.5986 12.307 13.5986 12.583V15.3154C13.5982 15.591 13.3743 15.8152 13.0986 15.8154C12.8228 15.8154 12.5991 15.5912 12.5986 15.3154V12.583C12.5986 12.3069 12.8225 12.083 13.0986 12.083Z" fill="#333333"/>
<path fill-rule="evenodd" clip-rule="evenodd" d="M15.498 9.89746C16.0895 9.8977 16.5521 10.4085 16.4932 10.9971L15.9707 16.2002L15.9424 16.3887C15.7595 17.3161 14.9432 17.9998 13.9805 18H9.99121C9.0239 17.9998 8.20552 17.3096 8.02734 16.377L8 16.1875L7.5127 10.9912C7.46109 10.4413 7.86349 9.9612 8.39941 9.90332L8.50879 9.89746H15.498ZM8.99609 16.0938C9.04448 16.6072 9.47544 16.9998 9.99121 17H13.9805C14.4937 16.9998 14.924 16.6111 14.9756 16.1006L15.498 10.8975H8.50879L8.99609 16.0938Z" fill="#333333"/>
<path fill-rule="evenodd" clip-rule="evenodd" d="M11.9893 6C13.0697 6 14.0166 6.69941 14.3447 7.71191L14.4023 7.91895L14.4414 8.08691H16.8926C17.1685 8.08718 17.3926 8.31093 17.3926 8.58691C17.3926 8.86289 17.1685 9.08665 16.8926 9.08691H7.1084C6.83226 9.08691 6.60742 8.86306 6.60742 8.58691C6.60742 8.31077 6.83226 8.08691 7.1084 8.08691H9.54102L9.56738 7.96289L9.62207 7.75293C9.93707 6.7203 10.8929 6.00025 11.9893 6ZM11.9893 7.00098C11.3556 7.00122 10.8019 7.40457 10.5977 7.99023H13.3818C13.1772 7.40341 12.6223 7.00098 11.9893 7.00098Z" fill="#333333"/>
</svg>
