<svg width="24" height="24" viewBox="0 0 24 24" fill="none" xmlns="http://www.w3.org/2000/svg">
<path d="M10.6709 11.8496C10.9747 11.8496 11.2207 12.0957 11.2207 12.3994V16.0449C11.2206 16.3486 10.9746 16.5947 10.6709 16.5947C10.3672 16.5947 10.1212 16.3486 10.1211 16.0449V12.3994C10.1211 12.0957 10.3671 11.8496 10.6709 11.8496Z" fill="#333333"/>
<path d="M13.335 11.8496C13.6386 11.8497 13.8848 12.0957 13.8848 12.3994V16.0449C13.8847 16.3485 13.6386 16.5946 13.335 16.5947C13.0312 16.5947 12.7852 16.3486 12.7852 16.0449V12.3994C12.7852 12.0957 13.0312 11.8496 13.335 11.8496Z" fill="#333333"/>
<path fill-rule="evenodd" clip-rule="evenodd" d="M16.5986 9.44238C17.1366 9.50081 17.5396 9.98434 17.4844 10.5361L16.7861 17.4854L16.7578 17.6738C16.5749 18.6013 15.7588 19.2852 14.7959 19.2852H9.16504C8.19769 19.2849 7.37925 18.5949 7.20117 17.6621L7.17383 17.4727L6.52246 10.5303C6.47087 9.98047 6.87341 9.50042 7.40918 9.44238L7.51855 9.43652H16.4893L16.5986 9.44238ZM8.26953 17.3691C8.31295 17.8314 8.70083 18.1853 9.16504 18.1855H14.7959C15.2581 18.1855 15.6452 17.8348 15.6914 17.375L16.3789 10.5361H7.62891L8.26953 17.3691Z" fill="#333333"/>
<path fill-rule="evenodd" clip-rule="evenodd" d="M12.3135 4.69922L12.5381 4.70898C13.5772 4.79871 14.4645 5.50394 14.7861 6.49609L14.8457 6.71289L14.9805 7.29395H17.9463C18.25 7.29395 18.4961 7.53999 18.4961 7.84375C18.496 8.14739 18.25 8.39355 17.9463 8.39355H6.05371C5.75004 8.39355 5.50404 8.14739 5.50391 7.84375C5.50391 7.53999 5.74995 7.29395 6.05371 7.29395H8.99902L9.11133 6.75977L9.16895 6.53906C9.47763 5.52707 10.3729 4.8015 11.4268 4.70898L11.6553 4.69922H12.3135ZM11.6553 5.79883C10.9469 5.79905 10.3344 6.29528 10.1875 6.98828L10.1357 7.2334H13.8379L13.7744 6.96094C13.617 6.28103 13.0113 5.79905 12.3135 5.79883H11.6553Z" fill="#333333"/>
</svg>
