<svg width="24" height="24" viewBox="0 0 24 24" fill="none" xmlns="http://www.w3.org/2000/svg">
<path d="M11.0889 12.165C11.3373 12.1652 11.5391 12.3668 11.5391 12.6152V14.6338C11.5387 14.8819 11.337 15.0839 11.0889 15.084C10.8406 15.084 10.6391 14.882 10.6387 14.6338V12.6152C10.6387 12.3667 10.8403 12.165 11.0889 12.165Z" fill="#333333"/>
<path d="M12.915 12.165C13.1636 12.165 13.3652 12.3667 13.3652 12.6152V14.6338C13.3648 14.882 13.1633 15.084 12.915 15.084C12.6668 15.084 12.4652 14.882 12.4648 14.6338V12.6152C12.4648 12.3667 12.6665 12.165 12.915 12.165Z" fill="#333333"/>
<path fill-rule="evenodd" clip-rule="evenodd" d="M14.541 10.2559C15.2406 10.3317 15.7643 10.9602 15.6924 11.6777L15.2939 15.6504L15.2725 15.792C15.1351 16.4874 14.5228 17 13.8008 17H10.1738C9.44854 16.9998 8.83495 16.4825 8.70117 15.7832L8.68066 15.6406L8.30859 11.6699C8.2415 10.955 8.76419 10.3311 9.46094 10.2559L9.60254 10.248H14.3994L14.541 10.2559ZM9.60254 11.1484C9.36702 11.1484 9.18237 11.3505 9.2041 11.585L9.57715 15.5566C9.60633 15.8645 9.86457 16.1004 10.1738 16.1006H13.8008C14.1087 16.1006 14.3674 15.8669 14.3984 15.5605L14.7969 11.5879C14.8204 11.3526 14.6358 11.1487 14.3994 11.1484H9.60254Z" fill="#333333"/>
<path fill-rule="evenodd" clip-rule="evenodd" d="M11.9893 6.85254C12.886 6.85254 13.6686 7.44216 13.9248 8.28711L13.9688 8.45996L14.0205 8.70508H16.0771C16.3254 8.70521 16.5271 8.90699 16.5273 9.15527C16.5273 9.40372 16.3256 9.60534 16.0771 9.60547H7.92383C7.6753 9.60547 7.47363 9.4038 7.47363 9.15527C7.47383 8.90691 7.67542 8.70508 7.92383 8.70508H9.96387L10.0039 8.49316L10.0459 8.31738C10.2755 7.51497 10.9782 6.93429 11.8096 6.86035L11.9893 6.85254ZM11.9893 7.75293C11.4516 7.7533 10.9892 8.13508 10.8877 8.66309L10.8809 8.70117H13.0996L13.0879 8.64453C12.9789 8.12506 12.5201 7.75293 11.9893 7.75293Z" fill="#333333"/>
</svg>
