<svg width="24" height="24" viewBox="0 0 24 24" fill="none" xmlns="http://www.w3.org/2000/svg">
<path fill-rule="evenodd" clip-rule="evenodd" d="M15.9414 12.6875H16.9053V13.7666H15.9414V15.3066H14.6318V13.7666H11.7285V12.9131L14.9766 8.79395H15.9414V12.6875ZM13.2246 12.7168C13.3427 12.707 13.8156 12.6875 14.042 12.6875H14.6318V10.8623L13.2246 12.7168Z" fill="#15C674"/>
<path d="M9.73145 8.77344C11.178 8.77352 11.8769 9.49963 11.877 10.5195C11.877 11.5299 11.0883 12.1285 10.3291 12.7051C9.74717 13.1471 9.1824 13.5765 9.00293 14.168H11.9658V15.3057H7.25098C7.41187 13.377 8.55672 12.5473 9.43555 11.9102C10.0089 11.4945 10.4696 11.1605 10.4697 10.6572C10.4697 10.0981 10.0068 9.90137 9.51465 9.90137C8.85527 9.90137 8.31345 10.1171 7.81152 10.3428L7.46777 9.31348C8.02879 9.05845 8.80642 8.77344 9.73145 8.77344Z" fill="#15C674"/>
<path fill-rule="evenodd" clip-rule="evenodd" d="M11.9658 3.96973C16.3913 3.97019 19.9834 7.5617 19.9834 11.9873C19.9832 16.4127 16.3912 20.0044 11.9658 20.0049C10.5909 20.0049 9.29704 19.6576 8.16992 19.0479C8.15999 19.0469 8.14144 19.0449 8.11328 19.0459C8.03247 19.0487 7.91588 19.0663 7.76172 19.1025C7.45192 19.1755 7.07859 19.3035 6.67773 19.4434C6.29495 19.5769 5.8762 19.7255 5.53027 19.8115C5.35852 19.8542 5.16913 19.8903 4.99121 19.8936C4.84006 19.8962 4.54074 19.8794 4.31152 19.6504C4.1744 19.5132 4.12638 19.3526 4.10742 19.2529C4.0875 19.1481 4.08786 19.0473 4.09277 18.9668C4.10264 18.8055 4.13858 18.6272 4.17969 18.459C4.26271 18.1193 4.39902 17.6963 4.52344 17.3008C4.65257 16.8903 4.7717 16.5006 4.84082 16.1816C4.87539 16.0221 4.89291 15.9009 4.89648 15.8164C4.89758 15.7904 4.89517 15.7726 4.89453 15.7617C4.29165 14.6397 3.94731 13.3545 3.94727 11.9971C3.94727 7.56181 7.53941 3.96973 11.9658 3.96973ZM11.9658 5.16895C8.2032 5.16895 5.14746 8.22351 5.14746 11.9971C5.1475 13.023 5.37709 13.9995 5.78711 14.8721L5.97461 15.2393L5.97559 15.2412C6.09454 15.4607 6.1016 15.7043 6.09473 15.8672C6.08702 16.049 6.05488 16.2453 6.01367 16.4355C5.93106 16.8168 5.79469 17.2583 5.66797 17.6611C5.55631 18.0161 5.45508 18.3397 5.38281 18.6074C5.63659 18.535 5.94174 18.4294 6.28223 18.3105C6.67099 18.1749 7.1054 18.0245 7.4873 17.9346C7.67868 17.8896 7.88018 17.8534 8.07129 17.8467C8.2511 17.8404 8.49193 17.8571 8.71289 17.9785L9.08008 18.165C9.95255 18.5749 10.9308 18.8047 11.9658 18.8047C15.7285 18.8042 18.783 15.75 18.7832 11.9873C18.7832 8.22444 15.7286 5.16941 11.9658 5.16895Z" fill="#15C674"/>
</svg>
