<svg width="24" height="24" viewBox="0 0 24 24" fill="none" xmlns="http://www.w3.org/2000/svg">
<path fill-rule="evenodd" clip-rule="evenodd" d="M17.0063 7.64062C17.9811 7.16481 19.1487 7.68842 19.4428 8.73242C19.6522 9.47704 19.3458 10.2849 18.6576 10.6797C18.1888 10.9485 17.5612 11.2929 17.0678 11.502C16.5562 11.7187 15.8919 12.0366 15.394 12.2812C15.238 12.358 15.1509 12.535 15.1899 12.7139L16.4789 18.6055C16.7029 19.63 15.9223 20.5996 14.8735 20.5996C14.1661 20.5993 13.5381 20.1459 13.3149 19.4746L12.2983 16.415C12.2529 16.2793 12.1371 16.1812 11.9994 16.1572C11.8621 16.1815 11.7458 16.2794 11.7006 16.415L10.684 19.4746C10.4608 20.146 9.83301 20.5995 9.12542 20.5996C8.07684 20.5993 7.29607 19.6299 7.51995 18.6055L8.80902 12.7139C8.84811 12.5348 8.76109 12.358 8.60492 12.2812C8.107 12.0366 7.44254 11.7186 6.93109 11.502C6.4377 11.2929 5.80998 10.9484 5.34124 10.6797C4.65347 10.2848 4.34671 9.47687 4.55609 8.73242C4.85004 7.68843 6.01786 7.16519 6.99261 7.64062L7.71429 7.99316C8.92598 8.58462 10.1918 9.00338 11.4868 9.09668C11.6777 9.11041 11.8525 9.11794 11.9994 9.12012C12.1465 9.11797 12.321 9.11043 12.5121 9.09668C13.8072 9.00346 15.0728 8.58462 16.2846 7.99316L17.0063 7.64062ZM18.2875 9.05664C18.196 8.73362 17.8345 8.57141 17.5326 8.71875L16.811 9.07129C15.5098 9.70637 14.0921 10.1864 12.5981 10.2939C12.4135 10.3072 12.2321 10.3147 12.0659 10.3184V10.3223C12.0441 10.3223 12.0219 10.3206 11.9994 10.3203C11.9771 10.3206 11.9547 10.3223 11.933 10.3223V10.3184C11.767 10.3147 11.5852 10.3072 11.4008 10.2939C9.90688 10.1864 8.48898 9.70637 7.18792 9.07129L6.46624 8.71875C6.16441 8.57178 5.80273 8.73363 5.71136 9.05664C5.64538 9.29106 5.745 9.52722 5.9389 9.63867C6.40499 9.90588 6.97841 10.2179 7.39984 10.3965C7.94434 10.6271 8.63379 10.9582 9.13421 11.2041C9.79432 11.5284 10.1369 12.2603 9.98187 12.9697L8.69281 18.8613C8.63238 19.1375 8.8428 19.3991 9.12542 19.3994C9.31619 19.3993 9.4852 19.2768 9.54535 19.0957L10.5619 16.0371C10.7631 15.4317 11.3058 15.0097 11.933 14.957V14.9521C11.9551 14.9521 11.9775 14.9532 11.9994 14.9541C12.0215 14.9532 12.0436 14.9522 12.0659 14.9521V14.957C12.6934 15.0093 13.2356 15.4316 13.4369 16.0371L14.4535 19.0957C14.5136 19.2766 14.6829 19.3991 14.8735 19.3994C15.1563 19.3994 15.3666 19.1376 15.3061 18.8613L14.017 12.9697C13.8621 12.2605 14.2048 11.5285 14.8647 11.2041C15.3651 10.9583 16.0544 10.6272 16.5991 10.3965C17.0205 10.218 17.5938 9.90596 18.06 9.63867C18.2542 9.52733 18.3536 9.29125 18.2875 9.05664Z" fill="#15C674"/>
<path fill-rule="evenodd" clip-rule="evenodd" d="M11.9994 3.74121C13.1592 3.74121 14.0991 4.68102 14.0991 5.84082C14.0991 7.00062 13.1592 7.94043 11.9994 7.94043C10.8399 7.94018 9.89984 7.00046 9.89984 5.84082C9.89984 4.68118 10.8399 3.74146 11.9994 3.74121ZM11.9994 4.94043C11.5026 4.94068 11.0991 5.34392 11.0991 5.84082C11.0991 6.33772 11.5026 6.74096 11.9994 6.74121C12.4965 6.74121 12.8998 6.33788 12.8998 5.84082C12.8998 5.34376 12.4965 4.94043 11.9994 4.94043Z" fill="#15C674"/>
</svg>
