<svg width="24" height="24" viewBox="0 0 24 24" fill="none" xmlns="http://www.w3.org/2000/svg">
<path fill-rule="evenodd" clip-rule="evenodd" d="M9.17188 10.3252C9.17248 8.92501 10.701 8.06145 11.9004 8.78418L14.6797 10.459C15.8406 11.1588 15.8404 12.843 14.6797 13.543L11.9004 15.2178C10.7007 15.9407 9.17188 15.0765 9.17188 13.6758V10.3252ZM11.2812 9.81152C10.8816 9.57079 10.3717 9.85883 10.3711 10.3252V13.6758C10.3711 14.1426 10.8814 14.4313 11.2812 14.1904L14.0605 12.5146C14.4471 12.2813 14.4473 11.7206 14.0605 11.4873L11.2812 9.81152Z" fill="#333333"/>
<path fill-rule="evenodd" clip-rule="evenodd" d="M12 3.16406C16.88 3.16406 20.8359 7.12005 20.8359 12C20.8359 16.88 16.88 20.8359 12 20.8359C7.12005 20.8359 3.16406 16.88 3.16406 12C3.16406 7.12005 7.12005 3.16406 12 3.16406ZM12 4.36426C7.78279 4.36426 4.36426 7.78279 4.36426 12C4.36426 16.2172 7.78279 19.6357 12 19.6357C16.2172 19.6357 19.6357 16.2172 19.6357 12C19.6357 7.78279 16.2172 4.36426 12 4.36426Z" fill="#333333"/>
</svg>
