<svg width="24" height="24" viewBox="0 0 24 24" fill="none" xmlns="http://www.w3.org/2000/svg">
<path d="M15.752 4.14844C18.0163 4.14844 19.8516 5.98368 19.8516 8.24805V15.752C19.8516 18.0163 18.0163 19.8516 15.752 19.8516H8.24805C5.98368 19.8516 4.14844 18.0163 4.14844 15.752V8.24805C4.14844 5.98368 5.98368 4.14844 8.24805 4.14844H15.752ZM8.24805 5.34766C6.64642 5.34766 5.34766 6.64642 5.34766 8.24805V15.752C5.34766 17.3536 6.64642 18.6523 8.24805 18.6523H15.752C17.3536 18.6523 18.6523 17.3536 18.6523 15.752V8.24805C18.6523 6.64642 17.3536 5.34766 15.752 5.34766H8.24805ZM12 8.55176C13.9044 8.55189 15.4482 10.0956 15.4482 12C15.4481 13.9043 13.9043 15.4481 12 15.4482C10.0956 15.4482 8.55189 13.9044 8.55176 12C8.55176 10.0955 10.0955 8.55176 12 8.55176ZM12 9.75098C10.7583 9.75098 9.75098 10.7583 9.75098 12C9.75111 13.2416 10.7583 14.248 12 14.248C13.2416 14.2479 14.2479 13.2416 14.248 12C14.248 10.7583 13.2416 9.75111 12 9.75098Z" fill="#909090"/>
</svg>
