<svg width="24" height="24" viewBox="0 0 24 24" fill="none" xmlns="http://www.w3.org/2000/svg">
<path fill-rule="evenodd" clip-rule="evenodd" d="M9.56543 12.0947C9.56611 10.6945 11.0955 9.83085 12.2949 10.5537L14.2842 11.7529C15.4451 12.4527 15.4449 14.136 14.2842 14.8359L12.2949 16.0352C11.0953 16.7582 9.56543 15.8939 9.56543 14.4932V12.0947ZM11.6758 11.5811C11.2762 11.3403 10.7663 11.6284 10.7656 12.0947V14.4932C10.7656 14.9601 11.2759 15.2489 11.6758 15.0078L13.665 13.8086C14.0517 13.5752 14.0519 13.0135 13.665 12.7803L11.6758 11.5811Z" fill="#333333"/>
<path fill-rule="evenodd" clip-rule="evenodd" d="M15.75 4.15039C18.0144 4.15039 19.8496 5.98563 19.8496 8.25V15.75C19.8496 18.0144 18.0144 19.8496 15.75 19.8496H8.25C5.98563 19.8496 4.15039 18.0144 4.15039 15.75V8.25C4.15039 5.98563 5.98563 4.15039 8.25 4.15039H15.75ZM5.34961 8.67676V15.75C5.34961 17.3516 6.64837 18.6504 8.25 18.6504H15.75C17.3516 18.6504 18.6504 17.3516 18.6504 15.75V8.67676H5.34961ZM8.2207 5.34961C6.89974 5.36269 5.79306 6.26023 5.45703 7.47754H10.3486L8.2207 5.34961ZM11.9033 7.47754H14.2012L12.0732 5.34961H9.77539L11.9033 7.47754ZM15.7559 7.47754H18.543C18.2045 6.25124 17.0838 5.34961 15.75 5.34961H13.6279L15.7559 7.47754Z" fill="#333333"/>
</svg>
