<svg width="24" height="24" viewBox="0 0 24 24" fill="none" xmlns="http://www.w3.org/2000/svg">
<path d="M4.74902 13.4697C5.08026 13.4697 5.34842 13.7381 5.34863 14.0693V15.749C5.34863 17.3506 6.6474 18.6494 8.24902 18.6494H9.92871C10.2599 18.6496 10.5283 18.9178 10.5283 19.249C10.5283 19.5803 10.2599 19.8484 9.92871 19.8486H8.24902C5.98466 19.8486 4.14942 18.0134 4.14941 15.749V14.0693C4.14963 13.7381 4.41778 13.4697 4.74902 13.4697Z" fill="#909090"/>
<path d="M19.252 13.4697C19.5832 13.4697 19.8513 13.7381 19.8516 14.0693V15.749C19.8516 18.0134 18.0163 19.8486 15.752 19.8486H14.0723C13.7411 19.8484 13.4727 19.5803 13.4727 19.249C13.4727 18.9178 13.7411 18.6496 14.0723 18.6494H15.752C17.3536 18.6494 18.6523 17.3506 18.6523 15.749V14.0693C18.6526 13.7381 18.9207 13.4697 19.252 13.4697Z" fill="#909090"/>
<path fill-rule="evenodd" clip-rule="evenodd" d="M12 8.55176C13.9044 8.55189 15.4482 10.0956 15.4482 12C15.4481 13.9043 13.9043 15.4481 12 15.4482C10.0956 15.4482 8.55189 13.9044 8.55176 12C8.55176 10.0955 10.0955 8.55176 12 8.55176ZM12 9.75098C10.7583 9.75098 9.75098 10.7583 9.75098 12C9.75111 13.2416 10.7583 14.248 12 14.248C13.2416 14.2479 14.2479 13.2416 14.248 12C14.248 10.7583 13.2416 9.75111 12 9.75098Z" fill="#909090"/>
<path d="M9.92871 4.14941C10.2599 4.14963 10.5283 4.41778 10.5283 4.74902C10.5283 5.08026 10.2599 5.34842 9.92871 5.34863H8.24902C6.6474 5.34863 5.34863 6.6474 5.34863 8.24902V9.92871C5.34842 10.2599 5.08026 10.5283 4.74902 10.5283C4.41778 10.5283 4.14963 10.2599 4.14941 9.92871V8.24902C4.14942 5.98466 5.98466 4.14941 8.24902 4.14941H9.92871Z" fill="#909090"/>
<path d="M15.752 4.14941C18.0163 4.14941 19.8516 5.98466 19.8516 8.24902V9.92871C19.8513 10.2599 19.5832 10.5283 19.252 10.5283C18.9207 10.5283 18.6526 10.2599 18.6523 9.92871V8.24902C18.6523 6.6474 17.3536 5.34863 15.752 5.34863H14.0723C13.7411 5.34842 13.4727 5.08026 13.4727 4.74902C13.4727 4.41778 13.7411 4.14963 14.0723 4.14941H15.752Z" fill="#909090"/>
</svg>
