<svg width="24" height="24" viewBox="0 0 24 24" fill="none" xmlns="http://www.w3.org/2000/svg">
<path d="M18.6494 8.25098C18.6494 6.64935 17.3506 5.35059 15.749 5.35059H8.25098C6.64935 5.35059 5.35059 6.64935 5.35059 8.25098V15.749C5.35059 17.3506 6.64935 18.6494 8.25098 18.6494H15.749C17.3506 18.6494 18.6494 17.3506 18.6494 15.749V8.25098ZM19.8486 15.749C19.8486 18.0134 18.0134 19.8486 15.749 19.8486H8.25098C5.98661 19.8486 4.15137 18.0134 4.15137 15.749V8.25098C4.15137 5.98661 5.98661 4.15137 8.25098 4.15137H15.749C18.0134 4.15137 19.8486 5.98661 19.8486 8.25098V15.749Z" fill="#909090"/>
<path d="M14.6797 10.4598C15.8407 11.1597 15.8407 12.844 14.6797 13.5438L11.9004 15.2186C10.7007 15.9415 9.17188 15.0773 9.17188 13.6766V10.326C9.17221 8.92562 10.7009 8.06218 11.9004 8.78503L14.6797 10.4598ZM14.0605 12.5155C14.4474 12.2822 14.4473 11.7215 14.0605 11.4882L11.2813 9.81237C10.8815 9.57152 10.3714 9.85944 10.3711 10.326V13.6766C10.3711 14.1435 10.8814 14.4322 11.2813 14.1913L14.0605 12.5155Z" fill="#909090"/>
</svg>
