<svg width="24" height="24" viewBox="0 0 24 24" fill="none" xmlns="http://www.w3.org/2000/svg">
<path d="M18.29 18.3154C18.6212 18.3157 18.8896 18.5838 18.8896 18.915C18.8896 19.2462 18.6212 19.5144 18.29 19.5146H15.0938C14.7624 19.5146 14.4941 19.2464 14.4941 18.915C14.4941 18.5837 14.7624 18.3154 15.0938 18.3154H18.29Z" fill="#15C674"/>
<path fill-rule="evenodd" clip-rule="evenodd" d="M15.9062 4.54395C16.3495 4.54408 16.7737 4.72773 17.0762 5.05176L18.6904 6.78125C18.9667 7.07747 19.1201 7.46795 19.1201 7.87305V10.8828C19.1201 11.214 18.8517 11.4822 18.5205 11.4824C18.1892 11.4824 17.9209 11.2142 17.9209 10.8828V8.18652H6.04395V17.1387C6.04395 17.3353 6.12642 17.5307 6.2832 17.6797C6.44105 17.8295 6.6617 17.9189 6.89746 17.9189H12.3525C12.6835 17.9195 12.9521 18.1885 12.9521 18.5195C12.9519 18.8504 12.6833 19.1186 12.3525 19.1191H6.89746C6.36284 19.1191 5.84408 18.9173 5.45703 18.5498C5.0689 18.1811 4.84375 17.6741 4.84375 17.1387V7.87305C4.84376 7.46784 4.99796 7.0775 5.27441 6.78125L6.88867 5.05176C7.19125 4.72774 7.61524 4.54395 8.05859 4.54395H15.9062ZM8.05859 5.74316C7.94782 5.74316 7.84126 5.79017 7.76562 5.87109L6.72461 6.9873H17.2412L16.1992 5.87109C16.1237 5.79014 16.017 5.7433 15.9062 5.74316H8.05859Z" fill="#15C674"/>
<path d="M19.874 15.6973C20.205 15.6977 20.4736 15.9658 20.4736 16.2969C20.4736 16.628 20.205 16.8961 19.874 16.8965H15.0938C14.7624 16.8965 14.4941 16.6282 14.4941 16.2969C14.4941 15.9655 14.7624 15.6973 15.0938 15.6973H19.874Z" fill="#15C674"/>
<path d="M19.874 13.0791C20.205 13.0795 20.4736 13.3476 20.4736 13.6787C20.4736 14.0098 20.205 14.2779 19.874 14.2783H15.0938C14.7624 14.2783 14.4941 14.0101 14.4941 13.6787C14.4941 13.3473 14.7624 13.0791 15.0938 13.0791H19.874Z" fill="#15C674"/>
<path d="M14.1611 10.1943C14.4923 10.1946 14.7617 10.4627 14.7617 10.7939C14.7617 11.5373 14.4711 12.2526 13.9512 12.7812C13.4309 13.3101 12.7225 13.6092 11.9824 13.6094C11.2423 13.6094 10.5341 13.31 10.0137 12.7812C9.49355 12.2526 9.20312 11.5375 9.20312 10.7939C9.20312 10.4626 9.47136 10.1943 9.80273 10.1943C10.1339 10.1946 10.4023 10.4627 10.4023 10.7939C10.4023 11.2254 10.5718 11.6373 10.8691 11.9395C11.1661 12.2411 11.5669 12.4092 11.9824 12.4092C12.3978 12.409 12.7989 12.2411 13.0957 11.9395C13.3928 11.6373 13.5615 11.2253 13.5615 10.7939C13.5615 10.4627 13.8299 10.1945 14.1611 10.1943Z" fill="#15C674"/>
</svg>
