<svg width="24" height="24" viewBox="0 0 24 24" fill="none" xmlns="http://www.w3.org/2000/svg">
<path d="M13.3506 14.7012C13.6239 14.7572 13.8291 14.9992 13.8291 15.2891C13.8291 15.579 13.6239 15.8209 13.3506 15.877L13.2295 15.8887H8.22949C7.89812 15.8887 7.62988 15.6204 7.62988 15.2891C7.62988 14.9577 7.89812 14.6895 8.22949 14.6895H13.2295L13.3506 14.7012Z" fill="#909090"/>
<path d="M9.55371 7.95605C9.58946 7.97077 9.61443 8.00588 9.61523 8.04688C9.65265 10.0538 10.5114 10.9373 11.1924 11.1777V8.04883L11.2002 8.00977C11.2154 7.97403 11.2507 7.9493 11.292 7.94922H12.5303L12.5693 7.95703C12.6053 7.97218 12.6309 8.00736 12.6309 8.04883V9.79395C12.9279 9.7269 13.235 9.52573 13.5049 9.2334C13.8072 8.90582 14.054 8.47429 14.1777 8.02246L14.1914 7.99219C14.2096 7.96572 14.24 7.94935 14.2734 7.94922H15.4912L15.5332 7.95801C15.5464 7.96407 15.5588 7.97301 15.5684 7.98438C15.5777 7.99555 15.5841 8.00871 15.5879 8.02246L15.5898 8.06543C15.4042 9.16095 14.6628 9.9834 14.0752 10.3877C14.6795 10.7258 15.5278 11.4686 15.8711 12.7334C15.8792 12.7634 15.8724 12.7956 15.8535 12.8203C15.8346 12.845 15.8055 12.8603 15.7744 12.8604H14.4355C14.3919 12.8603 14.353 12.8316 14.3398 12.79C14.0777 11.9604 13.4561 11.3232 12.6309 11.1924V12.7598C12.6309 12.815 12.5855 12.8604 12.5303 12.8604H12.3828C11.0827 12.8603 10.0289 12.4078 9.29395 11.5732C8.56074 10.7405 8.15445 9.53744 8.12402 8.05078C8.1235 8.02395 8.13356 7.99769 8.15234 7.97852C8.17113 7.95947 8.19687 7.94922 8.22363 7.94922H9.51562L9.55371 7.95605Z" fill="#909090"/>
<path fill-rule="evenodd" clip-rule="evenodd" d="M16.167 4.94531C17.658 4.94533 18.867 6.15355 18.8672 7.64453V16.333C18.8672 17.8242 17.6581 19.0332 16.167 19.0332H7.83203C6.34104 19.033 5.13281 17.824 5.13281 16.333V7.64453C5.13302 6.15367 6.34117 4.94552 7.83203 4.94531H16.167ZM7.83203 6.14453C7.00391 6.14474 6.33224 6.81641 6.33203 7.64453V16.333C6.33203 17.1613 7.00378 17.8328 7.83203 17.833H16.167C16.9954 17.833 17.667 17.1614 17.667 16.333V7.64453C17.6668 6.81629 16.9953 6.14455 16.167 6.14453H7.83203Z" fill="#909090"/>
</svg>
