<svg width="24" height="24" viewBox="0 0 24 24" fill="none" xmlns="http://www.w3.org/2000/svg">
<path d="M4.68721 5.80664C4.35584 5.80664 4.08721 6.07527 4.08721 6.40664C4.08721 6.73801 4.35584 7.00664 4.68721 7.00664H9.33955C9.67092 7.00664 9.93955 6.73801 9.93955 6.40664C9.93955 6.07527 9.67092 5.80664 9.33955 5.80664H4.68721Z" fill="#909090"/>
<path fill-rule="evenodd" clip-rule="evenodd" d="M13.8127 14.3855L14.3563 15.8774C14.4697 16.1888 14.8141 16.3492 15.1254 16.2358C15.4368 16.1223 15.5972 15.7779 15.4838 15.4666L13.03 8.7322C12.6786 7.768 11.3151 7.76754 10.9632 8.73151L8.50414 15.4662C8.39048 15.7775 8.55068 16.122 8.86195 16.2356C9.17322 16.3493 9.51769 16.1891 9.63135 15.8778L10.1762 14.3855H13.8127ZM13.3754 13.1855L11.9963 9.40062L10.6144 13.1855H13.3754Z" fill="#909090"/>
<path d="M4.08721 12.4066C4.08721 12.0753 4.35584 11.8066 4.68721 11.8066H6.80293C7.1343 11.8066 7.40293 12.0753 7.40293 12.4066C7.40293 12.738 7.1343 13.0066 6.80293 13.0066H4.68721C4.35584 13.0066 4.08721 12.738 4.08721 12.4066Z" fill="#909090"/>
<path d="M4.08721 15.4066C4.08721 15.0753 4.35584 14.8066 4.68721 14.8066H5.56807C5.89944 14.8066 6.16807 15.0753 6.16807 15.4066C6.16807 15.738 5.89944 16.0066 5.56807 16.0066H4.68721C4.35584 16.0066 4.08721 15.738 4.08721 15.4066Z" fill="#909090"/>
<path d="M14.1019 6.40664C14.1019 6.07527 14.3705 5.80664 14.7019 5.80664H19.3542C19.6856 5.80664 19.9542 6.07527 19.9542 6.40664C19.9542 6.73801 19.6856 7.00664 19.3542 7.00664H14.7019C14.3705 7.00664 14.1019 6.73801 14.1019 6.40664Z" fill="#909090"/>
<path d="M4.68721 8.80664C4.35584 8.80664 4.08721 9.07527 4.08721 9.40664C4.08721 9.73801 4.35584 10.0066 4.68721 10.0066H7.96211C8.29348 10.0066 8.56211 9.73801 8.56211 9.40664C8.56211 9.07527 8.29348 8.80664 7.96211 8.80664H4.68721Z" fill="#909090"/>
<path d="M19.9544 18.4059C19.9544 18.7372 19.6858 19.0059 19.3544 19.0059L4.68496 19.0059C4.35359 19.0059 4.08496 18.7372 4.08496 18.4059C4.08496 18.0745 4.35359 17.8059 4.68496 17.8059L19.3544 17.8059C19.6858 17.8059 19.9544 18.0745 19.9544 18.4059Z" fill="#909090"/>
<path d="M16.0793 8.80664C15.7479 8.80664 15.4793 9.07527 15.4793 9.40664C15.4793 9.73801 15.7479 10.0066 16.0793 10.0066H19.3542C19.6856 10.0066 19.9542 9.73801 19.9542 9.40664C19.9542 9.07527 19.6856 8.80664 19.3542 8.80664H16.0793Z" fill="#909090"/>
<path d="M16.6385 12.4066C16.6385 12.0753 16.9071 11.8066 17.2385 11.8066H19.3542C19.6856 11.8066 19.9542 12.0753 19.9542 12.4066C19.9542 12.738 19.6856 13.0066 19.3542 13.0066H17.2385C16.9071 13.0066 16.6385 12.738 16.6385 12.4066Z" fill="#909090"/>
<path d="M18.4733 14.8066C18.142 14.8066 17.8733 15.0753 17.8733 15.4066C17.8733 15.738 18.142 16.0066 18.4733 16.0066H19.3542C19.6856 16.0066 19.9542 15.738 19.9542 15.4066C19.9542 15.0753 19.6856 14.8066 19.3542 14.8066H18.4733Z" fill="#909090"/>
</svg>
