<svg width="24" height="24" viewBox="0 0 24 24" fill="none" xmlns="http://www.w3.org/2000/svg">
<path d="M12.0227 6.79566C12.7403 6.79592 13.3225 7.37776 13.3225 8.09546C13.3225 8.37662 13.2311 8.63573 13.0793 8.84839L15.0452 12.2537C15.5481 12.0501 16.0893 11.95 16.636 11.9617C17.3863 11.9778 18.1173 12.2041 18.7454 12.615C19.3733 13.0259 19.8735 13.6049 20.1887 14.2859C20.5039 14.9669 20.6217 15.7229 20.5286 16.4675C20.4354 17.212 20.1354 17.9155 19.6623 18.4978C19.189 19.0803 18.5607 19.5189 17.8508 19.7625C17.1411 20.0058 16.3768 20.0449 15.6457 19.8757C14.9148 19.7064 14.2457 19.335 13.7151 18.8044C13.4811 18.5701 13.4809 18.19 13.7151 17.9558C13.9493 17.7218 14.3294 17.722 14.5637 17.9558C14.9354 18.3275 15.4041 18.5881 15.9162 18.7068C16.4286 18.8254 16.9647 18.7973 17.4621 18.6267C17.9594 18.4561 18.3991 18.1499 18.7307 17.7419C19.0623 17.3338 19.2728 16.8399 19.3381 16.3181C19.4033 15.7965 19.3206 15.2669 19.0998 14.7898C18.8789 14.3126 18.5281 13.9068 18.0881 13.6189C17.6481 13.3311 17.1362 13.1722 16.6106 13.1609C16.0961 13.1499 15.5889 13.2813 15.1438 13.5388C15.1321 13.5467 15.122 13.5571 15.1096 13.5642C14.8227 13.7298 14.4559 13.6314 14.2903 13.3445L12.01 9.39429C11.2978 9.38773 10.7229 8.80925 10.7229 8.09546C10.7229 7.3776 11.3048 6.79566 12.0227 6.79566ZM6.41332 12.0613C6.7334 11.9755 7.06291 12.166 7.14867 12.4861C7.23429 12.8059 7.04456 13.1345 6.72484 13.2205C6.21739 13.3565 5.75723 13.6324 5.39867 14.0164C5.04009 14.4005 4.79641 14.8785 4.69555 15.3943C4.59479 15.9099 4.64097 16.4435 4.82836 16.9343C5.01584 17.4252 5.33719 17.8544 5.75609 18.1716C6.17503 18.4888 6.67515 18.6819 7.19848 18.7293C7.72172 18.7765 8.24805 18.676 8.71703 18.4392C9.18615 18.2022 9.58026 17.8379 9.85277 17.3884C10.1251 16.9392 10.2667 16.4225 10.26 15.8972C10.2573 15.6879 10.3616 15.5018 10.5227 15.3923C10.5353 15.3837 10.5495 15.3776 10.5627 15.3699C10.5829 15.3583 10.6027 15.3459 10.6243 15.3367C10.638 15.3307 10.653 15.3279 10.6672 15.323C10.6882 15.3159 10.7088 15.3073 10.7307 15.3025L10.7405 15.3005C10.7796 15.2925 10.8201 15.2879 10.8616 15.2878H15.4465C15.814 14.6925 16.5905 14.4933 17.2004 14.8455C17.8213 15.2042 18.0336 15.9988 17.675 16.6199C17.3163 17.2408 16.5227 17.453 15.9016 17.0945C15.6512 16.9499 15.4686 16.7343 15.3616 16.488H11.4192C11.3439 17.0249 11.1614 17.5433 10.8782 18.0105C10.4892 18.6519 9.92856 19.1722 9.25902 19.5105C8.58948 19.8487 7.83814 19.992 7.09105 19.9246C6.34404 19.857 5.6305 19.5814 5.03246 19.1287C4.43439 18.6758 3.97494 18.0638 3.70726 17.363C3.4396 16.6622 3.37382 15.8991 3.51781 15.1628C3.66185 14.4269 4.01006 13.7462 4.52172 13.198C5.03349 12.6499 5.68901 12.2555 6.41332 12.0613ZM10.4651 4.40113C11.1562 4.10979 11.9159 4.01889 12.6565 4.13745C13.3969 4.25614 14.0891 4.58047 14.6545 5.073C15.2202 5.56588 15.6377 6.20792 15.8567 6.92554C16.0755 7.64308 16.0879 8.40795 15.8938 9.13257C15.808 9.45259 15.4785 9.64216 15.1584 9.5564C14.8389 9.47033 14.649 9.1418 14.7346 8.82203C14.8707 8.31426 14.8616 7.77795 14.7082 7.27515C14.5549 6.7727 14.2634 6.32346 13.8674 5.97828C13.4712 5.63308 12.9859 5.40524 12.467 5.32203C11.948 5.2389 11.4152 5.3033 10.9309 5.50757C10.4466 5.71186 10.0285 6.04761 9.72582 6.4773C9.4232 6.9069 9.2474 7.41358 9.21801 7.93824C9.18875 8.46295 9.30788 8.98635 9.56078 9.44703C9.8138 9.90762 10.1912 10.2888 10.6496 10.5457C10.8676 10.6679 10.979 10.9058 10.9514 11.1394C10.9423 11.2183 10.9183 11.2967 10.8762 11.3699L8.59594 15.3171C8.92797 15.9341 8.71268 16.7066 8.1018 17.0593C7.47945 17.4186 6.68376 17.2051 6.32445 16.5828C5.96523 15.9604 6.1787 15.1647 6.80101 14.8054C7.05309 14.66 7.33337 14.6098 7.6018 14.6414L9.55687 11.2537C9.12978 10.92 8.77192 10.5029 8.50902 10.0242C8.14802 9.36666 7.97804 8.62076 8.01976 7.87183C8.06164 7.12285 8.31336 6.40015 8.74535 5.78687C9.17747 5.17347 9.77373 4.69272 10.4651 4.40113Z" fill="#15C674"/>
</svg>
