<svg width="32" height="32" viewBox="0 0 24 24" fill="none" xmlns="http://www.w3.org/2000/svg">
	<path d="M8.46118 7.53999C8.20734 7.28615 7.79578 7.28615 7.54194 7.53999C7.2881 7.79383 7.2881 8.20539 7.54194 8.45923L11.0823 11.9996L7.54194 15.54C7.2881 15.7938 7.2881 16.2054 7.54194 16.4592C7.79578 16.7131 8.20734 16.7131 8.46118 16.4592L12.0016 12.9188L15.5415 16.4588C15.7954 16.7127 16.2069 16.7127 16.4608 16.4588C16.7146 16.205 16.7146 15.7934 16.4608 15.5396L12.9208 11.9996L16.4608 8.45956C16.7147 8.20572 16.7147 7.79416 16.4608 7.54032C16.207 7.28648 15.7955 7.28648 15.5416 7.54032L12.0016 11.0804L8.46118 7.53999Z" fill="#A8ADB4"/>
</svg>
