<svg width="13" height="17" viewBox="0 0 13 17" fill="none" xmlns="http://www.w3.org/2000/svg">
<path d="M8.99004 7.26953H3.99004C3.60004 7.26953 3.29004 7.57953 3.29004 7.96953C3.29004 8.35953 3.60004 8.66953 3.99004 8.66953H8.99004C9.38004 8.66953 9.69004 8.35953 9.69004 7.96953C9.69004 7.57953 9.38004 7.26953 8.99004 7.26953Z" fill="#0075FF"/>
<path d="M3.99004 10.2695H7.71004C8.10004 10.2695 8.41004 10.5795 8.41004 10.9695C8.41004 11.3595 8.10004 11.6695 7.71004 11.6695H3.99004C3.60004 11.6695 3.29004 11.3595 3.29004 10.9695C3.29004 10.5795 3.60004 10.2695 3.99004 10.2695Z" fill="#0075FF"/>
<path fill-rule="evenodd" clip-rule="evenodd" d="M12.79 4.01C12.66 3.68 12.46 3.39 12.22 3.14L9.9 0.78C9.65 0.53 9.37 0.34 9.04 0.2C8.72 0.0699997 8.41 0.02 8.03 0H2.63C1.93 0 1.27 0.28 0.77 0.78C0.27 1.28 0 1.95 0 2.67V13.34C0 14.05 0.27 14.72 0.77 15.23C1.26 15.73 1.94 16.01 2.63 16.01H10.37C11.07 16.01 11.73 15.73 12.23 15.23C12.73 14.73 13 14.06 13 13.34V5.04C13 4.69 12.93 4.34 12.8 4.02L12.79 4.01ZM11.22 4.12C11.2906 4.19056 11.3378 4.27668 11.3822 4.35777L11.4 4.39H9.27C9.09 4.39 8.91 4.32 8.78 4.19C8.65 4.06 8.58 3.89 8.58 3.71V1.55C8.69 1.61 8.8 1.67 8.89 1.76L11.22 4.12ZM11.22 14.24C10.99 14.48 10.68 14.6 10.35 14.6H2.61C2.29 14.6 1.97 14.47 1.75 14.24C1.51 14 1.38 13.68 1.38 13.34V2.67C1.38 2.33 1.51 2 1.75 1.77C1.98 1.54 2.29 1.41 2.61 1.41H7.17V3.72C7.17 4.28 7.39 4.8 7.78 5.2C8.17 5.59 8.71 5.81 9.26 5.81H11.57V13.35C11.57 13.69 11.44 14.01 11.2 14.25L11.22 14.24Z" fill="#0075FF"/>
</svg>
