<svg width="20" height="20" viewBox="0 0 20 20" fill="none" xmlns="http://www.w3.org/2000/svg">
<path d="M5.4209 5.42072C5.64869 5.19292 6.01828 5.19295 6.24609 5.42072L10 9.17462L13.7539 5.42169C13.9817 5.19389 14.3513 5.19389 14.5791 5.42169C14.8066 5.64946 14.8066 6.01819 14.5791 6.24591L10.8252 9.99982L14.5791 13.7537C14.8069 13.9815 14.8069 14.3511 14.5791 14.5789C14.3513 14.8067 13.9817 14.8067 13.7539 14.5789L10 10.825L6.24609 14.5789C6.01829 14.8067 5.6487 14.8067 5.4209 14.5789C5.19329 14.3511 5.19316 13.9815 5.4209 13.7537L9.1748 9.99982L5.4209 6.24591C5.19313 6.0181 5.19311 5.64851 5.4209 5.42072Z" fill="#C9CCD0"/>
</svg>
