<svg width="36" height="36" viewBox="0 0 36 36" fill="none" xmlns="http://www.w3.org/2000/svg">
<g filter="url(#filter0_d_2418_135104)">
<circle cx="18" cy="17" r="15" fill="#05B5AB"/>
<circle cx="18" cy="17" r="15.6" stroke="url(#paint0_linear_2418_135104)" stroke-width="1.2"/>
</g>
<g clip-path="url(#clip0_2418_135104)">
<rect x="3" y="2" width="30" height="30" rx="15" fill="#05B5AB"/>
<rect x="3" y="2" width="30" height="30" rx="15" fill="url(#paint1_linear_2418_135104)"/>
<g opacity="0.05">
<path d="M23.889 22.2484C24.5333 22.2484 25.0557 22.7707 25.0557 23.415V24.1744C25.9808 24.3013 26.8543 24.6574 27.4991 25.0982C28.031 25.4619 28.1674 26.1879 27.8037 26.7198C27.44 27.2517 26.714 27.388 26.1821 27.0244C25.7292 26.7147 25.0121 26.4577 24.3374 26.4577C23.2712 26.4577 22.7651 26.6843 22.5406 26.8715C22.3598 27.0223 22.223 27.2626 22.2305 27.7552C22.2362 28.1334 22.3711 28.3397 22.702 28.5524C23.1196 28.8208 23.7312 29.0087 24.5634 29.2329L24.7528 29.2836C25.4659 29.4741 26.338 29.707 27.0482 30.0891C27.8872 30.5405 28.6772 31.2956 28.8035 32.5555C28.9574 34.0899 28.3609 35.2865 27.2524 36.0252C26.6138 36.4509 25.8505 36.6957 25.0558 36.8182L25.056 37.5211C25.0561 38.1655 24.5338 38.6879 23.8895 38.688C23.2452 38.6881 22.7227 38.1659 22.7226 37.5215L22.7225 36.8592C21.7904 36.7342 21.0616 36.4301 20.5091 36.0862C20.1521 35.864 19.8809 35.633 19.6837 35.4416C19.5853 35.3461 19.5068 35.2618 19.4488 35.1978L19.3934 35.1361L19.3822 35.1235L19.3694 35.1093C18.9249 34.6498 18.933 33.917 19.3893 33.4673C19.8483 33.0151 20.587 33.0206 21.0392 33.4796C21.0783 33.5193 21.1154 33.5603 21.1539 33.6027C21.2874 33.7502 21.4368 33.9153 21.742 34.1052C22.1112 34.3349 22.7138 34.5863 23.6521 34.5863C24.7159 34.5863 25.5003 34.3889 25.9584 34.0836C26.3191 33.8432 26.5531 33.4992 26.4819 32.7883C26.4582 32.5525 26.3573 32.367 25.9426 32.1439C25.4834 31.8968 24.868 31.7312 24.063 31.5146L23.9565 31.4859C23.1879 31.2788 22.2142 31.0126 21.4403 30.5152C20.5798 29.962 19.9171 29.0907 19.8974 27.7906C19.8824 26.7992 20.1839 25.7986 21.0462 25.0795C21.5096 24.6931 22.0764 24.4382 22.7223 24.2897V23.415C22.7223 22.7707 23.2447 22.2484 23.889 22.2484Z" fill="black"/>
<path fill-rule="evenodd" clip-rule="evenodd" d="M18.5065 13.5537C18.1666 13.5537 17.8435 13.702 17.6219 13.9597C17.4003 14.2175 17.3021 14.5591 17.353 14.8952C17.5739 16.3525 18.3753 17.6491 19.3632 18.6511C17.2439 20.0908 15.2349 21.6631 13.6966 23.6868C11.8646 26.097 10.7454 29.0829 10.7447 33.1155C10.7438 38.1993 15.2883 43.8512 23.9704 43.8499C32.6795 43.8487 37.2531 37.7016 37.2536 33.1158C37.254 29.2718 36.1273 26.3162 34.2504 23.8781C32.6659 21.8197 30.5741 20.1676 28.2908 18.6575C29.2761 17.752 30.0932 16.524 30.2995 14.8643C30.3407 14.5324 30.2375 14.1987 30.0161 13.948C29.7946 13.6973 29.4762 13.5537 29.1417 13.5537H18.5065ZM25.6325 17.7328C26.444 17.2486 27.1331 16.6515 27.5581 15.887H20.1547C20.562 16.5893 21.1723 17.2373 21.8667 17.7328H25.6325ZM13.078 33.1159C13.0774 36.7411 16.4005 41.5177 23.97 41.5166C31.5125 41.5155 34.9199 36.2945 34.9202 33.1156C34.9206 29.7819 33.9615 27.3278 32.4015 25.3015C30.8701 23.3122 28.7243 21.6877 26.1739 20.0662L21.4449 20.0662C19.0719 21.6312 17.0328 23.1537 15.5542 25.0988C14.0467 27.082 13.0786 29.5661 13.078 33.1159Z" fill="black"/>
</g>
</g>
<rect x="2.4" y="1.4" width="31.2" height="31.2" rx="15.6" stroke="url(#paint2_linear_2418_135104)" stroke-width="1.2"/>
<g filter="url(#filter1_d_2418_135104)">
<path d="M17.9334 12.9492C18.32 12.9492 18.6334 13.2626 18.6334 13.6492V14.1048C19.1885 14.181 19.7126 14.3946 20.0995 14.6591C20.4186 14.8773 20.5004 15.3129 20.2822 15.6321C20.064 15.9512 19.6284 16.033 19.3093 15.8148C19.0375 15.629 18.6073 15.4748 18.2024 15.4748C17.5627 15.4748 17.259 15.6108 17.1244 15.7231C17.0159 15.8136 16.9338 15.9578 16.9383 16.2533C16.9417 16.4802 17.0227 16.604 17.2212 16.7316C17.4717 16.8927 17.8387 17.0054 18.338 17.1399L18.4517 17.1704C18.8795 17.2846 19.4028 17.4244 19.8289 17.6537C20.3323 17.9245 20.8063 18.3776 20.8821 19.1335C20.9744 20.0542 20.6165 20.7721 19.9515 21.2153C19.5682 21.4707 19.1103 21.6176 18.6335 21.6911L18.6336 22.1129C18.6336 22.4995 18.3203 22.8129 17.9337 22.813C17.5471 22.8131 17.2336 22.4997 17.2336 22.1131L17.2335 21.7157C16.6742 21.6407 16.237 21.4582 15.9054 21.2519C15.6912 21.1186 15.5285 20.98 15.4102 20.8651C15.3512 20.8079 15.3041 20.7573 15.2693 20.7189L15.236 20.6818L15.2293 20.6743L15.2216 20.6658C14.955 20.3901 14.9598 19.9504 15.2336 19.6806C15.509 19.4093 15.9522 19.4126 16.2235 19.6879C16.247 19.7118 16.2692 19.7364 16.2923 19.7618C16.3724 19.8503 16.4621 19.9494 16.6452 20.0633C16.8667 20.2012 17.2282 20.352 17.7912 20.352C18.4295 20.352 18.9002 20.2335 19.175 20.0504C19.3915 19.9061 19.5319 19.6997 19.4891 19.2732C19.4749 19.1317 19.4144 19.0204 19.1656 18.8865C18.89 18.7383 18.5208 18.6389 18.0378 18.5089L17.9739 18.4917C17.5127 18.3675 16.9285 18.2078 16.4642 17.9093C15.9479 17.5774 15.5503 17.0546 15.5384 16.2745C15.5294 15.6797 15.7103 15.0794 16.2277 14.6479C16.5057 14.4161 16.8458 14.2631 17.2334 14.174V13.6492C17.2334 13.2626 17.5468 12.9492 17.9334 12.9492Z" fill="url(#paint3_linear_2418_135104)"/>
<path fill-rule="evenodd" clip-rule="evenodd" d="M14.7039 7.73242C14.4999 7.73242 14.3061 7.82139 14.1731 7.97604C14.0401 8.1307 13.9812 8.33567 14.0118 8.53734C14.1443 9.41167 14.6252 10.1897 15.2179 10.7909C13.9463 11.6547 12.7409 12.598 11.818 13.8123C10.7187 15.2584 10.0472 17.0499 10.0468 19.4695C10.0463 22.5198 12.773 25.9109 17.9822 25.9102C23.2077 25.9094 25.9519 22.2212 25.9521 19.4697C25.9524 17.1633 25.2764 15.3899 24.1503 13.9271C23.1995 12.692 21.9444 11.7007 20.5745 10.7947C21.1656 10.2514 21.6559 9.51459 21.7797 8.51877C21.8044 8.31961 21.7425 8.11939 21.6096 7.96898C21.4768 7.81857 21.2857 7.73242 21.085 7.73242H14.7039ZM18.9795 10.2399C19.4664 9.94938 19.8799 9.59107 20.1349 9.13242H15.6928C15.9372 9.55375 16.3034 9.94255 16.72 10.2399L18.9795 10.2399ZM11.4468 19.4697C11.4464 21.6449 13.4403 24.5108 17.982 24.5102C22.5075 24.5095 24.5519 21.3769 24.5521 19.4695C24.5523 17.4693 23.9769 15.9969 23.0409 14.7811C22.1221 13.5875 20.8346 12.6128 19.3043 11.6399L16.4669 11.6399C15.0431 12.5789 13.8197 13.4924 12.9325 14.6595C12.028 15.8494 11.4472 17.3399 11.4468 19.4697Z" fill="url(#paint4_linear_2418_135104)"/>
</g>
<defs>
<filter id="filter0_d_2418_135104" x="0.799988" y="0.799805" width="34.4" height="34.4004" filterUnits="userSpaceOnUse" color-interpolation-filters="sRGB">
<feFlood flood-opacity="0" result="BackgroundImageFix"/>
<feColorMatrix in="SourceAlpha" type="matrix" values="0 0 0 0 0 0 0 0 0 0 0 0 0 0 0 0 0 0 127 0" result="hardAlpha"/>
<feOffset dy="1"/>
<feGaussianBlur stdDeviation="0.5"/>
<feComposite in2="hardAlpha" operator="out"/>
<feColorMatrix type="matrix" values="0 0 0 0 0 0 0 0 0 0 0 0 0 0 0 0 0 0 0.11 0"/>
<feBlend mode="normal" in2="BackgroundImageFix" result="effect1_dropShadow_2418_135104"/>
<feBlend mode="normal" in="SourceGraphic" in2="effect1_dropShadow_2418_135104" result="shape"/>
</filter>
<filter id="filter1_d_2418_135104" x="9.04678" y="7.73242" width="17.9054" height="20.1777" filterUnits="userSpaceOnUse" color-interpolation-filters="sRGB">
<feFlood flood-opacity="0" result="BackgroundImageFix"/>
<feColorMatrix in="SourceAlpha" type="matrix" values="0 0 0 0 0 0 0 0 0 0 0 0 0 0 0 0 0 0 127 0" result="hardAlpha"/>
<feOffset dy="1"/>
<feGaussianBlur stdDeviation="0.5"/>
<feComposite in2="hardAlpha" operator="out"/>
<feColorMatrix type="matrix" values="0 0 0 0 0 0 0 0 0 0 0 0 0 0 0 0 0 0 0.09 0"/>
<feBlend mode="normal" in2="BackgroundImageFix" result="effect1_dropShadow_2418_135104"/>
<feBlend mode="normal" in="SourceGraphic" in2="effect1_dropShadow_2418_135104" result="shape"/>
</filter>
<linearGradient id="paint0_linear_2418_135104" x1="9.81818" y1="6.43182" x2="25.1591" y2="32.6818" gradientUnits="userSpaceOnUse">
<stop stop-color="#F0F0F0"/>
<stop offset="0.101105" stop-color="white"/>
<stop offset="0.445" stop-color="#D4D4D4"/>
<stop offset="0.695" stop-color="white"/>
<stop offset="1" stop-color="#E3E3E3"/>
</linearGradient>
<linearGradient id="paint1_linear_2418_135104" x1="8" y1="6.5" x2="28.5" y2="27" gradientUnits="userSpaceOnUse">
<stop offset="0.497917" stop-color="#00CABE"/>
<stop offset="0.639387" stop-color="#00ABA1"/>
</linearGradient>
<linearGradient id="paint2_linear_2418_135104" x1="9.81818" y1="6.43182" x2="25.1591" y2="32.6818" gradientUnits="userSpaceOnUse">
<stop stop-color="#F0F0F0"/>
<stop offset="0.101105" stop-color="white"/>
<stop offset="0.445" stop-color="#D4D4D4"/>
<stop offset="0.695" stop-color="white"/>
<stop offset="1" stop-color="#E3E3E3"/>
</linearGradient>
<linearGradient id="paint3_linear_2418_135104" x1="11.7203" y1="14.6819" x2="26.6635" y2="32.2176" gradientUnits="userSpaceOnUse">
<stop stop-color="white"/>
<stop offset="0.25" stop-color="#F3F3F3"/>
<stop offset="0.335" stop-color="white"/>
<stop offset="0.465" stop-color="#E4E4E4"/>
<stop offset="0.515" stop-color="white"/>
<stop offset="0.855" stop-color="white"/>
</linearGradient>
<linearGradient id="paint4_linear_2418_135104" x1="11.7203" y1="14.6819" x2="26.6635" y2="32.2176" gradientUnits="userSpaceOnUse">
<stop stop-color="white"/>
<stop offset="0.25" stop-color="#F3F3F3"/>
<stop offset="0.335" stop-color="white"/>
<stop offset="0.465" stop-color="#E4E4E4"/>
<stop offset="0.515" stop-color="white"/>
<stop offset="0.855" stop-color="white"/>
</linearGradient>
<clipPath id="clip0_2418_135104">
<rect x="3" y="2" width="30" height="30" rx="15" fill="white"/>
</clipPath>
</defs>
</svg>
