<svg width="300" height="55" viewBox="0 0 300 55" fill="none" xmlns="http://www.w3.org/2000/svg">
	<path d="M300 0H0V55H300V0Z" fill="white"/>
	<path d="M182.5 0H118.5C113.806 0 110 3.80558 110 8.5C110 13.1944 113.806 17 118.5 17H182.5C187.194 17 191 13.1944 191 8.5C191 3.80558 187.194 0 182.5 0Z" fill="#EDEEF0"/>
	<g opacity="0.5">
		<path d="M182.5 22H118.5C113.806 22 110 25.8056 110 30.5C110 35.1944 113.806 39 118.5 39H182.5C187.194 39 191 35.1944 191 30.5C191 25.8056 187.194 22 182.5 22Z" fill="#EDEEF0"/>
	</g>
</svg>
