<svg width="33" height="34" viewBox="0 0 33 34" fill="none" xmlns="http://www.w3.org/2000/svg">
	<rect y="0.5" width="33" height="33" rx="16.5" fill="white"/>
	<rect x="0.5" y="1" width="32" height="32" rx="16" stroke="black" stroke-opacity="0.02"/>
	<path d="M24.4097 7.32436C22.0224 5.36178 18.2464 5.59824 13.1306 7.9155C6.94297 10.7057 5.9198 12.952 5.65183 13.5431C3.97093 17.2555 5.82236 20.5186 8.01484 23.6161C10.5971 27.2102 12.9114 28.8418 15.8103 28.9836C17.1746 29.0546 18.9285 28.9836 21.1697 26.9028C22.534 25.626 23.9225 23.5215 25.1893 20.0693C26.7971 15.7422 28.6242 10.8239 24.4097 7.32436ZM20.3902 18.6269C18.417 24.0181 17.0284 23.8762 15.8834 23.7816C14.8115 23.6871 13.4961 22.6467 12.0344 20.5895C9.89063 17.5865 10.0368 16.688 10.5484 15.5057C10.9138 14.6545 12.1562 13.8269 15.2988 12.3609C18.8555 10.7057 20.2684 10.9658 20.8774 11.3914C22.1929 12.3372 22.1929 13.756 20.3902 18.6269Z" fill="url(#paint0_radial_2365_61076)"/>
	<defs>
		<radialGradient id="paint0_radial_2365_61076" cx="0" cy="0" r="1" gradientUnits="userSpaceOnUse" gradientTransform="translate(16.6356 18.1294) scale(21.6994 21.0622)">
			<stop offset="0.2519" stop-color="#17E23B"/>
			<stop offset="0.4262" stop-color="#1AEB83"/>
			<stop offset="0.5994" stop-color="#1DF4C5"/>
			<stop offset="0.7243" stop-color="#1EF9EE"/>
			<stop offset="0.7885" stop-color="#1FFBFF"/>
		</radialGradient>
	</defs>
</svg>
