<svg width="160" height="160" viewBox="0 0 160 160" fill="none" xmlns="http://www.w3.org/2000/svg">
<path d="M0 36.8493H160V133.645C160 138.487 156.075 142.413 151.233 142.413H8.76713C3.92518 142.413 0 138.487 0 133.646V36.8493Z" fill="#86E0FB"/>
<path d="M0 26.3014H151.233C156.075 26.3014 160 30.2265 160 35.0685V37.2603H0V26.3014Z" fill="#2FC7F7"/>
<path fill-rule="evenodd" clip-rule="evenodd" d="M0 21.9178C0 17.0759 3.92518 13.1507 8.76712 13.1507H76.3794C78.6887 13.1507 80.9047 14.0618 82.5461 15.6861L97.76 30.7415H0V21.9178Z" fill="#2FC7F7"/>
<path fill-rule="evenodd" clip-rule="evenodd" d="M104.893 76.9243C103.178 76.9243 101.788 78.3145 101.788 80.0293L101.788 121.859C101.788 123.574 103.178 124.964 104.893 124.964H136.203C137.918 124.964 139.308 123.574 139.308 121.859V93.0085C139.308 91.4492 138.721 89.9469 137.665 88.8002L129.019 78.9261C127.843 77.6501 126.187 76.9243 124.452 76.9243H104.893ZM110.55 89.8434C109.195 89.8434 108.097 90.9537 108.097 92.3081C108.097 93.6624 109.195 94.7727 110.55 94.7727H128.731C130.085 94.7727 131.183 93.6624 131.183 92.3081C131.183 90.9537 130.085 89.8434 128.731 89.8434H110.55ZM110.55 99.2058C109.195 99.2058 108.097 100.316 108.097 101.67C108.097 103.025 109.195 104.135 110.55 104.135H128.731C130.085 104.135 131.183 103.025 131.183 101.67C131.183 100.316 130.085 99.2058 128.731 99.2058H110.55ZM108.097 110.908C108.097 109.554 109.195 108.443 110.55 108.443H123.412C124.767 108.443 125.865 109.554 125.865 110.908C125.865 112.262 124.767 113.373 123.412 113.373H110.55C109.195 113.373 108.097 112.262 108.097 110.908Z" fill="#3EAFD2"/>
</svg>
