<svg width="25" height="24" viewBox="0 0 25 24" fill="none" xmlns="http://www.w3.org/2000/svg">
	<path d="M12.7622 4.21761L12.8833 4.23519C13.154 4.30196 13.3496 4.5512 13.3384 4.84066C13.3271 5.13053 13.112 5.36395 12.8364 5.40902L12.7153 5.41683L12.4321 5.41097C11.8642 5.41072 11.2902 5.47624 10.7231 5.61117L10.4399 5.68441C7.83934 6.41311 6.33609 8.60074 5.86963 11.3162L5.78955 11.866C5.7506 12.195 5.45254 12.4303 5.12354 12.3914C4.79453 12.3526 4.55943 12.0544 4.59814 11.7254L4.63818 11.4188C5.09493 8.26735 6.83039 5.44985 10.1167 4.52914L10.4458 4.44417C11.1051 4.28734 11.7724 4.21143 12.4331 4.21175L12.7622 4.21761Z" fill="white"/>
	<path d="M5.70408 16.1596L5.65099 16.0504C5.55365 15.7891 5.64958 15.4872 5.89521 15.3334C6.14095 15.1798 6.45455 15.2256 6.64698 15.4275L6.72161 15.5232L6.87675 15.7614C7.19629 16.2309 7.57353 16.6684 8.00428 17.0611L8.2237 17.2532C9.25186 18.1186 10.3728 18.6258 11.6054 18.771C12.8428 18.9167 14.233 18.7021 15.8005 18.0605L15.9174 18.0257C16.1916 17.974 16.474 18.12 16.5838 18.3883C16.7092 18.6949 16.562 19.0453 16.2555 19.1708L15.9363 19.2973C14.3467 19.9026 12.8561 20.1269 11.465 19.9631C9.97633 19.7878 8.64038 19.1723 7.4514 18.1715L7.19591 17.9473C6.69513 17.4908 6.25674 16.9819 5.88506 16.4357L5.70408 16.1596Z" fill="white"/>
	<path d="M8.17773 15.2459C8.50911 15.2459 8.77734 15.5142 8.77734 15.8455C8.77734 16.1769 8.50911 16.4452 8.17773 16.4452H6.47754L6.47754 18.1493L6.46582 18.2694C6.41007 18.543 6.168 18.7488 5.87793 18.7489C5.58782 18.7489 5.34582 18.543 5.29004 18.2694L5.27734 18.1493L5.27734 15.8455C5.27734 15.5142 5.54656 15.2459 5.87793 15.2459H8.17773Z" fill="white"/>
	<path d="M4.53711 12.2674C4.53726 8.74121 6.74761 5.47415 10.1201 4.52914L10.4492 4.44417C11.1085 4.2873 11.7758 4.21146 12.4365 4.21175L12.7666 4.21761L12.8867 4.23519C13.1576 4.30179 13.354 4.55105 13.3428 4.84066C13.3315 5.13036 13.1162 5.36376 12.8408 5.40902L12.7197 5.41683L12.4365 5.41097C11.8686 5.41068 11.2946 5.47628 10.7275 5.61117L10.4443 5.68441C7.6507 6.46709 5.73745 9.21315 5.7373 12.2674C5.7373 12.5987 5.46897 12.8679 5.1377 12.868C4.80632 12.868 4.53711 12.5988 4.53711 12.2674Z" fill="white"/>
	<path d="M11.7811 6.86378C11.5681 7.11762 11.1902 7.15068 10.9364 6.93768C10.6825 6.72468 10.6494 6.34678 10.8625 6.09293L11.9559 4.78976L10.6498 3.69376L10.5645 3.60694C10.3913 3.38839 10.3897 3.07101 10.5759 2.84901C10.7621 2.62701 11.075 2.57363 11.3203 2.70624L11.4212 2.77435L13.1867 4.25578C13.4406 4.46878 13.473 4.84743 13.26 5.10127L11.7811 6.86378Z" fill="white"/>
	<path d="M19.2911 16.1634L19.2153 16.2594C19.0221 16.4606 18.7085 16.5053 18.4634 16.3508C18.2182 16.1962 18.1233 15.8938 18.2217 15.6328L18.2755 15.524L18.4226 15.2808C18.7068 14.7891 18.9371 14.2593 19.1037 13.7007L19.1814 13.4197C19.5096 12.1367 19.306 10.6525 18.6795 9.30269C18.0928 8.03851 17.1553 6.93704 16.0166 6.25873L15.7859 6.12894L15.6855 6.06078C15.4704 5.88297 15.4024 5.57326 15.5384 5.31737C15.6748 5.06135 15.9705 4.94397 16.2382 5.02335L16.35 5.06988L16.6294 5.22665C18.0044 6.04505 19.0938 7.34639 19.7673 8.79746C20.4852 10.3442 20.7542 12.113 20.344 13.7165L20.2531 14.044C20.0593 14.6934 19.7913 15.3093 19.4607 15.8813L19.2911 16.1634Z" fill="white"/>
	<path d="M17.2778 14.2894C17.1588 13.9802 17.3128 13.6335 17.622 13.5145C17.9313 13.3954 18.278 13.5494 18.397 13.8587L19.0077 15.4454L20.5981 14.8334L20.7156 14.8017C20.9908 14.7558 21.2692 14.908 21.3734 15.1785C21.4772 15.4489 21.3724 15.7478 21.1376 15.8981L21.0291 15.9535L18.8791 16.7809C18.57 16.8999 18.2234 16.7457 18.1042 16.4367L17.2778 14.2894Z" fill="white"/>
	<path d="M10.3157 12.0001C10.3157 12.4143 9.97991 12.7501 9.56569 12.7501C9.15148 12.7501 8.81569 12.4143 8.81569 12.0001C8.81569 11.5859 9.15148 11.2501 9.56569 11.2501C9.97991 11.2501 10.3157 11.5859 10.3157 12.0001Z" fill="white"/>
	<path d="M16.1586 12.0001C16.1586 12.4143 15.8228 12.7501 15.4086 12.7501C14.9944 12.7501 14.6586 12.4143 14.6586 12.0001C14.6586 11.5859 14.9944 11.2501 15.4086 11.2501C15.8228 11.2501 16.1586 11.5859 16.1586 12.0001Z" fill="white"/>
	<path d="M13.7478 11.9991C13.7478 12.6771 13.1982 13.2267 12.5203 13.2267C11.8423 13.2267 11.2927 12.6771 11.2927 11.9991C11.2927 11.3212 11.8423 10.7716 12.5203 10.7716C13.1982 10.7716 13.7478 11.3212 13.7478 11.9991Z" fill="white"/>
	<path d="M9.54183 13.9513H15.4979V10.0489H9.54183V13.9513ZM16.6981 14.0509C16.6981 14.6583 16.2059 15.1504 15.5985 15.1505H9.44222C8.8347 15.1505 8.34261 14.6584 8.34261 14.0509V9.94932C8.34261 9.34181 8.8347 8.84971 9.44222 8.84971H15.5985C16.2059 8.84979 16.6981 9.34186 16.6981 9.94932V14.0509Z" fill="white"/>
</svg>
