<svg xmlns="http://www.w3.org/2000/svg" width="40" height="40" fill="none"><path fill="#1F86FF" d="M0 0h40v40H0z"/><path fill="#fff" fill-rule="evenodd" d="M13.26 22.143c1.366-.791 3.054-1.037 4.584-1.037 1.53 0 3.217.246 4.582 1.037 1.405.814 2.422 2.183 2.584 4.28.055.716-.53 1.26-1.185 1.26H11.863c-.655 0-1.24-.544-1.185-1.26.161-2.097 1.178-3.466 2.583-4.28Zm-1.255 4.223h11.677c-.163-1.558-.91-2.5-1.916-3.084-1.08-.625-2.502-.86-3.922-.86-1.42 0-2.843.235-3.923.86-1.006.584-1.753 1.526-1.915 3.084ZM17.117 13.112c-.281.093-.484.203-.573.269-.854.628-1.276 1.99-.977 3.35.288 1.314 1.113 2.123 2.269 2.123.736 0 1.277-.313 1.675-.823.42-.54.683-1.318.702-2.147.02-.83-.205-1.583-.596-2.096-.36-.471-.91-.812-1.781-.812a2.44 2.44 0 0 0-.72.136Zm-1.354-.792c-2.785 2.05-1.86 7.851 2.073 7.851 4.722 0 5.13-8.512 0-8.512-.722 0-1.61.32-2.073.661Z" clip-rule="evenodd"/><path fill="#fff" fill-rule="evenodd" d="M22.264 12.978c.805.03 1.322.36 1.666.81.39.513.616 1.265.596 2.095-.02.83-.282 1.608-.703 2.148-.398.51-.939.823-1.675.823a2.38 2.38 0 0 1-.157-.005l-.865 1.178c.314.094.655.144 1.022.144 4.722 0 5.13-8.512 0-8.512-.303 0-.636.057-.954.148l1.07 1.171Zm3.848 14.705h2.025c.655 0 1.24-.543 1.185-1.26-.162-2.096-1.178-3.465-2.583-4.28-1.02-.591-2.222-.878-3.402-.985l1.674 1.66c.38.121.74.275 1.067.465 1.007.583 1.754 1.525 1.916 3.083h-1.882v1.317ZM13.26 22.143c1.366-.791 3.054-1.037 4.584-1.037 1.53 0 3.217.246 4.582 1.037 1.405.814 2.422 2.183 2.584 4.28.055.716-.53 1.26-1.185 1.26H11.863c-.655 0-1.24-.544-1.185-1.26.161-2.097 1.178-3.466 2.583-4.28Zm-1.255 4.223h11.677c-.163-1.558-.91-2.5-1.916-3.084-1.08-.625-2.502-.86-3.922-.86-1.42 0-2.843.235-3.923.86-1.006.584-1.753 1.526-1.915 3.084Z" clip-rule="evenodd"/><path fill="#fff" fill-rule="evenodd" d="M17.117 13.112c-.281.093-.484.203-.573.269-.854.628-1.276 1.99-.977 3.35.288 1.314 1.113 2.123 2.269 2.123.736 0 1.277-.313 1.675-.823.42-.54.683-1.318.702-2.147.02-.83-.205-1.583-.596-2.096-.36-.471-.91-.812-1.781-.812a2.44 2.44 0 0 0-.72.136Zm-1.354-.792c-2.785 2.05-1.86 7.851 2.073 7.851 4.722 0 5.13-8.512 0-8.512-.722 0-1.61.32-2.073.661Z" clip-rule="evenodd"/><path fill="#fff" fill-rule="evenodd" d="M22.264 12.978c.805.03 1.322.36 1.666.81.39.513.616 1.265.596 2.095-.02.83-.282 1.608-.703 2.148-.398.51-.939.823-1.675.823a2.38 2.38 0 0 1-.157-.005l-.865 1.178c.314.094.655.144 1.022.144 4.722 0 5.13-8.512 0-8.512-.303 0-.636.057-.954.148l1.07 1.171Zm3.848 14.705h2.025c.655 0 1.24-.543 1.185-1.26-.162-2.096-1.178-3.465-2.583-4.28-1.02-.591-2.222-.878-3.402-.985l1.674 1.66c.38.121.74.275 1.067.465 1.007.583 1.754 1.525 1.916 3.083h-1.882v1.317Z" clip-rule="evenodd"/></svg>