<svg width="90" height="40" viewBox="0 0 90 40" fill="none" xmlns="http://www.w3.org/2000/svg">
<g clip-path="url(#clip0_4818_119623)">
<g filter="url(#filter0_d_4818_119623)">
<rect x="58" y="5" width="30" height="30" rx="15" fill="url(#paint0_linear_4818_119623)"/>
<rect x="57.4" y="4.4" width="31.2" height="31.2" rx="15.6" stroke="url(#paint1_linear_4818_119623)" stroke-width="1.2"/>
</g>
<path d="M71.8191 12.9141C72.3073 11.9455 73.6724 11.9442 74.1619 12.9121L76.8464 18.2217L79.7839 16.7031C80.8778 16.1376 81.9418 17.2152 81.6492 18.2529L81.6394 18.2891L81.6326 18.3105C81.6318 18.3135 81.6319 18.316 81.6316 18.3174L80.5593 25.3408C80.5435 25.4442 80.5111 25.6044 80.4216 25.7686C80.1522 26.2628 79.6343 26.5869 79.0544 26.5869H67.0154C66.4309 26.5869 65.9099 26.2576 65.6423 25.7568C65.5586 25.6002 65.5264 25.4486 65.5105 25.3506L64.3699 18.3193C64.3696 18.3181 64.3687 18.3156 64.3679 18.3125L64.3621 18.291L64.3523 18.2578C64.055 17.2174 65.1223 16.1354 66.2175 16.7031L69.1433 18.2207L71.8191 12.9141ZM70.3552 18.9268C70.0296 19.5726 69.242 19.8483 68.5847 19.5078L65.74 18.0332C65.7439 18.0519 65.7476 18.0713 65.7507 18.0908L66.8914 25.1201C66.9248 25.1656 66.9729 25.1865 67.0154 25.1865H79.0544C79.0962 25.1865 79.1432 25.1667 79.1765 25.123L80.2478 18.1025C80.2514 18.0787 80.2557 18.0548 80.2605 18.0322L77.4041 19.5088C76.7476 19.8481 75.9615 19.5739 75.6355 18.9297L72.991 13.6992L70.3552 18.9268Z" fill="#171717"/>
<g filter="url(#filter1_d_4818_119623)">
<rect x="30" y="5" width="30" height="30" rx="15" fill="url(#paint2_linear_4818_119623)"/>
<rect x="29.4" y="4.4" width="31.2" height="31.2" rx="15.6" stroke="url(#paint3_linear_4818_119623)" stroke-width="1.2"/>
</g>
<path fill-rule="evenodd" clip-rule="evenodd" d="M49.2535 14.706C47.6723 14.6149 46.1161 15.4911 45.6687 16.7074C45.5667 16.9848 45.3017 17.1741 44.9999 17.1741C44.7066 17.1741 44.4464 16.9949 44.3388 16.7273C43.8405 15.4881 42.2656 14.6168 40.7064 14.7069C39.9538 14.7505 39.2582 15.0193 38.7331 15.5365C38.2116 16.0502 37.8013 16.865 37.7183 18.1072C37.6065 19.7802 38.3889 21.4084 39.7457 22.9579C41.0994 24.504 42.9608 25.8961 44.8381 27.0726C44.9296 27.1299 45.048 27.1288 45.1416 27.0649C46.8973 25.8674 48.7645 24.4747 50.1578 22.9275C51.5576 21.373 52.3922 19.7596 52.2818 18.1072C52.1991 16.8681 51.7839 16.0539 51.255 15.5392C50.7215 15.0201 50.0146 14.7498 49.2535 14.706ZM52.2313 14.5359C53.0494 15.3319 53.5771 16.4924 53.6787 18.0139C53.826 20.2189 52.7028 22.1934 51.1982 23.8643C49.6871 25.5423 47.7034 27.0123 45.9305 28.2215C45.3818 28.5957 44.6621 28.6145 44.0947 28.2589C42.1661 27.0503 40.1751 25.5736 38.6924 23.8802C37.2128 22.1903 36.1748 20.2084 36.3214 18.0139C36.4228 16.4955 36.9419 15.3358 37.7506 14.5392C38.5557 13.7462 39.5909 13.3691 40.6255 13.3093C42.2235 13.2169 43.9532 13.8844 44.986 15.1221C45.9964 13.8778 47.7352 13.2162 49.3341 13.3083C50.3737 13.3682 51.4179 13.7443 52.2313 14.5359Z" fill="#171717"/>
<g filter="url(#filter2_d_4818_119623)">
<rect x="2" y="5" width="30" height="30" rx="15" fill="url(#paint4_linear_4818_119623)"/>
<rect x="1.4" y="4.4" width="31.2" height="31.2" rx="15.6" stroke="url(#paint5_linear_4818_119623)" stroke-width="1.2"/>
</g>
<path fill-rule="evenodd" clip-rule="evenodd" d="M8.93097 25.2661C8.9932 26.1569 9.73393 26.8477 10.6268 26.8477H11.3009C12.2398 26.8477 13.0009 26.0865 13.0009 25.1477V18.6052C13.0009 17.6663 12.2398 16.9052 11.3009 16.9052H10.1698C9.18428 16.9052 8.40527 17.7405 8.47394 18.7236L8.93097 25.2661ZM10.6268 25.4477C10.4693 25.4477 10.3386 25.3258 10.3276 25.1686L9.87054 18.6261C9.85842 18.4526 9.99589 18.3052 10.1698 18.3052H11.3009C11.4666 18.3052 11.6009 18.4395 11.6009 18.6052V25.1477C11.6009 25.3133 11.4666 25.4477 11.3009 25.4477H10.6268Z" fill="#171717"/>
<path fill-rule="evenodd" clip-rule="evenodd" d="M17.2493 26.824C18.7854 26.9342 20.3562 27.0469 21.9043 27.0469C22.6452 27.0469 23.1869 26.5507 23.4819 26.0855C23.6733 25.7836 23.8246 25.396 23.8531 25.0004C23.993 24.8845 24.1054 24.7491 24.193 24.6151C24.3797 24.3295 24.491 23.9975 24.5455 23.6871C24.5999 23.377 24.6059 23.0416 24.5417 22.7369C24.5349 22.7047 24.5268 22.6707 24.5172 22.6353C24.8256 22.2898 24.9946 21.8503 25.0664 21.4701C25.1257 21.1564 25.1323 20.8271 25.0776 20.5213C25.0669 20.4617 25.0534 20.4005 25.0366 20.3386C25.1973 20.1744 25.3206 19.9893 25.4098 19.7871C25.5737 19.4154 25.5986 19.0362 25.6012 18.7435C25.604 18.4385 25.571 17.9865 25.3744 17.5851C25.2715 17.375 25.1137 17.1583 24.8745 16.9953C24.6302 16.8287 24.3425 16.7466 24.0311 16.7466V18.1466C24.0628 18.1466 24.0795 18.1503 24.0863 18.1526C24.0905 18.1568 24.1019 18.1699 24.1171 18.2009C24.1716 18.3121 24.2033 18.5054 24.2013 18.7309C24.1991 18.9685 24.1756 19.1161 24.1288 19.2223C24.0924 19.3048 24.0245 19.404 23.8308 19.5034C23.6321 19.6054 23.494 19.7961 23.4591 20.0168C23.4242 20.2374 23.4967 20.4615 23.6542 20.6198C23.6519 20.6175 23.6507 20.6164 23.6507 20.6164C23.6507 20.6164 23.6795 20.6567 23.6995 20.7681C23.7212 20.8896 23.7217 21.0464 23.6907 21.2103C23.6224 21.572 23.4548 21.7549 23.3376 21.802C23.0854 21.9032 22.9146 22.1412 22.8994 22.4126C22.8865 22.6434 22.9883 22.8629 23.1664 23.0025C23.1681 23.0092 23.1699 23.0168 23.1717 23.0255C23.1922 23.1227 23.1965 23.2743 23.1666 23.445C23.1366 23.6154 23.0808 23.7579 23.0211 23.8492C22.9887 23.8988 22.9659 23.9184 22.9569 23.9247C22.7708 23.9695 22.611 24.0886 22.5149 24.2545C22.4171 24.4235 22.3943 24.6257 22.452 24.8122C22.4551 24.8223 22.4667 24.8818 22.4425 24.9946C22.4194 25.102 22.3708 25.2235 22.2995 25.3359C22.1415 25.5851 21.9781 25.6469 21.9043 25.6469C20.4085 25.6469 18.9191 25.54 17.4056 25.4313C16.749 25.3842 16.0879 25.3367 15.4197 25.2975C15.4103 25.297 15.4008 25.2966 15.3914 25.2965L15.3896 25.2963C15.3831 25.2958 15.3689 25.2945 15.3501 25.2913C15.3091 25.2842 15.2647 25.2715 15.2285 25.2528C15.1954 25.2357 15.1805 25.22 15.1718 25.2066C15.1653 25.1965 15.1369 25.1499 15.1369 25.0254V18.0774C15.1369 18.0098 15.1611 17.9446 15.2011 17.8956L15.2355 17.8661C15.2788 17.8289 15.3412 17.7751 15.4182 17.7082C15.5721 17.5745 15.785 17.3881 16.0206 17.1769C16.4856 16.7604 17.0615 16.228 17.443 15.8147C18.1987 14.9959 18.9433 13.8979 19.2969 13.3561C19.3608 13.2582 19.4406 13.2218 19.5043 13.2151C19.5647 13.2088 19.6484 13.225 19.7355 13.3148C19.748 13.3277 19.8155 13.4337 19.7949 13.7874C19.7817 14.0136 19.7463 14.2092 19.7091 14.4151C19.6888 14.5276 19.6679 14.6432 19.6497 14.7686C19.6411 14.828 19.6013 14.9756 19.5201 15.2084C19.4444 15.4253 19.3484 15.673 19.2521 15.9106C19.1563 16.1472 19.0625 16.3683 18.9925 16.5306C18.9576 16.6116 18.9287 16.6776 18.9087 16.7232L18.8857 16.7754L18.8784 16.7918C18.8581 16.8372 18.8424 16.8853 18.8322 16.9339C18.7999 17.0873 18.7938 17.2721 18.8592 17.4628C18.9265 17.6589 19.0501 17.8051 19.1855 17.9058C19.4231 18.0825 19.7065 18.1263 19.8768 18.1439C20.0713 18.164 20.2828 18.1624 20.4667 18.1583C20.5343 18.1568 20.5979 18.155 20.6592 18.1532C20.7805 18.1498 20.8927 18.1466 21.0081 18.1466H24.0311V16.7466H21.0081C20.8727 16.7466 20.7261 16.7507 20.5941 16.7545C20.5379 16.7561 20.4844 16.7576 20.4356 16.7587C20.4292 16.7588 20.4229 16.7589 20.4166 16.7591C20.459 16.6578 20.5041 16.5488 20.5497 16.4362C20.6501 16.1882 20.7556 15.917 20.8419 15.6696C20.9227 15.4382 21.0053 15.1763 21.0353 14.9692C21.0419 14.9235 21.0538 14.8565 21.0684 14.7749C21.1105 14.5382 21.1744 14.1795 21.1925 13.8689C21.2166 13.455 21.1932 12.8069 20.7404 12.34C19.954 11.5294 18.7141 11.6875 18.1245 12.5909C17.776 13.1248 17.085 14.1384 16.4142 14.8652C16.0823 15.2248 15.5507 15.7182 15.0864 16.1343C14.8574 16.3395 14.6501 16.521 14.5002 16.6512C14.4253 16.7163 14.3648 16.7685 14.3232 16.8042L14.2755 16.8451L14.2604 16.858L14.2596 16.8587C14.2426 16.8731 14.2263 16.8884 14.2108 16.9044C13.9071 17.2177 13.7369 17.6405 13.7369 18.0774V25.0254C13.7369 25.3863 13.8261 25.7038 13.9962 25.9669C14.1641 26.2265 14.3847 26.3929 14.5871 26.4972C14.7863 26.5999 14.9774 26.6478 15.113 26.6711C15.1824 26.683 15.2419 26.6892 15.2868 26.6926C15.3094 26.6942 15.3287 26.6952 15.3441 26.6957L15.3495 26.6958C15.9739 26.7326 16.6086 26.7781 17.2493 26.824ZM23.1529 22.963C23.1529 22.963 23.154 22.9667 23.1572 22.9723C23.1547 22.9656 23.1529 22.963 23.1529 22.963Z" fill="#171717"/>
</g>
<defs>
<filter id="filter0_d_4818_119623" x="55.8" y="3.7998" width="34.3999" height="34.4004" filterUnits="userSpaceOnUse" color-interpolation-filters="sRGB">
<feFlood flood-opacity="0" result="BackgroundImageFix"/>
<feColorMatrix in="SourceAlpha" type="matrix" values="0 0 0 0 0 0 0 0 0 0 0 0 0 0 0 0 0 0 127 0" result="hardAlpha"/>
<feOffset dy="1"/>
<feGaussianBlur stdDeviation="0.5"/>
<feComposite in2="hardAlpha" operator="out"/>
<feColorMatrix type="matrix" values="0 0 0 0 0 0 0 0 0 0 0 0 0 0 0 0 0 0 0.11 0"/>
<feBlend mode="normal" in2="BackgroundImageFix" result="effect1_dropShadow_4818_119623"/>
<feBlend mode="normal" in="SourceGraphic" in2="effect1_dropShadow_4818_119623" result="shape"/>
</filter>
<filter id="filter1_d_4818_119623" x="27.8" y="3.7998" width="34.3999" height="34.4004" filterUnits="userSpaceOnUse" color-interpolation-filters="sRGB">
<feFlood flood-opacity="0" result="BackgroundImageFix"/>
<feColorMatrix in="SourceAlpha" type="matrix" values="0 0 0 0 0 0 0 0 0 0 0 0 0 0 0 0 0 0 127 0" result="hardAlpha"/>
<feOffset dy="1"/>
<feGaussianBlur stdDeviation="0.5"/>
<feComposite in2="hardAlpha" operator="out"/>
<feColorMatrix type="matrix" values="0 0 0 0 0 0 0 0 0 0 0 0 0 0 0 0 0 0 0.11 0"/>
<feBlend mode="normal" in2="BackgroundImageFix" result="effect1_dropShadow_4818_119623"/>
<feBlend mode="normal" in="SourceGraphic" in2="effect1_dropShadow_4818_119623" result="shape"/>
</filter>
<filter id="filter2_d_4818_119623" x="-0.199951" y="3.7998" width="34.3999" height="34.4004" filterUnits="userSpaceOnUse" color-interpolation-filters="sRGB">
<feFlood flood-opacity="0" result="BackgroundImageFix"/>
<feColorMatrix in="SourceAlpha" type="matrix" values="0 0 0 0 0 0 0 0 0 0 0 0 0 0 0 0 0 0 127 0" result="hardAlpha"/>
<feOffset dy="1"/>
<feGaussianBlur stdDeviation="0.5"/>
<feComposite in2="hardAlpha" operator="out"/>
<feColorMatrix type="matrix" values="0 0 0 0 0 0 0 0 0 0 0 0 0 0 0 0 0 0 0.11 0"/>
<feBlend mode="normal" in2="BackgroundImageFix" result="effect1_dropShadow_4818_119623"/>
<feBlend mode="normal" in="SourceGraphic" in2="effect1_dropShadow_4818_119623" result="shape"/>
</filter>
<linearGradient id="paint0_linear_4818_119623" x1="65.5" y1="7" x2="83" y2="32.5" gradientUnits="userSpaceOnUse">
<stop offset="0.423464" stop-color="#373838"/>
<stop offset="0.558722" stop-color="#2B2B2B"/>
</linearGradient>
<linearGradient id="paint1_linear_4818_119623" x1="64.8182" y1="9.43182" x2="80.1591" y2="35.6818" gradientUnits="userSpaceOnUse">
<stop stop-color="#828385"/>
<stop offset="0.101105" stop-color="#252626"/>
<stop offset="0.445" stop-color="#555657"/>
<stop offset="0.695" stop-color="#252626"/>
<stop offset="1" stop-color="#828385"/>
</linearGradient>
<linearGradient id="paint2_linear_4818_119623" x1="37.5" y1="7" x2="55" y2="32.5" gradientUnits="userSpaceOnUse">
<stop offset="0.423464" stop-color="#373838"/>
<stop offset="0.558722" stop-color="#2B2B2B"/>
</linearGradient>
<linearGradient id="paint3_linear_4818_119623" x1="36.8182" y1="9.43182" x2="52.1591" y2="35.6818" gradientUnits="userSpaceOnUse">
<stop stop-color="#828385"/>
<stop offset="0.101105" stop-color="#252626"/>
<stop offset="0.445" stop-color="#555657"/>
<stop offset="0.695" stop-color="#252626"/>
<stop offset="1" stop-color="#828385"/>
</linearGradient>
<linearGradient id="paint4_linear_4818_119623" x1="9.5" y1="7" x2="27" y2="32.5" gradientUnits="userSpaceOnUse">
<stop offset="0.423464" stop-color="#373838"/>
<stop offset="0.558722" stop-color="#2B2B2B"/>
</linearGradient>
<linearGradient id="paint5_linear_4818_119623" x1="8.81818" y1="9.43182" x2="24.1591" y2="35.6818" gradientUnits="userSpaceOnUse">
<stop stop-color="#828385"/>
<stop offset="0.101105" stop-color="#252626"/>
<stop offset="0.445" stop-color="#555657"/>
<stop offset="0.695" stop-color="#252626"/>
<stop offset="1" stop-color="#828385"/>
</linearGradient>
<clipPath id="clip0_4818_119623">
<rect width="90" height="40" fill="white"/>
</clipPath>
</defs>
</svg>
