<svg width="161" height="31" viewBox="0 0 161 31" fill="none" xmlns="http://www.w3.org/2000/svg">
	<g clip-path="url(#clip0_3235_1369411)">
		<path d="M119.004 21.5394V21.4894C119.004 21.4894 119.004 21.4894 118.952 21.4394C118.952 21.4394 118.9 21.4394 118.849 21.4394C118.797 21.4394 118.746 21.4394 118.694 21.4394C118.642 21.4394 118.591 21.4394 118.591 21.4394C118.539 21.4394 118.539 21.4394 118.488 21.4394C118.488 21.4394 118.436 21.4394 118.436 21.4894L118.384 21.5394L116.371 24.4894C116.32 24.5894 116.268 24.6394 116.217 24.7394C116.165 24.8394 116.113 24.8894 116.062 24.9394C116.062 24.8894 116.062 24.7894 116.062 24.7394C116.062 24.6894 116.062 24.5894 116.062 24.5394V21.5394V21.4894L116.01 21.4394C116.01 21.4394 115.959 21.4394 115.907 21.4394C115.855 21.4394 115.804 21.4394 115.752 21.4394C115.7 21.4394 115.649 21.4394 115.597 21.4394C115.546 21.4394 115.546 21.4394 115.494 21.4394C115.494 21.4394 115.442 21.4394 115.442 21.4894V21.5394V25.8894V25.9394C115.442 25.9394 115.442 25.9894 115.494 25.9894C115.494 25.9894 115.546 25.9894 115.597 25.9894C115.649 25.9894 115.7 25.9894 115.752 25.9894C115.804 25.9894 115.855 25.9894 115.855 25.9894C115.907 25.9894 115.907 25.9894 115.959 25.9894C115.959 25.9894 116.01 25.9894 116.01 25.9394L116.062 25.8894L118.075 22.9394C118.126 22.8894 118.126 22.8394 118.178 22.8394C118.178 22.7894 118.229 22.7394 118.281 22.7394C118.281 22.6894 118.333 22.6394 118.333 22.6394C118.333 22.5894 118.384 22.5894 118.384 22.5394C118.384 22.5894 118.384 22.6894 118.384 22.7394C118.384 22.8394 118.384 22.8894 118.384 22.9394V25.8894V25.9394C118.384 25.9394 118.436 25.9394 118.436 25.9894C118.436 25.9894 118.488 25.9894 118.539 25.9894C118.591 25.9894 118.642 25.9894 118.694 25.9894C118.746 25.9894 118.797 25.9894 118.849 25.9894C118.9 25.9894 118.9 25.9894 118.952 25.9894C118.952 25.9894 119.004 25.9894 119.004 25.9394V25.8894V21.5394ZM125.249 21.6894C125.249 21.5894 125.249 21.5394 125.197 21.4894C125.146 21.4394 125.094 21.4394 125.042 21.4394H122.152C122.1 21.4394 122.049 21.4394 121.997 21.4894C121.946 21.5394 121.946 21.5894 121.946 21.6894V25.8894V25.9394C121.946 25.9394 121.946 25.9394 121.997 25.9894C121.997 25.9894 122.049 25.9894 122.1 25.9894C122.152 25.9894 122.204 25.9894 122.255 25.9894C122.307 25.9894 122.359 25.9894 122.41 25.9894C122.462 25.9894 122.462 25.9894 122.513 25.9894C122.513 25.9894 122.565 25.9894 122.565 25.9394V25.8894V21.9894H124.681V25.8894V25.9394C124.681 25.9394 124.733 25.9394 124.733 25.9894C124.733 25.9894 124.784 25.9894 124.836 25.9894C124.888 25.9894 124.939 25.9894 124.991 25.9894C125.042 25.9894 125.094 25.9894 125.146 25.9894C125.197 25.9894 125.197 25.9894 125.249 25.9894C125.249 25.9894 125.3 25.9894 125.3 25.9394V25.8894L125.249 21.6894ZM130.307 22.6394C130.204 22.3394 130.1 22.1394 129.946 21.9394C129.791 21.7394 129.584 21.5894 129.326 21.4894C129.068 21.3894 128.759 21.3394 128.449 21.3394C128.088 21.3394 127.778 21.3894 127.52 21.4894C127.262 21.5894 127.055 21.7394 126.849 21.9394C126.694 22.1394 126.539 22.3894 126.436 22.6894C126.333 22.9894 126.281 23.2894 126.281 23.6394C126.281 23.9894 126.333 24.3394 126.384 24.6394C126.488 24.9394 126.591 25.1894 126.746 25.3394C126.9 25.5394 127.107 25.6894 127.365 25.7894C127.623 25.8894 127.933 25.9394 128.294 25.9394C128.655 25.9394 128.965 25.8894 129.223 25.7894C129.481 25.6894 129.688 25.5394 129.894 25.3394C130.049 25.1394 130.204 24.8894 130.307 24.5894C130.41 24.2894 130.462 23.9894 130.462 23.5894C130.41 23.2894 130.359 22.9394 130.307 22.6394ZM129.688 24.3894C129.636 24.5894 129.584 24.7894 129.429 24.9894C129.326 25.1394 129.171 25.2894 128.965 25.3894C128.759 25.4894 128.552 25.5394 128.294 25.5394C128.036 25.5394 127.778 25.4894 127.623 25.3894C127.417 25.2894 127.313 25.1894 127.21 24.9894C127.107 24.8394 127.004 24.6394 127.004 24.3894C126.952 24.1894 126.952 23.9394 126.952 23.6394C126.952 23.3894 126.952 23.1894 127.004 22.9394C127.055 22.7394 127.159 22.5394 127.262 22.3894C127.365 22.2394 127.52 22.0894 127.726 21.9894C127.933 21.8894 128.139 21.8394 128.397 21.8394C128.655 21.8394 128.913 21.8894 129.068 21.9894C129.275 22.0894 129.378 22.1894 129.481 22.3894C129.584 22.5394 129.688 22.7394 129.739 22.9394C129.791 23.1394 129.791 23.3894 129.791 23.6394C129.739 23.9394 129.739 24.1394 129.688 24.3894ZM134.178 22.2894C134.126 22.1394 134.075 22.0394 133.971 21.9394C133.868 21.8394 133.765 21.7394 133.662 21.6894C133.507 21.6394 133.404 21.5894 133.3 21.5394C133.197 21.4894 133.042 21.4894 132.991 21.4894C132.888 21.4894 132.784 21.4894 132.681 21.4894H131.7C131.649 21.4894 131.597 21.4894 131.546 21.5394C131.494 21.5894 131.494 21.6394 131.494 21.7394V25.8894V25.9394L131.546 25.9894C131.546 25.9894 131.597 25.9894 131.649 25.9894C131.7 25.9894 131.752 25.9894 131.804 25.9894C131.855 25.9894 131.907 25.9894 131.959 25.9894C132.01 25.9894 132.01 25.9894 132.062 25.9894C132.062 25.9894 132.113 25.9894 132.113 25.9394V25.8894V24.2394H132.629C132.939 24.2394 133.146 24.1894 133.352 24.1394C133.559 24.0894 133.713 23.9894 133.868 23.8394C134.023 23.6894 134.126 23.5394 134.178 23.3894C134.229 23.1894 134.281 22.9894 134.281 22.7894C134.229 22.5894 134.229 22.4394 134.178 22.2894ZM133.559 23.1894C133.507 23.2894 133.455 23.3894 133.352 23.4894C133.249 23.5894 133.146 23.6394 133.042 23.6894C132.939 23.7394 132.784 23.7394 132.578 23.7394H132.01V21.9394H132.578C132.681 21.9394 132.784 21.9394 132.888 21.9394C132.991 21.9394 133.094 21.9894 133.197 22.0394C133.3 22.0894 133.404 22.1894 133.455 22.3394C133.507 22.4394 133.559 22.6394 133.559 22.7894C133.61 22.9394 133.559 23.0394 133.559 23.1894ZM137.997 21.6894C137.997 21.5894 137.997 21.5394 137.946 21.4894C137.894 21.4394 137.842 21.4394 137.791 21.4394H136.81C136.449 21.4394 136.139 21.4894 135.984 21.5394C135.778 21.5894 135.623 21.6894 135.468 21.7894C135.313 21.8894 135.262 22.0394 135.159 22.1894C135.107 22.3394 135.055 22.5394 135.055 22.6894C135.055 22.8394 135.055 22.9894 135.107 23.0894C135.159 23.1894 135.21 23.2894 135.313 23.3894C135.417 23.4894 135.468 23.5394 135.623 23.6394C135.726 23.6894 135.881 23.7394 136.036 23.7894C135.933 23.8394 135.881 23.8394 135.829 23.8894C135.778 23.9394 135.675 23.9894 135.623 24.0894C135.571 24.1394 135.52 24.2394 135.468 24.3394C135.417 24.4394 135.365 24.5394 135.313 24.6394L134.952 25.5894C134.9 25.6394 134.9 25.6894 134.9 25.7394C134.9 25.7894 134.9 25.7894 134.9 25.8394V25.8894C134.9 25.8894 134.9 25.8894 134.952 25.9394C134.952 25.9394 135.004 25.9394 135.055 25.9394C135.107 25.9394 135.159 25.9394 135.21 25.9394C135.262 25.9394 135.313 25.9394 135.365 25.9394C135.417 25.9394 135.417 25.9394 135.468 25.9394C135.52 25.9394 135.52 25.8894 135.52 25.8894C135.52 25.8894 135.52 25.8394 135.571 25.8394L135.984 24.7894C136.036 24.6894 136.088 24.5394 136.139 24.4394C136.191 24.3394 136.242 24.2394 136.346 24.1894C136.397 24.1394 136.5 24.0394 136.604 24.0394C136.707 23.9894 136.862 23.9894 137.017 23.9894H137.481V25.8894V25.9394C137.481 25.9394 137.533 25.9394 137.533 25.9894C137.533 25.9894 137.584 25.9894 137.636 25.9894C137.688 25.9894 137.739 25.9894 137.791 25.9894C137.842 25.9894 137.894 25.9894 137.946 25.9894C137.997 25.9894 137.997 25.9894 138.049 25.9894C138.049 25.9894 138.1 25.9894 138.1 25.9394V25.8894L137.997 21.6894ZM137.378 23.4894H136.759C136.552 23.4894 136.346 23.4894 136.242 23.4394C136.139 23.3894 136.036 23.3394 135.933 23.2894C135.829 23.2394 135.778 23.1394 135.778 23.0394C135.726 22.9394 135.726 22.8394 135.726 22.7394C135.726 22.6394 135.726 22.5394 135.778 22.4394C135.829 22.3394 135.881 22.2394 135.933 22.1894C136.036 22.1394 136.139 22.0894 136.242 22.0394C136.346 21.9894 136.552 21.9894 136.81 21.9894H137.378V23.4894ZM143.21 25.5894C143.21 25.5394 143.21 25.4894 143.159 25.4394C143.159 25.3894 143.107 25.3894 143.055 25.3894H142.591V21.6394C142.591 21.5394 142.591 21.4894 142.539 21.4394C142.488 21.3894 142.436 21.3894 142.384 21.3894H140.217C140.165 21.3894 140.113 21.3894 140.062 21.4394C140.01 21.4894 140.01 21.5394 140.01 21.6394C139.959 22.1394 139.907 22.5394 139.855 22.8894C139.804 23.2394 139.752 23.5394 139.7 23.7894C139.649 24.0394 139.597 24.2394 139.546 24.4394C139.494 24.5894 139.442 24.7394 139.391 24.8894C139.339 24.9894 139.288 25.0894 139.236 25.1894C139.184 25.2894 139.133 25.3394 139.029 25.4394H138.771C138.72 25.4394 138.668 25.4394 138.668 25.4894C138.668 25.5394 138.617 25.5394 138.617 25.6394V27.0894V27.1394C138.617 27.1394 138.617 27.1394 138.668 27.1894C138.668 27.1894 138.72 27.1894 138.771 27.1894C138.823 27.1894 138.875 27.1894 138.926 27.1894C138.978 27.1894 139.029 27.1894 139.029 27.1894C139.081 27.1894 139.081 27.1894 139.133 27.1894C139.133 27.1894 139.184 27.1894 139.184 27.1394V27.0894V25.9894H142.694V27.0894V27.1394C142.694 27.1394 142.694 27.1394 142.746 27.1894C142.746 27.1894 142.797 27.1894 142.849 27.1894C142.9 27.1894 142.9 27.1894 142.952 27.1894C143.004 27.1894 143.055 27.1894 143.107 27.1894C143.159 27.1894 143.159 27.1894 143.21 27.1894C143.21 27.1894 143.262 27.1894 143.262 27.1394V27.0894L143.21 25.5894ZM141.971 25.4394H139.7C139.752 25.3894 139.804 25.2894 139.855 25.2394C139.907 25.1394 139.959 25.0394 140.01 24.9394C140.062 24.8394 140.113 24.6894 140.165 24.5394C140.217 24.3894 140.268 24.1894 140.32 23.9394C140.371 23.6894 140.423 23.4394 140.475 23.0894C140.526 22.7894 140.578 22.3894 140.629 21.9394H142.023L141.971 25.4394ZM147.649 22.6394C147.546 22.3394 147.442 22.1394 147.288 21.9394C147.133 21.7394 146.926 21.5894 146.668 21.4894C146.41 21.3894 146.1 21.3394 145.791 21.3394C145.429 21.3394 145.12 21.3894 144.862 21.4894C144.604 21.5894 144.397 21.7394 144.191 21.9394C144.036 22.1394 143.881 22.3894 143.778 22.6894C143.675 22.9894 143.623 23.2894 143.623 23.6394C143.623 23.9894 143.675 24.3394 143.726 24.6394C143.829 24.9394 143.933 25.1894 144.088 25.3394C144.242 25.5394 144.449 25.6894 144.707 25.7894C144.965 25.8894 145.275 25.9394 145.636 25.9394C145.997 25.9394 146.307 25.8894 146.565 25.7894C146.823 25.6894 147.029 25.5394 147.236 25.3394C147.391 25.1394 147.546 24.8894 147.649 24.5894C147.752 24.2894 147.804 23.9894 147.804 23.5894C147.804 23.2894 147.752 22.9394 147.649 22.6394ZM147.081 24.3894C147.029 24.5894 146.978 24.7894 146.823 24.9894C146.72 25.1394 146.565 25.2894 146.359 25.3894C146.152 25.4894 145.946 25.5394 145.688 25.5394C145.429 25.5394 145.171 25.4894 145.017 25.3894C144.81 25.2894 144.707 25.1894 144.604 24.9894C144.5 24.8394 144.397 24.6394 144.397 24.3894C144.346 24.1894 144.346 23.9394 144.346 23.6394C144.346 23.3894 144.346 23.1894 144.397 22.9394C144.449 22.7394 144.552 22.5394 144.655 22.3894C144.759 22.2394 144.913 22.0894 145.12 21.9894C145.326 21.8894 145.533 21.8394 145.791 21.8394C146.049 21.8394 146.307 21.8894 146.462 21.9894C146.668 22.0894 146.771 22.1894 146.875 22.3894C146.978 22.5394 147.081 22.7394 147.133 22.9394C147.184 23.1394 147.184 23.3894 147.184 23.6394C147.133 23.9394 147.133 24.1394 147.081 24.3894ZM151.881 25.7894C151.881 25.7894 151.881 25.7394 151.829 25.6394L151.417 24.5394C151.365 24.3894 151.313 24.2394 151.21 24.1394C151.159 24.0394 151.055 23.9394 151.004 23.8394C150.952 23.7394 150.849 23.6894 150.746 23.6394C150.642 23.5894 150.539 23.5394 150.436 23.4894C150.539 23.4394 150.642 23.4394 150.694 23.3894C150.797 23.3394 150.849 23.2894 150.9 23.1894C150.952 23.1394 151.004 23.0394 151.107 22.9394C151.159 22.8394 151.21 22.7394 151.262 22.5894L151.623 21.6394C151.623 21.5894 151.623 21.5394 151.675 21.5394C151.675 21.4894 151.675 21.4894 151.675 21.4394V21.3894C151.675 21.3894 151.675 21.3394 151.623 21.3394C151.623 21.3394 151.571 21.3394 151.52 21.3394C151.468 21.3394 151.417 21.3394 151.365 21.3394C151.313 21.3394 151.262 21.3394 151.21 21.3394C151.159 21.3394 151.159 21.3394 151.107 21.3894L151.055 21.4394C151.055 21.4394 151.055 21.4894 151.004 21.4894L150.642 22.4894C150.591 22.6394 150.539 22.7394 150.488 22.8394C150.436 22.9394 150.333 23.0394 150.281 23.0894C150.178 23.1394 150.126 23.1894 149.971 23.2394C149.868 23.2894 149.713 23.2894 149.61 23.2894H149.352V21.4394V21.3894L149.3 21.3394C149.3 21.3394 149.249 21.3394 149.197 21.3394C149.146 21.3394 149.094 21.3394 149.042 21.3394C148.991 21.3394 148.939 21.3394 148.888 21.3394C148.836 21.3394 148.836 21.3394 148.784 21.3394C148.784 21.3394 148.733 21.3394 148.733 21.3894V21.4394V25.7894V25.8394L148.784 25.8894C148.784 25.8894 148.836 25.8894 148.888 25.8894C148.939 25.8894 148.991 25.8894 149.042 25.8894C149.094 25.8894 149.146 25.8894 149.197 25.8894C149.249 25.8894 149.249 25.8894 149.3 25.8894C149.3 25.8894 149.352 25.8894 149.352 25.8394V25.7894V23.8394H149.61C149.765 23.8394 149.868 23.8394 150.023 23.8894C150.126 23.9394 150.229 23.9894 150.333 24.0394C150.436 24.0894 150.488 24.1894 150.591 24.2894C150.642 24.3894 150.746 24.5394 150.797 24.6894L151.21 25.7894C151.21 25.8394 151.21 25.8394 151.262 25.8394L151.313 25.8894C151.313 25.8894 151.365 25.8894 151.417 25.9394C151.468 25.9394 151.52 25.9394 151.571 25.9394C151.623 25.9394 151.675 25.9394 151.726 25.9394C151.778 25.9394 151.778 25.9394 151.829 25.9394C151.829 25.9394 151.881 25.9394 151.881 25.8894V25.8394V25.7894ZM153.842 21.2894C153.842 21.2394 153.842 21.2394 153.842 21.2394L153.791 21.1894C153.791 21.1894 153.739 21.1894 153.688 21.1394C153.636 21.1394 153.584 21.1394 153.533 21.1394C153.481 21.1394 153.429 21.1394 153.378 21.1394C153.326 21.1394 153.326 21.1394 153.275 21.1894L153.223 21.2394V21.2894L153.275 24.6394V24.6894C153.275 24.6894 153.275 24.7394 153.326 24.7394C153.326 24.7394 153.378 24.7394 153.429 24.7394C153.481 24.7394 153.481 24.7394 153.533 24.7394C153.584 24.7394 153.636 24.7394 153.636 24.7394C153.688 24.7394 153.688 24.7394 153.739 24.7394C153.739 24.7394 153.791 24.7394 153.791 24.6894V24.6394L153.842 21.2894ZM153.842 25.3894C153.842 25.3394 153.791 25.2894 153.791 25.2894C153.739 25.2394 153.739 25.2394 153.688 25.2394C153.636 25.2394 153.584 25.2394 153.481 25.2394C153.429 25.2394 153.326 25.2394 153.275 25.2394C153.223 25.2394 153.171 25.2894 153.171 25.2894C153.12 25.3394 153.12 25.3394 153.12 25.3894C153.12 25.4394 153.12 25.4894 153.12 25.5894C153.12 25.6894 153.12 25.7394 153.12 25.7894C153.12 25.8394 153.171 25.8894 153.171 25.8894C153.223 25.9394 153.223 25.9394 153.275 25.9394C153.326 25.9394 153.378 25.9394 153.481 25.9394C153.533 25.9394 153.636 25.9394 153.688 25.9394C153.739 25.9394 153.791 25.8894 153.791 25.8894C153.842 25.8394 153.842 25.8394 153.842 25.7894C153.842 25.7394 153.842 25.6894 153.842 25.5894C153.894 25.4894 153.894 25.4394 153.842 25.3894Z" fill="white"/>
		<path d="M118.849 13.0893C118.849 12.9893 118.849 12.9393 118.798 12.8893C118.746 12.8393 118.694 12.8393 118.643 12.8393H115.752C115.701 12.8393 115.649 12.8393 115.598 12.8893C115.546 12.9393 115.546 12.9893 115.546 13.0893V17.2893V17.3393C115.546 17.3393 115.598 17.3393 115.598 17.3893C115.598 17.3893 115.649 17.3893 115.701 17.3893C115.752 17.3893 115.804 17.3893 115.856 17.3893C115.907 17.3893 115.959 17.3893 116.01 17.3893C116.062 17.3893 116.062 17.3893 116.114 17.3893C116.114 17.3893 116.165 17.3893 116.165 17.3393V17.2893V13.3893H118.281V17.2893V17.3393C118.281 17.3393 118.333 17.3393 118.333 17.3893C118.333 17.3893 118.385 17.3893 118.436 17.3893C118.488 17.3893 118.539 17.3893 118.591 17.3893C118.643 17.3893 118.694 17.3893 118.746 17.3893C118.798 17.3893 118.798 17.3893 118.849 17.3893C118.849 17.3893 118.901 17.3893 118.901 17.3393V17.2893L118.849 13.0893ZM123.907 14.0893C123.804 13.7893 123.701 13.5893 123.546 13.3893C123.391 13.1893 123.185 13.0393 122.927 12.9393C122.668 12.8393 122.359 12.7893 122.049 12.7893C121.688 12.7893 121.378 12.8393 121.12 12.9393C120.862 13.0393 120.656 13.1893 120.449 13.3893C120.294 13.5893 120.139 13.8393 120.036 14.1393C119.933 14.4393 119.881 14.7393 119.881 15.0893C119.881 15.4393 119.933 15.7893 119.985 16.0893C120.088 16.3893 120.191 16.6393 120.346 16.7893C120.501 16.9893 120.707 17.1393 120.965 17.2393C121.223 17.3393 121.533 17.3893 121.894 17.3893C122.256 17.3893 122.565 17.3393 122.823 17.2393C123.081 17.1393 123.288 16.9893 123.494 16.7893C123.649 16.5893 123.804 16.3393 123.907 16.0393C124.01 15.7393 124.062 15.4393 124.062 15.0393C124.01 14.6893 123.959 14.3893 123.907 14.0893ZM123.288 15.7893C123.236 15.9893 123.185 16.1893 123.03 16.3893C122.927 16.5393 122.772 16.6893 122.565 16.7893C122.359 16.8893 122.152 16.9393 121.894 16.9393C121.636 16.9393 121.378 16.8893 121.223 16.7893C121.068 16.6893 120.914 16.5893 120.81 16.3893C120.707 16.2393 120.604 16.0393 120.604 15.7893C120.552 15.5893 120.552 15.3393 120.552 15.0393C120.552 14.7893 120.552 14.5893 120.604 14.3393C120.656 14.1393 120.759 13.9393 120.862 13.7893C120.965 13.6393 121.12 13.4893 121.327 13.3893C121.533 13.2893 121.739 13.2393 121.998 13.2393C122.256 13.2393 122.514 13.2893 122.668 13.3893C122.875 13.4893 122.978 13.5893 123.081 13.7893C123.185 13.9393 123.288 14.1393 123.339 14.3393C123.391 14.5393 123.391 14.7893 123.391 15.0393C123.339 15.3393 123.339 15.5893 123.288 15.7893ZM128.088 16.5893C128.088 16.5393 128.088 16.5393 128.088 16.4893C128.088 16.4893 128.088 16.4393 128.036 16.4393C128.036 16.4393 128.036 16.4393 127.985 16.4393C127.933 16.4393 127.881 16.4393 127.83 16.4893C127.778 16.5393 127.675 16.5893 127.572 16.6393C127.468 16.6893 127.365 16.7393 127.21 16.7893C127.056 16.8393 126.901 16.8393 126.746 16.8393C126.539 16.8393 126.333 16.7893 126.178 16.7393C126.023 16.6393 125.868 16.5393 125.714 16.3893C125.61 16.2393 125.507 16.0393 125.456 15.8393C125.404 15.6393 125.352 15.3893 125.352 15.0893C125.352 14.7893 125.404 14.5393 125.456 14.3393C125.507 14.1393 125.61 13.9393 125.714 13.7893C125.817 13.6393 125.972 13.5393 126.127 13.4393C126.281 13.3393 126.488 13.3393 126.694 13.3393C126.901 13.3393 127.056 13.3393 127.21 13.3893C127.365 13.4393 127.468 13.4893 127.572 13.5393C127.675 13.5893 127.727 13.6393 127.83 13.6893C127.881 13.7393 127.933 13.7393 127.985 13.7393H128.036C128.036 13.7393 128.036 13.6893 128.088 13.6893C128.088 13.6893 128.088 13.6393 128.088 13.5893C128.088 13.5393 128.088 13.5393 128.088 13.4893C128.088 13.4393 128.088 13.3893 128.088 13.3893C128.088 13.3393 128.088 13.3393 128.088 13.2893V13.2393L128.036 13.1893C127.985 13.1393 127.933 13.1393 127.881 13.0893C127.778 13.0393 127.675 12.9893 127.572 12.9393C127.468 12.8893 127.365 12.8893 127.21 12.8393C127.107 12.8393 126.952 12.7893 126.798 12.7893C126.488 12.7893 126.23 12.8393 125.972 12.9393C125.714 13.0393 125.507 13.1893 125.301 13.3893C125.094 13.5893 124.991 13.8393 124.888 14.1393C124.785 14.4393 124.733 14.7893 124.733 15.1393C124.733 15.4893 124.785 15.8393 124.888 16.0893C124.991 16.3893 125.094 16.5893 125.301 16.7893C125.456 16.9893 125.662 17.1393 125.92 17.2393C126.178 17.3393 126.436 17.3893 126.746 17.3893C126.901 17.3893 127.107 17.3893 127.21 17.3393C127.365 17.2893 127.468 17.2893 127.623 17.2393C127.727 17.1893 127.83 17.1393 127.933 17.0893C127.985 17.0393 128.036 16.9893 128.088 16.9893L128.139 16.9393V16.8893V16.8393C128.139 16.7893 128.139 16.7893 128.139 16.7393C128.088 16.6893 128.088 16.6393 128.088 16.5893ZM132.165 13.0893C132.165 12.9893 132.165 12.9393 132.114 12.8893C132.062 12.8393 132.01 12.8393 131.959 12.8393H129.894C129.843 12.8393 129.791 12.8393 129.739 12.8893C129.688 12.9393 129.688 12.9893 129.688 13.0893C129.636 13.6393 129.585 14.0893 129.533 14.4893C129.481 14.8893 129.43 15.2393 129.327 15.4893C129.275 15.7893 129.223 15.9893 129.12 16.1893C129.068 16.3393 128.965 16.4893 128.914 16.5893C128.862 16.6893 128.759 16.7393 128.707 16.7893C128.656 16.8393 128.552 16.8393 128.449 16.8393H128.398L128.346 16.8893C128.346 16.8893 128.346 16.9393 128.346 16.9893C128.346 17.0393 128.346 17.0893 128.346 17.1393C128.346 17.1893 128.346 17.2393 128.346 17.2393C128.346 17.2893 128.346 17.2893 128.398 17.3393L128.449 17.3893H128.501C128.707 17.3893 128.862 17.3893 128.965 17.3393C129.068 17.2893 129.223 17.1893 129.327 17.0893C129.43 16.9893 129.533 16.7893 129.636 16.5893C129.739 16.3893 129.791 16.1393 129.894 15.8393C129.946 15.5393 130.049 15.1893 130.101 14.7893C130.152 14.3893 130.256 13.8893 130.307 13.3893H131.598V17.2893V17.3393C131.598 17.3393 131.649 17.3393 131.649 17.3893C131.649 17.3893 131.701 17.3893 131.752 17.3893C131.804 17.3893 131.856 17.3893 131.907 17.3893C131.959 17.3893 132.01 17.3893 132.062 17.3893C132.114 17.3893 132.114 17.3893 132.165 17.3893C132.165 17.3893 132.217 17.3893 132.217 17.3393V17.2893L132.165 13.0893ZM135.365 12.9393C135.365 12.8893 135.365 12.8893 135.314 12.8893L135.262 12.8393C135.21 12.8393 135.21 12.8393 135.159 12.8393C135.107 12.8393 135.056 12.8393 134.952 12.8393C134.901 12.8393 134.798 12.8393 134.798 12.8393C134.746 12.8393 134.694 12.8393 134.694 12.8393C134.643 12.8393 134.643 12.8393 134.643 12.8893L134.591 12.9393L133.043 17.1393C133.043 17.1893 132.991 17.2393 132.991 17.2393C132.991 17.2893 132.991 17.2893 132.991 17.2893C132.991 17.2893 133.043 17.3393 133.094 17.3393C133.146 17.3393 133.198 17.3393 133.249 17.3393C133.301 17.3393 133.352 17.3393 133.404 17.3393C133.456 17.3393 133.456 17.3393 133.507 17.3393C133.507 17.3393 133.559 17.3393 133.559 17.2893C133.559 17.2893 133.559 17.2393 133.61 17.2393L133.972 16.1393H135.933L136.346 17.2393C136.346 17.2393 136.346 17.2893 136.398 17.2893L136.449 17.3393C136.449 17.3393 136.501 17.3393 136.552 17.3393C136.604 17.3393 136.656 17.3393 136.707 17.3393C136.759 17.3393 136.862 17.3393 136.862 17.3393C136.914 17.3393 136.914 17.3393 136.965 17.2893L137.017 17.2393C137.017 17.1893 137.017 17.1893 136.965 17.1393L135.365 12.9393ZM135.727 15.6893H134.127L134.952 13.4393L135.727 15.6893ZM140.939 13.0893C140.939 12.9893 140.939 12.9393 140.888 12.8893C140.836 12.8393 140.785 12.8393 140.733 12.8393H138.668C138.617 12.8393 138.565 12.8393 138.514 12.8893C138.462 12.9393 138.462 12.9893 138.462 13.0893C138.41 13.6393 138.359 14.0893 138.307 14.4893C138.256 14.8893 138.204 15.2393 138.101 15.4893C138.049 15.7893 137.998 15.9893 137.894 16.1893C137.843 16.3393 137.739 16.4893 137.688 16.5893C137.636 16.6893 137.533 16.7393 137.481 16.7893C137.378 16.8393 137.327 16.8393 137.223 16.8393H137.172L137.12 16.8893C137.12 16.8893 137.12 16.9393 137.12 16.9893C137.12 17.0393 137.12 17.0893 137.12 17.1393C137.12 17.1893 137.12 17.2393 137.12 17.2393C137.12 17.2893 137.12 17.2893 137.172 17.3393L137.223 17.3893H137.275C137.43 17.3893 137.636 17.3893 137.739 17.3393C137.894 17.2893 137.998 17.1893 138.101 17.0893C138.204 16.9893 138.307 16.7893 138.41 16.5893C138.514 16.3893 138.565 16.1393 138.668 15.8393C138.72 15.5393 138.823 15.1893 138.875 14.7893C138.927 14.3893 139.03 13.8893 139.081 13.3893H140.372V17.2893V17.3393C140.372 17.3393 140.423 17.3393 140.423 17.3893C140.423 17.3893 140.475 17.3893 140.527 17.3893C140.578 17.3893 140.63 17.3893 140.681 17.3893C140.733 17.3893 140.785 17.3893 140.836 17.3893C140.888 17.3893 140.888 17.3893 140.939 17.3893C140.939 17.3893 140.991 17.3893 140.991 17.3393V17.2893L140.939 13.0893ZM149.352 15.1893C149.301 15.1393 149.301 15.1393 149.249 15.1393H143.933C143.881 15.1393 143.881 15.1393 143.83 15.1893C143.83 15.2393 143.778 15.2893 143.778 15.3893C143.778 15.4893 143.778 15.5393 143.83 15.5893C143.881 15.6393 143.881 15.6393 143.933 15.6393H149.249C149.301 15.6393 149.301 15.6393 149.352 15.5893C149.404 15.5393 149.404 15.4893 149.404 15.3893C149.404 15.2893 149.404 15.2393 149.352 15.1893Z" fill="white"/>
		<path d="M111.21 22.1894C105.946 20.2894 103.933 13.8394 103.933 13.8394" stroke="white" stroke-width="0.9354" stroke-miterlimit="10" stroke-linecap="round"/>
		<path d="M111.21 15.5893C108.113 16.7893 104.139 13.9893 104.139 13.9893" stroke="white" stroke-width="0.9354" stroke-miterlimit="10" stroke-linecap="round"/>
		<path d="M111.158 22.2393V26.5393C111.158 26.5393 111.158 29.4893 114.152 29.4893H159.829C159.829 29.4893 159.984 29.4893 159.984 29.3393V12.2393C159.984 12.2393 159.984 9.28931 156.939 9.28931H111.519C111.519 9.28931 111.158 9.28931 111.158 9.68931V15.7393" stroke="white" stroke-width="0.9354" stroke-miterlimit="10"/>
		<path d="M41.584 12.4392C41.584 11.1892 41.9453 10.2892 42.6162 9.73916C43.2872 9.18916 44.4227 8.88916 45.9195 8.88916H52.6808C55.313 8.88916 56.7582 9.78916 57.1711 11.5392L55.8808 12.4892C55.8808 11.7392 55.6227 11.1892 55.1582 10.7892C54.5904 10.3892 53.713 10.1892 52.4227 10.1892H45.9711C44.784 10.1892 43.9582 10.3892 43.5453 10.7392C43.184 11.0892 42.9775 11.6392 42.9775 12.4392C42.9775 13.1892 43.184 13.6392 43.5969 13.8892C44.0614 14.1892 45.042 14.3392 46.4356 14.3392H52.4227C54.1775 14.3392 55.4162 14.5892 56.1904 15.1392C56.9646 15.6392 57.3775 16.4892 57.3775 17.6392V17.8892C57.3775 19.1892 57.0162 20.0892 56.3453 20.6392C55.6743 21.1892 54.5388 21.4392 52.9904 21.4392H46.0743C44.6808 21.4392 43.6485 21.1392 42.8743 20.5892C42.1001 19.9892 41.6872 19.0892 41.6872 17.8892L43.0808 16.8892C43.0808 17.6392 42.9775 19.0892 43.8033 19.5892C44.4227 19.9392 45.2485 20.2392 46.5388 20.2392H52.8872C53.9195 20.2392 54.7453 20.0392 55.2614 19.6892C55.7775 19.3392 56.0356 18.7392 56.0356 17.9392C56.0356 17.1392 55.8291 16.5392 55.3646 16.1892C54.9001 15.8392 54.0743 15.6892 52.8356 15.6892H46.0227C44.3195 15.6892 43.1324 15.4392 42.4614 14.8892C41.8421 14.3892 41.584 13.5892 41.584 12.4392Z" fill="white"/>
		<path d="M78.9521 21.4892H77.5585V9.93916H76.7843L69.5585 21.4892H68.8359L61.6101 9.93916H60.8359V21.4892H59.4424V8.88916H62.4359L69.1972 19.6392L75.9585 8.88916H78.9521V21.4892Z" fill="white"/>
		<path d="M81.1709 12.4392C81.1709 11.1892 81.5322 10.2892 82.2032 9.73916C82.8741 9.18916 84.0096 8.88916 85.5064 8.88916H92.2677C95.3128 8.88916 96.8096 10.0892 96.8096 12.4392L95.4161 13.1892C95.4161 12.4392 95.5193 11.5892 94.6935 10.7392C94.1773 10.2892 93.2483 10.1392 91.958 10.1392H85.5064C84.3193 10.1392 83.4935 10.3392 83.0806 10.6892C82.7193 11.0392 82.5128 11.5892 82.5128 12.3892C82.5128 13.1392 82.7193 13.5892 83.1322 13.8392C83.5967 14.1392 84.5774 14.2892 85.9709 14.2892H91.958C93.7128 14.2892 94.9515 14.5392 95.7774 15.0892C96.5515 15.5892 96.9644 16.4392 96.9644 17.5892V17.8392C96.9644 19.1392 96.6032 20.0392 95.9322 20.5892C95.2612 21.1392 94.1257 21.3892 92.5773 21.3892H85.6612C84.2677 21.3892 83.2354 21.0892 82.4612 20.5392C81.8935 20.0892 81.5322 19.4892 81.3773 18.7892L82.6677 17.8392C82.6677 18.5892 82.9257 19.1392 83.3903 19.5392C83.958 19.9392 84.8354 20.1892 86.1257 20.1892H92.4741C93.5064 20.1892 94.3322 19.9892 94.8483 19.6392C95.3644 19.2892 95.6225 18.6892 95.6225 17.8892C95.6225 17.0892 95.4161 16.4892 94.9515 16.1392C94.487 15.7892 93.6612 15.6392 92.4225 15.6392H85.6612C83.958 15.6392 82.7709 15.3892 82.0999 14.8392C81.429 14.3892 81.1709 13.5892 81.1709 12.4392Z" fill="white"/>
		<path d="M42.5129 26.3893H41.7387C41.7387 25.7893 41.8935 25.3893 42.2032 25.2393C42.5129 25.0893 43.029 24.9893 43.7516 24.9893C44.2677 24.9893 44.6806 25.0393 44.9903 25.0893C45.3 25.1893 45.558 25.3393 45.7129 25.5893C45.8677 25.8393 45.9709 26.1893 45.9709 26.6893V29.7893H45.2484L45.3 29.2893C45.0935 29.5393 44.8871 29.6893 44.5774 29.7393C44.3193 29.8393 43.958 29.8393 43.5451 29.8393C43.0806 29.8393 42.7193 29.7893 42.4096 29.7393C42.1 29.6393 41.8935 29.4893 41.7387 29.2893C41.5838 29.0893 41.5322 28.7393 41.5322 28.3393C41.5322 27.9393 41.6355 27.6393 41.7903 27.4393C41.9451 27.2393 42.1516 27.0893 42.4613 27.0393C42.7193 26.9893 43.0806 26.9393 43.5451 26.9393C43.958 26.9393 44.2677 26.9893 44.5258 27.0393C44.7838 27.0893 44.9903 27.2393 45.1451 27.4393V26.8893C45.1451 26.4893 45.0935 26.1893 45.0419 25.9893C44.9903 25.7893 44.8355 25.6893 44.629 25.6393C44.4225 25.5893 44.1129 25.5393 43.6484 25.5393C43.1838 25.5393 42.8225 25.5893 42.6677 25.7393C42.5129 25.8393 42.4613 25.9893 42.4613 26.2893C42.4613 26.2893 42.4613 26.3393 42.4613 26.3893C42.5129 26.2893 42.5129 26.3393 42.5129 26.3893ZM42.358 28.2393C42.358 28.6393 42.4613 28.8893 42.6161 29.0393C42.7709 29.1893 43.0806 29.2393 43.5451 29.2393C43.9064 29.2393 44.1645 29.2393 44.3709 29.1893C44.5774 29.1393 44.7838 29.0893 44.9903 28.9393C45.1451 28.7893 45.2484 28.5893 45.2484 28.3393C45.2484 27.9393 45.1451 27.6893 44.8871 27.5893C44.629 27.4893 44.3193 27.4393 43.8032 27.4393H43.5967C43.029 27.4393 42.6677 27.4893 42.5129 27.6393C42.4096 27.7393 42.358 27.9393 42.358 28.2393Z" fill="white"/>
		<path d="M51.6998 28.0392H52.474C52.474 28.5392 52.4224 28.8892 52.2676 29.1392C52.1127 29.3892 51.9063 29.5892 51.5966 29.6892C51.2869 29.7892 50.874 29.8392 50.3063 29.8392C49.7901 29.8392 49.3772 29.7892 49.0676 29.6892C48.7579 29.5892 48.5514 29.4392 48.3966 29.2392C48.2418 29.0392 48.1385 28.7892 48.1385 28.4892C48.0869 28.1892 48.0869 27.7892 48.0869 27.2392C48.0869 26.6892 48.1385 26.2392 48.2934 25.8892C48.3966 25.5392 48.6547 25.3392 48.9643 25.1892C49.274 25.0392 49.7385 24.9392 50.3579 24.9392C51.0289 24.9392 51.545 25.0392 51.8547 25.2392C52.2159 25.4392 52.3708 25.8392 52.3708 26.3892V26.5392H51.5966C51.5966 26.2392 51.545 26.0392 51.4934 25.8892C51.3901 25.7392 51.2869 25.6392 51.1321 25.5892C50.9772 25.5392 50.7192 25.4892 50.4095 25.4892C49.945 25.4892 49.5837 25.5392 49.3772 25.6392C49.1708 25.7392 49.0159 25.8892 48.9643 26.0892C48.9127 26.2892 48.8611 26.6392 48.8611 27.1392V27.6392C48.8611 28.0392 48.8611 28.3892 48.9127 28.5892C48.9643 28.7892 49.0676 28.9892 49.274 29.0892C49.4805 29.1892 49.7901 29.2392 50.203 29.2392C50.6159 29.2392 50.9256 29.1892 51.1321 29.1392C51.3385 29.0892 51.4418 28.9892 51.545 28.7892C51.6482 28.6392 51.6998 28.3892 51.6998 28.0392Z" fill="white"/>
		<path d="M58.1002 28.0392H58.8744C58.8744 28.5392 58.8228 28.8892 58.6679 29.1392C58.5131 29.3892 58.3067 29.5892 57.997 29.6892C57.6873 29.7892 57.2744 29.8392 56.7067 29.8392C56.1905 29.8392 55.7776 29.7892 55.468 29.6892C55.1583 29.5892 54.9518 29.4392 54.797 29.2392C54.6421 29.0392 54.5389 28.7892 54.5389 28.4892C54.4873 28.1892 54.4873 27.7892 54.4873 27.2392C54.4873 26.6892 54.5389 26.2392 54.6938 25.8892C54.8486 25.5392 55.055 25.3392 55.3647 25.1892C55.6744 25.0392 56.1389 24.9392 56.7583 24.9392C57.4292 24.9392 57.9454 25.0392 58.255 25.2392C58.6163 25.4392 58.7712 25.8392 58.7712 26.3892V26.5392H58.0486C58.0486 26.2392 57.997 26.0392 57.9454 25.8892C57.8421 25.7392 57.7389 25.6392 57.5841 25.5892C57.4292 25.5392 57.1712 25.4892 56.8615 25.4892C56.397 25.4892 56.0357 25.5392 55.8292 25.6392C55.6228 25.7392 55.468 25.8892 55.4163 26.0892C55.3647 26.2892 55.3131 26.6392 55.3131 27.1392V27.6392C55.3131 28.0392 55.3647 28.3892 55.3647 28.5892C55.4163 28.7892 55.5196 28.9892 55.726 29.0892C55.9325 29.1892 56.2421 29.2392 56.655 29.2392C57.068 29.2392 57.3776 29.1892 57.5841 29.1392C57.7905 29.0892 57.8938 28.9892 57.997 28.7892C58.0486 28.6392 58.1002 28.3892 58.1002 28.0392Z" fill="white"/>
		<path d="M71.1061 28.0392H71.8803C71.8803 28.5392 71.8286 28.8892 71.6738 29.1392C71.519 29.3892 71.3125 29.5892 71.0028 29.6892C70.6932 29.7892 70.2803 29.8392 69.7125 29.8392C69.1964 29.8392 68.7835 29.7892 68.4738 29.6892C68.1641 29.5892 67.9577 29.4392 67.8028 29.2392C67.648 29.0392 67.5448 28.7892 67.5448 28.4892C67.4932 28.1892 67.4932 27.7892 67.4932 27.2392C67.4932 26.6892 67.5448 26.2392 67.6996 25.8892C67.8028 25.5392 68.0609 25.3392 68.3706 25.1892C68.6803 25.0392 69.1448 24.9392 69.7641 24.9392C70.4351 24.9392 70.9512 25.0392 71.2609 25.2392C71.6222 25.4392 71.777 25.8392 71.777 26.3892V26.5392H71.0545C71.0545 26.2392 71.0028 26.0392 70.9512 25.8892C70.848 25.7392 70.7448 25.6392 70.5899 25.5892C70.4351 25.5392 70.177 25.4892 69.8674 25.4892C69.4028 25.4892 69.0415 25.5392 68.8351 25.6392C68.6286 25.7392 68.4738 25.8892 68.4222 26.0892C68.3706 26.2892 68.319 26.6392 68.319 27.1392V27.6392C68.319 28.0392 68.3706 28.3892 68.3706 28.5892C68.4222 28.7892 68.5254 28.9892 68.7319 29.0892C68.9383 29.1892 69.248 29.2392 69.6609 29.2392C70.0738 29.2392 70.3835 29.1892 70.5899 29.1392C70.7964 29.0892 70.8996 28.9892 71.0028 28.7892C71.0545 28.6392 71.1061 28.3892 71.1061 28.0392Z" fill="white"/>
		<path d="M83.2874 28.2892H84.1132C84.1132 28.7392 84.01 29.0892 83.8552 29.2892C83.7003 29.4892 83.4423 29.6392 83.1326 29.6892C82.8229 29.7392 82.41 29.7892 81.8939 29.7892C81.4294 29.7892 81.0164 29.7392 80.7068 29.6892C80.3971 29.5892 80.1906 29.4892 80.0358 29.2892C79.881 29.0892 79.7777 28.8892 79.6745 28.5892C79.6229 28.2892 79.5713 27.9392 79.5713 27.4392C79.5713 26.7892 79.6229 26.3392 79.7261 25.9892C79.8294 25.6392 80.0358 25.3892 80.3455 25.1892C80.6552 24.9892 81.1197 24.8892 81.7906 24.8892C82.4616 24.8892 82.9261 24.9392 83.2358 25.0892C83.5455 25.2392 83.8036 25.4392 83.9068 25.7392C84.01 26.0392 84.1132 26.4892 84.1132 27.1392V27.4892H80.4487C80.4487 27.9392 80.4487 28.2392 80.5003 28.4892C80.5519 28.7392 80.6552 28.8892 80.8616 29.0392C81.0681 29.1892 81.3777 29.2392 81.7906 29.2392H81.9971C82.41 29.2392 82.7713 29.1892 82.9777 29.0892C83.1842 28.9892 83.2874 28.7892 83.2874 28.4392V28.2892ZM83.2874 26.9392C83.2874 26.4892 83.2358 26.1892 83.1842 25.9892C83.1326 25.7892 82.9777 25.6392 82.7713 25.5892C82.5648 25.4892 82.2552 25.4892 81.7906 25.4892C81.3777 25.4892 81.1197 25.5392 80.9132 25.6392C80.7068 25.7392 80.5519 25.8892 80.5003 26.0892C80.3971 26.2892 80.3971 26.5892 80.3971 26.9892L83.2874 26.9392Z" fill="white"/>
		<path d="M89.739 26.8893V24.9893H90.4616V29.7893H89.6874V27.4893H86.9519V29.7893H86.1777V24.9893H86.9519V26.8893H89.739Z" fill="white"/>
		<path d="M76.1645 29.7392H75.3903V25.5392H73.5322V24.9392H76.1645H78.0225V25.5392H76.1645V29.7392Z" fill="white"/>
		<path d="M95.1576 29.7893H94.4351V25.5393H92.5254V24.9893H95.1576H97.0157V25.5393H95.1576V29.7893Z" fill="white"/>
		<path d="M60.9385 29.7892V24.9392H61.6611V29.2392L64.1385 24.9392H65.4288V29.7892H64.6546V25.4892L62.1772 29.7892H60.9385Z" fill="white"/>
		<path d="M18.8739 22.0893L35.132 9.33926C34.6675 9.08926 34.1514 8.98926 33.6352 8.98926H2.15137L18.8739 22.0893Z" fill="white"/>
		<path d="M36.7319 29.2892V11.9892C36.7319 11.2892 36.4738 10.6392 36.0609 10.1392L23.3125 20.1392L36.7319 29.2892Z" fill="white"/>
		<path d="M14.436 20.1392L1.0166 9.63916V26.7392C1.0166 27.4892 1.32628 28.1892 1.7908 28.7392L14.436 20.1392Z" fill="white"/>
		<path d="M22.8999 20.4893L18.8741 23.6393L14.8483 20.4893L2.20312 29.0893C2.71925 29.4893 3.39022 29.7393 4.1128 29.7393H36.4225L22.8999 20.4893Z" fill="white"/>
		<path d="M98.3066 5.18916C98.3066 3.13916 100.01 1.63916 102.023 1.63916C104.036 1.63916 105.739 3.13916 105.739 5.18916C105.739 7.23916 104.036 8.78916 102.023 8.78916C100.01 8.73916 98.3066 7.23916 98.3066 5.18916ZM102.023 8.13916C103.674 8.13916 105.016 6.88916 105.016 5.13916C105.016 3.43916 103.726 2.18916 102.023 2.18916C100.32 2.18916 99.0292 3.43916 99.0292 5.13916C99.0292 6.88916 100.32 8.13916 102.023 8.13916ZM101.249 7.23916H100.629V3.13916H102.229C103.21 3.13916 103.726 3.48916 103.726 4.28916C103.726 5.03916 103.261 5.33916 102.642 5.43916L103.829 7.23916H103.107L101.971 5.43916H101.249V7.23916ZM101.249 4.93916H102.023C102.591 4.93916 103.055 4.88916 103.055 4.28916C103.055 3.78916 102.591 3.68916 102.126 3.68916H101.249V4.93916Z" fill="white"/>
	</g>
	<defs>
		<clipPath id="clip0_3235_1369411">
			<rect width="160" height="30" fill="white" transform="translate(0.5 0.739258)"/>
		</clipPath>
	</defs>
</svg>