<svg width="161" height="16" viewBox="0 0 161 16" fill="none" xmlns="http://www.w3.org/2000/svg">
	<g clip-path="url(#clip0_3235_1369325)">
		<path d="M0.853027 14.6898V1.7312H7.69214C10.1668 1.7312 11.4335 3.3046 11.4335 5.03489C11.4335 6.64995 10.4192 7.75354 9.19258 8.00794C10.5952 8.22334 11.6859 9.56184 11.6859 11.1751C11.6859 13.135 10.3997 14.6907 7.90725 14.6907H0.853027V14.6898ZM8.60947 5.52242C8.60947 4.72464 8.02369 4.15999 7.08858 4.15999H3.62014V6.88041H7.08769C8.02281 6.88041 8.60947 6.35654 8.60947 5.52242ZM8.86103 10.7851C8.86103 9.96959 8.27703 9.30655 7.20592 9.30655H3.62014V12.261H7.20592C8.23703 12.261 8.86103 11.7176 8.86103 10.7851Z" fill="#21324C"/>
		<path d="M22.7507 14.6898L21.9339 12.495H16.3614L15.5436 14.6898H12.4067L17.413 1.7312H20.8814L25.8894 14.6898H22.7507ZM19.1481 4.48797L17.1205 10.068H21.1738L19.1481 4.48797Z" fill="#21324C"/>
		<path d="M38.3962 14.6898V5.34336L34.7322 14.6898H33.5242L29.862 5.34336V14.6898H27.0967V1.7312H30.9722L34.1296 9.83308L37.2851 1.7312H41.1829V14.6898H38.3962Z" fill="#21324C"/>
		<path d="M43.751 14.6898V1.7312H50.591C53.0665 1.7312 54.3323 3.3046 54.3323 5.03489C54.3323 6.64995 53.3181 7.75354 52.0914 8.00794C53.495 8.22334 54.5848 9.56184 54.5848 11.1751C54.5848 13.135 53.2994 14.6907 50.8061 14.6907H43.751V14.6898ZM51.5065 5.52242C51.5065 4.72464 50.9216 4.15999 49.9856 4.15999H46.5172V6.88041H49.9856C50.9216 6.88041 51.5065 6.35654 51.5065 5.52242ZM51.7599 10.7851C51.7599 9.96959 51.175 9.30655 50.1048 9.30655H46.5172V12.261H50.1048C51.1376 12.261 51.7599 11.7176 51.7599 10.7851Z" fill="#21324C"/>
		<path d="M92.2949 8.22252C92.2949 4.12106 95.4131 1.51587 99.2309 1.51587C101.92 1.51587 103.617 2.8783 104.588 4.41358L102.311 5.65368C101.705 4.74244 100.595 3.96416 99.2309 3.96416C96.854 3.96416 95.1394 5.77069 95.1394 8.22252C95.1394 10.6699 96.854 12.4765 99.2309 12.4765C100.38 12.4765 101.453 11.9712 101.978 11.4863V9.93331H98.55V7.52225H104.747V12.496C103.421 13.971 101.57 14.9247 99.2318 14.9247C95.4131 14.9247 92.2949 12.3018 92.2949 8.22252Z" fill="#21324C"/>
		<path d="M114.29 14.69L111.738 10.0877H109.711V14.69H106.944V1.73145H113.024C115.732 1.73145 117.408 3.49808 117.408 5.91003C117.408 8.18015 115.948 9.42468 114.543 9.75886L117.487 14.69H114.29ZM114.562 5.88787C114.562 4.81973 113.726 4.16024 112.633 4.16024H109.711V7.65894H112.633C113.725 7.65894 114.562 6.99678 114.562 5.88787Z" fill="#21324C"/>
		<path d="M135.278 9.95914V2.18701H138.084V9.88025C138.084 11.6868 139.134 12.9313 141.142 12.9313C143.148 12.9313 144.181 11.6868 144.181 9.88025V2.18701H147.009V9.95914C147.009 13.1662 145.098 15.3796 141.142 15.3796C137.187 15.3805 135.278 13.1671 135.278 9.95914Z" fill="#21324C"/>
		<path d="M149.577 15.1482V2.18701H155.655C158.483 2.18701 160.021 4.09193 160.021 6.3656C160.021 8.6171 158.462 10.5238 155.655 10.5238H152.344V15.1474L149.577 15.1482ZM157.197 6.36648C157.197 5.27796 156.358 4.6158 155.267 4.6158H152.345V8.09146H155.267C156.357 8.09146 157.197 7.43373 157.197 6.36648Z" fill="#21324C"/>
		<path d="M69.9199 8.21718C69.9199 12.0439 66.8088 15.1481 62.9688 15.1481C59.1306 15.1481 56.0186 12.0439 56.0186 8.21718C56.0186 4.3843 59.1306 1.28272 62.9688 1.28272C66.8079 1.28183 69.9199 4.3843 69.9199 8.21718Z" fill="#62D31A"/>
		<path d="M86.0529 8.21718C86.0529 12.0439 82.9418 15.1481 79.1035 15.1481C75.2644 15.1481 72.1533 12.0439 72.1533 8.21718C72.1533 4.3843 75.2644 1.28272 79.1035 1.28272C82.9418 1.28183 86.0529 4.3843 86.0529 8.21718Z" fill="#62D31A"/>
		<path d="M133.156 8.21718C133.156 12.0439 130.044 15.1481 126.206 15.1481C122.367 15.1481 119.256 12.0439 119.256 8.21718C119.256 4.3843 122.367 1.28272 126.206 1.28272C130.044 1.28183 133.156 4.3843 133.156 8.21718Z" fill="#62D31A"/>
	</g>
	<defs>
		<clipPath id="clip0_3235_1369325">
			<rect width="160" height="15" fill="white" transform="translate(0.5 0.5)"/>
		</clipPath>
	</defs>
</svg>