<svg width="162" height="34" viewBox="0 0 162 34" fill="none" xmlns="http://www.w3.org/2000/svg">
	<g clip-path="url(#clip0_2365_65562)">
		<path d="M43.6879 0L34.4956 26.622H29.0277L22.1732 6.9217L15.1997 26.622H9.6923L0.5 0H5.84896L12.7432 20.2326L19.9148 0H24.6694L31.6824 20.3467L38.7748 0H43.6879Z" fill="#F6FAFF"/>
		<path d="M53.9052 6.08496C57.022 6.08496 59.3994 6.80756 61.037 8.25275C62.7012 9.67258 63.5333 11.8277 63.5333 14.7181V26.622H58.8579V24.1498C58.2504 25.0372 57.3787 25.7218 56.2428 26.2036C55.1334 26.6598 53.7862 26.8881 52.2014 26.8881C50.6165 26.8881 49.2298 26.6346 48.041 26.1275C46.8524 25.595 45.928 24.8724 45.2675 23.9597C44.6336 23.0215 44.3167 21.9695 44.3167 20.8031C44.3167 18.9776 45.0165 17.5197 46.4166 16.4296C47.8429 15.3139 50.075 14.7561 53.1127 14.7561H58.5804V14.4519C58.5804 13.032 58.1314 11.9418 57.2333 11.1812C56.3616 10.4205 55.0542 10.0402 53.3108 10.0402C52.1222 10.0402 50.9467 10.2177 49.7844 10.5727C48.6485 10.9276 47.6845 11.422 46.892 12.0559L44.9506 8.59502C46.0599 7.7837 47.3939 7.16252 48.9523 6.7315C50.5109 6.30047 52.1618 6.08496 53.9052 6.08496ZM53.2316 23.4272C54.473 23.4272 55.5692 23.1611 56.5201 22.6286C57.4975 22.0708 58.1843 21.2848 58.5804 20.2706V17.9128H53.4693C50.6165 17.9128 49.19 18.8128 49.19 20.6129C49.19 21.475 49.5467 22.1595 50.2599 22.6666C50.973 23.1737 51.9637 23.4272 53.2316 23.4272Z" fill="#F6FAFF"/>
		<path d="M86.4121 22.8189V26.622H68.1465V23.6174L79.7557 10.1164H68.3842V6.31323H86.0952V9.3177L74.4464 22.8189H86.4121Z" fill="#F6FAFF"/>
		<path d="M107.5 22.8189V26.622H89.2344V23.6174L100.843 10.1164H89.4721V6.31323H107.183V9.3177L95.5342 22.8189H107.5Z" fill="#F6FAFF"/>
		<path d="M132.549 6.31323V26.622H127.834V24.0358C127.042 24.9486 126.051 25.6585 124.863 26.1656C123.674 26.6473 122.393 26.8882 121.019 26.8882C118.193 26.8882 115.961 26.1402 114.323 24.6444C112.712 23.1231 111.906 20.8793 111.906 17.9128V6.31323H116.859V17.2662C116.859 19.0917 117.282 20.4609 118.127 21.3736C118.999 22.261 120.227 22.7047 121.812 22.7047C123.582 22.7047 124.982 22.185 126.012 21.1454C127.068 20.0806 127.597 18.5593 127.597 16.5817V6.31323H132.549Z" fill="#F6FAFF"/>
		<path d="M150.762 6.08496C152.823 6.08496 154.658 6.51598 156.27 7.37803C157.907 8.24008 159.188 9.45706 160.113 11.029C161.037 12.601 161.5 14.4138 161.5 16.4674C161.5 18.5212 161.037 20.3467 160.113 21.944C159.188 23.516 157.907 24.733 156.27 25.595C154.658 26.4571 152.823 26.8881 150.762 26.8881C147.909 26.8881 145.651 25.9753 143.987 24.1498V33.9999H139.034V6.31315H143.749V8.97533C144.568 8.01189 145.572 7.28929 146.76 6.80756C147.975 6.32583 149.309 6.08496 150.762 6.08496ZM150.208 22.8188C152.03 22.8188 153.523 22.2356 154.685 21.0693C155.873 19.9031 156.468 18.369 156.468 16.4674C156.468 14.5659 155.873 13.032 154.685 11.8657C153.523 10.6994 152.03 10.1163 150.208 10.1163C149.019 10.1163 147.949 10.3825 146.998 10.9149C146.047 11.422 145.294 12.1573 144.74 13.1208C144.185 14.0842 143.908 15.1998 143.908 16.4674C143.908 17.7352 144.185 18.8508 144.74 19.8143C145.294 20.7777 146.047 21.5257 146.998 22.0582C147.949 22.5653 149.019 22.8188 150.208 22.8188Z" fill="#F6FAFF"/>
	</g>
	<defs>
		<clipPath id="clip0_2365_65562">
			<rect width="161" height="34" fill="white" transform="translate(0.5)"/>
		</clipPath>
	</defs>
</svg>
