<svg width="24" height="25" viewBox="0 0 24 25" fill="none" xmlns="http://www.w3.org/2000/svg">
    <rect y="0.5" width="24" height="24" rx="12" fill="white"/>
    <rect x="0.5" y="1" width="23" height="23" rx="11.5" stroke="black" stroke-opacity="0.02"/>
    <path fill-rule="evenodd" clip-rule="evenodd" d="M11.7557 17.5317C10.7081 17.627 9.73481 17.2607 8.90979 16.5707C8.08604 15.8817 7.55548 14.9915 7.46653 13.9487C6.9635 13.8514 6.13985 13.6779 5.13452 13.413C5.97614 11.2497 7.58192 10.672 8.58748 10.5306C8.74819 10.3014 8.9273 10.0688 9.12564 9.83321C11.527 6.98062 16.9489 5.6911 17.6058 6.24049C18.2627 6.78988 17.9301 12.3362 15.5287 15.1888C15.3328 15.4217 15.1364 15.6356 14.9401 15.8314C14.978 16.8416 14.6922 18.5275 12.6924 19.7344C12.2541 18.7892 11.9388 18.008 11.7557 17.5317ZM12.7506 14.6593C12.1436 15.3803 11.0652 15.4744 10.3418 14.8694C9.61852 14.2644 9.52416 13.1894 10.1311 12.4683C10.7381 11.7472 11.8165 11.6532 12.5399 12.2582C13.2632 12.8632 13.3576 13.9383 12.7506 14.6593ZM13.2733 11.3873C13.6618 11.7121 14.2408 11.6616 14.5667 11.2745C14.8926 10.8874 14.8419 10.3102 14.4536 9.98535C14.0651 9.6605 13.4861 9.71099 13.1602 10.0981C12.8343 10.4853 12.8849 11.0624 13.2733 11.3873ZM8.35732 17.1412C8.80383 17.4989 9.29394 17.7654 9.81577 17.9192C8.12136 18.9111 6.70408 19.454 6.48162 19.2757C6.25916 19.0975 6.57295 17.6705 7.30167 15.9048C7.55095 16.3688 7.91082 16.7835 8.35732 17.1412Z" fill="url(#paint0_radial_6319_168294)"/>
    <defs>
        <radialGradient id="paint0_radial_6319_168294" cx="0" cy="0" r="1" gradientUnits="userSpaceOnUse" gradientTransform="translate(6.31853 7.37341) rotate(46.1526) scale(14.4021 14.3947)">
            <stop stop-color="#F9BE74"/>
            <stop offset="0.5" stop-color="#FB7595"/>
            <stop offset="1" stop-color="#B55CCE"/>
        </radialGradient>
    </defs>
</svg>
