<svg width="84" height="84" viewBox="0 0 84 84" fill="none" xmlns="http://www.w3.org/2000/svg">
<g clip-path="url(#clip0_10419_105167)">
<rect x="21.0039" y="0.0581055" width="41.9914" height="83.7525" rx="7" fill="white"/>
<rect x="21.0039" y="0.0581055" width="41.9914" height="83.7525" rx="7" fill="url(#paint0_linear_10419_105167)"/>
<mask id="path-3-inside-1_10419_105167" fill="white">
<path d="M62.9961 23.8516C63.3827 23.8516 63.6961 24.165 63.6961 24.5516V28.8616C63.6961 29.2482 63.3827 29.5616 62.9961 29.5616V23.8516Z"/>
</mask>
<path d="M62.9961 23.8516C63.3827 23.8516 63.6961 24.165 63.6961 24.5516V28.8616C63.6961 29.2482 63.3827 29.5616 62.9961 29.5616V23.8516Z" fill="#333333"/>
<path d="M63.6961 24.5516H62.6961V28.8616H63.6961H64.6961V24.5516H63.6961ZM62.9961 29.5616H63.9961V23.8516H62.9961H61.9961V29.5616H62.9961ZM63.6961 28.8616H62.6961C62.6961 28.6959 62.8304 28.5616 62.9961 28.5616V29.5616V30.5616C63.935 30.5616 64.6961 29.8004 64.6961 28.8616H63.6961ZM62.9961 23.8516V24.8516C62.8304 24.8516 62.6961 24.7172 62.6961 24.5516H63.6961H64.6961C64.6961 23.6127 63.935 22.8516 62.9961 22.8516V23.8516Z" fill="#555555" mask="url(#path-3-inside-1_10419_105167)"/>
<mask id="path-5-inside-2_10419_105167" fill="white">
<path d="M20.3047 21.618C20.3047 21.2314 20.6181 20.918 21.0047 20.918V26.742C20.6181 26.742 20.3047 26.4286 20.3047 26.042V21.618Z"/>
</mask>
<path d="M20.3047 21.618C20.3047 21.2314 20.6181 20.918 21.0047 20.918V26.742C20.6181 26.742 20.3047 26.4286 20.3047 26.042V21.618Z" fill="#333333"/>
<path d="M21.0047 20.918H20.0047V26.742H21.0047H22.0047V20.918H21.0047ZM20.3047 26.042H21.3047V21.618H20.3047H19.3047V26.042H20.3047ZM21.0047 26.742V25.742C21.1704 25.742 21.3047 25.8763 21.3047 26.042H20.3047H19.3047C19.3047 26.9809 20.0658 27.742 21.0047 27.742V26.742ZM21.0047 20.918V19.918C20.0658 19.918 19.3047 20.6791 19.3047 21.618H20.3047H21.3047C21.3047 21.7837 21.1704 21.918 21.0047 21.918V20.918Z" fill="#555555" mask="url(#path-5-inside-2_10419_105167)"/>
<mask id="path-7-inside-3_10419_105167" fill="white">
<path d="M20.3047 28.761C20.3047 28.3744 20.6181 28.061 21.0047 28.061V33.8851C20.6181 33.8851 20.3047 33.5717 20.3047 33.1851V28.761Z"/>
</mask>
<path d="M20.3047 28.761C20.3047 28.3744 20.6181 28.061 21.0047 28.061V33.8851C20.6181 33.8851 20.3047 33.5717 20.3047 33.1851V28.761Z" fill="#333333"/>
<path d="M21.0047 28.061H20.0047V33.8851H21.0047H22.0047V28.061H21.0047ZM20.3047 33.1851H21.3047V28.761H20.3047H19.3047V33.1851H20.3047ZM21.0047 33.8851V32.8851C21.1704 32.8851 21.3047 33.0194 21.3047 33.1851H20.3047H19.3047C19.3047 34.124 20.0658 34.8851 21.0047 34.8851V33.8851ZM21.0047 28.061V27.061C20.0658 27.061 19.3047 27.8222 19.3047 28.761H20.3047H21.3047C21.3047 28.9267 21.1704 29.061 21.0047 29.061V28.061Z" fill="#555555" mask="url(#path-7-inside-3_10419_105167)"/>
<rect x="21.7539" y="0.808105" width="40.4914" height="82.2525" rx="6.25" stroke="#555555" stroke-width="1.5"/>
<g filter="url(#filter0_d_10419_105167)">
<path fill-rule="evenodd" clip-rule="evenodd" d="M40.8248 30.2252C41.2966 29.2218 42.7038 29.2218 43.1756 30.2252L46.3461 36.968L53.4179 38.0466C54.5309 38.2163 54.8586 39.5599 54.1489 40.286L49.0063 45.5473L50.222 52.9869C50.3829 53.9715 49.3565 54.9401 48.315 54.3654L42.0002 50.8809L35.6854 54.3654C34.6438 54.9401 33.6174 53.9715 33.7783 52.9869L34.994 45.5473L29.8514 40.286C29.1418 39.5599 29.4695 38.2163 30.5824 38.0466L37.6542 36.968L40.8248 30.2252Z" fill="#15C674"/>
<path fill-rule="evenodd" clip-rule="evenodd" d="M40.8248 30.2252C41.2966 29.2218 42.7038 29.2218 43.1756 30.2252L46.3461 36.968L53.4179 38.0466C54.5309 38.2163 54.8586 39.5599 54.1489 40.286L49.0063 45.5473L50.222 52.9869C50.3829 53.9715 49.3565 54.9401 48.315 54.3654L42.0002 50.8809L35.6854 54.3654C34.6438 54.9401 33.6174 53.9715 33.7783 52.9869L34.994 45.5473L29.8514 40.286C29.1418 39.5599 29.4695 38.2163 30.5824 38.0466L37.6542 36.968L40.8248 30.2252Z" fill="white"/>
</g>
</g>
<defs>
<filter id="filter0_d_10419_105167" x="27.6766" y="28.5727" width="28.6469" height="28.6649" filterUnits="userSpaceOnUse" color-interpolation-filters="sRGB">
<feFlood flood-opacity="0" result="BackgroundImageFix"/>
<feColorMatrix in="SourceAlpha" type="matrix" values="0 0 0 0 0 0 0 0 0 0 0 0 0 0 0 0 0 0 127 0" result="hardAlpha"/>
<feOffset dy="0.9"/>
<feGaussianBlur stdDeviation="0.9"/>
<feComposite in2="hardAlpha" operator="out"/>
<feColorMatrix type="matrix" values="0 0 0 0 0 0 0 0 0 0.213727 0 0 0 0 0.928185 0 0 0 0.2 0"/>
<feBlend mode="normal" in2="BackgroundImageFix" result="effect1_dropShadow_10419_105167"/>
<feBlend mode="normal" in="SourceGraphic" in2="effect1_dropShadow_10419_105167" result="shape"/>
</filter>
<linearGradient id="paint0_linear_10419_105167" x1="41.9996" y1="83.8106" x2="41.9996" y2="2.68374" gradientUnits="userSpaceOnUse">
<stop stop-color="#2982FF" stop-opacity="0.78"/>
<stop offset="0.298077" stop-color="#45A2FF" stop-opacity="0.766783"/>
<stop offset="0.676585" stop-color="#7DD6FF" stop-opacity="0.75"/>
<stop offset="1" stop-color="#C6FBFF" stop-opacity="0.6"/>
</linearGradient>
<clipPath id="clip0_10419_105167">
<path d="M0 9.33334C0 4.17868 4.17868 0 9.33333 0H74.6667C79.8213 0 84 4.17868 84 9.33333V74.6667C84 79.8213 79.8213 84 74.6667 84H9.33334C4.17868 84 0 79.8213 0 74.6667V9.33334Z" fill="white"/>
</clipPath>
</defs>
</svg>
