<svg width="20" height="20" viewBox="0 0 20 20" fill="none" xmlns="http://www.w3.org/2000/svg">
	<path fill-rule="evenodd" clip-rule="evenodd" d="M10.5594 4.12109C7.62342 4.12109 5.16982 6.1859 4.57121 8.94258H2.38232L5.41106 11.9713C5.53274 12.093 5.73185 12.093 5.85353 11.9713L8.88228 8.94258H6.62025C7.16768 7.29108 8.72425 6.09959 10.5594 6.09959C12.8511 6.09959 14.7088 7.95735 14.7088 10.249C14.7088 12.5407 12.8511 14.3984 10.5594 14.3984C9.38923 14.3984 8.33236 13.9139 7.57802 13.1346L6.15698 14.5115C7.27095 15.6618 8.83164 16.3769 10.5594 16.3769C13.9438 16.3769 16.6873 13.6334 16.6873 10.249C16.6873 6.86465 13.9438 4.12109 10.5594 4.12109ZM10.8826 7.41241H10.2073C10.1112 7.41241 10.0325 7.49109 10.0325 7.58724V10.3845C10.0325 10.3898 10.0328 10.3949 10.0333 10.4C10.0285 10.4502 10.0453 10.502 10.0835 10.5402L12.0615 12.5182C12.1295 12.5862 12.2407 12.5862 12.3087 12.5182L12.7862 12.0407C12.8542 11.9727 12.8542 11.8615 12.7862 11.7935L11.0574 10.0647V7.58724C11.0574 7.49109 10.9787 7.41241 10.8826 7.41241Z" fill="#00789E"/>
</svg>