<svg width="24" height="24" viewBox="0 0 24 24" fill="none" xmlns="http://www.w3.org/2000/svg">
<path fill-rule="evenodd" clip-rule="evenodd" d="M17.0005 4.95215C18.4914 4.95241 19.7006 6.16139 19.7007 7.65234V16.4111C19.7007 17.9021 18.4914 19.1111 17.0005 19.1113H10.7983C9.30717 19.1113 8.09815 17.9023 8.09814 16.4111V7.65234C8.09821 6.16123 9.30721 4.95215 10.7983 4.95215H17.0005ZM10.7983 6.35254C10.0804 6.35254 9.4986 6.93443 9.49854 7.65234V16.4111C9.49854 17.1291 10.0804 17.7109 10.7983 17.7109H17.0005C17.7182 17.7107 18.3003 17.1289 18.3003 16.4111V7.65234C18.3002 6.93459 17.7182 6.3528 17.0005 6.35254H10.7983Z" fill="#333333"/>
<path fill-rule="evenodd" clip-rule="evenodd" d="M5.22021 15.3799C5.99255 15.3799 6.61937 16.006 6.61963 16.7783C6.61963 17.5508 5.99271 18.1777 5.22021 18.1777C4.49625 18.1775 3.90125 17.627 3.82959 16.9219L3.82178 16.7783L3.82959 16.6357C3.90124 15.9306 4.49625 15.3801 5.22021 15.3799ZM5.22021 16.7783V16.7803L5.22217 16.7783H5.22021Z" fill="#333333"/>
<path fill-rule="evenodd" clip-rule="evenodd" d="M5.22021 10.5469C5.99255 10.5469 6.61937 11.173 6.61963 11.9453C6.61963 12.7178 5.99271 13.3447 5.22021 13.3447C4.49625 13.3445 3.90125 12.794 3.82959 12.0889L3.82178 11.9453L3.82959 11.8027C3.90124 11.0976 4.49625 10.5471 5.22021 10.5469ZM5.22021 11.9453V11.9473L5.22217 11.9453H5.22021Z" fill="#333333"/>
<path fill-rule="evenodd" clip-rule="evenodd" d="M5.22021 5.82227C5.99255 5.82227 6.61937 6.44843 6.61963 7.2207C6.61963 7.9932 5.99271 8.62012 5.22021 8.62012C4.49625 8.61987 3.90125 8.06937 3.82959 7.36426L3.82178 7.2207L3.82959 7.07812C3.90124 6.37301 4.49625 5.82251 5.22021 5.82227ZM5.22021 7.2207V7.22266L5.22217 7.2207H5.22021Z" fill="#333333"/>
</svg>
