<svg xmlns="http://www.w3.org/2000/svg" width="24" height="24" fill="none"><path fill="#333333" d="M12.586 6.264H7a1.6 1.6 0 0 0-1.6 1.6v3.9c0 .587.317 1.102.8 1.383l.697.405v2.202l1.835-1.836.007-.008.421-.546h4.711a1.6 1.6 0 0 0 1.6-1.6v-1.73h1.73a2.8 2.8 0 0 1 2.799 2.8v2.617a2.8 2.8 0 0 1-1.499 2.478v.828c0 1.239-1.499 1.86-2.375.983l-1.49-1.489h-1.6a2.8 2.8 0 0 1-2.726-2.173h1.475c.23.458.704.773 1.251.773h2.18l1.885 1.883v-1.651l.748-.393c.45-.238.75-.705.75-1.239v-2.617a1.4 1.4 0 0 0-1.399-1.4h-.329v.33c0 1.656-1.343 3-3 3H9.85q-.057.075-.126.144l-1.85 1.852c-.877.876-2.376.255-2.376-.985v-1.418A3 3 0 0 1 4 11.765V7.863a3 3 0 0 1 3-3h5.586z"/><path fill="#333333" d="M16.656 3.543a.7.7 0 0 1 .7.7v1.324h1.324a.7.7 0 0 1 0 1.4h-1.325v1.324a.7.7 0 1 1-1.399 0V6.968h-1.324a.7.7 0 0 1 0-1.4h1.324V4.242a.7.7 0 0 1 .7-.7"/></svg>
