<svg xmlns="http://www.w3.org/2000/svg" width="24" height="24" fill="none"><path fill="#333" d="M19.65 14.98a.7.7 0 0 1 1.022.957l-3.75 4a.7.7 0 0 1-.976.045l-2.25-2a.7.7 0 0 1 .93-1.046l1.74 1.546 3.284-3.502Z"/><path fill="#333" fill-rule="evenodd" d="M15.906 4.443c.471 0 .922.196 1.243.54l1.615 1.73c.293.315.457.73.457 1.16v4.214a.7.7 0 0 1-1.4 0V8.288H6.144v8.85c0 .169.07.339.207.47a.795.795 0 0 0 .545.211h3.744a.7.7 0 0 1 0 1.4H6.897c-.56 0-1.103-.211-1.51-.597a2.048 2.048 0 0 1-.644-1.483V7.873c0-.43.164-.845.458-1.16l1.614-1.73c.322-.344.773-.54 1.244-.54h7.847Zm-7.847 1.4a.302.302 0 0 0-.22.095l-.886.95h10.059l-.886-.95a.302.302 0 0 0-.22-.094H8.06Z" clip-rule="evenodd"/><path fill="#333" d="M14.161 10.094c.386 0 .7.314.7.7 0 .77-.3 1.51-.838 2.058a2.863 2.863 0 0 1-2.04.857c-.768 0-1.502-.31-2.04-.857a2.935 2.935 0 0 1-.84-2.058.7.7 0 0 1 1.4 0c0 .405.159.792.437 1.075.279.283.654.44 1.042.44.389 0 .764-.157 1.042-.44.279-.283.438-.67.438-1.075a.7.7 0 0 1 .7-.7Z"/></svg>