<svg xmlns="http://www.w3.org/2000/svg" width="24" height="24" fill="none"><path fill="#333" d="M19.774 14.148a.7.7 0 0 1 1.076.896l-3.275 3.929a.7.7 0 0 1-1.032.047l-1.965-1.965a.7.7 0 0 1 .99-.99l1.422 1.422 2.784-3.34ZM12 12.999c.829 0 1.715.082 2.559.306a4.647 4.647 0 0 0-1.054 1.209A9.597 9.597 0 0 0 12 14.399c-1.239 0-2.465.203-3.39.733-.827.475-1.447 1.228-1.615 2.468h5.9c.075.497.231.967.452 1.399H6.75c-.649 0-1.236-.54-1.178-1.258.152-1.87 1.074-3.096 2.342-3.823 1.226-.703 2.732-.919 4.086-.919ZM7.287 12.93a.789.789 0 0 1-.136.466c-.218.3-.57.661-.95 1.083a2.766 2.766 0 0 0-.43.217c-.482.302-.871.779-1.013 1.578h.124a4.323 4.323 0 0 0-.47 1.4h-.037c-.582 0-1.106-.483-1.06-1.126l.027-.268c.163-1.31.798-2.213 1.683-2.77.69-.432 1.494-.632 2.265-.703a2.581 2.581 0 0 0-.003.124Z"/><path fill="#333" fill-rule="evenodd" d="M12.258 5.006c4.432.227 4.007 7.494-.215 7.494l-.327-.015C8.42 12.184 7.71 7.332 10.16 5.582c.42-.3 1.228-.582 1.883-.582l.215.006ZM12.043 6.4c-.145 0-.363.035-.602.112a1.922 1.922 0 0 0-.467.21c-.684.488-1.048 1.57-.795 2.687.24 1.058.91 1.69 1.864 1.69.617 0 1.053-.25 1.373-.648.345-.429.566-1.057.583-1.735.017-.68-.174-1.28-.487-1.678-.283-.358-.724-.638-1.47-.638Z" clip-rule="evenodd"/><path fill="#333" d="M7.84 6.732a5.583 5.583 0 0 0-.295 1.504c-.023.01-.045.017-.065.027-.042.02-.063.034-.067.037-.367.267-.632.939-.462 1.707.155.697.543 1.001 1.012 1.014.15.575.302 1.14.367 1.38a2.54 2.54 0 0 1-.336.024l-.243-.012c-2.38-.222-2.954-3.682-1.331-5.11l.17-.136c.28-.204.794-.397 1.25-.435ZM16.294 6.738c3.158.319 2.806 5.686-.3 5.686l-.243-.012c-.032-.003-.063-.01-.095-.014.055-.25.223-.775.402-1.378.3-.016.509-.14.677-.354.206-.26.353-.667.365-1.126.01-.46-.118-.84-.296-1.07a.836.836 0 0 0-.237-.21 5.581 5.581 0 0 0-.273-1.522Z"/></svg>