<svg width="20" height="21" viewBox="0 0 20 21" fill="none" xmlns="http://www.w3.org/2000/svg">
	<path d="M9.25537 3.52344C9.76439 3.47081 10.265 3.4725 10.7515 3.52441C11.307 3.5837 11.7231 3.98851 11.8667 4.47559L11.9897 4.89355C12.0071 4.95228 12.0623 5.02284 12.1665 5.06445C12.2148 5.08375 12.2633 5.10349 12.311 5.12402C12.4141 5.16833 12.5033 5.15725 12.5571 5.12793L12.938 4.91992C13.3838 4.67707 13.9642 4.68586 14.3989 5.03613C14.7905 5.35181 15.1477 5.70904 15.4634 6.10059C15.8138 6.53529 15.8225 7.11562 15.5796 7.56152L15.3716 7.94336C15.3422 7.99722 15.3311 8.08629 15.3755 8.18945C15.3959 8.23696 15.4158 8.28486 15.4351 8.33301C15.4767 8.43723 15.5472 8.4924 15.606 8.50977L16.0239 8.63281C16.511 8.77637 16.9158 9.19258 16.9751 9.74805C17.027 10.2347 17.0287 10.736 16.9761 11.2451C16.9183 11.8022 16.5139 12.2225 16.0229 12.3672L15.6206 12.4863C15.5613 12.5038 15.4893 12.5595 15.4478 12.666C15.4269 12.7197 15.4057 12.7733 15.3833 12.8262C15.3395 12.9294 15.3504 13.0177 15.3794 13.0713L15.5923 13.4619C15.8346 13.9068 15.8268 14.4862 15.4771 14.9209C15.164 15.3098 14.8093 15.6645 14.4204 15.9775C13.9857 16.3272 13.4063 16.3351 12.9614 16.0928L12.5718 15.8799C12.5183 15.8507 12.4291 15.839 12.3257 15.8828C12.2728 15.9053 12.2192 15.9273 12.1655 15.9482C12.0591 15.9898 12.0033 16.0618 11.9858 16.1211L11.8677 16.5234C11.7229 17.0143 11.3017 17.4178 10.7446 17.4756C10.2354 17.5282 9.73426 17.5266 9.24756 17.4746C8.69227 17.4153 8.27599 17.0112 8.13232 16.5244L8.00928 16.1064C7.99191 16.0477 7.93681 15.9772 7.83252 15.9355C7.78435 15.9163 7.7365 15.8964 7.68896 15.876C7.5858 15.8316 7.49673 15.8427 7.44287 15.8721L7.06104 16.0791C6.61513 16.3219 6.03575 16.3133 5.60107 15.9629C5.20956 15.6473 4.85229 15.2909 4.53662 14.8994C4.18615 14.4647 4.17753 13.8844 4.42041 13.4385L4.62744 13.0566C4.65668 13.0028 4.66778 12.9145 4.62354 12.8115C4.60299 12.7638 4.58327 12.7153 4.56396 12.667C4.52235 12.5628 4.45181 12.5076 4.39307 12.4902L3.97607 12.3672C3.48903 12.2236 3.08423 11.8074 3.0249 11.252C2.97294 10.7654 2.97133 10.2649 3.02393 9.75586C3.08152 9.19869 3.4852 8.77766 3.97607 8.63281L4.39795 8.50781C4.45511 8.49085 4.52803 8.43674 4.57471 8.3291C4.59156 8.29025 4.60864 8.25143 4.62646 8.21289C4.67622 8.10531 4.6652 8.01208 4.63525 7.95703L4.45654 7.62891C4.20774 7.17188 4.22646 6.58032 4.58838 6.14551C4.90665 5.76318 5.26272 5.40717 5.64502 5.08887C6.07983 4.72688 6.67136 4.70821 7.12842 4.95703L7.45654 5.13574C7.51159 5.16571 7.60478 5.17672 7.7124 5.12695C7.75106 5.10908 7.78964 5.09112 7.82861 5.07422C7.93635 5.0275 7.99139 4.95562 8.0083 4.89844L8.13232 4.47656C8.27705 3.98553 8.69809 3.58109 9.25537 3.52344ZM10.6274 4.68457C10.222 4.64132 9.8033 4.64034 9.37549 4.68457C9.336 4.68866 9.27636 4.72219 9.25146 4.80664L9.12744 5.22754C8.99706 5.6699 8.66345 5.985 8.29346 6.14551C8.26307 6.15868 8.23203 6.1715 8.20166 6.18555C7.81137 6.36602 7.32467 6.39259 6.89795 6.16016L6.5708 5.98145C6.49316 5.93916 6.42524 5.95781 6.39209 5.98535C6.06408 6.25842 5.7579 6.56455 5.48486 6.89258C5.45737 6.92577 5.43871 6.99374 5.48096 7.07129L5.65967 7.39844C5.89211 7.82516 5.86555 8.31185 5.68506 8.70215C5.6711 8.73233 5.65812 8.76277 5.64502 8.79297C5.48461 9.16291 5.1702 9.49644 4.72803 9.62695L4.30615 9.75195C4.22211 9.7768 4.18833 9.83554 4.18408 9.875C4.13983 10.303 4.14175 10.7223 4.18506 11.1279C4.18899 11.1647 4.22105 11.2231 4.30518 11.248L4.72314 11.3711C5.17244 11.5037 5.49319 11.8467 5.64795 12.2344C5.66337 12.273 5.67939 12.3115 5.6958 12.3496C5.86107 12.7335 5.87708 13.2034 5.65283 13.6152L5.44482 13.9961C5.40278 14.0733 5.42142 14.138 5.44482 14.167C5.70817 14.4936 6.00592 14.7913 6.33252 15.0547C6.36155 15.0781 6.42623 15.0967 6.50342 15.0547L6.88428 14.8477C7.296 14.6234 7.76604 14.6386 8.1499 14.8037C8.18796 14.8201 8.22657 14.8362 8.26514 14.8516C8.65286 15.0063 8.99586 15.327 9.12842 15.7764L9.25146 16.1943C9.27637 16.2785 9.33476 16.3105 9.37158 16.3145C9.77729 16.3578 10.1964 16.3597 10.6245 16.3154C10.664 16.3113 10.7237 16.2777 10.7485 16.1934L10.8667 15.791C11.0007 15.3365 11.3501 15.0143 11.7427 14.8613C11.7853 14.8447 11.8277 14.8274 11.8696 14.8096C12.2521 14.6471 12.7192 14.6321 13.1294 14.8555L13.52 15.0684C13.597 15.1102 13.6604 15.0912 13.689 15.0684C14.0126 14.8079 14.3074 14.513 14.5679 14.1895C14.5908 14.161 14.6097 14.0976 14.5679 14.0205L14.355 13.6299C14.1316 13.2198 14.1467 12.7526 14.3091 12.3701C14.327 12.328 14.3442 12.2849 14.3608 12.2422C14.5139 11.8497 14.8361 11.5012 15.2905 11.3672L15.6929 11.248C15.7771 11.2232 15.8117 11.1645 15.8159 11.125C15.8602 10.697 15.8582 10.2777 15.8149 9.87207C15.811 9.83521 15.7782 9.77682 15.6938 9.75195L15.2759 9.62891C14.8265 9.49635 14.5058 9.15333 14.3511 8.76562C14.3357 8.72706 14.3196 8.68844 14.3032 8.65039C14.1381 8.26653 14.1229 7.7965 14.3472 7.38477L14.5552 7.00293C14.5969 6.92607 14.5785 6.86209 14.5552 6.83301C14.2917 6.50623 13.9933 6.2078 13.6665 5.94434C13.6373 5.9211 13.5733 5.90267 13.4966 5.94434L13.1147 6.15234C12.7029 6.37668 12.233 6.36159 11.8491 6.19629C11.811 6.17987 11.7725 6.16386 11.7339 6.14844C11.3461 5.99363 11.0031 5.67214 10.8706 5.22266L10.7476 4.80566C10.7227 4.72129 10.6643 4.6885 10.6274 4.68457ZM9.2915 7.3252C11.6272 6.82843 13.6652 8.86594 13.1685 11.2021C12.906 12.436 11.9365 13.4054 10.7026 13.668C8.36624 14.1649 6.32869 12.1269 6.82568 9.79102C6.95119 9.2015 7.2974 8.64946 7.72314 8.22363C8.14903 7.79772 8.70181 7.4507 9.2915 7.3252ZM12.0269 10.96C12.3481 9.44982 11.0434 8.14546 9.53369 8.4668C9.21422 8.53485 8.85488 8.74227 8.54834 9.04883C8.24183 9.35542 8.03429 9.71471 7.96631 10.0342C7.64528 11.5437 8.94956 12.8483 10.4595 12.5273C11.2428 12.3608 11.8601 11.7433 12.0269 10.96Z" fill="white"/>
</svg>
