<svg width="29" height="29" viewBox="0 0 29 29" fill="none" xmlns="http://www.w3.org/2000/svg">
	<path d="M4.67188 5.83911C4.94523 5.56581 5.38778 5.56581 5.66113 5.83911L21.9951 22.1721C22.2684 22.4455 22.2684 22.889 21.9951 23.1624C21.7218 23.4357 21.2783 23.4356 21.0049 23.1624L18.7109 20.8674C18.2955 21.2495 17.7407 21.4835 17.1318 21.4836H7.44629C6.15782 21.4834 5.11328 20.4382 5.11328 19.1497V9.85083C5.1133 9.14373 5.428 8.51016 5.9248 8.08228L4.67188 6.82837C4.39855 6.555 4.39852 6.11246 4.67188 5.83911ZM6.92188 9.07935C6.6754 9.24733 6.51369 9.53006 6.51367 9.85083V19.1497C6.51367 19.665 6.93102 20.083 7.44629 20.0833H17.1318C17.3541 20.0831 17.5585 20.005 17.7188 19.8752L6.92188 9.07935ZM17.1318 7.51782C18.4203 7.51807 19.4648 8.56235 19.4648 9.85083V11.5256L22.0273 9.72485C23.3414 8.80156 25.151 9.74103 25.1514 11.3469V17.6487C25.1514 19.2572 23.3371 20.1969 22.0234 19.2688L19.4648 17.4602L18.583 16.8342L18.0645 16.4924V9.85083C18.0644 9.33555 17.6471 8.91748 17.1318 8.91724H10.4902L9.08984 7.51782H17.1318ZM23.751 11.3469C23.7507 10.8748 23.2184 10.5989 22.832 10.8704L19.4727 13.2307V15.7522L22.8311 18.1252C23.2174 18.3983 23.751 18.1218 23.751 17.6487V11.3469Z" fill="white"/>
</svg>
