<svg width="29" height="29" viewBox="0 0 29 29" fill="none" xmlns="http://www.w3.org/2000/svg">
	<path d="M7.00488 7.00488C7.2782 6.73188 7.72085 6.73184 7.99414 7.00488L21.9941 21.0049C22.2675 21.2782 22.2675 21.7218 21.9941 21.9951C21.7208 22.2682 21.2782 22.2682 21.0049 21.9951L19.2432 20.2334C18.1678 21.0826 16.811 21.678 15.1943 21.8135V23.793H17.2695C17.6561 23.793 17.9697 24.1066 17.9697 24.4932C17.9696 24.8797 17.6561 25.1934 17.2695 25.1934H11.7197C11.3333 25.1933 11.0196 24.8796 11.0195 24.4932C11.0195 24.1066 11.3332 23.793 11.7197 23.793H13.7949V21.8154C9.12681 21.4361 6.73209 17.2465 6.7998 14.1406C6.80823 13.7542 7.12831 13.4478 7.51465 13.4561C7.90108 13.4645 8.20752 13.7845 8.19922 14.1709C8.14125 16.83 10.3246 20.4422 14.4863 20.4424C15.9957 20.4424 17.2549 19.9643 18.2412 19.2314L16.4541 17.4443C15.8766 17.7779 15.2061 17.9688 14.4912 17.9688C12.321 17.9688 10.5615 16.2092 10.5615 14.0391V11.5527L7.00488 7.99512C6.73152 7.72175 6.73152 7.27825 7.00488 7.00488ZM21.4609 13.459C21.8469 13.4403 22.1754 13.7381 22.1943 14.124C22.2581 15.4314 21.8497 16.9362 21.0068 18.2676L19.9893 17.25C20.5652 16.2429 20.8423 15.1453 20.7959 14.1924C20.7771 13.8063 21.0748 13.4778 21.4609 13.459ZM11.9619 14.0391C11.9619 15.436 13.0942 16.5693 14.4912 16.5693C14.8143 16.5693 15.1232 16.5079 15.4072 16.3975L11.9619 12.9521V14.0391ZM14.4912 3.80469C16.6613 3.80469 18.4208 5.56432 18.4209 7.73438V14.0391C18.4209 14.5281 18.3312 14.9968 18.168 15.4287L17.0098 14.2705C17.0167 14.1944 17.0205 14.117 17.0205 14.0391V7.73438C17.0204 6.33751 15.8881 5.20508 14.4912 5.20508C13.0943 5.20508 11.962 6.33751 11.9619 7.73438V9.22266L10.5615 7.82227V7.73438C10.5617 5.56432 12.3211 3.80469 14.4912 3.80469Z" fill="white"/>
</svg>
