<svg width="20" height="20" viewBox="0 0 20 20" fill="none" xmlns="http://www.w3.org/2000/svg">
	<path fill-rule="evenodd" clip-rule="evenodd" d="M7.18736 5.16759C7.18736 3.61746 8.44398 2.36084 9.9941 2.36084C11.5442 2.36084 12.8008 3.61746 12.8008 5.16759V9.67103C12.8008 11.2212 11.5442 12.4778 9.9941 12.4778C8.44398 12.4778 7.18736 11.2212 7.18736 9.67103V5.16759ZM11.6342 5.16759V9.67103C11.6342 10.5768 10.8999 11.3111 9.9941 11.3111C9.08831 11.3111 8.35402 10.5768 8.35402 9.67103V5.16759C8.35402 4.2618 9.08831 3.52751 9.9941 3.52751C10.8999 3.52751 11.6342 4.2618 11.6342 5.16759Z" fill="white"/>
	<path d="M5.58342 9.76691C5.59044 9.44482 5.33503 9.17802 5.01294 9.171C4.69085 9.16398 4.42405 9.41939 4.41703 9.74148C4.36829 11.977 6.07671 14.9875 9.41319 15.3014V16.5545H8.01456C7.6924 16.5545 7.43123 16.8157 7.43123 17.1379C7.43123 17.46 7.6924 17.7212 8.01456 17.7212L11.9788 17.7212C12.301 17.7212 12.5621 17.46 12.5621 17.1379C12.5621 16.8157 12.301 16.5545 11.9788 16.5545H10.5799L10.5799 15.3001C13.9064 14.9785 15.6881 11.9602 15.5792 9.72756C15.5636 9.40578 15.29 9.15764 14.9682 9.17332C14.6464 9.189 14.3983 9.46258 14.414 9.78436C14.5022 11.5949 12.9186 14.1615 9.99083 14.1615C7.07525 14.1615 5.54279 11.6308 5.58342 9.76691Z" fill="white"/>
</svg>
