<svg width="20" height="20" viewBox="0 0 20 20" fill="none" xmlns="http://www.w3.org/2000/svg">
	<path fill-rule="evenodd" clip-rule="evenodd" d="M4.20088 2.94233L16.2399 14.9809C16.4677 15.2087 16.4677 15.5781 16.2399 15.8059C16.0121 16.0337 15.6427 16.0337 15.4149 15.8059L13.8065 14.1976H5.20081C4.18829 14.1976 3.36748 13.3767 3.36748 12.3642V5.96774C3.36748 5.36569 3.65768 4.83141 4.10584 4.49718L3.37594 3.7673C3.14813 3.5395 3.14812 3.17016 3.37593 2.94235C3.60373 2.71454 3.97307 2.71453 4.20088 2.94233ZM4.95611 5.34742L12.6398 13.0309H5.20081C4.83262 13.0309 4.53414 12.7324 4.53414 12.3642V5.96774C4.53414 5.68594 4.70899 5.44498 4.95611 5.34742Z" fill="white"/>
	<path d="M16.6305 12.3642C16.6305 12.7668 16.5007 13.1391 16.2808 13.4415L15.4258 12.5866C15.4504 12.517 15.4638 12.4422 15.4638 12.3642V10.3646C15.4638 10.0425 15.725 9.78129 16.0472 9.78129C16.3693 9.78129 16.6305 10.0425 16.6305 10.3646V12.3642Z" fill="white"/>
	<path d="M8.14033 5.30108L6.97367 4.13441H9.99899C10.3212 4.13441 10.5823 4.39558 10.5823 4.71774C10.5823 5.03991 10.3212 5.30108 9.99899 5.30108H8.14033Z" fill="white"/>
	<path d="M12.2451 8.47749C12.0173 8.24965 12.0173 7.8803 12.2452 7.65253L14.5974 5.30108H13.0231C12.7009 5.30108 12.4397 5.03991 12.4397 4.71774C12.4397 4.39558 12.7009 4.13441 13.0231 4.13441H15.1305C15.9589 4.13441 16.6305 4.80598 16.6305 5.63441V7.48702C16.6305 7.80919 16.3693 8.07036 16.0472 8.07036C15.725 8.07036 15.4638 7.80919 15.4638 7.48702V6.08457L13.07 8.47762C12.8422 8.70539 12.4728 8.70533 12.2451 8.47749Z" fill="white"/>
	<path d="M6.08232 15.8327C6.08232 15.5105 6.34349 15.2493 6.66565 15.2493H13.3323C13.6545 15.2493 13.9157 15.5105 13.9157 15.8327C13.9157 16.1548 13.6545 16.416 13.3323 16.416H6.66565C6.34349 16.416 6.08232 16.1548 6.08232 15.8327Z" fill="white"/>
</svg>
