<svg width="20" height="20" viewBox="0 0 20 20" fill="none" xmlns="http://www.w3.org/2000/svg">
	<path fill-rule="evenodd" clip-rule="evenodd" d="M9.99457 12.4778C10.4742 12.4778 10.9258 12.3575 11.3207 12.1453L12.5447 13.3693C11.8653 13.8507 11.0094 14.1613 9.99083 14.1613C7.07525 14.1613 5.54279 11.6307 5.58342 9.76679C5.59044 9.4447 5.33503 9.1779 5.01294 9.17088C4.69085 9.16385 4.42405 9.41927 4.41703 9.74136C4.36829 11.977 6.07684 14.9876 9.41357 15.3013V16.5547H8.01449C7.69232 16.5547 7.43115 16.8159 7.43115 17.138C7.43115 17.4602 7.69232 17.7214 8.01449 17.7214H11.9787C12.3009 17.7214 12.5621 17.4602 12.5621 17.138C12.5621 16.8159 12.3009 16.5547 11.9787 16.5547H10.5802V15.2999C11.6904 15.1925 12.6284 14.7848 13.3816 14.2062L14.5877 15.4123C14.8155 15.6401 15.1848 15.6401 15.4126 15.4123C15.6404 15.1845 15.6404 14.8152 15.4126 14.5874L5.41264 4.58736C5.18484 4.35955 4.81549 4.35955 4.58768 4.58736C4.35988 4.81516 4.35988 5.18451 4.58768 5.41232L7.18783 8.01246V9.67103C7.18783 11.2212 8.44445 12.4778 9.99457 12.4778ZM8.35449 9.67103V9.17912L10.4285 11.2531C10.2903 11.2909 10.1448 11.3111 9.99457 11.3111C9.08878 11.3111 8.35449 10.5768 8.35449 9.67103Z" fill="white"/>
	<path d="M11.6347 9.39254V5.16759C11.6347 4.2618 10.9004 3.52751 9.99457 3.52751C9.08878 3.52751 8.35449 4.2618 8.35449 5.16759V6.11238L7.19585 4.95374C7.30511 3.50352 8.5164 2.36084 9.99457 2.36084C11.5447 2.36084 12.8013 3.61746 12.8013 5.16759V9.67103C12.8013 9.94123 12.7631 10.2025 12.6919 10.4498L11.6347 9.39254Z" fill="white"/>
	<path d="M15.5792 9.72744C15.623 10.6249 15.3613 11.6493 14.8166 12.5744L13.96 11.7179C14.288 11.0712 14.4433 10.3859 14.414 9.78424C14.3983 9.46245 14.6464 9.18888 14.9682 9.1732C15.29 9.15751 15.5636 9.40566 15.5792 9.72744Z" fill="white"/>
</svg>
