<svg width="20" height="20" viewBox="0 0 20 20" fill="none" xmlns="http://www.w3.org/2000/svg">
	<path d="M5.20247 5.30192C4.83428 5.30192 4.53581 5.6004 4.53581 5.96859V12.3651C4.53581 12.7333 4.83428 13.0317 5.20247 13.0317H14.7988C15.167 13.0317 15.4655 12.7333 15.4655 12.3651V10.3655C15.4655 10.0433 15.7267 9.78214 16.0488 9.78214C16.371 9.78214 16.6322 10.0433 16.6322 10.3655V12.3651C16.6322 13.3776 15.8113 14.1984 14.7988 14.1984H5.20247C4.18995 14.1984 3.36914 13.3776 3.36914 12.3651V5.96859C3.36914 4.95607 4.18995 4.13525 5.20247 4.13525H10.0007C10.3228 4.13525 10.584 4.39642 10.584 4.71859C10.584 5.04075 10.3228 5.30192 10.0007 5.30192H5.20247Z" fill="white"/>
	<path d="M10.9459 8.95471C10.7181 9.18251 10.7181 9.55186 10.9459 9.77967C11.1737 10.0075 11.5431 10.0075 11.7709 9.77967L15.4655 6.08506V7.48787C15.4655 7.81003 15.7267 8.0712 16.0488 8.0712C16.371 8.0712 16.6322 7.81003 16.6322 7.48787V5.63525C16.6322 4.80683 15.9606 4.13525 15.1322 4.13525H13.0247C12.7026 4.13525 12.4414 4.39642 12.4414 4.71859C12.4414 5.04075 12.7026 5.30192 13.0247 5.30192H14.5987L10.9459 8.95471Z" fill="white"/>
	<path d="M6.66732 15.2502C6.34515 15.2502 6.08398 15.5113 6.08398 15.8335C6.08398 16.1557 6.34515 16.4168 6.66732 16.4168H13.334C13.6561 16.4168 13.9173 16.1557 13.9173 15.8335C13.9173 15.5113 13.6561 15.2502 13.334 15.2502H6.66732Z" fill="white"/>
</svg>
