<svg width="32" height="32" viewBox="0 0 32 32" fill="none" xmlns="http://www.w3.org/2000/svg">
	<g clip-path="url(#clip0_3634_88502)">
		<rect width="32" height="32" fill="#1BCE7B"/>
		<path fill-rule="evenodd" clip-rule="evenodd" d="M13.002 16.8569C13.7181 16.4628 14.5705 16.3464 15.3194 16.3464C16.0683 16.3464 16.9207 16.4628 17.6368 16.8569C18.3848 17.2684 18.9526 17.969 19.0912 19.0279C19.178 19.6908 18.6268 20.1612 18.0702 20.1612H12.5686C12.012 20.1612 11.4608 19.6908 11.5476 19.0279C11.6862 17.969 12.254 17.2684 13.002 16.8569ZM12.8152 18.9319H17.8235C17.6972 18.4405 17.4125 18.1365 17.0442 17.9338C16.5839 17.6806 15.9667 17.5757 15.3194 17.5757C14.672 17.5757 14.0549 17.6806 13.5946 17.9338C13.2263 18.1365 12.9415 18.4405 12.8152 18.9319Z" fill="white"/>
		<path fill-rule="evenodd" clip-rule="evenodd" d="M15.3115 16.0346C13.3991 16.0346 12.9497 13.1925 14.3038 12.1883C14.5286 12.0215 14.9608 11.8644 15.3115 11.8644C17.8057 11.8644 17.6075 16.0346 15.3115 16.0346ZM14.7838 14.2263C14.6725 13.7155 14.8547 13.3173 15.0288 13.1811C15.0325 13.179 15.0392 13.1753 15.0493 13.1703C15.0746 13.1579 15.1092 13.1433 15.1499 13.1297C15.1904 13.1162 15.2292 13.1063 15.2621 13.1002C15.2931 13.0944 15.3096 13.0937 15.3114 13.0937C15.3116 13.0937 15.3115 13.0937 15.3114 13.0937C15.548 13.0937 15.6417 13.1724 15.7069 13.2585C15.8013 13.3829 15.8862 13.615 15.8789 13.9203C15.8717 14.2244 15.7751 14.4803 15.6586 14.6307C15.5644 14.7526 15.4666 14.8053 15.3115 14.8053C15.1646 14.8053 15.0825 14.7604 15.0142 14.6939C14.9284 14.6103 14.8337 14.4552 14.7838 14.2263Z" fill="white"/>
		<path fill-rule="evenodd" clip-rule="evenodd" d="M9.59033 11.3463C9.59033 10.037 10.6517 8.97559 11.9611 8.97559H18.6342C19.9436 8.97559 21.005 10.037 21.005 11.3463V20.6536C21.005 21.0669 20.8992 21.4554 20.7134 21.7937C21.316 21.7625 21.795 21.2641 21.795 20.6537V13.1025L21.7949 13.0884V11.0241C22.5277 11.4274 23.0243 12.2069 23.0243 13.1025V20.6537C23.0243 21.9631 21.9629 23.0245 20.6535 23.0245H13.9804L13.9576 23.0244H11.9611C10.6517 23.0244 9.59033 21.963 9.59033 20.6536V11.3463ZM11.9611 10.2049H18.6342C19.2646 10.2049 19.7757 10.7159 19.7757 11.3463V20.6536C19.7757 21.284 19.2646 21.7951 18.6342 21.7951H11.9611C11.3307 21.7951 10.8196 21.284 10.8196 20.6536V11.3463C10.8196 10.7159 11.3307 10.2049 11.9611 10.2049Z" fill="white"/>
	</g>
	<defs>
		<clipPath id="clip0_3634_88502">
			<path d="M0 16C0 7.16344 7.16344 0 16 0C24.8366 0 32 7.16344 32 16C32 24.8366 24.8366 32 16 32C7.16344 32 0 24.8366 0 16Z" fill="white"/>
		</clipPath>
	</defs>
</svg>