<svg width="32" height="32" viewBox="0 0 32 32" fill="none" xmlns="http://www.w3.org/2000/svg">
<g clip-path="url(#clip0_3634_88569)">
<rect width="32" height="32" fill="#58B1FF"/>
<path fill-rule="evenodd" clip-rule="evenodd" d="M18.0207 11.6385C17.3305 11.4756 16.6055 11.5505 15.9632 11.8511C15.3208 12.1516 14.7988 12.6603 14.4817 13.2946C14.1645 13.9288 14.0708 14.6517 14.2158 15.3458C14.3607 16.04 14.7358 16.665 15.2803 17.1194C15.8247 17.5738 16.5067 17.831 17.2156 17.8494C17.6643 17.8611 18.1072 17.7766 18.5157 17.6052C18.8064 17.4832 18.9431 17.1487 18.8211 16.8581C18.6991 16.5674 18.3646 16.4307 18.074 16.5527C17.8136 16.662 17.5313 16.7158 17.2453 16.7084C16.7934 16.6966 16.3587 16.5326 16.0117 16.243C15.6646 15.9534 15.4255 15.555 15.3331 15.1125C15.2408 14.6701 15.3005 14.2093 15.5026 13.805C15.7048 13.4007 16.0375 13.0765 16.447 12.8849C16.8564 12.6933 17.3185 12.6456 17.7584 12.7495C18.1414 12.8399 18.5144 13.0361 18.788 13.3437C19.0545 13.6433 19.253 14.0771 19.253 14.7025C19.253 14.822 19.1399 14.9649 18.9622 14.9649C18.8354 14.9649 18.7612 14.9241 18.7174 14.8901C18.727 14.823 18.732 14.7543 18.732 14.6845C18.732 13.8921 18.0906 13.2478 17.2971 13.2478C16.5035 13.2478 15.8621 13.8921 15.8621 14.6845C15.8621 15.4769 16.5035 16.1211 17.2971 16.1211C17.6025 16.1211 17.8854 16.0257 18.1179 15.8631C18.3246 15.9973 18.6055 16.1064 18.9622 16.1064C19.7805 16.1064 20.3944 15.4421 20.3944 14.7025C20.3944 13.8124 20.103 13.1046 19.6409 12.5851C19.186 12.0737 18.592 11.7734 18.0207 11.6385ZM17.0036 14.6845C17.0036 14.5204 17.136 14.3893 17.2971 14.3893C17.4581 14.3893 17.5905 14.5204 17.5905 14.6845C17.5905 14.8486 17.4581 14.9797 17.2971 14.9797C17.136 14.9797 17.0036 14.8486 17.0036 14.6845Z" fill="white"/>
<path fill-rule="evenodd" clip-rule="evenodd" d="M11.201 12.6812C11.3664 12.6264 11.5656 12.5833 11.7671 12.5833C12.3803 12.5833 12.8688 12.8476 13.1854 13.2622C13.4875 13.6579 13.6071 14.153 13.5961 14.6119C13.5851 15.0713 13.4422 15.5544 13.1439 15.9371C12.8345 16.3339 12.3627 16.6111 11.767 16.6111C10.742 16.6111 10.1612 15.8351 9.99777 15.0904C9.83925 14.3682 10.0121 13.4423 10.7213 12.9203C10.8636 12.8155 11.0376 12.7354 11.201 12.6812ZM11.4529 13.9083L11.45 13.9102C11.2437 14.0622 11.1107 14.4269 11.1985 14.8268C11.2813 15.2042 11.4991 15.3818 11.767 15.3818C11.9476 15.3818 12.0747 15.3091 12.1744 15.1813C12.2852 15.0392 12.3614 14.8227 12.3672 14.5825C12.373 14.3417 12.3069 14.1372 12.2083 14.0082C12.1243 13.8981 11.9971 13.8126 11.7671 13.8126C11.7313 13.8126 11.6658 13.8222 11.5878 13.848C11.5515 13.8601 11.5189 13.8735 11.4925 13.8864C11.4796 13.8928 11.4692 13.8984 11.4615 13.9029C11.4577 13.9052 11.4549 13.907 11.4529 13.9083Z" fill="white"/>
<path fill-rule="evenodd" clip-rule="evenodd" d="M7.91895 12.1647C7.91895 10.8554 8.98036 9.79395 10.2897 9.79395H19.7407C21.05 9.79395 22.1114 10.8554 22.1114 12.1647V18.2296C22.1114 19.5389 21.05 20.6003 19.7407 20.6003H10.2897C8.98036 20.6003 7.91895 19.5389 7.91895 18.2296V12.1647ZM10.2897 11.0232C9.65926 11.0232 9.14821 11.5343 9.14821 12.1647V17.5754C9.90353 16.9598 10.9419 16.8063 11.7699 16.8063C12.4695 16.8063 13.2684 16.9136 13.9436 17.2786C14.6496 17.6602 15.1932 18.3125 15.3346 19.3009C15.338 19.3245 15.3405 19.3479 15.3423 19.371H19.7407C20.3711 19.371 20.8822 18.86 20.8822 18.2296V12.1647C20.8822 11.5343 20.3711 11.0232 19.7407 11.0232H10.2897ZM9.6226 18.8775C9.97292 18.2904 10.7805 18.0356 11.7699 18.0356C12.369 18.0356 12.9366 18.1316 13.359 18.36C13.6863 18.5369 13.9392 18.7972 14.0613 19.2118H10.1008C9.90513 19.2118 9.73296 19.1218 9.64875 19.0251C9.61027 18.9809 9.60282 18.9507 9.60152 18.9411C9.60089 18.937 9.5981 18.9186 9.6226 18.8775Z" fill="white"/>
<path d="M12.9884 22.323C12.1579 22.323 11.4271 21.896 11.0037 21.2495H21.1946C22.1644 21.2495 22.9507 20.4633 22.9507 19.4934V12.5198C23.58 12.9461 23.9935 13.6668 23.9935 14.484V19.6889C23.9935 21.1437 22.8142 22.323 21.3594 22.323H12.9884Z" fill="white"/>
</g>
<defs>
<clipPath id="clip0_3634_88569">
<path d="M0 16C0 7.16344 7.16344 0 16 0C24.8366 0 32 7.16344 32 16C32 24.8366 24.8366 32 16 32C7.16344 32 0 24.8366 0 16Z" fill="white"/>
</clipPath>
</defs>
</svg>
