<svg xmlns="http://www.w3.org/2000/svg" width="9" height="9" viewBox="0 0 9 9" fill="none">
	<path d="M3.8931 4.86926H6.32721V3.89576H4.86668V2.19156H3.8931V4.86926Z" fill="white"/>
	<path fill-rule="evenodd" clip-rule="evenodd"
		  d="M4.38158 0C1.96171 0 0 1.96121 0 4.38057C0 6.79993 1.96171 8.76126 4.38158 8.76126C6.80145 8.76126 8.76315 6.79993 8.76315 4.38057C8.76315 1.96121 6.80145 0 4.38158 0ZM4.38158 7.78775C2.49945 7.78775 0.973734 6.26226 0.973734 4.38057C0.973734 2.49887 2.49945 0.973506 4.38158 0.973506C6.26385 0.973506 7.78957 2.49887 7.78957 4.38057C7.78957 6.26226 6.26385 7.78775 4.38158 7.78775Z"
		  fill="white"/>
</svg>
