<svg width="13" height="11" viewBox="0 0 13 11" fill="none" xmlns="http://www.w3.org/2000/svg">
<path fill-rule="evenodd" clip-rule="evenodd" d="M7.01232 8.60876C6.89718 8.72138 6.71365 8.72299 6.59656 8.6124L5.65308 7.72131C5.48775 7.56516 5.48569 7.30277 5.64855 7.14404L6.10491 6.69929C6.25425 6.55374 6.49035 6.54735 6.64735 6.6846L6.80618 6.82345L11.6566 2.076C11.8118 1.92405 12.06 1.92378 12.2156 2.07541L12.6617 2.51025C12.8226 2.66706 12.8229 2.92558 12.6623 3.08267L7.01232 8.60876Z" fill="white"/>
<path fill-rule="evenodd" clip-rule="evenodd" d="M3.12189 8.60558C3.00545 8.71947 2.81939 8.71964 2.70274 8.60595L0.293931 6.25837C0.132836 6.10137 0.132836 5.84245 0.293931 5.68545L0.740196 5.25053C0.895532 5.09914 1.14322 5.09914 1.29855 5.25053L2.9125 6.82345L7.76291 2.076C7.91816 1.92405 8.1663 1.92378 8.32188 2.0754L8.76807 2.51025C8.92896 2.66705 8.9292 2.92558 8.76858 3.08267L3.12189 8.60558Z" fill="white"/>
</svg>
