<svg width="24" height="24" viewBox="0 0 24 24" fill="none" xmlns="http://www.w3.org/2000/svg">
<path fill-rule="evenodd" clip-rule="evenodd" d="M20.1459 12.1651C19.4912 13.1008 16.1373 17.5935 12.0983 17.5935C8.05931 17.5935 4.70542 13.1008 4.05066 12.1651C3.9779 12.0611 3.9779 11.9301 4.05066 11.8261C4.70542 10.8903 8.05931 6.39764 12.0983 6.39764C16.1373 6.39764 19.4912 10.8903 20.1459 11.8261C20.2187 11.9301 20.2187 12.0611 20.1459 12.1651ZM14.9537 11.9956C14.9537 13.5726 13.6752 14.8511 12.0982 14.8511C10.5211 14.8511 9.24263 13.5726 9.24263 11.9956C9.24263 10.4185 10.5211 9.14003 12.0982 9.14003C13.6752 9.14003 14.9537 10.4185 14.9537 11.9956Z" fill="#959CA4"/>
</svg>
