<svg width="28" height="24" viewBox="0 0 28 24" fill="none" xmlns="http://www.w3.org/2000/svg">
<path d="M0 6C0 2.68629 2.68629 0 6 0H18C21.3137 0 24 2.68629 24 6V18C24 21.3137 21.3137 24 18 24H6C2.68629 24 0 21.3137 0 18V6Z" fill="#FAFBFC" fill-opacity="0.92"/>
<rect width="24" height="24" rx="6" fill="#A9B0FF"/>
<rect width="24" height="24" rx="6" fill="white" fill-opacity="0.4"/>
<path opacity="0.5" d="M0 6H24C24 2.68629 21.3137 0 18 0H6C2.68629 0 0 2.68629 0 6Z" fill="white"/>
<path opacity="0.4" d="M3 9.5C3 8.67157 3.67157 8 4.5 8H15.5C16.3284 8 17 8.67157 17 9.5C17 10.3284 16.3284 11 15.5 11H4.5C3.67157 11 3 10.3284 3 9.5Z" fill="#5772FC"/>
<path opacity="0.4" d="M3 14C3 13.4477 3.44772 13 4 13H8C8.55228 13 9 13.4477 9 14C9 14.5523 8.55228 15 8 15H4C3.44772 15 3 14.5523 3 14Z" fill="#5772FC"/>
<path opacity="0.4" d="M10 14C10 13.4477 10.4477 13 11 13H14C14.5523 13 15 13.4477 15 14C15 14.5523 14.5523 15 14 15H11C10.4477 15 10 14.5523 10 14Z" fill="#5772FC"/>
<path d="M3 19.5C3 18.6716 3.67157 18 4.5 18H13.5C14.3284 18 15 18.6716 15 19.5C15 20.3284 14.3284 21 13.5 21H4.5C3.67157 21 3 20.3284 3 19.5Z" fill="#5772FC"/>
<rect x="18" y="8" width="10" height="10" rx="5" fill="#1BCE7B"/>
<path fill-rule="evenodd" clip-rule="evenodd" d="M25.9877 11.1025C26.1233 11.2387 26.1229 11.4591 25.9867 11.5947L22.6786 14.8889C22.5428 15.0241 22.3232 15.0241 22.1873 14.8889L20.6855 13.3933C20.5493 13.2577 20.5488 13.0373 20.6844 12.901C20.8201 12.7648 21.0405 12.7644 21.1767 12.9L22.433 14.151L25.4954 11.1014C25.6316 10.9658 25.852 10.9662 25.9877 11.1025Z" fill="white" stroke="white" stroke-width="0.5" stroke-linecap="round" stroke-linejoin="round"/>
</svg>
