<svg width="108" height="108" viewBox="0 0 108 108" fill="none" xmlns="http://www.w3.org/2000/svg">
	<path d="M65.1419 40.8903V34.4504C65.1419 18.9196 54.4115 5.39115 40.542 4.23395C25.8645 3.00946 13.2762 15.962 13.2762 33.1747V40.3144C7.47372 40.6212 2.76904 45.799 2.76904 52.2497V92.8729C2.76904 99.5685 7.81926 104.45 13.9194 103.786L64.6183 98.274C69.5011 97.7439 73.3844 92.6011 73.3844 86.7801V51.4612C73.3844 45.8501 69.7695 41.2698 65.1419 40.8903ZM40.542 14.2908C49.7866 14.8775 57.0616 23.8229 57.0616 34.2512V40.7369L22.8636 40.3521V33.4116C22.8636 22.2486 30.9466 13.6826 40.5447 14.2908H40.542ZM44.4174 72.6299V80.5123C44.4174 82.9613 42.6897 85.0819 40.5447 85.2488C38.3997 85.4156 36.6108 83.5372 36.6108 81.0506V73.0444C34.2399 71.6019 32.6132 68.7869 32.6132 65.4337C32.6132 60.4174 36.1935 56.2811 40.5447 56.195C44.8959 56.1089 48.2343 59.9841 48.2343 64.8444C48.2343 68.0953 46.698 70.9775 44.4201 72.6272L44.4174 72.6299Z" fill="#0075FF" fill-opacity="0.78"/>
	<path fill-rule="evenodd" clip-rule="evenodd" d="M63.7573 42.166V34.4504C63.7573 19.4726 53.4236 6.69814 40.4269 5.61377C26.7319 4.47125 14.6608 16.5853 14.6608 33.1747V41.6277L13.3493 41.6971C8.36285 41.9607 4.15366 46.4516 4.15366 52.2497V92.8729C4.15366 98.8615 8.60061 102.972 13.7694 102.409L64.4687 96.8975C68.4577 96.4644 71.9998 92.1046 71.9998 86.7801V51.4612C71.9998 46.3604 68.7457 42.5751 65.0288 42.2703L63.7573 42.166ZM40.542 14.2907C40.5274 14.2897 40.5128 14.2888 40.4982 14.288C30.9206 13.7103 22.8636 22.2666 22.8636 33.4116V40.3521L57.0616 40.7369V34.2512C57.0616 23.8404 49.8109 14.9074 40.5884 14.2938C40.5739 14.2929 40.5593 14.2919 40.5447 14.291C40.5438 14.2909 40.5429 14.2907 40.542 14.2907ZM40.6323 12.9092C50.7632 13.5536 58.4462 23.2633 58.4462 34.2512V42.1372L21.479 41.7212V33.4116C21.479 21.6374 30.0606 12.2393 40.6323 12.9092ZM65.1419 40.8903V34.4504C65.1419 18.9196 54.4115 5.39115 40.542 4.23395C25.8645 3.00946 13.2762 15.962 13.2762 33.1747V40.3144C7.47372 40.6212 2.76904 45.799 2.76904 52.2497V92.8729C2.76904 99.5685 7.81926 104.45 13.9194 103.786L64.6183 98.274C69.5011 97.7439 73.3844 92.6011 73.3844 86.7801V51.4612C73.3844 45.8501 69.7695 41.2698 65.1419 40.8903ZM45.802 73.3029V80.5123C45.802 83.524 43.6675 86.3947 40.6521 86.6292C37.5221 86.8727 35.2262 84.1514 35.2262 81.0506V73.7804C32.7889 71.9793 31.2286 68.9249 31.2286 65.4337C31.2286 59.8364 35.2503 54.9149 40.5173 54.8106C45.83 54.7055 49.6189 59.4089 49.6189 64.8444C49.6189 68.2538 48.1278 71.3415 45.802 73.3029ZM44.4201 72.6272C46.698 70.9775 48.2343 68.0953 48.2343 64.8444C48.2343 59.9841 44.8959 56.1089 40.5447 56.195C36.1935 56.2811 32.6132 60.4174 32.6132 65.4337C32.6132 68.7869 34.2399 71.6019 36.6108 73.0444V81.0506C36.6108 83.5372 38.3997 85.4156 40.5447 85.2488C42.6897 85.0819 44.4174 82.9613 44.4174 80.5123V72.6299L44.4201 72.6272Z" fill="white" fill-opacity="0.18"/>
	<path d="M105.231 89.9863C105.231 95.6011 101.03 100.328 95.4538 100.987L71.9154 103.768C65.3284 104.547 59.5386 99.4006 59.5386 92.7678V67.1158C59.5386 61.0795 64.3716 56.1546 70.4068 56.0408L93.9452 55.5972C100.143 55.4804 105.231 60.4729 105.231 66.6722V89.9863Z" fill="#1BCE7B" fill-opacity="0.78"/>
	<path fill-rule="evenodd" clip-rule="evenodd" d="M71.7529 102.393L95.2914 99.6116C100.17 99.0351 103.846 94.8992 103.846 89.9863V66.6722C103.846 61.2478 99.3947 56.8794 93.9713 56.9816L70.4329 57.4252C65.1521 57.5247 60.9232 61.8341 60.9232 67.1158V92.7678C60.9232 98.5715 65.9893 103.074 71.7529 102.393ZM95.4538 100.987C101.03 100.328 105.231 95.6011 105.231 89.9863V66.6722C105.231 60.4729 100.143 55.4804 93.9452 55.5972L70.4068 56.0408C64.3716 56.1546 59.5386 61.0795 59.5386 67.1158V92.7678C59.5386 99.4006 65.3284 104.547 71.9154 103.768L95.4538 100.987Z" fill="white" fill-opacity="0.18"/>
	<path fill-rule="evenodd" clip-rule="evenodd" d="M77.8174 86.5157C79.3631 87.8532 81.1748 88.4719 83.111 88.1006C83.4462 89.0748 84.0252 90.6651 84.8285 92.5765C88.4518 89.7093 88.967 86.1523 88.8977 84.0566C89.2495 83.6221 89.6013 83.1482 89.9531 82.6374C94.2052 76.4371 94.7897 64.9973 93.6346 63.9099C92.4767 62.8172 82.69 65.8845 78.2246 72.1402C77.8534 72.6615 77.5155 73.1776 77.2136 73.6831C75.3105 74.0938 72.2413 75.5155 70.6152 80.2889C72.5543 80.726 74.1332 80.9866 75.0917 81.1262C75.2607 83.3483 76.2662 85.1729 77.8202 86.5183L77.8174 86.5157ZM80.4933 82.6901C81.834 83.867 83.8202 83.5142 84.931 81.9134C86.0363 80.3205 85.8645 78.08 84.5459 76.8978C83.2191 75.7077 81.2302 76.029 80.1 77.6297C78.967 79.2358 79.1443 81.5079 80.4933 82.6927V82.6901ZM88.2246 74.6098C87.6374 75.4524 86.5903 75.6235 85.8839 74.9863C85.1775 74.3466 85.0833 73.1407 85.6789 72.2956C86.2717 71.453 87.3188 71.2924 88.0196 71.9322C88.7177 72.572 88.8091 73.7673 88.2246 74.6098ZM79.5155 89.238C78.5404 88.9985 77.618 88.5114 76.7759 87.8216C75.931 87.1291 75.2496 86.2971 74.7731 85.3414C73.3825 89.2486 72.7814 92.3738 73.208 92.7187C73.6346 93.061 76.3299 91.6418 79.5155 89.238Z" fill="white" fill-opacity="0.9"/>
</svg>