<svg width="28" height="24" viewBox="0 0 28 24" fill="none" xmlns="http://www.w3.org/2000/svg">
	<path d="M13.6665 4.49976C17.6665 4.4998 20.9165 7.75857 20.9165 11.7585C20.9165 12.9668 20.6077 14.1588 20.0327 15.2087V15.2166C20.0327 15.3666 20.2914 16.1919 20.4331 16.6335C20.7747 17.7085 20.958 18.2922 20.5747 18.6755C20.151 19.1072 19.4453 18.8603 18.4751 18.5203L18.4663 18.5164C18.4457 18.5093 18.4241 18.5024 18.4019 18.4949C17.975 18.3494 17.2727 18.1097 17.0747 18.1414C16.0747 18.6913 14.8831 18.9997 13.6665 18.9998C9.6665 18.9998 6.4165 15.7498 6.4165 11.7498C6.41668 7.7499 9.66661 4.49976 13.6665 4.49976ZM13.6665 5.66675C10.3083 5.66675 7.58367 8.39157 7.5835 11.7498C7.5835 15.1081 10.3082 17.8337 13.6665 17.8337C14.6831 17.8337 15.6836 17.5837 16.5669 17.1003C17.1002 16.8089 17.9169 17.0918 18.8501 17.4167C18.9141 17.4381 18.9845 17.4622 19.0571 17.4871C19.2113 17.5397 19.3778 17.5961 19.5249 17.6414C19.4849 17.4927 19.4327 17.3279 19.3853 17.1775C19.3637 17.109 19.3429 17.0431 19.3247 16.9832L19.3169 16.9753C18.9586 15.842 18.75 15.1168 19.0083 14.6501C19.4916 13.7752 19.7495 12.7668 19.7495 11.7585C19.7495 8.40024 17.0248 5.66679 13.6665 5.66675ZM14.9243 12.1755C15.1493 11.9505 15.5245 11.9506 15.7495 12.1755L15.7583 12.1589L17.0083 13.4089C17.1247 13.5255 17.183 13.6669 17.1831 13.825C17.1831 13.9832 17.1166 14.1336 17.0083 14.2419L15.7583 15.4919C15.6416 15.6086 15.4913 15.6667 15.3413 15.6667C15.1913 15.6667 15.041 15.6086 14.9243 15.4919C14.6996 15.2669 14.6995 14.8917 14.9243 14.6667L15.1743 14.4167H11.1665C10.8415 14.4167 10.5835 14.1587 10.5835 13.8337C10.5835 13.5087 10.8415 13.2507 11.1665 13.2507H15.1743L14.9243 13.0007C14.6994 12.7758 14.6996 12.4006 14.9243 12.1755ZM11.5835 7.99976C11.8085 7.77485 12.1837 7.77479 12.4087 7.99976C12.6334 8.22475 12.6335 8.60001 12.4087 8.82495L12.1587 9.07495H16.1665C16.4915 9.07495 16.7495 9.333 16.7495 9.65796C16.7495 9.98296 16.4915 10.241 16.1665 10.241H12.1587L12.4087 10.4998C12.6334 10.7248 12.6335 11.1 12.4087 11.325C12.3004 11.4416 12.1495 11.4998 11.9995 11.4998C11.8498 11.4996 11.7 11.4414 11.5835 11.325L10.3335 10.075C10.2168 9.95828 10.1587 9.81629 10.1587 9.65796C10.1587 9.50799 10.2252 9.35807 10.3335 9.24976L11.5835 7.99976Z" fill="#2066b0"/>
</svg>
