<svg width="20" height="20" viewBox="0 0 20 20" fill="none" xmlns="http://www.w3.org/2000/svg">
	<path d="M14.9995 4.99976C15.92 4.99976 16.6665 5.74627 16.6665 6.66675V13.3337C16.6663 14.2541 15.9199 14.9998 14.9995 14.9998H4.99951C4.0793 14.9996 3.33367 14.254 3.3335 13.3337V6.66675C3.3335 5.74638 4.07919 4.99993 4.99951 4.99976H14.9995ZM4.49951 13.3337C4.49969 13.6096 4.72363 13.8336 4.99951 13.8337H14.9995C15.2755 13.8337 15.4993 13.6097 15.4995 13.3337V7.06909L10.9341 10.7957C10.3769 11.2505 9.57475 11.2462 9.02295 10.7849L4.49951 7.00171V13.3337ZM9.771 9.8894C9.89355 9.99191 10.072 9.99325 10.1958 9.89233L14.7603 6.16675H5.3208L9.771 9.8894Z" fill="#2066b0"/>
</svg>
