<svg width="17" height="12" viewBox="0 0 17 12" fill="none" xmlns="http://www.w3.org/2000/svg">
	<path fill-rule="evenodd" clip-rule="evenodd" d="M16.1499 5.7674C15.4951 6.7032 12.1412 11.1959 8.1022 11.1959C4.06321 11.1959 0.709333 6.7032 0.0545625 5.7674C-0.0181875 5.6634 -0.0181875 5.5324 0.0545625 5.4284C0.709333 4.4927 4.06321 0 8.1022 0C12.1412 0 15.4951 4.4927 16.1499 5.4284C16.2226 5.5324 16.2226 5.6634 16.1499 5.7674ZM10.9576 5.5979C10.9576 7.175 9.6792 8.4534 8.1021 8.4534C6.52496 8.4534 5.24654 7.175 5.24654 5.5979C5.24654 4.0208 6.52496 2.74239 8.1021 2.74239C9.6792 2.74239 10.9576 4.0208 10.9576 5.5979Z" fill="#525C69"/>
</svg>