<svg width="100" height="100" viewBox="0 0 100 100" fill="none" xmlns="http://www.w3.org/2000/svg">
<path d="M50.2689 17.6291C58.1368 17.6291 64.5151 24.0403 64.5151 31.9489V44.0051H72.0438V31.9489C72.0438 19.8607 62.2946 10.0615 50.2687 10.0615C38.2427 10.0615 28.4935 19.8607 28.4935 31.9489V44.0051H36.0226V31.9489C36.0226 24.0403 42.4009 17.6291 50.2689 17.6291Z" fill="#D5D7DB"/>
<path fill-rule="evenodd" clip-rule="evenodd" d="M29.78 43.0154C25.5356 43.0154 22.0947 46.4562 22.0947 50.7007V77.1081C22.0947 81.3526 25.5356 84.7935 29.7801 84.7935H71.262C75.5065 84.7935 78.9474 81.3526 78.9474 77.1081V50.7007C78.9474 46.4562 75.5065 43.0154 71.262 43.0154H29.78ZM53.8402 64.9454C53.8402 64.8688 53.8749 64.7965 53.9331 64.7468C55.0593 63.7852 55.7746 62.3512 55.7746 60.7486C55.7746 57.853 53.4414 55.5057 50.5637 55.5057C47.6858 55.5057 45.3526 57.853 45.3526 60.7486C45.3526 62.3512 46.0681 63.7852 47.1941 64.7468C47.2523 64.7965 47.287 64.8688 47.287 64.9454V69.8215C47.287 71.6311 48.754 73.0981 50.5636 73.0981C52.3732 73.0981 53.8402 71.6311 53.8402 69.8215V64.9454Z" fill="#D5D7DB"/>
</svg>
