<svg width="32" height="32" viewBox="0 0 32 32" fill="none" xmlns="http://www.w3.org/2000/svg">
<rect width="32" height="32" rx="16" fill="#2B2B2B"/>
<path fill-rule="evenodd" clip-rule="evenodd" d="M21.2886 14.7593L17.0037 11.769V6.95838L24.7478 12.3452L21.2886 14.7593ZM23.0662 16L25.5392 14.2741V17.7256L23.0662 16ZM17.0037 20.2311L21.2886 17.2408L24.7478 19.6548L17.0037 25.0417V20.2311ZM10.7423 17.2408L15.0272 20.2311V25.0417L7.28346 19.6548L10.7423 17.2408ZM8.96472 16L6.49207 17.7256V14.2741L8.96472 16ZM15.0272 11.769L10.7423 14.7593L7.28346 12.3452L15.0272 6.95838V11.769ZM16.0156 18.4396L12.5199 16L16.0156 13.5602L19.5113 16L16.0156 18.4396ZM27.4989 12.1646C27.4936 12.1352 27.489 12.1064 27.4816 12.0779C27.4769 12.0608 27.4713 12.0447 27.4661 12.0278C27.4583 12.0026 27.4506 11.9774 27.4407 11.9525C27.4339 11.9357 27.4261 11.9189 27.4187 11.9024C27.4081 11.8792 27.3973 11.8562 27.3849 11.8339C27.3759 11.8174 27.3663 11.8019 27.3567 11.7861C27.3434 11.7648 27.3298 11.7438 27.3149 11.7234C27.3041 11.7085 27.2929 11.6937 27.2812 11.6791C27.2657 11.6597 27.2489 11.6413 27.2319 11.6232C27.2189 11.6093 27.2059 11.5957 27.1926 11.5828C27.1746 11.566 27.1557 11.5498 27.1365 11.534C27.1216 11.522 27.1071 11.5098 27.0916 11.4988C27.0863 11.4946 27.0811 11.4897 27.0755 11.4858L16.5636 4.17332C16.2318 3.94223 15.7991 3.94223 15.4674 4.17332L4.95576 11.4858C4.94988 11.4897 4.94492 11.4946 4.93935 11.4988C4.92386 11.5098 4.9093 11.522 4.89444 11.534C4.87554 11.5498 4.85634 11.566 4.83868 11.5828C4.82505 11.5957 4.81205 11.6093 4.79935 11.6232C4.782 11.6413 4.76558 11.6597 4.74979 11.6791C4.73802 11.6937 4.72687 11.7085 4.71603 11.7234C4.70116 11.7438 4.68753 11.7648 4.67421 11.7861C4.66461 11.8019 4.65501 11.8174 4.64633 11.8339C4.63364 11.8562 4.62279 11.8792 4.61257 11.9024C4.60514 11.9189 4.59709 11.9357 4.59058 11.9525C4.58098 11.9774 4.57262 12.0026 4.56487 12.0278C4.55961 12.0447 4.55403 12.0608 4.5497 12.0779C4.54257 12.1064 4.53731 12.1352 4.53235 12.1646C4.52987 12.1794 4.52647 12.194 4.5243 12.2088C4.51872 12.2534 4.51562 12.2984 4.51562 12.3436V19.6561C4.51562 19.7017 4.51872 19.7463 4.5243 19.7909C4.52647 19.8061 4.52987 19.8206 4.53235 19.8355C4.53731 19.8643 4.54257 19.8934 4.5497 19.9218C4.55403 19.9389 4.55961 19.9554 4.56487 19.9719C4.57262 19.9974 4.58098 20.0227 4.59058 20.0475C4.59709 20.0647 4.60514 20.0808 4.61257 20.0973C4.62279 20.1206 4.63364 20.1435 4.64633 20.1662C4.65501 20.1823 4.66461 20.1982 4.67421 20.2133C4.68753 20.235 4.70116 20.2557 4.71603 20.2764C4.72687 20.2919 4.73802 20.3064 4.74979 20.321C4.76558 20.34 4.782 20.3588 4.79935 20.3766C4.81205 20.3901 4.82505 20.404 4.83868 20.4166C4.85634 20.4338 4.87554 20.4503 4.89444 20.4661C4.9093 20.478 4.92386 20.49 4.93935 20.5013C4.94492 20.5055 4.94988 20.51 4.95576 20.5139L15.4674 27.8264C15.6334 27.9421 15.8242 28 16.0156 28C16.2067 28 16.3978 27.9421 16.5636 27.8264L27.0755 20.5139C27.0811 20.51 27.0863 20.5055 27.0916 20.5013C27.1071 20.49 27.1216 20.478 27.1365 20.4661C27.1557 20.4503 27.1746 20.4338 27.1926 20.4166C27.2059 20.404 27.2189 20.3901 27.2319 20.3766C27.2489 20.3588 27.2657 20.34 27.2812 20.321C27.2929 20.3064 27.3041 20.2919 27.3149 20.2764C27.3298 20.2557 27.3434 20.235 27.3567 20.2133C27.3663 20.1982 27.3759 20.1823 27.3849 20.1662C27.3973 20.1435 27.4081 20.1206 27.4187 20.0973C27.4261 20.0808 27.4339 20.0647 27.4407 20.0475C27.4506 20.0227 27.4583 19.9974 27.4661 19.9719C27.4713 19.9554 27.4769 19.9389 27.4816 19.9218C27.489 19.8934 27.4936 19.8643 27.4989 19.8355C27.5014 19.8206 27.5048 19.8061 27.5066 19.7909C27.5122 19.7463 27.5156 19.7017 27.5156 19.6561V12.3436C27.5156 12.2984 27.5122 12.2534 27.5066 12.2088C27.5048 12.194 27.5014 12.1794 27.4989 12.1646Z" fill="white"/>
</svg>
