<svg width="32" height="32" viewBox="0 0 32 32" fill="none" xmlns="http://www.w3.org/2000/svg">
<rect width="32" height="32" rx="16" fill="#0075FF"/>
<path fill-rule="evenodd" clip-rule="evenodd" d="M24.4457 15.0617L20.6912 18.815C18.6191 20.8883 15.2575 20.8883 13.185 18.815C12.8585 18.4894 12.6031 18.1226 12.3788 17.7444L14.1233 16C14.2063 15.9164 14.3087 15.8685 14.4065 15.812C14.5271 16.2241 14.7376 16.6141 15.0617 16.9382C16.0966 17.9739 17.7805 17.9725 18.8147 16.9382L22.568 13.1851C23.6037 12.1495 23.6037 10.466 22.568 9.43125C21.5337 8.39648 19.8502 8.39648 18.8147 9.43125L17.4801 10.7674C16.397 10.3456 15.2301 10.2322 14.0941 10.3987L16.9382 7.55474C19.0116 5.48175 22.3723 5.48175 24.4457 7.55474C26.5181 9.62765 26.5181 12.9889 24.4457 15.0617ZM14.5205 21.2333L13.1849 22.5694C12.1501 23.6037 10.4661 23.6037 9.43119 22.5694C8.39633 21.5337 8.39633 19.8502 9.43119 18.815L13.1849 15.0617C14.2205 14.0263 15.9034 14.0263 16.9382 15.0617C17.2615 15.3851 17.4722 15.7751 17.594 16.1866C17.6924 16.1294 17.7935 16.083 17.8764 16L19.6208 14.2563C19.3979 13.8766 19.1412 13.5111 18.8146 13.1852C16.7426 11.1122 13.3807 11.1122 11.3077 13.1852L7.55459 16.9385C5.4818 19.0121 5.4818 22.3723 7.55459 24.4457C9.62759 26.5181 12.9887 26.5181 15.0617 24.4457L17.9065 21.6012C16.7699 21.7686 15.6027 21.6542 14.5205 21.2333Z" fill="white"/>
</svg>
