<svg width="32" height="32" viewBox="0 0 32 32" fill="none" xmlns="http://www.w3.org/2000/svg">
<rect width="32" height="32" rx="16" fill="#EA4C89"/>
<path fill-rule="evenodd" clip-rule="evenodd" d="M27.7559 13.585C27.5992 12.8132 27.3621 12.0541 27.0559 11.3288C26.7567 10.6177 26.3828 9.93192 25.9496 9.29132C25.5206 8.65636 25.028 8.05809 24.4862 7.51626C23.9428 6.97301 23.3459 6.48057 22.7095 6.05162C22.0688 5.61703 21.383 5.24593 20.6717 4.94397C19.9464 4.63919 19.1872 4.40073 18.4167 4.24552C17.6264 4.08325 16.8135 4 16.0007 4C15.1865 4 14.3736 4.08325 13.5833 4.24552C12.8128 4.40073 12.0536 4.63919 11.3283 4.94397C10.617 5.24593 9.9312 5.61703 9.28912 6.05162C8.65408 6.48057 8.05715 6.97301 7.51385 7.51626C6.97054 8.05809 6.47945 8.65636 6.05045 9.29132C5.61581 9.93192 5.24325 10.6177 4.94267 11.3288C4.63644 12.0541 4.40078 12.8132 4.24272 13.585C4.08185 14.3724 4 15.1865 4 15.9993C4 16.8135 4.08185 17.6276 4.24272 18.4178C4.40078 19.1868 4.63644 19.9473 4.94267 20.6712C5.24325 21.3823 5.61581 22.0695 6.05045 22.7115C6.47945 23.3465 6.97054 23.9419 7.51385 24.4852C8.05715 25.0284 8.65408 25.5194 9.28912 25.9484C9.9312 26.383 10.617 26.7555 11.3283 27.056C12.0536 27.3622 12.8128 27.5964 13.5833 27.7545C14.3736 27.9182 15.1865 28 16.0007 28C16.8135 28 17.6264 27.9182 18.4167 27.7545C19.1872 27.5964 19.9464 27.3622 20.6717 27.056C21.383 26.7555 22.0688 26.383 22.7095 25.9484C23.3459 25.5194 23.9428 25.0284 24.4862 24.4852C25.028 23.9419 25.5206 23.3465 25.9496 22.7115C26.3828 22.0695 26.7567 21.3823 27.0559 20.6712C27.3621 19.9473 27.5992 19.1868 27.7559 18.4178C27.9181 17.6276 28 16.8135 28 15.9993C28 15.1865 27.9181 14.3724 27.7559 13.585ZM26.2459 15.8977C26.0977 15.8652 22.629 15.1188 19.1081 15.5619C19.0348 15.3869 18.9614 15.2105 18.8866 15.0342C18.6721 14.5318 18.4435 14.0352 18.205 13.5469C22.2522 11.8946 23.8949 9.51849 23.9146 9.49027C25.3512 11.2371 26.2219 13.4665 26.2459 15.8977ZM22.7687 8.30925C22.7433 8.34876 21.2842 10.5711 17.4147 12.0202C15.6634 8.80169 13.7386 6.24493 13.5848 6.04174C14.3595 5.85408 15.1681 5.75248 16.0007 5.75248C18.5945 5.75248 20.9624 6.72044 22.7687 8.30925ZM13.5452 6.05021C13.5452 6.05162 13.5438 6.05162 13.5438 6.05162C13.5438 6.05162 13.5311 6.05444 13.5128 6.05867C13.5227 6.05585 13.534 6.05444 13.5452 6.05021ZM11.6274 6.73173C11.7629 6.91516 13.6596 9.48322 15.4334 12.6368C10.5126 13.9449 6.24096 13.8926 5.97001 13.8884C6.63609 10.7136 8.76839 8.08207 11.6274 6.73173ZM5.75128 15.9993C5.75128 15.8906 5.75692 15.7834 5.75975 15.6762C5.94038 15.6804 11.0051 15.7947 16.2815 14.2158C16.5751 14.7901 16.8559 15.3742 17.1127 15.957C16.9772 15.9951 16.8432 16.036 16.7091 16.0797C11.1787 17.8675 8.37326 22.8427 8.37326 22.8427C8.37326 22.8427 8.37749 22.847 8.37749 22.8484C6.74475 21.0324 5.75128 18.6323 5.75128 15.9993ZM16.0007 26.2475C13.5198 26.2475 11.245 25.3656 9.47116 23.8996C9.60663 24.0082 9.70118 24.0788 9.70118 24.0788C9.70118 24.0788 11.6655 19.7949 17.7435 17.677C17.7661 17.6685 17.7887 17.6615 17.8127 17.6544C19.2549 21.4021 19.849 24.5402 20.0014 25.4362C18.7723 25.9583 17.4189 26.2475 16.0007 26.2475ZM21.7273 24.4993C21.6229 23.8812 21.0767 20.8729 19.7319 17.1803C23.0411 16.6512 25.9072 17.5585 26.1189 17.6276C25.6631 20.4821 24.0275 22.9457 21.7273 24.4993Z" fill="white"/>
</svg>
