<svg width="20" height="20" viewBox="0 0 20 20" fill="none" xmlns="http://www.w3.org/2000/svg">
<rect width="20" height="20" rx="10" fill="#2B2B2B"/>
<path fill-rule="evenodd" clip-rule="evenodd" d="M2.5 10.1903C2.5 13.5874 4.64878 16.47 7.62907 17.4868C8.00431 17.5576 8.14106 17.3202 8.14106 17.1162C8.14106 16.9335 8.13461 16.4501 8.13093 15.8086C6.04477 16.2731 5.60461 14.7775 5.60461 14.7775C5.26344 13.8891 4.77171 13.6525 4.77171 13.6525C4.09075 13.1753 4.82328 13.1852 4.82328 13.1852C5.57606 13.2395 5.97202 13.9778 5.97202 13.9778C6.64147 15.1528 7.7276 14.8134 8.15487 14.6165C8.22301 14.1194 8.41685 13.781 8.63094 13.5883C6.96561 13.3943 5.21463 12.7348 5.21463 9.78805C5.21463 8.94821 5.507 8.2618 5.98676 7.7241C5.90987 7.5296 5.65249 6.74782 6.06042 5.68941C6.06042 5.68941 6.69028 5.48216 8.12264 6.47732C8.72119 6.3069 9.36255 6.22145 10.0002 6.21862C10.6375 6.22145 11.2788 6.3069 11.8783 6.47732C13.3097 5.48216 13.9387 5.68941 13.9387 5.68941C14.3475 6.74782 14.0901 7.5296 14.0132 7.7241C14.4939 8.2618 14.784 8.94821 14.784 9.78805C14.784 12.7419 13.0307 13.392 11.3598 13.5827C11.6292 13.8201 11.8686 14.2894 11.8686 15.0065C11.8686 16.0347 11.8599 16.8641 11.8599 17.1162C11.8599 17.3221 11.9948 17.5609 12.3755 17.4859C15.3531 16.4671 17.5 13.5869 17.5 10.1903C17.5 5.94292 14.1417 2.5 9.99931 2.5C5.8583 2.5 2.5 5.94292 2.5 10.1903Z" fill="white"/>
</svg>
