<svg width="32" height="32" viewBox="0 0 32 32" fill="none" xmlns="http://www.w3.org/2000/svg">
<rect width="32" height="32" rx="16" fill="#F2F2F2"/>
<path d="M9.3191 18.5044L8.48366 21.6232L5.43016 21.6878C4.51761 19.9953 4 18.0587 4 16.0008C4 14.0109 4.48396 12.1343 5.3418 10.482L8.06093 10.9803L9.25179 13.6825C9.00254 14.4091 8.86669 15.1892 8.86669 16.0008C8.86679 16.8818 9.02636 17.7258 9.3191 18.5044Z" fill="#FBBB00"/>
<path d="M27.7903 13.7588C27.9281 14.4847 28 15.2344 28 16.0006C28 16.8598 27.9097 17.6979 27.7376 18.5062C27.1534 21.2571 25.627 23.6592 23.5124 25.359L20.0877 25.1836L19.6031 22.1585C21.0062 21.3356 22.1027 20.0478 22.6803 18.5062H16.2634V13.7588H27.7903Z" fill="#518EF8"/>
<path d="M23.5137 25.358C21.4572 27.011 18.8454 28.0007 16.0016 28.0007C11.4315 28.0007 7.4582 25.4463 5.4313 21.6873L9.32023 18.5039C10.3337 21.2086 12.9428 23.134 16.0016 23.134C17.3163 23.134 18.5481 22.7785 19.605 22.1581L23.5137 25.358Z" fill="#28B446"/>
<path d="M23.6593 6.76273L19.7717 9.94547C18.6778 9.26172 17.3848 8.86674 15.9995 8.86674C12.8714 8.86674 10.2144 10.8808 9.25179 13.6825L5.3418 10.482L5.34084 10.4815C7.33807 6.63086 11.3615 4 15.9995 4C18.9112 4 21.581 5.03719 23.6593 6.76273Z" fill="#F14336"/>
</svg>
