<svg width="32" height="32" viewBox="0 0 32 32" fill="none" xmlns="http://www.w3.org/2000/svg">
<rect width="32" height="32" rx="16" fill="url(#paint0_linear_664_107315)"/>
<rect width="32" height="32" rx="16" fill="url(#paint1_radial_664_107315)"/>
<path fill-rule="evenodd" clip-rule="evenodd" d="M10.3514 16C10.3514 12.8803 12.8803 10.3514 16 10.3514C19.1197 10.3514 21.6486 12.8803 21.6486 16C21.6486 19.1197 19.1197 21.6486 16 21.6486C12.8803 21.6486 10.3514 19.1197 10.3514 16ZM16 19.6667C13.9749 19.6667 12.3333 18.0251 12.3333 16C12.3333 13.9749 13.9749 12.3333 16 12.3333C18.0251 12.3333 19.6667 13.9749 19.6667 16C19.6667 18.0251 18.0251 19.6667 16 19.6667Z" fill="white"/>
<path d="M21.8718 11.4482C22.6008 11.4482 23.1918 10.8572 23.1918 10.1282C23.1918 9.39916 22.6008 8.80816 21.8718 8.80816C21.1428 8.80816 20.5518 9.39916 20.5518 10.1282C20.5518 10.8572 21.1428 11.4482 21.8718 11.4482Z" fill="white"/>
<path fill-rule="evenodd" clip-rule="evenodd" d="M16 5C13.0126 5 12.638 5.01266 11.4647 5.0662C10.2939 5.1196 9.49426 5.30556 8.79458 5.57751C8.07123 5.85858 7.45779 6.2347 6.84623 6.84623C6.2347 7.45779 5.85858 8.07123 5.57751 8.79458C5.30556 9.49426 5.1196 10.2939 5.0662 11.4647C5.01266 12.638 5 13.0126 5 16C5 18.9874 5.01266 19.362 5.0662 20.5353C5.1196 21.7061 5.30556 22.5057 5.57751 23.2054C5.85858 23.9288 6.2347 24.5422 6.84623 25.1538C7.45779 25.7653 8.07123 26.1414 8.79458 26.4225C9.49426 26.6944 10.2939 26.8804 11.4647 26.9338C12.638 26.9873 13.0126 27 16 27C18.9874 27 19.362 26.9873 20.5353 26.9338C21.7061 26.8804 22.5057 26.6944 23.2054 26.4225C23.9288 26.1414 24.5422 25.7653 25.1538 25.1538C25.7653 24.5422 26.1414 23.9288 26.4225 23.2054C26.6944 22.5057 26.8804 21.7061 26.9338 20.5353C26.9873 19.362 27 18.9874 27 16C27 13.0126 26.9873 12.638 26.9338 11.4647C26.8804 10.2939 26.6944 9.49426 26.4225 8.79458C26.1414 8.07123 25.7653 7.45779 25.1538 6.84623C24.5422 6.2347 23.9288 5.85858 23.2054 5.57751C22.5057 5.30556 21.7061 5.1196 20.5353 5.0662C19.362 5.01266 18.9874 5 16 5ZM16 6.98198C18.9371 6.98198 19.285 6.9932 20.4449 7.04612C21.5174 7.09503 22.0999 7.27423 22.4875 7.42487C23.0009 7.62442 23.3674 7.86278 23.7523 8.24773C24.1372 8.63263 24.3756 8.99906 24.5751 9.51251C24.7258 9.90013 24.905 10.4826 24.9539 11.5551C25.0068 12.715 25.018 13.0629 25.018 16C25.018 18.9371 25.0068 19.285 24.9539 20.4449C24.905 21.5174 24.7258 22.0999 24.5751 22.4875C24.3756 23.0009 24.1372 23.3674 23.7523 23.7523C23.3674 24.1372 23.0009 24.3756 22.4875 24.5751C22.0999 24.7258 21.5174 24.905 20.4449 24.9539C19.2852 25.0068 18.9373 25.018 16 25.018C13.0627 25.018 12.7148 25.0068 11.5551 24.9539C10.4826 24.905 9.90013 24.7258 9.51252 24.5751C8.99907 24.3756 8.63263 24.1372 8.24773 23.7523C7.86283 23.3674 7.62442 23.0009 7.42487 22.4875C7.27423 22.0999 7.09503 21.5174 7.04612 20.4449C6.9932 19.285 6.98198 18.9371 6.98198 16C6.98198 13.0629 6.9932 12.715 7.04612 11.5551C7.09503 10.4826 7.27423 9.90013 7.42487 9.51251C7.62442 8.99906 7.86278 8.63263 8.24773 8.24773C8.63263 7.86278 8.99907 7.62442 9.51252 7.42487C9.90013 7.27423 10.4826 7.09503 11.5551 7.04612C12.715 6.9932 13.0629 6.98198 16 6.98198Z" fill="white"/>
<defs>
<linearGradient id="paint0_linear_664_107315" x1="1.8671" y1="1.68233" x2="11.9564" y2="40.7091" gradientUnits="userSpaceOnUse">
<stop stop-color="#4E60D3"/>
<stop offset="0.142763" stop-color="#913BAF"/>
<stop offset="0.761458" stop-color="#D52D88"/>
<stop offset="1" stop-color="#F26D4F"/>
</linearGradient>
<radialGradient id="paint1_radial_664_107315" cx="0" cy="0" r="1" gradientUnits="userSpaceOnUse" gradientTransform="translate(9.68779 32) rotate(32.1601) scale(29.8863 21.5082)">
<stop stop-color="#FED276"/>
<stop offset="0.17024" stop-color="#FDBD61" stop-opacity="0.975006"/>
<stop offset="0.454081" stop-color="#F6804D"/>
<stop offset="1" stop-color="#E83D5C" stop-opacity="0.01"/>
</radialGradient>
</defs>
</svg>
