<svg width="32" height="32" viewBox="0 0 32 32" fill="none" xmlns="http://www.w3.org/2000/svg">
<rect width="32" height="32" rx="16" fill="#007EBB"/>
<path d="M6.6665 8.30151C6.6665 8.90739 6.8839 9.4166 7.32103 9.82798C7.75817 10.2394 8.33599 10.4456 9.01029 10.4456C9.6846 10.4456 10.2392 10.2394 10.6763 9.82798C11.1123 9.4166 11.3308 8.92271 11.3308 8.30151C11.3308 7.68031 11.1134 7.16284 10.6763 6.75145C10.2403 6.34007 9.69971 6.13379 9.01029 6.13379C8.32087 6.13379 7.75817 6.34007 7.32103 6.75145C6.88506 7.16402 6.6665 7.69564 6.6665 8.30151Z" fill="white"/>
<path d="M10.9635 24.8005V12.1878H7.03271V24.8005H10.9635Z" fill="white"/>
<path d="M25.3332 17.319C25.3332 15.6711 24.9053 14.3768 24.0485 13.4338V13.4326C23.1928 12.4908 22.0465 12.0193 20.6119 12.0193C19.8062 12.0193 19.0819 12.1785 18.4378 12.4979C17.7937 12.8173 17.281 13.2511 16.9008 13.8004V12.1525H13.1457V24.5777H16.9008V17.8306C16.9008 16.9995 17.1136 16.3536 17.5379 15.8939C17.9623 15.433 18.5343 15.2031 19.2505 15.2031C19.9666 15.2031 20.5386 15.4341 20.963 15.8939C21.3873 16.3536 21.6001 16.9995 21.6001 17.8306V24.5777H25.3332V17.319Z" fill="white"/>
</svg>
