<svg width="20" height="20" viewBox="0 0 20 20" fill="none" xmlns="http://www.w3.org/2000/svg">
<rect width="20" height="20" rx="10" fill="#007EBB"/>
<path d="M4.1665 5.18832C4.1665 5.567 4.30237 5.88525 4.57558 6.14237C4.8488 6.39948 5.20993 6.52841 5.63137 6.52841C6.05281 6.52841 6.39942 6.39948 6.67263 6.14237C6.94511 5.88525 7.08171 5.57657 7.08171 5.18832C7.08171 4.80007 6.94584 4.47665 6.67263 4.21953C6.40015 3.96242 6.06226 3.8335 5.63137 3.8335C5.20048 3.8335 4.8488 3.96242 4.57558 4.21953C4.3031 4.47739 4.1665 4.80965 4.1665 5.18832Z" fill="white"/>
<path d="M6.8521 15.5002V7.61728H4.39538V15.5002H6.8521Z" fill="white"/>
<path d="M15.8332 10.8242C15.8332 9.79431 15.5658 8.98539 15.0302 8.39601V8.39528C14.4955 7.80664 13.779 7.51195 12.8824 7.51195C12.3788 7.51195 11.9261 7.61141 11.5236 7.81106C11.121 8.01071 10.8006 8.28182 10.563 8.62513V7.5952H8.21598V15.3609H10.563V11.144C10.563 10.6246 10.6959 10.2209 10.9612 9.93354C11.2264 9.64548 11.5839 9.50183 12.0315 9.50183C12.4791 9.50183 12.8366 9.64622 13.1018 9.93354C13.367 10.2209 13.5 10.6246 13.5 11.144V15.3609H15.8332V10.8242Z" fill="white"/>
</svg>
