<svg width="32" height="32" viewBox="0 0 32 32" fill="none" xmlns="http://www.w3.org/2000/svg">
<rect width="32" height="32" rx="16" fill="#F1EBFF"/>
<g clip-path="url(#clip0_5980_152680)">
<path d="M15.2002 13.7632H21.8669C23.7058 13.7632 25.2002 15.3206 25.2002 17.2369V23.0263C25.2002 24.9427 23.7058 26.5 21.8669 26.5C20.028 26.5 18.5335 24.9427 18.5335 23.0263V17.2369C18.5335 15.3206 17.0391 13.7632 15.2002 13.7632Z" fill="url(#paint0_radial_5980_152680)"/>
<path d="M7.42236 16.0792C7.42236 14.1628 8.91681 12.6055 10.7557 12.6055H15.2001C17.039 12.6055 18.5335 14.1628 18.5335 16.0792V23.0265C18.5335 24.9428 20.0279 26.5002 21.8668 26.5002H12.9779C9.91125 26.5002 7.42236 23.9065 7.42236 20.7107V16.0792Z" fill="url(#paint1_radial_5980_152680)"/>
<path d="M7.42236 16.0792C7.42236 14.1628 8.91681 12.6055 10.7557 12.6055H15.2001C17.039 12.6055 18.5335 14.1628 18.5335 16.0792V23.0265C18.5335 24.9428 20.0279 26.5002 21.8668 26.5002H12.9779C9.91125 26.5002 7.42236 23.9065 7.42236 20.7107V16.0792Z" fill="url(#paint2_linear_5980_152680)" fill-opacity="0.7"/>
<path d="M7.42236 16.0792C7.42236 14.1628 8.91681 12.6055 10.7557 12.6055H15.2001C17.039 12.6055 18.5335 14.1628 18.5335 16.0792V23.0265C18.5335 24.9428 20.0279 26.5002 21.8668 26.5002H12.9779C9.91125 26.5002 7.42236 23.9065 7.42236 20.7107V16.0792Z" fill="url(#paint3_radial_5980_152680)" fill-opacity="0.7"/>
<path d="M21.3115 12.6054C22.8448 12.6054 24.0892 11.3085 24.0892 9.71066C24.0892 8.11276 22.8448 6.81592 21.3115 6.81592C19.7781 6.81592 18.5337 8.11276 18.5337 9.71066C18.5337 11.3085 19.7781 12.6054 21.3115 12.6054Z" fill="url(#paint4_radial_5980_152680)"/>
<path d="M21.3115 12.6054C22.8448 12.6054 24.0892 11.3085 24.0892 9.71066C24.0892 8.11276 22.8448 6.81592 21.3115 6.81592C19.7781 6.81592 18.5337 8.11276 18.5337 9.71066C18.5337 11.3085 19.7781 12.6054 21.3115 12.6054Z" fill="url(#paint5_radial_5980_152680)" fill-opacity="0.46"/>
<path d="M21.3115 12.6054C22.8448 12.6054 24.0892 11.3085 24.0892 9.71066C24.0892 8.11276 22.8448 6.81592 21.3115 6.81592C19.7781 6.81592 18.5337 8.11276 18.5337 9.71066C18.5337 11.3085 19.7781 12.6054 21.3115 12.6054Z" fill="url(#paint6_radial_5980_152680)" fill-opacity="0.4"/>
<path d="M12.9779 11.4474C14.8168 11.4474 16.3112 9.89 16.3112 7.97368C16.3112 6.05737 14.8168 4.5 12.9779 4.5C11.139 4.5 9.64453 6.05737 9.64453 7.97368C9.64453 9.89 11.139 11.4474 12.9779 11.4474Z" fill="url(#paint7_radial_5980_152680)"/>
<path d="M12.9779 11.4474C14.8168 11.4474 16.3112 9.89 16.3112 7.97368C16.3112 6.05737 14.8168 4.5 12.9779 4.5C11.139 4.5 9.64453 6.05737 9.64453 7.97368C9.64453 9.89 11.139 11.4474 12.9779 11.4474Z" fill="url(#paint8_radial_5980_152680)" fill-opacity="0.6"/>
<path d="M12.9779 11.4474C14.8168 11.4474 16.3112 9.89 16.3112 7.97368C16.3112 6.05737 14.8168 4.5 12.9779 4.5C11.139 4.5 9.64453 6.05737 9.64453 7.97368C9.64453 9.89 11.139 11.4474 12.9779 11.4474Z" fill="url(#paint9_radial_5980_152680)" fill-opacity="0.5"/>
<path d="M12.2835 15.5H7.00575C6.00857 15.5 5.2002 16.3424 5.2002 17.3816V22.8816C5.2002 23.9207 6.00857 24.7632 7.00575 24.7632H12.2835C13.2807 24.7632 14.0891 23.9207 14.0891 22.8816V17.3816C14.0891 16.3424 13.2807 15.5 12.2835 15.5Z" fill="url(#paint10_radial_5980_152680)"/>
<path d="M12.2835 15.5H7.00575C6.00857 15.5 5.2002 16.3424 5.2002 17.3816V22.8816C5.2002 23.9207 6.00857 24.7632 7.00575 24.7632H12.2835C13.2807 24.7632 14.0891 23.9207 14.0891 22.8816V17.3816C14.0891 16.3424 13.2807 15.5 12.2835 15.5Z" fill="url(#paint11_radial_5980_152680)" fill-opacity="0.7"/>
<path d="M11.5781 18.4585H10.217V22.7832H9.07254V18.4585H7.71143V17.4858H11.5781V18.4585Z" fill="white"/>
</g>
<defs>
<radialGradient id="paint0_radial_5980_152680" cx="0" cy="0" r="1" gradientUnits="userSpaceOnUse" gradientTransform="translate(24.5784 14.9389) scale(7.48889 19.2616)">
<stop stop-color="#A98AFF"/>
<stop offset="0.14" stop-color="#8C75FF"/>
<stop offset="0.56" stop-color="#5F50E2"/>
<stop offset="0.9" stop-color="#3C2CB8"/>
</radialGradient>
<radialGradient id="paint1_radial_5980_152680" cx="0" cy="0" r="1" gradientTransform="matrix(6.77157 17.5984 17.0782 -7.13641 6.61275 12.3233)" gradientUnits="userSpaceOnUse">
<stop stop-color="#85C2FF"/>
<stop offset="0.69" stop-color="#7588FF"/>
<stop offset="1" stop-color="#6459FE"/>
</radialGradient>
<linearGradient id="paint2_linear_5980_152680" x1="14.6446" y1="12.6055" x2="14.6446" y2="26.5002" gradientUnits="userSpaceOnUse">
<stop offset="0.8" stop-color="#6864F6" stop-opacity="0"/>
<stop offset="1" stop-color="#5149DE"/>
</linearGradient>
<radialGradient id="paint3_radial_5980_152680" cx="0" cy="0" r="1" gradientTransform="matrix(-4.22868 10.2176 7.87135 3.53777 19.4118 12.4839)" gradientUnits="userSpaceOnUse">
<stop stop-color="#BD96FF"/>
<stop offset="0.69" stop-color="#BD96FF" stop-opacity="0"/>
</radialGradient>
<radialGradient id="paint4_radial_5980_152680" cx="0" cy="0" r="1" gradientUnits="userSpaceOnUse" gradientTransform="translate(21.6316 8.88276) rotate(-90) scale(5.78947 7.01111)">
<stop offset="0.27" stop-color="#6868F7"/>
<stop offset="1" stop-color="#3923B1"/>
</radialGradient>
<radialGradient id="paint5_radial_5980_152680" cx="0" cy="0" r="1" gradientTransform="matrix(3.04067 2.66357 3.6963 -4.58242 18.6951 6.89081)" gradientUnits="userSpaceOnUse">
<stop offset="0.27" stop-color="#A1D3FF"/>
<stop offset="0.81" stop-color="#A1D3FF" stop-opacity="0"/>
</radialGradient>
<radialGradient id="paint6_radial_5980_152680" cx="0" cy="0" r="1" gradientTransform="matrix(3.53213 -3.27492 -7.71062 -9.03129 24.514 8.17534)" gradientUnits="userSpaceOnUse">
<stop stop-color="#E3ACFD"/>
<stop offset="0.82" stop-color="#9FA2FF" stop-opacity="0"/>
</radialGradient>
<radialGradient id="paint7_radial_5980_152680" cx="0" cy="0" r="1" gradientUnits="userSpaceOnUse" gradientTransform="translate(12.1065 7.00684) rotate(-90) scale(6.94737 8.41667)">
<stop offset="0.27" stop-color="#8282FF"/>
<stop offset="1" stop-color="#3923B1"/>
</radialGradient>
<radialGradient id="paint8_radial_5980_152680" cx="0" cy="0" r="1" gradientTransform="matrix(3.6488 3.19628 4.4327 -5.49536 8.57702 6.04617)" gradientUnits="userSpaceOnUse">
<stop offset="0.27" stop-color="#A1D3FF"/>
<stop offset="0.81" stop-color="#A1D3FF" stop-opacity="0"/>
</radialGradient>
<radialGradient id="paint9_radial_5980_152680" cx="0" cy="0" r="1" gradientTransform="matrix(2.12094 -1.96649 -4.62711 -5.41964 14.2447 7.29354)" gradientUnits="userSpaceOnUse">
<stop stop-color="#E3ACFD"/>
<stop offset="0.82" stop-color="#9FA2FF" stop-opacity="0"/>
</radialGradient>
<radialGradient id="paint10_radial_5980_152680" cx="0" cy="0" r="1" gradientTransform="matrix(8.8899 9.26422 8.8899 -9.26422 5.01052 14.4496)" gradientUnits="userSpaceOnUse">
<stop offset="0.05" stop-color="#688EFF"/>
<stop offset="0.95" stop-color="#230F94"/>
</radialGradient>
<radialGradient id="paint11_radial_5980_152680" cx="0" cy="0" r="1" gradientUnits="userSpaceOnUse" gradientTransform="translate(9.6257 21.0811) rotate(90) scale(6.48421 7.26111)">
<stop offset="0.57" stop-color="#6965F6" stop-opacity="0"/>
<stop offset="1" stop-color="#8F8FFF"/>
</radialGradient>
<clipPath id="clip0_5980_152680">
<rect width="20" height="22" fill="white" transform="translate(5.2002 4.5)"/>
</clipPath>
</defs>
</svg>
