<svg width="32" height="32" viewBox="0 0 32 32" fill="none" xmlns="http://www.w3.org/2000/svg">
<rect width="32" height="32" rx="16" fill="#F96802"/>
<path fill-rule="evenodd" clip-rule="evenodd" d="M15.962 16.3324C18.9155 16.3324 21.3164 14.0154 21.3164 11.167C21.3164 8.31763 18.9155 6 15.962 6C13.0091 6 10.6075 8.31763 10.6075 11.167C10.6075 14.0154 13.0091 16.3324 15.962 16.3324ZM15.962 9.02802C17.1845 9.02802 18.179 9.98729 18.179 11.167C18.179 12.3457 17.1845 13.3056 15.962 13.3056C14.7404 13.3056 13.745 12.3457 13.745 11.167C13.745 9.98729 14.7404 9.02802 15.962 9.02802Z" fill="white"/>
<path d="M21.268 19.2785C20.3012 19.8658 19.2516 20.2823 18.1633 20.5222L21.1522 23.4136C21.7645 24.0047 21.7645 24.9646 21.1522 25.5563C20.5405 26.1479 19.5491 26.1479 18.9381 25.5563L15.9995 22.7149L13.0633 25.5563C12.7572 25.8518 12.356 25.9997 11.9549 25.9997C11.5543 25.9997 11.1538 25.8518 10.8477 25.5563C10.236 24.9646 10.236 24.0053 10.847 23.4136L13.8362 20.5222C12.7479 20.2823 11.6983 19.8652 10.7315 19.2785C9.99992 18.8323 9.78014 17.8974 10.2411 17.1891C10.7008 16.4798 11.6676 16.2663 12.4005 16.7125C14.5893 18.0444 17.409 18.0447 19.599 16.7125C20.332 16.2663 21.2984 16.4798 21.7591 17.1891C22.22 17.8968 21.9996 18.8323 21.268 19.2785Z" fill="white"/>
</svg>
