<svg width="20" height="20" viewBox="0 0 20 20" fill="none" xmlns="http://www.w3.org/2000/svg">
<rect width="20" height="20" rx="10" fill="#F96802"/>
<path fill-rule="evenodd" clip-rule="evenodd" d="M9.97623 10.2078C11.8222 10.2078 13.3227 8.75963 13.3227 6.97937C13.3227 5.19852 11.8222 3.75 9.97623 3.75C8.13067 3.75 6.62971 5.19852 6.62971 6.97937C6.62971 8.75963 8.13067 10.2078 9.97623 10.2078ZM9.97623 5.64251C10.7403 5.64251 11.3619 6.24205 11.3619 6.97936C11.3619 7.71608 10.7403 8.316 9.97623 8.316C9.21274 8.316 8.59061 7.71608 8.59061 6.97936C8.59061 6.24205 9.21274 5.64251 9.97623 5.64251Z" fill="white"/>
<path d="M13.2925 12.0491C12.6883 12.4161 12.0323 12.6765 11.3521 12.8263L13.2201 14.6335C13.6028 15.0029 13.6028 15.6029 13.2201 15.9727C12.8378 16.3424 12.2182 16.3424 11.8363 15.9727L9.99966 14.1968L8.16459 15.9727C7.97325 16.1574 7.72252 16.2498 7.47179 16.2498C7.22147 16.2498 6.97114 16.1574 6.7798 15.9727C6.39751 15.6029 6.39751 15.0033 6.7794 14.6335L8.64765 12.8263C7.96745 12.6765 7.31144 12.4157 6.70722 12.0491C6.24995 11.7702 6.11259 11.1859 6.40071 10.7432C6.68802 10.2999 7.29225 10.1665 7.75031 10.4453C9.11831 11.2778 10.8806 11.2779 12.2494 10.4453C12.7075 10.1665 13.3115 10.2999 13.5994 10.7432C13.8875 11.1855 13.7498 11.7702 13.2925 12.0491Z" fill="white"/>
</svg>
