<svg width="32" height="32" viewBox="0 0 32 32" fill="none" xmlns="http://www.w3.org/2000/svg">
<rect width="32" height="32" rx="16" fill="#3A76F0"/>
<path d="M13.98 5.30677L14.2162 6.26154C13.2869 6.49008 12.3974 6.85788 11.5781 7.35247L11.0728 6.50925C11.9757 5.96417 12.9559 5.55876 13.98 5.30677ZM19.02 5.30677L18.7838 6.26154C19.7131 6.49008 20.6026 6.85788 21.4219 7.35247L21.9305 6.50925C21.0266 5.96386 20.0453 5.55844 19.02 5.30677ZM7.50937 10.0724C6.96424 10.9752 6.5588 11.9553 6.30679 12.9794L7.26164 13.2156C7.49019 12.2863 7.85803 11.3969 8.35265 10.5777L7.50937 10.0724ZM6.98437 15.4992C6.98405 15.022 7.0197 14.5454 7.09101 14.0736L6.11812 13.9259C5.96063 14.9689 5.96063 16.0295 6.11812 17.0724L7.09101 16.9248C7.0197 16.4529 6.98405 15.9764 6.98437 15.4992ZM21.9272 24.4891L21.4219 23.6459C20.6036 24.1402 19.7153 24.508 18.787 24.7368L19.0233 25.6916C20.0463 25.4393 21.0253 25.0339 21.9272 24.4891ZM26.0156 15.4992C26.0159 15.9764 25.9803 16.4529 25.909 16.9248L26.8819 17.0724C27.0394 16.0295 27.0394 14.9689 26.8819 13.9259L25.909 14.0736C25.9803 14.5454 26.0159 15.022 26.0156 15.4992ZM26.6932 18.019L25.7384 17.7828C25.5098 18.712 25.142 19.6014 24.6474 20.4207L25.4906 20.9292C26.0361 20.0254 26.4415 19.0442 26.6932 18.019ZM17.9257 24.9091C16.9806 25.0513 16.0194 25.0513 15.0743 24.9091L14.9266 25.8819C15.9696 26.0394 17.0304 26.0394 18.0734 25.8819L17.9257 24.9091ZM24.1601 21.1441C23.5925 21.9127 22.9129 22.5918 22.1438 23.1587L22.7278 23.951C23.5763 23.3273 24.3262 22.5796 24.9525 21.7331L24.1601 21.1441ZM22.1438 7.8397C22.913 8.40707 23.5927 9.0867 24.1601 9.85587L24.9525 9.26529C24.3282 8.41924 23.5805 7.67161 22.7344 7.04734L22.1438 7.8397ZM8.83992 9.85587C9.40733 9.0867 10.087 8.40707 10.8562 7.8397L10.2656 7.04734C9.41951 7.67161 8.67182 8.41924 8.0475 9.26529L8.83992 9.85587ZM25.4906 10.0724L24.6474 10.5777C25.1417 11.3959 25.5095 12.2842 25.7384 13.2123L26.6932 12.9761C26.4409 11.9532 26.0355 10.9742 25.4906 10.0724ZM15.0743 6.09092C16.0194 5.94874 16.9806 5.94874 17.9257 6.09092L18.0734 5.11811C17.0304 4.96063 15.9696 4.96063 14.9266 5.11811L15.0743 6.09092ZM9.34523 24.2119L7.31249 24.686L7.78664 22.6534L6.82851 22.4286L6.35437 24.4612C6.27672 24.7928 6.37596 25.1409 6.61676 25.3817C6.85755 25.6224 7.2057 25.7217 7.53726 25.644L9.56836 25.1781L9.34523 24.2119ZM7.03359 21.551L7.99171 21.7741L8.31984 20.3649C7.84157 19.5611 7.48497 18.691 7.26164 17.7828L6.30679 18.019C6.52084 18.8889 6.84618 19.7275 7.27476 20.5142L7.03359 21.551ZM11.6273 23.6836L10.218 24.0117L10.4412 24.9698L11.478 24.7286C12.2648 25.1572 13.1035 25.4825 13.9734 25.6965L14.2097 24.7417C13.3033 24.5158 12.4353 24.157 11.6339 23.6771L11.6273 23.6836ZM16.5 6.96859C13.3956 6.9702 10.5372 8.65782 9.03639 11.3751C7.5356 14.0923 7.62937 17.4103 9.28125 20.0384L8.46093 23.5376L11.9604 22.7174C15.0298 24.6505 18.9861 24.4313 21.8232 22.171C24.6603 19.9107 25.7577 16.1036 24.559 12.6802C23.3602 9.2567 20.1275 6.96561 16.5 6.96859Z" fill="white"/>
</svg>
