<svg width="32" height="32" viewBox="0 0 32 32" fill="none" xmlns="http://www.w3.org/2000/svg">
<rect width="32" height="32" rx="16" fill="#323E4D"/>
<path fill-rule="evenodd" clip-rule="evenodd" d="M16.9517 4V10.0653H22.8811V13.8331H16.9517V19.9873C16.9517 21.3801 17.0281 22.2734 17.1809 22.6657C17.3337 23.0637 17.6188 23.3784 18.0391 23.614C18.5902 23.933 19.222 24.091 19.9348 24.091C21.2 24.091 22.4579 23.6945 23.7099 22.9056V26.6932C22.6416 27.173 21.6761 27.5131 20.8106 27.7079C19.9436 27.904 19.0075 28 18.0024 28C16.8576 28 15.8481 27.8617 14.9708 27.5851C14.0935 27.3057 13.3441 26.9134 12.7254 26.3997C12.1053 25.8875 11.6732 25.3399 11.4352 24.7627C11.1957 24.1856 11.0766 23.3487 11.0766 22.2508V13.8331H8.3125V10.4364C9.29706 10.1302 10.1361 9.68989 10.8371 9.11977C11.5351 8.54824 12.0994 7.861 12.5211 7.05803C12.9444 6.25789 13.2368 5.23761 13.397 4H16.9517Z" fill="white"/>
</svg>
