<svg width="20" height="20" viewBox="0 0 20 20" fill="none" xmlns="http://www.w3.org/2000/svg">
<rect width="20" height="20" rx="10" fill="#43C453"/>
<path d="M8.34568 6.634C8.4615 6.63874 8.58964 6.64417 8.71138 6.91479C8.79458 7.09979 8.93458 7.4447 9.04615 7.71956C9.12835 7.92209 9.19513 8.0866 9.21237 8.12108C9.253 8.20234 9.28007 8.29724 9.2259 8.40576C9.21779 8.42198 9.21029 8.43729 9.20313 8.45192C9.16241 8.53501 9.1325 8.59606 9.06355 8.67676C9.03653 8.70831 9.0086 8.74228 8.98066 8.77626C8.92457 8.8445 8.86846 8.91274 8.81975 8.96135C8.73823 9.04237 8.65357 9.1304 8.74837 9.29294C8.8432 9.45563 9.16936 9.98758 9.65248 10.4183C10.1715 10.881 10.6223 11.0768 10.8513 11.1762C10.8962 11.1957 10.9327 11.2115 10.9593 11.2249C11.1219 11.3061 11.2167 11.2926 11.3115 11.184C11.4063 11.0756 11.7176 10.7097 11.8259 10.5471C11.9343 10.3844 12.0426 10.4115 12.1916 10.4657C12.3406 10.5199 13.1396 10.9131 13.3021 10.9943C13.3338 11.0102 13.3634 11.0245 13.3909 11.0377C13.5043 11.0925 13.5809 11.1294 13.6136 11.184C13.6542 11.252 13.6542 11.5772 13.5188 11.9566C13.3834 12.3361 12.7198 12.702 12.4219 12.7291C12.3932 12.7318 12.3647 12.7351 12.3354 12.7386C12.06 12.7709 11.7124 12.8118 10.4717 12.3226C8.94509 11.7205 7.93849 10.2286 7.73053 9.92037C7.71348 9.8951 7.70179 9.87779 7.69563 9.86957L7.69383 9.86715C7.6062 9.75005 7.03205 8.98276 7.03205 8.18881C7.03205 7.44041 7.39993 7.0481 7.56919 6.8676C7.58076 6.85527 7.5914 6.84392 7.60093 6.83352C7.7498 6.67089 7.9259 6.6302 8.03424 6.6302C8.04018 6.6302 8.04612 6.6302 8.05206 6.6302C8.15437 6.63018 8.25617 6.63017 8.34568 6.634Z" fill="white"/>
<path fill-rule="evenodd" clip-rule="evenodd" d="M4.70749 12.8741C4.13015 11.89 3.82836 10.7747 3.82836 9.62004C3.82836 6.03792 6.75441 3.125 10.3365 3.125C12.0817 3.125 13.7087 3.80731 14.9421 5.02759C16.1624 6.26099 16.8447 7.88803 16.8447 9.63316C16.8447 13.2153 13.9186 16.1282 10.3365 16.1282C9.24745 16.1282 8.17151 15.8658 7.22678 15.3409L3.77588 16.2463L4.70749 12.8741ZM5.75719 12.5067L5.8884 12.7035L5.33731 14.698L7.38423 14.16L7.58105 14.2781C8.40769 14.7767 9.36555 15.0391 10.3365 15.0391C13.3151 15.0391 15.7425 12.6117 15.7425 9.63316C15.7425 8.18982 15.1783 6.8252 14.1548 5.80174C13.1445 4.7914 11.7799 4.22719 10.3365 4.22719C7.35799 4.22719 4.93055 6.6415 4.93055 9.63316C4.93055 10.6435 5.21922 11.6407 5.75719 12.5067Z" fill="white"/>
</svg>
