<svg width="20" height="20" viewBox="0 0 20 20" fill="none" xmlns="http://www.w3.org/2000/svg">
<rect width="20" height="20" rx="10" fill="#254FF7"/>
<g clip-path="url(#clip0_5980_152929)">
<path d="M5.03387 11.8911H2.03605C1.83789 11.8911 1.64989 11.7838 1.55843 11.6005C1.45427 11.391 1.49238 11.1396 1.65243 10.9746L3.7382 8.82484H2.24437C1.83281 8.82484 1.5 8.48181 1.5 8.05761H4.26155C4.4597 8.05761 4.6477 8.16497 4.73916 8.34826C4.84333 8.55775 4.80522 8.80913 4.64516 8.9741L2.5594 11.1239H4.28949C4.70106 11.1239 5.03387 11.4669 5.03387 11.8911ZM16.8981 8C16.4688 8 16.0826 8.19115 15.8183 8.49752C15.5516 8.19115 15.1655 8 14.7387 8C13.9409 8 13.2906 8.70177 13.2906 9.52136V11.8911C13.7021 11.8911 14.0349 11.5481 14.0349 11.1239V9.51351C14.0349 9.11811 14.3322 8.78294 14.7132 8.76723C15.1147 8.75152 15.4475 9.08407 15.4475 9.49518V11.1239C15.4475 11.5481 15.7803 11.8911 16.1918 11.8911V9.51351C16.1918 9.11811 16.4891 8.78294 16.8701 8.76723C17.2715 8.75152 17.6044 9.08407 17.6044 9.49518V11.1239C17.6044 11.5481 17.9372 11.8911 18.3486 11.8911V9.52136C18.3461 8.70177 17.6958 8 16.8981 8ZM8.78875 9.97437C8.78875 11.0637 7.93006 11.9488 6.87319 11.9488C5.81634 11.9488 4.95765 11.0637 4.95765 9.97437C4.95765 8.88506 5.81888 8 6.87319 8C7.92752 8 8.78875 8.88506 8.78875 9.97437ZM8.04437 9.97437C8.04437 9.30927 7.51849 8.76723 6.87319 8.76723C6.22791 8.76723 5.70201 9.30927 5.70201 9.97437C5.70201 10.6395 6.22791 11.1815 6.87319 11.1815C7.51849 11.1815 8.04437 10.6395 8.04437 9.97437ZM12.9171 9.97437C12.9171 11.0637 12.0584 11.9488 11.0016 11.9488C9.94464 11.9488 9.08598 11.0637 9.08598 9.97437C9.08598 8.88506 9.94727 8 11.0016 8C12.0558 8 12.9171 8.88506 12.9171 9.97437ZM12.1727 9.97437C12.1727 9.30927 11.6469 8.76723 11.0016 8.76723C10.3563 8.76723 9.83036 9.30927 9.83036 9.97437C9.83036 10.6395 10.3563 11.1815 11.0016 11.1815C11.6469 11.1815 12.1727 10.6395 12.1727 9.97437Z" fill="white"/>
</g>
<defs>
<clipPath id="clip0_5980_152929">
<rect width="17" height="4" fill="white" transform="translate(1.5 8)"/>
</clipPath>
</defs>
</svg>
