<svg width="24" height="24" viewBox="0 0 24 24" fill="none" xmlns="http://www.w3.org/2000/svg">
<path d="M0 6C0 5.44772 0.447715 5 1 5H23C23.5523 5 24 5.44772 24 6V20C24 21.1046 23.1046 22 22 22H2C0.89543 22 0 21.1046 0 20V6Z" fill="#86E0FB"/>
<path d="M2.00158 2C0.897011 2 0.00157987 2.89543 0.00157987 4L0 4V6H24C24 4.89543 23.1046 4 22 4H14.0035L12.5671 2.57845C12.1927 2.20787 11.6871 2 11.1603 2H2.00158Z" fill="#2FC7F7"/>
<path fill-rule="evenodd" clip-rule="evenodd" d="M14.0589 10.5104C13.7367 10.5104 13.4756 10.7716 13.4756 11.0937L13.4756 18.9521C13.4756 19.2743 13.7367 19.5355 14.0589 19.5355H19.9411C20.2633 19.5355 20.5244 19.2743 20.5244 18.9521V13.5321C20.5244 13.2392 20.4142 12.9569 20.2157 12.7415L18.5914 10.8865C18.3705 10.6468 18.0594 10.5104 17.7335 10.5104H14.0589ZM15.1217 12.9375C14.8672 12.9375 14.661 13.1461 14.661 13.4005C14.661 13.655 14.8672 13.8636 15.1217 13.8636H18.5373C18.7917 13.8636 18.9979 13.655 18.9979 13.4005C18.9979 13.1461 18.7917 12.9375 18.5373 12.9375H15.1217ZM15.1217 14.6964C14.8672 14.6964 14.661 14.905 14.661 15.1594C14.661 15.4138 14.8672 15.6224 15.1217 15.6224H18.5373C18.7917 15.6224 18.9979 15.4138 18.9979 15.1594C18.9979 14.905 18.7917 14.6964 18.5373 14.6964H15.1217ZM14.661 16.8948C14.661 16.6404 14.8672 16.4318 15.1217 16.4318H17.5381C17.7926 16.4318 17.9988 16.6404 17.9988 16.8948C17.9988 17.1493 17.7926 17.3579 17.5381 17.3579H15.1217C14.8672 17.3579 14.661 17.1493 14.661 16.8948Z" fill="#3EAFD2"/>
</svg>
