<svg xmlns="http://www.w3.org/2000/svg" width="16" height="16" viewBox="0 0 16 16" fill="none">
    <mask id="path-1-inside-1_4415_4674" fill="white">
        <path d="M0 8C0 3.58172 3.58172 0 8 0C12.4183 0 16 3.58172 16 8C16 12.4183 12.4183 16 8 16C3.58172 16 0 12.4183 0 8Z"/>
    </mask>
    <path d="M0 8C0 3.58172 3.58172 0 8 0C12.4183 0 16 3.58172 16 8C16 12.4183 12.4183 16 8 16C3.58172 16 0 12.4183 0 8Z" fill="white"/>
    <path d="M8 16V15C4.13401 15 1 11.866 1 8H0H-1C-1 12.9706 3.02944 17 8 17V16ZM16 8H15C15 11.866 11.866 15 8 15V16V17C12.9706 17 17 12.9706 17 8H16ZM8 0V1C11.866 1 15 4.13401 15 8H16H17C17 3.02944 12.9706 -1 8 -1V0ZM8 0V-1C3.02944 -1 -1 3.02944 -1 8H0H1C1 4.13401 4.13401 1 8 1V0Z" fill="#EDEEF0" mask="url(#path-1-inside-1_4415_4674)"/>
    <path d="M5.97266 5.72698C6.22035 4.99171 6.87973 4.26074 8.0529 4.26074C8.85363 4.26074 10.0292 4.74248 10.0292 6.25676C10.0292 7.77104 7.95068 8.2366 7.95068 9.66667" stroke="#A8ADB4" stroke-width="1.2" stroke-linecap="round"/>
    <path d="M8 11.7397L8 11.667" stroke="#A8ADB4" stroke-width="1.5" stroke-linecap="round" stroke-linejoin="round"/>
    <rect x="0.5" y="0.5" width="15" height="15" rx="7.5" stroke="#EDEEF0"/>
</svg>