<svg width="32" height="32" viewBox="0 0 32 32" fill="none" xmlns="http://www.w3.org/2000/svg">
<path fill-rule="evenodd" clip-rule="evenodd" d="M16 31.9986C24.8366 31.9986 32 24.8355 32 15.9993C32 7.16312 24.8366 0 16 0C7.16344 0 0 7.16312 0 15.9993C0 24.8355 7.16344 31.9986 16 31.9986Z" fill="#1BCE7B"/>
<path d="M16.2578 6.30371C16.8166 6.30371 17.3508 6.53732 17.7295 6.94824L20.5137 10.1289C20.8537 10.4981 21.0429 10.9815 21.043 11.4834V13.2148C20.7083 13.1656 20.3659 13.1397 20.0176 13.1396C19.2445 13.1396 18.5008 13.266 17.8057 13.498C17.7511 13.486 17.6939 13.4795 17.6357 13.4795H11.7812C11.3451 13.4795 10.9912 13.8373 10.9912 14.2734C10.9912 14.7096 11.3451 15.0674 11.7812 15.0674H15.2031C14.7709 15.4792 14.3908 15.9448 14.0752 16.4551H11.7812C11.3452 16.4551 10.9914 16.812 10.9912 17.248C10.9912 17.6842 11.3451 18.042 11.7812 18.042H13.3496C13.1449 18.6989 13.0352 19.3978 13.0352 20.1221C13.0352 20.6918 13.1046 21.2453 13.2334 21.7754H9.95898C9.40677 21.7754 8.95906 21.3276 8.95898 20.7754V7.30371C8.95898 6.75143 9.4067 6.30371 9.95898 6.30371H16.2578ZM11.7812 10.4648C11.3452 10.4648 10.9914 10.8218 10.9912 11.2578C10.9912 11.694 11.3451 12.0518 11.7812 12.0518H17.6357C18.0719 12.0518 18.4258 11.694 18.4258 11.2578C18.4256 10.8218 18.0718 10.4648 17.6357 10.4648H11.7812Z" fill="white"/>
<path d="M16.3672 16.5086C17.7851 15.0329 19.958 14.5677 21.8564 15.3319C23.7547 16.0961 24.9989 17.9369 24.999 19.9832C25.0516 22.696 22.8963 24.9394 20.1836 24.995C18.139 25.0765 16.2496 23.9069 15.4102 22.0409C14.5709 20.1745 14.9494 17.9843 16.3672 16.5086ZM19.9824 16.8368C19.6352 16.837 19.3537 17.1194 19.3535 17.4666V19.9842C19.3538 20.3314 19.6352 20.6129 19.9824 20.6131C19.9855 20.6131 19.9891 20.6122 19.9922 20.6121H21.8721C22.2195 20.6121 22.5009 20.3307 22.501 19.9832C22.5007 19.6359 22.2194 19.3544 21.8721 19.3543H20.6123V17.4666C20.6121 17.1192 20.3299 16.8368 19.9824 16.8368Z" fill="white"/>
</svg>
