<svg width="32" height="32" viewBox="0 0 32 32" fill="none" xmlns="http://www.w3.org/2000/svg">
<path fill-rule="evenodd" clip-rule="evenodd" d="M16 31.9986C24.8366 31.9986 32 24.8355 32 15.9993C32 7.16312 24.8366 0 16 0C7.16344 0 0 7.16312 0 15.9993C0 24.8355 7.16344 31.9986 16 31.9986Z" fill="#1F86FF"/>
<path d="M23.87 22.1397C24.4104 22.1397 24.8485 22.5778 24.8485 23.1182C24.8485 23.6586 24.4104 24.0967 23.87 24.0967H17.8964C17.356 24.0966 16.9179 23.6585 16.9179 23.1182C16.9179 22.5778 17.3561 22.1397 17.8964 22.1397H23.87ZM13.2577 8.34473C12.6633 7.40299 17.6757 6.62042 18.0087 9.50391C18.1397 10.3731 18.1397 11.2568 18.0087 12.126C18.0285 12.124 18.7507 12.0596 18.2577 13.4639C18.2511 13.4884 17.9777 14.4841 17.5604 14.2578C17.5605 14.2589 17.5647 14.3747 17.5556 14.542H17.4823C15.5524 14.5421 15.0595 15.7804 15.0595 17.2813V23.5693H14.6991C12.5193 23.522 10.4636 23.1287 8.6415 22.4648C8.21449 22.3092 7.96506 21.8695 8.03798 21.4209C8.10535 21.0065 8.17985 20.6094 8.25575 20.3135C8.51891 19.2893 9.9965 18.5283 11.3563 17.9434C11.7123 17.7902 11.9282 17.6674 12.1454 17.5439C12.3574 17.4234 12.572 17.3014 12.9218 17.1484C12.9614 16.96 12.9777 16.7674 12.9696 16.5752L13.5722 16.5029C13.5753 16.5083 13.6488 16.6296 13.5243 15.8008C13.5243 15.8008 12.8467 15.625 12.8153 14.2773C12.8081 14.2797 12.3058 14.4406 12.2753 13.6299C12.2689 13.4674 12.2276 13.3108 12.1874 13.1611C12.0908 12.8017 12.0038 12.4796 12.4442 12.1992L12.1268 11.3525C12.1268 11.3525 11.7926 8.07982 13.2577 8.34473ZM23.87 19.2041C24.4104 19.2041 24.8485 19.6422 24.8485 20.1826C24.8485 20.723 24.4104 21.1611 23.87 21.1611H17.8964C17.356 21.1611 16.9179 20.723 16.9179 20.1826C16.9179 19.6423 17.3561 19.2042 17.8964 19.2041H23.87ZM23.87 16.2686C24.4104 16.2686 24.8485 16.7067 24.8485 17.2471C24.8485 17.7875 24.4104 18.2256 23.87 18.2256H17.8964C17.356 18.2255 16.9179 17.7874 16.9179 17.2471C16.9179 16.7067 17.3561 16.2686 17.8964 16.2686H23.87Z" fill="white"/>
</svg>
