<svg width="311" height="64" viewBox="0 0 311 64" fill="none" xmlns="http://www.w3.org/2000/svg">
<g opacity="0.8">
<rect x="35.5" y="13.7653" width="15" height="5" rx="2.5" fill="#555555"/>
<rect x="58.5" y="13.7653" width="15" height="5" rx="2.5" fill="#555555"/>
<path d="M54.5 15.456C53.9125 15.456 53.5 15.0068 53.5 14.4167C53.5 13.82 53.9125 13.3774 54.5 13.3774C55.0938 13.3774 55.5 13.82 55.5 14.4167C55.5 15.0068 55.0938 15.456 54.5 15.456ZM54.5 20.3774C53.9125 20.3774 53.5 19.9282 53.5 19.3315C53.5 18.7414 53.9125 18.2922 54.5 18.2922C55.0938 18.2922 55.5 18.7414 55.5 19.3315C55.5 19.9282 55.0938 20.3774 54.5 20.3774Z" fill="#555555"/>
<path d="M225 17.9159C225.446 17.9159 225.807 18.2642 225.808 18.6942V20.2518C225.808 20.682 225.446 21.0311 225 21.0311H224.192C223.746 21.0311 223.385 20.6819 223.385 20.2518V18.6942C223.385 18.2643 223.746 17.9159 224.192 17.9159H225ZM228.801 16.3583C229.247 16.3583 229.608 16.7066 229.608 17.1366V20.2518C229.608 20.682 229.247 21.0311 228.801 21.0311H227.993C227.547 21.031 227.186 20.6819 227.186 20.2518V17.1366C227.186 16.7067 227.547 16.3584 227.993 16.3583H228.801ZM232.602 14.5409C233.048 14.5409 233.409 14.89 233.409 15.3202V20.2528C233.409 20.6828 233.048 21.0311 232.602 21.0311H231.794C231.348 21.031 230.987 20.6827 230.986 20.2528V15.3202C230.986 14.8901 231.348 14.5411 231.794 14.5409H232.602ZM236.403 12.7235C236.849 12.7237 237.211 13.0728 237.211 13.5028V20.2528C237.211 20.6826 236.849 21.0309 236.403 21.0311H235.595C235.149 21.0309 234.787 20.6826 234.787 20.2528V13.5028C234.787 13.0728 235.149 12.7237 235.595 12.7235H236.403Z" fill="#555555"/>
<path d="M245.393 19.1794C246.376 18.3284 247.815 18.3283 248.798 19.1794C248.848 19.2251 248.877 19.29 248.878 19.3581C248.88 19.4264 248.853 19.4929 248.805 19.5407L247.266 21.1316C247.221 21.1781 247.159 21.2038 247.095 21.2038C247.031 21.2037 246.969 21.1782 246.924 21.1316L245.385 19.5407C245.338 19.4929 245.312 19.4264 245.313 19.3581C245.315 19.29 245.344 19.2251 245.393 19.1794ZM243.338 17.0583C245.456 15.0409 248.736 15.0409 250.854 17.0583C250.902 17.1055 250.928 17.1702 250.929 17.238C250.93 17.3061 250.905 17.3723 250.858 17.4206L249.967 18.3405C249.876 18.4346 249.727 18.437 249.633 18.3454C248.938 17.7006 248.033 17.3434 247.095 17.3435C246.158 17.3439 245.254 17.7011 244.559 18.3454C244.465 18.437 244.317 18.4346 244.225 18.3405L243.335 17.4206C243.288 17.3724 243.263 17.3061 243.263 17.238C243.264 17.1701 243.291 17.1055 243.338 17.0583ZM241.285 14.9411C244.533 11.7534 249.658 11.7533 252.906 14.9411C252.953 14.9885 252.98 15.0533 252.98 15.1208C252.98 15.1884 252.954 15.2536 252.908 15.3015L252.017 16.2224C251.925 16.3168 251.776 16.3173 251.683 16.2243C250.446 15.0195 248.803 14.3475 247.095 14.3474C245.388 14.3474 243.745 15.0195 242.507 16.2243C242.414 16.3175 242.265 16.3169 242.173 16.2224L241.283 15.3015C241.236 15.2535 241.21 15.1884 241.21 15.1208C241.211 15.0533 241.238 14.9884 241.285 14.9411Z" fill="#555555"/>
<g clip-path="url(#clip0_1_693)">
<rect opacity="0.4" x="257.326" y="12.7236" width="16.6154" height="8.30769" rx="2.42308" stroke="#555555" stroke-width="0.692308"/>
<path opacity="0.5" d="M274.98 15.4928V18.2621C275.538 18.0275 275.901 17.4819 275.901 16.8774C275.901 16.273 275.538 15.7274 274.98 15.4928" fill="#555555"/>
<rect x="258.364" y="13.7621" width="14.5385" height="6.23077" rx="1.38462" fill="#555555"/>
</g>
</g>
<g opacity="0.8">
<path d="M27.6539 46.752C27.8806 46.5256 28.2476 46.5255 28.4742 46.752C28.701 46.9787 28.701 47.3465 28.4742 47.5733L24.6285 51.419H36.7721C37.0926 51.419 37.3529 51.6786 37.3531 51.999C37.3531 52.3197 37.0927 52.5801 36.7721 52.5801H24.6276L28.4742 56.4277C28.7008 56.6545 28.7009 57.0214 28.4742 57.2481C28.2476 57.4747 27.8807 57.4747 27.6539 57.2481L22.816 52.4111C22.7026 52.2977 22.6461 52.1486 22.6461 52C22.6461 51.8515 22.7028 51.7032 22.816 51.5899L27.6539 46.752Z" fill="#555555"/>
</g>
<rect opacity="0.8" x="114" y="49" width="82" height="6" rx="3" fill="#555555"/>
<defs>
<clipPath id="clip0_1_693">
<rect width="18.9208" height="9" fill="white" transform="translate(256.98 12.3774)"/>
</clipPath>
</defs>
</svg>
