<svg width="95" height="94" viewBox="0 0 95 94" fill="none" xmlns="http://www.w3.org/2000/svg">
<g clip-path="url(#clip0_6838_155164)">
<rect x="24.0039" y="0.0649414" width="46.9904" height="93.723" rx="7.83333" fill="white"/>
<rect x="24.0039" y="0.0649414" width="46.9904" height="93.723" rx="7.83333" fill="url(#paint0_linear_6838_155164)"/>
<mask id="path-3-inside-1_6838_155164" fill="white">
<path d="M71.4531 17.2017C71.8857 17.2017 72.2365 17.5524 72.2365 17.985V28.021C72.2365 28.4536 71.8857 28.8043 71.4531 28.8043V17.2017Z"/>
</mask>
<path d="M71.4531 17.2017C71.8857 17.2017 72.2365 17.5524 72.2365 17.985V28.021C72.2365 28.4536 71.8857 28.8043 71.4531 28.8043V17.2017Z" fill="#555555"/>
<path d="M72.2365 17.985H71.1174V28.021H72.2365H73.3555V17.985H72.2365ZM71.4531 28.8043H72.5722V17.2017H71.4531H70.3341V28.8043H71.4531ZM72.2365 28.021H71.1174C71.1174 27.8356 71.2677 27.6853 71.4531 27.6853V28.8043V29.9234C72.5038 29.9234 73.3555 29.0717 73.3555 28.021H72.2365ZM71.4531 17.2017V18.3207C71.2677 18.3207 71.1174 18.1704 71.1174 17.985H72.2365H73.3555C73.3555 16.9343 72.5038 16.0826 71.4531 16.0826V17.2017Z" fill="#555555" mask="url(#path-3-inside-1_6838_155164)"/>
<mask id="path-5-inside-2_6838_155164" fill="white">
<path d="M71.4531 35.1826C71.8857 35.1826 72.2365 35.5333 72.2365 35.966V40.7925C72.2365 41.2251 71.8857 41.5758 71.4531 41.5758V35.1826Z"/>
</mask>
<path d="M71.4531 35.1826C71.8857 35.1826 72.2365 35.5333 72.2365 35.966V40.7925C72.2365 41.2251 71.8857 41.5758 71.4531 41.5758V35.1826Z" fill="#333333"/>
<path d="M72.2365 35.966H71.1174V40.7925H72.2365H73.3555V35.966H72.2365ZM71.4531 41.5758H72.5722V35.1826H71.4531H70.3341V41.5758H71.4531ZM72.2365 40.7925H71.1174C71.1174 40.6071 71.2677 40.4568 71.4531 40.4568V41.5758V42.6949C72.5038 42.6949 73.3555 41.8431 73.3555 40.7925H72.2365ZM71.4531 35.1826V36.3017C71.2677 36.3017 71.1174 36.1514 71.1174 35.966H72.2365H73.3555C73.3555 34.9153 72.5038 34.0636 71.4531 34.0636V35.1826Z" fill="#555555" mask="url(#path-5-inside-2_6838_155164)"/>
<rect x="24.8432" y="0.977958" width="45.772" height="92.0445" rx="4.75595" stroke="#555555" stroke-width="1.67857"/>
<rect x="46.3447" y="4.42085" width="2.76456" height="2.56526" rx="1.28263" fill="#555555" stroke="#555555" stroke-width="1.11905"/>
<g filter="url(#filter0_d_6838_155164)">
<path d="M57.0908 48.1001H57.0732V56.1587C57.073 56.4541 56.9549 56.7378 56.7461 56.9468C56.537 57.1555 56.2525 57.2739 55.957 57.2739H53.5742V62.2339C53.5739 62.7601 53.3643 63.2652 52.9922 63.6372C52.62 64.0089 52.1149 64.2182 51.5889 64.2183C51.0629 64.218 50.5575 64.0091 50.1855 63.6372C49.8136 63.2652 49.6047 62.76 49.6045 62.2339V57.2739H45.916V62.2339C45.9157 62.76 45.7061 63.2652 45.334 63.6372C44.9619 64.0088 44.4566 64.2181 43.9307 64.2183C43.4046 64.218 42.8984 64.0092 42.5264 63.6372C42.1546 63.2652 41.9455 62.7598 41.9453 62.2339V57.2739H39.5605C39.265 57.2737 38.9805 57.1557 38.7715 56.9468C38.5627 56.7378 38.4446 56.4541 38.4443 56.1587V48.1001H38.4268V40.4185H57.0908V48.1001ZM35.4502 39.7856C35.9759 39.7857 36.4804 39.9944 36.8525 40.3657C37.2247 40.7372 37.4345 41.2413 37.4355 41.7671V50.687C37.4352 51.2132 37.2257 51.7183 36.8535 52.0903C36.4813 52.462 35.9762 52.6713 35.4502 52.6714C34.9242 52.6712 34.4189 52.4623 34.0469 52.0903C33.6749 51.7183 33.465 51.2131 33.4648 50.687V41.7671C33.4659 41.2418 33.6763 40.7371 34.0479 40.3657C34.4197 39.9945 34.9248 39.786 35.4502 39.7856ZM60.0732 39.7856C60.599 39.7856 61.1034 39.9944 61.4756 40.3657C61.8477 40.7372 62.0576 41.2413 62.0586 41.7671V50.687C62.0585 50.9475 62.0069 51.2061 61.9072 51.4468C61.8075 51.6871 61.6615 51.9063 61.4775 52.0903C61.2933 52.2743 61.0736 52.4214 60.833 52.521C60.5924 52.6204 60.3336 52.6715 60.0732 52.6714C59.5472 52.6711 59.0419 52.4623 58.6699 52.0903C58.298 51.7183 58.089 51.2131 58.0889 50.687V41.7671C58.0899 41.2418 58.2994 40.7371 58.6709 40.3657C59.0427 39.9944 59.5478 39.7861 60.0732 39.7856ZM52.7139 30.3228C52.9479 29.9598 53.432 29.8554 53.7949 30.0894C54.1579 30.3234 54.2624 30.8074 54.0283 31.1704L53.0332 32.7124C56.8446 34.93 57.0194 39.2884 57.0205 39.3179H38.5117C38.5126 39.2876 38.6446 34.771 42.6309 32.5942L41.7129 31.1704C41.4788 30.8074 41.5833 30.3234 41.9463 30.0894C42.3092 29.8554 42.7933 29.9598 43.0273 30.3228L44.0898 31.9702C45.1153 31.6382 46.3289 31.4423 47.7656 31.4468C49.2761 31.4514 50.5406 31.6786 51.5986 32.0522L52.7139 30.3228ZM52.082 34.2007C51.4831 34.0606 50.8836 34.4319 50.7432 35.0308C50.6029 35.6297 50.9754 36.2291 51.5742 36.3696C52.173 36.5097 52.7725 36.1382 52.9131 35.5396C53.0534 34.9405 52.6811 34.3411 52.082 34.2007ZM44.7266 34.853C44.4887 34.2857 43.835 34.0186 43.2676 34.2563C42.7007 34.4945 42.4333 35.1472 42.6709 35.7144C42.9087 36.2816 43.5616 36.5484 44.1289 36.311C44.6962 36.0732 44.9642 35.4204 44.7266 34.853Z" fill="white"/>
</g>
</g>
<defs>
<filter id="filter0_d_6838_155164" x="31.2267" y="28.8453" width="33.0699" height="38.7301" filterUnits="userSpaceOnUse" color-interpolation-filters="sRGB">
<feFlood flood-opacity="0" result="BackgroundImageFix"/>
<feColorMatrix in="SourceAlpha" type="matrix" values="0 0 0 0 0 0 0 0 0 0 0 0 0 0 0 0 0 0 127 0" result="hardAlpha"/>
<feOffset dy="1.11905"/>
<feGaussianBlur stdDeviation="1.11905"/>
<feComposite in2="hardAlpha" operator="out"/>
<feColorMatrix type="matrix" values="0 0 0 0 0.247569 0 0 0 0 0.941613 0 0 0 0 0.825939 0 0 0 0.2 0"/>
<feBlend mode="normal" in2="BackgroundImageFix" result="effect1_dropShadow_6838_155164"/>
<feBlend mode="normal" in="SourceGraphic" in2="effect1_dropShadow_6838_155164" result="shape"/>
</filter>
<linearGradient id="paint0_linear_6838_155164" x1="47.4991" y1="93.788" x2="47.4991" y2="3.00315" gradientUnits="userSpaceOnUse">
<stop stop-color="#14B5C7" stop-opacity="0.75"/>
<stop offset="0.644056" stop-color="#1FD7BF" stop-opacity="0.8"/>
<stop offset="1" stop-color="#C6FFE4" stop-opacity="0.6"/>
</linearGradient>
<clipPath id="clip0_6838_155164">
<path d="M0.5 10.4444C0.5 4.67614 5.17614 0 10.9444 0H84.0556C89.8239 0 94.5 4.67614 94.5 10.4444V83.5556C94.5 89.3239 89.8239 94 84.0556 94H10.9444C5.17614 94 0.5 89.3239 0.5 83.5556V10.4444Z" fill="white"/>
</clipPath>
</defs>
</svg>
