<svg width="64" height="23" viewBox="0 0 64 23" fill="none" xmlns="http://www.w3.org/2000/svg">
<path d="M1.56789 13.0603C1.1133 12.7466 0.490535 12.8609 0.176897 13.3155C-0.136741 13.7701 -0.0224792 14.3928 0.432108 14.7065L1 13.8834L1.56789 13.0603ZM61.9878 1.34398C61.9016 0.798456 61.3895 0.426078 60.844 0.512246L51.9542 1.91645C51.4087 2.00262 51.0363 2.5147 51.1225 3.06022C51.2086 3.60574 51.7207 3.97812 52.2662 3.89195L60.1683 2.64378L61.4164 10.5458C61.5026 11.0913 62.0147 11.4637 62.5602 11.3775C63.1057 11.2914 63.4781 10.7793 63.392 10.2338L61.9878 1.34398ZM1 13.8834L0.432108 14.7065C6.4726 18.874 16.4949 23.0064 27.6867 22.4494C38.9317 21.8897 51.257 16.5986 61.8088 2.08812L61 1.5L60.1912 0.911877C49.98 14.9541 38.2027 19.9236 27.5872 20.4519C16.9185 20.9828 7.32227 17.0304 1.56789 13.0603L1 13.8834Z" fill="url(#paint0_linear_7749_132403)"/>
<defs>
<linearGradient id="paint0_linear_7749_132403" x1="0.999999" y1="15.1364" x2="49.9347" y2="-15.9298" gradientUnits="userSpaceOnUse">
<stop stop-color="#7AB7FF" stop-opacity="0"/>
<stop offset="1" stop-color="#7AB7FF"/>
</linearGradient>
</defs>
</svg>
