<svg width="20" height="21" viewBox="0 0 20 21" fill="none" xmlns="http://www.w3.org/2000/svg">
	<path d="M12.4997 5.61589C12.8578 4.86377 13.944 4.8643 14.3014 5.61687L14.3346 5.69499L17.737 14.5944C17.8518 14.895 17.7014 15.2321 17.401 15.3473C17.1001 15.4624 16.7622 15.3113 16.6471 15.0104L15.6872 12.4987H11.1081L10.1462 15.0104C10.031 15.311 9.69391 15.4621 9.39323 15.3473C9.09258 15.232 8.94224 14.8951 9.0573 14.5944L12.4665 5.69402L12.4997 5.61589ZM4.85222 7.30339C5.06838 7.06486 5.4367 7.04651 5.67546 7.26237L8.50847 9.82683C8.63037 9.93731 8.70073 10.0949 8.70085 10.2594C8.70069 10.4033 8.64641 10.5419 8.55144 10.6481L8.50847 10.6921L5.67546 13.2565C5.43673 13.4723 5.06838 13.4539 4.85222 13.2155C4.63627 12.9769 4.65416 12.6086 4.89226 12.3923L6.6032 10.8434H3.02605C2.70388 10.8434 2.44206 10.5816 2.44206 10.2594C2.44233 9.9375 2.70404 9.67644 3.02605 9.67644H6.6032L4.89226 8.12761C4.65372 7.91141 4.63625 7.54214 4.85222 7.30339ZM11.5553 11.3317H15.2399L13.4001 6.51823L11.5553 11.3317Z" fill="#525C69"/>
</svg>
