<svg width="20" height="20" viewBox="0 0 20 20" fill="none" xmlns="http://www.w3.org/2000/svg">
	<path d="M11.2878 4.16669C11.8374 4.16669 12.3653 4.38408 12.7555 4.77118L15.2174 7.21356C15.6115 7.60465 15.8336 8.13686 15.8336 8.69208V14.1667C15.8336 15.0872 15.0871 15.8337 14.1667 15.8337H5.83365C4.91317 15.8337 4.16666 15.0872 4.16666 14.1667V5.83368C4.16666 4.91321 4.91317 4.16669 5.83365 4.16669H11.2878ZM5.83365 5.33368C5.55751 5.33368 5.33365 5.55754 5.33365 5.83368V14.1667C5.33365 14.4428 5.55751 14.6667 5.83365 14.6667H14.1667C14.4428 14.6667 14.6667 14.4428 14.6667 14.1667V8.69208C14.6666 8.44779 14.5686 8.21374 14.3952 8.04169L11.9333 5.5993C11.7616 5.42907 11.5295 5.33368 11.2878 5.33368H5.83365ZM10.8307 10.3454C11.1759 10.3454 11.4557 10.6252 11.4557 10.9704C11.4555 11.3154 11.1758 11.5954 10.8307 11.5954H6.92056C6.57568 11.5952 6.29574 11.3153 6.29556 10.9704C6.29556 10.6254 6.57557 10.3456 6.92056 10.3454H10.8307ZM11.9157 7.64032C12.2607 7.64032 12.5404 7.92037 12.5407 8.26532C12.5407 8.6105 12.2609 8.89032 11.9157 8.89032H6.92056C6.57557 8.8901 6.29556 8.61036 6.29556 8.26532C6.29583 7.9205 6.57573 7.64054 6.92056 7.64032H11.9157Z" fill="#525C69"/>
</svg>
