<svg width="28" height="24" viewBox="0 0 28 24" fill="none" xmlns="http://www.w3.org/2000/svg">
	<path fill-rule="evenodd" clip-rule="evenodd" d="M16.5836 5.25165C17.5499 5.25191 18.3327 6.03531 18.3327 7.00165V8.2995H18.4997C19.7423 8.2995 20.7496 9.30693 20.7497 10.5495V14.0778C20.7497 15.3205 19.7423 16.3278 18.4997 16.3278H18.3327V17.0007C18.3324 17.9668 17.5498 18.7504 16.5836 18.7507H11.4167C10.4503 18.7507 9.66692 17.9669 9.66666 17.0007V16.3278H9.50162C8.25898 16.3278 7.25162 15.3205 7.25162 14.0778V10.5495C7.25171 9.30693 8.25903 8.2995 9.50162 8.2995H9.66666V7.00165C9.66666 6.03515 10.4502 5.25165 11.4167 5.25165H16.5836ZM11.4167 13.7507C11.0945 13.7507 10.8336 14.0115 10.8336 14.3337V17.0007C10.8339 17.3226 11.0947 17.5837 11.4167 17.5837H16.5836C16.9054 17.5834 17.1664 17.3225 17.1667 17.0007V14.3337C17.1667 14.0117 16.9056 13.7509 16.5836 13.7507H11.4167ZM9.50162 9.46649C8.90336 9.46649 8.41772 9.95127 8.41763 10.5495V14.0778C8.41763 14.6761 8.90331 15.1618 9.50162 15.1618H9.66666V14.3337C9.66666 13.3672 10.4502 12.5837 11.4167 12.5837H16.5836C17.5499 12.5839 18.3327 13.3673 18.3327 14.3337V15.1618H18.4997C19.098 15.1618 19.5827 14.6761 19.5827 14.0778V10.5495C19.5826 9.95127 19.0979 9.46649 18.4997 9.46649H9.50162ZM17.7506 10.4626C18.0726 10.4628 18.3336 10.7245 18.3336 11.0466C18.3334 11.3684 18.0725 11.6294 17.7506 11.6296H15.9167C15.5947 11.6296 15.3329 11.3685 15.3327 11.0466C15.3327 10.7244 15.5945 10.4626 15.9167 10.4626H17.7506ZM11.4167 6.41766C11.0945 6.41766 10.8336 6.67948 10.8336 7.00165V8.2995H17.1667V7.00165C17.1667 6.67964 16.9056 6.41793 16.5836 6.41766H11.4167Z" fill="#525C69"/>
</svg>
