<svg xmlns="http://www.w3.org/2000/svg" width="41" height="41" viewBox="0 0 41 41" fill="none">
	<g clip-path="url(#clip0_1839_12568)">
		<rect width="41" height="41" fill="#1F86FF"/>
		<path d="M22.2642 13.9561C23.4717 13.9562 24.4507 14.935 24.4507 16.1426V17.4443L26.7271 15.8447C28.1035 14.8779 29.9985 15.8627 29.9985 17.5449V23.4502C29.9984 25.1349 28.098 26.1188 26.7222 25.1465L24.4507 23.541V24.8574C24.4505 26.0649 23.4716 27.0438 22.2642 27.0439H13.188C11.9804 27.0439 11.0016 26.0649 11.0015 24.8574V16.1426C11.0015 14.9349 11.9803 13.9561 13.188 13.9561H22.2642ZM13.188 15.4863C12.8257 15.4863 12.5317 15.7803 12.5317 16.1426V24.8574C12.5319 25.2196 12.8258 25.5127 13.188 25.5127H22.2642C22.6262 25.5125 22.9193 25.2195 22.9194 24.8574V16.1426C22.9194 15.7804 22.6263 15.4865 22.2642 15.4863H13.188ZM28.4673 17.5449C28.4673 17.1022 27.9692 16.8431 27.6069 17.0977L24.4585 19.3096V21.6719L27.606 23.8965C27.968 24.1519 28.4671 23.8933 28.4673 23.4502V17.5449Z" fill="white"/>
	</g>
	<defs>
		<clipPath id="clip0_1839_12568">
			<rect width="41" height="41" rx="8" fill="white"/>
		</clipPath>
	</defs>
</svg>