<svg xmlns:xlink="http://www.w3.org/1999/xlink" xmlns="http://www.w3.org/2000/svg" viewBox="0 0 100% 100%"
	preserveAspectRatio="xMinYMin meet" style="width: 100%; height: 100%" fill="none">

	<svg height="100%">
		<rect width="100%" height="100%" fill="white" />
	</svg>

	<svg height="100%" id="animated-elements">
		<mask id="mask0_780_166140" style="mask-type:alpha" maskUnits="userSpaceOnUse" x="0" y="0" width="215" height="13">
			<path d="M210 0C212.761 1.28851e-06 215 2.23858 215 5V8C215 10.7614 212.761 13 210 13H5C2.23858 13 4.83208e-08 10.7614 0 8V5C0 2.23858 2.23858 0 5 0H210Z" fill="#D4E5BA"/>
		</mask>
		<g mask="url(#mask0_780_166140)">
			<path d="M-8.9585 -3.29834H230.229V13.2912H-8.9585V-3.29834Z" fill="#EDEEF0"/>
			<rect x="-152.763" y="-36.2144" width="305.362" height="52.9286" fill="url(#paint0_linear_780_166140)"/>
		</g>
		<defs>
			<linearGradient id="paint0_linear_780_166140" x1="-152.763" y1="-9.57246" x2="152.599" y2="-9.57249" gradientUnits="userSpaceOnUse">
				<stop stop-color="#EDEEF0" stop-opacity="0"/>
				<stop offset="0.54574" stop-color="#D2D8E3" stop-opacity="0.68"/>
				<stop offset="1" stop-color="#DDE1E9" stop-opacity="0"/>
			</linearGradient>
		</defs>
	</svg>

	<rect id="msk1" width="100%" fill="url(#msk_gd)" mask="url(#headerMsk)" height="1270"/>

	<mask id="headerMsk" fill="white">
		<use xlink:href="#animated-elements"/>
	</mask>

	<linearGradient x1="66.6%" y1="50%" x2="33.3%" y2="50%" id="msk_gd">
		<stop stop-color="#000000" stop-opacity="0" offset="0%"/>
		<stop stop-color="#000000" stop-opacity="0.07" offset="50%"/>
		<stop stop-color="#000000" stop-opacity="0" offset="100%"/>
	</linearGradient>

	<animate xlink:href="#msk1" attributeName="x" from="-100%" to="100%" dur="1s" begin="0s" repeatCount="indefinite"/>
</svg>