<svg width="112" height="112" viewBox="0 0 112 112" fill="none" xmlns="http://www.w3.org/2000/svg">
<circle opacity="0.12" cx="56" cy="56" r="56" fill="#BDC1C6"/>
<g filter="url(#filter0_d_12708_193331)">
<path d="M29.2676 28.6357C29.2676 27.2539 30.3877 26.1338 31.7695 26.1338H88.8015C90.6434 26.1338 92.1365 27.6269 92.1365 29.4688V38.9853C92.1365 40.8272 90.6434 42.3203 88.8015 42.3203H31.7695C30.3877 42.3203 29.2676 41.2002 29.2676 39.8184V28.6357Z" fill="white"/>
</g>
<rect opacity="0.5" x="33.6951" y="30.3955" width="18.595" height="2.55577" rx="1.27788" fill="#BDC1C6"/>
<rect x="33.6951" y="35.5039" width="35.4191" height="2.55577" rx="1.27788" fill="#525C69" fill-opacity="0.1"/>
<circle cx="18.8233" cy="34.0594" r="6.37778" fill="#C9CCD0"/>
<g filter="url(#filter1_d_12708_193331)">
<path d="M41.6643 49.164C41.6643 47.7822 42.7844 46.6621 44.1662 46.6621H101.198C103.04 46.6621 104.533 48.1553 104.533 49.9972V59.5136C104.533 61.3555 103.04 62.8486 101.198 62.8486H44.1662C42.7844 62.8486 41.6643 61.7285 41.6643 60.3468V49.164Z" fill="white"/>
</g>
<rect opacity="0.5" x="46.0906" y="50.9238" width="16.8241" height="2.55577" rx="1.27788" fill="#BDC1C6"/>
<rect x="46.0906" y="56.0322" width="38.0756" height="2.55577" rx="1.27788" fill="#525C69" fill-opacity="0.1"/>
<circle cx="31.2179" cy="54.5863" r="6.37535" fill="#C9CCD0"/>
<g filter="url(#filter2_d_12708_193331)">
<path d="M29.2688 69.6937C29.2688 68.3122 30.3887 67.1924 31.7701 67.1924H89.6882C91.5301 67.1924 93.0232 68.6855 93.0232 70.5274V80.0439C93.0232 81.8858 91.5301 83.3789 89.6882 83.3789H31.7707C30.3889 83.3789 29.2688 82.2588 29.2688 80.877V69.6937Z" fill="white"/>
</g>
<rect opacity="0.5" x="33.6963" y="71.4521" width="15.0531" height="2.55577" rx="1.27788" fill="#BDC1C6"/>
<rect x="33.6963" y="76.5625" width="38.0756" height="2.55577" rx="1.27788" fill="#525C69" fill-opacity="0.1"/>
<circle cx="18.8221" cy="75.118" r="6.37778" fill="#C9CCD0"/>
<defs>
<filter id="filter0_d_12708_193331" x="26.5774" y="24.4524" width="68.2493" height="21.5669" filterUnits="userSpaceOnUse" color-interpolation-filters="sRGB">
<feFlood flood-opacity="0" result="BackgroundImageFix"/>
<feColorMatrix in="SourceAlpha" type="matrix" values="0 0 0 0 0 0 0 0 0 0 0 0 0 0 0 0 0 0 127 0" result="hardAlpha"/>
<feOffset dy="1.00882"/>
<feGaussianBlur stdDeviation="1.3451"/>
<feComposite in2="hardAlpha" operator="out"/>
<feColorMatrix type="matrix" values="0 0 0 0 0.423529 0 0 0 0 0.423529 0 0 0 0 0.423529 0 0 0 0.1 0"/>
<feBlend mode="normal" in2="BackgroundImageFix" result="effect1_dropShadow_12708_193331"/>
<feBlend mode="normal" in="SourceGraphic" in2="effect1_dropShadow_12708_193331" result="shape"/>
</filter>
<filter id="filter1_d_12708_193331" x="38.9741" y="44.9807" width="68.2493" height="21.5669" filterUnits="userSpaceOnUse" color-interpolation-filters="sRGB">
<feFlood flood-opacity="0" result="BackgroundImageFix"/>
<feColorMatrix in="SourceAlpha" type="matrix" values="0 0 0 0 0 0 0 0 0 0 0 0 0 0 0 0 0 0 127 0" result="hardAlpha"/>
<feOffset dy="1.00882"/>
<feGaussianBlur stdDeviation="1.3451"/>
<feComposite in2="hardAlpha" operator="out"/>
<feColorMatrix type="matrix" values="0 0 0 0 0.423529 0 0 0 0 0.423529 0 0 0 0 0.423529 0 0 0 0.1 0"/>
<feBlend mode="normal" in2="BackgroundImageFix" result="effect1_dropShadow_12708_193331"/>
<feBlend mode="normal" in="SourceGraphic" in2="effect1_dropShadow_12708_193331" result="shape"/>
</filter>
<filter id="filter2_d_12708_193331" x="26.5786" y="65.511" width="69.1348" height="21.5669" filterUnits="userSpaceOnUse" color-interpolation-filters="sRGB">
<feFlood flood-opacity="0" result="BackgroundImageFix"/>
<feColorMatrix in="SourceAlpha" type="matrix" values="0 0 0 0 0 0 0 0 0 0 0 0 0 0 0 0 0 0 127 0" result="hardAlpha"/>
<feOffset dy="1.00882"/>
<feGaussianBlur stdDeviation="1.3451"/>
<feComposite in2="hardAlpha" operator="out"/>
<feColorMatrix type="matrix" values="0 0 0 0 0.423529 0 0 0 0 0.423529 0 0 0 0 0.423529 0 0 0 0.1 0"/>
<feBlend mode="normal" in2="BackgroundImageFix" result="effect1_dropShadow_12708_193331"/>
<feBlend mode="normal" in="SourceGraphic" in2="effect1_dropShadow_12708_193331" result="shape"/>
</filter>
</defs>
</svg>
