<svg width="32" height="32" viewBox="0 0 32 32" fill="none" xmlns="http://www.w3.org/2000/svg">
<g clip-path="url(#clip0_3634_88531)">
<rect width="32" height="32" fill="#FAA72C"/>
<path d="M11.873 13.8051C11.873 13.4657 12.1482 13.1905 12.4877 13.1905H15.1218C15.4613 13.1905 15.7364 13.4657 15.7364 13.8051C15.7364 14.1446 15.4613 14.4197 15.1218 14.4197H12.4877C12.1482 14.4197 11.873 14.1446 11.873 13.8051Z" fill="white"/>
<path d="M11.873 16.4393C11.873 16.0998 12.1482 15.8246 12.4877 15.8246H15.1218C15.4613 15.8246 15.7364 16.0998 15.7364 16.4393C15.7364 16.7787 15.4613 17.0539 15.1218 17.0539L12.4877 17.0539C12.1482 17.0539 11.873 16.7787 11.873 16.4393Z" fill="white"/>
<path d="M12.4877 18.4588C12.1482 18.4588 11.873 18.734 11.873 19.0734C11.873 19.4129 12.1482 19.688 12.4877 19.688L15.1218 19.688C15.4613 19.688 15.7364 19.4129 15.7364 19.0734C15.7364 18.734 15.4613 18.4588 15.1218 18.4588H12.4877Z" fill="white"/>
<path d="M19.9514 15.3856C20.2909 15.3856 20.5661 15.6608 20.5661 16.0002V16.8783C20.5661 17.2177 20.2909 17.4929 19.9514 17.4929C19.612 17.4929 19.3368 17.2177 19.3368 16.8783V16.0002C19.3368 15.6608 19.612 15.3856 19.9514 15.3856Z" fill="white"/>
<path d="M20.5661 18.8976C20.5661 18.5582 20.2909 18.283 19.9514 18.283C19.612 18.283 19.3368 18.5582 19.3368 18.8976V19.7757C19.3368 20.1151 19.612 20.3903 19.9514 20.3903C20.2909 20.3903 20.5661 20.1151 20.5661 19.7757V18.8976Z" fill="white"/>
<path fill-rule="evenodd" clip-rule="evenodd" d="M18.3706 12.8627V11.1638C18.3706 9.91217 17.1938 9.00201 15.9841 9.29415L10.7147 10.3853L10.7029 10.3882C9.84486 10.6014 9.23889 11.3693 9.23889 12.2546V21.5319H8.97547C8.63602 21.5319 8.36084 21.8071 8.36084 22.1466C8.36084 22.486 8.63602 22.7612 8.97547 22.7612H23.0243C23.3637 22.7612 23.6389 22.486 23.6389 22.1466C23.6389 21.8071 23.3637 21.5319 23.0243 21.5319H22.7608V14.9644C22.7608 14.2529 22.2586 13.6403 21.5609 13.5007L18.3706 12.8627ZM16.2677 10.4903C16.716 10.3789 17.1413 10.7165 17.1413 11.1638V21.5319H10.4682V12.2546C10.4682 11.942 10.6803 11.6652 10.9894 11.5837L16.2559 10.4932L16.2677 10.4903ZM18.3706 21.5319H21.5316V14.9644C21.5316 14.8389 21.4429 14.7308 21.3198 14.7061L18.3706 14.1163V21.5319Z" fill="white"/>
</g>
<defs>
<clipPath id="clip0_3634_88531">
<path d="M0 16C0 7.16344 7.16344 0 16 0C24.8366 0 32 7.16344 32 16C32 24.8366 24.8366 32 16 32C7.16344 32 0 24.8366 0 16Z" fill="white"/>
</clipPath>
</defs>
</svg>
