<svg width="22" height="22" viewBox="0 0 22 22" fill="none" xmlns="http://www.w3.org/2000/svg">
	<path d="M14.1599 12.9738C14.4399 13.0311 14.6503 13.2787 14.6503 13.5757C14.6503 13.8727 14.4399 14.1203 14.1599 14.1777L14.0355 14.1905H7.96294C7.62348 14.1905 7.34813 13.9152 7.34813 13.5757C7.34813 13.2363 7.62348 12.9609 7.96294 12.9609H14.0355L14.1599 12.9738Z" fill="#0075FF"/>
	<path d="M14.1599 10.3397C14.4399 10.397 14.6503 10.6446 14.6503 10.9416C14.6503 11.2386 14.4399 11.4862 14.1599 11.5435L14.0355 11.5564H7.96294C7.62348 11.5564 7.34813 11.2811 7.34813 10.9416C7.34813 10.6021 7.62348 10.3268 7.96294 10.3268H14.0355L14.1599 10.3397Z" fill="#0075FF"/>
	<path fill-rule="evenodd" clip-rule="evenodd" d="M15.0371 4.32879C16.4915 4.32912 17.6711 5.50842 17.6712 6.96294V15.0377C17.6711 16.4922 16.4915 17.6716 15.0371 17.6719H6.96227C5.50761 17.6718 4.32822 16.4924 4.32812 15.0377V6.96294C4.32822 5.50828 5.50761 4.32889 6.96227 4.32879H15.0371ZM6.96227 5.5584C6.18652 5.5585 5.55783 6.18718 5.55774 6.96294V15.0377C5.55783 15.8135 6.18652 16.4422 6.96227 16.4423H15.0371C15.8126 16.4419 16.4415 15.8133 16.4416 15.0377V6.96294C16.4415 6.18733 15.8126 5.55873 15.0371 5.5584H6.96227Z" fill="#0075FF"/>
</svg>
