<svg width="32" height="32" viewBox="0 0 32 32" fill="none" xmlns="http://www.w3.org/2000/svg">
<g clip-path="url(#clip0_31529_48805)">
<rect width="32" height="32" fill="#00ACE3"/>
<path fill-rule="evenodd" clip-rule="evenodd" d="M16.0374 16.4389C12.9003 16.4389 12.1632 11.9508 14.3843 10.3649C14.7531 10.1016 15.462 9.85352 16.0374 9.85352C20.1288 9.85352 19.8036 16.4389 16.0374 16.4389ZM14.9966 11.2224C15.0675 11.1718 15.2302 11.0861 15.4559 11.0136C15.6777 10.9422 15.8874 10.9072 16.0374 10.9072C16.7445 10.9072 17.1833 11.1762 17.4652 11.5342C17.7707 11.9223 17.9462 12.4914 17.9306 13.1202C17.9151 13.7483 17.7106 14.3388 17.3803 14.7499C17.0688 15.1374 16.636 15.3852 16.0374 15.3852C15.0956 15.3852 14.452 14.7488 14.2292 13.7641C13.9962 12.7346 14.3236 11.7029 14.9966 11.2224Z" fill="white"/>
<path d="M12.4829 11.3682C12.5051 11.3682 12.5271 11.3684 12.5489 11.3689C12.4107 11.7172 12.3185 12.0825 12.269 12.4514C12.2275 12.4612 12.1828 12.4735 12.1362 12.4888C11.9865 12.5378 11.8929 12.5916 11.8689 12.609C11.4739 12.8963 11.2348 13.5669 11.3952 14.2884C11.5463 14.9685 11.9524 15.3194 12.4829 15.3194C12.5323 15.3194 12.5796 15.3166 12.625 15.3111C12.7382 15.7437 12.8479 16.1495 12.8982 16.3343C12.7667 16.3597 12.6282 16.373 12.4829 16.373C10.1418 16.373 9.59171 12.9621 11.2492 11.7568C11.5245 11.5567 12.0535 11.3682 12.4829 11.3682Z" fill="white"/>
<path d="M9.92279 17.4013C10.5567 17.0032 11.3063 16.8328 12.0185 16.7839C12.0161 16.9272 11.9836 17.0689 11.8988 17.1845C11.7626 17.3701 11.5668 17.5828 11.3456 17.823C11.2974 17.8754 11.248 17.9291 11.1977 17.9841C10.9376 18.0582 10.6961 18.1599 10.4832 18.2936C10.0185 18.5855 9.65024 19.0533 9.53777 19.8413H9.87031C9.72285 20.1693 9.61647 20.5204 9.57601 20.895H9.30476C8.84092 20.895 8.42455 20.5097 8.4618 19.9996C8.55322 18.7475 9.11782 17.907 9.92279 17.4013Z" fill="white"/>
<path d="M19.5622 11.3687C22.5575 11.4284 22.3009 16.373 19.5073 16.373C19.3607 16.373 19.2212 16.3597 19.0889 16.3343C19.1206 16.19 19.1971 15.9389 19.2902 15.6331C19.321 15.5318 19.3537 15.4245 19.3872 15.3132C19.4264 15.3173 19.4665 15.3194 19.5073 15.3194C19.8594 15.3194 20.1068 15.1771 20.2952 14.9383C20.5027 14.6754 20.6423 14.2799 20.6529 13.8451C20.6635 13.4094 20.5427 13.0349 20.357 12.7946C20.2399 12.6431 20.0769 12.5151 19.8282 12.4564C19.7838 12.0868 19.6965 11.7195 19.5622 11.3687Z" fill="white"/>
<path d="M22.695 20.895H22.4237C22.3833 20.5204 22.2769 20.1693 22.1294 19.8413H22.462C22.3495 19.0533 21.9813 18.5855 21.5165 18.2936C21.3036 18.1599 21.0621 18.0582 20.802 17.9841C20.7518 17.9291 20.7023 17.8754 20.6541 17.823C20.433 17.5828 20.2372 17.3701 20.101 17.1845C20.0161 17.0688 19.9851 16.9269 19.9778 16.7837C20.6909 16.8322 21.442 17.0025 22.077 17.4013C22.8819 17.907 23.4465 18.7475 23.538 19.9996C23.5752 20.5097 23.1588 20.895 22.695 20.895Z" fill="white"/>
<path fill-rule="evenodd" clip-rule="evenodd" d="M12.4556 17.7605C13.5134 17.1538 14.8186 16.9657 15.9999 16.9657C17.1811 16.9657 18.4864 17.1538 19.5442 17.7605C20.6334 18.3852 21.4257 19.4368 21.5564 21.0488C21.603 21.6237 21.1326 22.0584 20.6096 22.0584H11.3901C10.8671 22.0584 10.3967 21.6237 10.4433 21.0488C10.5741 19.4368 11.3663 18.3852 12.4556 17.7605ZM11.5059 21.0047H20.4938C20.3635 19.8289 19.7914 19.1169 19.02 18.6745C18.1892 18.198 17.0949 18.0194 15.9999 18.0194C14.9048 18.0194 13.8105 18.198 12.9798 18.6745C12.2083 19.1169 11.6363 19.8289 11.5059 21.0047Z" fill="white"/>
</g>
<defs>
<clipPath id="clip0_31529_48805">
<path d="M0 16C0 7.16344 7.16344 0 16 0C24.8366 0 32 7.16344 32 16C32 24.8366 24.8366 32 16 32C7.16344 32 0 24.8366 0 16Z" fill="white"/>
</clipPath>
</defs>
</svg>
