<svg xmlns="http://www.w3.org/2000/svg" width="18" height="18" fill="none"><g clip-path="url(#a)"><path fill="#fff" d="M0 9a9 9 0 1 1 18 0A9 9 0 0 1 0 9Z"/><path fill="#0075FF" d="M9.012 13.63c-.634 0-1.2-.11-1.7-.329a2.883 2.883 0 0 1-1.177-.909 2.414 2.414 0 0 1-.461-1.357h1.45c.018.28.112.523.281.73.172.202.397.36.674.47.277.11.585.166.923.166.373 0 .702-.064.988-.194.29-.129.516-.309.679-.54.163-.234.245-.503.245-.808a1.45 1.45 0 0 0-.245-.835 1.594 1.594 0 0 0-.706-.573c-.308-.138-.68-.207-1.118-.207h-.798V8.08h.798c.351 0 .659-.063.924-.189.267-.126.477-.302.627-.526.151-.228.227-.494.227-.799 0-.292-.066-.546-.199-.762a1.334 1.334 0 0 0-.554-.512 1.8 1.8 0 0 0-.84-.185c-.308 0-.596.057-.863.171-.265.11-.48.27-.647.48a1.235 1.235 0 0 0-.267.743h-1.38c.015-.51.166-.96.452-1.348.289-.387.67-.69 1.145-.909.474-.219 1-.328 1.578-.328.607 0 1.13.119 1.57.356.443.234.785.546 1.025.937.243.39.363.818.36 1.283.003.53-.145.979-.443 1.348-.296.37-.69.617-1.182.743v.074c.628.096 1.114.345 1.459.748.348.403.52.904.517 1.5.003.52-.142.987-.434 1.4-.29.412-.685.736-1.187.973-.501.234-1.075.351-1.721.351Z"/><rect width="17" height="17" x=".5" y=".5" stroke="#0075FF" rx="8.5"/></g><defs><clipPath id="a"><path fill="#fff" d="M0 9a9 9 0 1 1 18 0A9 9 0 0 1 0 9Z"/></clipPath></defs></svg>