<svg xmlns="http://www.w3.org/2000/svg" width="18" height="18" fill="none"><g clip-path="url(#a)"><path fill="#fff" d="M0 9a9 9 0 1 1 18 0A9 9 0 0 1 0 9Z"/><path fill="#0075FF" d="M5.923 13.5v-1.034l3.2-3.315c.341-.36.623-.675.844-.946.225-.274.393-.534.503-.78a1.89 1.89 0 0 0 .166-.785 1.46 1.46 0 0 0-.221-.813 1.45 1.45 0 0 0-.605-.53 1.923 1.923 0 0 0-.863-.19c-.339 0-.634.07-.886.208a1.424 1.424 0 0 0-.582.586 1.847 1.847 0 0 0-.203.887H5.914c0-.576.132-1.08.397-1.51.265-.43.628-.765 1.09-1.002.461-.24.986-.36 1.574-.36.594 0 1.117.119 1.57.356.455.234.81.554 1.066.96.255.403.383.859.383 1.366 0 .351-.066.694-.199 1.03-.129.335-.355.71-.678 1.122-.324.409-.773.906-1.348 1.49l-1.88 1.967v.07h4.257V13.5H5.923Z"/><rect width="17" height="17" x=".5" y=".5" stroke="#0075FF" rx="8.5"/></g><defs><clipPath id="a"><path fill="#fff" d="M0 9a9 9 0 1 1 18 0A9 9 0 0 1 0 9Z"/></clipPath></defs></svg>