<svg xmlns="http://www.w3.org/2000/svg" width="223" height="40" viewBox="0 0 223 40" fill="none">
	<g clip-path="url(#clip0_578_83541)">
		<path d="M5.3924 24.7176V15.6368H7.56925C9.5251 15.6368 11.1273 15.8693 12.2766 16.5559C13.4257 17.2425 14.1109 18.3942 14.1109 20.2326C14.1109 23.3333 12.2766 24.7176 7.92285 24.7176H5.3924ZM0.1105 29.0808H7.79025C16.3871 29.0808 19.4811 25.2824 19.4811 20C19.4811 16.4341 17.9894 14.031 15.3485 12.6467C13.2821 11.495 10.6412 11.1517 7.43665 11.1517H5.3703V4.25249H16.9507L18.332 0H0V29.0698H0.1105V29.0808ZM23.0503 29.0808H28.1002L34.6307 19.6567C35.8904 17.9291 36.8076 16.2126 37.3822 15.2824H37.4926C37.3822 16.5449 37.2606 18.1617 37.2606 19.7674V28.959H42.421V8.2835H37.3711L30.8405 17.7076C29.6914 19.4352 28.6637 21.1517 28.0891 22.0819H27.9786C28.0891 20.8195 28.2107 19.2027 28.2107 17.5969V8.40532H23.0503V29.0919V29.0808ZM51.2499 29.0808H56.5318V12.6467H62.7198L64.1011 8.27242H44.9514V12.6467H51.2499V29.0808ZM65.9243 39.5349H71.0847V29.0808C72.1123 29.4241 73.151 29.546 74.3002 29.546C80.8307 29.546 85.074 25.0609 85.074 18.6268C85.074 12.1927 81.1733 7.70764 73.7256 7.70764C70.8526 7.70764 68.1122 8.2835 65.8138 8.9701L65.9243 39.5349ZM71.0847 24.5958V12.4142C71.8913 12.1816 72.5764 12.0709 73.4936 12.0709C77.2837 12.0709 79.6815 14.1417 79.6815 18.6157C79.6815 22.6357 77.7367 25.1606 73.8361 25.1606C72.8084 25.1606 72.0018 24.928 71.0847 24.5847V24.5958ZM88.168 29.0808H93.2178L99.7483 19.6567C101.008 17.9291 101.925 16.2126 102.5 15.2824H102.61C102.5 16.5449 102.378 18.1617 102.378 19.7674V28.959H107.539V8.2835H102.489L95.9582 17.7076C94.809 19.4352 93.7813 21.1517 93.2067 22.0819H93.0963C93.2067 20.8195 93.3283 19.2027 93.3283 17.5969V8.40532H88.168V29.0919V29.0808ZM111.671 29.0808H116.953V20.4651H120.047C120.622 20.4651 121.196 21.041 121.882 22.4252L124.522 29.0919H130.136L126.346 21.1628C125.661 19.7785 124.964 18.9812 123.937 18.6379V18.5271C125.661 17.4972 125.882 14.5072 126.92 13.0122C127.263 12.5471 127.727 12.3256 128.412 12.3256C128.755 12.3256 129.219 12.3256 129.561 12.5581V8.07309C128.987 7.84053 127.959 7.72979 127.384 7.72979C125.55 7.72979 124.401 8.41639 123.594 9.56811C121.87 12.093 121.87 16.4563 119.351 16.4563H116.942V8.29457H111.66V29.0919L111.671 29.0808ZM141.827 29.5349C144.7 29.5349 147.33 28.6157 148.932 27.464L147.44 23.8981C145.948 24.7065 144.567 25.2824 142.622 25.2824C139.064 25.2824 136.777 22.979 136.777 18.7375C136.777 14.9391 139.075 11.9601 142.965 11.9601C145.031 11.9601 146.523 12.536 148.015 13.5659V9.08084C146.866 8.39424 145.031 7.69657 142.401 7.69657C136.213 7.69657 131.396 12.2924 131.396 18.8372C131.396 24.8062 135.064 29.5238 141.827 29.5238V29.5349Z" fill="white"/>
		<path d="M171.857 7.58582C171.857 3.21152 168.873 0 162.575 0C158.674 0 155.238 1.15172 152.939 2.30343L154.321 6.44518C156.387 5.41528 158.796 4.48505 161.768 4.48505C164.067 4.48505 166.243 5.51495 166.243 8.16168C166.243 14.1307 153.061 14.5958 151.912 29.1916H172.089V24.7065H158.785C160.619 17.3533 171.857 15.7475 171.857 7.58582Z" fill="white"/>
		<path d="M193.191 0H189.401L175.069 18.6157V22.0598H188.031V29.1805H193.191V22.0598H197.545V17.6855H193.191V0ZM188.019 13.6766V17.8184H184.583C183.555 17.8184 181.599 17.9291 180.914 17.9291L188.252 8.05094C188.252 8.85936 188.019 11.3843 188.019 13.6766Z" fill="white"/>
		<path d="M211.762 0C205.574 0 200.524 5.06091 200.524 11.2625C200.635 17.5748 205.574 22.5249 211.762 22.5249C217.95 22.5249 223 17.464 223 11.2625C223 5.06091 217.95 0 211.762 0ZM211.762 19.7785C207.088 19.7785 203.375 16.0465 203.265 11.2625C203.265 6.57807 207.088 2.7464 211.762 2.7464C216.436 2.7464 220.26 6.57807 220.26 11.2625C220.26 15.9468 216.436 19.7785 211.762 19.7785Z" fill="white"/>
		<path d="M212.43 5.49316H210.222V12.9018H217.682V10.7091H212.43V5.49316Z" fill="white"/>
	</g>
	<defs>
		<clipPath id="clip0_578_83541">
			<rect width="223" height="40" fill="white"/>
		</clipPath>
	</defs>
</svg>
