<svg width="30" height="54" viewBox="0 0 30 54" fill="none" xmlns="http://www.w3.org/2000/svg">
	<path d="M0.666748 5.28261C0.666748 2.3651 3.05152 0 5.99328 0H24.3402C27.282 0 29.6667 2.3651 29.6667 5.28261V48.7174C29.6667 51.6349 27.282 54 24.3402 54H5.99328C3.05152 54 0.666748 51.6349 0.666748 48.7174V5.28261Z" fill="#0F0F0F"/>
	<path d="M24.3402 53.413V54H5.99328V53.413H24.3402ZM29.0749 48.7174V5.28261C29.0749 2.68927 26.9551 0.586957 24.3402 0.586957H5.99328C3.37838 0.586957 1.25858 2.68927 1.25858 5.28261V48.7174C1.25858 51.3107 3.37838 53.413 5.99328 53.413V54L5.71932 53.9931C2.90488 53.8517 0.666748 51.5438 0.666748 48.7174V5.28261C0.666748 2.3651 3.05152 0 5.99328 0H24.3402C27.282 0 29.6667 2.3651 29.6667 5.28261V48.7174C29.6667 51.6349 27.282 54 24.3402 54V53.413C26.9551 53.413 29.0749 51.3107 29.0749 48.7174Z" fill="#0075FF"/>
	<path d="M11.6101 3.30615C11.6101 3.00183 11.8589 2.75513 12.1657 2.75513H18.1677C18.4746 2.75513 18.7233 3.00183 18.7233 3.30615C18.7233 3.61047 18.4746 3.85717 18.1677 3.85717H12.1657C11.8589 3.85717 11.6101 3.61047 11.6101 3.30615Z" fill="#828B95"/>
	<path d="M12.3076 43.8083C12.3076 43.4685 12.3076 43.2986 12.3764 43.1697C12.4319 43.0657 12.5177 42.9807 12.6225 42.9256C12.7524 42.8574 12.9238 42.8574 13.2664 42.8574H16.9334C17.2761 42.8574 17.4474 42.8574 17.5773 42.9256C17.6822 42.9807 17.7679 43.0657 17.8234 43.1697C17.8922 43.2986 17.8922 43.4685 17.8922 43.8083V46.2909C17.8922 46.6307 17.8922 46.8007 17.8234 46.9295C17.7679 47.0335 17.6822 47.1185 17.5773 47.1736C17.4474 47.2418 17.2761 47.2418 16.9334 47.2418H13.2664C12.9238 47.2418 12.7524 47.2418 12.6225 47.1736C12.5177 47.1185 12.4319 47.0335 12.3764 46.9295C12.3076 46.8007 12.3076 46.6307 12.3076 46.2909V43.8083Z" fill="#062040"/>
	<path d="M21.4458 43.8083C21.4458 43.4685 21.4458 43.2986 21.5146 43.1697C21.5701 43.0657 21.6559 42.9807 21.7607 42.9256C21.8906 42.8574 22.0619 42.8574 22.4046 42.8574H26.0716C26.4143 42.8574 26.5856 42.8574 26.7155 42.9256C26.8203 42.9807 26.9061 43.0657 26.9616 43.1697C27.0304 43.2986 27.0304 43.4685 27.0304 43.8083V46.2909C27.0304 46.6307 27.0304 46.8007 26.9616 46.9295C26.9061 47.0335 26.8203 47.1185 26.7155 47.1736C26.5856 47.2418 26.4143 47.2418 26.0716 47.2418H22.4046C22.0619 47.2418 21.8906 47.2418 21.7607 47.1736C21.6559 47.1185 21.5701 47.0335 21.5146 46.9295C21.4458 46.8007 21.4458 46.6307 21.4458 46.2909V43.8083Z" fill="#062040"/>
	<path d="M3.30322 43.8083C3.30322 43.4685 3.30322 43.2986 3.37201 43.1697C3.42753 43.0657 3.51327 42.9807 3.61812 42.9256C3.74805 42.8574 3.91936 42.8574 4.262 42.8574H7.55546C7.89809 42.8574 8.06941 42.8574 8.19934 42.9256C8.30418 42.9807 8.38993 43.0657 8.44544 43.1697C8.51424 43.2986 8.51424 43.4685 8.51424 43.8083V46.2504C8.51424 46.5903 8.51424 46.7602 8.44544 46.889C8.38993 46.993 8.30418 47.078 8.19934 47.1331C8.06941 47.2013 7.89809 47.2013 7.55546 47.2013H4.262C3.91936 47.2013 3.74805 47.2013 3.61812 47.1331C3.51327 47.078 3.42753 46.993 3.37201 46.889C3.30322 46.7602 3.30322 46.5903 3.30322 46.2504V43.8083Z" fill="#062040"/>
	<path d="M3.67676 48.0809C3.67676 47.8547 3.86162 47.6714 4.08967 47.6714H7.83306C8.06111 47.6714 8.24597 47.8547 8.24597 48.0809V48.1208C8.24597 48.347 8.06111 48.5303 7.83306 48.5303H4.08967C3.86162 48.5303 3.67676 48.347 3.67676 48.1208V48.0809Z" fill="#062040"/>
	<path d="M12.8149 48.0809C12.8149 47.8547 12.9998 47.6714 13.2279 47.6714H16.9712C17.1993 47.6714 17.3842 47.8547 17.3842 48.0809V48.1208C17.3842 48.347 17.1993 48.5303 16.9712 48.5303H13.2279C12.9998 48.5303 12.8149 48.347 12.8149 48.1208V48.0809Z" fill="#062040"/>
	<path d="M21.9531 48.0809C21.9531 47.8547 22.138 47.6714 22.366 47.6714H26.1094C26.3375 47.6714 26.5223 47.8547 26.5223 48.0809V48.1208C26.5223 48.347 26.3375 48.5303 26.1094 48.5303H22.366C22.138 48.5303 21.9531 48.347 21.9531 48.1208V48.0809Z" fill="#062040"/>
	<path d="M3.30322 7.17241C3.30322 6.84824 3.5682 6.58545 3.89506 6.58545H26.4387C26.7655 6.58545 27.0305 6.84824 27.0305 7.17241V8.63264C27.0305 8.95681 26.7655 9.2196 26.4387 9.2196H3.89506C3.5682 9.2196 3.30322 8.95681 3.30322 8.63264V7.17241Z" fill="#062040"/>
	<path d="M3.30322 11.1641C3.30322 10.8399 3.5682 10.5771 3.89506 10.5771H13.9563C14.2831 10.5771 14.5481 10.8399 14.5481 11.1641V11.9658C14.5481 12.29 14.2831 12.5528 13.9563 12.5528H3.89506C3.5682 12.5528 3.30322 12.29 3.30322 11.9658V11.1641Z" fill="#062040"/>
	<path d="M3.03418 36.3912C3.03418 35.7429 3.56413 35.2173 4.21785 35.2173H26.1158C26.7695 35.2173 27.2995 35.7429 27.2995 36.3912V38.739C27.2995 39.3874 26.7695 39.9129 26.1158 39.9129H4.21785C3.56413 39.9129 3.03418 39.3874 3.03418 38.739V36.3912Z" fill="#1B79E6"/>
</svg>
