<svg width="29" height="54" viewBox="0 0 29 54" fill="none" xmlns="http://www.w3.org/2000/svg">
	<path d="M0 5.28261C0 2.3651 2.38477 0 5.32653 0H23.6735C26.6152 0 29 2.3651 29 5.28261V48.7174C29 51.6349 26.6152 54 23.6735 54H5.32653C2.38477 54 0 51.6349 0 48.7174V5.28261Z" fill="white"/>
	<path d="M23.6735 53.413V54H5.32653V53.413H23.6735ZM28.4082 48.7174V5.28261C28.4082 2.68927 26.2884 0.586957 23.6735 0.586957H5.32653C2.71163 0.586957 0.591837 2.68927 0.591837 5.28261V48.7174C0.591837 51.3107 2.71163 53.413 5.32653 53.413V54L5.05258 53.9931C2.23813 53.8517 0 51.5438 0 48.7174V5.28261C0 2.3651 2.38477 0 5.32653 0H23.6735C26.6152 0 29 2.3651 29 5.28261V48.7174C29 51.6349 26.6152 54 23.6735 54V53.413C26.2884 53.413 28.4082 51.3107 28.4082 48.7174Z" fill="#0075FF"/>
	<path d="M10.9434 3.30615C10.9434 3.00183 11.1921 2.75513 11.499 2.75513H17.501C17.8078 2.75513 18.0566 3.00183 18.0566 3.30615C18.0566 3.61047 17.8078 3.85717 17.501 3.85717H11.499C11.1921 3.85717 10.9434 3.61047 10.9434 3.30615Z" fill="#828B95"/>
	<path d="M11.6409 43.8083C11.6409 43.4685 11.6409 43.2986 11.7097 43.1697C11.7652 43.0657 11.8509 42.9807 11.9558 42.9256C12.0857 42.8574 12.257 42.8574 12.5996 42.8574H16.2667C16.6093 42.8574 16.7806 42.8574 16.9106 42.9256C17.0154 42.9807 17.1012 43.0657 17.1567 43.1697C17.2255 43.2986 17.2255 43.4685 17.2255 43.8083V46.2909C17.2255 46.6308 17.2255 46.8007 17.1567 46.9295C17.1012 47.0335 17.0154 47.1185 16.9106 47.1736C16.7806 47.2418 16.6093 47.2418 16.2667 47.2418H12.5996C12.257 47.2418 12.0857 47.2418 11.9558 47.1736C11.8509 47.1185 11.7652 47.0335 11.7097 46.9295C11.6409 46.8007 11.6409 46.6308 11.6409 46.2909V43.8083Z" fill="#E6F4FF"/>
	<path d="M20.7791 43.8083C20.7791 43.4685 20.7791 43.2986 20.8478 43.1697C20.9034 43.0657 20.9891 42.9807 21.094 42.9256C21.2239 42.8574 21.3952 42.8574 21.7378 42.8574H25.4049C25.7475 42.8574 25.9188 42.8574 26.0488 42.9256C26.1536 42.9807 26.2393 43.0657 26.2949 43.1697C26.3636 43.2986 26.3636 43.4685 26.3636 43.8083V46.2909C26.3636 46.6308 26.3636 46.8007 26.2949 46.9295C26.2393 47.0335 26.1536 47.1185 26.0488 47.1736C25.9188 47.2418 25.7475 47.2418 25.4049 47.2418H21.7378C21.3952 47.2418 21.2239 47.2418 21.094 47.1736C20.9891 47.1185 20.9034 47.0335 20.8478 46.9295C20.7791 46.8007 20.7791 46.6308 20.7791 46.2909V43.8083Z" fill="#E6F4FF"/>
	<path d="M2.63647 43.8083C2.63647 43.4685 2.63647 43.2986 2.70527 43.1697C2.76078 43.0657 2.84652 42.9807 2.95137 42.9256C3.0813 42.8574 3.25262 42.8574 3.59525 42.8574H6.88871C7.23135 42.8574 7.40266 42.8574 7.53259 42.9256C7.63744 42.9807 7.72318 43.0657 7.77869 43.1697C7.84749 43.2986 7.84749 43.4685 7.84749 43.8083V46.2504C7.84749 46.5903 7.84749 46.7602 7.77869 46.889C7.72318 46.993 7.63744 47.078 7.53259 47.1331C7.40266 47.2013 7.23135 47.2013 6.88871 47.2013H3.59525C3.25262 47.2013 3.0813 47.2013 2.95137 47.1331C2.84652 47.078 2.76078 46.993 2.70527 46.889C2.63647 46.7602 2.63647 46.5903 2.63647 46.2504V43.8083Z" fill="#E6F4FF"/>
	<path d="M3.0105 48.0809C3.0105 47.8547 3.19536 47.6714 3.42341 47.6714H7.1668C7.39485 47.6714 7.57971 47.8547 7.57971 48.0809V48.1208C7.57971 48.347 7.39485 48.5303 7.1668 48.5303H3.42341C3.19536 48.5303 3.0105 48.347 3.0105 48.1208V48.0809Z" fill="#E6F4FF"/>
	<path d="M12.1484 48.0809C12.1484 47.8547 12.3333 47.6714 12.5613 47.6714H16.3047C16.5328 47.6714 16.7177 47.8547 16.7177 48.0809V48.1208C16.7177 48.347 16.5328 48.5303 16.3047 48.5303H12.5613C12.3333 48.5303 12.1484 48.347 12.1484 48.1208V48.0809Z" fill="#E6F4FF"/>
	<path d="M21.2866 48.0809C21.2866 47.8547 21.4715 47.6714 21.6995 47.6714H25.4429C25.671 47.6714 25.8558 47.8547 25.8558 48.0809V48.1208C25.8558 48.347 25.671 48.5303 25.4429 48.5303H21.6995C21.4715 48.5303 21.2866 48.347 21.2866 48.1208V48.0809Z" fill="#E6F4FF"/>
	<path d="M2.63647 7.17241C2.63647 6.84824 2.90145 6.58545 3.22831 6.58545H25.7719C26.0988 6.58545 26.3638 6.84824 26.3638 7.17241V8.63264C26.3638 8.95681 26.0988 9.2196 25.7719 9.2196H3.22831C2.90145 9.2196 2.63647 8.95681 2.63647 8.63264V7.17241Z" fill="#E6F4FF"/>
	<path d="M2.63647 11.1641C2.63647 10.8399 2.90145 10.5771 3.22831 10.5771H13.2895C13.6164 10.5771 13.8814 10.8399 13.8814 11.1641V11.9658C13.8814 12.29 13.6164 12.5528 13.2895 12.5528H3.22831C2.90145 12.5528 2.63647 12.29 2.63647 11.9658V11.1641Z" fill="#E6F4FF"/>
	<path d="M2.36743 36.3912C2.36743 35.7429 2.89738 35.2173 3.5511 35.2173H25.4491C26.1028 35.2173 26.6327 35.7429 26.6327 36.3912V38.739C26.6327 39.3874 26.1028 39.9129 25.4491 39.9129H3.55111C2.89738 39.9129 2.36743 39.3874 2.36743 38.739V36.3912Z" fill="#1F86FF"/>
</svg>
