<svg width="30" height="54" viewBox="0 0 30 54" fill="none" xmlns="http://www.w3.org/2000/svg">
	<path d="M0.333252 5.28261C0.333252 2.3651 2.71802 0 5.65978 0H24.0067C26.9485 0 29.3333 2.3651 29.3333 5.28261V48.7174C29.3333 51.6349 26.9485 54 24.0067 54H5.65978C2.71802 54 0.333252 51.6349 0.333252 48.7174V5.28261Z" fill="#0F0F0F"/>
	<path d="M24.0067 53.413V54H5.65978V53.413H24.0067ZM28.7414 48.7174V5.28261C28.7414 2.68927 26.6216 0.586957 24.0067 0.586957H5.65978C3.04488 0.586957 0.925089 2.68927 0.925089 5.28261V48.7174C0.925089 51.3107 3.04488 53.413 5.65978 53.413V54L5.38583 53.9931C2.57138 53.8517 0.333252 51.5438 0.333252 48.7174V5.28261C0.333252 2.3651 2.71802 0 5.65978 0H24.0067C26.9485 0 29.3333 2.3651 29.3333 5.28261V48.7174C29.3333 51.6349 26.9485 54 24.0067 54V53.413C26.6216 53.413 28.7414 51.3107 28.7414 48.7174Z" fill="#0075FF"/>
	<path d="M11.2769 3.30615C11.2769 3.00183 11.5256 2.75513 11.8325 2.75513H17.8345C18.1413 2.75513 18.3901 3.00183 18.3901 3.30615C18.3901 3.61047 18.1413 3.85717 17.8345 3.85717H11.8325C11.5256 3.85717 11.2769 3.61047 11.2769 3.30615Z" fill="#828B95"/>
	<path d="M11.9741 43.8083C11.9741 43.4685 11.9741 43.2986 12.0429 43.1697C12.0984 43.0657 12.1842 42.9807 12.289 42.9256C12.4189 42.8574 12.5903 42.8574 12.9329 42.8574H16.5999C16.9426 42.8574 17.1139 42.8574 17.2438 42.9256C17.3487 42.9807 17.4344 43.0657 17.4899 43.1697C17.5587 43.2986 17.5587 43.4685 17.5587 43.8083V46.2909C17.5587 46.6307 17.5587 46.8007 17.4899 46.9295C17.4344 47.0335 17.3487 47.1185 17.2438 47.1736C17.1139 47.2418 16.9426 47.2418 16.5999 47.2418H12.9329C12.5903 47.2418 12.4189 47.2418 12.289 47.1736C12.1842 47.1185 12.0984 47.0335 12.0429 46.9295C11.9741 46.8007 11.9741 46.6307 11.9741 46.2909V43.8083Z" fill="#062040"/>
	<path d="M21.1123 43.8083C21.1123 43.4685 21.1123 43.2986 21.1811 43.1697C21.2366 43.0657 21.3224 42.9807 21.4272 42.9256C21.5571 42.8574 21.7284 42.8574 22.0711 42.8574H25.7381C26.0808 42.8574 26.2521 42.8574 26.382 42.9256C26.4869 42.9807 26.5726 43.0657 26.6281 43.1697C26.6969 43.2986 26.6969 43.4685 26.6969 43.8083V46.2909C26.6969 46.6307 26.6969 46.8007 26.6281 46.9295C26.5726 47.0335 26.4869 47.1185 26.382 47.1736C26.2521 47.2418 26.0808 47.2418 25.7381 47.2418H22.0711C21.7284 47.2418 21.5571 47.2418 21.4272 47.1736C21.3224 47.1185 21.2366 47.0335 21.1811 46.9295C21.1123 46.8007 21.1123 46.6307 21.1123 46.2909V43.8083Z" fill="#062040"/>
	<path d="M2.96973 43.8083C2.96973 43.4685 2.96973 43.2986 3.03852 43.1697C3.09403 43.0657 3.17978 42.9807 3.28463 42.9256C3.41455 42.8574 3.58587 42.8574 3.9285 42.8574H7.22196C7.5646 42.8574 7.73592 42.8574 7.86584 42.9256C7.97069 42.9807 8.05643 43.0657 8.11195 43.1697C8.18074 43.2986 8.18074 43.4685 8.18074 43.8083V46.2504C8.18074 46.5903 8.18074 46.7602 8.11195 46.889C8.05643 46.993 7.97069 47.078 7.86584 47.1331C7.73592 47.2013 7.5646 47.2013 7.22196 47.2013H3.9285C3.58587 47.2013 3.41455 47.2013 3.28463 47.1331C3.17978 47.078 3.09403 46.993 3.03852 46.889C2.96973 46.7602 2.96973 46.5903 2.96973 46.2504V43.8083Z" fill="#062040"/>
	<path d="M3.34326 48.0809C3.34326 47.8547 3.52813 47.6714 3.75617 47.6714H7.49957C7.72761 47.6714 7.91248 47.8547 7.91248 48.0809V48.1208C7.91248 48.347 7.72761 48.5303 7.49957 48.5303H3.75617C3.52813 48.5303 3.34326 48.347 3.34326 48.1208V48.0809Z" fill="#062040"/>
	<path d="M12.4814 48.0809C12.4814 47.8547 12.6663 47.6714 12.8944 47.6714H16.6378C16.8658 47.6714 17.0507 47.8547 17.0507 48.0809V48.1208C17.0507 48.347 16.8658 48.5303 16.6378 48.5303H12.8944C12.6663 48.5303 12.4814 48.347 12.4814 48.1208V48.0809Z" fill="#062040"/>
	<path d="M21.6196 48.0809C21.6196 47.8547 21.8045 47.6714 22.0325 47.6714H25.7759C26.004 47.6714 26.1888 47.8547 26.1888 48.0809V48.1208C26.1888 48.347 26.004 48.5303 25.7759 48.5303H22.0325C21.8045 48.5303 21.6196 48.347 21.6196 48.1208V48.0809Z" fill="#062040"/>
	<path d="M2.96973 7.17241C2.96973 6.84824 3.2347 6.58545 3.56156 6.58545H26.1052C26.432 6.58545 26.697 6.84824 26.697 7.17241V8.63264C26.697 8.95681 26.432 9.2196 26.1052 9.2196H3.56156C3.2347 9.2196 2.96973 8.95681 2.96973 8.63264V7.17241Z" fill="#062040"/>
	<path d="M2.96973 11.1641C2.96973 10.8399 3.2347 10.5771 3.56156 10.5771H13.6228C13.9496 10.5771 14.2146 10.8399 14.2146 11.1641V11.9658C14.2146 12.29 13.9496 12.5528 13.6228 12.5528H3.56156C3.2347 12.5528 2.96973 12.29 2.96973 11.9658V11.1641Z" fill="#062040"/>
	<path d="M2.70068 36.3912C2.70068 35.7429 3.23063 35.2173 3.88436 35.2173H25.7823C26.436 35.2173 26.966 35.7429 26.966 36.3912V38.739C26.966 39.3874 26.436 39.9129 25.7823 39.9129H3.88436C3.23063 39.9129 2.70068 39.3874 2.70068 38.739V36.3912Z" fill="#1B79E6"/>
	<path d="M2.96964 43.8084C2.96964 43.4686 2.96964 43.2987 3.03843 43.1698C3.09395 43.0658 3.17969 42.9808 3.28454 42.9257C3.41447 42.8575 3.58578 42.8575 3.92842 42.8575H7.22188C7.56451 42.8575 7.73583 42.8575 7.86576 42.9257C7.9706 42.9808 8.05635 43.0658 8.11186 43.1698C8.18065 43.2987 8.18065 43.4686 8.18065 43.8084V46.2505C8.18065 46.5903 8.18065 46.7602 8.11186 46.8891C8.05635 46.9931 7.9706 47.0781 7.86576 47.1332C7.73583 47.2014 7.56451 47.2014 7.22188 47.2014H3.92842C3.58578 47.2014 3.41447 47.2014 3.28454 47.1332C3.17969 47.0781 3.09395 46.9931 3.03843 46.8891C2.96964 46.7602 2.96964 46.5903 2.96964 46.2505V43.8084Z" fill="#E6F4FF"/>
	<path d="M3.34343 48.0809C3.34343 47.8547 3.5283 47.6714 3.75634 47.6714H7.49974C7.72778 47.6714 7.91265 47.8547 7.91265 48.0809V48.1208C7.91265 48.347 7.72778 48.5303 7.49974 48.5303H3.75634C3.5283 48.5303 3.34343 48.347 3.34343 48.1208V48.0809Z" fill="#E6F4FF"/>
	<path d="M2.96964 11.164C2.96964 10.8398 3.23462 10.577 3.56148 10.577H13.6227C13.9496 10.577 14.2145 10.8398 14.2145 11.164V11.9657C14.2145 12.2899 13.9496 12.5526 13.6227 12.5526H3.56148C3.23462 12.5526 2.96964 12.2899 2.96964 11.9657V11.164Z" fill="#E6F4FF"/>
	<path fill-rule="evenodd" clip-rule="evenodd" d="M0.333252 5.28261V48.7174C0.333252 51.6349 2.71802 54 5.65978 54H14.8333V48.5303H12.8944C12.6663 48.5303 12.4815 48.347 12.4815 48.1208V48.0809C12.4815 47.8547 12.6663 47.6714 12.8944 47.6714H14.8333V47.2419H12.9328C12.5902 47.2419 12.4189 47.2419 12.289 47.1737C12.1841 47.1186 12.0984 47.0336 12.0428 46.9296C11.9741 46.8007 11.9741 46.6308 11.9741 46.291V43.8084C11.9741 43.4686 11.9741 43.2987 12.0428 43.1698C12.0984 43.0658 12.1841 42.9808 12.289 42.9257C12.4189 42.8575 12.5902 42.8575 12.9328 42.8575H14.8333V39.913H3.88427C3.23055 39.913 2.7006 39.3875 2.7006 38.7391V36.3913C2.7006 35.743 3.23055 35.2174 3.88427 35.2174H14.8333L14.8333 9.21949H3.56148C3.23462 9.21949 2.96964 8.9567 2.96964 8.63254V7.1723C2.96964 6.84814 3.23462 6.58535 3.56148 6.58535H9.19738H14.8333V9.21949L14.8333 3.85713H11.8323C11.5255 3.85713 11.2767 3.61043 11.2767 3.3061C11.2767 3.00178 11.5255 2.75508 11.8323 2.75508H14.8333L14.8333 0H5.65978C2.71802 0 0.333252 2.3651 0.333252 5.28261ZM7.22188 42.8575H3.92842C3.58578 42.8575 3.41447 42.8575 3.28454 42.9257C3.17969 42.9808 3.09395 43.0658 3.03843 43.1698C2.96964 43.2987 2.96964 43.4686 2.96964 43.8084V46.2505C2.96964 46.5903 2.96964 46.7602 3.03843 46.8891C3.09395 46.9931 3.17969 47.0781 3.28454 47.1332C3.41447 47.2014 3.58578 47.2014 3.92842 47.2014H7.22188C7.56451 47.2014 7.73583 47.2014 7.86576 47.1332C7.9706 47.0781 8.05635 46.9931 8.11186 46.8891C8.18065 46.7602 8.18065 46.5903 8.18065 46.2505V43.8084C8.18065 43.4686 8.18065 43.2987 8.11186 43.1698C8.05635 43.0658 7.9706 42.9808 7.86576 42.9257C7.73583 42.8575 7.56451 42.8575 7.22188 42.8575ZM7.49974 47.6714H3.75634C3.5283 47.6714 3.34343 47.8547 3.34343 48.0809V48.1208C3.34343 48.347 3.5283 48.5303 3.75634 48.5303H7.49974C7.72778 48.5303 7.91265 48.347 7.91265 48.1208V48.0809C7.91265 47.8547 7.72778 47.6714 7.49974 47.6714ZM13.6227 10.577H3.56148C3.23462 10.577 2.96964 10.8398 2.96964 11.164V11.9657C2.96964 12.2899 3.23462 12.5526 3.56148 12.5526H13.6227C13.9496 12.5526 14.2145 12.2899 14.2145 11.9657V11.164C14.2145 10.8398 13.9496 10.577 13.6227 10.577Z" fill="white"/>
	<path d="M2.7006 36.3913V38.7391C2.7006 39.3875 3.23055 39.913 3.88427 39.913H14.8333V35.2174H3.88427C3.23055 35.2174 2.7006 35.743 2.7006 36.3913Z" fill="#1F86FF"/>
	<path d="M2.96964 7.1723V8.63254C2.96964 8.9567 3.23462 9.21949 3.56148 9.21949H14.8333V6.58535H9.19738H3.56148C3.23462 6.58535 2.96964 6.84814 2.96964 7.1723Z" fill="#E6F4FF"/>
	<path d="M11.9741 43.8084V46.291C11.9741 46.6308 11.9741 46.8007 12.0428 46.9296C12.0984 47.0336 12.1841 47.1186 12.289 47.1737C12.4189 47.2419 12.5902 47.2419 12.9328 47.2419H14.8333V42.8575H12.9328C12.5902 42.8575 12.4189 42.8575 12.289 42.9257C12.1841 42.9808 12.0984 43.0658 12.0428 43.1698C11.9741 43.2987 11.9741 43.4686 11.9741 43.8084Z" fill="#E6F4FF"/>
	<path d="M12.4815 48.0809V48.1208C12.4815 48.347 12.6663 48.5303 12.8944 48.5303H14.8333V47.6714H12.8944C12.6663 47.6714 12.4815 47.8547 12.4815 48.0809Z" fill="#E6F4FF"/>
	<path d="M11.2767 3.3061C11.2767 3.61043 11.5255 3.85713 11.8323 3.85713H14.8333V2.75508H11.8323C11.5255 2.75508 11.2767 3.00178 11.2767 3.3061Z" fill="#828B95"/>
	<path d="M5.65978 0.586957C3.04488 0.586957 0.925089 2.68927 0.925089 5.28261V48.7174C0.925089 51.3107 3.04488 53.413 5.65978 53.413H14.8333V54H5.65978L5.38583 53.9931C2.66212 53.8563 0.478178 51.6903 0.340188 48.9891L0.333252 48.7174V5.28261C0.333252 2.45623 2.57138 0.148291 5.38583 0.0068784L5.65978 0H14.8333V0.586957H5.65978Z" fill="#0075FF"/>
</svg>
