<svg width="34" height="34" viewBox="0 0 34 34" fill="none" xmlns="http://www.w3.org/2000/svg">
<circle cx="17" cy="17" r="17" fill="url(#paint0_radial_5557_34061)"/>
<path fill-rule="evenodd" clip-rule="evenodd" d="M17 34C26.3888 34 34 26.3888 34 17C34 7.61116 26.3888 0 17 0C7.61116 0 0 7.61116 0 17C0 26.3888 7.61116 34 17 34ZM17.0001 32.5141C25.5683 32.5141 32.5141 25.5683 32.5141 17.0001C32.5141 8.43195 25.5683 1.48608 17.0001 1.48608C8.43195 1.48608 1.48608 8.43195 1.48608 17.0001C1.48608 25.5683 8.43195 32.5141 17.0001 32.5141Z" fill="url(#paint1_radial_5557_34061)"/>
<path fill-rule="evenodd" clip-rule="evenodd" d="M17 34C26.3888 34 34 26.3888 34 17C34 7.61116 26.3888 0 17 0C7.61116 0 0 7.61116 0 17C0 26.3888 7.61116 34 17 34ZM17.0001 32.5141C25.5683 32.5141 32.5141 25.5683 32.5141 17.0001C32.5141 8.43195 25.5683 1.48608 17.0001 1.48608C8.43195 1.48608 1.48608 8.43195 1.48608 17.0001C1.48608 25.5683 8.43195 32.5141 17.0001 32.5141Z" fill="#EC6460" fill-opacity="0.3"/>
<ellipse opacity="0.3" cx="26.4884" cy="17.3954" rx="7.51163" ry="11.0698" fill="url(#paint2_radial_5557_34061)"/>
<ellipse opacity="0.3" cx="5.93023" cy="17.7907" rx="5.93023" ry="10.6744" fill="url(#paint3_radial_5557_34061)"/>
<path fill-rule="evenodd" clip-rule="evenodd" d="M11.4473 27.3198C11.4473 27.6284 11.7207 27.7987 11.9028 27.6035C13.3937 26.0074 15.1915 25.3301 17.1272 25.3306C19.0633 25.3311 20.8603 26.01 22.3505 27.6066C22.5326 27.8018 22.8059 27.6315 22.8059 27.3234V26.3272C22.8059 26.2221 22.7721 26.1201 22.7128 26.0502C21.1553 24.2062 19.223 23.3594 17.1276 23.3588C15.0322 23.3583 13.0991 24.2036 11.5409 26.0466C11.4816 26.117 11.4477 26.2185 11.4477 26.3236L11.4473 27.3198Z" fill="#783E11"/>
<path fill-rule="evenodd" clip-rule="evenodd" d="M23.8865 18.0014C23.8865 18.9211 23.1499 19.6665 22.2415 19.6665C21.3332 19.6665 20.5965 18.9211 20.5965 18.0014C20.5965 17.0812 21.3332 16.3358 22.2415 16.3358C23.1499 16.3358 23.8865 17.0812 23.8865 18.0014Z" fill="#783E11"/>
<path fill-rule="evenodd" clip-rule="evenodd" d="M9.12752 18.0014C9.12752 18.9211 9.86376 19.6665 10.7721 19.6665C11.6809 19.6665 12.4171 18.9211 12.4171 18.0014C12.4171 17.0812 11.6809 16.3358 10.7721 16.3358C9.86376 16.3358 9.12752 17.0812 9.12752 18.0014Z" fill="#783E11"/>
<path fill-rule="evenodd" clip-rule="evenodd" d="M19.98 17.8827C21.4629 17.8362 22.8566 17.3996 23.8892 16.5543C24.4232 16.1174 25.4363 15.271 25.6884 14.7214C25.7518 14.5819 25.7402 14.4275 25.6689 14.2953L25.6474 14.2556C25.428 13.8501 24.744 13.828 24.4757 14.2267C24.2489 14.5629 23.3365 15.2146 22.9894 15.4985C22.1406 16.1928 21.0479 16.6111 19.8629 16.7647C19.4257 16.8213 19.1752 17.2335 19.3564 17.5683C19.466 17.7717 19.712 17.8912 19.98 17.8827Z" fill="#783E11"/>
<path fill-rule="evenodd" clip-rule="evenodd" d="M13.3092 17.8676C11.8263 17.8211 10.4326 17.3845 9.39997 16.5392C8.86597 16.1023 7.85284 15.2559 7.6008 14.7063C7.53739 14.5668 7.54897 14.4124 7.62027 14.2802L7.64174 14.2406C7.86121 13.835 8.54517 13.8129 8.81348 14.2116C9.04025 14.5478 9.95272 15.1995 10.2998 15.4834C11.1486 16.1777 12.2413 16.596 13.4263 16.7496C13.8635 16.8062 14.114 17.2184 13.9327 17.5532C13.8231 17.7567 13.5772 17.8761 13.3092 17.8676Z" fill="#783E11"/>
<defs>
<radialGradient id="paint0_radial_5557_34061" cx="0" cy="0" r="1" gradientUnits="userSpaceOnUse" gradientTransform="translate(15.4754 7.00962) rotate(73.7184) scale(27.5504)">
<stop stop-color="#FFCAC9"/>
<stop offset="0.34375" stop-color="#FFB9B7"/>
<stop offset="0.96875" stop-color="#FF6D69"/>
</radialGradient>
<radialGradient id="paint1_radial_5557_34061" cx="0" cy="0" r="1" gradientUnits="userSpaceOnUse" gradientTransform="translate(15.4754 7.00962) rotate(73.7184) scale(27.5504)">
<stop stop-color="#FFCAC9"/>
<stop offset="0.34375" stop-color="#FFB9B7"/>
<stop offset="0.96875" stop-color="#FF635F"/>
</radialGradient>
<radialGradient id="paint2_radial_5557_34061" cx="0" cy="0" r="1" gradientUnits="userSpaceOnUse" gradientTransform="translate(29.1849 17.3954) rotate(90) scale(8.75113 3.2221)">
<stop stop-color="#FF2727"/>
<stop offset="0.5" stop-color="#FF2727" stop-opacity="0.5"/>
<stop offset="1" stop-color="#FFB9B7" stop-opacity="0"/>
</radialGradient>
<radialGradient id="paint3_radial_5557_34061" cx="0" cy="0" r="1" gradientUnits="userSpaceOnUse" gradientTransform="translate(4.51749 17.7907) rotate(90) scale(8.43859 2.54376)">
<stop stop-color="#FF2727"/>
<stop offset="0.465" stop-color="#FF2727" stop-opacity="0.5"/>
<stop offset="1" stop-color="#FFB9B7" stop-opacity="0"/>
</radialGradient>
</defs>
</svg>
