<svg width="45" height="45" viewBox="0 0 45 45" fill="none" xmlns="http://www.w3.org/2000/svg">
<path fill-rule="evenodd" clip-rule="evenodd" d="M11.2398 18.4632C10.556 17.805 10.3924 16.7186 10.9047 15.8311L10.9345 15.7796C11.3807 15.0068 12.2138 14.6025 13.0238 14.6847L16.9704 16.9632L17.009 16.8963C17.009 16.8963 17.4596 16.8611 17.6068 16.6061C17.6741 16.4897 17.6746 16.3335 17.6552 16.1982L15.7138 15.0794C15.03 14.4211 14.8663 13.3348 15.3787 12.4473L15.4085 12.3958C16.0081 11.3572 17.4987 11.4465 18.5007 12.025L33.7342 20.4596L33.705 20.4111C32.9408 19.1378 32.128 17.734 32.1339 16.7189C32.1423 15.3005 32.4732 14.8053 33.0237 14.1011L33.1723 13.9119C33.4607 13.5445 33.8597 13.2629 34.3692 13.0672C34.8037 12.9003 35.2802 13.103 35.4563 13.5297L41.8273 25.761L41.8746 26.6299C41.952 26.8337 41.5327 27.5551 41.3841 27.8108C41.3748 27.8267 41.3666 27.8409 41.3596 27.853L35.4004 38.1746L35.3897 38.1926C35.2557 38.4114 35.0253 38.5521 34.7747 38.5669C29.9094 38.8551 25.5439 37.1535 23.9359 36.4477C22.3279 35.7419 19.1399 33.928 19.1399 33.928L13.2632 30.3235C12.4259 29.8401 11.7694 28.6672 12.2705 27.7994C12.7715 26.9315 13.8564 26.6199 14.6937 27.1033L15.8543 27.8157C15.8714 27.7465 15.8716 27.6578 15.8475 27.5448C15.7554 27.1128 15.3702 26.6153 15.0996 26.308L10.6582 23.6918C9.99738 23.0511 9.8402 21.9976 10.3373 21.1365C10.7691 20.3886 11.5735 19.9957 12.3575 20.0704L14.4527 21.324L14.5317 21.1872C14.5317 21.1872 14.8779 21.2189 14.9986 21.0097C15.0598 20.9038 15.0484 20.7615 15.0222 20.647L11.2398 18.4632Z" fill="#D9B606"/>
<path fill-rule="evenodd" clip-rule="evenodd" d="M12.2866 20.4658L12.2228 20.3601C11.5188 19.1925 11.7231 17.6937 12.6871 16.7297L12.7263 16.6905C13.5686 15.8482 14.8102 15.5892 15.8892 15.9988L16.091 16.0754L16.6609 16.6454C16.7169 15.9525 17.0156 15.2797 17.5339 14.7615L17.5731 14.7222C18.2453 14.05 19.1265 13.9377 19.8829 14.0914C20.6171 14.2405 21.3079 14.6458 21.8127 15.148L31.2494 24.2521C31.229 23.8479 31.2526 23.4417 31.3554 23.067C31.5493 22.3599 31.7816 21.8323 32.103 21.3966C32.4213 20.965 32.7889 20.6792 33.1267 20.4248L33.1283 20.4236L33.3076 20.2892C33.8114 19.9112 34.4068 19.703 35.0564 19.6346C35.9899 19.5362 36.8574 20.1823 37.0083 21.1298L39.8329 33.8563L39.6379 34.7829C39.6221 34.9335 39.5792 35.0502 39.5531 35.1142C39.5077 35.2255 39.4514 35.3213 39.405 35.393C39.3116 35.5373 39.1973 35.6767 39.0994 35.7887C38.9231 35.9905 38.728 36.1842 38.6387 36.2728C38.6275 36.284 38.6179 36.2935 38.6103 36.3011L30.7426 44.1688L30.72 44.1907C30.3357 44.5556 29.7833 44.7305 29.2288 44.6166C24.5438 43.654 20.8712 40.9481 19.5524 39.8917C18.8761 39.3499 17.9199 38.4657 17.1533 37.7384C16.7654 37.3704 16.4181 37.035 16.1678 36.7916C16.0426 36.6699 15.9415 36.571 15.8716 36.5024L15.7909 36.4231L15.7626 36.3952C15.7626 36.3952 15.762 36.3947 16.4332 35.7145C16.4332 35.7145 18.867 38.1178 20.1451 39.1417C21.4232 40.1655 24.9447 42.7519 29.3968 43.6666C29.6262 43.7137 29.8676 43.6426 30.0412 43.4778L30.0551 43.4643L37.9143 35.6051C37.9235 35.5959 37.9343 35.5851 37.9465 35.573C38.1421 35.3786 38.6939 34.83 38.6733 34.6277L38.8404 33.8336L36.0538 21.2783C35.9982 20.8515 35.6179 20.5538 35.1863 20.5993C34.6801 20.6526 34.2527 20.81 33.9042 21.0714L33.7248 21.2059C33.059 21.7073 32.6413 22.0736 32.2914 23.3492C32.1476 23.8735 32.2162 24.5785 32.3728 25.336C32.4888 25.8973 32.6532 26.4875 32.8154 27.0542L32.83 27.1049L32.7856 27.062L21.144 15.8306C20.3811 15.0677 19.0599 14.6275 18.2691 15.4183L18.2299 15.4575C17.5738 16.1136 17.4465 17.0923 17.8579 17.8424C17.8703 17.8649 17.8831 17.8872 17.8964 17.9093L24.5589 24.5611C24.7022 24.7043 24.701 24.9389 24.5585 25.091L24.4316 25.2183C24.2831 25.3667 24.0484 25.374 23.9013 25.2369L23.8926 25.2285L15.5687 16.9045C14.8589 16.635 14.0108 16.7981 13.4224 17.3865L13.3831 17.4257C12.7074 18.1015 12.5926 19.1196 13.0496 19.8775L21.7516 28.5794C21.7553 28.5831 21.7589 28.5869 21.7624 28.5907C21.8948 28.7347 21.8901 28.9612 21.7513 29.1093L21.742 29.1189L21.6243 29.2366C21.4758 29.3851 21.2411 29.3923 21.094 29.2552L21.0848 29.2463L13.6686 21.595C13.5565 21.5532 13.4409 21.5224 13.3235 21.5027C12.7201 21.4013 12.0682 21.591 11.5915 22.0677C10.9359 22.7233 10.8232 23.7102 11.2638 24.4468L18.97 32.2891C18.9764 32.2955 18.9826 32.3021 18.9884 32.3088C19.1129 32.4532 19.1058 32.6737 18.9696 32.819L18.9604 32.8286L18.8427 32.9463C18.6942 33.0948 18.4595 33.102 18.3124 32.9649L18.3032 32.9559L14.0754 28.4938C13.9248 28.3432 13.751 28.2293 13.5648 28.1517C12.9625 27.9011 12.2293 28.0313 11.7246 28.536C11.0638 29.1967 11.3721 30.4118 12.0096 31.0493L16.4332 35.7145L15.7626 36.3952L15.7502 36.3829L11.3234 31.7144C10.8552 31.2414 10.5277 30.5878 10.4224 29.9259C10.3153 29.2533 10.4252 28.4433 11.0286 27.8399C11.4398 27.4288 11.9671 27.1719 12.5194 27.0879L10.4972 25.03L10.4352 24.9264C9.74986 23.7807 9.95228 22.3149 10.8955 21.3717C11.3154 20.9517 11.8367 20.6795 12.3869 20.5661L12.2866 20.4658Z" fill="#CD942F"/>
<path fill-rule="evenodd" clip-rule="evenodd" d="M13.3832 17.4257C12.7074 18.1014 12.5926 19.1195 13.0496 19.8775L21.7517 28.5793C21.8949 28.7226 21.8938 28.9572 21.7513 29.1093L21.742 29.1189L21.6243 29.2366C21.4758 29.385 21.2411 29.3923 21.0941 29.2552L21.0848 29.2462L13.6686 21.5949C12.9803 21.3383 12.161 21.4982 11.5915 22.0677C10.9359 22.7233 10.8232 23.7102 11.2638 24.4468L18.97 32.289C19.1133 32.4323 19.1121 32.6669 18.9697 32.8189L18.9604 32.8285L18.8427 32.9462C18.6942 33.0947 18.4595 33.102 18.3124 32.9648L18.3032 32.9559L14.0754 28.4938C13.4379 27.8563 12.3854 27.8751 11.7246 28.5359C11.0639 29.1967 11.3721 30.4117 12.0096 31.0492L16.4332 35.7144C16.4332 35.7144 18.867 38.1178 20.1451 39.1416C21.4232 40.1655 24.9448 42.7518 29.3968 43.6666C29.6262 43.7137 29.8676 43.6426 30.0412 43.4778L30.0551 43.4642L37.9143 35.605C38.0709 35.4484 38.6952 34.8426 38.6733 34.6277L38.8405 33.8335L36.0539 21.2783C35.9982 20.8514 35.6179 20.5538 35.1863 20.5993C34.6801 20.6526 34.2528 20.8099 33.9043 21.0713L33.7248 21.2059C33.059 21.7073 32.6413 22.0735 32.2914 23.3492C32.0411 24.262 32.4344 25.7227 32.8154 27.0542L32.83 27.1048L21.144 15.8305C20.3811 15.0676 19.0599 14.6274 18.2692 15.4182L18.2299 15.4574C17.5542 16.1332 17.4394 17.1512 17.8964 17.9092L24.5589 24.561C24.7022 24.7043 24.701 24.9388 24.5586 25.0909L24.4316 25.2182C24.2831 25.3667 24.0484 25.3739 23.9013 25.2368L23.8921 25.2279L15.5687 16.9044C14.8589 16.6349 14.0108 16.798 13.4224 17.3864L13.3832 17.4257Z" fill="url(#paint0_radial_5557_34212)"/>
<g opacity="0.5">
<path d="M5.17088 6.94143C4.76984 6.51137 4.79337 5.83764 5.22343 5.4366C5.65349 5.03556 6.32722 5.05909 6.72826 5.48915L10.1169 9.12305C10.518 9.55311 10.4944 10.2268 10.0644 10.6279C9.63432 11.0289 8.96058 11.0054 8.55954 10.5753L5.17088 6.94143Z" fill="#333333"/>
<path fill-rule="evenodd" clip-rule="evenodd" d="M7.45961 4.80715L10.8483 8.44105C11.626 9.27503 11.5803 10.5815 10.7464 11.3592C9.91239 12.1369 8.60587 12.0913 7.82818 11.2573L4.43951 7.62343C3.66182 6.78946 3.70744 5.48294 4.54142 4.70525C5.37539 3.92755 6.68191 3.97318 7.45961 4.80715ZM5.22342 5.4366C4.79336 5.83764 4.76983 6.51138 5.17087 6.94144L8.55953 10.5753C8.96057 11.0054 9.63431 11.0289 10.0644 10.6279C10.4944 10.2268 10.518 9.55311 10.1169 9.12305L6.72825 5.48915C6.32721 5.05909 5.65348 5.03556 5.22342 5.4366Z" fill="white" fill-opacity="0.51049"/>
<path fill-rule="evenodd" clip-rule="evenodd" d="M12.889 3.14078C12.7567 2.56782 13.1139 1.99611 13.6869 1.86383C14.2599 1.73155 14.8316 2.0888 14.9638 2.66176L16.0816 7.50314C16.2138 8.0761 15.8566 8.64781 15.2836 8.78009C14.7107 8.91237 14.139 8.55513 14.0067 7.98216L12.889 3.14078Z" fill="#333333"/>
<path fill-rule="evenodd" clip-rule="evenodd" d="M15.9382 2.43681L17.056 7.27819C17.3125 8.38928 16.6197 9.49795 15.5086 9.75446C14.3975 10.011 13.2888 9.31821 13.0323 8.20712L11.9146 3.36573C11.6581 2.25464 12.3509 1.14598 13.462 0.889463C14.573 0.632947 15.6817 1.32572 15.9382 2.43681ZM13.6869 1.86383C13.1139 1.99611 12.7567 2.56782 12.889 3.14078L14.0067 7.98217C14.139 8.55513 14.7107 8.91237 15.2837 8.78009C15.8566 8.64781 16.2139 8.0761 16.0816 7.50314L14.9639 2.66176C14.8316 2.0888 14.2599 1.73155 13.6869 1.86383Z" fill="white" fill-opacity="0.51049"/>
<path fill-rule="evenodd" clip-rule="evenodd" d="M2.85581 12.4968C2.29347 12.3249 1.69824 12.6414 1.52631 13.2038C1.35439 13.7661 1.67088 14.3613 2.23322 14.5333L6.98484 15.986C7.54718 16.1579 8.14242 15.8414 8.31434 15.2791C8.48627 14.7167 8.16977 14.1215 7.60743 13.9496L2.85581 12.4968Z" fill="#333333"/>
<path fill-rule="evenodd" clip-rule="evenodd" d="M6.69248 16.9423L1.94086 15.4896C0.85037 15.1562 0.236624 14.0019 0.57002 12.9114C0.903417 11.8209 2.0577 11.2071 3.1482 11.5405L7.89982 12.9933C8.99031 13.3267 9.60406 14.4809 9.27066 15.5714C8.93726 16.6619 7.78297 17.2757 6.69248 16.9423ZM1.52633 13.2038C1.69825 12.6414 2.29349 12.3249 2.85583 12.4968L7.60745 13.9496C8.16979 14.1215 8.48628 14.7167 8.31435 15.2791C8.14243 15.8414 7.54719 16.1579 6.98485 15.986L2.23323 14.5333C1.67089 14.3613 1.3544 13.7661 1.52633 13.2038Z" fill="white" fill-opacity="0.51049"/>
</g>
<g opacity="0.5">
<path fill-rule="evenodd" clip-rule="evenodd" d="M41.3995 11.0496C41.9038 10.743 42.5612 10.9051 42.8652 11.411C43.1669 11.9132 43.0062 12.5649 42.5056 12.8692L39.6296 14.6174C39.1253 14.9239 38.4679 14.7618 38.1639 14.256C37.8622 13.7537 38.0229 13.1021 38.5235 12.7978L41.3995 11.0496Z" fill="#333333"/>
<path fill-rule="evenodd" clip-rule="evenodd" d="M43.025 13.7237L40.149 15.4719C39.1711 16.0664 37.8962 15.752 37.3068 14.771C36.7216 13.7971 37.0332 12.5334 38.0041 11.9433L40.8801 10.1951C41.858 9.60059 43.1329 9.91499 43.7224 10.896C44.3075 11.8699 43.9959 13.1335 43.025 13.7237ZM42.8652 11.411C42.5612 10.9051 41.9038 10.743 41.3995 11.0496L38.5235 12.7978C38.0229 13.1021 37.8622 13.7537 38.1639 14.256C38.4679 14.7618 39.1253 14.9239 39.6296 14.6174L42.5056 12.8692C43.0062 12.5649 43.1669 11.9132 42.8652 11.411Z" fill="white" fill-opacity="0.51049"/>
<path d="M35.3609 6.10805C35.6459 5.59375 36.294 5.40793 36.8083 5.69301C37.3226 5.97809 37.5084 6.62613 37.2233 7.14043L35.4572 10.3265C35.1722 10.8408 34.5241 11.0267 34.0098 10.7416C33.4955 10.4565 33.3097 9.80845 33.5948 9.29415L35.3609 6.10805Z" fill="#333333"/>
<path fill-rule="evenodd" clip-rule="evenodd" d="M38.0979 7.62523L36.3319 10.8113C35.779 11.8087 34.5224 12.169 33.525 11.6162C32.5277 11.0633 32.1673 9.80668 32.7202 8.80933L34.4862 5.62323C35.0391 4.62589 36.2958 4.26555 37.2931 4.81838C38.2904 5.37122 38.6508 6.62789 38.0979 7.62523ZM36.8083 5.693C36.294 5.40792 35.6459 5.59374 35.3609 6.10804L33.5948 9.29414C33.3097 9.80845 33.4955 10.4565 34.0098 10.7416C34.5241 11.0266 35.1722 10.8408 35.4572 10.3265L37.2233 7.14042C37.5084 6.62612 37.3226 5.97809 36.8083 5.693Z" fill="white" fill-opacity="0.51049"/>
</g>
<defs>
<radialGradient id="paint0_radial_5557_34212" cx="0" cy="0" r="1" gradientTransform="matrix(10.2262 19.0649 -17.8036 8.84017 19.8639 24.1563)" gradientUnits="userSpaceOnUse">
<stop stop-color="#FBEB9D"/>
<stop offset="0.34375" stop-color="#F6E071"/>
<stop offset="1" stop-color="#ECC91A"/>
</radialGradient>
</defs>
</svg>
