<svg width="40" height="40" viewBox="0 0 40 40" fill="none" xmlns="http://www.w3.org/2000/svg">
<circle opacity="0.01" cx="20" cy="21" r="19" fill="white"/>
<circle cx="20" cy="21" r="17" fill="url(#paint0_radial_7114_177867)"/>
<g opacity="0.5">
<path fill-rule="evenodd" clip-rule="evenodd" d="M20 38C29.3888 38 37 30.3888 37 21C37 11.6112 29.3888 4 20 4C10.6112 4 3 11.6112 3 21C3 30.3888 10.6112 38 20 38ZM20.0001 36.5141C28.5683 36.5141 35.5141 29.5683 35.5141 21.0001C35.5141 12.4319 28.5683 5.48608 20.0001 5.48608C11.4319 5.48608 4.48608 12.4319 4.48608 21.0001C4.48608 29.5683 11.4319 36.5141 20.0001 36.5141Z" fill="url(#paint1_radial_7114_177867)"/>
<path fill-rule="evenodd" clip-rule="evenodd" d="M20 38C29.3888 38 37 30.3888 37 21C37 11.6112 29.3888 4 20 4C10.6112 4 3 11.6112 3 21C3 30.3888 10.6112 38 20 38ZM20.0001 36.5141C28.5683 36.5141 35.5141 29.5683 35.5141 21.0001C35.5141 12.4319 28.5683 5.48608 20.0001 5.48608C11.4319 5.48608 4.48608 12.4319 4.48608 21.0001C4.48608 29.5683 11.4319 36.5141 20.0001 36.5141Z" fill="#C08200" fill-opacity="0.28"/>
</g>
<ellipse cx="14.6107" cy="17.4271" rx="1.65651" ry="2.42712" fill="#222222"/>
<ellipse cx="25.4083" cy="17.4271" rx="1.65651" ry="2.42712" fill="#222222"/>
<path opacity="0.5" fill-rule="evenodd" clip-rule="evenodd" d="M11.0156 13.6754C10.9908 13.4923 11.0938 13.2995 11.2711 13.1791C12.2519 12.5124 13.3584 12.14 14.4233 12.2014C14.9739 12.2331 15.4629 12.3807 15.8841 12.6177C15.9907 12.6781 16.0557 12.7834 16.0717 12.9024L16.0765 12.9381C16.1251 13.3035 15.6932 13.6392 15.3323 13.5074C15.0277 13.3965 14.6953 13.3275 14.3375 13.307C13.4623 13.2568 12.5592 13.4997 11.7207 13.9572C11.4113 14.126 11.0557 13.9771 11.0156 13.6754Z" fill="#783E11"/>
<path opacity="0.5" fill-rule="evenodd" clip-rule="evenodd" d="M29.0035 13.6754C29.0282 13.4923 28.9253 13.2995 28.748 13.1791C27.7672 12.5124 26.6606 12.14 25.5957 12.2014C25.0451 12.2331 24.5562 12.3807 24.135 12.6177C24.0284 12.6781 23.9633 12.7834 23.9473 12.9024L23.9426 12.9381C23.894 13.3035 24.3259 13.6392 24.6867 13.5074C24.9914 13.3965 25.3237 13.3275 25.6815 13.307C26.5567 13.2568 27.4598 13.4997 28.2984 13.9572C28.6078 14.126 28.9634 13.9771 29.0035 13.6754Z" fill="#783E11"/>
<path fill-rule="evenodd" clip-rule="evenodd" d="M29.388 26.1242C29.514 25.3719 29.2316 24.8073 28.74 24.3967C28.1959 23.9421 27.2137 23.8073 26.4803 24.3967C24.0286 26.1789 23.0325 27.1919 19.9315 27.1913C16.83 27.1906 16.0634 26.142 13.4934 24.3967C12.5659 23.7669 11.6933 23.9638 11.1266 24.4535C10.5599 24.9433 10.535 25.5716 10.6163 26.1724C11.0622 29.4667 15.4301 33 19.9315 33C24.433 33 28.8318 29.4457 29.388 26.1242Z" fill="url(#paint2_radial_7114_177867)"/>
<path fill-rule="evenodd" clip-rule="evenodd" d="M27.9904 25.9377C28.0729 25.4264 27.6058 25.4318 27.3495 25.638C25.2516 27.3243 22.6695 28.8795 19.9457 28.8789C17.2213 28.8784 14.7451 27.3216 12.6482 25.6347C12.392 25.4285 11.9365 25.4097 12.0074 25.9339C12.307 28.148 15.9916 31.5 19.9457 31.5C23.8997 31.5 27.652 28.0349 27.9904 25.9377Z" fill="white"/>
<path d="M22.6227 22.213C22.6227 23.6615 21.4484 24.8358 19.9999 24.8358C18.5514 24.8358 17.3772 23.6615 17.3772 22.213C17.3772 20.7645 18.5514 19.5903 19.9999 19.5903C21.4484 19.5903 22.6227 20.7645 22.6227 22.213Z" fill="url(#paint3_radial_7114_177867)"/>
<path d="M22.6227 22.213C22.6227 23.6615 21.4484 24.8358 19.9999 24.8358C18.5514 24.8358 17.3772 23.6615 17.3772 22.213C17.3772 20.7645 18.5514 19.5903 19.9999 19.5903C21.4484 19.5903 22.6227 20.7645 22.6227 22.213Z" fill="#E31F37" fill-opacity="0.48"/>
<path d="M9.79653 10.6322C9.9752 11.5596 9.70549 12.5562 8.9874 13.2743C7.83736 14.4244 5.97278 14.4244 4.82275 13.2743C3.67271 12.1243 3.67271 10.2597 4.82275 9.10966C5.54083 8.39158 6.5375 8.12186 7.46486 8.30053C7.2862 7.37317 7.55591 6.3765 8.27399 5.65842C9.42403 4.50838 11.2886 4.50838 12.4386 5.65842C13.5887 6.80845 13.5887 8.67303 12.4386 9.82307C11.7206 10.5412 10.7239 10.8109 9.79653 10.6322Z" fill="#FF5752"/>
<path d="M9.07147 7.84014C9.93526 6.97635 9.93526 5.57587 9.07147 4.71208C8.20768 3.84829 6.80719 3.84829 5.9434 4.71208C5.54621 5.10927 5.33165 5.61995 5.29974 6.13974C4.78422 6.17369 4.27834 6.38767 3.88432 6.78169C3.02199 7.64402 3.02199 9.04214 3.88432 9.90448C4.74666 10.7668 6.14478 10.7668 7.00711 9.90448C7.40256 9.50903 7.61666 9.00091 7.64942 8.48345C8.16728 8.45034 8.6757 8.23591 9.07147 7.84014Z" fill="#FF5752"/>
<path d="M5.81166 4.46515C6.41425 5.06774 6.41425 6.04474 5.81166 6.64733C5.20907 7.24992 4.23207 7.24992 3.62948 6.64733C3.02689 6.04474 3.02689 5.06774 3.62948 4.46515C4.23207 3.86256 5.20907 3.86256 5.81166 4.46515Z" fill="#FF5752"/>
<path d="M10.8884 9.36363C11.5402 10.0154 11.5402 11.0722 10.8884 11.724C10.2366 12.3759 9.17977 12.3759 8.52796 11.724C7.87615 11.0722 7.87615 10.0154 8.52796 9.36363C9.17977 8.71182 10.2366 8.71182 10.8884 9.36363Z" fill="#FF5752"/>
<path d="M30.2035 10.7965C30.0248 11.7239 30.2945 12.7205 31.0126 13.4386C32.1626 14.5887 34.0272 14.5887 35.1773 13.4386C36.3273 12.2886 36.3273 10.424 35.1773 9.27398C34.4592 8.55589 33.4625 8.28618 32.5351 8.46484C32.7138 7.53748 32.4441 6.54082 31.726 5.82273C30.576 4.67269 28.7114 4.67269 27.5614 5.82273C26.4113 6.97277 26.4113 8.83735 27.5614 9.98738C28.2794 10.7055 29.2761 10.9752 30.2035 10.7965Z" fill="#FF5752"/>
<path d="M30.9285 8.00446C30.0647 7.14067 30.0647 5.74018 30.9285 4.87639C31.7923 4.0126 33.1928 4.0126 34.0566 4.87639C34.4538 5.27359 34.6683 5.78426 34.7003 6.30405C35.2158 6.338 35.7217 6.55198 36.1157 6.946C36.978 7.80834 36.978 9.20646 36.1157 10.0688C35.2533 10.9311 33.8552 10.9311 32.9929 10.0688C32.5974 9.67334 32.3833 9.16522 32.3506 8.64777C31.8327 8.61466 31.3243 8.40022 30.9285 8.00446Z" fill="#FF5752"/>
<path d="M34.1883 4.62947C33.5858 5.23206 33.5858 6.20905 34.1883 6.81164C34.7909 7.41423 35.7679 7.41423 36.3705 6.81164C36.9731 6.20905 36.9731 5.23206 36.3705 4.62947C35.7679 4.02688 34.7909 4.02688 34.1883 4.62947Z" fill="#FF5752"/>
<path d="M29.1116 9.52794C28.4598 10.1798 28.4598 11.2365 29.1116 11.8884C29.7634 12.5402 30.8202 12.5402 31.472 11.8884C32.1239 11.2365 32.1239 10.1798 31.472 9.52794C30.8202 8.87613 29.7634 8.87613 29.1116 9.52794Z" fill="#FF5752"/>
<defs>
<radialGradient id="paint0_radial_7114_177867" cx="0" cy="0" r="1" gradientUnits="userSpaceOnUse" gradientTransform="translate(18.4754 11.0096) rotate(73.7184) scale(27.5504)">
<stop stop-color="#FEFDF8"/>
<stop offset="0.500403" stop-color="#EAE4C1"/>
<stop offset="0.836391" stop-color="#EADBAC"/>
<stop offset="1" stop-color="#CFC79A"/>
</radialGradient>
<radialGradient id="paint1_radial_7114_177867" cx="0" cy="0" r="1" gradientUnits="userSpaceOnUse" gradientTransform="translate(18.4754 11.0096) rotate(73.7184) scale(27.5504)">
<stop stop-color="#FEFDF8"/>
<stop offset="0.34375" stop-color="#EAE4C1"/>
<stop offset="0.786458" stop-color="#EADBAC"/>
<stop offset="1" stop-color="#CFC79A"/>
</radialGradient>
<radialGradient id="paint2_radial_7114_177867" cx="0" cy="0" r="1" gradientTransform="matrix(11.1872 -0.11494 0.0978151 16.7174 19.937 27.2279)" gradientUnits="userSpaceOnUse">
<stop stop-color="#FF5F5A"/>
<stop offset="1" stop-color="#F03D37"/>
</radialGradient>
<radialGradient id="paint3_radial_7114_177867" cx="0" cy="0" r="1" gradientTransform="matrix(0.274068 4.20495 -4.19982 0.27689 19.9999 20.6308)" gradientUnits="userSpaceOnUse">
<stop stop-color="#FFADAB"/>
<stop offset="0.34375" stop-color="#FF8885"/>
<stop offset="1" stop-color="#DC2621"/>
</radialGradient>
</defs>
</svg>
