<svg width="34" height="34" viewBox="0 0 34 34" fill="none" xmlns="http://www.w3.org/2000/svg">
<circle cx="17" cy="17" r="17" fill="url(#paint0_radial_8115_191413)"/>
<circle cx="17" cy="17" r="17" fill="#E35753" fill-opacity="0.3"/>
<path fill-rule="evenodd" clip-rule="evenodd" d="M17 34C26.3888 34 34 26.3888 34 17C34 7.61116 26.3888 0 17 0C7.61116 0 0 7.61116 0 17C0 26.3888 7.61116 34 17 34ZM17.0001 32.5141C25.5683 32.5141 32.5141 25.5683 32.5141 17.0001C32.5141 8.43195 25.5683 1.48608 17.0001 1.48608C8.43195 1.48608 1.48608 8.43195 1.48608 17.0001C1.48608 25.5683 8.43195 32.5141 17.0001 32.5141Z" fill="url(#paint1_radial_8115_191413)"/>
<path fill-rule="evenodd" clip-rule="evenodd" d="M17 34C26.3888 34 34 26.3888 34 17C34 7.61116 26.3888 0 17 0C7.61116 0 0 7.61116 0 17C0 26.3888 7.61116 34 17 34ZM17.0001 32.5141C25.5683 32.5141 32.5141 25.5683 32.5141 17.0001C32.5141 8.43195 25.5683 1.48608 17.0001 1.48608C8.43195 1.48608 1.48608 8.43195 1.48608 17.0001C1.48608 25.5683 8.43195 32.5141 17.0001 32.5141Z" fill="#B04441" fill-opacity="0.3"/>
<path d="M18.0057 7.65939C18.569 7.65939 19.0211 8.12432 19.0054 8.68733L18.7039 19.4736C18.6888 20.0148 18.2457 20.4457 17.7043 20.4457H16.2953C15.7541 20.4457 15.3112 20.0152 15.2957 19.4743L14.9865 8.68804C14.9704 8.12477 15.4226 7.65939 15.9861 7.65939H18.0057ZM17.0001 26.6612C16.3954 26.6612 15.8763 26.4474 15.4426 26.0199C15.0089 25.5862 14.7952 25.067 14.8013 24.4624C14.7952 23.8638 15.0089 23.3507 15.4426 22.9232C15.8763 22.4956 16.3954 22.2818 17.0001 22.2818C17.5804 22.2818 18.0904 22.4956 18.5302 22.9232C18.9699 23.3507 19.1929 23.8638 19.199 24.4624C19.1929 24.8655 19.086 25.235 18.8783 25.571C18.6768 25.9008 18.4111 26.1665 18.0812 26.368C17.7514 26.5635 17.391 26.6612 17.0001 26.6612Z" fill="white"/>
<path d="M17.0004 21.7815C17.7186 21.7815 18.3512 22.0523 18.8783 22.5647C19.411 23.0826 19.6911 23.7218 19.6986 24.4572L19.6996 24.4699H19.6986C19.6912 24.9614 19.5603 25.4198 19.3041 25.8342L19.3031 25.8332C19.0603 26.2298 18.739 26.5526 18.3422 26.7951L18.3363 26.7981C17.9278 27.0401 17.479 27.1613 17.0004 27.1613C16.2633 27.1613 15.6177 26.8952 15.0912 26.3762L15.0892 26.3733C14.5621 25.8461 14.2937 25.1984 14.3011 24.4572C14.2962 23.7249 14.5656 23.086 15.0912 22.5676C15.6177 22.0485 16.2633 21.7815 17.0004 21.7815ZM18.0062 7.15939C18.8508 7.15966 19.5288 7.85703 19.5052 8.70139L19.2035 19.4875C19.1808 20.2993 18.5165 20.9454 17.7045 20.9455H16.2953C15.4836 20.9455 14.8195 20.2999 14.7963 19.4885L14.4867 8.70236C14.4625 7.85758 15.1406 7.1596 15.9857 7.15939H18.0062Z" stroke="black" stroke-opacity="0.1"/>
<defs>
<radialGradient id="paint0_radial_8115_191413" cx="0" cy="0" r="1" gradientUnits="userSpaceOnUse" gradientTransform="translate(15.4754 7.00962) rotate(73.7184) scale(27.5504)">
<stop stop-color="#FFCAC9"/>
<stop offset="0.34375" stop-color="#FFB9B7"/>
<stop offset="0.96875" stop-color="#FF6D69"/>
</radialGradient>
<radialGradient id="paint1_radial_8115_191413" cx="0" cy="0" r="1" gradientUnits="userSpaceOnUse" gradientTransform="translate(15.4754 7.00962) rotate(73.7184) scale(27.5504)">
<stop stop-color="#FFCAC9"/>
<stop offset="0.34375" stop-color="#FFB9B7"/>
<stop offset="0.96875" stop-color="#FF635F"/>
</radialGradient>
</defs>
</svg>
