<svg width="34" height="34" viewBox="0 0 34 34" fill="none" xmlns="http://www.w3.org/2000/svg">
<circle cx="17" cy="17" r="17" fill="url(#paint0_radial_26139_3419)"/>
<g opacity="0.5">
<path fill-rule="evenodd" clip-rule="evenodd" d="M17 34C26.3888 34 34 26.3888 34 17C34 7.61116 26.3888 0 17 0C7.61116 0 0 7.61116 0 17C0 26.3888 7.61116 34 17 34ZM17.0001 32.5141C25.5683 32.5141 32.5141 25.5683 32.5141 17.0001C32.5141 8.43195 25.5683 1.48608 17.0001 1.48608C8.43195 1.48608 1.48608 8.43195 1.48608 17.0001C1.48608 25.5683 8.43195 32.5141 17.0001 32.5141Z" fill="url(#paint1_radial_26139_3419)"/>
<path fill-rule="evenodd" clip-rule="evenodd" d="M17 34C26.3888 34 34 26.3888 34 17C34 7.61116 26.3888 0 17 0C7.61116 0 0 7.61116 0 17C0 26.3888 7.61116 34 17 34ZM17.0001 32.5141C25.5683 32.5141 32.5141 25.5683 32.5141 17.0001C32.5141 8.43195 25.5683 1.48608 17.0001 1.48608C8.43195 1.48608 1.48608 8.43195 1.48608 17.0001C1.48608 25.5683 8.43195 32.5141 17.0001 32.5141Z" fill="#C08200" fill-opacity="0.28"/>
</g>
<path fill-rule="evenodd" clip-rule="evenodd" d="M25.6587 21.7006C25.6587 24.8326 22.7602 29.302 16.8884 29.302C11.0167 29.302 8.11774 24.8326 8.11774 21.7012C8.11774 19.8953 11.9267 21.354 16.8884 21.354C21.8508 21.354 25.6587 19.9212 25.6587 21.7006Z" fill="#783E11"/>
<path d="M20.947 26.9122C21.739 31.0498 19.6933 33.3108 16.8903 33.286C14.0873 33.2612 11.8622 30.7564 12.9303 26.7563C13.3361 25.2368 13.4317 24.1291 13.8802 23.2005C13.9822 22.9892 14.2132 22.8809 14.4463 22.9071C15.0753 22.9777 16.3314 23.1083 17.0509 23.1109C17.746 23.1134 18.7645 22.9947 19.3311 22.9206C19.583 22.8876 19.8327 23.0116 19.9379 23.2429C20.3652 24.1822 20.6426 25.3225 20.947 26.9122Z" fill="url(#paint2_linear_26139_3419)"/>
<path opacity="0.3" d="M19.4358 27.0796C19.9329 29.7779 18.6489 31.2524 16.8895 31.2362C15.1301 31.2201 13.7334 29.5866 14.4039 26.9779C14.5545 26.3917 15.7181 27.1764 16.8895 27.1786C18.0978 27.1808 19.3142 26.4199 19.4358 27.0796Z" fill="white"/>
<ellipse cx="11.6065" cy="13.4271" rx="1.65651" ry="2.42712" fill="#783E11"/>
<ellipse cx="21.6109" cy="13.4271" rx="1.65651" ry="2.42712" fill="#783E11"/>
<defs>
<radialGradient id="paint0_radial_26139_3419" cx="0" cy="0" r="1" gradientUnits="userSpaceOnUse" gradientTransform="translate(15.4754 7.00962) rotate(73.7184) scale(27.5504)">
<stop stop-color="#FFF1AA"/>
<stop offset="0.34375" stop-color="#FFE564"/>
<stop offset="0.760417" stop-color="#F4CC00"/>
<stop offset="1" stop-color="#F29E0B"/>
</radialGradient>
<radialGradient id="paint1_radial_26139_3419" cx="0" cy="0" r="1" gradientUnits="userSpaceOnUse" gradientTransform="translate(15.4754 7.00962) rotate(73.7184) scale(27.5504)">
<stop stop-color="#FBEB9D"/>
<stop offset="0.34375" stop-color="#F6E071"/>
<stop offset="0.786458" stop-color="#ECC91A"/>
<stop offset="1" stop-color="#E3BE00"/>
</radialGradient>
<linearGradient id="paint2_linear_26139_3419" x1="16.8882" y1="29.6687" x2="16.8882" y2="22.6879" gradientUnits="userSpaceOnUse">
<stop stop-color="#FF4A45"/>
<stop offset="1" stop-color="#FF7F7B"/>
</linearGradient>
</defs>
</svg>
