<svg width="36" height="34" viewBox="0 0 36 34" fill="none" xmlns="http://www.w3.org/2000/svg">
<circle cx="18" cy="17" r="17" fill="url(#paint0_radial_5557_33941)"/>
<g opacity="0.5">
<path fill-rule="evenodd" clip-rule="evenodd" d="M18 34C27.3888 34 35 26.3888 35 17C35 7.61116 27.3888 0 18 0C8.61116 0 1 7.61116 1 17C1 26.3888 8.61116 34 18 34ZM18.0001 32.5141C26.5683 32.5141 33.5141 25.5683 33.5141 17.0001C33.5141 8.43195 26.5683 1.48608 18.0001 1.48608C9.43195 1.48608 2.48608 8.43195 2.48608 17.0001C2.48608 25.5683 9.43195 32.5141 18.0001 32.5141Z" fill="url(#paint1_radial_5557_33941)"/>
<path fill-rule="evenodd" clip-rule="evenodd" d="M18 34C27.3888 34 35 26.3888 35 17C35 7.61116 27.3888 0 18 0C8.61116 0 1 7.61116 1 17C1 26.3888 8.61116 34 18 34ZM18.0001 32.5141C26.5683 32.5141 33.5141 25.5683 33.5141 17.0001C33.5141 8.43195 26.5683 1.48608 18.0001 1.48608C9.43195 1.48608 2.48608 8.43195 2.48608 17.0001C2.48608 25.5683 9.43195 32.5141 18.0001 32.5141Z" fill="#C08200" fill-opacity="0.28"/>
</g>
<path fill-rule="evenodd" clip-rule="evenodd" d="M28.6446 19.4726C28.6446 23.3138 25.0897 28.7952 17.8884 28.7952C10.6871 28.7952 7.13184 23.3138 7.13184 19.4734C7.13184 17.2585 11.8033 19.0475 17.8884 19.0475C23.9744 19.0475 28.6446 17.2903 28.6446 19.4726Z" fill="#B26423"/>
<path fill-rule="evenodd" clip-rule="evenodd" d="M27.1615 20.2615C27.1615 22.5855 22.2969 24.154 17.8884 24.154C13.4798 24.154 8.61475 22.5855 8.61475 20.2623C8.61475 18.6823 12.7665 20.1865 17.8884 20.1865C23.0102 20.1865 27.1615 18.7141 27.1615 20.2615Z" fill="white"/>
<path fill-rule="evenodd" clip-rule="evenodd" d="M11.69 13.4462C10.5991 13.4409 9.58679 13.8488 8.73038 14.5491C8.67022 14.5987 8.63526 14.6771 8.63556 14.7586L8.6403 15.5108C8.64161 15.7081 8.84265 15.8363 9.00352 15.7383C9.72342 15.2956 10.5284 15.0468 11.3813 15.0511C12.4822 15.056 13.5084 15.4796 14.3788 16.2002C14.539 16.3335 14.7701 16.2134 14.7686 15.9982L14.7615 14.7814C14.7612 14.6994 14.7252 14.6205 14.6637 14.5708C13.7986 13.8647 12.7801 13.4506 11.69 13.4462Z" fill="#783E11"/>
<path d="M8.45635 22.5291C6.97923 25.5 4.41924 27.1813 2.22691 25.8745C0.0345757 24.5677 -0.520691 21.5 2.22681 18.7221C4.97431 15.9443 9.06748 14.6737 9.06748 14.6737C9.06748 14.6737 9.93346 19.5582 8.45635 22.5291Z" fill="#29B5E2"/>
<path opacity="0.2" d="M4.05812 20.1448C2.71331 21.7824 1.3606 22.9455 0.839208 22.4979C0.317817 22.0503 1.32198 20.1979 2.59964 18.8248C3.87731 17.4518 5.60668 16.7295 5.60668 16.7295C5.60668 16.7295 5.40294 18.5072 4.05812 20.1448Z" fill="white"/>
<path fill-rule="evenodd" clip-rule="evenodd" d="M5.98531 14.1348C6.68687 12.8276 7.7497 11.8422 8.91469 11.2253C10.0797 10.6083 10.7525 10.4109 11.3568 10.4298C11.51 10.4351 11.643 10.5142 11.7297 10.6369L11.7556 10.6737C12.0211 11.0508 11.8169 11.5824 11.2601 11.7359C10.7033 11.8895 9.86843 12.3165 9.45973 12.5009C8.46019 12.952 7.59936 13.7444 6.93439 14.7372C6.68909 15.1036 6.2085 15.1444 5.98934 14.8331C5.85594 14.6444 5.85844 14.371 5.98531 14.1348Z" fill="#783E11"/>
<path fill-rule="evenodd" clip-rule="evenodd" d="M24.1984 13.4462C25.2894 13.4409 26.3016 13.8488 27.158 14.5491C27.2182 14.5987 27.2532 14.6771 27.2529 14.7586L27.2481 15.5108C27.2468 15.7081 27.0458 15.8363 26.8849 15.7383C26.165 15.2956 25.3601 15.0468 24.5072 15.0511C23.4062 15.056 22.38 15.4796 21.5096 16.2002C21.3495 16.3335 21.1183 16.2134 21.1198 15.9982L21.1269 14.7814C21.1273 14.6994 21.1632 14.6205 21.2248 14.5708C22.0898 13.8647 23.1084 13.4506 24.1984 13.4462Z" fill="#783E11"/>
<path d="M27.4321 22.5291C28.9092 25.5 31.4692 27.1813 33.6615 25.8745C35.8539 24.5677 36.4091 21.5 33.6616 18.7221C30.9141 15.9443 26.8209 14.6737 26.8209 14.6737C26.8209 14.6737 25.955 19.5582 27.4321 22.5291Z" fill="#29B5E2"/>
<path opacity="0.2" d="M31.8303 20.1448C33.1751 21.7824 34.5278 22.9455 35.0492 22.4979C35.5706 22.0503 34.5664 20.1979 33.2888 18.8248C32.0111 17.4518 30.2817 16.7295 30.2817 16.7295C30.2817 16.7295 30.4855 18.5072 31.8303 20.1448Z" fill="white"/>
<path fill-rule="evenodd" clip-rule="evenodd" d="M29.9031 14.1348C29.2016 12.8276 28.1387 11.8422 26.9737 11.2253C25.8088 10.6083 25.136 10.4109 24.5317 10.4298C24.3785 10.4351 24.2454 10.5142 24.1587 10.6369L24.1328 10.6737C23.8673 11.0508 24.0715 11.5824 24.6283 11.7359C25.1851 11.8895 26.02 12.3165 26.4287 12.5009C27.4282 12.952 28.2891 13.7444 28.954 14.7372C29.1993 15.1036 29.6799 15.1444 29.8991 14.8331C30.0325 14.6444 30.03 14.371 29.9031 14.1348Z" fill="#783E11"/>
<defs>
<radialGradient id="paint0_radial_5557_33941" cx="0" cy="0" r="1" gradientUnits="userSpaceOnUse" gradientTransform="translate(16.4754 7.00962) rotate(73.7184) scale(27.5504)">
<stop stop-color="#FFF1AA"/>
<stop offset="0.34375" stop-color="#FFE564"/>
<stop offset="0.760417" stop-color="#F4CC00"/>
<stop offset="1" stop-color="#F29E0B"/>
</radialGradient>
<radialGradient id="paint1_radial_5557_33941" cx="0" cy="0" r="1" gradientUnits="userSpaceOnUse" gradientTransform="translate(16.4754 7.00962) rotate(73.7184) scale(27.5504)">
<stop stop-color="#FBEB9D"/>
<stop offset="0.34375" stop-color="#F6E071"/>
<stop offset="0.786458" stop-color="#ECC91A"/>
<stop offset="1" stop-color="#E3BE00"/>
</radialGradient>
</defs>
</svg>
