<svg width="34" height="34" viewBox="0 0 34 34" fill="none" xmlns="http://www.w3.org/2000/svg">
<circle cx="17" cy="17" r="17" fill="url(#paint0_radial_5557_33997)"/>
<g opacity="0.5">
<path fill-rule="evenodd" clip-rule="evenodd" d="M17 34C26.3888 34 34 26.3888 34 17C34 7.61116 26.3888 0 17 0C7.61116 0 0 7.61116 0 17C0 26.3888 7.61116 34 17 34ZM17.0001 32.5141C25.5683 32.5141 32.5141 25.5683 32.5141 17.0001C32.5141 8.43195 25.5683 1.48608 17.0001 1.48608C8.43195 1.48608 1.48608 8.43195 1.48608 17.0001C1.48608 25.5683 8.43195 32.5141 17.0001 32.5141Z" fill="url(#paint1_radial_5557_33997)"/>
<path fill-rule="evenodd" clip-rule="evenodd" d="M17 34C26.3888 34 34 26.3888 34 17C34 7.61116 26.3888 0 17 0C7.61116 0 0 7.61116 0 17C0 26.3888 7.61116 34 17 34ZM17.0001 32.5141C25.5683 32.5141 32.5141 25.5683 32.5141 17.0001C32.5141 8.43195 25.5683 1.48608 17.0001 1.48608C8.43195 1.48608 1.48608 8.43195 1.48608 17.0001C1.48608 25.5683 8.43195 32.5141 17.0001 32.5141Z" fill="#C08200" fill-opacity="0.28"/>
</g>
<path fill-rule="evenodd" clip-rule="evenodd" d="M25.6587 21.7005C25.6587 24.8326 22.7602 29.302 16.8884 29.302C11.0167 29.302 8.11774 24.8326 8.11774 21.7012C8.11774 19.8952 11.9267 21.3539 16.8884 21.3539C21.8508 21.3539 25.6587 19.9212 25.6587 21.7005Z" fill="#783E11"/>
<path d="M20.6309 26.7507C21.3612 30.7148 19.4749 32.8809 16.8902 32.8572C14.3055 32.8335 12.2536 30.4337 13.2386 26.6013C13.6024 25.1857 14.038 24.0178 14.5155 23.1094C14.6429 22.8672 14.9251 22.7565 15.1908 22.8218C15.6748 22.9406 16.4542 23.1067 17.0382 23.1089C17.6275 23.1111 18.4121 22.948 18.9084 22.828C19.1875 22.7606 19.4825 22.8873 19.5984 23.1501C20.0048 24.0716 20.3578 25.2684 20.6309 26.7507Z" fill="#FF4A45"/>
<path d="M20.6309 26.7507C21.3612 30.7148 19.4749 32.8809 16.8902 32.8572C14.3055 32.8335 12.2536 30.4337 13.2386 26.6013C13.6024 25.1857 14.038 24.0178 14.5155 23.1094C14.6429 22.8672 14.9251 22.7565 15.1908 22.8218C15.6748 22.9406 16.4542 23.1067 17.0382 23.1089C17.6275 23.1111 18.4121 22.948 18.9084 22.828C19.1875 22.7606 19.4825 22.8873 19.5984 23.1501C20.0048 24.0716 20.3578 25.2684 20.6309 26.7507Z" fill="url(#paint2_linear_5557_33997)"/>
<path opacity="0.3" d="M19.4358 27.0796C19.9329 29.7778 18.6489 31.2524 16.8895 31.2362C15.1301 31.22 13.7334 29.5865 14.4039 26.9778C14.5545 26.3917 15.7181 27.1763 16.8895 27.1785C18.0978 27.1808 19.3142 26.4199 19.4358 27.0796Z" fill="white"/>
<ellipse cx="21.6109" cy="13.4271" rx="1.65651" ry="2.42712" fill="#783E11"/>
<path fill-rule="evenodd" clip-rule="evenodd" d="M11.9602 11.5622C10.8907 11.4684 9.86314 11.7669 8.96338 12.3514C8.90013 12.3929 8.85915 12.4633 8.85247 12.5395L8.79279 13.2426C8.7772 13.427 8.96338 13.5632 9.12953 13.4847C9.87338 13.1298 10.6841 12.9629 11.5201 13.0365C12.5994 13.1307 13.5695 13.6101 14.3615 14.3543C14.5071 14.4918 14.7441 14.3985 14.761 14.1973L14.8581 13.0599C14.8648 12.9832 14.8363 12.9066 14.7802 12.8552C13.9922 12.125 13.0288 11.6551 11.9602 11.5622Z" fill="#783E11"/>
<defs>
<radialGradient id="paint0_radial_5557_33997" cx="0" cy="0" r="1" gradientUnits="userSpaceOnUse" gradientTransform="translate(15.4754 7.00962) rotate(73.7184) scale(27.5504)">
<stop stop-color="#FFF1AA"/>
<stop offset="0.34375" stop-color="#FFE564"/>
<stop offset="0.760417" stop-color="#F4CC00"/>
<stop offset="1" stop-color="#F29E0B"/>
</radialGradient>
<radialGradient id="paint1_radial_5557_33997" cx="0" cy="0" r="1" gradientUnits="userSpaceOnUse" gradientTransform="translate(15.4754 7.00962) rotate(73.7184) scale(27.5504)">
<stop stop-color="#FBEB9D"/>
<stop offset="0.34375" stop-color="#F6E071"/>
<stop offset="0.786458" stop-color="#ECC91A"/>
<stop offset="1" stop-color="#E3BE00"/>
</radialGradient>
<linearGradient id="paint2_linear_5557_33997" x1="16.8882" y1="29.3916" x2="16.8882" y2="22.7036" gradientUnits="userSpaceOnUse">
<stop stop-color="#FF4A45"/>
<stop offset="1" stop-color="#FF7F7B"/>
</linearGradient>
</defs>
</svg>
