<svg width="37" height="36" viewBox="0 0 37 36" fill="none" xmlns="http://www.w3.org/2000/svg">
<rect x="29.744" y="31.4204" width="2.5" height="2.5" transform="rotate(15 29.744 31.4204)" fill="#F8D701"/>
<circle cx="19" cy="19" r="17" fill="url(#paint0_radial_7114_177861)"/>
<g opacity="0.5">
<path fill-rule="evenodd" clip-rule="evenodd" d="M19 36C28.3888 36 36 28.3888 36 19C36 9.61116 28.3888 2 19 2C9.61116 2 2 9.61116 2 19C2 28.3888 9.61116 36 19 36ZM19.0001 34.5141C27.5683 34.5141 34.5141 27.5683 34.5141 19.0001C34.5141 10.4319 27.5683 3.48608 19.0001 3.48608C10.4319 3.48608 3.48608 10.4319 3.48608 19.0001C3.48608 27.5683 10.4319 34.5141 19.0001 34.5141Z" fill="url(#paint1_radial_7114_177861)"/>
<path fill-rule="evenodd" clip-rule="evenodd" d="M19 36C28.3888 36 36 28.3888 36 19C36 9.61116 28.3888 2 19 2C9.61116 2 2 9.61116 2 19C2 28.3888 9.61116 36 19 36ZM19.0001 34.5141C27.5683 34.5141 34.5141 27.5683 34.5141 19.0001C34.5141 10.4319 27.5683 3.48608 19.0001 3.48608C10.4319 3.48608 3.48608 10.4319 3.48608 19.0001C3.48608 27.5683 10.4319 34.5141 19.0001 34.5141Z" fill="#C08200" fill-opacity="0.28"/>
</g>
<ellipse opacity="0.3" cx="9.27942" cy="19.396" rx="7.03968" ry="12.6714" fill="url(#paint2_radial_7114_177861)"/>
<ellipse opacity="0.3" cx="7.03968" cy="12.6714" rx="7.03968" ry="12.6714" transform="matrix(-1 0 0 1 36.1366 6.72456)" fill="url(#paint3_radial_7114_177861)"/>
<path fill-rule="evenodd" clip-rule="evenodd" d="M12.69 15.9462C11.599 15.9409 10.5867 16.3488 9.73032 17.0491C9.67016 17.0987 9.6352 17.1771 9.6355 17.2586L9.64024 18.0108C9.64155 18.2081 9.84259 18.3364 10.0035 18.2383C10.7234 17.7956 11.5283 17.5468 12.3812 17.5511C13.4822 17.556 14.5084 17.9796 15.3788 18.7002C15.5389 18.8335 15.7701 18.7134 15.7686 18.4982L15.7615 17.2814C15.7611 17.1994 15.7252 17.1205 15.6636 17.0708C14.7985 16.3647 13.78 15.9506 12.69 15.9462Z" fill="#783E11"/>
<path opacity="0.5" fill-rule="evenodd" clip-rule="evenodd" d="M8.40552 12.8238C9.37485 11.7006 10.6267 10.9703 11.898 10.6217C13.1694 10.2731 13.869 10.227 14.4547 10.3769C14.6031 10.4155 14.7157 10.5216 14.7736 10.6603L14.7909 10.7019C14.968 11.1277 14.6529 11.6021 14.076 11.6307C13.4991 11.6594 12.5914 11.8944 12.1523 11.9854C11.0785 12.2081 10.0659 12.7941 9.2007 13.6184C8.88153 13.9225 8.40358 13.8577 8.25745 13.5062C8.16832 13.293 8.23028 13.0267 8.40552 12.8238Z" fill="#783E11"/>
<path opacity="0.5" fill-rule="evenodd" clip-rule="evenodd" d="M29.4828 12.8238C28.5135 11.7006 27.2616 10.9703 25.9903 10.6217C24.7189 10.2731 24.0193 10.227 23.4336 10.3769C23.2852 10.4155 23.1726 10.5216 23.1147 10.6603L23.0974 10.7019C22.9203 11.1277 23.2354 11.6021 23.8123 11.6307C24.3892 11.6594 25.2969 11.8944 25.736 11.9854C26.8098 12.2081 27.8225 12.7941 28.6876 13.6184C29.0068 13.9225 29.4847 13.8577 29.6309 13.5062C29.72 13.293 29.658 13.0267 29.4828 12.8238Z" fill="#783E11"/>
<path fill-rule="evenodd" clip-rule="evenodd" d="M25.1983 15.9462C26.2893 15.9409 27.3016 16.3488 28.158 17.0491C28.2182 17.0987 28.2531 17.1771 28.2528 17.2586L28.2481 18.0108C28.2468 18.2081 28.0457 18.3364 27.8849 18.2383C27.1649 17.7956 26.36 17.5468 25.5071 17.5511C24.4061 17.556 23.38 17.9796 22.5095 18.7002C22.3494 18.8335 22.1182 18.7134 22.1197 18.4982L22.1268 17.2814C22.1272 17.1994 22.1631 17.1205 22.2247 17.0708C23.0898 16.3647 24.1083 15.9506 25.1983 15.9462Z" fill="#783E11"/>
<g filter="url(#filter0_d_7114_177861)">
<path d="M22.0112 24.371C23.37 24.2221 24.6088 23.9445 25.8756 23.6354C29.3084 22.7979 33.4121 20.1568 33.4121 20.1568V31.8822C33.4121 31.8822 29.5057 29.1535 25.8756 28.3479C24.6545 28.077 23.4136 27.7377 22.0112 27.5487L21.1453 25.9203L22.0112 24.371Z" fill="url(#paint4_linear_7114_177861)"/>
<path d="M33.4121 20.1121C33.4121 19.7166 33.7676 19.396 34.2061 19.396C34.6445 19.396 35 19.7166 35 20.112V31.9269C35 32.3224 34.6445 32.643 34.2061 32.643C33.7676 32.643 33.4121 32.3224 33.4121 31.9269V20.1121Z" fill="#7FDEFC"/>
<mask id="mask0_7114_177861" style="mask-type:alpha" maskUnits="userSpaceOnUse" x="20" y="20" width="14" height="12">
<path d="M22.0158 24.3705C23.3727 24.2214 24.6102 23.9441 25.8756 23.6354C29.3084 22.7978 33.4121 20.1568 33.4121 20.1568V31.8822C33.4121 31.8822 29.5057 29.1535 25.8756 28.3479C24.6558 28.0773 23.4163 27.7384 22.0158 27.5493L20.9228 25.9658L22.0158 24.3705Z" fill="url(#paint5_linear_7114_177861)"/>
</mask>
<g mask="url(#mask0_7114_177861)">
<path opacity="0.3" d="M30.9393 19.6767C31.0417 19.2947 31.468 19.077 31.8915 19.1905C32.3151 19.304 32.5755 19.7057 32.4731 20.0876L29.4152 31.4999C29.3128 31.8819 28.8865 32.0996 28.463 31.9861C28.0394 31.8726 27.779 31.471 27.8814 31.089L30.9393 19.6767Z" fill="white"/>
<path opacity="0.3" d="M27.0499 19.6767C27.1523 19.2947 27.5786 19.077 28.0021 19.1905C28.4257 19.304 28.6861 19.7057 28.5837 20.0876L25.5258 31.4999C25.4234 31.8819 24.9971 32.0996 24.5736 31.9861C24.15 31.8726 23.8896 31.471 23.992 31.089L27.0499 19.6767Z" fill="white"/>
<path opacity="0.3" d="M23.1606 19.6767C23.263 19.2947 23.6893 19.077 24.1128 19.1905C24.5364 19.304 24.7968 19.7057 24.6944 20.0876L21.6365 31.4999C21.5341 31.8819 21.1078 32.0996 20.6843 31.9861C20.2607 31.8726 20.0003 31.471 20.1027 31.089L23.1606 19.6767Z" fill="white"/>
</g>
</g>
<path fill-rule="evenodd" clip-rule="evenodd" d="M18.3003 22.4318C18.3515 22.1301 18.7473 22.1484 19.0096 22.1994C20.2382 22.4379 22.7831 22.6397 22.7831 24.3099C22.7831 24.7903 22.5426 25.1683 22.2603 25.4421C22.0142 25.6808 21.6715 25.867 21.3829 26.0099C21.6714 26.1521 22.014 26.3377 22.2601 26.5763C22.543 26.8505 22.7831 27.2288 22.7831 27.7099C22.7831 29.144 20.507 29.5632 19.4361 29.8028C19.0621 29.8864 18.3798 29.9527 18.3214 29.5978C18.2677 29.2714 18.8756 29.1546 19.2501 29.0528C19.7315 28.922 21.7831 28.4428 21.7831 27.7099C21.7831 26.8728 20.7416 26.5321 20.2669 26.3937C19.9499 26.3012 19.6358 26.2557 19.6358 26.0099C19.6358 25.7361 19.95 25.6967 20.2669 25.6034C20.7393 25.4642 21.7831 25.1635 21.7831 24.3099C21.7831 23.3909 19.5889 23.0331 18.8479 22.8892C18.588 22.8387 18.2453 22.7563 18.3003 22.4318Z" fill="#783E11" stroke="#783E11" stroke-width="0.2" stroke-linecap="square" stroke-linejoin="round"/>
<rect x="29.0969" y="0.645813" width="2.5" height="2.5" transform="rotate(5 29.0969 0.645813)" fill="#F8D701"/>
<rect x="33.4689" y="5.19363" width="2.5" height="2.5" transform="rotate(15 33.4689 5.19363)" fill="#FF5F5A"/>
<rect x="5.53552" y="32.6446" width="2.5" height="2.5" transform="rotate(15 5.53552 32.6446)" fill="#FF4A45"/>
<rect x="24.088" y="33.2917" width="2.5" height="2.5" transform="rotate(5 24.088 33.2917)" fill="#3D93EC"/>
<rect x="2.61597" y="26.7193" width="2.5" height="2.5" transform="rotate(5 2.61597 26.7193)" fill="#3D93EC"/>
<path d="M3.70754 11.5706L0.525562 0.610417L11.4857 3.7924C11.4857 3.7924 11.4857 6.10171 8.75129 8.83614C6.01685 11.5706 3.70754 11.5706 3.70754 11.5706Z" fill="#D9D9D9"/>
<path d="M3.70754 11.5706L0.525562 0.610417L11.4857 3.7924C11.4857 3.7924 11.4857 6.10171 8.75129 8.83614C6.01685 11.5706 3.70754 11.5706 3.70754 11.5706Z" fill="url(#paint6_linear_7114_177861)"/>
<mask id="mask1_7114_177861" style="mask-type:alpha" maskUnits="userSpaceOnUse" x="0" y="0" width="12" height="12">
<path d="M3.70754 11.5706L0.525562 0.610417L11.4857 3.7924C11.4857 3.7924 11.4857 6.10171 8.75129 8.83614C6.01685 11.5706 3.70754 11.5706 3.70754 11.5706Z" fill="#D9D9D9"/>
<path d="M3.70754 11.5706L0.525562 0.610417L11.4857 3.7924C11.4857 3.7924 11.4857 6.10171 8.75129 8.83614C6.01685 11.5706 3.70754 11.5706 3.70754 11.5706Z" fill="url(#paint7_linear_7114_177861)"/>
</mask>
<g mask="url(#mask1_7114_177861)">
<path opacity="0.3" d="M9.66932 1.22312C9.86705 0.880635 10.2794 0.748504 10.5903 0.927997C10.9012 1.10749 10.9929 1.53063 10.7952 1.87312L4.88771 12.1051C4.68997 12.4476 4.27765 12.5797 3.96676 12.4002C3.65587 12.2207 3.56414 11.7976 3.76187 11.4551L9.66932 1.22312Z" fill="white"/>
<path opacity="0.3" d="M6.23414 0.538151C6.43187 0.195668 6.84419 0.0635373 7.15508 0.24303C7.46597 0.422522 7.5577 0.845667 7.35997 1.18815L1.45253 11.4201C1.25479 11.7626 0.842473 11.8948 0.531583 11.7153C0.220693 11.5358 0.128961 11.1126 0.326694 10.7701L6.23414 0.538151Z" fill="white"/>
<path opacity="0.3" d="M2.79896 -0.146801C2.99669 -0.489284 3.40901 -0.621415 3.7199 -0.441922C4.03079 -0.262429 4.12252 0.160715 3.92479 0.503199L-1.98265 10.7352C-2.18039 11.0777 -2.59271 11.2098 -2.9036 11.0303C-3.21449 10.8508 -3.30622 10.4277 -3.10849 10.0852L2.79896 -0.146801Z" fill="white"/>
</g>
<rect x="2" y="13.9752" width="2.5" height="2.5" transform="rotate(-30 2 13.9752)" fill="#FF4A45"/>
<rect x="12.9991" y="0.46907" width="2.5" height="2.5" transform="rotate(15 12.9991 0.46907)" fill="#3D93EC"/>
<defs>
<filter id="filter0_d_7114_177861" x="18.9229" y="17.396" width="18.0771" height="17.247" filterUnits="userSpaceOnUse" color-interpolation-filters="sRGB">
<feFlood flood-opacity="0" result="BackgroundImageFix"/>
<feColorMatrix in="SourceAlpha" type="matrix" values="0 0 0 0 0 0 0 0 0 0 0 0 0 0 0 0 0 0 127 0" result="hardAlpha"/>
<feOffset/>
<feGaussianBlur stdDeviation="1"/>
<feComposite in2="hardAlpha" operator="out"/>
<feColorMatrix type="matrix" values="0 0 0 0 0.807843 0 0 0 0 0.588235 0 0 0 0 0.207843 0 0 0 0.5 0"/>
<feBlend mode="normal" in2="BackgroundImageFix" result="effect1_dropShadow_7114_177861"/>
<feBlend mode="normal" in="SourceGraphic" in2="effect1_dropShadow_7114_177861" result="shape"/>
</filter>
<radialGradient id="paint0_radial_7114_177861" cx="0" cy="0" r="1" gradientUnits="userSpaceOnUse" gradientTransform="translate(17.4754 9.00962) rotate(73.7184) scale(27.5504)">
<stop stop-color="#FFF1AA"/>
<stop offset="0.34375" stop-color="#FFE564"/>
<stop offset="0.760417" stop-color="#F4CC00"/>
<stop offset="1" stop-color="#F29E0B"/>
</radialGradient>
<radialGradient id="paint1_radial_7114_177861" cx="0" cy="0" r="1" gradientUnits="userSpaceOnUse" gradientTransform="translate(17.4754 9.00962) rotate(73.7184) scale(27.5504)">
<stop stop-color="#FBEB9D"/>
<stop offset="0.34375" stop-color="#F6E071"/>
<stop offset="0.786458" stop-color="#ECC91A"/>
<stop offset="1" stop-color="#E3BE00"/>
</radialGradient>
<radialGradient id="paint2_radial_7114_177861" cx="0" cy="0" r="1" gradientUnits="userSpaceOnUse" gradientTransform="translate(7.27473 18.7494) rotate(90) scale(9.12425 5.48291)">
<stop stop-color="#FF2727"/>
<stop offset="1" stop-color="#F6E071" stop-opacity="0.07"/>
</radialGradient>
<radialGradient id="paint3_radial_7114_177861" cx="0" cy="0" r="1" gradientUnits="userSpaceOnUse" gradientTransform="translate(5.03498 12.0772) rotate(90) scale(9.07188 5.45144)">
<stop stop-color="#FF2727"/>
<stop offset="1" stop-color="#F6E071" stop-opacity="0.07"/>
</radialGradient>
<linearGradient id="paint4_linear_7114_177861" x1="26.6647" y1="19.9026" x2="26.6647" y2="31.8822" gradientUnits="userSpaceOnUse">
<stop stop-color="#B389F4"/>
<stop offset="1" stop-color="#8F53ED"/>
</linearGradient>
<linearGradient id="paint5_linear_7114_177861" x1="26.6648" y1="19.9026" x2="26.6648" y2="31.8822" gradientUnits="userSpaceOnUse">
<stop stop-color="#B389F4"/>
<stop offset="1" stop-color="#8F53ED"/>
</linearGradient>
<linearGradient id="paint6_linear_7114_177861" x1="0.0341344" y1="0.745184" x2="8.43819" y2="9.14924" gradientUnits="userSpaceOnUse">
<stop stop-color="#B389F4"/>
<stop offset="1" stop-color="#8F53ED"/>
</linearGradient>
<linearGradient id="paint7_linear_7114_177861" x1="0.0341344" y1="0.745184" x2="8.43819" y2="9.14924" gradientUnits="userSpaceOnUse">
<stop stop-color="#B389F4"/>
<stop offset="1" stop-color="#8F53ED"/>
</linearGradient>
</defs>
</svg>
