<svg width="34" height="34" viewBox="0 0 34 34" fill="none" xmlns="http://www.w3.org/2000/svg">
<path fill-rule="evenodd" clip-rule="evenodd" d="M18.0589 2.20084C18.0589 2.20084 18.7112 3.67659 19.4773 5.05876C20.2434 6.44094 20.829 7.73127 20.829 8.58561C20.829 8.65222 20.8273 8.71844 20.8239 8.78422C23.4753 9.02283 25.7703 11.0719 25.7703 13.8202C25.7703 13.9618 25.7628 14.102 25.748 14.2404C25.7024 14.6685 25.5877 15.0793 25.4131 15.4575C25.9015 15.5919 26.3648 15.7943 26.7894 16.0547C28.2356 16.9415 29.2313 18.5006 29.2313 20.3344C29.2313 20.6147 29.2028 20.8895 29.1481 21.1555C29.0745 21.5134 28.9537 21.8553 28.7914 22.173C29.2088 22.3193 29.602 22.5211 29.9605 22.7701C31.1814 23.618 32 25.0132 32 26.6266C32 28.8445 30.423 30.7478 28.2314 31.0886C25.0135 31.5889 20.3698 32.2009 16.9067 32.2009C13.4611 32.2009 8.91157 31.5951 5.74882 31.0962C3.56603 30.7519 2 28.8538 2 26.644C2 25.0292 2.82032 23.6335 4.04301 22.7853C4.40043 22.5374 4.79223 22.3362 5.20798 22.1901C5.04695 21.8749 4.92677 21.5359 4.85319 21.181C4.79767 20.9132 4.76868 20.6365 4.76868 20.3541C4.76868 18.5215 5.76452 16.9642 7.21027 16.0767C7.63468 15.8162 8.09786 15.6133 8.58599 15.4782C8.41326 15.1043 8.29936 14.6985 8.25308 14.2756C8.23758 14.134 8.22966 13.9904 8.22966 13.8455C8.22966 11.0996 10.5264 9.05742 13.1774 8.80692C13.1732 8.73368 13.171 8.65989 13.171 8.58561C13.171 7.73127 13.3026 6.68225 14.2981 5.05876C14.8783 4.11268 15.8908 3.37028 16.7192 2.87951C17.1146 2.64524 17.4681 2.46831 17.7126 2.35393C17.9281 2.25306 18.0589 2.20084 18.0589 2.20084ZM11.7394 7.55692C9.01259 8.32823 6.72966 10.6668 6.72966 13.8455C6.72966 14.0985 6.74719 14.349 6.78142 14.5954C4.74364 15.6865 3.26868 17.7952 3.26868 20.3541C3.26868 20.7202 3.30441 21.0802 3.3732 21.4299C1.67458 22.5238 0.5 24.4157 0.5 26.644C0.5 29.5647 2.57653 32.1143 5.51509 32.5779C8.68369 33.0777 13.3339 33.7009 16.9067 33.7009C20.496 33.7009 25.2399 33.0717 28.4619 32.5708C31.4093 32.1125 33.5 29.5583 33.5 26.6266C33.5 24.3988 32.326 22.5057 30.6265 21.4121C30.6955 21.0618 30.7313 20.7011 30.7313 20.3344C30.7313 17.7757 29.2577 15.6641 27.2182 14.5735C27.2527 14.3261 27.2703 14.0744 27.2703 13.8202C27.2703 10.6132 24.9484 8.25058 22.1817 7.50834C22.0901 7.14527 21.9648 6.79039 21.8321 6.46043C21.5569 5.77603 21.1857 5.04682 20.7893 4.33158C20.4263 3.67668 20.086 2.99166 19.8343 2.46479C19.709 2.20274 19.6072 1.98286 19.537 1.82935C19.5019 1.75265 19.4749 1.69268 19.4568 1.65248L19.4366 1.60743L19.4319 1.59678L18.846 0.271347L17.5026 0.807793L18.0589 2.20084C17.5026 0.807793 17.503 0.807665 17.5026 0.807793L17.4998 0.80895L17.4959 0.81051L17.4852 0.814837L17.4525 0.828299C17.4259 0.839399 17.3895 0.854766 17.3445 0.874326C17.2546 0.913405 17.1297 0.969463 16.9784 1.04192C16.6771 1.18619 16.2638 1.39891 15.8098 1.67608C14.9404 2.20694 13.7567 3.07223 13.0194 4.27463C12.2037 5.60478 11.8663 6.65783 11.7394 7.55692Z" fill="#6D380F"/>
<path fill-rule="evenodd" clip-rule="evenodd" d="M18.0589 2.20084C18.0589 2.20084 18.7112 3.67659 19.4773 5.05876C20.2434 6.44094 20.829 7.73127 20.829 8.58561C20.829 8.65222 20.8273 8.71844 20.8239 8.78422C23.4753 9.02283 25.7703 11.0719 25.7703 13.8202C25.7703 13.9618 25.7628 14.102 25.748 14.2404C25.7024 14.6685 25.5877 15.0793 25.4131 15.4575C25.9015 15.5919 26.3648 15.7943 26.7894 16.0547C28.2356 16.9415 29.2313 18.5006 29.2313 20.3344C29.2313 20.6147 29.2028 20.8895 29.1481 21.1555C29.0745 21.5134 28.9537 21.8553 28.7914 22.173C29.2088 22.3193 29.602 22.5211 29.9605 22.7701C31.1814 23.618 32 25.0132 32 26.6266C32 28.8445 30.423 30.7478 28.2314 31.0886C25.0135 31.5889 20.3698 32.2009 16.9067 32.2009C13.4611 32.2009 8.91157 31.5951 5.74882 31.0962C3.56603 30.7519 2 28.8538 2 26.644C2 25.0292 2.82032 23.6335 4.04301 22.7853C4.40043 22.5374 4.79223 22.3362 5.20798 22.1901C5.04695 21.8749 4.92677 21.5359 4.85319 21.181C4.79767 20.9132 4.76868 20.6365 4.76868 20.3541C4.76868 18.5215 5.76452 16.9642 7.21027 16.0767C7.63468 15.8162 8.09786 15.6133 8.58599 15.4782C8.41326 15.1043 8.29936 14.6985 8.25308 14.2756C8.23758 14.134 8.22966 13.9904 8.22966 13.8455C8.22966 11.0996 10.5264 9.05742 13.1774 8.80692C13.1732 8.73368 13.171 8.65989 13.171 8.58561C13.171 7.73127 13.3026 6.68225 14.2981 5.05876C14.8783 4.11268 15.8908 3.37028 16.7192 2.87951C17.1146 2.64524 17.4681 2.46831 17.7126 2.35393C17.9281 2.25306 18.0589 2.20084 18.0589 2.20084ZM11.7394 7.55692C9.01259 8.32823 6.72966 10.6668 6.72966 13.8455C6.72966 14.0985 6.74719 14.349 6.78142 14.5954C4.74364 15.6865 3.26868 17.7952 3.26868 20.3541C3.26868 20.7202 3.30441 21.0802 3.3732 21.4299C1.67458 22.5238 0.5 24.4157 0.5 26.644C0.5 29.5647 2.57653 32.1143 5.51509 32.5779C8.68369 33.0777 13.3339 33.7009 16.9067 33.7009C20.496 33.7009 25.2399 33.0717 28.4619 32.5708C31.4093 32.1125 33.5 29.5583 33.5 26.6266C33.5 24.3988 32.326 22.5057 30.6265 21.4121C30.6955 21.0618 30.7313 20.7011 30.7313 20.3344C30.7313 17.7757 29.2577 15.6641 27.2182 14.5735C27.2527 14.3261 27.2703 14.0744 27.2703 13.8202C27.2703 10.6132 24.9484 8.25058 22.1817 7.50834C22.0901 7.14527 21.9648 6.79039 21.8321 6.46043C21.5569 5.77603 21.1857 5.04682 20.7893 4.33158C20.4263 3.67668 20.086 2.99166 19.8343 2.46479C19.709 2.20274 19.6072 1.98286 19.537 1.82935C19.5019 1.75265 19.4749 1.69268 19.4568 1.65248L19.4366 1.60743L19.4319 1.59678L18.846 0.271347L17.5026 0.807793L18.0589 2.20084C17.5026 0.807793 17.503 0.807665 17.5026 0.807793L17.4998 0.80895L17.4959 0.81051L17.4852 0.814837L17.4525 0.828299C17.4259 0.839399 17.3895 0.854766 17.3445 0.874326C17.2546 0.913405 17.1297 0.969463 16.9784 1.04192C16.6771 1.18619 16.2638 1.39891 15.8098 1.67608C14.9404 2.20694 13.7567 3.07223 13.0194 4.27463C12.2037 5.60478 11.8663 6.65783 11.7394 7.55692Z" fill="#9A4E15" fill-opacity="0.6"/>
<path d="M2 26.644C2 23.7448 4.64413 21.5521 7.51371 21.9656C10.4623 22.3906 14.061 22.8038 16.9067 22.8038C19.7879 22.8038 23.4862 22.3802 26.5008 21.9497C29.366 21.5406 32 23.7324 32 26.6266C32 28.8445 30.423 30.7478 28.2314 31.0886C25.0135 31.5889 20.3698 32.2009 16.9067 32.2009C13.4611 32.2009 8.91157 31.5951 5.74882 31.0962C3.56603 30.7518 2 28.8538 2 26.644Z" fill="url(#paint0_linear_5557_34149)"/>
<path d="M4.76868 20.3541C4.76868 17.2005 7.71758 14.8623 10.8335 15.3491C12.8704 15.6673 15.0891 15.9256 16.9239 15.9256C18.7939 15.9256 21.086 15.6573 23.1831 15.3307C26.2948 14.8461 29.2313 17.1852 29.2313 20.3344C29.2313 22.2301 27.9259 23.8752 26.0634 24.2285C23.4436 24.7253 19.714 25.3227 16.9239 25.3227C14.1466 25.3227 10.4895 24.7308 7.91473 24.2352C6.06266 23.8788 4.76868 22.2402 4.76868 20.3541Z" fill="url(#paint1_linear_5557_34149)"/>
<path d="M8.22966 13.8455C8.22966 10.6206 11.3974 8.36644 14.5866 8.84512C15.4112 8.96889 16.2202 9.04741 16.9454 9.04741C17.7048 9.04741 18.5613 8.96133 19.4345 8.82734C22.6182 8.33884 25.7703 10.5993 25.7703 13.8202C25.7703 15.5333 24.6674 17.0558 23.0071 17.4777C21.1737 17.9437 18.7772 18.4445 16.9454 18.4445C15.1209 18.4445 12.7669 17.9476 10.9653 17.4832C9.31905 17.0589 8.22966 15.5456 8.22966 13.8455Z" fill="url(#paint2_linear_5557_34149)"/>
<path d="M20.829 8.58559C20.829 10.6878 19.1147 12.3919 17 12.3919C14.8853 12.3919 13.171 10.6878 13.171 8.58559C13.171 7.73126 13.3026 6.68223 14.2981 5.05875C15.3994 3.2628 18.0589 2.20082 18.0589 2.20082C18.0589 2.20082 18.7112 3.67658 19.4773 5.05875C20.2434 6.44092 20.829 7.73126 20.829 8.58559Z" fill="url(#paint3_linear_5557_34149)"/>
<path fill-rule="evenodd" clip-rule="evenodd" d="M22.591 23.8208C22.591 23.5803 22.1454 23.5997 22.1454 23.5997L11.9226 23.5973C11.9226 23.5973 11.477 23.5779 11.477 23.818C11.477 25.3911 14.8742 26.5996 17.0346 26.6C19.195 26.6004 22.591 25.3911 22.591 23.8208Z" fill="white"/>
<path d="M15.5993 17.7565C15.5993 19.8484 14.2427 21.5441 12.5691 21.5441C10.8956 21.5441 9.53894 19.8484 9.53894 17.7565C9.53894 15.6647 10.8956 13.9689 12.5691 13.9689C14.2427 13.9689 15.5993 15.6647 15.5993 17.7565Z" fill="white"/>
<path d="M14.4357 17.7566C14.4357 19.226 13.6 20.4172 12.5691 20.4172C11.5382 20.4172 10.7025 19.226 10.7025 17.7566C10.7025 16.2871 11.5382 15.0959 12.5691 15.0959C13.6 15.0959 14.4357 16.2871 14.4357 17.7566Z" fill="#222222"/>
<path d="M24.4202 17.7565C24.4202 19.8484 23.0635 21.5441 21.39 21.5441C19.7165 21.5441 18.3598 19.8484 18.3598 17.7565C18.3598 15.6647 19.7165 13.9689 21.39 13.9689C23.0635 13.9689 24.4202 15.6647 24.4202 17.7565Z" fill="white"/>
<path d="M23.2566 17.7566C23.2566 19.226 22.4209 20.4172 21.39 20.4172C20.3591 20.4172 19.5234 19.226 19.5234 17.7566C19.5234 16.2871 20.3591 15.0959 21.39 15.0959C22.4209 15.0959 23.2566 16.2871 23.2566 17.7566Z" fill="#222222"/>
<defs>
<linearGradient id="paint0_linear_5557_34149" x1="17" y1="21.0529" x2="17" y2="32.2009" gradientUnits="userSpaceOnUse">
<stop stop-color="#8C4E1E"/>
<stop offset="1" stop-color="#70370C"/>
</linearGradient>
<linearGradient id="paint1_linear_5557_34149" x1="17" y1="14.1747" x2="17" y2="25.3227" gradientUnits="userSpaceOnUse">
<stop stop-color="#B0703E"/>
<stop offset="1" stop-color="#804213"/>
</linearGradient>
<linearGradient id="paint2_linear_5557_34149" x1="17" y1="7.29648" x2="17" y2="18.4445" gradientUnits="userSpaceOnUse">
<stop stop-color="#B9723C"/>
<stop offset="1" stop-color="#894918"/>
</linearGradient>
<linearGradient id="paint3_linear_5557_34149" x1="17" y1="2.20084" x2="17" y2="12.3919" gradientUnits="userSpaceOnUse">
<stop stop-color="#B9723C"/>
<stop offset="1" stop-color="#975523"/>
</linearGradient>
</defs>
</svg>
