<svg width="34" height="34" viewBox="0 0 34 34" fill="none" xmlns="http://www.w3.org/2000/svg">
<circle cx="17" cy="17" r="17" fill="url(#paint0_radial_8115_191324)"/>
<circle cx="17" cy="17" r="17" fill="#E35753" fill-opacity="0.3"/>
<path fill-rule="evenodd" clip-rule="evenodd" d="M17 34C26.3888 34 34 26.3888 34 17C34 7.61116 26.3888 0 17 0C7.61116 0 0 7.61116 0 17C0 26.3888 7.61116 34 17 34ZM17.0001 32.5141C25.5683 32.5141 32.5141 25.5683 32.5141 17.0001C32.5141 8.43195 25.5683 1.48608 17.0001 1.48608C8.43195 1.48608 1.48608 8.43195 1.48608 17.0001C1.48608 25.5683 8.43195 32.5141 17.0001 32.5141Z" fill="url(#paint1_radial_8115_191324)"/>
<path fill-rule="evenodd" clip-rule="evenodd" d="M17 34C26.3888 34 34 26.3888 34 17C34 7.61116 26.3888 0 17 0C7.61116 0 0 7.61116 0 17C0 26.3888 7.61116 34 17 34ZM17.0001 32.5141C25.5683 32.5141 32.5141 25.5683 32.5141 17.0001C32.5141 8.43195 25.5683 1.48608 17.0001 1.48608C8.43195 1.48608 1.48608 8.43195 1.48608 17.0001C1.48608 25.5683 8.43195 32.5141 17.0001 32.5141Z" fill="#B04441" fill-opacity="0.3"/>
<path d="M15.3293 20.6488C15.0532 20.6488 14.8283 20.4249 14.8322 20.1488C14.8429 19.3815 14.8918 18.6077 15.1046 17.87C15.288 17.2545 15.5544 16.7573 15.9036 16.3785C16.2528 15.9998 16.673 15.6565 17.1642 15.3487C17.5312 15.112 17.8596 14.8664 18.1497 14.6119C18.4397 14.3574 18.6705 14.0762 18.8421 13.7685C19.0138 13.4548 19.0996 13.1056 19.0996 12.7209C19.0996 12.3125 19.0019 11.9544 18.8066 11.6467C18.6113 11.3389 18.3479 11.1022 18.0165 10.9364C17.691 10.7707 17.3299 10.6879 16.9334 10.6879C16.5487 10.6879 16.1847 10.7737 15.8414 10.9453C15.4981 11.111 15.217 11.3596 14.998 11.6911C14.8554 11.9031 14.7554 12.1491 14.6981 12.429C14.6442 12.6925 14.4299 12.9073 14.1609 12.9073H11.5334C11.2524 12.9073 11.0244 12.6753 11.0506 12.3955C11.14 11.4392 11.4141 10.6332 11.873 9.97763C12.4116 9.2023 13.1248 8.62524 14.0126 8.24645C14.9004 7.86174 15.8799 7.66939 16.9511 7.66939C18.1289 7.66939 19.1706 7.8647 20.0761 8.25533C20.9817 8.64003 21.6919 9.19934 22.2068 9.93324C22.7217 10.6671 22.9792 11.552 22.9792 12.5877C22.9792 13.2802 22.8638 13.8957 22.633 14.4343C22.4081 14.967 22.0914 15.4405 21.683 15.8548C21.2747 16.2631 20.7923 16.633 20.236 16.9645C19.7684 17.2427 19.3837 17.5327 19.0818 17.8345C18.7859 18.1364 18.564 18.4856 18.416 18.8821C18.2695 19.2911 18.2189 19.7188 18.202 20.1489C18.1912 20.4248 17.9702 20.6488 17.694 20.6488H15.3293ZM16.5872 26.3306C15.9953 26.3306 15.4893 26.1235 15.069 25.7092C14.6547 25.2889 14.4506 24.7859 14.4565 24.1999C14.4506 23.6199 14.6547 23.1228 15.069 22.7085C15.4893 22.2942 15.9953 22.087 16.5872 22.087C17.1494 22.087 17.6436 22.2942 18.0698 22.7085C18.4959 23.1228 18.7119 23.6199 18.7178 24.1999C18.7119 24.5906 18.6083 24.9486 18.4071 25.2741C18.2118 25.5938 17.9543 25.8512 17.6347 26.0465C17.3151 26.2359 16.9659 26.3306 16.5872 26.3306Z" fill="white"/>
<path d="M16.5872 21.5874C17.2876 21.5874 17.9046 21.8507 18.4182 22.3501C18.9373 22.8547 19.2107 23.4779 19.218 24.1948V24.2075C19.2108 24.6853 19.0818 25.1304 18.8333 25.5336L18.8342 25.5346C18.5976 25.9218 18.2829 26.2364 17.8958 26.4731L17.8899 26.477C17.4916 26.7131 17.0538 26.8305 16.5872 26.8305C15.8644 26.8305 15.2321 26.5717 14.718 26.0649L14.7131 26.06C14.2061 25.5458 13.949 24.9149 13.9563 24.1948C13.9516 23.4832 14.2094 22.8607 14.7151 22.3549L14.718 22.352C15.2321 21.8453 15.8645 21.5874 16.5872 21.5874ZM16.9514 7.16939C18.1842 7.16942 19.2957 7.37406 20.2747 7.79634H20.2737C21.2556 8.2139 22.0431 8.82875 22.6165 9.64595C23.1991 10.4764 23.4787 11.4655 23.4788 12.5874C23.4788 13.3354 23.3549 14.0203 23.093 14.6313C22.8434 15.2216 22.4912 15.7471 22.0393 16.2055L22.0364 16.2085C21.5955 16.6493 21.0791 17.0439 20.4915 17.394C20.0505 17.6564 19.7015 17.9223 19.4358 18.1879C19.1922 18.4373 19.0099 18.7234 18.887 19.0502L18.8088 19.312C18.7434 19.5788 18.7134 19.8633 18.7014 20.1684C18.6807 20.6977 18.253 21.1489 17.6936 21.1489H15.3293C14.7798 21.1489 14.3246 20.7023 14.3323 20.142L14.3499 19.5493C14.3792 18.9504 14.4505 18.3343 14.6243 17.7319L14.6252 17.727C14.8252 17.0561 15.1244 16.4864 15.5364 16.0395C15.9178 15.6259 16.3711 15.2557 16.8928 14.9282C17.2418 14.7031 17.5503 14.4721 17.8196 14.2358C18.0707 14.0154 18.2642 13.7782 18.4055 13.5249C18.5325 13.2913 18.5998 13.0268 18.5999 12.7211C18.5999 12.3959 18.5225 12.1328 18.384 11.9145C18.2383 11.6849 18.0447 11.509 17.7932 11.3833L17.7893 11.3823C17.5401 11.2554 17.2582 11.188 16.9338 11.1879C16.6266 11.1879 16.3384 11.2552 16.0647 11.392L16.0588 11.396C15.8003 11.5208 15.5867 11.7069 15.4153 11.9663L15.4133 11.9702C15.3112 12.122 15.2335 12.3055 15.1877 12.5288C15.097 12.9722 14.717 13.4077 14.1604 13.4077H11.5334C10.9818 13.4077 10.4973 12.9454 10.553 12.3491L10.5979 11.9711C10.726 11.103 11.0101 10.3381 11.4631 9.69087C12.056 8.83797 12.8432 8.20217 13.8137 7.78755C14.7707 7.37287 15.8191 7.16939 16.9514 7.16939Z" stroke="black" stroke-opacity="0.1"/>
<defs>
<radialGradient id="paint0_radial_8115_191324" cx="0" cy="0" r="1" gradientUnits="userSpaceOnUse" gradientTransform="translate(15.4754 7.00962) rotate(73.7184) scale(27.5504)">
<stop stop-color="#FFCAC9"/>
<stop offset="0.34375" stop-color="#FFB9B7"/>
<stop offset="0.96875" stop-color="#FF6D69"/>
</radialGradient>
<radialGradient id="paint1_radial_8115_191324" cx="0" cy="0" r="1" gradientUnits="userSpaceOnUse" gradientTransform="translate(15.4754 7.00962) rotate(73.7184) scale(27.5504)">
<stop stop-color="#FFCAC9"/>
<stop offset="0.34375" stop-color="#FFB9B7"/>
<stop offset="0.96875" stop-color="#FF635F"/>
</radialGradient>
</defs>
</svg>
