<svg width="34" height="34" viewBox="0 0 34 34" fill="none" xmlns="http://www.w3.org/2000/svg">
<path fill-rule="evenodd" clip-rule="evenodd" d="M14.2183 2.5221L14.2494 2.40043C14.5924 1.05588 15.8528 0.125984 17.2794 0.125984L17.3375 0.125984C18.584 0.125984 19.6945 0.8318 20.1898 1.90124L20.2824 2.10118L20.2824 2.92006C20.8366 2.46258 21.5555 2.1938 22.3226 2.1938L22.3806 2.1938C23.3755 2.1938 24.1107 2.74614 24.5567 3.3999C24.9896 4.03444 25.201 4.82181 25.2029 5.54521L25.4489 18.8642C25.733 18.5593 26.051 18.2844 26.4043 18.0891C27.0711 17.7204 27.6335 17.5082 28.1937 17.4261C28.7487 17.3448 29.2321 17.4035 29.6704 17.4635L29.6724 17.4637L29.9046 17.496C29.9046 17.4959 29.9047 17.496 29.9046 17.496C30.557 17.5864 31.1519 17.8646 31.6832 18.282C32.4467 18.882 32.6106 19.9693 32.021 20.7583L24.6936 31.9296L23.8636 32.4552C23.7405 32.552 23.6224 32.6051 23.5557 32.6323C23.4398 32.6796 23.3272 32.708 23.2399 32.7261C23.0639 32.7627 22.8762 32.7807 22.7209 32.7909C22.4411 32.8092 22.1533 32.8082 22.0217 32.8077C22.0051 32.8077 21.991 32.8076 21.9797 32.8076H10.3356L10.3026 32.8071C9.74825 32.7932 9.21001 32.522 8.88395 32.0418C6.12936 27.9848 5.41398 23.4027 5.21988 21.6965C5.12033 20.8214 5.06704 19.4993 5.03795 18.4262C5.02322 17.8832 5.01445 17.3928 5.00935 17.0381C5.00679 16.8607 5.00516 16.7171 5.00416 16.6175L5.00311 16.5026L5.0028 16.4623L6.00277 16.455C6.00277 16.455 6.02535 19.9298 6.21347 21.5835C6.40159 23.2371 7.09364 27.6248 9.71127 31.4801C9.84614 31.6787 10.0774 31.8011 10.3278 31.8074L10.3481 31.8076H21.9797C21.9934 31.8076 22.0093 31.8077 22.0274 31.8077C22.316 31.8086 23.1302 31.8109 23.2647 31.6508L23.976 31.2004L31.2048 20.1793C31.4795 19.8328 31.4184 19.3458 31.0653 19.0683C30.6513 18.743 30.2186 18.549 29.7673 18.4865L29.5349 18.4542C28.6712 18.3361 28.0911 18.2992 26.8882 18.9642C26.3938 19.2376 25.9228 19.7933 25.4782 20.4499C25.1487 20.9365 24.8336 21.4785 24.5342 22.0022L24.5075 22.0491L24.5064 21.9863L24.2029 5.55521C24.2029 4.4591 23.5509 3.1938 22.3806 3.1938L22.3226 3.1938C21.3515 3.1938 20.5331 3.80547 20.2824 4.63984C20.2749 4.66486 20.2679 4.69008 20.2614 4.71548L20.2694 14.28C20.2694 14.4858 20.0949 14.6535 19.8769 14.6604L19.6888 14.6606C19.469 14.6606 19.29 14.4972 19.2826 14.2931L19.2824 14.2808L19.2824 2.32153C18.9566 1.61805 18.2084 1.12598 17.3375 1.12598H17.2794C16.2793 1.12598 15.441 1.77488 15.2183 2.64766L15.2184 15.15C15.2184 15.1553 15.2183 15.1606 15.218 15.1658C15.2094 15.3644 15.0383 15.5237 14.826 15.5304L14.812 15.5306H14.6378C14.4181 15.5306 14.239 15.3672 14.2317 15.1631L14.2314 15.15L14.4054 4.32604C14.3534 4.2155 14.2906 4.1104 14.2183 4.0119C13.8468 3.50558 13.2241 3.17356 12.5185 3.17356C11.5482 3.17356 10.7345 3.80156 10.5155 4.64725L10.4148 15.8167C10.4148 15.8259 10.4145 15.835 10.4138 15.8441C10.3992 16.0372 10.2306 16.1905 10.0224 16.1971L10.0084 16.1973H9.83428C9.6145 16.1973 9.43547 16.0339 9.42811 15.8298L9.42788 15.8167L9.60129 9.57418C9.60129 9.35782 9.55705 9.15113 9.47658 8.96163C9.21641 8.34889 8.57748 7.91575 7.83054 7.91575C6.85259 7.91575 6.18158 9.00999 6.18158 9.92591L6.00277 16.455L5.0028 16.4623L5.00269 16.4445L5.18162 9.91076C5.18518 9.2347 5.42642 8.52988 5.8383 7.97874C6.25685 7.41866 6.93758 6.91575 7.83054 6.91575C8.43909 6.91575 9.0194 7.10998 9.49024 7.44639L9.51665 4.51543L9.54744 4.39655C9.88808 3.08117 11.1226 2.17356 12.5185 2.17356C13.1401 2.17356 13.7273 2.35245 14.2183 2.66627L14.2183 2.5221Z" fill="#CD942F"/>
<path fill-rule="evenodd" clip-rule="evenodd" d="M17.2795 1.12598C16.2794 1.12598 15.4411 1.77487 15.2184 2.64766L15.2185 15.15C15.2185 15.3558 15.044 15.5235 14.826 15.5304L14.8121 15.5306H14.6379C14.4181 15.5306 14.2391 15.3672 14.2317 15.1631L14.2315 15.15L14.4055 4.32604C14.086 3.64734 13.3614 3.17356 12.5186 3.17356C11.5483 3.17356 10.7346 3.80155 10.5156 4.64724L10.4149 15.8167C10.4149 16.0225 10.2405 16.1902 10.0225 16.1971L10.0085 16.1973L9.83433 16.1973C9.61456 16.1973 9.43553 16.0339 9.42817 15.8298L9.42793 15.8167L9.60135 9.57417C9.60135 8.65825 8.80856 7.91574 7.8306 7.91574C6.85265 7.91574 6.18164 9.00998 6.18164 9.92591L6.00283 16.455C6.00283 16.455 6.02541 19.9298 6.21353 21.5835C6.40165 23.2371 7.0937 27.6248 9.71133 31.4801C9.8462 31.6787 10.0775 31.8011 10.3279 31.8074L10.3482 31.8076L21.9798 31.8076C22.2116 31.8076 23.1219 31.8209 23.2647 31.6508L23.9761 31.2004L31.2049 20.1793C31.4796 19.8328 31.4184 19.3458 31.0654 19.0683C30.6513 18.743 30.2187 18.549 29.7673 18.4865L29.535 18.4542C28.6712 18.3361 28.0912 18.2992 26.8882 18.9642C26.0275 19.4401 25.2376 20.772 24.5343 22.0022L24.5076 22.0491L24.203 5.55521C24.203 4.4591 23.551 3.1938 22.3807 3.1938L22.3226 3.1938C21.3225 3.1938 20.4842 3.84269 20.2615 4.71548L20.2694 14.28C20.2694 14.4858 20.095 14.6535 19.877 14.6604L19.6889 14.6606C19.4691 14.6606 19.2901 14.4972 19.2827 14.2931L19.2825 14.28L19.2825 2.32152C18.9567 1.61804 18.2085 1.12598 17.3375 1.12598H17.2795Z" fill="url(#paint0_radial_5557_34255)"/>
<path fill-rule="evenodd" clip-rule="evenodd" d="M17.2795 1.12598C16.2794 1.12598 15.4411 1.77487 15.2184 2.64766L15.2185 15.15C15.2185 15.3558 15.044 15.5235 14.826 15.5304L14.8121 15.5306H14.6379C14.4181 15.5306 14.2391 15.3672 14.2317 15.1631L14.2315 15.15L14.4055 4.32604C14.086 3.64734 13.3614 3.17356 12.5186 3.17356C11.5483 3.17356 10.7346 3.80155 10.5156 4.64724L10.4149 15.8167C10.4149 16.0225 10.2405 16.1902 10.0225 16.1971L10.0085 16.1973L9.83433 16.1973C9.61456 16.1973 9.43553 16.0339 9.42817 15.8298L9.42793 15.8167L9.60135 9.57417C9.60135 8.65825 8.80856 7.91574 7.8306 7.91574C6.85265 7.91574 6.18164 9.00998 6.18164 9.92591L6.00283 16.455C6.00283 16.455 6.02541 19.9298 6.21353 21.5835C6.40165 23.2371 7.0937 27.6248 9.71133 31.4801C9.8462 31.6787 10.0775 31.8011 10.3279 31.8074L10.3482 31.8076L21.9798 31.8076C22.2116 31.8076 23.1219 31.8209 23.2647 31.6508L23.9761 31.2004L31.2049 20.1793C31.4796 19.8328 31.4184 19.3458 31.0654 19.0683C30.6513 18.743 30.2187 18.549 29.7673 18.4865L29.535 18.4542C28.6712 18.3361 28.0912 18.2992 26.8882 18.9642C26.0275 19.4401 25.2376 20.772 24.5343 22.0022L24.5076 22.0491L24.203 5.55521C24.203 4.4591 23.551 3.1938 22.3807 3.1938L22.3226 3.1938C21.3225 3.1938 20.4842 3.84269 20.2615 4.71548L20.2694 14.28C20.2694 14.4858 20.095 14.6535 19.877 14.6604L19.6889 14.6606C19.4691 14.6606 19.2901 14.4972 19.2827 14.2931L19.2825 14.28L19.2825 2.32152C18.9567 1.61804 18.2085 1.12598 17.3375 1.12598H17.2795Z" fill="#FFE45C" fill-opacity="0.23"/>
<defs>
<radialGradient id="paint0_radial_5557_34255" cx="0" cy="0" r="1" gradientTransform="matrix(-6.54063 21.0416 -19.7164 -6.43897 17.0946 10.6166)" gradientUnits="userSpaceOnUse">
<stop stop-color="#FBEB9D"/>
<stop offset="0.34375" stop-color="#F6E071"/>
<stop offset="1" stop-color="#ECC91A"/>
</radialGradient>
</defs>
</svg>
