<svg width="38" height="35" viewBox="0 0 38 35" fill="none" xmlns="http://www.w3.org/2000/svg">
<circle cx="19" cy="17" r="17" fill="url(#paint0_radial_5652_33828)"/>
<g opacity="0.5">
<path fill-rule="evenodd" clip-rule="evenodd" d="M19 34C28.3888 34 36 26.3888 36 17C36 7.61116 28.3888 0 19 0C9.61116 0 2 7.61116 2 17C2 26.3888 9.61116 34 19 34ZM19.0001 32.5141C27.5683 32.5141 34.5141 25.5683 34.5141 17.0001C34.5141 8.43195 27.5683 1.48608 19.0001 1.48608C10.4319 1.48608 3.48608 8.43195 3.48608 17.0001C3.48608 25.5683 10.4319 32.5141 19.0001 32.5141Z" fill="url(#paint1_radial_5652_33828)"/>
<path fill-rule="evenodd" clip-rule="evenodd" d="M19 34C28.3888 34 36 26.3888 36 17C36 7.61116 28.3888 0 19 0C9.61116 0 2 7.61116 2 17C2 26.3888 9.61116 34 19 34ZM19.0001 32.5141C27.5683 32.5141 34.5141 25.5683 34.5141 17.0001C34.5141 8.43195 27.5683 1.48608 19.0001 1.48608C10.4319 1.48608 3.48608 8.43195 3.48608 17.0001C3.48608 25.5683 10.4319 32.5141 19.0001 32.5141Z" fill="#C08200" fill-opacity="0.28"/>
</g>
<ellipse opacity="0.3" cx="9.27942" cy="17.396" rx="7.03968" ry="12.6714" fill="url(#paint2_radial_5652_33828)"/>
<ellipse opacity="0.3" cx="7.03968" cy="12.6714" rx="7.03968" ry="12.6714" transform="matrix(-1 0 0 1 36.1366 4.72455)" fill="url(#paint3_radial_5652_33828)"/>
<path fill-rule="evenodd" clip-rule="evenodd" d="M13.6584 22.4771C13.6584 22.1685 13.9318 21.9982 14.1139 22.1934C15.6048 23.7894 17.4026 24.4668 19.3383 24.4663C21.2744 24.4658 23.0714 23.7869 24.5616 22.1902C24.7437 21.9951 25.017 22.1654 25.017 22.4734V23.4697C25.017 23.5748 24.9832 23.6767 24.9239 23.7466C23.3664 25.5907 21.4341 26.4375 19.3387 26.438C17.2433 26.4385 15.3102 25.5933 13.752 23.7503C13.6927 23.6798 13.6588 23.5784 13.6588 23.4733L13.6584 22.4771Z" fill="#783E11"/>
<path fill-rule="evenodd" clip-rule="evenodd" d="M12.69 13.9462C11.5991 13.9409 10.5868 14.3488 9.73038 15.0491C9.67022 15.0987 9.63526 15.1771 9.63556 15.2586L9.6403 16.0108C9.64161 16.2081 9.84265 16.3363 10.0035 16.2383C10.7234 15.7956 11.5284 15.5468 12.3813 15.5511C13.4822 15.556 14.5084 15.9796 15.3788 16.7002C15.539 16.8335 15.7701 16.7134 15.7686 16.4982L15.7615 15.2814C15.7612 15.1994 15.7252 15.1205 15.6637 15.0708C14.7986 14.3647 13.7801 13.9506 12.69 13.9462Z" fill="#783E11"/>
<path opacity="0.5" fill-rule="evenodd" clip-rule="evenodd" d="M8.40558 10.8238C9.37491 9.70058 10.6268 8.97024 11.8981 8.62169C13.1695 8.27313 13.8691 8.22696 14.4548 8.37694C14.6031 8.41549 14.7158 8.52162 14.7737 8.66025L14.791 8.70187C14.968 9.12766 14.653 9.60205 14.0761 9.63072C13.4992 9.6594 12.5914 9.89438 12.1524 9.98543C11.0786 10.2081 10.0659 10.7941 9.20076 11.6184C8.88159 11.9225 8.40364 11.8577 8.25751 11.5062C8.16838 11.293 8.23034 11.0267 8.40558 10.8238Z" fill="#783E11"/>
<path opacity="0.5" fill-rule="evenodd" clip-rule="evenodd" d="M29.4828 10.8238C28.5135 9.70058 27.2617 8.97024 25.9903 8.62169C24.719 8.27313 24.0194 8.22696 23.4337 8.37694C23.2853 8.41549 23.1726 8.52162 23.1147 8.66025L23.0974 8.70187C22.9204 9.12766 23.2354 9.60205 23.8123 9.63072C24.3892 9.6594 25.297 9.89438 25.7361 9.98543C26.8098 10.2081 27.8225 10.7941 28.6877 11.6184C29.0068 11.9225 29.4848 11.8577 29.6309 11.5062C29.72 11.293 29.6581 11.0267 29.4828 10.8238Z" fill="#783E11"/>
<path fill-rule="evenodd" clip-rule="evenodd" d="M25.1984 13.9462C26.2894 13.9409 27.3016 14.3488 28.158 15.0491C28.2182 15.0987 28.2532 15.1771 28.2529 15.2586L28.2481 16.0108C28.2468 16.2081 28.0458 16.3363 27.8849 16.2383C27.165 15.7956 26.3601 15.5468 25.5072 15.5511C24.4062 15.556 23.38 15.9796 22.5096 16.7002C22.3495 16.8335 22.1183 16.7134 22.1198 16.4982L22.1269 15.2814C22.1273 15.1994 22.1632 15.1205 22.2248 15.0708C23.0898 14.3647 24.1084 13.9506 25.1984 13.9462Z" fill="#783E11"/>
<path fill-rule="evenodd" clip-rule="evenodd" d="M1.51495 20.026C0.691422 20.681 0.328761 21.7042 0.491472 22.7226C0.528227 22.9521 0.581752 23.1779 0.635961 23.4043C0.699636 23.6715 0.792793 23.9292 0.903371 24.1804C1.90743 26.4527 4.8769 27.5708 7.16772 28.3215C8.71474 27.0022 10.3838 25.5519 11.2305 23.7178C11.5075 23.1145 11.626 22.4807 11.604 21.8182C11.596 21.5814 11.5728 21.3464 11.5401 21.112C11.4927 20.769 11.4182 20.432 11.2713 20.1161C10.9487 19.4238 10.4378 18.9289 9.72801 18.6477C9.33209 18.4907 8.92033 18.4335 8.49608 18.4609C8.22944 18.4782 7.96828 18.5265 7.71543 18.6139C7.22645 18.783 6.81276 19.0663 6.46736 19.4518C6.17534 19.7755 5.95683 20.1451 5.79693 20.5506C5.79204 20.5618 5.78771 20.5729 5.78276 20.5837C5.73527 20.5363 5.69529 20.491 5.65329 20.4473C5.24275 20.0194 4.76361 19.6999 4.19504 19.5229C3.85197 19.4162 3.50047 19.375 3.14241 19.4004C3.04057 19.4076 2.93997 19.4204 2.84023 19.438C2.70835 19.4612 2.57824 19.493 2.44971 19.5336C2.10781 19.6408 1.79507 19.8033 1.51495 20.026Z" fill="url(#paint4_radial_5652_33828)"/>
<path fill-rule="evenodd" clip-rule="evenodd" d="M28.581 2.52636C27.602 2.91195 26.956 3.78439 26.8139 4.80584C26.7819 5.03606 26.7671 5.26764 26.7527 5.50002C26.7355 5.77411 26.7492 6.04784 26.7815 6.32043C27.0774 8.78698 29.5902 10.7244 31.5614 12.112C33.4266 11.3028 35.4467 10.4038 36.7927 8.89733C37.234 8.40138 37.5326 7.82994 37.7053 7.18999C37.7668 6.96112 37.8134 6.72966 37.8506 6.49591C37.9056 6.15409 37.9328 5.81 37.8848 5.465C37.7787 4.7086 37.4348 4.08592 36.8382 3.60954C36.5055 3.34364 36.1284 3.16852 35.7147 3.07074C35.4547 3.00926 35.1908 2.97913 34.9235 2.98874C34.4064 3.00747 33.9279 3.15749 33.4849 3.42515C33.111 3.64938 32.794 3.93894 32.5225 4.27995C32.5146 4.2892 32.5072 4.29853 32.4993 4.30741C32.4678 4.24822 32.4428 4.19324 32.4154 4.13911C32.1479 3.60993 31.7831 3.16428 31.2911 2.8288C30.9942 2.6264 30.6701 2.48431 30.3203 2.40384C30.2208 2.38102 30.1209 2.36382 30.0203 2.35148C29.8874 2.33516 29.7537 2.32746 29.6189 2.32871C29.2606 2.33132 28.914 2.39523 28.581 2.52636Z" fill="url(#paint5_radial_5652_33828)"/>
<path fill-rule="evenodd" clip-rule="evenodd" d="M27.736 24.5511C26.7504 24.9196 26.0893 25.7806 25.9293 26.7994C25.8934 27.029 25.8745 27.2603 25.8561 27.4924C25.8341 27.7662 25.843 28.0401 25.8706 28.3132C26.1233 30.7845 28.6019 32.7655 30.5487 34.1874C32.4276 33.4107 34.4632 32.5472 35.8352 31.0644C36.2851 30.5763 36.5936 30.0101 36.7775 29.3733C36.843 29.1455 36.8936 28.9149 36.9349 28.6818C36.9958 28.341 37.0291 27.9975 36.987 27.6517C36.8941 26.8935 36.5612 26.265 35.973 25.7782C35.645 25.5066 35.271 25.3249 34.8591 25.2199C34.6002 25.1539 34.3368 25.1192 34.0694 25.1241C33.5521 25.1338 33.0711 25.2755 32.6235 25.5354C32.2457 25.753 31.9237 26.037 31.6463 26.3732C31.6382 26.3823 31.6306 26.3915 31.6226 26.4003C31.5921 26.3405 31.568 26.2851 31.5416 26.2305C31.2834 25.6968 30.9264 25.2448 30.4404 24.9008C30.1471 24.6933 29.8255 24.5455 29.4771 24.459C29.378 24.4344 29.2784 24.4155 29.1781 24.4014C29.0455 24.3827 28.912 24.3727 28.7772 24.3716C28.4189 24.368 28.0712 24.4258 27.736 24.5511Z" fill="url(#paint6_radial_5652_33828)"/>
<defs>
<radialGradient id="paint0_radial_5652_33828" cx="0" cy="0" r="1" gradientUnits="userSpaceOnUse" gradientTransform="translate(17.4754 7.00962) rotate(73.7184) scale(27.5504)">
<stop stop-color="#FFF1AA"/>
<stop offset="0.34375" stop-color="#FFE564"/>
<stop offset="0.760417" stop-color="#F4CC00"/>
<stop offset="1" stop-color="#F29E0B"/>
</radialGradient>
<radialGradient id="paint1_radial_5652_33828" cx="0" cy="0" r="1" gradientUnits="userSpaceOnUse" gradientTransform="translate(17.4754 7.00962) rotate(73.7184) scale(27.5504)">
<stop stop-color="#FBEB9D"/>
<stop offset="0.34375" stop-color="#F6E071"/>
<stop offset="0.786458" stop-color="#ECC91A"/>
<stop offset="1" stop-color="#E3BE00"/>
</radialGradient>
<radialGradient id="paint2_radial_5652_33828" cx="0" cy="0" r="1" gradientUnits="userSpaceOnUse" gradientTransform="translate(7.27473 16.7494) rotate(90) scale(9.12425 5.48291)">
<stop stop-color="#FF2727"/>
<stop offset="1" stop-color="#F6E071" stop-opacity="0.07"/>
</radialGradient>
<radialGradient id="paint3_radial_5652_33828" cx="0" cy="0" r="1" gradientUnits="userSpaceOnUse" gradientTransform="translate(5.03498 12.0772) rotate(90) scale(9.07188 5.45144)">
<stop stop-color="#FF2727"/>
<stop offset="1" stop-color="#F6E071" stop-opacity="0.07"/>
</radialGradient>
<radialGradient id="paint4_radial_5652_33828" cx="0" cy="0" r="1" gradientUnits="userSpaceOnUse" gradientTransform="translate(2.83934 21.0715) rotate(59.2929) scale(8.4364 9.91506)">
<stop stop-color="#FF5F5A"/>
<stop offset="0.253494" stop-color="#FF4A45"/>
<stop offset="1" stop-color="#F03D37"/>
</radialGradient>
<radialGradient id="paint5_radial_5652_33828" cx="0" cy="0" r="1" gradientUnits="userSpaceOnUse" gradientTransform="translate(29.5419 3.91339) rotate(76.2929) scale(8.4364 9.91506)">
<stop stop-color="#FF5F5A"/>
<stop offset="0.253494" stop-color="#FF4A45"/>
<stop offset="1" stop-color="#F03D37"/>
</radialGradient>
<radialGradient id="paint6_radial_5652_33828" cx="0" cy="0" r="1" gradientUnits="userSpaceOnUse" gradientTransform="translate(28.6725 25.9547) rotate(77.2929) scale(8.4364 9.91506)">
<stop stop-color="#FF5F5A"/>
<stop offset="0.253494" stop-color="#FF4A45"/>
<stop offset="1" stop-color="#F03D37"/>
</radialGradient>
</defs>
</svg>
