<svg width="34" height="34" viewBox="0 0 34 34" fill="none" xmlns="http://www.w3.org/2000/svg">
<circle cx="17" cy="17" r="17" fill="url(#paint0_radial_5557_34005)"/>
<g opacity="0.5">
<path fill-rule="evenodd" clip-rule="evenodd" d="M17 34C26.3888 34 34 26.3888 34 17C34 7.61116 26.3888 0 17 0C7.61116 0 0 7.61116 0 17C0 26.3888 7.61116 34 17 34ZM17.0001 32.5141C25.5683 32.5141 32.5141 25.5683 32.5141 17.0001C32.5141 8.43195 25.5683 1.48608 17.0001 1.48608C8.43195 1.48608 1.48608 8.43195 1.48608 17.0001C1.48608 25.5683 8.43195 32.5141 17.0001 32.5141Z" fill="url(#paint1_radial_5557_34005)"/>
<path fill-rule="evenodd" clip-rule="evenodd" d="M17 34C26.3888 34 34 26.3888 34 17C34 7.61116 26.3888 0 17 0C7.61116 0 0 7.61116 0 17C0 26.3888 7.61116 34 17 34ZM17.0001 32.5141C25.5683 32.5141 32.5141 25.5683 32.5141 17.0001C32.5141 8.43195 25.5683 1.48608 17.0001 1.48608C8.43195 1.48608 1.48608 8.43195 1.48608 17.0001C1.48608 25.5683 8.43195 32.5141 17.0001 32.5141Z" fill="#C08200" fill-opacity="0.28"/>
</g>
<ellipse cx="11.6106" cy="13.4271" rx="1.65651" ry="2.42712" fill="#783E11"/>
<ellipse cx="21.615" cy="13.4271" rx="1.65651" ry="2.42712" fill="#783E11"/>
<path fill-rule="evenodd" clip-rule="evenodd" d="M24.6247 22.9541C24.6247 22.6551 24.2578 22.49 24.0133 22.6791C22.0116 24.2262 19.5981 25.3779 16.9993 25.3774C14.3999 25.3769 11.9874 24.2237 9.98673 22.6761C9.74227 22.487 9.37531 22.652 9.37531 22.9506L9.37531 23.9162C9.37531 24.0181 9.42073 24.1169 9.50035 24.1847C11.5913 25.9721 14.1856 27.2809 16.9987 27.2814C19.8119 27.2819 22.4072 25.9746 24.4992 24.1882C24.5788 24.1199 24.6242 24.0216 24.6242 23.9197L24.6247 22.9541Z" fill="#783E11"/>
<path fill-rule="evenodd" clip-rule="evenodd" d="M8.89382 9.37299C9.74841 9.35851 11.9008 9.56208 13.6224 9.86282C14.6782 10.0442 15.7431 10.1677 16.8123 10.2328C17.68 10.2242 18.5457 10.1503 19.4022 10.0117C21.1709 9.80869 22.9306 9.48832 24.7038 9.40259C26.1721 9.37644 27.6405 9.45182 29.0985 9.62819C29.8098 9.71619 30.4733 10.0329 30.989 10.5306C31.145 10.6477 31.2631 10.8081 31.3289 10.9917C31.3947 11.1754 31.4051 11.3743 31.359 11.5638C30.9439 13.1701 30.5649 14.7854 30.0776 16.3691C29.7515 17.5188 29.0453 18.5241 28.0742 19.2207C26.7849 20.0804 25.2173 20.4189 23.688 20.1676C22.1588 19.9164 20.7819 19.0942 19.8354 17.8671C19.3433 17.1404 18.8914 16.3873 18.4818 15.6111C18.1208 15.002 17.7869 14.3703 17.3899 13.8063C17.0741 13.3551 16.9161 13.3551 16.5958 13.8063C16.1866 14.4149 15.8173 15.0494 15.4903 15.7058C14.9796 16.8388 14.2689 17.8705 13.3923 18.7514C11.98 20.0599 10.3016 20.4118 8.42911 20.1772C6.11898 19.8929 4.64356 18.5935 3.91713 16.4503C3.52008 15.2952 3.28093 14.086 2.9696 12.8994C2.87034 12.5249 2.77559 12.1549 2.6673 11.7849C2.59152 11.5466 2.59447 11.2903 2.67573 11.0538C2.75699 10.8173 2.91225 10.6133 3.1185 10.4719C3.74836 9.95635 4.51861 9.64195 5.32935 9.56953C6.3265 9.43869 8.03923 9.38748 8.89382 9.37299Z" fill="#222222"/>
<path opacity="0.1" fill-rule="evenodd" clip-rule="evenodd" d="M27.0184 12.0061C27.0184 12.2452 25.5656 12.4573 23.7743 12.4573C21.983 12.4573 20.5347 12.2633 20.5347 12.0061C20.5347 11.7489 20.8686 11.3022 22.6598 11.3022C24.4511 11.3022 27.0184 11.7489 27.0184 12.0061Z" fill="white"/>
<path opacity="0.1" fill-rule="evenodd" clip-rule="evenodd" d="M11.3755 11.6626C11.3755 11.9018 9.95869 12.2131 8.17646 12.362C6.39423 12.5109 4.92785 12.4342 4.91431 12.1951C4.90077 11.9559 5.19857 11.4686 6.9808 11.3197C8.76303 11.1708 11.3574 11.4235 11.3755 11.6626Z" fill="white"/>
<defs>
<radialGradient id="paint0_radial_5557_34005" cx="0" cy="0" r="1" gradientUnits="userSpaceOnUse" gradientTransform="translate(15.4754 7.00962) rotate(73.7184) scale(27.5504)">
<stop stop-color="#FFF1AA"/>
<stop offset="0.34375" stop-color="#FFE564"/>
<stop offset="0.760417" stop-color="#F4CC00"/>
<stop offset="1" stop-color="#F29E0B"/>
</radialGradient>
<radialGradient id="paint1_radial_5557_34005" cx="0" cy="0" r="1" gradientUnits="userSpaceOnUse" gradientTransform="translate(15.4754 7.00962) rotate(73.7184) scale(27.5504)">
<stop stop-color="#FBEB9D"/>
<stop offset="0.34375" stop-color="#F6E071"/>
<stop offset="0.786458" stop-color="#ECC91A"/>
<stop offset="1" stop-color="#E3BE00"/>
</radialGradient>
</defs>
</svg>
