<svg width="36" height="36" viewBox="0 0 36 36" fill="none" xmlns="http://www.w3.org/2000/svg">
<g filter="url(#filter0_d_2418_134724)">
<circle cx="18" cy="17" r="15" fill="#B47153"/>
<circle cx="18" cy="17" r="15.6" stroke="url(#paint0_linear_2418_134724)" stroke-width="1.2"/>
</g>
<g clip-path="url(#clip0_2418_134724)">
<rect x="3" y="2" width="30" height="30" rx="15" fill="#B47153"/>
<rect x="3" y="2" width="30" height="30" rx="15" fill="url(#paint1_linear_2418_134724)"/>
<g opacity="0.06">
<path d="M17.6347 12.6242C17.6347 13.6387 16.8123 14.4611 15.7978 14.4611C14.7833 14.4611 13.9609 13.6387 13.9609 12.6242C13.9609 11.3129 15.5974 9.9248 15.7978 9.9248C15.9982 9.9248 17.6347 11.373 17.6347 12.6242Z" fill="black"/>
<path fill-rule="evenodd" clip-rule="evenodd" d="M22.7741 15.3675C23.4184 15.3675 23.9408 15.8898 23.9408 16.5342V18.1312H28.2432V16.5374C28.2432 15.8931 28.7655 15.3708 29.4098 15.3708C30.0542 15.3708 30.5765 15.8931 30.5765 16.5374V18.1312H31.2536C33.5548 18.1312 35.4202 19.9967 35.4202 22.2979V24.4814C35.4227 24.5121 35.4239 24.5432 35.4239 24.5745C35.4239 24.6273 35.4227 24.6796 35.4202 24.7315V32.5771C35.4202 34.8783 33.5548 36.7438 31.2536 36.7438H14.3337C12.0325 36.7438 10.167 34.8783 10.167 32.5771V22.2979C10.167 19.9967 12.0325 18.1312 14.3337 18.1312H14.5892V16.5374C14.5892 15.8931 15.1115 15.3708 15.7559 15.3708C16.4002 15.3708 16.9225 15.8931 16.9225 16.5374V18.1312H21.6074V16.5342C21.6074 15.8898 22.1298 15.3675 22.7741 15.3675ZM33.0869 22.2979V24.6399C33.0384 25.0838 32.5061 25.7484 31.3973 25.7484C30.2327 25.7484 29.7041 25.0151 29.7041 24.5745C29.7041 23.9302 29.1818 23.4079 28.5374 23.4079C27.8931 23.4079 27.3695 23.9302 27.3695 24.5745C27.3695 25.0151 26.841 25.7484 25.6763 25.7484C24.5289 25.7484 23.9989 25.0367 23.9834 24.5943L23.9835 24.5745C23.9835 23.9302 23.4611 23.4079 22.8168 23.4079C22.1725 23.4079 21.6497 23.9302 21.6497 24.5745L21.6498 24.5943C21.6343 25.0367 21.1043 25.7484 19.9569 25.7484C18.7922 25.7484 18.2637 25.0151 18.2637 24.5745C18.2637 23.9302 17.7413 23.4079 17.097 23.4079L17.085 23.4079L17.073 23.4079C16.4287 23.4079 15.9063 23.9302 15.9063 24.5745C15.9063 25.0151 15.3778 25.7484 14.2131 25.7484C13.0484 25.7484 12.5199 25.0151 12.5199 24.5745C12.5199 24.5015 12.5132 24.4301 12.5003 24.3608V22.2979C12.5003 21.2853 13.3211 20.4645 14.3337 20.4645H31.2536C32.2661 20.4645 33.0869 21.2853 33.0869 22.2979ZM12.5003 32.5771V27.7446C13.0397 27.9644 13.628 28.0817 14.2131 28.0817C15.2597 28.0817 16.3167 27.7065 17.085 27.0399C17.8533 27.7065 18.9103 28.0817 19.9569 28.0817C20.998 28.0817 22.0494 27.7104 22.8166 27.0504C23.5839 27.7104 24.6353 28.0817 25.6763 28.0817C26.7177 28.0817 27.7695 27.7102 28.5368 27.0497C29.3042 27.7102 30.3559 28.0817 31.3973 28.0817C31.974 28.0817 32.5539 27.9678 33.0869 27.7539V32.5771C33.0869 33.5897 32.2661 34.4105 31.2536 34.4105H14.3337C13.3211 34.4105 12.5003 33.5897 12.5003 32.5771Z" fill="black"/>
<path d="M22.7737 14.4611C23.7882 14.4611 24.6106 13.6387 24.6106 12.6242C24.6106 11.373 22.9741 9.9248 22.7737 9.9248C22.5733 9.9248 20.9368 11.3129 20.9368 12.6242C20.9368 13.6387 21.7592 14.4611 22.7737 14.4611Z" fill="black"/>
<path d="M31.2447 12.6242C31.2447 13.6387 30.4223 14.4611 29.4078 14.4611C28.3934 14.4611 27.571 13.6387 27.571 12.6242C27.571 11.3129 29.2074 9.9248 29.4078 9.9248C29.6082 9.9248 31.2447 11.373 31.2447 12.6242Z" fill="black"/>
</g>
</g>
<rect x="2.4" y="1.4" width="31.2" height="31.2" rx="15.6" stroke="url(#paint2_linear_2418_134724)" stroke-width="1.2"/>
<g filter="url(#filter1_d_2418_134724)">
<path d="M14.7808 9.57472C14.7808 10.1834 14.2873 10.6768 13.6787 10.6768C13.07 10.6768 12.5765 10.1834 12.5765 9.57472C12.5765 8.78792 13.5584 7.95508 13.6787 7.95508C13.7989 7.95508 14.7808 8.82402 14.7808 9.57472Z" fill="url(#paint3_linear_2418_134724)"/>
<path fill-rule="evenodd" clip-rule="evenodd" d="M17.8644 11.2207C18.251 11.2207 18.5644 11.5341 18.5644 11.9207V12.8789H21.1459V11.9227C21.1459 11.5361 21.4593 11.2227 21.8459 11.2227C22.2325 11.2227 22.5459 11.5361 22.5459 11.9227V12.8789H22.9521C24.3328 12.8789 25.4521 13.9982 25.4521 15.3789V16.689C25.4536 16.7075 25.4543 16.7261 25.4543 16.7449C25.4543 16.7766 25.4536 16.808 25.4521 16.8391V21.5465C25.4521 22.9272 24.3328 24.0465 22.9521 24.0465H12.8002C11.4195 24.0465 10.3002 22.9272 10.3002 21.5465V15.3789C10.3002 13.9982 11.4195 12.8789 12.8002 12.8789H12.9535V11.9227C12.9535 11.5361 13.2669 11.2227 13.6535 11.2227C14.0401 11.2227 14.3535 11.5361 14.3535 11.9227V12.8789H17.1644V11.9207C17.1644 11.5341 17.4778 11.2207 17.8644 11.2207ZM24.0521 15.3789V16.7841C24.023 17.0505 23.7037 17.4492 23.0384 17.4492C22.3396 17.4492 22.0224 17.0092 22.0224 16.7449C22.0224 16.3583 21.709 16.0449 21.3224 16.0449C20.9358 16.0449 20.6217 16.3583 20.6217 16.7449C20.6217 17.0092 20.3046 17.4492 19.6058 17.4492C18.9173 17.4492 18.5993 17.0222 18.59 16.7568L18.5901 16.7449C18.5901 16.3583 18.2767 16.0449 17.8901 16.0449C17.5035 16.0449 17.1898 16.3583 17.1898 16.7449L17.1899 16.7568C17.1806 17.0222 16.8626 17.4492 16.1741 17.4492C15.4753 17.4492 15.1582 17.0092 15.1582 16.7449C15.1582 16.3583 14.8448 16.0449 14.4582 16.0449L14.451 16.045L14.4438 16.0449C14.0572 16.0449 13.7438 16.3583 13.7438 16.7449C13.7438 17.0092 13.4266 17.4492 12.7278 17.4492C12.029 17.4492 11.7119 17.0092 11.7119 16.7449C11.7119 16.7011 11.7079 16.6583 11.7002 16.6167V15.3789C11.7002 14.7714 12.1927 14.2789 12.8002 14.2789H22.9521C23.5596 14.2789 24.0521 14.7714 24.0521 15.3789ZM11.7002 21.5465V18.6469C12.0238 18.7789 12.3768 18.8492 12.7278 18.8492C13.3558 18.8492 13.99 18.6241 14.451 18.2241C14.912 18.6241 15.5462 18.8492 16.1741 18.8492C16.7987 18.8492 17.4296 18.6265 17.8899 18.2305C18.3503 18.6265 18.9811 18.8492 19.6058 18.8492C20.2306 18.8492 20.8617 18.6263 21.3221 18.23C21.7825 18.6263 22.4135 18.8492 23.0384 18.8492C23.3844 18.8492 23.7323 18.7809 24.0521 18.6526V21.5465C24.0521 22.154 23.5596 22.6465 22.9521 22.6465H12.8002C12.1927 22.6465 11.7002 22.154 11.7002 21.5465Z" fill="url(#paint4_linear_2418_134724)"/>
<path d="M17.8642 10.6768C18.4729 10.6768 18.9663 10.1834 18.9663 9.57472C18.9663 8.82402 17.9844 7.95508 17.8642 7.95508C17.744 7.95508 16.7621 8.78792 16.7621 9.57472C16.7621 10.1834 17.2555 10.6768 17.8642 10.6768Z" fill="url(#paint5_linear_2418_134724)"/>
<path d="M22.9468 9.57472C22.9468 10.1834 22.4534 10.6768 21.8447 10.6768C21.236 10.6768 20.7426 10.1834 20.7426 9.57472C20.7426 8.78792 21.7244 7.95508 21.8447 7.95508C21.9649 7.95508 22.9468 8.82402 22.9468 9.57472Z" fill="url(#paint6_linear_2418_134724)"/>
</g>
<defs>
<filter id="filter0_d_2418_134724" x="0.799988" y="0.799805" width="34.4" height="34.4004" filterUnits="userSpaceOnUse" color-interpolation-filters="sRGB">
<feFlood flood-opacity="0" result="BackgroundImageFix"/>
<feColorMatrix in="SourceAlpha" type="matrix" values="0 0 0 0 0 0 0 0 0 0 0 0 0 0 0 0 0 0 127 0" result="hardAlpha"/>
<feOffset dy="1"/>
<feGaussianBlur stdDeviation="0.5"/>
<feComposite in2="hardAlpha" operator="out"/>
<feColorMatrix type="matrix" values="0 0 0 0 0 0 0 0 0 0 0 0 0 0 0 0 0 0 0.11 0"/>
<feBlend mode="normal" in2="BackgroundImageFix" result="effect1_dropShadow_2418_134724"/>
<feBlend mode="normal" in="SourceGraphic" in2="effect1_dropShadow_2418_134724" result="shape"/>
</filter>
<filter id="filter1_d_2418_134724" x="9.30017" y="7.95508" width="17.1542" height="18.0918" filterUnits="userSpaceOnUse" color-interpolation-filters="sRGB">
<feFlood flood-opacity="0" result="BackgroundImageFix"/>
<feColorMatrix in="SourceAlpha" type="matrix" values="0 0 0 0 0 0 0 0 0 0 0 0 0 0 0 0 0 0 127 0" result="hardAlpha"/>
<feOffset dy="1"/>
<feGaussianBlur stdDeviation="0.5"/>
<feComposite in2="hardAlpha" operator="out"/>
<feColorMatrix type="matrix" values="0 0 0 0 0 0 0 0 0 0 0 0 0 0 0 0 0 0 0.09 0"/>
<feBlend mode="normal" in2="BackgroundImageFix" result="effect1_dropShadow_2418_134724"/>
<feBlend mode="normal" in="SourceGraphic" in2="effect1_dropShadow_2418_134724" result="shape"/>
</filter>
<linearGradient id="paint0_linear_2418_134724" x1="9.81818" y1="6.43182" x2="25.1591" y2="32.6818" gradientUnits="userSpaceOnUse">
<stop stop-color="#F0F0F0"/>
<stop offset="0.101105" stop-color="white"/>
<stop offset="0.445" stop-color="#D4D4D4"/>
<stop offset="0.695" stop-color="white"/>
<stop offset="1" stop-color="#E3E3E3"/>
</linearGradient>
<linearGradient id="paint1_linear_2418_134724" x1="7" y1="6" x2="22.0622" y2="32.0166" gradientUnits="userSpaceOnUse">
<stop offset="0.431499" stop-color="#CB813D"/>
<stop offset="0.585212" stop-color="#B4562C"/>
</linearGradient>
<linearGradient id="paint2_linear_2418_134724" x1="9.81818" y1="6.43182" x2="25.1591" y2="32.6818" gradientUnits="userSpaceOnUse">
<stop stop-color="#F0F0F0"/>
<stop offset="0.101105" stop-color="white"/>
<stop offset="0.445" stop-color="#D4D4D4"/>
<stop offset="0.695" stop-color="white"/>
<stop offset="1" stop-color="#E3E3E3"/>
</linearGradient>
<linearGradient id="paint3_linear_2418_134724" x1="11.8946" y1="14.1069" x2="24.9352" y2="30.5776" gradientUnits="userSpaceOnUse">
<stop stop-color="white"/>
<stop offset="0.25" stop-color="#F3F3F3"/>
<stop offset="0.335" stop-color="white"/>
<stop offset="0.465" stop-color="#E4E4E4"/>
<stop offset="0.515" stop-color="white"/>
<stop offset="0.855" stop-color="white"/>
</linearGradient>
<linearGradient id="paint4_linear_2418_134724" x1="11.8946" y1="14.1069" x2="24.9352" y2="30.5776" gradientUnits="userSpaceOnUse">
<stop stop-color="white"/>
<stop offset="0.25" stop-color="#F3F3F3"/>
<stop offset="0.335" stop-color="white"/>
<stop offset="0.465" stop-color="#E4E4E4"/>
<stop offset="0.515" stop-color="white"/>
<stop offset="0.855" stop-color="white"/>
</linearGradient>
<linearGradient id="paint5_linear_2418_134724" x1="11.8946" y1="14.1069" x2="24.9352" y2="30.5776" gradientUnits="userSpaceOnUse">
<stop stop-color="white"/>
<stop offset="0.25" stop-color="#F3F3F3"/>
<stop offset="0.335" stop-color="white"/>
<stop offset="0.465" stop-color="#E4E4E4"/>
<stop offset="0.515" stop-color="white"/>
<stop offset="0.855" stop-color="white"/>
</linearGradient>
<linearGradient id="paint6_linear_2418_134724" x1="11.8946" y1="14.1069" x2="24.9352" y2="30.5776" gradientUnits="userSpaceOnUse">
<stop stop-color="white"/>
<stop offset="0.25" stop-color="#F3F3F3"/>
<stop offset="0.335" stop-color="white"/>
<stop offset="0.465" stop-color="#E4E4E4"/>
<stop offset="0.515" stop-color="white"/>
<stop offset="0.855" stop-color="white"/>
</linearGradient>
<clipPath id="clip0_2418_134724">
<rect x="3" y="2" width="30" height="30" rx="15" fill="white"/>
</clipPath>
</defs>
</svg>
