<svg width="36" height="36" viewBox="0 0 36 36" fill="none" xmlns="http://www.w3.org/2000/svg">
<g filter="url(#filter0_d_2418_134749)">
<circle cx="18" cy="17" r="15" fill="#FFA800"/>
<circle cx="18" cy="17" r="15.6" stroke="url(#paint0_linear_2418_134749)" stroke-width="1.2"/>
</g>
<g clip-path="url(#clip0_2418_134749)">
<rect x="3" y="2" width="30" height="30" rx="15" fill="#FFA800"/>
<rect x="3" y="2" width="30" height="30" rx="15" fill="url(#paint1_linear_2418_134749)"/>
<g opacity="0.04">
<path fill-rule="evenodd" clip-rule="evenodd" d="M18.3028 13.4459C20.2571 12.9651 22.7862 12.7816 25.2322 12.8058C27.5855 12.8291 29.9887 13.0293 31.8383 13.5079C32.7554 13.7452 33.6252 14.0728 34.2912 14.5453C34.9717 15.0281 35.5659 15.7645 35.5659 16.7785C35.5659 16.9233 35.5651 17.0673 35.5636 17.2104C36.9808 17.0066 38.3389 17.4646 39.2905 18.3507C40.4471 19.4276 40.9797 21.1248 40.3109 22.8759C39.6209 24.6828 38.6458 26.671 37.3147 27.8133C36.4946 28.5171 35.3539 29.1727 34.4771 29.6321C34.0274 29.8677 33.625 30.063 33.3346 30.1997C33.1892 30.2681 33.0712 30.3221 32.9886 30.3594L32.8922 30.4027L32.8657 30.4144L32.8559 30.4187L32.7023 30.068C32.8557 30.4182 32.8559 30.4187 32.8559 30.4187C32.7304 30.4735 32.6003 30.5045 32.4709 30.5137C31.4272 32.4734 30.1834 34.1529 28.8419 35.6433C28.9426 35.7398 29.0499 35.8445 29.1617 35.9563C29.9537 36.7483 31.0246 37.9495 31.9412 39.5553C32.1474 39.9164 32.1458 40.3599 31.937 40.7195C31.7282 41.0791 31.3438 41.3003 30.928 41.3003L19.7171 41.3004C19.3121 41.3004 18.9361 41.0904 18.7238 40.7456C18.5114 40.4008 18.4929 39.9706 18.6751 39.6089C19.396 38.1774 20.4238 36.9637 21.1593 36.1489C21.2864 36.0081 21.3986 35.8857 21.4982 35.7776C20.0555 34.2428 18.7416 32.5058 17.6461 30.5161C17.4787 30.5211 17.3076 30.4901 17.1441 30.4187C17.1441 30.4187 17.1449 30.419 17.3473 29.9565L17.1441 30.4187L17.1343 30.4144L17.1078 30.4027L17.0114 30.3594C16.9289 30.3221 16.8109 30.2681 16.6654 30.1997C16.375 30.063 15.9726 29.8677 15.523 29.6321C14.6461 29.1727 13.5054 28.5171 12.6853 27.8133C11.3543 26.671 10.3792 24.6828 9.68911 22.8759C9.02033 21.1248 9.55296 19.4276 10.7095 18.3507C11.6475 17.4772 12.9806 17.0198 14.3758 17.2021C14.3742 17.0616 14.3734 16.9204 14.3734 16.7785C14.3734 15.7285 15.0116 14.978 15.7198 14.494C16.4191 14.016 17.334 13.6842 18.3028 13.4459ZM16.7375 16.6954C16.7076 16.7414 16.7067 16.7622 16.7067 16.7785C16.7067 25.198 19.7426 30.7042 23.6861 34.6849C23.839 34.782 23.9885 34.9275 24.1007 35.1456C24.3662 35.6615 24.1601 36.1303 24.1266 36.2066L24.1248 36.2107C23.8728 36.7883 23.3023 37.2571 22.8914 37.7123C22.5591 38.0805 22.1934 38.5032 21.8395 38.967L28.7296 38.967C28.2985 38.4243 27.876 37.9705 27.5117 37.6062C27.1338 37.2282 26.6769 36.8833 26.336 36.4656C26.3072 36.4303 26.2605 36.3704 26.2144 36.2927C26.1809 36.2363 26.079 36.0601 26.0498 35.8104C26.013 35.4953 26.1029 35.0496 26.492 34.745C30.1708 30.9044 33.2325 25.7217 33.2325 16.7785C33.2325 16.7597 33.2307 16.7404 33.2057 16.7004C33.1743 16.6502 33.1004 16.5614 32.941 16.4483C32.6093 16.213 32.0526 15.9736 31.2538 15.7669C29.6715 15.3574 27.4854 15.1616 25.209 15.139C22.858 15.1157 20.5469 15.2968 18.8602 15.7117C18.0084 15.9212 17.4026 16.1701 17.0364 16.4204C16.8593 16.5414 16.7746 16.6384 16.7375 16.6954ZM33.8941 27.2959C34.5958 26.9067 35.3043 26.4638 35.7951 26.0426C36.6468 25.3118 37.4538 23.817 38.1312 22.0434C38.44 21.2348 38.2054 20.5285 37.7004 20.0583C37.1801 19.5738 36.3507 19.3299 35.4628 19.6222C35.2446 22.5491 34.6898 25.0786 33.8941 27.2959ZM14.4855 19.6058C14.7204 22.5006 15.3152 25.0598 16.1778 27.3356C15.4529 26.937 14.7125 26.4782 14.2049 26.0426C13.3532 25.3118 12.5462 23.817 11.8689 22.0434C11.5601 21.2348 11.7946 20.5285 12.2996 20.0583C12.8098 19.5833 13.6172 19.3395 14.4855 19.6058Z" fill="black"/>
</g>
</g>
<rect x="2.4" y="1.4" width="31.2" height="31.2" rx="15.6" stroke="url(#paint2_linear_2418_134749)" stroke-width="1.2"/>
<g filter="url(#filter1_d_2418_134749)">
<path fill-rule="evenodd" clip-rule="evenodd" d="M13.9816 9.46736C15.1542 9.17889 16.6717 9.06875 18.1393 9.08329C19.5513 9.09729 20.9932 9.2174 22.103 9.50457C22.6532 9.64695 23.1751 9.84351 23.5747 10.127C23.983 10.4167 24.3395 10.8585 24.3395 11.4669C24.3395 11.5538 24.339 11.6402 24.3381 11.726C25.1884 11.6038 26.0033 11.8785 26.5743 12.4102C27.2682 13.0564 27.5878 14.0747 27.1865 15.1253C26.7725 16.2095 26.1874 17.4024 25.3888 18.0878C24.8968 18.5101 24.2123 18.9034 23.6862 19.1791C23.4164 19.3204 23.175 19.4376 23.0007 19.5196C22.9135 19.5607 22.8427 19.5931 22.7931 19.6155L22.7353 19.6414L22.7194 19.6484L22.7135 19.651L22.6214 19.4406C22.7134 19.6507 22.7135 19.651 22.7135 19.651C22.6382 19.6839 22.5602 19.7025 22.4825 19.708C21.8563 20.8838 21.11 21.8915 20.3051 22.7858C20.3655 22.8437 20.4299 22.9065 20.497 22.9736C20.9722 23.4488 21.6147 24.1695 22.1647 25.133C22.2884 25.3496 22.2874 25.6157 22.1622 25.8315C22.0369 26.0472 21.8063 26.18 21.5568 26.18L14.8302 26.18C14.5872 26.18 14.3617 26.054 14.2342 25.8472C14.1068 25.6403 14.0957 25.3822 14.205 25.1652C14.6376 24.3062 15.2543 23.5781 15.6956 23.0891C15.7718 23.0047 15.8392 22.9312 15.8989 22.8664C15.0333 21.9455 14.245 20.9033 13.5876 19.7094C13.4872 19.7125 13.3846 19.6939 13.2864 19.651C13.2864 19.651 13.2869 19.6512 13.4084 19.3737L13.2864 19.651L13.2806 19.6484L13.2647 19.6414L13.2068 19.6155C13.1573 19.5931 13.0865 19.5607 12.9992 19.5196C12.825 19.4376 12.5835 19.3204 12.3137 19.1791C11.7877 18.9034 11.1032 18.5101 10.6112 18.0878C9.81255 17.4024 9.22748 16.2095 8.81344 15.1253C8.41217 14.0747 8.73175 13.0564 9.42569 12.4102C9.98849 11.8861 10.7883 11.6117 11.6255 11.721C11.6245 11.6368 11.624 11.5521 11.624 11.4669C11.624 10.8369 12.0069 10.3866 12.4318 10.0962C12.8514 9.80943 13.4004 9.61035 13.9816 9.46736ZM13.0425 11.417C13.0246 11.4447 13.024 11.4571 13.024 11.4669C13.024 16.5186 14.8455 19.8223 17.2116 22.2107C17.3034 22.269 17.3931 22.3563 17.4604 22.4872C17.6197 22.7967 17.496 23.078 17.4759 23.1237L17.4748 23.1262C17.3237 23.4728 16.9814 23.754 16.7348 24.0272C16.5354 24.2481 16.316 24.5017 16.1037 24.78L20.2377 24.78C19.9791 24.4544 19.7256 24.1821 19.507 23.9635C19.2803 23.7368 19.0061 23.5298 18.8016 23.2792C18.7843 23.258 18.7563 23.222 18.7286 23.1755C18.7085 23.1416 18.6474 23.0359 18.6299 22.886C18.6078 22.697 18.6617 22.4296 18.8952 22.2468C21.1024 19.9424 22.9395 16.8328 22.9395 11.4669C22.9395 11.4556 22.9384 11.4441 22.9234 11.42C22.9045 11.3899 22.8602 11.3367 22.7646 11.2688C22.5656 11.1276 22.2315 10.984 21.7522 10.8599C20.8029 10.6143 19.4912 10.4968 18.1254 10.4832C16.7148 10.4692 15.3281 10.5779 14.3161 10.8268C13.805 10.9526 13.4416 11.1019 13.2218 11.252C13.1155 11.3247 13.0647 11.3828 13.0425 11.417ZM23.3364 17.7774C23.7574 17.5438 24.1826 17.2781 24.4771 17.0254C24.9881 16.5869 25.4723 15.69 25.8787 14.6259C26.064 14.1407 25.9232 13.7169 25.6202 13.4348C25.3081 13.1441 24.8104 12.9977 24.2777 13.1732C24.1467 14.9292 23.8139 16.4469 23.3364 17.7774ZM11.6913 13.1633C11.8322 14.9002 12.1891 16.4357 12.7067 17.8012C12.2717 17.562 11.8275 17.2867 11.5229 17.0254C11.0119 16.5869 10.5277 15.69 10.1213 14.6259C9.93602 14.1407 10.0768 13.7169 10.3798 13.4348C10.6858 13.1498 11.1703 13.0035 11.6913 13.1633Z" fill="url(#paint3_linear_2418_134749)"/>
</g>
<defs>
<filter id="filter0_d_2418_134749" x="0.799988" y="0.799805" width="34.4" height="34.4004" filterUnits="userSpaceOnUse" color-interpolation-filters="sRGB">
<feFlood flood-opacity="0" result="BackgroundImageFix"/>
<feColorMatrix in="SourceAlpha" type="matrix" values="0 0 0 0 0 0 0 0 0 0 0 0 0 0 0 0 0 0 127 0" result="hardAlpha"/>
<feOffset dy="1"/>
<feGaussianBlur stdDeviation="0.5"/>
<feComposite in2="hardAlpha" operator="out"/>
<feColorMatrix type="matrix" values="0 0 0 0 0 0 0 0 0 0 0 0 0 0 0 0 0 0 0.11 0"/>
<feBlend mode="normal" in2="BackgroundImageFix" result="effect1_dropShadow_2418_134749"/>
<feBlend mode="normal" in="SourceGraphic" in2="effect1_dropShadow_2418_134749" result="shape"/>
</filter>
<filter id="filter1_d_2418_134749" x="7.63757" y="9.08203" width="20.7249" height="19.0977" filterUnits="userSpaceOnUse" color-interpolation-filters="sRGB">
<feFlood flood-opacity="0" result="BackgroundImageFix"/>
<feColorMatrix in="SourceAlpha" type="matrix" values="0 0 0 0 0 0 0 0 0 0 0 0 0 0 0 0 0 0 127 0" result="hardAlpha"/>
<feOffset dy="1"/>
<feGaussianBlur stdDeviation="0.5"/>
<feComposite in2="hardAlpha" operator="out"/>
<feColorMatrix type="matrix" values="0 0 0 0 0 0 0 0 0 0 0 0 0 0 0 0 0 0 0.09 0"/>
<feBlend mode="normal" in2="BackgroundImageFix" result="effect1_dropShadow_2418_134749"/>
<feBlend mode="normal" in="SourceGraphic" in2="effect1_dropShadow_2418_134749" result="shape"/>
</filter>
<linearGradient id="paint0_linear_2418_134749" x1="9.81818" y1="6.43182" x2="25.1591" y2="32.6818" gradientUnits="userSpaceOnUse">
<stop stop-color="#F0F0F0"/>
<stop offset="0.101105" stop-color="white"/>
<stop offset="0.445" stop-color="#D4D4D4"/>
<stop offset="0.695" stop-color="white"/>
<stop offset="1" stop-color="#E3E3E3"/>
</linearGradient>
<linearGradient id="paint1_linear_2418_134749" x1="9.5" y1="6" x2="30" y2="26.5" gradientUnits="userSpaceOnUse">
<stop offset="0.435" stop-color="#FFA800"/>
<stop offset="0.54" stop-color="#EF9000"/>
</linearGradient>
<linearGradient id="paint2_linear_2418_134749" x1="9.81818" y1="6.43182" x2="25.1591" y2="32.6818" gradientUnits="userSpaceOnUse">
<stop stop-color="#F0F0F0"/>
<stop offset="0.101105" stop-color="white"/>
<stop offset="0.445" stop-color="#D4D4D4"/>
<stop offset="0.695" stop-color="white"/>
<stop offset="1" stop-color="#E3E3E3"/>
</linearGradient>
<linearGradient id="paint3_linear_2418_134749" x1="10.6077" y1="15.6187" x2="23.8528" y2="35.0725" gradientUnits="userSpaceOnUse">
<stop stop-color="white"/>
<stop offset="0.25" stop-color="#F3F3F3"/>
<stop offset="0.335" stop-color="white"/>
<stop offset="0.465" stop-color="#E4E4E4"/>
<stop offset="0.515" stop-color="white"/>
<stop offset="0.855" stop-color="white"/>
</linearGradient>
<clipPath id="clip0_2418_134749">
<rect x="3" y="2" width="30" height="30" rx="15" fill="white"/>
</clipPath>
</defs>
</svg>
