<svg width="36" height="36" viewBox="0 0 36 36" fill="none" xmlns="http://www.w3.org/2000/svg">
<g filter="url(#filter0_d_2418_134799)">
<circle cx="18" cy="17" r="15" fill="#20BFF2"/>
<circle cx="18" cy="17" r="15.6" stroke="url(#paint0_linear_2418_134799)" stroke-width="1.2"/>
</g>
<g filter="url(#filter1_d_2418_134799)">
<g clip-path="url(#clip0_2418_134799)">
<rect x="3" y="2" width="30" height="30" rx="15" fill="url(#paint1_linear_2418_134799)"/>
<g opacity="0.06">
<path fill-rule="evenodd" clip-rule="evenodd" d="M24.0002 16.2501C24.7518 14.9573 26.1041 13.4346 28.3046 13.4346C29.2551 13.4346 30.1623 13.8192 30.8279 14.4969C31.4927 15.1738 31.8626 16.0876 31.8626 17.036C31.8626 17.4739 31.7838 17.9044 31.6335 18.3076H33.832C35.3968 18.3076 36.6654 19.5761 36.6654 21.141V24.3785C36.6654 25.5176 35.9932 26.4997 35.0238 26.9497V36.7005C35.0238 38.6335 33.4568 40.2005 31.5238 40.2005H16.4779C14.5449 40.2005 12.9779 38.6335 12.9779 36.7005V26.9504C12.0077 26.5007 11.3348 25.5182 11.3348 24.3785V21.141C11.3348 19.5761 12.6033 18.3076 14.1681 18.3076H16.367C16.2167 17.9044 16.1379 17.4739 16.1379 17.036C16.1379 16.0876 16.5077 15.1738 17.1726 14.4969C17.8381 13.8192 18.7454 13.4346 19.6959 13.4346C21.8963 13.4346 23.2486 14.9573 24.0002 16.2501ZM19.6959 15.7679C19.3779 15.7679 19.0686 15.8963 18.8373 16.1319C18.6052 16.3681 18.4712 16.693 18.4712 17.036C18.4712 17.3791 18.6052 17.7039 18.8373 17.9402C19.0686 18.1758 19.3779 18.3042 19.6959 18.3042H22.4137C22.3184 18.0727 22.2066 17.8304 22.077 17.5905C21.4828 16.4904 20.7102 15.7679 19.6959 15.7679ZM25.5868 18.3042H28.3046C28.6226 18.3042 28.9318 18.1758 29.1632 17.9402C29.3952 17.7039 29.5293 17.3791 29.5293 17.036C29.5293 16.693 29.3952 16.3681 29.1632 16.1319C28.9318 15.8963 28.6226 15.7679 28.3046 15.7679C27.2902 15.7679 26.5177 16.4904 25.9235 17.5905C25.7939 17.8304 25.6821 18.0727 25.5868 18.3042ZM15.3112 27.2118V36.7005C15.3112 37.3448 15.8335 37.8672 16.4779 37.8672H22.833L22.833 27.2118H15.3112ZM25.1664 37.8672H31.5238C32.1681 37.8672 32.6905 37.3448 32.6905 36.7005V27.2118H25.1664L25.1664 37.8672ZM25.1664 24.8785H33.832C34.1082 24.8785 34.332 24.6546 34.332 24.3785V21.141C34.332 20.8648 34.1082 20.641 33.832 20.641H25.1664V24.8785ZM22.833 20.641H14.1681C13.892 20.641 13.6681 20.8648 13.6681 21.141V24.3785C13.6681 24.6546 13.892 24.8785 14.1681 24.8785H22.833V20.641Z" fill="black"/>
</g>
</g>
<rect x="2.4" y="1.4" width="31.2" height="31.2" rx="15.6" stroke="url(#paint2_linear_2418_134799)" stroke-width="1.2"/>
</g>
<g filter="url(#filter2_d_2418_134799)">
<path fill-rule="evenodd" clip-rule="evenodd" d="M18.0001 10.5497C18.4511 9.77397 19.2625 8.86035 20.5828 8.86035C21.1531 8.86035 21.6974 9.09114 22.0967 9.49774C22.4956 9.90391 22.7175 10.4522 22.7175 11.0212C22.7175 11.284 22.6702 11.5423 22.5801 11.7842H23.8992C24.8381 11.7842 25.5992 12.5453 25.5992 13.4842V15.4267C25.5992 16.1102 25.1959 16.6994 24.6143 16.9694V22.8199C24.6143 23.9797 23.6741 24.9199 22.5143 24.9199H13.4867C12.3269 24.9199 11.3867 23.9797 11.3867 22.8199V16.9699C10.8046 16.7 10.4009 16.1105 10.4009 15.4267V13.4842C10.4009 12.5453 11.162 11.7842 12.1009 11.7842H13.4202C13.33 11.5423 13.2827 11.284 13.2827 11.0212C13.2827 10.4522 13.5046 9.90391 13.9035 9.49774C14.3029 9.09114 14.8472 8.86035 15.4175 8.86035C16.7378 8.86035 17.5492 9.77397 18.0001 10.5497ZM15.4175 10.2604C15.2267 10.2604 15.0412 10.3374 14.9024 10.4787C14.7631 10.6205 14.6827 10.8154 14.6827 11.0212C14.6827 11.2271 14.7631 11.422 14.9024 11.5637C15.0412 11.7051 15.2267 11.7821 15.4175 11.7821H17.0482C16.991 11.6432 16.924 11.4979 16.8462 11.3539C16.4896 10.6939 16.0261 10.2604 15.4175 10.2604ZM18.9521 11.7821H20.5828C20.7735 11.7821 20.9591 11.7051 21.0979 11.5637C21.2371 11.422 21.3175 11.2271 21.3175 11.0212C21.3175 10.8154 21.2371 10.6205 21.0979 10.4787C20.9591 10.3374 20.7735 10.2604 20.5828 10.2604C19.9741 10.2604 19.5106 10.6939 19.1541 11.3539C19.0763 11.4979 19.0092 11.6432 18.9521 11.7821ZM12.7867 17.1267V22.8199C12.7867 23.2065 13.1001 23.5199 13.4867 23.5199H17.2998L17.2998 17.1267H12.7867ZM18.6998 23.5199H22.5143C22.9009 23.5199 23.2143 23.2065 23.2143 22.8199V17.1267H18.6998L18.6998 23.5199ZM18.6998 15.7267H23.8992C24.0649 15.7267 24.1992 15.5924 24.1992 15.4267V13.4842C24.1992 13.3185 24.0649 13.1842 23.8992 13.1842H18.6998V15.7267ZM17.2998 13.1842H12.1009C11.9352 13.1842 11.8009 13.3185 11.8009 13.4842V15.4267C11.8009 15.5924 11.9352 15.7267 12.1009 15.7267H17.2998V13.1842Z" fill="url(#paint3_linear_2418_134799)"/>
</g>
<defs>
<filter id="filter0_d_2418_134799" x="0.799988" y="0.799805" width="34.4" height="34.4004" filterUnits="userSpaceOnUse" color-interpolation-filters="sRGB">
<feFlood flood-opacity="0" result="BackgroundImageFix"/>
<feColorMatrix in="SourceAlpha" type="matrix" values="0 0 0 0 0 0 0 0 0 0 0 0 0 0 0 0 0 0 127 0" result="hardAlpha"/>
<feOffset dy="1"/>
<feGaussianBlur stdDeviation="0.5"/>
<feComposite in2="hardAlpha" operator="out"/>
<feColorMatrix type="matrix" values="0 0 0 0 0 0 0 0 0 0 0 0 0 0 0 0 0 0 0.11 0"/>
<feBlend mode="normal" in2="BackgroundImageFix" result="effect1_dropShadow_2418_134799"/>
<feBlend mode="normal" in="SourceGraphic" in2="effect1_dropShadow_2418_134799" result="shape"/>
</filter>
<filter id="filter1_d_2418_134799" x="0.799988" y="0.799805" width="34.4" height="34.4004" filterUnits="userSpaceOnUse" color-interpolation-filters="sRGB">
<feFlood flood-opacity="0" result="BackgroundImageFix"/>
<feColorMatrix in="SourceAlpha" type="matrix" values="0 0 0 0 0 0 0 0 0 0 0 0 0 0 0 0 0 0 127 0" result="hardAlpha"/>
<feOffset dy="1"/>
<feGaussianBlur stdDeviation="0.5"/>
<feComposite in2="hardAlpha" operator="out"/>
<feColorMatrix type="matrix" values="0 0 0 0 0 0 0 0 0 0 0 0 0 0 0 0 0 0 0.11 0"/>
<feBlend mode="normal" in2="BackgroundImageFix" result="effect1_dropShadow_2418_134799"/>
<feBlend mode="normal" in="SourceGraphic" in2="effect1_dropShadow_2418_134799" result="shape"/>
</filter>
<filter id="filter2_d_2418_134799" x="9.40088" y="8.86035" width="17.1983" height="18.0596" filterUnits="userSpaceOnUse" color-interpolation-filters="sRGB">
<feFlood flood-opacity="0" result="BackgroundImageFix"/>
<feColorMatrix in="SourceAlpha" type="matrix" values="0 0 0 0 0 0 0 0 0 0 0 0 0 0 0 0 0 0 127 0" result="hardAlpha"/>
<feOffset dy="1"/>
<feGaussianBlur stdDeviation="0.5"/>
<feComposite in2="hardAlpha" operator="out"/>
<feColorMatrix type="matrix" values="0 0 0 0 0 0 0 0 0 0 0 0 0 0 0 0 0 0 0.09 0"/>
<feBlend mode="normal" in2="BackgroundImageFix" result="effect1_dropShadow_2418_134799"/>
<feBlend mode="normal" in="SourceGraphic" in2="effect1_dropShadow_2418_134799" result="shape"/>
</filter>
<linearGradient id="paint0_linear_2418_134799" x1="9.81818" y1="6.43182" x2="25.1591" y2="32.6818" gradientUnits="userSpaceOnUse">
<stop stop-color="#F0F0F0"/>
<stop offset="0.101105" stop-color="white"/>
<stop offset="0.445" stop-color="#D4D4D4"/>
<stop offset="0.695" stop-color="white"/>
<stop offset="1" stop-color="#E3E3E3"/>
</linearGradient>
<linearGradient id="paint1_linear_2418_134799" x1="6" y1="7.5" x2="27.5" y2="29" gradientUnits="userSpaceOnUse">
<stop offset="0.41" stop-color="#20BFF2"/>
<stop offset="0.545" stop-color="#00A5D9"/>
</linearGradient>
<linearGradient id="paint2_linear_2418_134799" x1="9.81818" y1="6.43182" x2="25.1591" y2="32.6818" gradientUnits="userSpaceOnUse">
<stop stop-color="#F0F0F0"/>
<stop offset="0.101105" stop-color="white"/>
<stop offset="0.445" stop-color="#D4D4D4"/>
<stop offset="0.695" stop-color="white"/>
<stop offset="1" stop-color="#E3E3E3"/>
</linearGradient>
<linearGradient id="paint3_linear_2418_134799" x1="12" y1="15" x2="25" y2="31.5" gradientUnits="userSpaceOnUse">
<stop stop-color="white"/>
<stop offset="0.25" stop-color="#F3F3F3"/>
<stop offset="0.335" stop-color="white"/>
<stop offset="0.465" stop-color="#E4E4E4"/>
<stop offset="0.515" stop-color="white"/>
<stop offset="0.855" stop-color="white"/>
</linearGradient>
<clipPath id="clip0_2418_134799">
<rect x="3" y="2" width="30" height="30" rx="15" fill="white"/>
</clipPath>
</defs>
</svg>
