<svg width="34" height="34" viewBox="0 0 34 34" fill="none" xmlns="http://www.w3.org/2000/svg">
<g clip-path="url(#clip0_2418_135119)">
<rect x="2" y="2" width="30" height="30" rx="15" fill="#F5D04B"/>
<rect x="2" y="2" width="30" height="30" rx="15" fill="url(#paint0_linear_2418_135119)"/>
<g opacity="0.03">
<path d="M23.7703 22.4899C23.7703 22.0658 23.5402 21.6751 23.1692 21.4695C22.7983 21.2639 22.345 21.2758 21.9853 21.5006L18.652 23.5839C18.1056 23.9254 17.9395 24.6452 18.281 25.1916C18.6225 25.738 19.3423 25.9041 19.8887 25.5626L21.437 24.5949V30.8232C21.437 31.4676 21.9593 31.9899 22.6037 31.9899C23.248 31.9899 23.7703 31.4676 23.7703 30.8232V22.4899Z" fill="black"/>
<path fill-rule="evenodd" clip-rule="evenodd" d="M22 40.3337C29.3638 40.3337 35.3333 34.3641 35.3333 27.0003C35.3333 19.6365 29.3638 13.667 22 13.667C14.6362 13.667 8.66666 19.6365 8.66666 27.0003C8.66666 34.3641 14.6362 40.3337 22 40.3337ZM33 27.0003C33 33.0754 28.0751 38.0003 22 38.0003C15.9249 38.0003 11 33.0754 11 27.0003C11 20.9252 15.9249 16.0003 22 16.0003C28.0751 16.0003 33 20.9252 33 27.0003Z" fill="black"/>
</g>
</g>
<rect x="1.4" y="1.4" width="31.2" height="31.2" rx="15.6" stroke="url(#paint1_linear_2418_135119)" stroke-width="1.2"/>
<g filter="url(#filter0_d_2418_135119)">
<path d="M18.0622 14.2938C18.0622 14.0393 17.9241 13.8049 17.7015 13.6815C17.479 13.5581 17.207 13.5653 16.9912 13.7002L14.9912 14.9502C14.6634 15.155 14.5637 15.5869 14.7686 15.9147C14.9735 16.2426 15.4054 16.3422 15.7332 16.1373L16.6622 15.5567V19.2938C16.6622 19.6803 16.9756 19.9937 17.3622 19.9937C17.7488 19.9937 18.0622 19.6803 18.0622 19.2938V14.2938Z" fill="url(#paint2_linear_2418_135119)"/>
<path fill-rule="evenodd" clip-rule="evenodd" d="M17 25C21.4183 25 25 21.4183 25 17C25 12.5817 21.4183 9 17 9C12.5817 9 9 12.5817 9 17C9 21.4183 12.5817 25 17 25ZM23.6 17C23.6 20.6451 20.6451 23.6 17 23.6C13.3549 23.6 10.4 20.6451 10.4 17C10.4 13.3549 13.3549 10.4 17 10.4C20.6451 10.4 23.6 13.3549 23.6 17Z" fill="url(#paint3_linear_2418_135119)"/>
</g>
<defs>
<filter id="filter0_d_2418_135119" x="8" y="9" width="18" height="18" filterUnits="userSpaceOnUse" color-interpolation-filters="sRGB">
<feFlood flood-opacity="0" result="BackgroundImageFix"/>
<feColorMatrix in="SourceAlpha" type="matrix" values="0 0 0 0 0 0 0 0 0 0 0 0 0 0 0 0 0 0 127 0" result="hardAlpha"/>
<feOffset dy="1"/>
<feGaussianBlur stdDeviation="0.5"/>
<feComposite in2="hardAlpha" operator="out"/>
<feColorMatrix type="matrix" values="0 0 0 0 0 0 0 0 0 0 0 0 0 0 0 0 0 0 0.09 0"/>
<feBlend mode="normal" in2="BackgroundImageFix" result="effect1_dropShadow_2418_135119"/>
<feBlend mode="normal" in="SourceGraphic" in2="effect1_dropShadow_2418_135119" result="shape"/>
</filter>
<linearGradient id="paint0_linear_2418_135119" x1="5.5" y1="5.5" x2="28.5" y2="28.5" gradientUnits="userSpaceOnUse">
<stop offset="0.422503" stop-color="#F5D04B"/>
<stop offset="0.573647" stop-color="#F1A614"/>
</linearGradient>
<linearGradient id="paint1_linear_2418_135119" x1="8.81818" y1="6.43182" x2="24.1591" y2="32.6818" gradientUnits="userSpaceOnUse">
<stop stop-color="#F0F0F0"/>
<stop offset="0.101105" stop-color="white"/>
<stop offset="0.445" stop-color="#D4D4D4"/>
<stop offset="0.695" stop-color="white"/>
<stop offset="1" stop-color="#E3E3E3"/>
</linearGradient>
<linearGradient id="paint2_linear_2418_135119" x1="10.6835" y1="15.1169" x2="23.4511" y2="32.2402" gradientUnits="userSpaceOnUse">
<stop stop-color="white"/>
<stop offset="0.25" stop-color="#F3F3F3"/>
<stop offset="0.335" stop-color="white"/>
<stop offset="0.465" stop-color="#E4E4E4"/>
<stop offset="0.515" stop-color="white"/>
<stop offset="0.855" stop-color="white"/>
</linearGradient>
<linearGradient id="paint3_linear_2418_135119" x1="10.6835" y1="15.1169" x2="23.4511" y2="32.2402" gradientUnits="userSpaceOnUse">
<stop stop-color="white"/>
<stop offset="0.25" stop-color="#F3F3F3"/>
<stop offset="0.335" stop-color="white"/>
<stop offset="0.465" stop-color="#E4E4E4"/>
<stop offset="0.515" stop-color="white"/>
<stop offset="0.855" stop-color="white"/>
</linearGradient>
<clipPath id="clip0_2418_135119">
<rect x="2" y="2" width="30" height="30" rx="15" fill="white"/>
</clipPath>
</defs>
</svg>
