<svg width="36" height="36" viewBox="0 0 36 36" fill="none" xmlns="http://www.w3.org/2000/svg">
<g filter="url(#filter0_d_2418_134656)">
<g clip-path="url(#clip0_2418_134656)">
<rect x="3" y="2" width="30" height="30" rx="15" fill="#479BFF"/>
<rect x="3" y="2" width="30" height="30" rx="15" fill="url(#paint0_linear_2418_134656)"/>
<g opacity="0.08">
<g filter="url(#filter1_d_2418_134656)">
<path fill-rule="evenodd" clip-rule="evenodd" d="M9.55164 33.7762C9.65535 35.2608 10.8899 36.4121 12.3781 36.4121H13.5016C15.0664 36.4121 16.3349 35.1436 16.3349 33.5788V22.6747C16.3349 21.1098 15.0664 19.8413 13.5016 19.8413H11.6164C9.97383 19.8413 8.67546 21.2335 8.78993 22.8721L9.55164 33.7762ZM12.3781 34.0788C12.1155 34.0788 11.8976 33.8756 11.8793 33.6136L11.1176 22.7095C11.0974 22.4203 11.3265 22.1747 11.6164 22.1747H13.5016C13.7777 22.1747 14.0016 22.3985 14.0016 22.6747V33.5788C14.0016 33.8549 13.7777 34.0788 13.5016 34.0788H12.3781Z" fill="black"/>
<path fill-rule="evenodd" clip-rule="evenodd" d="M23.4155 36.3727C25.9757 36.5564 28.5937 36.7441 31.1739 36.7441C32.4087 36.7441 33.3116 35.9172 33.8031 35.1419C34.1222 34.6386 34.3744 33.9927 34.4218 33.3334C34.6549 33.1402 34.8424 32.9145 34.9884 32.6912C35.2995 32.2152 35.485 31.6618 35.5758 31.1446C35.6665 30.6277 35.6765 30.0687 35.5695 29.5608C35.5582 29.5072 35.5448 29.4505 35.5288 29.3916C36.0427 28.8156 36.3244 28.0831 36.444 27.4495C36.5428 26.9267 36.5539 26.3778 36.4626 25.8682C36.4448 25.7689 36.4224 25.6668 36.3943 25.5636C36.6622 25.29 36.8677 24.9815 37.0163 24.6445C37.2895 24.0249 37.331 23.393 37.3354 22.9051C37.34 22.3969 37.285 21.6436 36.9573 20.9745C36.7858 20.6243 36.5228 20.2632 36.1243 19.9915C35.7171 19.7139 35.2375 19.577 34.7184 19.577V21.9103C34.7714 21.9103 34.7991 21.9166 34.8106 21.9204C34.8176 21.9273 34.8366 21.9493 34.8618 22.0008C34.9526 22.1862 35.0056 22.5083 35.0022 22.8841C34.9986 23.2803 34.9593 23.5261 34.8813 23.7032C34.8206 23.8407 34.7075 24.0059 34.3847 24.1717C34.0535 24.3417 33.8233 24.6596 33.7651 25.0273C33.7069 25.395 33.8278 25.7685 34.0903 26.0324C34.0865 26.0286 34.0845 26.0267 34.0845 26.0267C34.0845 26.0267 34.1326 26.0939 34.1658 26.2795C34.2021 26.482 34.2028 26.7433 34.1513 27.0165C34.0374 27.6194 33.758 27.9242 33.5627 28.0027C33.1424 28.1714 32.8577 28.5681 32.8324 29.0203C32.8109 29.4051 32.9806 29.7708 33.2774 30.0035C33.2802 30.0146 33.2832 30.0274 33.2863 30.0418C33.3204 30.2038 33.3276 30.4566 33.2776 30.741C33.2277 31.0251 33.1346 31.2625 33.0352 31.4147C32.9812 31.4973 32.9431 31.5299 32.9282 31.5405C32.618 31.6151 32.3516 31.8137 32.1916 32.0902C32.0285 32.3719 31.9905 32.7088 32.0867 33.0197C32.0919 33.0365 32.1112 33.1357 32.0709 33.3236C32.0324 33.5027 31.9513 33.7051 31.8325 33.8925C31.5691 34.3079 31.2969 34.4108 31.1739 34.4108C28.6809 34.4108 26.1985 34.2326 23.6761 34.0516C22.5817 33.973 21.4798 33.8939 20.3662 33.8286C20.3505 33.8277 20.3347 33.8271 20.319 33.8268L20.3161 33.8266C20.3051 33.8258 20.2816 33.8235 20.2501 33.8181C20.1819 33.8064 20.1079 33.7851 20.0475 33.754C19.9924 33.7255 19.9675 33.6994 19.953 33.677C19.9422 33.6603 19.8948 33.5826 19.8948 33.375V21.795C19.8948 21.6824 19.9352 21.5737 20.0019 21.492L20.0591 21.4429C20.1313 21.3809 20.2353 21.2912 20.3637 21.1798C20.6203 20.9569 20.975 20.6462 21.3677 20.2943C22.1426 19.5999 23.1026 18.7126 23.7383 18.0239C24.9979 16.6591 26.2388 14.8291 26.8281 13.9262C26.9347 13.763 27.0676 13.7023 27.1738 13.6912C27.2745 13.6807 27.414 13.7076 27.5592 13.8574C27.58 13.8788 27.6925 14.0554 27.6581 14.6449C27.6361 15.022 27.5772 15.348 27.5152 15.6913C27.4813 15.8787 27.4465 16.0714 27.4162 16.2804C27.4019 16.3794 27.3355 16.6254 27.2002 17.0133C27.074 17.3748 26.9139 17.7876 26.7535 18.1837C26.5938 18.578 26.4375 18.9465 26.3209 19.217C26.2627 19.352 26.2146 19.4621 26.1812 19.538L26.1428 19.625L26.1306 19.6524C26.0969 19.7279 26.0707 19.8083 26.0537 19.8892C25.9999 20.1449 25.9897 20.4529 26.0987 20.7707C26.2108 21.0975 26.4169 21.3412 26.6425 21.509C27.0385 21.8035 27.5109 21.8765 27.7946 21.9059C28.1188 21.9393 28.4714 21.9367 28.7779 21.9299C28.8904 21.9274 28.9965 21.9243 29.0987 21.9214C29.3008 21.9157 29.4879 21.9103 29.6801 21.9103H34.7184V19.577H29.6801C29.4546 19.577 29.2101 19.5839 28.9902 19.5901C28.8966 19.5928 28.8074 19.5953 28.726 19.5971C28.7154 19.5973 28.7048 19.5976 28.6944 19.5978C28.7651 19.4291 28.8402 19.2474 28.9162 19.0596C29.0836 18.6463 29.2594 18.1943 29.4032 17.7821C29.5378 17.3963 29.6755 16.9599 29.7255 16.6146C29.7365 16.5386 29.7564 16.4268 29.7806 16.2909C29.8508 15.8964 29.9573 15.2986 29.9875 14.7808C30.0277 14.0911 29.9888 13.0108 29.234 12.2327C27.9233 10.8816 25.8569 11.1452 24.8742 12.6509C24.2934 13.5407 23.1417 15.23 22.0237 16.4413C21.4705 17.0406 20.5845 17.8631 19.8106 18.5565C19.429 18.8984 19.0836 19.201 18.8337 19.4181C18.7088 19.5266 18.608 19.6135 18.5386 19.673L18.4592 19.7411L18.434 19.7626L18.4326 19.7638C18.4043 19.7879 18.3772 19.8134 18.3513 19.84C17.8451 20.3622 17.5614 21.0669 17.5614 21.795V33.375C17.5614 33.9766 17.7102 34.5057 17.9937 34.9441C18.2736 35.3769 18.6411 35.6541 18.9785 35.828C19.3105 35.9991 19.629 36.0789 19.855 36.1178C19.9707 36.1377 20.0698 36.1481 20.1447 36.1536C20.1824 36.1564 20.2145 36.158 20.2402 36.1588L20.2491 36.1591C21.2899 36.2203 22.3477 36.2962 23.4155 36.3727ZM33.2548 29.9378C33.2548 29.9378 33.2567 29.9438 33.2621 29.9532C33.2578 29.942 33.2548 29.9378 33.2548 29.9378Z" fill="black"/>
</g>
</g>
</g>
<rect x="2.4" y="1.4" width="31.2" height="31.2" rx="15.6" stroke="url(#paint1_linear_2418_134656)" stroke-width="1.2"/>
</g>
<g filter="url(#filter2_d_2418_134656)">
<path fill-rule="evenodd" clip-rule="evenodd" d="M9.93097 22.2661C9.9932 23.1569 10.7339 23.8477 11.6268 23.8477H12.3009C13.2398 23.8477 14.0009 23.0865 14.0009 22.1477V15.6052C14.0009 14.6663 13.2398 13.9052 12.3009 13.9052H11.1698C10.1843 13.9052 9.40527 14.7405 9.47394 15.7236L9.93097 22.2661ZM11.6268 22.4477C11.4693 22.4477 11.3386 22.3258 11.3276 22.1686L10.8705 15.6261C10.8584 15.4526 10.9959 15.3052 11.1698 15.3052H12.3009C12.4666 15.3052 12.6009 15.4395 12.6009 15.6052V22.1477C12.6009 22.3133 12.4666 22.4477 12.3009 22.4477H11.6268Z" fill="url(#paint2_linear_2418_134656)"/>
<path fill-rule="evenodd" clip-rule="evenodd" d="M18.2493 23.824C19.7854 23.9342 21.3562 24.0469 22.9043 24.0469C23.6452 24.0469 24.1869 23.5507 24.4819 23.0855C24.6733 22.7836 24.8246 22.396 24.8531 22.0004C24.993 21.8845 25.1054 21.7491 25.193 21.6151C25.3797 21.3295 25.491 20.9975 25.5455 20.6871C25.5999 20.377 25.6059 20.0416 25.5417 19.7369C25.5349 19.7047 25.5268 19.6707 25.5172 19.6353C25.8256 19.2898 25.9946 18.8503 26.0664 18.4701C26.1257 18.1564 26.1323 17.8271 26.0776 17.5213C26.0669 17.4617 26.0534 17.4005 26.0366 17.3386C26.1973 17.1744 26.3206 16.9893 26.4098 16.7871C26.5737 16.4154 26.5986 16.0362 26.6012 15.7435C26.604 15.4385 26.571 14.9865 26.3744 14.5851C26.2715 14.375 26.1137 14.1583 25.8745 13.9953C25.6302 13.8287 25.3425 13.7466 25.0311 13.7466V15.1466C25.0628 15.1466 25.0795 15.1503 25.0863 15.1526C25.0905 15.1568 25.1019 15.1699 25.1171 15.2009C25.1716 15.3121 25.2033 15.5054 25.2013 15.7309C25.1991 15.9685 25.1756 16.1161 25.1288 16.2223C25.0924 16.3048 25.0245 16.404 24.8308 16.5034C24.6321 16.6054 24.494 16.7961 24.4591 17.0168C24.4242 17.2374 24.4967 17.4615 24.6542 17.6198C24.6519 17.6175 24.6507 17.6164 24.6507 17.6164C24.6507 17.6164 24.6795 17.6567 24.6995 17.7681C24.7212 17.8896 24.7217 18.0464 24.6907 18.2103C24.6224 18.572 24.4548 18.7549 24.3376 18.802C24.0854 18.9032 23.9146 19.1412 23.8994 19.4126C23.8865 19.6434 23.9883 19.8629 24.1664 20.0025C24.1681 20.0092 24.1699 20.0168 24.1717 20.0255C24.1922 20.1227 24.1965 20.2743 24.1666 20.445C24.1366 20.6154 24.0808 20.7579 24.0211 20.8492C23.9887 20.8988 23.9659 20.9184 23.9569 20.9247C23.7708 20.9695 23.611 21.0886 23.5149 21.2545C23.4171 21.4235 23.3943 21.6257 23.452 21.8122C23.4551 21.8223 23.4667 21.8818 23.4425 21.9946C23.4194 22.102 23.3708 22.2235 23.2995 22.3359C23.1415 22.5851 22.9781 22.6469 22.9043 22.6469C21.4085 22.6469 19.9191 22.54 18.4056 22.4313C17.749 22.3842 17.0879 22.3367 16.4197 22.2975C16.4103 22.297 16.4008 22.2966 16.3914 22.2965L16.3896 22.2963C16.3831 22.2958 16.3689 22.2945 16.3501 22.2913C16.3091 22.2842 16.2647 22.2715 16.2285 22.2528C16.1954 22.2357 16.1805 22.22 16.1718 22.2066C16.1653 22.1965 16.1369 22.1499 16.1369 22.0254V15.0774C16.1369 15.0098 16.1611 14.9446 16.2011 14.8956L16.2355 14.8661C16.2788 14.8289 16.3412 14.7751 16.4182 14.7082C16.5721 14.5745 16.785 14.3881 17.0206 14.1769C17.4856 13.7604 18.0615 13.228 18.443 12.8147C19.1987 11.9959 19.9433 10.8979 20.2969 10.3561C20.3608 10.2582 20.4406 10.2218 20.5043 10.2151C20.5647 10.2088 20.6484 10.225 20.7355 10.3148C20.748 10.3277 20.8155 10.4337 20.7949 10.7874C20.7817 11.0136 20.7463 11.2092 20.7091 11.4151C20.6888 11.5276 20.6679 11.6432 20.6497 11.7686C20.6411 11.828 20.6013 11.9756 20.5201 12.2084C20.4444 12.4253 20.3484 12.673 20.2521 12.9106C20.1563 13.1472 20.0625 13.3683 19.9925 13.5306C19.9576 13.6116 19.9287 13.6776 19.9087 13.7232L19.8857 13.7754L19.8784 13.7918C19.8581 13.8372 19.8424 13.8853 19.8322 13.9339C19.7999 14.0873 19.7938 14.2721 19.8592 14.4628C19.9265 14.6589 20.0501 14.8051 20.1855 14.9058C20.4231 15.0825 20.7065 15.1263 20.8768 15.1439C21.0713 15.164 21.2828 15.1624 21.4667 15.1583C21.5343 15.1568 21.5979 15.155 21.6592 15.1532C21.7805 15.1498 21.8927 15.1466 22.0081 15.1466H25.0311V13.7466H22.0081C21.8727 13.7466 21.7261 13.7507 21.5941 13.7545C21.5379 13.7561 21.4844 13.7576 21.4356 13.7587C21.4292 13.7588 21.4229 13.7589 21.4166 13.7591C21.459 13.6578 21.5041 13.5488 21.5497 13.4362C21.6501 13.1882 21.7556 12.917 21.8419 12.6696C21.9227 12.4382 22.0053 12.1763 22.0353 11.9692C22.0419 11.9235 22.0538 11.8565 22.0684 11.7749C22.1105 11.5382 22.1744 11.1795 22.1925 10.8689C22.2166 10.455 22.1932 9.80686 21.7404 9.34003C20.954 8.52937 19.7141 8.68754 19.1245 9.59091C18.776 10.1248 18.085 11.1384 17.4142 11.8652C17.0823 12.2248 16.5507 12.7182 16.0864 13.1343C15.8574 13.3395 15.6501 13.521 15.5002 13.6512C15.4253 13.7163 15.3648 13.7685 15.3232 13.8042L15.2755 13.8451L15.2604 13.858L15.2596 13.8587C15.2426 13.8731 15.2263 13.8884 15.2108 13.9044C14.9071 14.2177 14.7369 14.6405 14.7369 15.0774V22.0254C14.7369 22.3863 14.8261 22.7038 14.9962 22.9669C15.1641 23.2265 15.3847 23.3929 15.5871 23.4972C15.7863 23.5999 15.9774 23.6478 16.113 23.6711C16.1824 23.683 16.2419 23.6892 16.2868 23.6926C16.3094 23.6942 16.3287 23.6952 16.3441 23.6957L16.3495 23.6958C16.9739 23.7326 17.6086 23.7781 18.2493 23.824ZM24.1529 19.963C24.1529 19.963 24.154 19.9667 24.1572 19.9723C24.1547 19.9656 24.1529 19.963 24.1529 19.963Z" fill="url(#paint3_linear_2418_134656)"/>
</g>
<defs>
<filter id="filter0_d_2418_134656" x="0.799988" y="0.799805" width="34.4" height="34.4004" filterUnits="userSpaceOnUse" color-interpolation-filters="sRGB">
<feFlood flood-opacity="0" result="BackgroundImageFix"/>
<feColorMatrix in="SourceAlpha" type="matrix" values="0 0 0 0 0 0 0 0 0 0 0 0 0 0 0 0 0 0 127 0" result="hardAlpha"/>
<feOffset dy="1"/>
<feGaussianBlur stdDeviation="0.5"/>
<feComposite in2="hardAlpha" operator="out"/>
<feColorMatrix type="matrix" values="0 0 0 0 0 0 0 0 0 0 0 0 0 0 0 0 0 0 0.11 0"/>
<feBlend mode="normal" in2="BackgroundImageFix" result="effect1_dropShadow_2418_134656"/>
<feBlend mode="normal" in="SourceGraphic" in2="effect1_dropShadow_2418_134656" result="shape"/>
</filter>
<filter id="filter1_d_2418_134656" x="7.7829" y="11.3555" width="30.5527" height="27.3887" filterUnits="userSpaceOnUse" color-interpolation-filters="sRGB">
<feFlood flood-opacity="0" result="BackgroundImageFix"/>
<feColorMatrix in="SourceAlpha" type="matrix" values="0 0 0 0 0 0 0 0 0 0 0 0 0 0 0 0 0 0 127 0" result="hardAlpha"/>
<feOffset dy="1"/>
<feGaussianBlur stdDeviation="0.5"/>
<feComposite in2="hardAlpha" operator="out"/>
<feColorMatrix type="matrix" values="0 0 0 0 0 0 0 0 0 0 0 0 0 0 0 0 0 0 0.09 0"/>
<feBlend mode="normal" in2="BackgroundImageFix" result="effect1_dropShadow_2418_134656"/>
<feBlend mode="normal" in="SourceGraphic" in2="effect1_dropShadow_2418_134656" result="shape"/>
</filter>
<filter id="filter2_d_2418_134656" x="8.46973" y="8.81348" width="19.1317" height="17.2334" filterUnits="userSpaceOnUse" color-interpolation-filters="sRGB">
<feFlood flood-opacity="0" result="BackgroundImageFix"/>
<feColorMatrix in="SourceAlpha" type="matrix" values="0 0 0 0 0 0 0 0 0 0 0 0 0 0 0 0 0 0 127 0" result="hardAlpha"/>
<feOffset dy="1"/>
<feGaussianBlur stdDeviation="0.5"/>
<feComposite in2="hardAlpha" operator="out"/>
<feColorMatrix type="matrix" values="0 0 0 0 0 0 0 0 0 0 0 0 0 0 0 0 0 0 0.09 0"/>
<feBlend mode="normal" in2="BackgroundImageFix" result="effect1_dropShadow_2418_134656"/>
<feBlend mode="normal" in="SourceGraphic" in2="effect1_dropShadow_2418_134656" result="shape"/>
</filter>
<linearGradient id="paint0_linear_2418_134656" x1="10.5" y1="4" x2="28" y2="29.5" gradientUnits="userSpaceOnUse">
<stop offset="0.423464" stop-color="#479BFF"/>
<stop offset="0.558722" stop-color="#207DEC"/>
</linearGradient>
<linearGradient id="paint1_linear_2418_134656" x1="9.81818" y1="6.43182" x2="25.1591" y2="32.6818" gradientUnits="userSpaceOnUse">
<stop stop-color="#F0F0F0"/>
<stop offset="0.101105" stop-color="white"/>
<stop offset="0.445" stop-color="#D4D4D4"/>
<stop offset="0.695" stop-color="white"/>
<stop offset="1" stop-color="#E3E3E3"/>
</linearGradient>
<linearGradient id="paint2_linear_2418_134656" x1="11.2723" y1="18.2231" x2="22.9549" y2="0.602279" gradientUnits="userSpaceOnUse">
<stop stop-color="white"/>
<stop offset="0.25" stop-color="#F3F3F3"/>
<stop offset="0.335" stop-color="white"/>
<stop offset="0.465" stop-color="#E4E4E4"/>
<stop offset="0.515" stop-color="white"/>
<stop offset="0.855" stop-color="white"/>
</linearGradient>
<linearGradient id="paint3_linear_2418_134656" x1="11.2723" y1="18.2231" x2="22.9549" y2="0.602279" gradientUnits="userSpaceOnUse">
<stop stop-color="white"/>
<stop offset="0.25" stop-color="#F3F3F3"/>
<stop offset="0.335" stop-color="white"/>
<stop offset="0.465" stop-color="#E4E4E4"/>
<stop offset="0.515" stop-color="white"/>
<stop offset="0.855" stop-color="white"/>
</linearGradient>
<clipPath id="clip0_2418_134656">
<rect x="3" y="2" width="30" height="30" rx="15" fill="white"/>
</clipPath>
</defs>
</svg>
