<svg width="13" height="11" viewBox="0 0 13 11" fill="none" xmlns="http://www.w3.org/2000/svg">
<circle cx="6.5" cy="5.5" r="5" fill="#FF5752" stroke="white"/>
<path fill-rule="evenodd" clip-rule="evenodd" d="M7.14998 7.65C7.14998 8.00686 6.85684 8.3 6.49998 8.3C6.14311 8.3 5.84998 8.00686 5.84998 7.65C5.84998 7.29314 6.14311 7 6.49998 7C6.85684 7 7.14998 7.29314 7.14998 7.65Z" fill="white"/>
<path fill-rule="evenodd" clip-rule="evenodd" d="M5.84998 3.20636C5.84998 2.86765 6.1205 2.59668 6.45865 2.59668H6.54131C6.87946 2.59668 7.14998 2.86765 7.14998 3.20636V5.487C7.14998 5.82571 6.87946 6.09668 6.54131 6.09668H6.45865C6.1205 6.09668 5.84998 5.82571 5.84998 5.487V3.20636Z" fill="white"/>
</svg>
