<svg width="96" height="96" viewBox="0 0 96 96" fill="none" xmlns="http://www.w3.org/2000/svg">
	<g filter="url(#filter0_d_2583_81475)">
		<path d="M48 18.8C31.8732 18.8 18.8 31.8732 18.8 48C18.8 64.1267 31.8732 77.2 48 77.2C61.6021 77.2 73.0385 67.8968 76.2802 55.302C76.6656 53.8044 78.1922 52.9029 79.6897 53.2883C81.1873 53.6738 82.0889 55.2003 81.7034 56.6979C77.8404 71.7067 64.2192 82.8 48 82.8C28.7804 82.8 13.2 67.2195 13.2 48C13.2 28.7804 28.7804 13.2 48 13.2C56.8237 13.2 64.8864 16.4876 71.0194 21.9007C72.1788 22.924 72.2891 24.6934 71.2658 25.8528C70.2425 27.0122 68.4731 27.1225 67.3137 26.0992C62.1645 21.5545 55.4073 18.8 48 18.8Z" fill="white"/>
		<path fill-rule="evenodd" clip-rule="evenodd" d="M42.2628 34.3637C43.0693 32.1704 46.1673 32.1704 46.9737 34.3637L48.7882 39.2986C49.1044 40.1587 49.7763 40.832 50.6222 41.147L55.5257 42.9731C57.7058 43.7849 57.7058 46.8725 55.5257 47.6843L50.6222 49.5104C49.7763 49.8254 49.1044 50.4987 48.7882 51.3588L46.9737 56.2937C46.1673 58.487 43.0693 58.487 42.2628 56.2937L40.4484 51.3588C40.1321 50.4987 39.4603 49.8254 38.6143 49.5104L33.7108 47.6843C31.5308 46.8725 31.5308 43.7849 33.7108 42.9731L38.6143 41.147C39.4603 40.832 40.1321 40.1587 40.4484 39.2986L42.2628 34.3637ZM44.6183 39.5486L44.2026 40.679C43.4858 42.6287 41.9563 44.1708 40.0103 44.8955L38.8471 45.3287L40.0103 45.7619C41.9564 46.4866 43.4858 48.0287 44.2026 49.9784L44.6183 51.1088L45.0339 49.9784C45.7508 48.0287 47.2802 46.4866 49.2262 45.7619L50.3895 45.3287L49.2262 44.8955C47.2802 44.1708 45.7508 42.6287 45.0339 40.679L44.6183 39.5486Z" fill="white"/>
		<path d="M57.1492 52.6023C56.4594 50.7263 53.8072 50.7263 53.1175 52.6023L52.6726 53.8123L51.4744 54.2585C49.6096 54.953 49.6096 57.5918 51.4744 58.2863L52.6726 58.7324L53.1175 59.9425C53.8072 61.8185 56.4594 61.8185 57.1492 59.9425L57.5941 58.7324L58.7922 58.2863C60.657 57.5918 60.657 54.953 58.7922 54.2585L57.5941 53.8123L57.1492 52.6023Z" fill="white"/>
		<path fill-rule="evenodd" clip-rule="evenodd" d="M48 72C61.2548 72 72 61.2548 72 48C72 34.7452 61.2548 24 48 24C34.7452 24 24 34.7452 24 48C24 61.2548 34.7452 72 48 72ZM48 66.4C58.162 66.4 66.4 58.162 66.4 48C66.4 37.838 58.162 29.6 48 29.6C37.838 29.6 29.6 37.838 29.6 48C29.6 58.162 37.838 66.4 48 66.4Z" fill="white"/>
	</g>
	<defs>
		<filter id="filter0_d_2583_81475" x="-2" y="-1" width="100" height="100" filterUnits="userSpaceOnUse" color-interpolation-filters="sRGB">
			<feFlood flood-opacity="0" result="BackgroundImageFix"/>
			<feColorMatrix in="SourceAlpha" type="matrix" values="0 0 0 0 0 0 0 0 0 0 0 0 0 0 0 0 0 0 127 0" result="hardAlpha"/>
			<feOffset dy="1"/>
			<feGaussianBlur stdDeviation="1"/>
			<feComposite in2="hardAlpha" operator="out"/>
			<feColorMatrix type="matrix" values="0 0 0 0 0 0 0 0 0 0 0 0 0 0 0 0 0 0 0.12 0"/>
			<feBlend mode="normal" in2="BackgroundImageFix" result="effect1_dropShadow_2583_81475"/>
			<feBlend mode="normal" in="SourceGraphic" in2="effect1_dropShadow_2583_81475" result="shape"/>
		</filter>
	</defs>
</svg>