<svg width="16" height="16" viewBox="0 0 16 16" fill="none" xmlns="http://www.w3.org/2000/svg">
	<g opacity="0.96">
		<path d="M10.6064 2.93395C10.7903 2.75332 11.0857 2.75594 11.2664 2.93979L13.133 4.83979C13.3114 5.02134 13.3114 5.31233 13.133 5.49389L11.2664 7.39389C11.0857 7.57774 10.7903 7.58035 10.6064 7.39973C10.4226 7.2191 10.42 6.92364 10.6006 6.73979L11.6877 5.63324H9.94081C9.45636 5.63324 9.0036 5.85762 8.77225 6.22032C8.76804 6.22691 8.76367 6.23339 8.75914 6.23976L5.8686 10.3054C5.40255 10.9447 4.6947 11.2999 3.92947 11.2999H3.26681C3.00907 11.2999 2.80014 11.091 2.80014 10.8332C2.80014 10.5755 3.00907 10.3666 3.26681 10.3666H3.92947C4.3941 10.3666 4.82159 10.1559 5.11283 9.75767L7.99211 5.70789C8.42476 5.03865 9.19847 4.69991 9.94081 4.69991H11.6872L10.6006 3.59389C10.42 3.41004 10.4226 3.11457 10.6064 2.93395Z" fill="#F7F1FE"/>
		<path d="M8.52867 9.35215C8.39165 9.13385 8.10362 9.06796 7.88532 9.20497C7.66702 9.34199 7.60113 9.63002 7.73814 9.84832L7.97526 10.2261L7.97729 10.2293C8.39691 10.8859 9.16332 11.2947 9.93547 11.2947H11.6929L10.6006 12.4065C10.42 12.5903 10.4226 12.8858 10.6064 13.0664C10.7903 13.247 11.0857 13.2444 11.2664 13.0606L13.133 11.1606C13.3114 10.979 13.3114 10.688 13.133 10.5065L11.2664 8.60645C11.0857 8.4226 10.7903 8.41999 10.6064 8.60061C10.4226 8.78124 10.42 9.0767 10.6006 9.26055L11.6821 10.3613H9.93547C9.47522 10.3613 9.00924 10.1096 8.76469 9.72819L8.52867 9.35215Z" fill="#F7F1FE"/>
		<path d="M3.26681 4.69991C3.00907 4.69991 2.80014 4.90884 2.80014 5.16658C2.80014 5.42431 3.00907 5.63324 3.26681 5.63324H4.16403C4.68884 5.63324 5.19821 5.95326 5.45314 6.42671C5.57533 6.65364 5.85835 6.73854 6.08528 6.61635C6.3122 6.49416 6.39711 6.21115 6.27492 5.98422C5.86874 5.22989 5.05588 4.69991 4.16403 4.69991H3.26681Z" fill="#F7F1FE"/>
	</g>
</svg>