<svg xmlns="http://www.w3.org/2000/svg" width="200" height="200" fill="none"><path fill="#fff" d="M24 3h152c11.598 0 21 9.402 21 21v152c0 11.598-9.402 21-21 21H24c-11.598 0-21-9.402-21-21V24C3 12.402 12.402 3 24 3Z"/><path stroke="url(#a)" stroke-width="6" d="M24 3h152c11.598 0 21 9.402 21 21v152c0 11.598-9.402 21-21 21H24c-11.598 0-21-9.402-21-21V24C3 12.402 12.402 3 24 3Z"/><defs><linearGradient id="a" x1="147.467" x2="106.179" y1="192.954" y2="-12.896" gradientUnits="userSpaceOnUse"><stop offset=".278" stop-color="#0B83FF"/><stop offset=".642" stop-color="#32B2F4"/><stop offset=".993" stop-color="#75E4BD"/></linearGradient></defs></svg>