<svg width="12" height="13" viewBox="0 0 12 13" fill="none" xmlns="http://www.w3.org/2000/svg">
	<path d="M5.61779 5.73352H6.45975C6.62932 5.73352 6.7668 5.87009 6.7668 6.03856V6.87499C6.7668 7.04345 6.62932 7.18002 6.45975 7.18002H5.61779C5.44821 7.18002 5.31074 7.04345 5.31074 6.87499V6.03856C5.31074 5.87009 5.44821 5.73352 5.61779 5.73352Z" fill="#959CA4"/>
	<path d="M4.27632 5.73369H3.43436C3.26478 5.73369 3.12731 5.87026 3.12731 6.03872V6.87515C3.12731 7.04362 3.26478 7.18019 3.43436 7.18019H4.27632C4.44589 7.18019 4.58337 7.04362 4.58337 6.87515V6.03872C4.58337 5.87026 4.44589 5.73369 4.27632 5.73369Z" fill="#959CA4"/>
	<path d="M4.27561 7.90328H3.43365C3.26407 7.90328 3.1266 8.03985 3.1266 8.20831V9.04474C3.1266 9.21321 3.26407 9.34978 3.43365 9.34978H4.27561C4.44519 9.34978 4.58266 9.21321 4.58266 9.04474V8.20831C4.58266 8.03985 4.44519 7.90328 4.27561 7.90328Z" fill="#959CA4"/>
	<path d="M6.45975 7.90328H5.61779C5.44821 7.90328 5.31074 8.03985 5.31074 8.20831V9.04474C5.31074 9.21321 5.44821 9.34978 5.61779 9.34978H6.45975C6.62932 9.34978 6.7668 9.21321 6.7668 9.04474V8.20831C6.7668 8.03985 6.62932 7.90328 6.45975 7.90328Z" fill="#959CA4"/>
	<path d="M7.80193 5.73352H8.64388C8.81346 5.73352 8.95094 5.87009 8.95094 6.03856V6.87499C8.95094 7.04345 8.81346 7.18002 8.64388 7.18002H7.80193C7.63235 7.18002 7.49488 7.04345 7.49488 6.87499V6.03856C7.49488 5.87009 7.63235 5.73352 7.80193 5.73352Z" fill="#959CA4"/>
	<path fill-rule="evenodd" clip-rule="evenodd" d="M9.4862 2.26752V1.86886H10.3728C11.1825 1.91989 11.8098 2.62232 11.7952 3.46348V11.4366C11.7952 11.8767 11.4511 12.2339 11.0255 12.2339H0.978374C0.553525 12.2339 0.20872 11.8767 0.20872 11.4366V3.46348C0.205641 3.42202 0.204102 3.38136 0.204102 3.3407C0.205641 2.52585 0.844455 1.86727 1.63104 1.86886H2.51768V2.26752C2.51768 2.92769 3.03412 3.46348 3.67216 3.46348C4.31021 3.46348 4.82665 2.92769 4.82665 2.26752V1.86886H7.17723V2.26752C7.17723 2.92769 7.69444 3.46348 8.33172 3.46348C8.96899 3.46348 9.4862 2.92769 9.4862 2.26752ZM10.2559 10.6393H1.74805V4.306H10.2559V10.6393Z" fill="#959CA4"/>
	<path d="M4.23779 1.2326V2.10964C4.23779 2.43335 3.98457 2.69566 3.67209 2.69566C3.35961 2.69566 3.10639 2.43335 3.10639 2.10964V1.2326L3.11054 1.15646C3.14472 0.865811 3.38578 0.641112 3.67594 0.642585C3.98842 0.644985 4.23932 0.908894 4.23779 1.2326Z" fill="#959CA4"/>
	<path d="M8.86589 1.25411V2.0857C8.86589 2.39107 8.62653 2.63904 8.33098 2.63904C8.03543 2.63824 7.79761 2.39028 7.79761 2.08491V1.25411C7.79761 0.947944 8.03697 0.700777 8.33175 0.700777C8.62653 0.700777 8.86589 0.947944 8.86589 1.25411Z" fill="#959CA4"/>
</svg>
