<svg width="32" height="32" viewBox="0 0 32 32" fill="none" xmlns="http://www.w3.org/2000/svg">
<rect width="32" height="32" rx="8" fill="white" fill-opacity="0.2"/>
<path d="M17.5586 10.0527C18.9393 10.0527 20.0586 11.172 20.0586 12.5527V14.3623H20.333C21.6217 14.3623 22.667 15.4066 22.667 16.6953V18.876C22.667 19.7733 22.1597 20.552 21.417 20.9424V21.6299C21.417 22.6627 20.1689 23.1803 19.4385 22.4502L18.1973 21.209H16.8633C15.7544 21.2089 14.8262 20.4354 14.5889 19.3984H15.8203C16.012 19.7803 16.4069 20.0429 16.8633 20.043H18.6807L20.251 21.6133V20.2383L20.875 19.9102C21.2492 19.7134 21.5 19.3229 21.5 18.876V16.6953C21.5 16.051 20.9773 15.5283 20.333 15.5283H20.0586V15.8037C20.0585 17.1843 18.9392 18.3037 17.5586 18.3037H14.208C14.1762 18.345 14.1412 18.3852 14.1025 18.4238L12.5596 19.9658C11.8292 20.6962 10.5802 20.1793 10.5801 19.1465V17.9678C9.83453 17.5351 9.3331 16.7277 9.33301 15.8037V12.5527C9.33301 11.1721 10.4524 10.0529 11.833 10.0527H17.5586ZM11.833 11.2197C11.0968 11.2199 10.5 11.8165 10.5 12.5527V15.8037C10.5001 16.295 10.7654 16.7255 11.166 16.958L11.7471 17.2959V19.1289L13.2773 17.5986C13.2808 17.5952 13.2832 17.5918 13.2832 17.5918L13.6338 17.1367H17.5586C18.2949 17.1367 18.8924 16.54 18.8926 15.8037V12.5527C18.8926 11.8164 18.295 11.2197 17.5586 11.2197H11.833Z" fill="white"/>
<rect x="6" y="6" width="20" height="20" rx="3" fill="white" fill-opacity="0.01"/>
</svg>
