<svg width="10" height="10" viewBox="0 0 10 10" fill="none" xmlns="http://www.w3.org/2000/svg">
<path fill-rule="evenodd" clip-rule="evenodd" d="M9.23107 5.0004C9.23107 2.66358 7.33689 0.769531 5.00037 0.769531C2.66373 0.769531 0.769531 2.66358 0.769531 5.0004C0.769531 7.33686 2.66373 9.23107 5.00037 9.23107C7.33689 9.23107 9.23107 7.33686 9.23107 5.0004ZM3.36607 3.89228C3.36607 3.68529 3.43251 3.47555 3.56544 3.2631C3.69832 3.05065 3.89229 2.8747 4.14722 2.73523C4.40217 2.5958 4.6996 2.52605 5.03951 2.52605C5.35543 2.52605 5.63437 2.58438 5.87624 2.70091C6.11811 2.8175 6.30491 2.97603 6.43678 3.17648C6.56859 3.37698 6.63452 3.59485 6.63452 3.83017C6.63452 4.0154 6.59693 4.17777 6.52175 4.31718C6.44657 4.45665 6.3572 4.57704 6.25373 4.67834C6.15021 4.77967 5.96447 4.95019 5.69646 5.18987C5.62237 5.25744 5.56295 5.31683 5.51833 5.36802C5.47364 5.41924 5.4404 5.46608 5.41863 5.50855C5.39683 5.55105 5.37991 5.59353 5.36797 5.63603C5.35597 5.6785 5.338 5.75317 5.31405 5.85992C5.27263 6.08656 5.14297 6.19985 4.92511 6.19985C4.81179 6.19985 4.71644 6.16283 4.63911 6.08872C4.56175 6.01465 4.52309 5.90461 4.52309 5.7586C4.52309 5.57556 4.55138 5.41704 4.60807 5.28304C4.66471 5.14901 4.73988 5.03135 4.83359 4.93005C4.92725 4.82871 5.05366 4.70834 5.21273 4.56887C5.35216 4.44686 5.45297 4.35478 5.51507 4.29268C5.57717 4.23058 5.62946 4.16143 5.67196 4.08512C5.71444 4.00887 5.7357 3.92609 5.7357 3.83672C5.7357 3.66241 5.67084 3.51534 5.54122 3.39547C5.41155 3.27567 5.2443 3.2157 5.03951 3.2157C4.79978 3.2157 4.62329 3.27617 4.51001 3.39711C4.39669 3.51804 4.30084 3.69618 4.22239 3.93151C4.14829 4.17777 4.00774 4.30085 3.80075 4.30085C3.67868 4.30085 3.57573 4.25784 3.49188 4.17174C3.408 4.08567 3.36607 3.99252 3.36607 3.89228ZM4.61298 7.34545C4.71211 7.4315 4.82813 7.47457 4.96107 7.47457C5.08962 7.47457 5.20291 7.43097 5.30097 7.34383C5.39903 7.25669 5.44806 7.13684 5.44806 6.98429C5.44806 6.84701 5.40117 6.73154 5.30752 6.63783C5.2138 6.54416 5.09834 6.49729 4.96106 6.49729C4.82159 6.49729 4.70393 6.54416 4.60807 6.63783C4.51215 6.73154 4.46426 6.84701 4.46426 6.98429C4.46426 7.13902 4.51381 7.25941 4.61298 7.34545Z" fill="#BDC1C6"/>
</svg>
