<svg width="590" height="212" viewBox="0 0 590 212" fill="none" xmlns="http://www.w3.org/2000/svg">
	<g clip-path="url(#clip0_403_2452)">
		<path d="M0 20C0 8.9543 8.95431 0 20 0H570C581.046 0 590 8.95431 590 20V192C590 203.046 581.046 212 570 212H20C8.9543 212 0 203.046 0 192V20Z" fill="url(#paint0_linear_403_2452)"/>
		<g filter="url(#filter0_f_403_2452)">
			<ellipse cx="64.4864" cy="23.7812" rx="64.4864" ry="23.7812" transform="matrix(0.995839 0.0911282 -0.174471 0.984662 449.207 -3.53079)" fill="#C4E6FF"/>
		</g>
		<g opacity="0.47" filter="url(#filter1_f_403_2452)">
			<ellipse cx="70.841" cy="36.7755" rx="70.841" ry="36.7755" transform="matrix(-0.822098 0.569346 -0.801644 -0.597801 594.377 42.2939)" fill="white"/>
		</g>
		<g opacity="0.68" filter="url(#filter2_f_403_2452)">
			<ellipse cx="100.065" cy="32.0148" rx="100.065" ry="32.0148" transform="matrix(0.990136 0.140109 -0.264255 0.964453 16.9199 -14.84)" fill="#E6F4FF"/>
		</g>
		<g opacity="0.85" filter="url(#filter3_f_403_2452)">
			<ellipse cx="100.065" cy="32.0148" rx="100.065" ry="32.0148" transform="matrix(0.990136 0.140109 -0.264255 0.964453 228.689 13.4478)" fill="#E6F4FF"/>
		</g>
	</g>
	<defs>
		<filter id="filter0_f_403_2452" x="424.922" y="-18.3861" width="168.709" height="88.2966" filterUnits="userSpaceOnUse" color-interpolation-filters="sRGB">
			<feFlood flood-opacity="0" result="BackgroundImageFix"/>
			<feBlend mode="normal" in="SourceGraphic" in2="BackgroundImageFix" result="shape"/>
			<feGaussianBlur stdDeviation="8" result="effect1_foregroundBlur_403_2452"/>
		</filter>
		<filter id="filter1_f_403_2452" x="406.351" y="-20.3194" width="200.614" height="161.924" filterUnits="userSpaceOnUse" color-interpolation-filters="sRGB">
			<feFlood flood-opacity="0" result="BackgroundImageFix"/>
			<feBlend mode="normal" in="SourceGraphic" in2="BackgroundImageFix" result="shape"/>
			<feGaussianBlur stdDeviation="17.5088" result="effect1_foregroundBlur_403_2452"/>
		</filter>
		<filter id="filter2_f_403_2452" x="-20.2122" y="-32.1682" width="255.501" height="124.45" filterUnits="userSpaceOnUse" color-interpolation-filters="sRGB">
			<feFlood flood-opacity="0" result="BackgroundImageFix"/>
			<feBlend mode="normal" in="SourceGraphic" in2="BackgroundImageFix" result="shape"/>
			<feGaussianBlur stdDeviation="14.153" result="effect1_foregroundBlur_403_2452"/>
		</filter>
		<filter id="filter3_f_403_2452" x="189.863" y="-5.57437" width="258.889" height="127.838" filterUnits="userSpaceOnUse" color-interpolation-filters="sRGB">
			<feFlood flood-opacity="0" result="BackgroundImageFix"/>
			<feBlend mode="normal" in="SourceGraphic" in2="BackgroundImageFix" result="shape"/>
			<feGaussianBlur stdDeviation="15" result="effect1_foregroundBlur_403_2452"/>
		</filter>
		<linearGradient id="paint0_linear_403_2452" x1="295" y1="0" x2="295" y2="212" gradientUnits="userSpaceOnUse">
			<stop offset="0.2" stop-color="#C4E6FF"/>
			<stop offset="0.5" stop-color="white"/>
		</linearGradient>
		<clipPath id="clip0_403_2452">
			<rect width="590" height="212" fill="white"/>
		</clipPath>
	</defs>
</svg>
