<svg width="32" height="33" viewBox="0 0 32 33" fill="none" xmlns="http://www.w3.org/2000/svg">
<path d="M23.8632 24.0129C24.0668 22.2649 24.0058 22.0086 25.2688 22.2917L25.5895 22.3208C26.5606 22.3663 27.8311 22.1598 28.5774 21.8023C30.1841 21.0339 31.1368 19.7508 29.5525 20.0879C25.9388 20.8564 25.6903 19.5951 25.6903 19.5951C29.5063 13.7588 31.1015 6.35013 29.7246 4.53665C25.969 -0.409872 19.4684 1.92923 19.3596 1.98996L19.3249 1.99655C18.6109 1.84383 17.8118 1.75259 16.9141 1.73763C15.2788 1.70993 14.0379 2.17955 13.0966 2.91551C13.0966 2.91551 1.49974 -2.00946 2.03925 9.10916C2.15399 11.4744 5.32825 27.0066 9.11415 22.3151C10.4979 20.5996 11.8351 19.1491 11.8351 19.1491C12.4991 19.6039 13.2941 19.8358 14.1279 19.7525L14.1924 19.6959C14.1722 19.9089 14.1811 20.1172 14.2182 20.3638C13.2431 21.4871 13.5296 21.6844 11.5797 22.0981C9.60696 22.5172 10.7659 23.2634 11.5224 23.4584C12.4398 23.6948 14.562 24.0298 15.9963 21.9605L15.9392 22.1966C16.3218 22.5121 16.2959 24.4643 16.3501 25.8591C16.4045 27.254 16.4951 28.5557 16.7709 29.3231C17.0467 30.0904 17.3722 32.0671 19.9348 31.501C22.0765 31.0279 23.714 30.347 23.8632 24.0129Z" fill="black" stroke="black" stroke-width="1.25943"/>
<path d="M29.5533 20.0879C25.9391 20.8564 25.6907 19.595 25.6907 19.595C29.5066 13.7584 31.1018 6.34957 29.7252 4.53631C25.9697 -0.409913 19.4687 1.92933 19.3602 1.99006L19.3253 1.99651C18.6113 1.84372 17.8122 1.75269 16.9141 1.73759C15.2787 1.70996 14.0383 2.17951 13.097 2.91532C13.097 2.91532 1.49988 -2.00943 2.03924 9.10912C2.15398 11.4745 5.32817 27.0067 9.11422 22.3152C10.498 20.5997 11.835 19.1492 11.835 19.1492C12.4991 19.604 13.2941 19.8359 14.1276 19.7526L14.1923 19.696C14.1722 19.909 14.1814 20.1173 14.2182 20.3639C13.2429 21.4872 13.5295 21.6845 11.5798 22.0982C9.60688 22.5173 10.7659 23.2635 11.5226 23.4585C12.4399 23.6949 14.5623 24.0299 15.9963 21.9606L15.9391 22.1967C16.3212 22.5122 16.5896 24.2491 16.5446 25.8235C16.4996 27.398 16.4696 28.4789 16.7707 29.3232C17.0718 30.1675 17.372 32.0672 19.9351 31.5011C22.0768 31.028 23.1866 29.8019 23.341 27.7569C23.4506 26.303 23.6986 26.5179 23.7142 25.218L23.9131 24.6026C24.1424 22.6318 23.9495 21.996 25.269 22.2917L25.5897 22.3207C26.5608 22.3663 27.8319 22.1597 28.5779 21.8023C30.1843 21.0338 31.137 19.7508 29.5531 20.0879H29.5533Z" fill="#336791"/>
<path d="M16.1513 21.2178C16.0518 24.885 16.1763 28.5778 16.5244 29.4753C16.8727 30.3728 17.6182 32.1184 20.1815 31.5524C22.323 31.0791 23.1022 30.1633 23.4403 28.1417C23.6894 26.6544 24.1694 22.5239 24.231 21.6775" stroke="white" stroke-width="0.419811" stroke-linecap="round" stroke-linejoin="round"/>
<path d="M13.0789 2.83328C13.0789 2.83328 1.47385 -2.05599 2.01336 9.06255C2.1281 11.4279 5.3025 26.9606 9.08848 22.269C10.472 20.5533 11.7232 19.2076 11.7232 19.2076" stroke="white" stroke-width="0.419811" stroke-linecap="round" stroke-linejoin="round"/>
<path d="M19.3475 1.94104C18.9458 2.07087 25.8029 -0.642906 29.6999 4.49003C31.0764 6.30336 29.4812 13.7121 25.6654 19.549" stroke="white" stroke-width="0.419811" stroke-linecap="round" stroke-linejoin="round"/>
<path d="M25.6653 19.5494C25.6653 19.5494 25.914 20.8111 29.5281 20.0421C31.1117 19.705 30.1587 20.9882 28.5527 21.757C27.2346 22.3876 24.2796 22.5492 24.2313 21.6779C24.107 19.4297 25.7865 20.1127 25.6653 19.5494ZM25.6653 19.5494C25.5557 19.0421 24.8047 18.5441 24.3079 17.3025C23.8741 16.2188 18.3591 7.90782 25.8373 9.14214C26.1113 9.08371 23.8869 1.80986 16.8884 1.69159C9.89143 1.57331 10.121 10.5614 10.121 10.5614" stroke="white" stroke-width="0.419811" stroke-linecap="round" stroke-linejoin="bevel"/>
<path d="M14.1926 20.3178C13.2172 21.4411 13.5041 21.6383 11.5542 22.0521C9.58128 22.4713 10.7404 23.2174 11.4969 23.4123C12.4143 23.6489 14.5366 23.9839 15.9706 21.9141C16.4073 21.2839 15.968 20.2784 15.3682 20.022C15.0783 19.8983 14.6908 19.7432 14.1926 20.3178Z" stroke="white" stroke-width="0.419811" stroke-linecap="round" stroke-linejoin="round"/>
<path d="M14.1285 20.298C14.0302 19.6376 14.339 18.8517 14.67 17.9323C15.1673 16.5528 16.3148 15.1731 15.3969 10.7973C14.7126 7.53639 10.1235 10.1186 10.1206 10.5608C10.1178 11.0028 10.3282 12.8019 10.0439 14.897C9.67307 17.6308 11.7315 19.9429 14.1019 19.7064" stroke="white" stroke-width="0.419811" stroke-linecap="round" stroke-linejoin="round"/>
<path d="M13.0367 10.4951C13.016 10.6461 13.3049 11.0491 13.6816 11.103C14.0577 11.157 14.3795 10.8421 14.3999 10.6912C14.4203 10.5402 14.1318 10.3739 13.755 10.3198C13.3787 10.2657 13.0567 10.3445 13.0368 10.4951H13.0367Z" fill="white" stroke="white" stroke-width="0.139936"/>
<path d="M24.4912 10.1865C24.5116 10.3375 24.2231 10.7405 23.8463 10.7943C23.4699 10.8484 23.1481 10.5335 23.1274 10.3826C23.1075 10.2316 23.3961 10.0653 23.7726 10.0112C24.149 9.95714 24.4708 10.0359 24.4912 10.1866V10.1865Z" fill="white" stroke="white" stroke-width="0.0699679"/>
<path d="M25.8369 9.1416C25.8989 10.3261 25.5894 11.133 25.5504 12.394C25.4926 14.2268 26.3981 16.3247 25.0337 18.4252" stroke="white" stroke-width="0.419811" stroke-linecap="round" stroke-linejoin="round"/>
</svg>
