<svg width="32" height="32" viewBox="0 0 32 32" fill="none" xmlns="http://www.w3.org/2000/svg">
<rect width="32" height="32" rx="8" fill="white" fill-opacity="0.2"/>
<path d="M20.4873 19.7773C20.8094 19.7775 21.0703 20.0392 21.0703 20.3613V20.9297H21.6387C21.9606 20.9299 22.2217 21.1917 22.2217 21.5137C22.2216 21.8356 21.9606 22.0964 21.6387 22.0967H21.0703V22.665C21.0701 22.9869 20.8092 23.2479 20.4873 23.248C20.1653 23.248 19.9035 22.987 19.9033 22.665V22.0967H19.335C19.0129 22.0967 18.7511 21.8358 18.751 21.5137C18.751 21.1915 19.0128 20.9297 19.335 20.9297H19.9033V20.3613C19.9033 20.0392 20.1651 19.7773 20.4873 19.7773ZM15.3857 10.085C15.6275 9.43241 16.5502 9.43249 16.792 10.085L18.0479 13.4785C18.1576 13.775 18.392 14.0084 18.6885 14.1182L22.0811 15.374C22.734 15.6157 22.734 16.5396 22.0811 16.7812L18.6885 18.0361C18.392 18.1459 18.1576 18.3803 18.0479 18.6768L16.792 22.0693C16.5504 22.7223 15.6274 22.7223 15.3857 22.0693L14.1299 18.6768C14.0202 18.3803 13.7867 18.1459 13.4902 18.0361L10.0967 16.7812C9.44378 16.5396 9.44382 15.6157 10.0967 15.374L13.4902 14.1182C13.7865 14.0084 14.0202 13.7748 14.1299 13.4785L15.3857 10.085ZM15.2236 13.8828C14.9957 14.4986 14.5103 14.985 13.8945 15.2129L11.5576 16.0771L13.8945 16.9424C14.5102 17.1702 14.9957 17.6558 15.2236 18.2715L16.0889 20.6094L16.9541 18.2715C17.182 17.6558 17.6675 17.1703 18.2832 16.9424L20.6201 16.0771L18.2832 15.2129C17.6674 14.985 17.182 14.4986 16.9541 13.8828L16.0889 11.5459L15.2236 13.8828ZM11.2969 9.2207C11.619 9.2207 11.8809 9.48252 11.8809 9.80469V10.375H12.4512C12.7732 10.375 13.0339 10.6361 13.0342 10.958C13.0342 11.2802 12.7733 11.542 12.4512 11.542H11.8809V12.1133C11.8809 12.4354 11.619 12.6963 11.2969 12.6963C10.9749 12.6961 10.7139 12.4353 10.7139 12.1133V11.542H10.1426C9.82041 11.542 9.55859 11.2802 9.55859 10.958C9.55885 10.6361 9.82057 10.375 10.1426 10.375H10.7139V9.80469C10.7139 9.48263 10.9749 9.22087 11.2969 9.2207Z" fill="white"/>
<rect x="6" y="6" width="20" height="20" rx="3" fill="white" fill-opacity="0.01"/>
</svg>
