<svg width="32" height="32" viewBox="0 0 32 32" fill="none" xmlns="http://www.w3.org/2000/svg">
<rect width="32" height="32" rx="8" fill="white" fill-opacity="0.2"/>
<path d="M20.1667 10.167C21.5474 10.167 22.6667 11.2863 22.6667 12.667V18.6816C22.6665 20.0622 21.5473 21.1816 20.1667 21.1816H15.1306L13.0515 23.2598C12.321 23.99 11.072 23.4723 11.072 22.4395V21.0635C10.0636 20.7415 9.33386 19.7967 9.33368 18.6816V12.667C9.33368 11.2863 10.453 10.167 11.8337 10.167H20.1667ZM11.8337 11.333C11.0973 11.333 10.4997 11.9306 10.4997 12.667V18.6816C10.4999 19.2746 10.8885 19.7801 11.4274 19.9521L12.239 20.2109V22.4229L14.6472 20.0146H20.1667C20.9029 20.0146 21.4995 19.4178 21.4997 18.6816V12.667C21.4997 11.9306 20.9031 11.333 20.1667 11.333H11.8337ZM17.4489 15.96C17.7711 15.96 18.0329 16.2218 18.0329 16.5439C18.0327 16.866 17.771 17.127 17.4489 17.127H12.8112C12.4893 17.1268 12.2284 16.8659 12.2282 16.5439C12.2282 16.2219 12.4892 15.9601 12.8112 15.96H17.4489ZM18.8981 13.6406C19.2203 13.6406 19.4821 13.9024 19.4821 14.2246C19.4819 14.5466 19.2202 14.8076 18.8981 14.8076H12.8112C12.4893 14.8075 12.2284 14.5465 12.2282 14.2246C12.2282 13.9025 12.4892 13.6408 12.8112 13.6406H18.8981Z" fill="white"/>
<rect x="6" y="6" width="20" height="20" rx="3" fill="white" fill-opacity="0.01"/>
</svg>
