<svg width="46" height="46" viewBox="0 0 46 46" fill="none" xmlns="http://www.w3.org/2000/svg">
	<path d="M23.5026 8.08382L23.7347 8.11751C24.2535 8.24549 24.6284 8.7232 24.6069 9.27799C24.5852 9.83357 24.173 10.281 23.6448 10.3673L23.4127 10.3823L22.8699 10.3711C21.7813 10.3706 20.6812 10.4962 19.5944 10.7548L19.0516 10.8952C14.0671 12.2919 11.1858 16.4848 10.2918 21.6895L10.1383 22.7433C10.0637 23.3738 9.49236 23.8247 8.86178 23.7503C8.23118 23.6759 7.78057 23.1044 7.85478 22.4738L7.93152 21.8861C8.80695 15.8458 12.1332 10.4456 18.432 8.6809L19.0628 8.51806C20.3264 8.21746 21.6054 8.07196 22.8718 8.07259L23.5026 8.08382Z" fill="#2FC6F6"/>
	<path d="M9.97449 30.9726L9.87273 30.7633C9.68616 30.2624 9.87003 29.6838 10.3408 29.3892C10.8118 29.0946 11.4129 29.1824 11.7817 29.5695L11.9248 29.7529L12.2221 30.2094C12.8345 31.1093 13.5576 31.9479 14.3832 32.7006L14.8038 33.0686C16.7744 34.7274 18.9229 35.6996 21.2853 35.9778C23.6571 36.2571 26.3215 35.8457 29.3259 34.616L29.55 34.5494C30.0756 34.4502 30.6168 34.73 30.8273 35.2443C31.0677 35.832 30.7855 36.5036 30.198 36.7442L29.5862 36.9865C26.5394 38.1467 23.6826 38.5767 21.0163 38.2627C18.163 37.9266 15.6024 36.747 13.3235 34.8288L12.8338 34.3991C11.874 33.524 11.0338 32.5487 10.3214 31.5018L9.97449 30.9726Z" fill="#2FC6F6"/>
	<path d="M14.7157 29.2214C15.3508 29.2214 15.8649 29.7356 15.8649 30.3707C15.8649 31.0058 15.3508 31.5199 14.7157 31.5199H11.4569L11.4569 34.7861L11.4345 35.0163C11.3276 35.5408 10.8637 35.9353 10.3077 35.9354C9.75166 35.9354 9.28781 35.5408 9.18091 35.0163L9.15658 34.7861L9.15658 30.3707C9.15658 29.7356 9.67257 29.2214 10.3077 29.2214H14.7157Z" fill="#2FC6F6"/>
	<path d="M7.73779 23.5126C7.73807 16.754 11.9746 10.4922 18.4386 8.6809L19.0693 8.51806C20.3329 8.21739 21.612 8.07203 22.8783 8.07259L23.511 8.08382L23.7412 8.11751C24.2605 8.24516 24.6368 8.7229 24.6153 9.27799C24.5936 9.83325 24.181 10.2806 23.6532 10.3673L23.4211 10.3823L22.8783 10.3711C21.7897 10.3705 20.6897 10.4963 19.6028 10.7548L19.06 10.8952C13.7055 12.3953 10.0384 17.6586 10.0382 23.5126C10.0382 24.1476 9.52387 24.6635 8.88892 24.6637C8.25379 24.6637 7.73779 24.1477 7.73779 23.5126Z" fill="#2FC6F6"/>
	<path d="M21.6221 13.1556C21.2139 13.6422 20.4896 13.7055 20.003 13.2973C19.5165 12.889 19.4531 12.1647 19.8614 11.6782L21.9572 9.18043L19.4537 7.07976L19.2904 6.91336C18.9584 6.49448 18.9552 5.88617 19.3121 5.46066C19.6691 5.03517 20.2687 4.93285 20.739 5.18702L20.9324 5.31757L24.3163 8.15697C24.8028 8.56522 24.865 9.29097 24.4567 9.7775L21.6221 13.1556Z" fill="#2FC6F6"/>
	<path d="M36.0162 30.9798L35.871 31.164C35.5008 31.5496 34.8997 31.6352 34.4298 31.3391C33.96 31.0428 33.7781 30.4632 33.9665 29.9629L34.0696 29.7544L34.3517 29.2883C34.8964 28.3458 35.3377 27.3303 35.6572 26.2597L35.8061 25.7211C36.4351 23.2621 36.0448 20.4173 34.844 17.8302C33.7195 15.4072 31.9227 13.2961 29.7401 11.996L29.298 11.7472L29.1055 11.6166C28.6934 11.2757 28.5629 10.6821 28.8237 10.1917C29.0851 9.70098 29.6518 9.476 30.1649 9.62816L30.3792 9.71733L30.9146 10.0178C33.5501 11.5864 35.638 14.0806 36.929 16.8618C38.305 19.8264 38.8206 23.2166 38.0344 26.2901L37.86 26.9178C37.4886 28.1624 36.975 29.3428 36.3413 30.4392L36.0162 30.9798Z" fill="#2FC6F6"/>
	<path d="M32.1575 27.3881C31.9293 26.7954 32.2245 26.1309 32.8172 25.9028C33.41 25.6747 34.0745 25.9698 34.3026 26.5626L35.473 29.6038L38.5213 28.4307L38.7466 28.37C39.2741 28.282 39.8077 28.5736 40.0073 29.0922C40.2063 29.6105 40.0055 30.1833 39.5554 30.4715L39.3475 30.5775L35.2267 32.1635C34.6342 32.3915 33.9698 32.0959 33.7414 31.5037L32.1575 27.3881Z" fill="#2FC6F6"/>
	<path d="M18.8134 23.0003C18.8134 23.7942 18.1698 24.4378 17.3759 24.4378C16.582 24.4378 15.9384 23.7942 15.9384 23.0003C15.9384 22.2063 16.582 21.5628 17.3759 21.5628C18.1698 21.5628 18.8134 22.2063 18.8134 23.0003Z" fill="#2FC6F6"/>
	<path d="M30.0123 23.0003C30.0123 23.7942 29.3687 24.4378 28.5748 24.4378C27.7809 24.4378 27.1373 23.7942 27.1373 23.0003C27.1373 22.2063 27.7809 21.5628 28.5748 21.5628C29.3687 21.5628 30.0123 22.2063 30.0123 23.0003Z" fill="#2FC6F6"/>
	<path d="M25.3917 22.9984C25.3917 24.2978 24.3383 25.3512 23.0389 25.3512C21.7395 25.3512 20.6861 24.2978 20.6861 22.9984C20.6861 21.699 21.7395 20.6456 23.0389 20.6456C24.3383 20.6456 25.3917 21.699 25.3917 22.9984Z" fill="#2FC6F6"/>
	<path d="M17.3302 26.74H28.7459V19.2605H17.3302V26.74ZM31.0463 26.9309C31.0463 28.0952 30.103 29.0383 28.9387 29.0385H17.1392C15.9748 29.0385 15.0317 28.0953 15.0317 26.9309V19.0696C15.0317 17.9052 15.9748 16.962 17.1392 16.962H28.9387C30.103 16.9622 31.0463 17.9053 31.0463 19.0696V26.9309Z" fill="#2FC6F6"/>
</svg>
