<svg width="20" height="20" viewBox="0 0 20 20" fill="none" xmlns="http://www.w3.org/2000/svg">
	<path fill-rule="evenodd" clip-rule="evenodd" d="M3.80372 3.95532L3.60323 3.75484C3.37543 3.52703 3.00608 3.52703 2.77828 3.75484C2.55047 3.98264 2.55047 4.35199 2.77828 4.5798L3.74252 5.54404C3.46541 5.84165 3.29588 6.24079 3.29588 6.67952V13.3217C3.29588 14.2422 4.04208 14.9884 4.96255 14.9884H11.8802C12.2486 14.9884 12.589 14.8688 12.8649 14.6665L14.4449 16.2465C14.6727 16.4743 15.0421 16.4743 15.2699 16.2465C15.4817 16.0346 15.4966 15.7004 15.3145 15.4714L3.84477 4.00173C3.82996 3.98692 3.81628 3.97142 3.80372 3.95532ZM4.56924 6.37077C4.50241 6.45578 4.46255 6.563 4.46255 6.67952V13.3217C4.46255 13.5978 4.68641 13.8217 4.96255 13.8217H11.8802C11.9231 13.8217 11.9648 13.8163 12.0046 13.8061L4.56924 6.37077Z" fill="white"/>
	<path fill-rule="evenodd" clip-rule="evenodd" d="M13.6473 12.39L15.2781 13.5426C16.3269 14.2838 17.7753 13.5338 17.7753 12.2496V7.74844C17.7753 6.46622 16.3308 5.71577 15.2817 6.45292L13.5468 7.67186V6.67952C13.5468 5.75905 12.8006 5.01286 11.8802 5.01286H6.27011L7.43678 6.17952H11.8802C12.1563 6.17952 12.3802 6.40338 12.3802 6.67952V11.1229L13.6473 12.39ZM13.5527 9.09362L13.5527 10.8945L15.9515 12.5899C16.2275 12.7849 16.6086 12.5875 16.6086 12.2496V7.74844C16.6086 7.41102 16.2285 7.21353 15.9524 7.40752L13.5527 9.09362Z" fill="white"/>
</svg>
