<svg width="20" height="20" viewBox="0 0 20 20" fill="none" xmlns="http://www.w3.org/2000/svg">
	<path fill-rule="evenodd" clip-rule="evenodd" d="M3.29688 6.67887C3.29688 5.7584 4.04307 5.01221 4.96354 5.01221H11.8812C12.8016 5.01221 13.5478 5.7584 13.5478 6.67887V7.67085L15.2827 6.45187C16.3319 5.71472 17.7763 6.46517 17.7763 7.74739V12.2485C17.7763 13.5328 16.3279 14.2827 15.2792 13.5416L13.5478 12.318V13.321C13.5478 14.2415 12.8016 14.9877 11.8812 14.9877H4.96354C4.04307 14.9877 3.29688 14.2415 3.29688 13.321V6.67887ZM4.96354 6.17887H11.8812C12.1573 6.17887 12.3812 6.40273 12.3812 6.67887V13.321C12.3812 13.5972 12.1573 13.821 11.8812 13.821H4.96354C4.6874 13.821 4.46354 13.5972 4.46354 13.321V6.67887C4.46354 6.40273 4.6874 6.17887 4.96354 6.17887ZM13.5537 10.8935L13.5537 9.09257L15.9535 7.40646C16.2295 7.21248 16.6097 7.40996 16.6097 7.74739V12.2485C16.6097 12.5865 16.2285 12.7839 15.9525 12.5888L13.5537 10.8935Z" fill="white"/>
</svg>
