<svg width="29" height="29" viewBox="0 0 29 29" fill="none" xmlns="http://www.w3.org/2000/svg">
	<path d="M19.166 21.8496C19.617 21.8496 19.9823 22.2151 19.9824 22.666C19.9824 23.117 19.617 23.4824 19.166 23.4824H9.83301C9.38198 23.4824 9.0166 23.117 9.0166 22.666C9.01669 22.2151 9.38203 21.8496 9.83301 21.8496H19.166ZM5.22754 4.62012C5.54646 4.30118 6.0629 4.30119 6.38184 4.62012L23.2363 21.4736C23.5553 21.7926 23.5553 22.31 23.2363 22.6289C22.9174 22.9474 22.4009 22.9475 22.082 22.6289L19.8301 20.377H7.78223C6.36475 20.377 5.21591 19.228 5.21582 17.8105V8.85547C5.21582 8.01271 5.62175 7.26482 6.24902 6.79688L5.22754 5.77441C4.90863 5.45551 4.90867 4.93905 5.22754 4.62012ZM22.9668 14.1943C23.4178 14.1943 23.7831 14.5598 23.7832 15.0107V17.8105C23.7832 18.3741 23.6018 18.895 23.2939 19.3184L22.0967 18.1221C22.1311 18.0248 22.1504 17.9196 22.1504 17.8105V15.0107C22.1505 14.5599 22.5159 14.1944 22.9668 14.1943ZM7.43945 7.9873C7.0936 8.12395 6.84863 8.46103 6.84863 8.85547V17.8105C6.84872 18.3259 7.26682 18.7441 7.78223 18.7441H18.1963L7.43945 7.9873ZM21.6836 6.28906C22.8434 6.28906 23.7832 7.22887 23.7832 8.38867V10.9824C23.7831 11.4334 23.4178 11.7988 22.9668 11.7988C22.5159 11.7987 22.1505 11.4333 22.1504 10.9824V9.01855L18.7988 12.3691C18.48 12.6878 17.9634 12.6878 17.6445 12.3691C17.3257 12.0502 17.3256 11.5327 17.6445 11.2139L20.9375 7.92188H18.7334C18.2824 7.92188 17.9171 7.55642 17.917 7.10547C17.917 6.65444 18.2824 6.28906 18.7334 6.28906H21.6836ZM14.5 6.28906C14.9508 6.2893 15.3164 6.65458 15.3164 7.10547C15.3163 7.55627 14.9508 7.92163 14.5 7.92188H11.8975L10.2637 6.28906H14.5Z" fill="white"/>
</svg>
