<svg width="20" height="20" viewBox="0 0 20 20" fill="none" xmlns="http://www.w3.org/2000/svg">
<path d="M9.99976 3.58374C13.8792 3.58374 17.2495 6.13531 17.2498 9.53296C17.2498 12.9308 13.8793 15.4832 9.99976 15.4832C9.43305 15.4831 8.88082 15.4299 8.35034 15.3289C7.24929 15.9488 6.17444 16.4428 5.44897 16.7546C4.59844 17.1203 3.84096 16.2605 4.11987 15.4832C4.3089 14.9565 4.53347 14.2671 4.69019 13.5886C3.50398 12.5428 2.74976 11.1214 2.74976 9.53296C2.75002 6.13541 6.1205 3.58388 9.99976 3.58374ZM9.99976 4.74976C6.51586 4.7499 3.91703 7.00325 3.91675 9.53296C3.91675 10.7549 4.50463 11.8937 5.51733 12.7625C5.78249 12.99 5.9361 13.3588 5.85132 13.7419C5.71181 14.3722 5.51799 15.0057 5.3396 15.5291C6.02551 15.2243 6.9202 14.798 7.82495 14.2859C8.03965 14.1644 8.2878 14.1275 8.52222 14.1736C8.99453 14.2666 9.48955 14.3171 9.99976 14.3171C13.484 14.3171 16.0837 12.0629 16.0837 9.53296C16.0835 7.00317 13.4838 4.74976 9.99976 4.74976Z" fill="white"/>
</svg>
