<svg width="24" height="24" viewBox="0 0 24 24" fill="none" xmlns="http://www.w3.org/2000/svg">
<path fill-rule="evenodd" clip-rule="evenodd" d="M5.68299 5.25586L18.0397 17.6125L16.937 18.7152L15.105 16.883L15.0305 16.9174C14.0925 17.3324 13.1228 17.54 12.1215 17.54C9.16072 17.54 6.47663 15.7254 4.06924 12.0962C4.02161 12.0244 4.01366 11.9347 4.04541 11.8569L4.06924 11.8119L4.23376 11.5673C5.05729 10.3603 5.91289 9.36346 6.80051 8.57679L4.58031 6.35853L5.68299 5.25586ZM12.1215 6.36809C15.0823 6.36809 17.7664 8.18267 20.1738 11.8118C20.2215 11.8836 20.2294 11.9734 20.1977 12.0512L20.1738 12.0961L20.0093 12.3408C19.2038 13.5213 18.3677 14.5007 17.501 15.2792L14.8827 12.6604C14.9403 12.4345 14.9709 12.1978 14.9709 11.954C14.9709 10.3803 13.6952 9.10462 12.1215 9.10462C11.8775 9.10462 11.6406 9.1353 11.4145 9.19301L9.21177 6.99104C10.15 6.57574 11.1199 6.36809 12.1215 6.36809ZM9.27213 11.954C9.27213 13.5277 10.5479 14.8034 12.1215 14.8034C12.3963 14.8034 12.6619 14.7646 12.9133 14.692L9.38359 11.1623C9.31103 11.4137 9.27213 11.6793 9.27213 11.954Z" fill="#959CA4"/>
</svg>
