<svg width="18" height="16" viewBox="0 0 18 16" fill="none" xmlns="http://www.w3.org/2000/svg">
<path d="M4 5.2C4 4.8134 4.3134 4.5 4.7 4.5H7.7C8.0866 4.5 8.4 4.8134 8.4 5.2C8.4 5.5866 8.0866 5.9 7.7 5.9H4.7C4.3134 5.9 4 5.5866 4 5.2Z" fill="#0075FF"/>
<path d="M4 8.2C4 7.8134 4.3134 7.5 4.7 7.5H7.7C8.0866 7.5 8.4 7.8134 8.4 8.2C8.4 8.5866 8.0866 8.9 7.7 8.9L4.7 8.9C4.3134 8.9 4 8.5866 4 8.2Z" fill="#0075FF"/>
<path d="M4.7 10.5C4.3134 10.5 4 10.8134 4 11.2C4 11.5866 4.3134 11.9 4.7 11.9L7.7 11.9C8.0866 11.9 8.4 11.5866 8.4 11.2C8.4 10.8134 8.0866 10.5 7.7 10.5H4.7Z" fill="#0075FF"/>
<path d="M13.2004 7C13.587 7 13.9004 7.3134 13.9004 7.7V8.7C13.9004 9.0866 13.587 9.4 13.2004 9.4C12.8138 9.4 12.5004 9.0866 12.5004 8.7V7.7C12.5004 7.3134 12.8138 7 13.2004 7Z" fill="#0075FF"/>
<path d="M13.9004 10.9998C13.9004 10.6132 13.587 10.2998 13.2004 10.2998C12.8138 10.2998 12.5004 10.6132 12.5004 10.9998V11.9998C12.5004 12.3864 12.8138 12.6998 13.2004 12.6998C13.587 12.6998 13.9004 12.3864 13.9004 11.9998V10.9998Z" fill="#0075FF"/>
<path fill-rule="evenodd" clip-rule="evenodd" d="M11.4 4.12668V2.1918C11.4 0.766372 10.0598 -0.270197 8.682 0.0625172L2.68077 1.30517L2.66739 1.30849C1.69014 1.55132 1 2.42584 1 3.43419V14H0.7C0.313401 14 0 14.3134 0 14.7C0 15.0866 0.313401 15.4 0.7 15.4H16.7C17.0866 15.4 17.4 15.0866 17.4 14.7C17.4 14.3134 17.0866 14 16.7 14H16.4V6.52035C16.4 5.70999 15.828 5.01228 15.0334 4.85336L11.4 4.12668ZM9.005 1.42478C9.51557 1.29791 10 1.68242 10 2.1918V14H2.4V3.43419C2.4 3.07812 2.64157 2.76291 2.99369 2.67007L8.99163 1.4281L9.005 1.42478ZM11.4 14H15V6.52035C15 6.37734 14.8991 6.25422 14.7588 6.22617L11.4 5.55441V14Z" fill="#0075FF"/>
</svg>
