<svg width="24" height="24" viewBox="0 0 24 24" fill="none" xmlns="http://www.w3.org/2000/svg">
<path d="M14.4456 3.86704C14.8158 3.97843 15.0257 4.36891 14.9143 4.73911L10.4241 19.6639C10.3126 20.0339 9.92208 20.2439 9.55201 20.1327C9.18193 20.0213 8.97213 19.6307 9.08326 19.2606L13.5745 4.33579C13.6858 3.9657 14.0755 3.75589 14.4456 3.86704ZM7.02271 7.16294C7.25468 6.8537 7.69392 6.79134 8.00318 7.02329C8.31201 7.25529 8.37451 7.69367 8.14283 8.00279L5.14576 11.9999L8.14283 15.996C8.37475 16.3052 8.31231 16.7444 8.00318 16.9764C7.6939 17.2084 7.25467 17.1451 7.02271 16.8358L3.71021 12.4198C3.52361 12.171 3.52374 11.8288 3.71021 11.5799L7.02271 7.16294ZM15.9954 7.02329C16.3046 6.79134 16.7439 6.85367 16.9758 7.16294L20.2883 11.5799C20.4748 11.8288 20.4749 12.171 20.2883 12.4198L16.9758 16.8358C16.7439 17.1451 16.3046 17.2084 15.9954 16.9764C15.6862 16.7444 15.6238 16.3052 15.8557 15.996L18.8528 11.9999L15.8557 8.00279C15.624 7.69365 15.6865 7.25529 15.9954 7.02329Z" fill="#0075FF"/>
</svg>
