<svg width="17" height="17" viewBox="0 0 17 17" fill="none" xmlns="http://www.w3.org/2000/svg">
<path fill-rule="evenodd" clip-rule="evenodd" d="M5.89523 10.1456C5.96152 10.5265 5.70651 10.889 5.32564 10.9553C3.9386 11.1967 3.00926 11.7736 2.40499 12.4852C1.85031 13.1383 1.53642 13.9443 1.42631 14.7997H5.16144C5.54804 14.7997 5.86144 15.1131 5.86144 15.4997C5.86144 15.8863 5.54804 16.1997 5.16144 16.1997H1.18162C0.535734 16.1997 -0.0542876 15.6646 0.00398377 14.9439C0.0997634 13.7592 0.503658 12.5612 1.33788 11.5789C2.17777 10.5899 3.41406 9.86695 5.08555 9.576C5.46642 9.5097 5.82893 9.76471 5.89523 10.1456Z" fill="#0075FF"/>
<path fill-rule="evenodd" clip-rule="evenodd" d="M6.47721 1.53239C6.2009 1.62399 6.00539 1.73106 5.92458 1.79054C5.10059 2.3971 4.67943 3.72679 4.97462 5.07155C5.25852 6.36493 6.06321 7.13821 7.17356 7.13821C7.88496 7.13821 8.40604 6.83743 8.7912 6.34337C9.20162 5.8169 9.46009 5.05324 9.47967 4.23559C9.49928 3.4167 9.27693 2.68043 8.89766 2.18374C8.55126 1.7301 8.02349 1.4 7.17359 1.4C7.00054 1.4 6.74897 1.4423 6.47721 1.53239ZM5.09462 0.663081C2.30136 2.71928 3.22838 8.53821 7.17356 8.53821C11.91 8.53821 12.319 0 7.17359 0C6.44998 0 5.55844 0.321645 5.09462 0.663081Z" fill="#0075FF"/>
<path fill-rule="evenodd" clip-rule="evenodd" d="M11.6868 8.71797C11.9268 8.71797 12.15 8.84091 12.2783 9.04373L13.6448 11.2037L15.6086 10.7943C15.8329 10.7475 16.0659 10.8135 16.2324 10.9709C16.3989 11.1284 16.4778 11.3573 16.4436 11.5839L15.8307 15.6486C15.779 15.9911 15.4848 16.2443 15.1385 16.2442L8.19991 16.2441C7.85138 16.2441 7.55596 15.9877 7.5069 15.6426L6.92904 11.5781C6.89693 11.3522 6.97687 11.1249 7.14326 10.9689C7.30966 10.8129 7.54163 10.7477 7.76493 10.7943L9.72874 11.2037L11.0952 9.04373C11.2235 8.84091 11.4468 8.71797 11.6868 8.71797ZM11.6868 10.7273L10.6524 12.3622C10.4964 12.6089 10.2037 12.7328 9.91802 12.6733L8.45547 12.3683L8.80745 14.8441L14.5361 14.8442L14.9092 12.3702L13.4555 12.6733C13.1698 12.7328 12.8771 12.6089 12.7211 12.3622L11.6868 10.7273Z" fill="#0075FF"/>
</svg>
