<svg width="15" height="17" viewBox="0 0 15 17" fill="none" xmlns="http://www.w3.org/2000/svg">
<path fill-rule="evenodd" clip-rule="evenodd" d="M5.09648 0.668122C5.0635 0.6914 5.03302 0.717149 5.00517 0.74498C3.64139 1.82083 3.19348 3.78985 3.56641 5.48998C3.9532 7.24189 5.20189 8.74 7.23016 8.74C8.4415 8.74 9.38871 8.19784 10.0308 7.37226C10.6806 6.55226 11.0174 5.45795 11.04 4.37458C11.0626 3.29081 10.7719 2.19673 10.1471 1.37602L10.145 1.3732C9.51473 0.553864 8.55114 0 7.23016 0C6.86185 0 6.44765 0.0766154 6.06175 0.204939C5.66675 0.333031 5.33215 0.501764 5.09648 0.668122ZM6.50152 1.53408C6.77477 1.44299 7.0394 1.4 7.23016 1.4C8.1083 1.4 8.66448 1.74545 9.03423 2.22538C9.42885 2.74464 9.65771 3.50993 9.64031 4.34542C9.62291 5.1807 9.36053 5.96502 8.93198 6.50468L8.92717 6.51081C8.52926 7.0235 7.97731 7.34 7.23016 7.34C6.05855 7.34 5.2271 6.51737 4.93379 5.18954C4.63492 3.82625 5.05946 2.44358 5.92623 1.80292C5.94008 1.79269 5.95346 1.78201 5.96638 1.77092C6.08042 1.70098 6.26084 1.61197 6.49563 1.53601L6.50152 1.53408Z" fill="#0075FF"/>
<path fill-rule="evenodd" clip-rule="evenodd" d="M7.24 9.53027C5.69711 9.53027 3.98491 9.77919 2.60131 10.5855C1.17476 11.4168 0.147883 12.815 0.00163275 14.9525L0 15.0003C0 15.663 0.537258 16.2003 1.2 16.2003H13.27C13.9327 16.2003 14.47 15.663 14.47 15.0003L14.4684 14.9525C14.3222 12.8159 13.2986 11.4175 11.8742 10.5858C10.4929 9.77918 8.78288 9.53027 7.24 9.53027ZM13.0494 14.8003H1.4206C1.58973 13.2864 2.32278 12.3681 3.30619 11.7951C4.38509 11.1664 5.81289 10.9303 7.24 10.9303C8.66712 10.9303 10.0921 11.1664 11.1683 11.7948C12.1491 12.3675 12.8804 13.2856 13.0494 14.8003Z" fill="#0075FF"/>
</svg>
