<svg width="20" height="20" viewBox="0 0 20 20" fill="none" xmlns="http://www.w3.org/2000/svg">
<path d="M9.02246 3.26184C12.1545 3.26189 14.6932 5.80073 14.6934 8.93274C14.6934 10.3115 14.2018 11.5758 13.3838 12.5587L16.6631 15.837C16.8907 16.0647 16.8906 16.4344 16.6631 16.6622C16.4353 16.89 16.0657 16.89 15.8379 16.6622L12.5498 13.3741C11.5816 14.1441 10.3556 14.6046 9.02246 14.6046C5.89029 14.6046 3.35059 12.0649 3.35059 8.93274C3.35074 5.8007 5.89038 3.26184 9.02246 3.26184ZM9.02246 4.42883C6.53472 4.42883 4.51773 6.44503 4.51758 8.93274C4.51758 11.4206 6.53462 13.4376 9.02246 13.4376C11.5103 13.4376 13.5273 11.4205 13.5273 8.93274C13.5272 6.44506 11.5102 4.42888 9.02246 4.42883Z" fill="#C9CCD0"/>
</svg>
