<svg width="20" height="20" viewBox="0 0 20 20" fill="none" xmlns="http://www.w3.org/2000/svg">
<g opacity="0.5">
<path d="M11.6338 6.05042C12.8762 6.05063 13.8837 7.05798 13.8838 8.30042V14.399C13.8838 15.6416 12.8762 16.6488 11.6338 16.649H5.53516C4.29252 16.649 3.28516 15.6417 3.28516 14.399V8.30042C3.28524 7.05785 4.29257 6.05042 5.53516 6.05042H11.6338ZM5.53516 7.21741C4.9369 7.21741 4.45126 7.70218 4.45117 8.30042V14.399C4.45117 14.9974 4.93685 15.4821 5.53516 15.4821H11.6338C12.2319 15.4818 12.7168 14.9972 12.7168 14.399V8.30042C12.7167 7.70232 12.2319 7.21763 11.6338 7.21741H5.53516ZM14.3428 3.24963C15.5854 3.24963 16.5928 4.25699 16.5928 5.49963V11.5983C16.5927 12.4217 16.1503 13.1417 15.4902 13.5338C15.1412 13.7411 14.7627 13.4329 14.7627 13.027C14.7629 12.7665 14.9337 12.543 15.1162 12.3571C15.3079 12.1617 15.4257 11.8936 15.4258 11.5983V5.49963C15.4258 4.90133 14.9411 4.41663 14.3428 4.41663H8.24414C7.94786 4.41663 7.67898 4.53542 7.4834 4.72815C7.29741 4.91136 7.07353 5.08256 6.8125 5.08264C6.40735 5.08264 6.09977 4.70589 6.30566 4.35706C6.69716 3.69432 7.41866 3.24964 8.24414 3.24963H14.3428Z" fill="#525C69"/>
</g>
</svg>
