<svg width="115" height="93" viewBox="0 0 115 93" fill="none" xmlns="http://www.w3.org/2000/svg">
	<path d="M57.5586 2.99805C82.4114 2.99805 102.559 23.1452 102.559 47.998C102.558 72.8507 82.4113 92.998 57.5586 92.998C32.7059 92.998 12.5587 72.8507 12.5586 47.998C12.5586 23.1452 32.7058 2.99805 57.5586 2.99805ZM6.13574 78.3467C7.44523 78.3483 8.60207 79.0217 9.29688 80.0488C9.62674 79.9287 9.98164 79.8631 10.3516 79.8633C11.9861 79.8653 13.3287 81.1457 13.4844 82.7832C15.0506 83.1341 16.2231 84.5687 16.2217 86.2832C16.2198 88.2586 14.6605 89.859 12.7383 89.8584C12.6709 89.8584 12.6035 89.8564 12.5371 89.8525H3.78906C3.71421 89.8525 3.63987 89.8493 3.56641 89.8438C1.58944 89.7975 0.000308602 88.1364 0 86.0938C0.000574804 85.0981 0.386791 84.1431 1.07227 83.4395C1.4236 83.0789 1.83908 82.799 2.29102 82.6123C2.28346 82.5111 2.2793 82.4089 2.2793 82.3057C2.27992 81.2551 2.68687 80.2473 3.41016 79.5049C4.13333 78.7627 5.11373 78.3461 6.13574 78.3467ZM99.4404 81.043C100.885 81.0434 102.056 82.2154 102.057 83.6602C102.056 85.1049 100.885 86.276 99.4404 86.2764C97.9954 86.2764 96.8235 85.1051 96.8232 83.6602C96.8234 82.2152 97.9954 81.043 99.4404 81.043ZM99.4404 82.4053C98.7475 82.4053 98.1848 82.9673 98.1846 83.6602C98.1848 84.353 98.7475 84.915 99.4404 84.915C100.133 84.9146 100.695 84.3528 100.695 83.6602C100.695 82.9675 100.133 82.4057 99.4404 82.4053ZM6.12793 32.6797C8.15763 32.6798 9.80371 34.3257 9.80371 36.3555C9.80354 38.3851 8.15753 40.0301 6.12793 40.0303C4.09831 40.0302 2.45329 38.3851 2.45312 36.3555C2.45312 34.3257 4.09821 32.6798 6.12793 32.6797ZM6.12793 34.5977C5.15757 34.5978 4.37109 35.3851 4.37109 36.3555C4.37126 37.3257 5.15767 38.1122 6.12793 38.1123C7.09817 38.1122 7.88557 37.3257 7.88574 36.3555C7.88574 35.3851 7.09827 34.5978 6.12793 34.5977ZM106.913 12.416C107.842 12.4172 108.663 12.8769 109.156 13.5771C109.39 13.4953 109.642 13.4501 109.904 13.4502C111.064 13.4516 112.017 14.3249 112.128 15.4414C113.239 15.6807 114.071 16.6583 114.07 17.8271C114.069 19.1743 112.962 20.2662 111.598 20.2656C111.55 20.2656 111.502 20.2634 111.455 20.2607H105.247C105.194 20.2607 105.141 20.2597 105.089 20.2559C103.686 20.2241 102.559 19.0909 102.559 17.6982C102.559 17.0194 102.833 16.3684 103.319 15.8887C103.569 15.643 103.863 15.4525 104.184 15.3252C104.178 15.2561 104.176 15.1857 104.176 15.1152C104.176 14.3991 104.465 13.7122 104.979 13.2061C105.492 12.7 106.188 12.4156 106.913 12.416ZM19.9912 7.93359C21.498 7.93379 22.7195 9.15535 22.7197 10.6621C22.7196 12.1689 21.498 13.3914 19.9912 13.3916C18.4842 13.3916 17.2628 12.1691 17.2627 10.6621C17.2629 9.15523 18.4843 7.9336 19.9912 7.93359ZM19.9912 9.45508C19.3246 9.45508 18.7844 9.9955 18.7842 10.6621C18.7843 11.3288 19.3245 11.8701 19.9912 11.8701C20.6577 11.8699 21.1981 11.3287 21.1982 10.6621C21.198 9.99562 20.6577 9.45528 19.9912 9.45508ZM82.1045 0C82.7995 0.000263831 83.3633 0.563763 83.3633 1.25879C83.3632 1.95377 82.7994 2.51731 82.1045 2.51758C81.4093 2.51757 80.8458 1.95393 80.8457 1.25879C80.8457 0.563606 81.4093 8.24681e-06 82.1045 0Z" fill="#E5F9FF"/>
	<path opacity="0.3" d="M50.2561 27.9582C50.7836 25.7073 53.037 24.3055 55.2892 24.8272L81.1764 30.8237C83.4286 31.3454 84.8268 33.5931 84.2993 35.844L76.336 69.8258C75.8085 72.0767 73.5551 73.4785 71.3028 72.9568L45.4157 66.9603C43.1635 66.4386 41.7653 64.191 42.2928 61.9401L50.2561 27.9582Z" fill="white"/>
	<path opacity="0.3" fill-rule="evenodd" clip-rule="evenodd" d="M55.2296 25.0819C55.0601 25.0427 54.8907 25.015 54.7223 24.9985L54.7748 24.478C54.9656 24.4968 55.1574 24.5281 55.3489 24.5725L55.8468 24.6878L55.7274 25.1972L55.2296 25.0819ZM57.7187 25.6585L56.723 25.4279L56.8424 24.9184L57.8381 25.1491L57.7187 25.6585ZM59.71 26.1198L58.7144 25.8891L58.8337 25.3797L59.8294 25.6103L59.71 26.1198ZM61.7013 26.581L60.7057 26.3504L60.8251 25.841L61.8207 26.0716L61.7013 26.581ZM63.6926 27.0423L62.697 26.8117L62.8164 26.3022L63.812 26.5329L63.6926 27.0423ZM65.684 27.5036L64.6883 27.2729L64.8077 26.7635L65.8033 26.9941L65.684 27.5036ZM67.6753 27.9648L66.6796 27.7342L66.799 27.2248L67.7947 27.4554L67.6753 27.9648ZM69.6666 28.4261L68.6709 28.1955L68.7903 27.686L69.786 27.9167L69.6666 28.4261ZM71.6579 28.8874L70.6622 28.6567L70.7816 28.1473L71.7773 28.3779L71.6579 28.8874ZM73.6492 29.3486L72.6536 29.118L72.773 28.6086L73.7686 28.8392L73.6492 29.3486ZM75.6405 29.8099L74.6449 29.5793L74.7643 29.0698L75.7599 29.3005L75.6405 29.8099ZM77.6319 30.2712L76.6362 30.0405L76.7556 29.5311L77.7512 29.7617L77.6319 30.2712ZM79.6232 30.7324L78.6275 30.5018L78.7469 29.9924L79.7426 30.223L79.6232 30.7324ZM81.1167 31.0784L80.6188 30.9631L80.7382 30.4536L81.236 30.5689C81.4276 30.6133 81.6135 30.6695 81.7931 30.7365L81.6087 31.2264C81.4503 31.1673 81.2861 31.1177 81.1167 31.0784ZM83.2591 32.4068C83.0433 32.1437 82.7926 31.9079 82.5121 31.7072L82.8177 31.2818C83.1359 31.5095 83.4199 31.7768 83.6643 32.0748L83.2591 32.4068ZM53.6982 25.0328C53.3574 25.0896 53.0278 25.1909 52.7172 25.3321L52.5013 24.8562C52.853 24.6963 53.2266 24.5814 53.6132 24.5169L53.6982 25.0328ZM84.0972 34.2552C84.0411 33.9149 83.9404 33.5858 83.7998 33.276L84.2767 33.0592C84.436 33.4102 84.5502 33.7831 84.6138 34.1691L84.0972 34.2552ZM51.8458 25.8742C51.5819 26.0904 51.3453 26.3412 51.1437 26.6219L50.7186 26.3177C50.9472 25.9993 51.2155 25.715 51.5143 25.4701L51.8458 25.8742ZM84.0445 35.7849C84.0841 35.6155 84.1122 35.4463 84.1291 35.2781L84.6501 35.3292C84.6308 35.52 84.5991 35.7115 84.5542 35.903L84.4371 36.4027L83.9273 36.2846L84.0445 35.7849ZM50.6603 27.5254C50.6007 27.6837 50.5507 27.8479 50.511 28.0172L50.3939 28.517L49.8841 28.3989L50.0012 27.8992C50.0461 27.7077 50.1027 27.5219 50.1703 27.3424L50.6603 27.5254ZM83.4589 38.2836L83.6931 37.2841L84.2029 37.4022L83.9687 38.4017L83.4589 38.2836ZM50.1596 29.5164L49.9254 30.5159L49.4157 30.3978L49.6499 29.3984L50.1596 29.5164ZM82.9905 40.2825L83.2247 39.283L83.7345 39.4011L83.5002 40.4006L82.9905 40.2825ZM49.6912 31.5154L49.457 32.5148L48.9472 32.3968L49.1815 31.3973L49.6912 31.5154ZM82.5221 42.2814L82.7563 41.282L83.266 41.4001L83.0318 42.3995L82.5221 42.2814ZM49.2228 33.5143L48.9886 34.5138L48.4788 34.3957L48.713 33.3962L49.2228 33.5143ZM82.0536 44.2804L82.2878 43.2809L82.7976 43.399L82.5634 44.3985L82.0536 44.2804ZM48.7543 35.5132L48.5201 36.5127L48.0104 36.3946L48.2446 35.3952L48.7543 35.5132ZM81.5852 46.2793L81.8194 45.2798L82.3292 45.3979L82.0949 46.3974L81.5852 46.2793ZM48.2859 37.5122L48.0517 38.5116L47.5419 38.3936L47.7762 37.3941L48.2859 37.5122ZM81.1168 48.2782L81.351 47.2788L81.8607 47.3969L81.6265 48.3963L81.1168 48.2782ZM47.8175 39.5111L47.5833 40.5106L47.0735 40.3925L47.3077 39.393L47.8175 39.5111ZM80.6483 50.2772L80.8825 49.2777L81.3923 49.3958L81.1581 50.3953L80.6483 50.2772ZM47.3491 41.51L47.1148 42.5095L46.6051 42.3914L46.8393 41.392L47.3491 41.51ZM80.1799 52.2761L80.4141 51.2766L80.9239 51.3947L80.6897 52.3942L80.1799 52.2761ZM46.8806 43.509L46.6464 44.5084L46.1366 44.3904L46.3709 43.3909L46.8806 43.509ZM79.7115 54.275L79.9457 53.2756L80.4554 53.3937L80.2212 54.3931L79.7115 54.275ZM46.4122 45.5079L46.178 46.5074L45.6682 46.3893L45.9024 45.3898L46.4122 45.5079ZM79.243 56.274L79.4772 55.2745L79.987 55.3926L79.7528 56.3921L79.243 56.274ZM45.9438 47.5068L45.7095 48.5063L45.1998 48.3882L45.434 47.3888L45.9438 47.5068ZM78.7746 58.2729L79.0088 57.2734L79.5186 57.3915L79.2844 58.391L78.7746 58.2729ZM45.4753 49.5058L45.2411 50.5052L44.7314 50.3872L44.9656 49.3877L45.4753 49.5058ZM78.3062 60.2718L78.5404 59.2724L79.0501 59.3905L78.8159 60.3899L78.3062 60.2718ZM45.0069 51.5047L44.7727 52.5042L44.2629 52.3861L44.4971 51.3866L45.0069 51.5047ZM77.8377 62.2708L78.072 61.2713L78.5817 61.3894L78.3475 62.3889L77.8377 62.2708ZM44.5385 53.5036L44.3042 54.5031L43.7945 54.385L44.0287 53.3856L44.5385 53.5036ZM77.3693 64.2697L77.6035 63.2702L78.1133 63.3883L77.8791 64.3878L77.3693 64.2697ZM44.07 55.5026L43.8358 56.502L43.3261 56.384L43.5603 55.3845L44.07 55.5026ZM76.9009 66.2686L77.1351 65.2692L77.6448 65.3873L77.4106 66.3867L76.9009 66.2686ZM43.6016 57.5015L43.3674 58.501L42.8576 58.3829L43.0918 57.3834L43.6016 57.5015ZM76.4324 68.2676L76.6667 67.2681L77.1764 67.3862L76.9422 68.3857L76.4324 68.2676ZM43.1332 59.5004L42.899 60.4999L42.3892 60.3818L42.6234 59.3823L43.1332 59.5004ZM76.0811 69.7668L76.1982 69.267L76.708 69.3851L76.5909 69.8849C76.546 70.0763 76.4893 70.2621 76.4218 70.4416L75.9318 70.2587C75.9914 70.1003 76.0414 69.9361 76.0811 69.7668ZM42.6647 61.4994L42.5476 61.9991C42.5079 62.1685 42.4799 62.3377 42.4629 62.506L41.942 62.4548C41.9612 62.264 41.993 62.0725 42.0379 61.881L42.155 61.3813L42.6647 61.4994ZM74.7463 71.9098C75.0102 71.6936 75.2468 71.4428 75.4484 71.1621L75.8735 71.4663C75.6449 71.7847 75.3766 72.069 75.0777 72.3139L74.7463 71.9098ZM42.4949 63.5288C42.551 63.8691 42.6517 64.1982 42.7923 64.508L42.3154 64.7248C42.1561 64.3738 42.0419 64.0009 41.9783 63.6149L42.4949 63.5288ZM72.8939 72.7512C73.2347 72.6944 73.5643 72.5931 73.8748 72.4519L74.0908 72.9278C73.7391 73.0877 73.3655 73.2026 72.9788 73.2671L72.8939 72.7512ZM43.333 65.3772C43.5488 65.6403 43.7994 65.8761 44.0799 66.0768L43.7744 66.5022C43.4562 66.2745 43.1722 66.0072 42.9278 65.7092L43.333 65.3772ZM44.9833 66.5576C45.1418 66.6167 45.306 66.6663 45.4754 66.7056L45.9733 66.8209L45.8539 67.3304L45.356 67.2151C45.1645 67.1707 44.9786 67.1145 44.799 67.0475L44.9833 66.5576ZM71.3625 72.7021C71.532 72.7413 71.7014 72.769 71.8698 72.7855L71.8173 73.306C71.6264 73.2872 71.4347 73.2559 71.2431 73.2115L70.7453 73.0962L70.8647 72.5868L71.3625 72.7021ZM46.9689 67.0516L47.9646 67.2822L47.8452 67.7916L46.8495 67.561L46.9689 67.0516ZM48.9602 67.5128L49.9559 67.7435L49.8365 68.2529L48.8408 68.0223L48.9602 67.5128ZM50.9515 67.9741L51.9472 68.2047L51.8278 68.7142L50.8322 68.4835L50.9515 67.9741ZM52.9429 68.4354L53.9385 68.666L53.8191 69.1754L52.8235 68.9448L52.9429 68.4354ZM54.9342 68.8966L55.9298 69.1273L55.8104 69.6367L54.8148 69.4061L54.9342 68.8966ZM56.9255 69.3579L57.9212 69.5885L57.8018 70.098L56.8061 69.8673L56.9255 69.3579ZM58.9168 69.8192L59.9125 70.0498L59.7931 70.5592L58.7974 70.3286L58.9168 69.8192ZM60.9081 70.2804L61.9038 70.5111L61.7844 71.0205L60.7887 70.7899L60.9081 70.2804ZM62.8994 70.7417L63.8951 70.9723L63.7757 71.4818L62.7801 71.2512L62.8994 70.7417ZM64.8908 71.203L65.8864 71.4336L65.767 71.9431L64.7714 71.7124L64.8908 71.203ZM66.8821 71.6642L67.8777 71.8949L67.7583 72.4043L66.7627 72.1737L66.8821 71.6642ZM68.8734 72.1255L69.869 72.3561L69.7497 72.8656L68.754 72.635L68.8734 72.1255Z" fill="#2FC6F6"/>
	<path opacity="0.3" d="M30.9154 45.763C30.3137 43.5308 31.637 41.2387 33.871 40.6436L59.545 33.804C61.779 33.2089 64.0777 34.536 64.6793 36.7683L72.6109 66.1984C73.2125 68.4306 71.8892 70.7226 69.6552 71.3178L43.9812 78.1573C41.7473 78.7525 39.4486 77.4253 38.847 75.1931L30.9154 45.763Z" fill="white"/>
	<path opacity="0.3" fill-rule="evenodd" clip-rule="evenodd" d="M33.9391 40.8962C33.771 40.941 33.6085 40.996 33.4521 41.0603L33.2517 40.5767C33.4289 40.5038 33.6129 40.4416 33.8029 40.391L34.2966 40.2595L34.4328 40.7647L33.9391 40.8962ZM36.4077 40.2386L35.4203 40.5016L35.2841 39.9964L36.2716 39.7333L36.4077 40.2386ZM38.3826 39.7124L37.3952 39.9755L37.259 39.4703L38.2465 39.2072L38.3826 39.7124ZM40.3576 39.1863L39.3701 39.4494L39.2339 38.9442L40.2214 38.6811L40.3576 39.1863ZM42.3325 38.6602L41.345 38.9233L41.2089 38.418L42.1963 38.155L42.3325 38.6602ZM44.3074 38.1341L43.32 38.3971L43.1838 37.8919L44.1713 37.6289L44.3074 38.1341ZM46.2823 37.608L45.2949 37.871L45.1587 37.3658L46.1462 37.1027L46.2823 37.608ZM48.2573 37.0818L47.2698 37.3449L47.1336 36.8397L48.1211 36.5766L48.2573 37.0818ZM50.2322 36.5557L49.2447 36.8188L49.1086 36.3136L50.096 36.0505L50.2322 36.5557ZM52.2071 36.0296L51.2197 36.2927L51.0835 35.7874L52.071 35.5244L52.2071 36.0296ZM54.182 35.5035L53.1946 35.7665L53.0584 35.2613L54.0459 34.9983L54.182 35.5035ZM56.157 34.9774L55.1695 35.2404L55.0333 34.7352L56.0208 34.4721L56.157 34.9774ZM58.1319 34.4512L57.1444 34.7143L57.0083 34.2091L57.9957 33.946L58.1319 34.4512ZM59.6131 34.0567L59.1193 34.1882L58.9832 33.683L59.4769 33.5514C59.6669 33.5008 59.8575 33.4633 60.0477 33.4383L60.1173 33.9567C59.9495 33.9787 59.7812 34.0119 59.6131 34.0567ZM32.565 41.5703C32.2913 41.7801 32.0486 42.024 31.8416 42.2939L31.4255 41.9754C31.66 41.6696 31.9351 41.3932 32.2456 41.1552L32.565 41.5703ZM62.1325 34.2244C61.8175 34.0935 61.4846 34.003 61.1421 33.9574L61.21 33.4391C61.5985 33.4908 61.9758 33.5935 62.3326 33.7417L62.1325 34.2244ZM31.3298 43.1803C31.1995 43.4946 31.1097 43.8267 31.0649 44.1686L30.5457 44.0995C30.5965 43.7117 30.6983 43.3352 30.8459 42.9793L31.3298 43.1803ZM63.7479 35.4619C63.5371 35.188 63.2923 34.945 63.0215 34.7376L63.3394 34.323C63.6462 34.5579 63.9237 34.8333 64.1628 35.1439L63.7479 35.4619ZM64.4265 36.8356C64.3812 36.6677 64.3257 36.5053 64.2609 36.349L64.7447 36.15C64.8181 36.3272 64.8809 36.5111 64.9321 36.7009L65.0643 37.1914L64.5587 37.3261L64.4265 36.8356ZM31.0667 45.1919C31.0892 45.3595 31.1229 45.5277 31.1681 45.6957L31.3003 46.1862L30.7947 46.3209L30.6625 45.8304C30.6113 45.6405 30.5733 45.4501 30.5477 45.2601L31.0667 45.1919ZM65.0874 39.2881L64.823 38.3071L65.3287 38.1724L65.593 39.1534L65.0874 39.2881ZM31.5647 47.1672L31.8291 48.1482L31.3235 48.2829L31.0591 47.3019L31.5647 47.1672ZM65.6162 41.2502L65.3518 40.2691L65.8574 40.1345L66.1218 41.1155L65.6162 41.2502ZM32.0935 49.1292L32.3579 50.1102L31.8523 50.2449L31.5879 49.2639L32.0935 49.1292ZM66.145 43.2122L65.8806 42.2312L66.3862 42.0965L66.6506 43.0775L66.145 43.2122ZM32.6223 51.0912L32.8867 52.0722L32.381 52.2069L32.1166 51.2259L32.6223 51.0912ZM66.6737 45.1742L66.4094 44.1932L66.915 44.0585L67.1794 45.0395L66.6737 45.1742ZM33.151 53.0532L33.4154 54.0342L32.9098 54.1689L32.6454 53.1879L33.151 53.0532ZM67.2025 47.1362L66.9381 46.1552L67.4438 46.0205L67.7081 47.0015L67.2025 47.1362ZM33.6798 55.0152L33.9442 55.9962L33.4386 56.1309L33.1742 55.1499L33.6798 55.0152ZM67.7313 49.0982L67.4669 48.1172L67.9725 47.9825L68.2369 48.9635L67.7313 49.0982ZM34.2086 56.9772L34.473 57.9582L33.9674 58.0929L33.703 57.1119L34.2086 56.9772ZM68.2601 51.0602L67.9957 50.0792L68.5013 49.9445L68.7657 50.9255L68.2601 51.0602ZM34.7374 58.9392L35.0017 59.9202L34.4961 60.0549L34.2317 59.0739L34.7374 58.9392ZM68.7888 53.0222L68.5245 52.0412L69.0301 51.9065L69.2945 52.8875L68.7888 53.0222ZM35.2661 60.9012L35.5305 61.8822L35.0249 62.0169L34.7605 61.0359L35.2661 60.9012ZM69.3176 54.9842L69.0532 54.0032L69.5589 53.8685L69.8232 54.8495L69.3176 54.9842ZM35.7949 62.8632L36.0593 63.8442L35.5537 63.9789L35.2893 62.9979L35.7949 62.8632ZM69.8464 56.9462L69.582 55.9652L70.0876 55.8305L70.352 56.8115L69.8464 56.9462ZM36.3237 64.8252L36.5881 65.8062L36.0825 65.9409L35.8181 64.9599L36.3237 64.8252ZM70.3752 58.9082L70.1108 57.9272L70.6164 57.7925L70.8808 58.7735L70.3752 58.9082ZM36.8525 66.7872L37.1168 67.7682L36.6112 67.9029L36.3468 66.9219L36.8525 66.7872ZM70.9039 60.8702L70.6396 59.8892L71.1452 59.7545L71.4096 60.7355L70.9039 60.8702ZM37.3812 68.7493L37.6456 69.7303L37.14 69.865L36.8756 68.8839L37.3812 68.7493ZM71.4327 62.8322L71.1683 61.8512L71.674 61.7165L71.9383 62.6975L71.4327 62.8322ZM37.91 70.7113L38.1744 71.6923L37.6688 71.827L37.4044 70.846L37.91 70.7113ZM71.9615 64.7942L71.6971 63.8132L72.2027 63.6785L72.4671 64.6595L71.9615 64.7942ZM38.4388 72.6733L38.7032 73.6543L38.1975 73.789L37.9332 72.808L38.4388 72.6733ZM72.3581 66.2657L72.2259 65.7752L72.7315 65.6405L72.8637 66.131C72.9149 66.3209 72.953 66.5113 72.9785 66.7013L72.4595 66.7695C72.437 66.6019 72.4033 66.4337 72.3581 66.2657ZM38.9676 74.6353L39.0998 75.1258C39.145 75.2937 39.2005 75.4561 39.2653 75.6125L38.7815 75.8114C38.7081 75.6342 38.6453 75.4503 38.5941 75.2605L38.4619 74.77L38.9676 74.6353ZM72.1964 68.7811C72.3267 68.4668 72.4165 68.1347 72.4613 67.7928L72.9805 67.8619C72.9297 68.2498 72.8279 68.6262 72.6803 68.9821L72.1964 68.7811ZM39.7783 76.4995C39.9891 76.7734 40.2339 77.0164 40.5048 77.2238L40.1868 77.6384C39.88 77.4035 39.6025 77.1281 39.3634 76.8175L39.7783 76.4995ZM41.3937 77.737C41.7088 77.8679 42.0416 77.9584 42.3841 78.004L42.3162 78.5223C41.9277 78.4706 41.5504 78.3679 41.1936 78.2197L41.3937 77.737ZM70.9612 70.3911C71.2349 70.1813 71.4776 69.9375 71.6847 69.6675L72.1007 69.986C71.8662 70.2918 71.5912 70.5682 71.2807 70.8062L70.9612 70.3911ZM43.4089 78.0047C43.5767 77.9827 43.745 77.9495 43.9131 77.9048L44.4069 77.7732L44.543 78.2785L44.0493 78.41C43.8593 78.4606 43.6687 78.4982 43.4785 78.5232L43.4089 78.0047ZM69.5871 71.0652C69.7552 71.0204 69.9177 70.9654 70.0741 70.9011L70.2745 71.3847C70.0973 71.4576 69.9133 71.5198 69.7233 71.5704L69.2296 71.7019L69.0934 71.1967L69.5871 71.0652ZM45.3943 77.5102L46.3818 77.2471L46.518 77.7523L45.5305 78.0154L45.3943 77.5102ZM47.3693 76.984L48.3567 76.721L48.4929 77.2262L47.5054 77.4893L47.3693 76.984ZM49.3442 76.4579L50.3316 76.1949L50.4678 76.7001L49.4803 76.9632L49.3442 76.4579ZM51.3191 75.9318L52.3066 75.6687L52.4427 76.174L51.4553 76.437L51.3191 75.9318ZM53.294 75.4057L54.2815 75.1426L54.4176 75.6479L53.4302 75.9109L53.294 75.4057ZM55.2689 74.8796L56.2564 74.6165L56.3926 75.1217L55.4051 75.3848L55.2689 74.8796ZM57.2439 74.3534L58.2313 74.0904L58.3675 74.5956L57.38 74.8587L57.2439 74.3534ZM59.2188 73.8273L60.2063 73.5643L60.3424 74.0695L59.355 74.3326L59.2188 73.8273ZM61.1937 73.3012L62.1812 73.0381L62.3173 73.5434L61.3299 73.8064L61.1937 73.3012ZM63.1686 72.7751L64.1561 72.512L64.2923 73.0172L63.3048 73.2803L63.1686 72.7751ZM65.1436 72.249L66.131 71.9859L66.2672 72.4911L65.2797 72.7542L65.1436 72.249ZM67.1185 71.7228L68.1059 71.4598L68.2421 71.965L67.2546 72.2281L67.1185 71.7228Z" fill="#2FC6F6"/>
	<g opacity="0.8" filter="url(#filter0_d_1348_72916)">
		<path d="M36.6283 27.0221C36.6283 25.2882 38.0339 23.8825 39.7678 23.8825H75.3492C77.0831 23.8825 78.4888 25.2882 78.4888 27.0221V72.7661C78.4888 74.5 77.0831 75.9057 75.3492 75.9057H39.7678C38.0339 75.9057 36.6283 74.5 36.6283 72.7661V27.0221Z" fill="#2FC6F6"/>
	</g>
	<path d="M37.6748 25.9756C37.6748 24.8196 38.6119 23.8825 39.7678 23.8825H75.3492C76.5052 23.8825 77.4422 24.8196 77.4422 25.9756V72.7722C77.4422 73.9281 76.5052 74.8652 75.3492 74.8652H39.7678C38.6119 74.8652 37.6748 73.9281 37.6748 72.7722V25.9756Z" fill="#ECFAFE"/>
	<g filter="url(#filter1_d_1348_72916)">
		<path d="M37.6748 25.9756C37.6748 24.8196 38.6119 23.8825 39.7678 23.8825H75.3492C76.5052 23.8825 77.4422 24.8196 77.4422 25.9756V70.6912C77.4422 71.8472 76.5052 72.7843 75.3492 72.7843H39.7678C38.6119 72.7843 37.6748 71.8472 37.6748 70.6912V25.9756Z" fill="white"/>
	</g>
	<path opacity="0.6" d="M73.7795 60.6223C73.7795 65.8241 69.5626 70.0409 64.3609 70.0409C59.1591 70.0409 54.9423 65.8241 54.9423 60.6223C54.9423 55.4206 59.1591 51.2037 64.3609 51.2037C69.5626 51.2037 73.7795 55.4206 73.7795 60.6223ZM60.7818 60.6223C60.7818 62.599 62.3842 64.2014 64.3609 64.2014C66.3375 64.2014 67.9399 62.599 67.9399 60.6223C67.9399 58.6457 66.3375 57.0433 64.3609 57.0433C62.3842 57.0433 60.7818 58.6457 60.7818 60.6223Z" fill="#E5F9FF"/>
	<path d="M56.5058 63.4583C55.9663 63.6578 55.6837 64.2586 55.9372 64.775C56.418 65.7542 57.0639 66.6444 57.8485 67.4045C58.8816 68.4054 60.1276 69.1541 61.4912 69.5933C62.8548 70.0325 64.2997 70.1506 65.7154 69.9384C67.1311 69.7263 68.48 69.2297 69.6588 68.4095L66.4212 63.5657C65.9732 63.8773 65.4004 64.0445 64.8624 64.1251C64.3245 64.2058 63.7754 64.1609 63.2572 63.994C62.7391 63.8271 62.2656 63.5426 61.873 63.1622C61.7331 63.0267 61.6048 62.8803 61.4892 62.7246C61.1428 62.2584 60.5488 61.9637 60.0041 62.165L56.5058 63.4583Z" fill="#D3F4FF"/>
	<path d="M69.3523 68.6096C70.7907 67.7107 71.9597 66.44 72.7358 64.9318C73.5118 63.4236 73.8662 61.7337 73.7615 60.0408L67.9331 60.4014C67.9729 61.0447 67.8382 61.6868 67.5433 62.2599C67.2484 62.8331 66.8042 63.3159 66.2576 63.6575L69.3523 68.6096Z" fill="#7FDEFC"/>
	<path d="M69.3523 68.6096C70.7907 67.7107 71.9597 66.44 72.7358 64.9318C73.5118 63.4236 73.8662 61.7337 73.7615 60.0408L67.9331 60.4014C67.9729 61.0447 67.8382 61.6868 67.5433 62.2599C67.2484 62.8331 66.8042 63.3159 66.2576 63.6575L69.3523 68.6096Z" fill="white" fill-opacity="0.4"/>
	<path d="M73.7794 60.6223C73.7794 59.3855 73.5358 58.1607 73.0625 57.018C72.5892 55.8753 71.8954 54.837 71.0208 53.9624C70.1462 53.0878 69.1079 52.394 67.9652 51.9207C67.1455 51.5811 66.2835 51.3598 65.4052 51.2618C64.8308 51.1977 64.3608 51.6723 64.3608 52.2502L64.3608 55.9967C64.3608 56.5747 64.8391 57.0286 65.3925 57.1952C65.5069 57.2296 65.6197 57.2698 65.7305 57.3157C66.1647 57.4956 66.5593 57.7592 66.8916 58.0915C67.224 58.4239 67.4876 58.8184 67.6675 59.2527C67.8473 59.6869 67.9399 60.1523 67.9399 60.6223H73.7794Z" fill="#2FC6F6"/>
	<path d="M73.7794 60.6223C73.7794 59.3855 73.5358 58.1607 73.0625 57.018C72.5892 55.8753 71.8954 54.837 71.0208 53.9624C70.1462 53.0878 69.1079 52.394 67.9652 51.9207C67.1455 51.5811 66.2835 51.3598 65.4052 51.2618C64.8308 51.1977 64.3608 51.6723 64.3608 52.2502L64.3608 55.9967C64.3608 56.5747 64.8391 57.0286 65.3925 57.1952C65.5069 57.2296 65.6197 57.2698 65.7305 57.3157C66.1647 57.4956 66.5593 57.7592 66.8916 58.0915C67.224 58.4239 67.4876 58.8184 67.6675 59.2527C67.8473 59.6869 67.9399 60.1523 67.9399 60.6223H73.7794Z" fill="white" fill-opacity="0.4"/>
	<rect x="42.3842" y="33.7669" width="25.1163" height="2.08092" rx="1.04046" fill="#C3F0FF"/>
	<rect x="42.3842" y="38.9692" width="25.1163" height="2.08092" rx="1.04046" fill="#C3F0FF"/>
	<rect x="42.3842" y="44.1716" width="19.8837" height="2.08092" rx="1.04046" fill="#C3F0FF"/>
	<rect x="42.3842" y="49.3739" width="11.5116" height="2.08092" rx="1.04046" fill="#C3F0FF"/>
	<g filter="url(#filter2_d_1348_72916)">
		<path d="M57.558 16.0792C59.2918 16.0792 60.6975 17.4765 60.6976 19.2003C60.6976 19.5653 60.6338 19.9157 60.5179 20.2413H61.3256C63.656 20.2414 65.776 21.5907 66.7621 23.7022L67.2172 24.6778C67.8363 26.0037 66.8689 27.5243 65.4056 27.5245H49.6097C48.1725 27.5242 47.204 26.0525 47.7728 24.7325L48.1469 23.8663C49.0951 21.6665 51.2612 20.2415 53.6566 20.2413H54.598C54.4823 19.9158 54.4183 19.5652 54.4183 19.2003C54.4185 17.4767 55.8244 16.0795 57.558 16.0792ZM57.559 18.1602C56.9811 18.1602 56.5122 18.6258 56.5121 19.2003C56.5121 19.7749 56.981 20.2413 57.559 20.2413C58.1368 20.2411 58.6049 19.7748 58.6049 19.2003C58.6047 18.6259 58.1367 18.1605 57.559 18.1602Z" fill="#7FDEFC"/>
	</g>
	<defs>
		<filter id="filter0_d_1348_72916" x="32.6283" y="21.8825" width="49.8605" height="60.0231" filterUnits="userSpaceOnUse" color-interpolation-filters="sRGB">
			<feFlood flood-opacity="0" result="BackgroundImageFix"/>
			<feColorMatrix in="SourceAlpha" type="matrix" values="0 0 0 0 0 0 0 0 0 0 0 0 0 0 0 0 0 0 127 0" result="hardAlpha"/>
			<feOffset dy="2"/>
			<feGaussianBlur stdDeviation="2"/>
			<feComposite in2="hardAlpha" operator="out"/>
			<feColorMatrix type="matrix" values="0 0 0 0 0.423529 0 0 0 0 0.423529 0 0 0 0 0.423529 0 0 0 0.14 0"/>
			<feBlend mode="normal" in2="BackgroundImageFix" result="effect1_dropShadow_1348_72916"/>
			<feBlend mode="normal" in="SourceGraphic" in2="effect1_dropShadow_1348_72916" result="shape"/>
		</filter>
		<filter id="filter1_d_1348_72916" x="26.1348" y="14.6125" width="62.8475" height="71.9818" filterUnits="userSpaceOnUse" color-interpolation-filters="sRGB">
			<feFlood flood-opacity="0" result="BackgroundImageFix"/>
			<feColorMatrix in="SourceAlpha" type="matrix" values="0 0 0 0 0 0 0 0 0 0 0 0 0 0 0 0 0 0 127 0" result="hardAlpha"/>
			<feOffset dy="2.27"/>
			<feGaussianBlur stdDeviation="5.77"/>
			<feComposite in2="hardAlpha" operator="out"/>
			<feColorMatrix type="matrix" values="0 0 0 0 0.392157 0 0 0 0 0.427451 0 0 0 0 0.482353 0 0 0 0.16 0"/>
			<feBlend mode="normal" in2="BackgroundImageFix" result="effect1_dropShadow_1348_72916"/>
			<feBlend mode="normal" in="SourceGraphic" in2="effect1_dropShadow_1348_72916" result="shape"/>
		</filter>
		<filter id="filter2_d_1348_72916" x="46.6074" y="15.0792" width="21.8" height="13.4453" filterUnits="userSpaceOnUse" color-interpolation-filters="sRGB">
			<feFlood flood-opacity="0" result="BackgroundImageFix"/>
			<feColorMatrix in="SourceAlpha" type="matrix" values="0 0 0 0 0 0 0 0 0 0 0 0 0 0 0 0 0 0 127 0" result="hardAlpha"/>
			<feOffset/>
			<feGaussianBlur stdDeviation="0.5"/>
			<feComposite in2="hardAlpha" operator="out"/>
			<feColorMatrix type="matrix" values="0 0 0 0 0.392157 0 0 0 0 0.427451 0 0 0 0 0.482353 0 0 0 0.1 0"/>
			<feBlend mode="normal" in2="BackgroundImageFix" result="effect1_dropShadow_1348_72916"/>
			<feBlend mode="normal" in="SourceGraphic" in2="effect1_dropShadow_1348_72916" result="shape"/>
		</filter>
	</defs>
</svg>
