<svg width="20" height="20" viewBox="0 0 20 20" fill="none" xmlns="http://www.w3.org/2000/svg">
	<path d="M4.58269 7.79166C5.80232 7.79166 6.79167 8.78004 6.79167 9.99966C6.79167 11.2193 5.80232 12.2077 4.58269 12.2077C3.36321 12.2075 2.37468 11.2192 2.37468 9.99966C2.37468 8.78014 3.36321 7.79183 4.58269 7.79166ZM9.99968 7.79166C11.2193 7.79166 12.2077 8.78004 12.2077 9.99966C12.2077 11.2193 11.2193 12.2077 9.99968 12.2077C8.78005 12.2077 7.79167 11.2193 7.79167 9.99966C7.79167 8.78004 8.78005 7.79166 9.99968 7.79166ZM15.4167 7.79166C16.6362 7.79183 17.6247 8.78014 17.6247 9.99966C17.6247 11.2192 16.6362 12.2075 15.4167 12.2077C14.197 12.2077 13.2077 11.2193 13.2077 9.99966C13.2077 8.78004 14.197 7.79166 15.4167 7.79166ZM4.58269 8.95767C4.00754 8.95785 3.54167 9.42448 3.54167 9.99966C3.54167 10.5749 4.00754 11.0415 4.58269 11.0417C5.15798 11.0417 5.62468 10.575 5.62468 9.99966C5.62468 9.42437 5.15798 8.95767 4.58269 8.95767ZM9.99968 8.95767C9.42438 8.95767 8.95769 9.42437 8.95769 9.99966C8.95769 10.575 9.42438 11.0417 9.99968 11.0417C10.575 11.0417 11.0417 10.575 11.0417 9.99966C11.0417 9.42437 10.575 8.95767 9.99968 8.95767ZM15.4167 8.95767C14.8414 8.95767 14.3747 9.42437 14.3747 9.99966C14.3747 10.575 14.8414 11.0417 15.4167 11.0417C15.9918 11.0415 16.4577 10.5749 16.4577 9.99966C16.4577 9.42448 15.9918 8.95785 15.4167 8.95767Z" fill="#525C69"/>
</svg>
