<svg width="32" height="32" viewBox="0 0 32 32" fill="none" xmlns="http://www.w3.org/2000/svg">
<g clip-path="url(#clip0_19509_4800)">
<rect width="32" height="32" fill="#EEF2F4"/>
<path d="M13.9329 16.9149C15.3459 16.9149 16.9169 17.1413 18.1926 17.8807C19.5109 18.6449 20.4644 19.9319 20.6155 21.8925C20.6709 22.6132 20.0812 23.1581 19.426 23.1581H8.43872C7.78365 23.1579 7.1948 22.6131 7.25024 21.8925C7.40132 19.9319 8.35486 18.6449 9.6731 17.8807C10.9488 17.1413 12.5198 16.9149 13.9329 16.9149ZM18.8665 16.952C19.999 17.0423 21.1658 17.3075 22.1545 17.8807C23.4726 18.6449 24.4253 19.9313 24.5764 21.8915C24.632 22.6123 24.0432 23.1571 23.3879 23.1571H21.5276V21.746H23.1438C22.9747 20.4146 22.3196 19.6076 21.4465 19.1014C21.185 18.9499 20.9003 18.8241 20.5989 18.7206L20.5686 18.6385L18.8665 16.952ZM13.9329 18.326C12.6364 18.326 11.3509 18.5403 10.3811 19.1024C9.50808 19.6085 8.85305 20.4149 8.68384 21.746H19.1819C19.0127 20.4148 18.3576 19.6085 17.4846 19.1024C16.5148 18.5403 15.2293 18.3261 13.9329 18.326ZM13.926 8.33875C18.6376 8.33885 18.2631 16.1569 13.926 16.1571C10.3136 16.1571 9.46444 10.8293 12.0217 8.94617C12.4465 8.63351 13.2634 8.33875 13.926 8.33875ZM17.886 8.33875C22.5977 8.33875 22.2233 16.1571 17.886 16.1571C17.5489 16.1571 17.2359 16.1109 16.9475 16.0253L17.887 14.746C18.494 14.7457 18.9345 14.4919 19.2649 14.0682C19.621 13.6115 19.851 12.9394 19.8684 12.2137C19.8857 11.487 19.6874 10.8435 19.3616 10.4169C19.1117 10.0897 18.7509 9.8349 18.1917 9.76746L17.009 8.47449C17.3014 8.39092 17.6074 8.33876 17.886 8.33875ZM13.926 9.74988C13.785 9.74988 13.5689 9.78572 13.3293 9.86511C13.0851 9.94608 12.9187 10.0387 12.8586 10.0829C12.1573 10.5995 11.7756 11.7577 12.0383 12.955C12.2898 14.1007 12.989 14.746 13.926 14.746C14.5335 14.7459 14.9744 14.4921 15.3049 14.0682C15.661 13.6115 15.8911 12.9394 15.9084 12.2137C15.9258 11.487 15.7274 10.8435 15.4016 10.4169C15.1089 10.0336 14.6638 9.7499 13.926 9.74988Z" fill="#37C5D8"/>
</g>
<defs>
<clipPath id="clip0_19509_4800">
<path d="M0 16C0 7.16344 7.16344 0 16 0C24.8366 0 32 7.16344 32 16C32 24.8366 24.8366 32 16 32C7.16344 32 0 24.8366 0 16Z" fill="white"/>
</clipPath>
</defs>
</svg>
