<svg width="44" height="44" viewBox="0 0 44 44" fill="none" xmlns="http://www.w3.org/2000/svg">
	<path fill-rule="evenodd" clip-rule="evenodd" d="M10.1716 10.6857C9.06706 10.6857 8.17163 11.5812 8.17163 12.6857V22.8C8.17163 23.9046 9.06706 24.8 10.1716 24.8H12.5813V30.2286L18.0934 24.8H26.0151C27.1197 24.8 28.0151 23.9046 28.0151 22.8V12.6857C28.0151 11.5812 27.1197 10.6857 26.0151 10.6857H10.1716ZM33.7314 17.1999C34.836 17.1999 35.7314 18.0954 35.7314 19.1999V28.2285C35.7314 29.3331 34.836 30.2285 33.7314 30.2285H31.3218V34.5714L26.9121 30.2285H20.0928C18.9882 30.2285 18.0928 29.3331 18.0928 28.2285V26.9714H27.2248C28.8817 26.9714 30.2248 25.6282 30.2248 23.9714V17.1999H33.7314Z" fill="#2FC6F6"/>
</svg>
