<svg width="100" height="100" viewBox="0 0 100 100" fill="none" xmlns="http://www.w3.org/2000/svg">
<path fill-rule="evenodd" clip-rule="evenodd" d="M10.8696 0C4.86648 0 0 4.86647 0 10.8696V26.8116C0 32.8147 4.86648 37.6811 10.8696 37.6811H26.8116C32.8147 37.6811 37.6812 32.8147 37.6812 26.8116V10.8696C37.6812 4.86647 32.8147 0 26.8116 0H10.8696ZM8.69567 10.8696C8.69567 9.66894 9.66896 8.69565 10.8696 8.69565H26.8116C28.0123 8.69565 28.9856 9.66894 28.9856 10.8696V26.8116C28.9856 28.0122 28.0123 28.9855 26.8116 28.9855H10.8696C9.66896 28.9855 8.69567 28.0122 8.69567 26.8116V10.8696Z" fill="#DFE0E3"/>
<path d="M45.6522 6.52176C45.6522 4.12052 47.5988 2.17393 50 2.17393H50.0483C52.4496 2.17393 54.3961 4.12052 54.3961 6.52176C54.3961 8.923 52.4496 10.8696 50.0483 10.8696H50C47.5988 10.8696 45.6522 8.923 45.6522 6.52176Z" fill="#DFE0E3"/>
<path d="M6.52166 45.6522C4.12042 45.6522 2.17383 47.5988 2.17383 50C2.17383 52.4012 4.12042 54.3478 6.52166 54.3478H6.56997C8.97121 54.3478 10.9178 52.4012 10.9178 50C10.9178 47.5988 8.97121 45.6522 6.56997 45.6522H6.52166Z" fill="#DFE0E3"/>
<path d="M97.8262 93.4782C97.8262 91.077 95.8796 89.1304 93.4783 89.1304C91.0771 89.1304 89.1305 91.077 89.1305 93.4782V93.5266C89.1305 95.9278 91.0771 97.8744 93.4783 97.8744C95.8796 97.8744 97.8262 95.9278 97.8262 93.5266V93.4782Z" fill="#DFE0E3"/>
<path d="M54.3478 69.3237C54.3478 66.9225 52.4012 64.9759 50 64.9759C47.5988 64.9759 45.6522 66.9225 45.6522 69.3237V69.372C45.6522 71.7732 47.5988 73.7198 50 73.7198C52.4012 73.7198 54.3478 71.7732 54.3478 69.372V69.3237Z" fill="#DFE0E3"/>
<path d="M63.7681 50C63.7681 47.5988 65.7147 45.6522 68.116 45.6522H75.3624C77.7636 45.6522 79.7102 47.5988 79.7102 50C79.7102 52.4012 77.7636 54.3478 75.3624 54.3478H68.116C65.7147 54.3478 63.7681 52.4012 63.7681 50Z" fill="#DFE0E3"/>
<path d="M97.8262 50C97.8262 47.5988 95.8796 45.6522 93.4783 45.6522C91.0771 45.6522 89.1305 47.5988 89.1305 50V50.0483C89.1305 52.4496 91.0771 54.3961 93.4783 54.3961C95.8796 54.3961 97.8262 52.4496 97.8262 50.0483V50Z" fill="#DFE0E3"/>
<path d="M50 81.884C52.4012 81.884 54.3478 83.8306 54.3478 86.2319V93.4782C54.3478 95.8795 52.4012 97.8261 50 97.8261C47.5988 97.8261 45.6522 95.8795 45.6522 93.4782V86.2319C45.6522 83.8306 47.5988 81.884 50 81.884Z" fill="#DFE0E3"/>
<path fill-rule="evenodd" clip-rule="evenodd" d="M10.8696 62.3189C4.86648 62.3189 0 67.1853 0 73.1884V89.1304C0 95.1335 4.86648 100 10.8696 100H26.8116C32.8147 100 37.6812 95.1335 37.6812 89.1304V73.1884C37.6812 67.1853 32.8147 62.3189 26.8116 62.3189H10.8696ZM8.69567 73.1884C8.69567 71.9878 9.66896 71.0145 10.8696 71.0145H26.8116C28.0123 71.0145 28.9856 71.9878 28.9856 73.1884V89.1304C28.9856 90.3311 28.0123 91.3044 26.8116 91.3044H10.8696C9.66896 91.3044 8.69567 90.3311 8.69567 89.1304V73.1884Z" fill="#DFE0E3"/>
<path d="M67.3913 81.1594C67.3913 70.7541 75.8266 62.3189 86.232 62.3189H93.4783C95.8796 62.3189 97.8262 64.2654 97.8262 66.6667C97.8262 69.0679 95.8796 71.0145 93.4783 71.0145H86.232C80.6291 71.0145 76.087 75.5565 76.087 81.1594V88.4058C76.087 90.807 74.1404 92.7536 71.7392 92.7536C69.3379 92.7536 67.3913 90.807 67.3913 88.4058V81.1594Z" fill="#DFE0E3"/>
<path d="M50 23.9131C52.4012 23.9131 54.3478 25.8596 54.3478 28.2609V35.5073C54.3478 45.9126 45.9126 54.3478 35.5072 54.3478H28.2608C25.8596 54.3478 23.913 52.4012 23.913 50C23.913 47.5988 25.8596 45.6522 28.2608 45.6522H35.5072C41.1101 45.6522 45.6522 41.1101 45.6522 35.5073V28.2609C45.6522 25.8596 47.5988 23.9131 50 23.9131Z" fill="#DFE0E3"/>
<path fill-rule="evenodd" clip-rule="evenodd" d="M73.1884 0C67.1853 0 62.3188 4.86647 62.3188 10.8696V26.8116C62.3188 32.8147 67.1853 37.6811 73.1884 37.6811H89.1304C95.1335 37.6811 100 32.8147 100 26.8116V10.8696C100 4.86647 95.1335 0 89.1304 0H73.1884ZM71.0144 10.8696C71.0144 9.66894 71.9877 8.69565 73.1884 8.69565H89.1304C90.331 8.69565 91.3043 9.66894 91.3043 10.8696V26.8116C91.3043 28.0122 90.331 28.9855 89.1304 28.9855H73.1884C71.9877 28.9855 71.0144 28.0122 71.0144 26.8116V10.8696Z" fill="#DFE0E3"/>
</svg>
