<svg width="159" height="26" viewBox="0 0 159 26" fill="none" xmlns="http://www.w3.org/2000/svg">
	<path d="M0 20.3529V0.27451H12.4762V2.88235H3.0189V8.37255H7.49353C8.97855 8.37255 10.2389 8.61438 11.2745 9.09804C12.3166 9.5817 13.1112 10.2647 13.6583 11.1471C14.212 12.0294 14.4888 13.0686 14.4888 14.2647C14.4888 15.4608 14.212 16.5163 13.6583 17.4314C13.1112 18.3464 12.3166 19.0621 11.2745 19.5784C10.2389 20.0948 8.97855 20.3529 7.49353 20.3529H0ZM3.0189 17.8039H7.49353C8.35328 17.8039 9.07951 17.634 9.67222 17.2941C10.2714 16.9542 10.7241 16.5131 11.0302 15.9706C11.3429 15.4281 11.4992 14.8464 11.4992 14.2255C11.4992 13.3235 11.154 12.549 10.4636 11.902C9.77318 11.2484 8.78316 10.9216 7.49353 10.9216H3.0189V17.8039Z" fill="white"/>
	<path d="M20.6829 16.2451L27.2972 5.29412H30.4431V20.3529H27.5805V9.39216L20.9956 20.3529H17.8203V5.29412H20.6829V16.2451Z" fill="white"/>
	<path d="M32.5094 7.82353V5.29412H45.1712V7.82353H40.2765V20.3529H37.4237V7.82353H32.5094Z" fill="white"/>
	<path d="M48.261 26V5.29412H51.1138V7.73529H51.358C51.5274 7.42157 51.7716 7.05882 52.0908 6.64706C52.4099 6.23529 52.8528 5.87582 53.4195 5.56863C53.9861 5.2549 54.7351 5.09804 55.6665 5.09804C56.878 5.09804 57.9592 5.40523 58.9102 6.01961C59.8611 6.63399 60.6069 7.51961 61.1475 8.67647C61.6946 9.83333 61.9682 11.2255 61.9682 12.8529C61.9682 14.4804 61.6978 15.8758 61.1572 17.0392C60.6166 18.1961 59.8741 19.0882 58.9297 19.7157C57.9853 20.3366 56.9073 20.6471 55.6959 20.6471C54.784 20.6471 54.0382 20.4935 53.4585 20.1863C52.8854 19.8791 52.436 19.5196 52.1103 19.1078C51.7846 18.6961 51.5339 18.3301 51.358 18.0098H51.1822V26H48.261ZM51.1235 12.8235C51.1235 13.8824 51.2766 14.8105 51.5827 15.6078C51.8888 16.4052 52.3318 17.0294 52.9114 17.4804C53.4911 17.9248 54.2011 18.1471 55.0413 18.1471C55.9141 18.1471 56.6435 17.915 57.2297 17.451C57.8159 16.9804 58.2588 16.3431 58.5584 15.5392C58.8646 14.7353 59.0176 13.8301 59.0176 12.8235C59.0176 11.8301 58.8678 10.9379 58.5682 10.1471C58.2751 9.35621 57.8322 8.73203 57.2395 8.27451C56.6533 7.81699 55.9206 7.58824 55.0413 7.58824C54.1945 7.58824 53.4781 7.80719 52.8919 8.2451C52.3122 8.68301 51.8726 9.29412 51.573 10.0784C51.2733 10.8627 51.1235 11.7778 51.1235 12.8235Z" fill="white"/>
	<path d="M68.1037 16.2451L74.7179 5.29412H77.8638V20.3529H75.0012V9.39216L68.4163 20.3529H65.2411V5.29412H68.1037V16.2451Z" fill="white"/>
	<path d="M81.7913 20.3529V5.29412H84.7125V11.6078H86.1194L91.0727 5.29412H94.6876L88.8745 12.6176L94.756 20.3529H91.1314L86.6079 14.3333H84.7125V20.3529H81.7913Z" fill="white"/>
	<path d="M102.728 20.6569C101.276 20.6569 100.025 20.3268 98.9766 19.6667C97.9345 19 97.1333 18.0817 96.5732 16.9118C96.0131 15.7418 95.733 14.402 95.733 12.8922C95.733 11.3627 96.0196 10.0131 96.5927 8.84314C97.1659 7.66667 97.9735 6.74837 99.0157 6.08823C100.058 5.4281 101.286 5.09804 102.699 5.09804C103.839 5.09804 104.855 5.31046 105.747 5.73529C106.639 6.15359 107.359 6.74183 107.906 7.5C108.46 8.25817 108.789 9.14379 108.893 10.1569H106.05C105.894 9.45098 105.535 8.84314 104.975 8.33333C104.422 7.82353 103.679 7.56863 102.748 7.56863C101.934 7.56863 101.22 7.78431 100.608 8.21569C100.002 8.64052 99.5302 9.24837 99.1915 10.0392C98.8529 10.8235 98.6835 11.7516 98.6835 12.8235C98.6835 13.9216 98.8496 14.8693 99.1818 15.6667C99.5139 16.4641 99.9829 17.0817 100.589 17.5196C101.201 17.9575 101.921 18.1765 102.748 18.1765C103.301 18.1765 103.803 18.0752 104.252 17.8725C104.708 17.6634 105.089 17.366 105.395 16.9804C105.708 16.5948 105.926 16.1307 106.05 15.5882H108.893C108.789 16.5621 108.473 17.4314 107.945 18.1961C107.418 18.9608 106.711 19.5621 105.825 20C104.946 20.4379 103.914 20.6569 102.728 20.6569Z" fill="white"/>
	<path d="M113.961 20.3529V18.1569L120.732 11.1176C121.454 10.3529 122.05 9.68301 122.519 9.10784C122.995 8.52614 123.35 7.97386 123.584 7.45098C123.819 6.9281 123.936 6.37255 123.936 5.78431C123.936 5.11765 123.78 4.54248 123.467 4.05882C123.154 3.56863 122.728 3.19281 122.187 2.93137C121.647 2.6634 121.038 2.52941 120.36 2.52941C119.644 2.52941 119.019 2.67647 118.484 2.97059C117.95 3.26471 117.54 3.67974 117.253 4.21569C116.967 4.75163 116.824 5.37909 116.824 6.09804H113.941C113.941 4.87582 114.222 3.80719 114.782 2.89216C115.342 1.97712 116.11 1.26797 117.087 0.764706C118.064 0.254902 119.175 0 120.419 0C121.676 0 122.783 0.251634 123.741 0.754902C124.705 1.25163 125.457 1.93137 125.998 2.79412C126.538 3.65033 126.808 4.61765 126.808 5.69608C126.808 6.44118 126.668 7.16993 126.388 7.88235C126.115 8.59477 125.636 9.38889 124.952 10.2647C124.268 11.134 123.317 12.1895 122.099 13.4314L118.123 17.6078V17.7549H127.131V20.3529H113.961Z" fill="white"/>
	<path d="M129.984 16.4314V13.9804L138.63 0.27451H140.555V3.88235H139.333L133.149 13.7059V13.8627H145V16.4314H129.984ZM139.47 20.3529V15.6863L139.49 14.5686V0.27451H142.352V20.3529H139.47Z" fill="white"/>
	<path d="M152.498 10.5024H155.748V9.2524H153.798V7.0641H152.498V10.5024Z" fill="white"/>
	<path fill-rule="evenodd" clip-rule="evenodd" d="M153.15 4.25C149.919 4.25 147.3 6.76831 147.3 9.87492C147.3 12.9815 149.919 15.5 153.15 15.5C156.381 15.5 159 12.9815 159 9.87492C159 6.76831 156.381 4.25 153.15 4.25ZM153.15 14.25C150.637 14.25 148.6 12.2911 148.6 9.87492C148.6 7.4587 150.637 5.50004 153.15 5.50004C155.663 5.50004 157.7 7.4587 157.7 9.87492C157.7 12.2911 155.663 14.25 153.15 14.25Z" fill="white"/>
</svg>
