<svg width="139" height="25" viewBox="0 0 139 25" fill="none" xmlns="http://www.w3.org/2000/svg">
	<path d="M0 24.7728V1.60862H8.52217C10.1736 1.60862 11.5409 1.88008 12.6242 2.42299C13.7074 2.95836 14.518 3.68601 15.0558 4.60594C15.5937 5.51833 15.8626 6.5476 15.8626 7.69374C15.8626 8.65892 15.6846 9.47328 15.3285 10.1368C14.9725 10.7929 14.4953 11.3207 13.8968 11.7203C13.3059 12.1124 12.6545 12.399 11.9424 12.5799V12.8062C12.7151 12.8439 13.4688 13.0927 14.2036 13.5527C14.946 14.0051 15.5596 14.6498 16.0444 15.4868C16.5292 16.3238 16.7716 17.3417 16.7716 18.5406C16.7716 19.7245 16.4913 20.7877 15.9308 21.7302C15.3778 22.6653 14.5218 23.408 13.3628 23.9584C12.2037 24.5013 10.7228 24.7728 8.91987 24.7728H0ZM3.51113 21.7755H8.57898C10.2607 21.7755 11.4652 21.4512 12.1924 20.8028C12.9196 20.1543 13.2832 19.3437 13.2832 18.371C13.2832 17.6396 13.0976 16.9685 12.7264 16.3577C12.3552 15.7469 11.825 15.2606 11.1356 14.8986C10.4539 14.5367 9.6433 14.3557 8.70397 14.3557H3.51113V21.7755ZM3.51113 11.6298H8.21537C9.00319 11.6298 9.71148 11.479 10.3402 11.1774C10.9766 10.8758 11.4803 10.4535 11.8515 9.91063C12.2303 9.36018 12.4196 8.7117 12.4196 7.9652C12.4196 7.00757 12.0825 6.20451 11.4083 5.55604C10.7341 4.90756 9.70012 4.58332 8.30627 4.58332H3.51113V11.6298Z" fill="white"/>
	<path d="M20.6634 24.7728V7.39967H24.0609V24.7728H20.6634ZM22.3792 4.71905C21.7883 4.71905 21.2808 4.523 20.8566 4.13089C20.4399 3.73125 20.2316 3.25621 20.2316 2.70575C20.2316 2.14776 20.4399 1.67272 20.8566 1.28061C21.2808 0.880972 21.7883 0.681151 22.3792 0.681151C22.9701 0.681151 23.4738 0.880972 23.8905 1.28061C24.3147 1.67272 24.5268 2.14776 24.5268 2.70575C24.5268 3.25621 24.3147 3.73125 23.8905 4.13089C23.4738 4.523 22.9701 4.71905 22.3792 4.71905Z" fill="white"/>
	<path d="M36.7788 7.39967V10.1142H27.2454V7.39967H36.7788ZM29.802 3.23735H33.1995V19.6717C33.1995 20.3277 33.298 20.8216 33.495 21.1534C33.6919 21.4776 33.9457 21.7001 34.2563 21.8207C34.5744 21.9338 34.9191 21.9904 35.2903 21.9904C35.563 21.9904 35.8016 21.9715 36.0061 21.9338C36.2107 21.8961 36.3698 21.866 36.4834 21.8433L37.097 24.6371C36.9 24.7125 36.6197 24.7879 36.2561 24.8633C35.8925 24.9462 35.438 24.9915 34.8926 24.999C33.9987 25.0141 33.1654 24.8557 32.3928 24.524C31.6201 24.1922 30.9951 23.6794 30.5179 22.9857C30.0406 22.292 29.802 21.4211 29.802 20.373V3.23735Z" fill="white"/>
	<path d="M40.5371 24.7728V7.39967H43.821V10.1595H44.0028C44.3209 9.22445 44.8815 8.48926 45.6845 7.95389C46.495 7.41098 47.4117 7.13952 48.4343 7.13952C48.6464 7.13952 48.8964 7.14706 49.1843 7.16214C49.4797 7.17722 49.7107 7.19608 49.8774 7.2187V10.4535C49.741 10.4158 49.4986 10.3744 49.1502 10.3291C48.8017 10.2763 48.4532 10.2499 48.1048 10.2499C47.3018 10.2499 46.5859 10.4196 45.9572 10.7589C45.336 11.0907 44.8436 11.5544 44.48 12.1501C44.1164 12.7383 43.9346 13.4094 43.9346 14.1634V24.7728H40.5371Z" fill="white"/>
	<path d="M52.8175 24.7728V7.39967H56.215V24.7728H52.8175ZM54.5333 4.71905C53.9425 4.71905 53.4349 4.523 53.0107 4.13089C52.5941 3.73125 52.3858 3.25621 52.3858 2.70575C52.3858 2.14776 52.5941 1.67272 53.0107 1.28061C53.4349 0.880972 53.9425 0.681151 54.5333 0.681151C55.1242 0.681151 55.628 0.880972 56.0446 1.28061C56.4688 1.67272 56.6809 2.14776 56.6809 2.70575C56.6809 3.25621 56.4688 3.73125 56.0446 4.13089C55.628 4.523 55.1242 4.71905 54.5333 4.71905Z" fill="white"/>
	<path d="M63.4674 7.39967L67.3194 14.1634L71.2055 7.39967H74.9212L69.4784 16.0862L74.9667 24.7728H71.251L67.3194 18.2805L63.3992 24.7728H59.6722L65.1037 16.0862L59.7404 7.39967H63.4674Z" fill="white"/>
	<path d="M81.2112 24.7728V22.2392L89.0857 14.1182C89.9265 13.236 90.6197 12.4631 91.1651 11.7995C91.7181 11.1284 92.1309 10.4912 92.4036 9.88801C92.6763 9.28477 92.8127 8.64384 92.8127 7.9652C92.8127 7.19608 92.6309 6.53252 92.2673 5.97453C91.9037 5.409 91.4075 4.97542 90.7787 4.67381C90.15 4.36465 89.4417 4.21007 88.6539 4.21007C87.8206 4.21007 87.0934 4.37973 86.4722 4.71905C85.851 5.05837 85.3738 5.53718 85.0405 6.1555C84.7072 6.77381 84.5405 7.49769 84.5405 8.32714H81.1885C81.1885 6.91708 81.5142 5.68422 82.1657 4.62856C82.8172 3.5729 83.711 2.75477 84.8473 2.17415C85.9836 1.586 87.2752 1.29192 88.7221 1.29192C90.1841 1.29192 91.4719 1.58223 92.5854 2.16284C93.7066 2.73592 94.5815 3.52012 95.2103 4.51546C95.839 5.50325 96.1534 6.61924 96.1534 7.86341C96.1534 8.72301 95.9905 9.56377 95.6648 10.3857C95.3466 11.2076 94.7898 12.1237 93.9944 13.1342C93.199 14.137 92.093 15.3548 90.6765 16.7875L86.0518 21.6058V21.7755H96.5284V24.7728H81.2112Z" fill="white"/>
	<path d="M99.8463 20.2486V17.4209L109.902 1.60862H112.141V5.77094H110.721L103.528 17.1042V17.2852H117.311V20.2486H99.8463ZM110.88 24.7728V19.3889L110.902 18.0995V1.60862H114.232V24.7728H110.88Z" fill="white"/>
	<path d="M130.109 8.85087H134.553V7.08134H131.886V3.9836H130.109V8.85087Z" fill="white"/>
	<path fill-rule="evenodd" clip-rule="evenodd" d="M131.001 0C126.583 0 123.001 3.56489 123.001 7.96257C123.001 12.3603 126.583 15.9254 131.001 15.9254C135.419 15.9254 139 12.3603 139 7.96257C139 3.56489 135.419 0 131.001 0ZM131.001 14.1558C127.564 14.1558 124.779 11.3829 124.779 7.96257C124.779 4.5422 127.564 1.76954 131.001 1.76954C134.437 1.76954 137.223 4.5422 137.223 7.96257C137.223 11.3829 134.437 14.1558 131.001 14.1558Z" fill="white"/>
</svg>
