<svg width="189" height="32" viewBox="0 0 189 32" fill="none" xmlns="http://www.w3.org/2000/svg">
	<path d="M0 25.3368V1.64524H14.7656V4.72237H3.57289V11.2005H8.86863C10.6262 11.2005 12.1178 11.4859 13.3434 12.0566C14.5768 12.6272 15.5172 13.4332 16.1647 14.4743C16.82 15.5154 17.1476 16.7416 17.1476 18.153C17.1476 19.5643 16.82 20.8098 16.1647 21.8895C15.5172 22.9692 14.5768 23.8136 13.3434 24.4229C12.1178 25.0321 10.6262 25.3368 8.86863 25.3368H0ZM3.57289 22.329H8.86863C9.88616 22.329 10.7457 22.1285 11.4471 21.7275C12.1563 21.3265 12.6921 20.8059 13.0544 20.1658C13.4244 19.5257 13.6094 18.8393 13.6094 18.1067C13.6094 17.0424 13.2008 16.1285 12.3837 15.365C11.5666 14.5938 10.3949 14.2082 8.86863 14.2082H3.57289V22.329Z" fill="white"/>
	<path d="M21.0905 25.3368V7.56812H24.5477V25.3368H21.0905ZM22.8364 4.82648C22.2352 4.82648 21.7187 4.62596 21.287 4.22493C20.8631 3.81619 20.6511 3.33033 20.6511 2.76735C20.6511 2.19666 20.8631 1.7108 21.287 1.30977C21.7187 0.901028 22.2352 0.696658 22.8364 0.696658C23.4377 0.696658 23.9503 0.901028 24.3743 1.30977C24.806 1.7108 25.0218 2.19666 25.0218 2.76735C25.0218 3.33033 24.806 3.81619 24.3743 4.22493C23.9503 4.62596 23.4377 4.82648 22.8364 4.82648Z" fill="white"/>
	<path d="M28.2045 10.5527V7.56812H43.1898V10.5527H37.3968V25.3368H34.0205V10.5527H28.2045Z" fill="white"/>
	<path d="M46.8465 32V7.56812H50.2228V10.4486H50.5119C50.7123 10.0784 51.0014 9.65038 51.3791 9.16452C51.7568 8.67866 52.281 8.2545 52.9516 7.89203C53.6223 7.52185 54.5088 7.33676 55.6111 7.33676C57.0449 7.33676 58.3245 7.69923 59.4499 8.42417C60.5754 9.1491 61.458 10.1941 62.0978 11.5591C62.7453 12.9242 63.0691 14.5668 63.0691 16.4871C63.0691 18.4075 62.7492 20.054 62.1093 21.4267C61.4695 22.7918 60.5908 23.8445 59.473 24.5848C58.3553 25.3175 57.0795 25.6838 55.6458 25.6838C54.5666 25.6838 53.684 25.5026 52.9979 25.1401C52.3195 24.7776 51.7877 24.3535 51.4022 23.8676C51.0168 23.3817 50.72 22.9499 50.5119 22.572H50.3038V32H46.8465ZM50.2344 16.4524C50.2344 17.7018 50.4155 18.7969 50.7778 19.7378C51.1401 20.6787 51.6643 21.4152 52.3504 21.9473C53.0364 22.4717 53.8767 22.7339 54.8711 22.7339C55.904 22.7339 56.7674 22.4602 57.4611 21.9126C58.1549 21.3573 58.6791 20.6054 59.0336 19.6568C59.3959 18.7082 59.5771 17.6401 59.5771 16.4524C59.5771 15.2802 59.3998 14.2275 59.0452 13.2943C58.6983 12.3612 58.1742 11.6247 57.4727 11.0848C56.7789 10.545 55.9117 10.2751 54.8711 10.2751C53.869 10.2751 53.021 10.5334 52.3273 11.0501C51.6412 11.5668 51.1209 12.2879 50.7663 13.2134C50.4117 14.1388 50.2344 15.2185 50.2344 16.4524Z" fill="white"/>
	<path d="M69.5442 13.6761H74.7012C76.875 13.6761 78.5477 14.2159 79.7194 15.2956C80.8911 16.3753 81.477 17.7674 81.477 19.4717C81.477 20.5823 81.2149 21.581 80.6907 22.4679C80.1665 23.3548 79.3995 24.0566 78.3897 24.5733C77.3799 25.0823 76.1504 25.3368 74.7012 25.3368H66.9426V7.56812H70.3305V22.3522H74.7012C75.6956 22.3522 76.5127 22.0938 77.1525 21.5771C77.7923 21.0527 78.1122 20.3856 78.1122 19.5758C78.1122 18.7198 77.7923 18.0219 77.1525 17.482C76.5127 16.9344 75.6956 16.6607 74.7012 16.6607H69.5442V13.6761ZM83.9977 25.3368V7.56812H87.4549V25.3368H83.9977Z" fill="white"/>
	<path d="M92.0945 25.3368V7.56812H95.5517V15.018H97.2168L103.079 7.56812H107.357L100.477 16.2095L107.438 25.3368H103.148L97.7949 18.2339H95.5517V25.3368H92.0945Z" fill="white"/>
	<path d="M116.873 25.6954C115.154 25.6954 113.674 25.3059 112.433 24.527C111.2 23.7404 110.252 22.6568 109.589 21.2764C108.926 19.8959 108.595 18.3149 108.595 16.5334C108.595 14.7288 108.934 13.1362 109.612 11.7558C110.29 10.3676 111.246 9.28406 112.48 8.50514C113.713 7.72622 115.166 7.33676 116.839 7.33676C118.188 7.33676 119.39 7.5874 120.446 8.08869C121.502 8.58226 122.354 9.27635 123.002 10.171C123.657 11.0656 124.046 12.1105 124.17 13.3059H120.805C120.62 12.473 120.196 11.7558 119.533 11.1542C118.878 10.5527 117.999 10.2519 116.897 10.2519C115.933 10.2519 115.089 10.5064 114.364 11.0154C113.647 11.5167 113.089 12.2339 112.688 13.1671C112.287 14.0925 112.086 15.1877 112.086 16.4524C112.086 17.7481 112.283 18.8663 112.676 19.8072C113.069 20.7481 113.624 21.4769 114.341 21.9936C115.066 22.5103 115.918 22.7686 116.897 22.7686C117.552 22.7686 118.145 22.6491 118.677 22.41C119.217 22.1632 119.668 21.8123 120.03 21.3573C120.4 20.9023 120.658 20.3548 120.805 19.7147H124.17C124.046 20.8638 123.672 21.8895 123.048 22.7918C122.424 23.6941 121.587 24.4036 120.539 24.9203C119.498 25.437 118.276 25.6954 116.873 25.6954Z" fill="white"/>
	<path d="M130.195 25.3368V22.7455L138.208 14.4396C139.063 13.5373 139.769 12.7468 140.324 12.0681C140.886 11.3817 141.307 10.7301 141.584 10.1131C141.862 9.49614 142 8.84062 142 8.14653C142 7.3599 141.815 6.68123 141.445 6.11054C141.075 5.53213 140.57 5.08869 139.931 4.78021C139.291 4.46401 138.57 4.30591 137.768 4.30591C136.92 4.30591 136.18 4.47943 135.548 4.82648C134.916 5.17352 134.431 5.66324 134.091 6.29563C133.752 6.92802 133.583 7.66838 133.583 8.51671H130.172C130.172 7.07455 130.503 5.81362 131.166 4.73393C131.829 3.65424 132.739 2.81748 133.895 2.22365C135.051 1.62211 136.365 1.32134 137.838 1.32134C139.325 1.32134 140.636 1.61825 141.769 2.21208C142.91 2.7982 143.8 3.60026 144.44 4.61825C145.08 5.62853 145.4 6.76992 145.4 8.04242C145.4 8.92159 145.234 9.78149 144.903 10.6221C144.579 11.4627 144.012 12.3997 143.203 13.4332C142.393 14.4589 141.268 15.7044 139.826 17.1697L135.12 22.0977V22.2712H145.781V25.3368H130.195Z" fill="white"/>
	<path d="M149.158 20.7095V17.8175L159.391 1.64524H161.669V5.90231H160.223L152.904 17.4936V17.6787H166.93V20.7095H149.158ZM160.385 25.3368V19.8303L160.408 18.5116V1.64524H163.796V25.3368H160.385Z" fill="white"/>
	<path d="M179.952 9.05236H184.474V7.24255H181.761V4.07429H179.952V9.05236Z" fill="white"/>
	<path fill-rule="evenodd" clip-rule="evenodd" d="M180.86 0C176.364 0 172.72 3.64605 172.72 8.14384C172.72 12.6416 176.364 16.2879 180.86 16.2879C185.355 16.2879 189 12.6416 189 8.14384C189 3.64605 185.355 0 180.86 0ZM180.86 14.4781C177.363 14.4781 174.529 11.6421 174.529 8.14384C174.529 4.6456 177.363 1.80983 180.86 1.80983C184.357 1.80983 187.191 4.6456 187.191 8.14384C187.191 11.6421 184.357 14.4781 180.86 14.4781Z" fill="white"/>
</svg>

