<svg width="150" height="46" viewBox="0 0 150 46" fill="none" xmlns="http://www.w3.org/2000/svg">
	<g clip-path="url(#clip0_2365_62608)">
		<path d="M95.939 4.82422H93.0861C92.6107 4.82422 92.2778 5.20255 92.2778 5.62816V14.4243C90.1382 12.4381 87.3805 11.3977 84.4325 11.3977C77.871 11.3977 72.4982 16.9307 72.4982 23.7879C72.4982 30.5978 77.871 36.1781 84.4325 36.1781C87.3805 36.1781 90.2333 35.0904 92.4205 33.0096L92.5631 34.5229C92.6107 34.9486 92.991 35.2323 93.3714 35.2323H95.939C96.4144 35.2323 96.7473 34.854 96.7473 34.4284V5.67546C96.7473 5.24984 96.3669 4.82422 95.939 4.82422ZM91.8975 23.7879C91.8975 28.0441 88.5691 31.4963 84.4325 31.4963C80.2959 31.4963 76.9201 28.0441 76.9201 23.7879C76.9201 19.5317 80.2484 16.0795 84.385 16.0795C88.5216 16.0795 91.8975 19.4844 91.8975 23.7879Z" fill="white"/>
		<path d="M121.329 15.6066C120.759 14.7554 120.093 13.9987 119.332 13.4312C118.572 12.8164 117.716 12.3435 116.765 12.0125C115.101 11.3977 113.246 11.3031 111.344 11.6342C108.587 12.1071 106.59 13.5258 105.401 14.5662L105.258 13.0056C105.211 12.58 104.83 12.2962 104.45 12.2962H101.692C101.217 12.2962 100.884 12.6746 100.884 13.1002V34.4284C100.884 34.9013 101.264 35.2323 101.692 35.2323H104.735C105.211 35.2323 105.544 34.854 105.544 34.4284V19.248C107.778 17.6874 109.775 16.5997 112.058 16.1741C113.008 15.9849 114.197 16.1268 115.243 16.5051C116.147 16.8362 116.955 17.4037 117.43 18.2549C118.429 19.7682 118.429 21.6598 118.429 23.3623V34.3811C118.429 34.854 118.809 35.1851 119.237 35.1851H122.328C122.803 35.1851 123.136 34.8067 123.136 34.3811V25.585C123.136 25.2067 123.136 24.8283 123.136 24.45C123.184 22.4165 123.184 20.2411 122.565 18.2076C122.233 17.3091 121.852 16.3633 121.329 15.6066Z" fill="white"/>
		<path d="M149.144 12.2488H146.291C145.816 12.2488 145.483 12.6271 145.483 13.0527V14.4714C143.343 12.4852 140.586 11.4448 137.685 11.4448C131.124 11.4448 125.751 16.9779 125.751 23.8351C125.751 30.645 131.124 36.2253 137.685 36.2253C140.633 36.2253 143.486 35.1376 145.673 33.0568L145.816 34.5701C145.863 34.9957 146.244 35.2795 146.624 35.2795H149.192C149.667 35.2795 150 34.9011 150 34.4755V13.1946C150 12.6271 149.62 12.2488 149.144 12.2488ZM145.15 23.7878C145.15 28.044 141.822 31.4962 137.685 31.4962C133.549 31.4962 130.22 28.044 130.22 23.7878C130.22 19.5316 133.549 16.0793 137.685 16.0793C141.822 16.0793 145.15 19.4843 145.15 23.7878Z" fill="white"/>
		<path d="M70.5962 21.3759C69.7403 15.7483 65.2709 11.4448 59.4701 11.4448C59.4226 11.4448 59.375 11.4448 59.3275 11.4448C52.766 11.4448 47.3931 16.9779 47.3931 23.8351C47.3931 30.645 52.7184 36.178 59.3275 36.2253H59.5652C63.5592 36.2253 66.9826 34.5701 69.5026 31.7799C69.7879 31.4489 69.7879 31.0233 69.5026 30.6922L67.6958 28.706C67.5056 28.5169 67.3154 28.4223 67.0777 28.4223C66.84 28.4223 66.6022 28.5642 66.4596 28.7533C64.8905 30.7395 62.7984 31.5908 59.6128 31.5908C59.5177 31.5908 59.4226 31.5908 59.3275 31.5908C55.7139 31.5908 52.7184 28.9425 52.0052 25.4429H68.8845C69.9305 25.4429 70.7864 24.5917 70.7864 23.504C70.7388 23.4567 70.7388 22.4636 70.5962 21.3759ZM52.4331 20.8084C53.5267 18.0183 56.1894 16.0793 59.2799 16.0793H59.5177C62.6082 16.0793 65.2233 17.971 66.1743 20.8084H66.1267H52.4331Z" fill="white"/>
		<path d="M37.8836 2.64872C33.224 -1.27643 25.8542 -0.803526 15.8692 3.83099C3.79225 9.41132 1.79526 13.904 1.27224 15.0862C-2.00852 22.5109 1.60507 29.0371 5.88432 35.2322C10.9243 42.4204 15.4413 45.6835 21.0994 45.9672C23.7621 46.1091 27.1855 45.9672 31.5598 41.8056C34.2225 39.2519 36.9327 35.043 39.4051 28.1385C42.5433 19.4843 46.1093 9.64778 37.8836 2.64872ZM30.0383 25.2538C26.187 36.0361 23.4768 35.7524 21.2421 35.5632C19.15 35.3741 16.5825 33.2933 13.7296 29.1789C9.54546 23.173 9.83075 21.3759 10.8292 19.0114C11.5424 17.3089 13.9674 15.6537 20.101 12.7217C27.0429 9.41132 29.8006 9.93153 30.9893 10.7828C33.5568 12.6744 33.5568 15.5119 30.0383 25.2538Z" fill="url(#paint0_radial_2365_62608)"/>
	</g>
	<defs>
		<radialGradient id="paint0_radial_2365_62608" cx="0" cy="0" r="1" gradientUnits="userSpaceOnUse" gradientTransform="translate(22.7102 24.2588) scale(42.3526 42.1243)">
			<stop offset="0.2519" stop-color="#17E23B"/>
			<stop offset="0.4262" stop-color="#1AEB83"/>
			<stop offset="0.5994" stop-color="#1DF4C5"/>
			<stop offset="0.7243" stop-color="#1EF9EE"/>
			<stop offset="0.7885" stop-color="#1FFBFF"/>
		</radialGradient>
		<clipPath id="clip0_2365_62608">
			<rect width="150" height="46" fill="white"/>
		</clipPath>
	</defs>
</svg>
