<svg width="108" height="31" viewBox="0 0 108 31" fill="none" xmlns="http://www.w3.org/2000/svg">
	<path d="M15.5904 25.6031H19.4806V12.3402H15.5904V25.6031Z" fill="#0075FF"/>
	<path d="M15.1865 8.24638C15.1865 7.04082 16.1951 6.05933 17.5497 6.05933C18.8751 6.05933 19.8837 6.9848 19.8837 8.24638C19.8837 9.48034 18.8751 10.4896 17.5497 10.4896C16.1951 10.4896 15.1865 9.50835 15.1865 8.24638Z" fill="#0075FF"/>
	<path fill-rule="evenodd" clip-rule="evenodd" d="M0.31543 7.12479H6.28051C10.4012 7.12479 12.2456 9.45208 12.2456 11.8076C12.2456 13.3216 11.4675 14.8077 9.9978 15.5369V15.5929C12.2745 16.1817 13.5424 17.9762 13.5424 20.051C13.5424 22.8553 11.2946 25.6031 6.79923 25.6031H0.31543V7.12479ZM6.27983 22.4628C8.46984 22.4628 9.56485 21.7336 9.56485 20.0511C9.56485 18.6213 8.46984 17.808 6.65453 17.808H4.26272V22.4628H6.27983ZM5.76111 14.6673C7.49017 14.6673 8.38339 13.714 8.38339 12.5084C8.38339 11.2464 7.51906 10.2652 5.67465 10.2652H4.26272V14.6673H5.76111Z" fill="#0075FF"/>
	<path d="M23.1957 15.2846V22.1542C23.1957 24.4815 24.8094 25.8835 27.403 25.8835C28.7574 25.8835 30.544 25.519 31.5526 24.846L30.4287 22.2663C29.91 22.6028 29.1608 22.8552 28.4114 22.8552C27.5182 22.8552 27.1148 22.4347 27.1148 21.2009V15.2846H30.3422L31.2357 12.3403H27.1148V8.13427L23.1957 9.22779V12.3403H20.6885V15.2846H23.1957Z" fill="#0075FF"/>
	<path d="M32.6194 12.3403H35.9047L36.3367 13.7423C37.4895 12.7048 38.5845 12.0038 40.054 12.0038C40.717 12.0038 41.5239 12.2001 42.1289 12.6208L40.7745 15.7613C40.0831 15.3406 39.4202 15.2566 39.0457 15.2566C38.2098 15.2566 37.5471 15.5368 36.5098 16.3501V25.6032H32.6194V12.3403Z" fill="#0075FF"/>
	<path d="M46.7704 25.6031H42.88V12.3402H46.7704V25.6031Z" fill="#0075FF"/>
	<path d="M44.8391 6.05934C43.485 6.05934 42.4762 7.04083 42.4762 8.24639C42.4762 9.50836 43.485 10.4897 44.8391 10.4897C46.1648 10.4897 47.1734 9.48035 47.1734 8.24639C47.1734 6.98481 46.1648 6.05934 44.8391 6.05934Z" fill="#0075FF"/>
	<path d="M52.9081 18.9297L47.9227 12.3401H51.9574L55.0117 16.3781L58.0665 12.3401H62.1007L57.0577 18.9297L62.1582 25.603H58.124L54.983 21.4532L51.8131 25.603H47.7789L52.9081 18.9297Z" fill="#0075FF"/>
	<path d="M98.6329 11.4671H102.476V9.93002H100.17V7.23916H98.6329V11.4671Z" fill="#0075FF"/>
	<path fill-rule="evenodd" clip-rule="evenodd" d="M99.4042 3.77881C95.5834 3.77881 92.4859 6.87545 92.4859 10.6955C92.4859 14.5155 95.5834 17.6124 99.4042 17.6124C103.225 17.6124 106.322 14.5155 106.322 10.6955C106.322 6.87545 103.225 3.77881 99.4042 3.77881ZM99.4042 16.0753C96.4324 16.0753 94.0234 13.6666 94.0234 10.6955C94.0234 7.72439 96.4324 5.31592 99.4042 5.31592C102.376 5.31592 104.785 7.72439 104.785 10.6955C104.785 13.6666 102.376 16.0753 99.4042 16.0753Z" fill="#0075FF"/>
	<path d="M72.7657 12.5637C72.7657 10.996 71.4688 10.4461 70.0889 10.4461C68.24 10.4461 66.7222 11.051 65.3148 11.6837L64.3487 8.79609C65.9218 8.08093 68.1021 7.28342 70.6961 7.28342C74.7527 7.28342 76.7121 9.31853 76.7121 12.1785C76.7121 15.0117 74.5018 16.6905 72.373 18.3074C70.741 19.5469 69.1567 20.7503 68.6538 22.4092H76.9605V25.5993H63.7417C64.1925 20.1908 67.4022 17.8638 69.8666 16.0771C71.4747 14.9113 72.7657 13.9753 72.7657 12.5637Z" fill="#0075FF"/>
	<path fill-rule="evenodd" clip-rule="evenodd" d="M76.2972 18.8896L85.4039 7.33915H88.1086V18.2571H90.8131V21.2821H88.1086V25.5998H84.4382V21.2821H76.2972V18.8896ZM82.7824 18.2571H84.4382V16.3045C84.4382 14.9021 84.5485 13.2793 84.6039 12.9219L80.4918 18.3396C80.823 18.3121 82.1477 18.2571 82.7824 18.2571Z" fill="#0075FF"/>
</svg>