<svg width="161" height="30" viewBox="0 0 161 30" fill="none" xmlns="http://www.w3.org/2000/svg">
	<g clip-path="url(#clip0_3235_1369378)">
		<path d="M119.004 20.8001V20.7501C119.004 20.7501 119.004 20.7501 118.952 20.7001C118.952 20.7001 118.9 20.7001 118.849 20.7001C118.797 20.7001 118.746 20.7001 118.694 20.7001C118.642 20.7001 118.591 20.7001 118.591 20.7001C118.539 20.7001 118.539 20.7001 118.488 20.7001C118.488 20.7001 118.436 20.7001 118.436 20.7501L118.384 20.8001L116.371 23.7501C116.32 23.8501 116.268 23.9001 116.217 24.0001C116.165 24.1001 116.113 24.1501 116.062 24.2001C116.062 24.1501 116.062 24.0501 116.062 24.0001C116.062 23.9501 116.062 23.8501 116.062 23.8001V20.8001V20.7501L116.01 20.7001C116.01 20.7001 115.959 20.7001 115.907 20.7001C115.855 20.7001 115.804 20.7001 115.752 20.7001C115.7 20.7001 115.649 20.7001 115.597 20.7001C115.546 20.7001 115.546 20.7001 115.494 20.7001C115.494 20.7001 115.442 20.7001 115.442 20.7501V20.8001V25.1501V25.2001C115.442 25.2001 115.442 25.2501 115.494 25.2501C115.494 25.2501 115.546 25.2501 115.597 25.2501C115.649 25.2501 115.7 25.2501 115.752 25.2501C115.804 25.2501 115.855 25.2501 115.855 25.2501C115.907 25.2501 115.907 25.2501 115.959 25.2501C115.959 25.2501 116.01 25.2501 116.01 25.2001L116.062 25.1501L118.075 22.2001C118.126 22.1501 118.126 22.1001 118.178 22.1001C118.178 22.0501 118.229 22.0001 118.281 22.0001C118.281 21.9501 118.333 21.9001 118.333 21.9001C118.333 21.8501 118.384 21.8501 118.384 21.8001C118.384 21.8501 118.384 21.9501 118.384 22.0001C118.384 22.1001 118.384 22.1501 118.384 22.2001V25.1501V25.2001C118.384 25.2001 118.436 25.2001 118.436 25.2501C118.436 25.2501 118.488 25.2501 118.539 25.2501C118.591 25.2501 118.642 25.2501 118.694 25.2501C118.746 25.2501 118.797 25.2501 118.849 25.2501C118.9 25.2501 118.9 25.2501 118.952 25.2501C118.952 25.2501 119.004 25.2501 119.004 25.2001V25.1501V20.8001ZM125.249 20.9501C125.249 20.8501 125.249 20.8001 125.197 20.7501C125.146 20.7001 125.094 20.7001 125.042 20.7001H122.152C122.1 20.7001 122.049 20.7001 121.997 20.7501C121.946 20.8001 121.946 20.8501 121.946 20.9501V25.1501V25.2001C121.946 25.2001 121.946 25.2001 121.997 25.2501C121.997 25.2501 122.049 25.2501 122.1 25.2501C122.152 25.2501 122.204 25.2501 122.255 25.2501C122.307 25.2501 122.359 25.2501 122.41 25.2501C122.462 25.2501 122.462 25.2501 122.513 25.2501C122.513 25.2501 122.565 25.2501 122.565 25.2001V25.1501V21.2501H124.681V25.1501V25.2001C124.681 25.2001 124.733 25.2001 124.733 25.2501C124.733 25.2501 124.784 25.2501 124.836 25.2501C124.888 25.2501 124.939 25.2501 124.991 25.2501C125.042 25.2501 125.094 25.2501 125.146 25.2501C125.197 25.2501 125.197 25.2501 125.249 25.2501C125.249 25.2501 125.3 25.2501 125.3 25.2001V25.1501L125.249 20.9501ZM130.307 21.9001C130.204 21.6001 130.1 21.4001 129.946 21.2001C129.791 21.0001 129.584 20.8501 129.326 20.7501C129.068 20.6501 128.759 20.6001 128.449 20.6001C128.088 20.6001 127.778 20.6501 127.52 20.7501C127.262 20.8501 127.055 21.0001 126.849 21.2001C126.694 21.4001 126.539 21.6501 126.436 21.9501C126.333 22.2501 126.281 22.5501 126.281 22.9001C126.281 23.2501 126.333 23.6001 126.384 23.9001C126.488 24.2001 126.591 24.4501 126.746 24.6001C126.9 24.8001 127.107 24.9501 127.365 25.0501C127.623 25.1501 127.933 25.2001 128.294 25.2001C128.655 25.2001 128.965 25.1501 129.223 25.0501C129.481 24.9501 129.688 24.8001 129.894 24.6001C130.049 24.4001 130.204 24.1501 130.307 23.8501C130.41 23.5501 130.462 23.2501 130.462 22.8501C130.41 22.5501 130.359 22.2001 130.307 21.9001ZM129.688 23.6501C129.636 23.8501 129.584 24.0501 129.429 24.2501C129.326 24.4001 129.171 24.5501 128.965 24.6501C128.759 24.7501 128.552 24.8001 128.294 24.8001C128.036 24.8001 127.778 24.7501 127.623 24.6501C127.417 24.5501 127.313 24.4501 127.21 24.2501C127.107 24.1001 127.004 23.9001 127.004 23.6501C126.952 23.4501 126.952 23.2001 126.952 22.9001C126.952 22.6501 126.952 22.4501 127.004 22.2001C127.055 22.0001 127.159 21.8001 127.262 21.6501C127.365 21.5001 127.52 21.3501 127.726 21.2501C127.933 21.1501 128.139 21.1001 128.397 21.1001C128.655 21.1001 128.913 21.1501 129.068 21.2501C129.275 21.3501 129.378 21.4501 129.481 21.6501C129.584 21.8001 129.688 22.0001 129.739 22.2001C129.791 22.4001 129.791 22.6501 129.791 22.9001C129.739 23.2001 129.739 23.4001 129.688 23.6501ZM134.178 21.5501C134.126 21.4001 134.075 21.3001 133.971 21.2001C133.868 21.1001 133.765 21.0001 133.662 20.9501C133.507 20.9001 133.404 20.8501 133.3 20.8001C133.197 20.7501 133.042 20.7501 132.991 20.7501C132.888 20.7501 132.784 20.7501 132.681 20.7501H131.7C131.649 20.7501 131.597 20.7501 131.546 20.8001C131.494 20.8501 131.494 20.9001 131.494 21.0001V25.1501V25.2001L131.546 25.2501C131.546 25.2501 131.597 25.2501 131.649 25.2501C131.7 25.2501 131.752 25.2501 131.804 25.2501C131.855 25.2501 131.907 25.2501 131.959 25.2501C132.01 25.2501 132.01 25.2501 132.062 25.2501C132.062 25.2501 132.113 25.2501 132.113 25.2001V25.1501V23.5001H132.629C132.939 23.5001 133.146 23.4501 133.352 23.4001C133.559 23.3501 133.713 23.2501 133.868 23.1001C134.023 22.9501 134.126 22.8001 134.178 22.6501C134.229 22.4501 134.281 22.2501 134.281 22.0501C134.229 21.8501 134.229 21.7001 134.178 21.5501ZM133.559 22.4501C133.507 22.5501 133.455 22.6501 133.352 22.7501C133.249 22.8501 133.146 22.9001 133.042 22.9501C132.939 23.0001 132.784 23.0001 132.578 23.0001H132.01V21.2001H132.578C132.681 21.2001 132.784 21.2001 132.888 21.2001C132.991 21.2001 133.094 21.2501 133.197 21.3001C133.3 21.3501 133.404 21.4501 133.455 21.6001C133.507 21.7001 133.559 21.9001 133.559 22.0501C133.61 22.2001 133.559 22.3001 133.559 22.4501ZM137.997 20.9501C137.997 20.8501 137.997 20.8001 137.946 20.7501C137.894 20.7001 137.842 20.7001 137.791 20.7001H136.81C136.449 20.7001 136.139 20.7501 135.984 20.8001C135.778 20.8501 135.623 20.9501 135.468 21.0501C135.313 21.1501 135.262 21.3001 135.159 21.4501C135.107 21.6001 135.055 21.8001 135.055 21.9501C135.055 22.1001 135.055 22.2501 135.107 22.3501C135.159 22.4501 135.21 22.5501 135.313 22.6501C135.417 22.7501 135.468 22.8001 135.623 22.9001C135.726 22.9501 135.881 23.0001 136.036 23.0501C135.933 23.1001 135.881 23.1001 135.829 23.1501C135.778 23.2001 135.675 23.2501 135.623 23.3501C135.571 23.4001 135.52 23.5001 135.468 23.6001C135.417 23.7001 135.365 23.8001 135.313 23.9001L134.952 24.8501C134.9 24.9001 134.9 24.9501 134.9 25.0001C134.9 25.0501 134.9 25.0501 134.9 25.1001V25.1501C134.9 25.1501 134.9 25.1501 134.952 25.2001C134.952 25.2001 135.004 25.2001 135.055 25.2001C135.107 25.2001 135.159 25.2001 135.21 25.2001C135.262 25.2001 135.313 25.2001 135.365 25.2001C135.417 25.2001 135.417 25.2001 135.468 25.2001C135.52 25.2001 135.52 25.1501 135.52 25.1501C135.52 25.1501 135.52 25.1001 135.571 25.1001L135.984 24.0501C136.036 23.9501 136.088 23.8001 136.139 23.7001C136.191 23.6001 136.242 23.5001 136.346 23.4501C136.397 23.4001 136.5 23.3001 136.604 23.3001C136.707 23.2501 136.862 23.2501 137.017 23.2501H137.481V25.1501V25.2001C137.481 25.2001 137.533 25.2001 137.533 25.2501C137.533 25.2501 137.584 25.2501 137.636 25.2501C137.688 25.2501 137.739 25.2501 137.791 25.2501C137.842 25.2501 137.894 25.2501 137.946 25.2501C137.997 25.2501 137.997 25.2501 138.049 25.2501C138.049 25.2501 138.1 25.2501 138.1 25.2001V25.1501L137.997 20.9501ZM137.378 22.7501H136.759C136.552 22.7501 136.346 22.7501 136.242 22.7001C136.139 22.6501 136.036 22.6001 135.933 22.5501C135.829 22.5001 135.778 22.4001 135.778 22.3001C135.726 22.2001 135.726 22.1001 135.726 22.0001C135.726 21.9001 135.726 21.8001 135.778 21.7001C135.829 21.6001 135.881 21.5001 135.933 21.4501C136.036 21.4001 136.139 21.3501 136.242 21.3001C136.346 21.2501 136.552 21.2501 136.81 21.2501H137.378V22.7501ZM143.21 24.8501C143.21 24.8001 143.21 24.7501 143.159 24.7001C143.159 24.6501 143.107 24.6501 143.055 24.6501H142.591V20.9001C142.591 20.8001 142.591 20.7501 142.539 20.7001C142.488 20.6501 142.436 20.6501 142.384 20.6501H140.217C140.165 20.6501 140.113 20.6501 140.062 20.7001C140.01 20.7501 140.01 20.8001 140.01 20.9001C139.959 21.4001 139.907 21.8001 139.855 22.1501C139.804 22.5001 139.752 22.8001 139.7 23.0501C139.649 23.3001 139.597 23.5001 139.546 23.7001C139.494 23.8501 139.442 24.0001 139.391 24.1501C139.339 24.2501 139.288 24.3501 139.236 24.4501C139.184 24.5501 139.133 24.6001 139.029 24.7001H138.771C138.72 24.7001 138.668 24.7001 138.668 24.7501C138.668 24.8001 138.617 24.8001 138.617 24.9001V26.3501V26.4001C138.617 26.4001 138.617 26.4001 138.668 26.4501C138.668 26.4501 138.72 26.4501 138.771 26.4501C138.823 26.4501 138.875 26.4501 138.926 26.4501C138.978 26.4501 139.029 26.4501 139.029 26.4501C139.081 26.4501 139.081 26.4501 139.133 26.4501C139.133 26.4501 139.184 26.4501 139.184 26.4001V26.3501V25.2501H142.694V26.3501V26.4001C142.694 26.4001 142.694 26.4001 142.746 26.4501C142.746 26.4501 142.797 26.4501 142.849 26.4501C142.9 26.4501 142.9 26.4501 142.952 26.4501C143.004 26.4501 143.055 26.4501 143.107 26.4501C143.159 26.4501 143.159 26.4501 143.21 26.4501C143.21 26.4501 143.262 26.4501 143.262 26.4001V26.3501L143.21 24.8501ZM141.971 24.7001H139.7C139.752 24.6501 139.804 24.5501 139.855 24.5001C139.907 24.4001 139.959 24.3001 140.01 24.2001C140.062 24.1001 140.113 23.9501 140.165 23.8001C140.217 23.6501 140.268 23.4501 140.32 23.2001C140.371 22.9501 140.423 22.7001 140.475 22.3501C140.526 22.0501 140.578 21.6501 140.629 21.2001H142.023L141.971 24.7001ZM147.649 21.9001C147.546 21.6001 147.442 21.4001 147.288 21.2001C147.133 21.0001 146.926 20.8501 146.668 20.7501C146.41 20.6501 146.1 20.6001 145.791 20.6001C145.429 20.6001 145.12 20.6501 144.862 20.7501C144.604 20.8501 144.397 21.0001 144.191 21.2001C144.036 21.4001 143.881 21.6501 143.778 21.9501C143.675 22.2501 143.623 22.5501 143.623 22.9001C143.623 23.2501 143.675 23.6001 143.726 23.9001C143.829 24.2001 143.933 24.4501 144.088 24.6001C144.242 24.8001 144.449 24.9501 144.707 25.0501C144.965 25.1501 145.275 25.2001 145.636 25.2001C145.997 25.2001 146.307 25.1501 146.565 25.0501C146.823 24.9501 147.029 24.8001 147.236 24.6001C147.391 24.4001 147.546 24.1501 147.649 23.8501C147.752 23.5501 147.804 23.2501 147.804 22.8501C147.804 22.5501 147.752 22.2001 147.649 21.9001ZM147.081 23.6501C147.029 23.8501 146.978 24.0501 146.823 24.2501C146.72 24.4001 146.565 24.5501 146.359 24.6501C146.152 24.7501 145.946 24.8001 145.688 24.8001C145.429 24.8001 145.171 24.7501 145.017 24.6501C144.81 24.5501 144.707 24.4501 144.604 24.2501C144.5 24.1001 144.397 23.9001 144.397 23.6501C144.346 23.4501 144.346 23.2001 144.346 22.9001C144.346 22.6501 144.346 22.4501 144.397 22.2001C144.449 22.0001 144.552 21.8001 144.655 21.6501C144.759 21.5001 144.913 21.3501 145.12 21.2501C145.326 21.1501 145.533 21.1001 145.791 21.1001C146.049 21.1001 146.307 21.1501 146.462 21.2501C146.668 21.3501 146.771 21.4501 146.875 21.6501C146.978 21.8001 147.081 22.0001 147.133 22.2001C147.184 22.4001 147.184 22.6501 147.184 22.9001C147.133 23.2001 147.133 23.4001 147.081 23.6501ZM151.881 25.0501C151.881 25.0501 151.881 25.0001 151.829 24.9001L151.417 23.8001C151.365 23.6501 151.313 23.5001 151.21 23.4001C151.159 23.3001 151.055 23.2001 151.004 23.1001C150.952 23.0001 150.849 22.9501 150.746 22.9001C150.642 22.8501 150.539 22.8001 150.436 22.7501C150.539 22.7001 150.642 22.7001 150.694 22.6501C150.797 22.6001 150.849 22.5501 150.9 22.4501C150.952 22.4001 151.004 22.3001 151.107 22.2001C151.159 22.1001 151.21 22.0001 151.262 21.8501L151.623 20.9001C151.623 20.8501 151.623 20.8001 151.675 20.8001C151.675 20.7501 151.675 20.7501 151.675 20.7001V20.6501C151.675 20.6501 151.675 20.6001 151.623 20.6001C151.623 20.6001 151.571 20.6001 151.52 20.6001C151.468 20.6001 151.417 20.6001 151.365 20.6001C151.313 20.6001 151.262 20.6001 151.21 20.6001C151.159 20.6001 151.159 20.6001 151.107 20.6501L151.055 20.7001C151.055 20.7001 151.055 20.7501 151.004 20.7501L150.642 21.7501C150.591 21.9001 150.539 22.0001 150.488 22.1001C150.436 22.2001 150.333 22.3001 150.281 22.3501C150.178 22.4001 150.126 22.4501 149.971 22.5001C149.868 22.5501 149.713 22.5501 149.61 22.5501H149.352V20.7001V20.6501L149.3 20.6001C149.3 20.6001 149.249 20.6001 149.197 20.6001C149.146 20.6001 149.094 20.6001 149.042 20.6001C148.991 20.6001 148.939 20.6001 148.888 20.6001C148.836 20.6001 148.836 20.6001 148.784 20.6001C148.784 20.6001 148.733 20.6001 148.733 20.6501V20.7001V25.0501V25.1001L148.784 25.1501C148.784 25.1501 148.836 25.1501 148.888 25.1501C148.939 25.1501 148.991 25.1501 149.042 25.1501C149.094 25.1501 149.146 25.1501 149.197 25.1501C149.249 25.1501 149.249 25.1501 149.3 25.1501C149.3 25.1501 149.352 25.1501 149.352 25.1001V25.0501V23.1001H149.61C149.765 23.1001 149.868 23.1001 150.023 23.1501C150.126 23.2001 150.229 23.2501 150.333 23.3001C150.436 23.3501 150.488 23.4501 150.591 23.5501C150.642 23.6501 150.746 23.8001 150.797 23.9501L151.21 25.0501C151.21 25.1001 151.21 25.1001 151.262 25.1001L151.313 25.1501C151.313 25.1501 151.365 25.1501 151.417 25.2001C151.468 25.2001 151.52 25.2001 151.571 25.2001C151.623 25.2001 151.675 25.2001 151.726 25.2001C151.778 25.2001 151.778 25.2001 151.829 25.2001C151.829 25.2001 151.881 25.2001 151.881 25.1501V25.1001V25.0501ZM153.842 20.5501C153.842 20.5001 153.842 20.5001 153.842 20.5001L153.791 20.4501C153.791 20.4501 153.739 20.4501 153.688 20.4001C153.636 20.4001 153.584 20.4001 153.533 20.4001C153.481 20.4001 153.429 20.4001 153.378 20.4001C153.326 20.4001 153.326 20.4001 153.275 20.4501L153.223 20.5001V20.5501L153.275 23.9001V23.9501C153.275 23.9501 153.275 24.0001 153.326 24.0001C153.326 24.0001 153.378 24.0001 153.429 24.0001C153.481 24.0001 153.481 24.0001 153.533 24.0001C153.584 24.0001 153.636 24.0001 153.636 24.0001C153.688 24.0001 153.688 24.0001 153.739 24.0001C153.739 24.0001 153.791 24.0001 153.791 23.9501V23.9001L153.842 20.5501ZM153.842 24.6501C153.842 24.6001 153.791 24.5501 153.791 24.5501C153.739 24.5001 153.739 24.5001 153.688 24.5001C153.636 24.5001 153.584 24.5001 153.481 24.5001C153.429 24.5001 153.326 24.5001 153.275 24.5001C153.223 24.5001 153.171 24.5501 153.171 24.5501C153.12 24.6001 153.12 24.6001 153.12 24.6501C153.12 24.7001 153.12 24.7501 153.12 24.8501C153.12 24.9501 153.12 25.0001 153.12 25.0501C153.12 25.1001 153.171 25.1501 153.171 25.1501C153.223 25.2001 153.223 25.2001 153.275 25.2001C153.326 25.2001 153.378 25.2001 153.481 25.2001C153.533 25.2001 153.636 25.2001 153.688 25.2001C153.739 25.2001 153.791 25.1501 153.791 25.1501C153.842 25.1001 153.842 25.1001 153.842 25.0501C153.842 25.0001 153.842 24.9501 153.842 24.8501C153.894 24.7501 153.894 24.7001 153.842 24.6501Z" fill="#10AD5B"/>
		<path d="M118.849 12.35C118.849 12.25 118.849 12.2 118.798 12.15C118.746 12.1 118.694 12.1 118.643 12.1H115.752C115.701 12.1 115.649 12.1 115.598 12.15C115.546 12.2 115.546 12.25 115.546 12.35V16.55V16.6C115.546 16.6 115.598 16.6 115.598 16.65C115.598 16.65 115.649 16.65 115.701 16.65C115.752 16.65 115.804 16.65 115.856 16.65C115.907 16.65 115.959 16.65 116.01 16.65C116.062 16.65 116.062 16.65 116.114 16.65C116.114 16.65 116.165 16.65 116.165 16.6V16.55V12.65H118.281V16.55V16.6C118.281 16.6 118.333 16.6 118.333 16.65C118.333 16.65 118.385 16.65 118.436 16.65C118.488 16.65 118.539 16.65 118.591 16.65C118.643 16.65 118.694 16.65 118.746 16.65C118.798 16.65 118.798 16.65 118.849 16.65C118.849 16.65 118.901 16.65 118.901 16.6V16.55L118.849 12.35ZM123.907 13.35C123.804 13.05 123.701 12.85 123.546 12.65C123.391 12.45 123.185 12.3 122.927 12.2C122.668 12.1 122.359 12.05 122.049 12.05C121.688 12.05 121.378 12.1 121.12 12.2C120.862 12.3 120.656 12.45 120.449 12.65C120.294 12.85 120.139 13.1 120.036 13.4C119.933 13.7 119.881 14 119.881 14.35C119.881 14.7 119.933 15.05 119.985 15.35C120.088 15.65 120.191 15.9 120.346 16.05C120.501 16.25 120.707 16.4 120.965 16.5C121.223 16.6 121.533 16.65 121.894 16.65C122.256 16.65 122.565 16.6 122.823 16.5C123.081 16.4 123.288 16.25 123.494 16.05C123.649 15.85 123.804 15.6 123.907 15.3C124.01 15 124.062 14.7 124.062 14.3C124.01 13.95 123.959 13.65 123.907 13.35ZM123.288 15.05C123.236 15.25 123.185 15.45 123.03 15.65C122.927 15.8 122.772 15.95 122.565 16.05C122.359 16.15 122.152 16.2 121.894 16.2C121.636 16.2 121.378 16.15 121.223 16.05C121.068 15.95 120.914 15.85 120.81 15.65C120.707 15.5 120.604 15.3 120.604 15.05C120.552 14.85 120.552 14.6 120.552 14.3C120.552 14.05 120.552 13.85 120.604 13.6C120.656 13.4 120.759 13.2 120.862 13.05C120.965 12.9 121.12 12.75 121.327 12.65C121.533 12.55 121.739 12.5 121.998 12.5C122.256 12.5 122.514 12.55 122.668 12.65C122.875 12.75 122.978 12.85 123.081 13.05C123.185 13.2 123.288 13.4 123.339 13.6C123.391 13.8 123.391 14.05 123.391 14.3C123.339 14.6 123.339 14.85 123.288 15.05ZM128.088 15.85C128.088 15.8 128.088 15.8 128.088 15.75C128.088 15.75 128.088 15.7 128.036 15.7C128.036 15.7 128.036 15.7 127.985 15.7C127.933 15.7 127.881 15.7 127.83 15.75C127.778 15.8 127.675 15.85 127.572 15.9C127.468 15.95 127.365 16 127.21 16.05C127.056 16.1 126.901 16.1 126.746 16.1C126.539 16.1 126.333 16.05 126.178 16C126.023 15.9 125.868 15.8 125.714 15.65C125.61 15.5 125.507 15.3 125.456 15.1C125.404 14.9 125.352 14.65 125.352 14.35C125.352 14.05 125.404 13.8 125.456 13.6C125.507 13.4 125.61 13.2 125.714 13.05C125.817 12.9 125.972 12.8 126.127 12.7C126.281 12.6 126.488 12.6 126.694 12.6C126.901 12.6 127.056 12.6 127.21 12.65C127.365 12.7 127.468 12.75 127.572 12.8C127.675 12.85 127.727 12.9 127.83 12.95C127.881 13 127.933 13 127.985 13H128.036C128.036 13 128.036 12.95 128.088 12.95C128.088 12.95 128.088 12.9 128.088 12.85C128.088 12.8 128.088 12.8 128.088 12.75C128.088 12.7 128.088 12.65 128.088 12.65C128.088 12.6 128.088 12.6 128.088 12.55V12.5L128.036 12.45C127.985 12.4 127.933 12.4 127.881 12.35C127.778 12.3 127.675 12.25 127.572 12.2C127.468 12.15 127.365 12.15 127.21 12.1C127.107 12.1 126.952 12.05 126.798 12.05C126.488 12.05 126.23 12.1 125.972 12.2C125.714 12.3 125.507 12.45 125.301 12.65C125.094 12.85 124.991 13.1 124.888 13.4C124.785 13.7 124.733 14.05 124.733 14.4C124.733 14.75 124.785 15.1 124.888 15.35C124.991 15.65 125.094 15.85 125.301 16.05C125.456 16.25 125.662 16.4 125.92 16.5C126.178 16.6 126.436 16.65 126.746 16.65C126.901 16.65 127.107 16.65 127.21 16.6C127.365 16.55 127.468 16.55 127.623 16.5C127.727 16.45 127.83 16.4 127.933 16.35C127.985 16.3 128.036 16.25 128.088 16.25L128.139 16.2V16.15V16.1C128.139 16.05 128.139 16.05 128.139 16C128.088 15.95 128.088 15.9 128.088 15.85ZM132.165 12.35C132.165 12.25 132.165 12.2 132.114 12.15C132.062 12.1 132.01 12.1 131.959 12.1H129.894C129.843 12.1 129.791 12.1 129.739 12.15C129.688 12.2 129.688 12.25 129.688 12.35C129.636 12.9 129.585 13.35 129.533 13.75C129.481 14.15 129.43 14.5 129.327 14.75C129.275 15.05 129.223 15.25 129.12 15.45C129.068 15.6 128.965 15.75 128.914 15.85C128.862 15.95 128.759 16 128.707 16.05C128.656 16.1 128.552 16.1 128.449 16.1H128.398L128.346 16.15C128.346 16.15 128.346 16.2 128.346 16.25C128.346 16.3 128.346 16.35 128.346 16.4C128.346 16.45 128.346 16.5 128.346 16.5C128.346 16.55 128.346 16.55 128.398 16.6L128.449 16.65H128.501C128.707 16.65 128.862 16.65 128.965 16.6C129.068 16.55 129.223 16.45 129.327 16.35C129.43 16.25 129.533 16.05 129.636 15.85C129.739 15.65 129.791 15.4 129.894 15.1C129.946 14.8 130.049 14.45 130.101 14.05C130.152 13.65 130.256 13.15 130.307 12.65H131.598V16.55V16.6C131.598 16.6 131.649 16.6 131.649 16.65C131.649 16.65 131.701 16.65 131.752 16.65C131.804 16.65 131.856 16.65 131.907 16.65C131.959 16.65 132.01 16.65 132.062 16.65C132.114 16.65 132.114 16.65 132.165 16.65C132.165 16.65 132.217 16.65 132.217 16.6V16.55L132.165 12.35ZM135.365 12.2C135.365 12.15 135.365 12.15 135.314 12.15L135.262 12.1C135.21 12.1 135.21 12.1 135.159 12.1C135.107 12.1 135.056 12.1 134.952 12.1C134.901 12.1 134.798 12.1 134.798 12.1C134.746 12.1 134.694 12.1 134.694 12.1C134.643 12.1 134.643 12.1 134.643 12.15L134.591 12.2L133.043 16.4C133.043 16.45 132.991 16.5 132.991 16.5C132.991 16.55 132.991 16.55 132.991 16.55C132.991 16.55 133.043 16.6 133.094 16.6C133.146 16.6 133.198 16.6 133.249 16.6C133.301 16.6 133.352 16.6 133.404 16.6C133.456 16.6 133.456 16.6 133.507 16.6C133.507 16.6 133.559 16.6 133.559 16.55C133.559 16.55 133.559 16.5 133.61 16.5L133.972 15.4H135.933L136.346 16.5C136.346 16.5 136.346 16.55 136.398 16.55L136.449 16.6C136.449 16.6 136.501 16.6 136.552 16.6C136.604 16.6 136.656 16.6 136.707 16.6C136.759 16.6 136.862 16.6 136.862 16.6C136.914 16.6 136.914 16.6 136.965 16.55L137.017 16.5C137.017 16.45 137.017 16.45 136.965 16.4L135.365 12.2ZM135.727 14.95H134.127L134.952 12.7L135.727 14.95ZM140.939 12.35C140.939 12.25 140.939 12.2 140.888 12.15C140.836 12.1 140.785 12.1 140.733 12.1H138.668C138.617 12.1 138.565 12.1 138.514 12.15C138.462 12.2 138.462 12.25 138.462 12.35C138.41 12.9 138.359 13.35 138.307 13.75C138.256 14.15 138.204 14.5 138.101 14.75C138.049 15.05 137.998 15.25 137.894 15.45C137.843 15.6 137.739 15.75 137.688 15.85C137.636 15.95 137.533 16 137.481 16.05C137.378 16.1 137.327 16.1 137.223 16.1H137.172L137.12 16.15C137.12 16.15 137.12 16.2 137.12 16.25C137.12 16.3 137.12 16.35 137.12 16.4C137.12 16.45 137.12 16.5 137.12 16.5C137.12 16.55 137.12 16.55 137.172 16.6L137.223 16.65H137.275C137.43 16.65 137.636 16.65 137.739 16.6C137.894 16.55 137.998 16.45 138.101 16.35C138.204 16.25 138.307 16.05 138.41 15.85C138.514 15.65 138.565 15.4 138.668 15.1C138.72 14.8 138.823 14.45 138.875 14.05C138.927 13.65 139.03 13.15 139.081 12.65H140.372V16.55V16.6C140.372 16.6 140.423 16.6 140.423 16.65C140.423 16.65 140.475 16.65 140.527 16.65C140.578 16.65 140.63 16.65 140.681 16.65C140.733 16.65 140.785 16.65 140.836 16.65C140.888 16.65 140.888 16.65 140.939 16.65C140.939 16.65 140.991 16.65 140.991 16.6V16.55L140.939 12.35ZM149.352 14.45C149.301 14.4 149.301 14.4 149.249 14.4H143.933C143.881 14.4 143.881 14.4 143.83 14.45C143.83 14.5 143.778 14.55 143.778 14.65C143.778 14.75 143.778 14.8 143.83 14.85C143.881 14.9 143.881 14.9 143.933 14.9H149.249C149.301 14.9 149.301 14.9 149.352 14.85C149.404 14.8 149.404 14.75 149.404 14.65C149.404 14.55 149.404 14.5 149.352 14.45Z" fill="#10AD5B"/>
		<path d="M111.21 21.4501C105.946 19.5501 103.933 13.1001 103.933 13.1001" stroke="#10AD5B" stroke-width="0.9354" stroke-miterlimit="10" stroke-linecap="round"/>
		<path d="M111.21 14.85C108.113 16.05 104.139 13.25 104.139 13.25" stroke="#10AD5B" stroke-width="0.9354" stroke-miterlimit="10" stroke-linecap="round"/>
		<path d="M111.158 21.5V25.8C111.158 25.8 111.158 28.75 114.152 28.75H159.829C159.829 28.75 159.984 28.75 159.984 28.6V11.5C159.984 11.5 159.984 8.55005 156.939 8.55005H111.519C111.519 8.55005 111.158 8.55005 111.158 8.95005V15" stroke="#10AD5B" stroke-width="0.9354" stroke-miterlimit="10"/>
		<path d="M41.584 11.6999C41.584 10.4499 41.9453 9.5499 42.6162 8.9999C43.2872 8.4499 44.4227 8.1499 45.9195 8.1499H52.6808C55.313 8.1499 56.7582 9.0499 57.1711 10.7999L55.8808 11.7499C55.8808 10.9999 55.6227 10.4499 55.1582 10.0499C54.5904 9.6499 53.713 9.4499 52.4227 9.4499H45.9711C44.784 9.4499 43.9582 9.6499 43.5453 9.9999C43.184 10.3499 42.9775 10.8999 42.9775 11.6999C42.9775 12.4499 43.184 12.8999 43.5969 13.1499C44.0614 13.4499 45.042 13.5999 46.4356 13.5999H52.4227C54.1775 13.5999 55.4162 13.8499 56.1904 14.3999C56.9646 14.8999 57.3775 15.7499 57.3775 16.8999V17.1499C57.3775 18.4499 57.0162 19.3499 56.3453 19.8999C55.6743 20.4499 54.5388 20.6999 52.9904 20.6999H46.0743C44.6808 20.6999 43.6485 20.3999 42.8743 19.8499C42.1001 19.2499 41.6872 18.3499 41.6872 17.1499L43.0808 16.1499C43.0808 16.8999 42.9775 18.3499 43.8033 18.8499C44.4227 19.1999 45.2485 19.4999 46.5388 19.4999H52.8872C53.9195 19.4999 54.7453 19.2999 55.2614 18.9499C55.7775 18.5999 56.0356 17.9999 56.0356 17.1999C56.0356 16.3999 55.8291 15.7999 55.3646 15.4499C54.9001 15.0999 54.0743 14.9499 52.8356 14.9499H46.0227C44.3195 14.9499 43.1324 14.6999 42.4614 14.1499C41.8421 13.6499 41.584 12.8499 41.584 11.6999Z" fill="#10AD5B"/>
		<path d="M78.9521 20.7499H77.5585V9.1999H76.7843L69.5585 20.7499H68.8359L61.6101 9.1999H60.8359V20.7499H59.4424V8.1499H62.4359L69.1972 18.8999L75.9585 8.1499H78.9521V20.7499Z" fill="#10AD5B"/>
		<path d="M81.1709 11.6999C81.1709 10.4499 81.5322 9.5499 82.2032 8.9999C82.8741 8.4499 84.0096 8.1499 85.5064 8.1499H92.2677C95.3128 8.1499 96.8096 9.3499 96.8096 11.6999L95.4161 12.4499C95.4161 11.6999 95.5193 10.8499 94.6935 9.9999C94.1773 9.5499 93.2483 9.3999 91.958 9.3999H85.5064C84.3193 9.3999 83.4935 9.5999 83.0806 9.9499C82.7193 10.2999 82.5128 10.8499 82.5128 11.6499C82.5128 12.3999 82.7193 12.8499 83.1322 13.0999C83.5967 13.3999 84.5774 13.5499 85.9709 13.5499H91.958C93.7128 13.5499 94.9515 13.7999 95.7774 14.3499C96.5515 14.8499 96.9644 15.6999 96.9644 16.8499V17.0999C96.9644 18.3999 96.6032 19.2999 95.9322 19.8499C95.2612 20.3999 94.1257 20.6499 92.5773 20.6499H85.6612C84.2677 20.6499 83.2354 20.3499 82.4612 19.7999C81.8935 19.3499 81.5322 18.7499 81.3773 18.0499L82.6677 17.0999C82.6677 17.8499 82.9257 18.3999 83.3903 18.7999C83.958 19.1999 84.8354 19.4499 86.1257 19.4499H92.4741C93.5064 19.4499 94.3322 19.2499 94.8483 18.8999C95.3644 18.5499 95.6225 17.9499 95.6225 17.1499C95.6225 16.3499 95.4161 15.7499 94.9515 15.3999C94.487 15.0499 93.6612 14.8999 92.4225 14.8999H85.6612C83.958 14.8999 82.7709 14.6499 82.0999 14.0999C81.429 13.6499 81.1709 12.8499 81.1709 11.6999Z" fill="#10AD5B"/>
		<path d="M42.5129 25.65H41.7387C41.7387 25.05 41.8935 24.65 42.2032 24.5C42.5129 24.35 43.029 24.25 43.7516 24.25C44.2677 24.25 44.6806 24.3 44.9903 24.35C45.3 24.45 45.558 24.6 45.7129 24.85C45.8677 25.1 45.9709 25.45 45.9709 25.95V29.05H45.2484L45.3 28.55C45.0935 28.8 44.8871 28.95 44.5774 29C44.3193 29.1 43.958 29.1 43.5451 29.1C43.0806 29.1 42.7193 29.05 42.4096 29C42.1 28.9 41.8935 28.75 41.7387 28.55C41.5838 28.35 41.5322 28 41.5322 27.6C41.5322 27.2 41.6355 26.9 41.7903 26.7C41.9451 26.5 42.1516 26.35 42.4613 26.3C42.7193 26.25 43.0806 26.2 43.5451 26.2C43.958 26.2 44.2677 26.25 44.5258 26.3C44.7838 26.35 44.9903 26.5 45.1451 26.7V26.15C45.1451 25.75 45.0935 25.45 45.0419 25.25C44.9903 25.05 44.8355 24.95 44.629 24.9C44.4225 24.85 44.1129 24.8 43.6484 24.8C43.1838 24.8 42.8225 24.85 42.6677 25C42.5129 25.1 42.4613 25.25 42.4613 25.55C42.4613 25.55 42.4613 25.6 42.4613 25.65C42.5129 25.55 42.5129 25.6 42.5129 25.65ZM42.358 27.5C42.358 27.9 42.4613 28.15 42.6161 28.3C42.7709 28.45 43.0806 28.5 43.5451 28.5C43.9064 28.5 44.1645 28.5 44.3709 28.45C44.5774 28.4 44.7838 28.35 44.9903 28.2C45.1451 28.05 45.2484 27.85 45.2484 27.6C45.2484 27.2 45.1451 26.95 44.8871 26.85C44.629 26.75 44.3193 26.7 43.8032 26.7H43.5967C43.029 26.7 42.6677 26.75 42.5129 26.9C42.4096 27 42.358 27.2 42.358 27.5Z" fill="#10AD5B"/>
		<path d="M51.6998 27.2999H52.474C52.474 27.7999 52.4224 28.15 52.2676 28.4C52.1127 28.65 51.9063 28.85 51.5966 28.95C51.2869 29.05 50.874 29.1 50.3063 29.1C49.7901 29.1 49.3772 29.05 49.0676 28.95C48.7579 28.85 48.5514 28.7 48.3966 28.5C48.2418 28.3 48.1385 28.05 48.1385 27.75C48.0869 27.45 48.0869 27.05 48.0869 26.5C48.0869 25.95 48.1385 25.5 48.2934 25.15C48.3966 24.8 48.6547 24.6 48.9643 24.45C49.274 24.3 49.7385 24.2 50.3579 24.2C51.0289 24.2 51.545 24.3 51.8547 24.5C52.2159 24.7 52.3708 25.1 52.3708 25.65V25.7999H51.5966C51.5966 25.4999 51.545 25.3 51.4934 25.15C51.3901 25 51.2869 24.9 51.1321 24.85C50.9772 24.8 50.7192 24.75 50.4095 24.75C49.945 24.75 49.5837 24.8 49.3772 24.9C49.1708 25 49.0159 25.15 48.9643 25.35C48.9127 25.55 48.8611 25.9 48.8611 26.4V26.9C48.8611 27.3 48.8611 27.65 48.9127 27.85C48.9643 28.05 49.0676 28.25 49.274 28.35C49.4805 28.45 49.7901 28.5 50.203 28.5C50.6159 28.5 50.9256 28.45 51.1321 28.4C51.3385 28.3499 51.4418 28.2499 51.545 28.0499C51.6482 27.8999 51.6998 27.6499 51.6998 27.2999Z" fill="#10AD5B"/>
		<path d="M58.1002 27.2999H58.8744C58.8744 27.7999 58.8228 28.15 58.6679 28.4C58.5131 28.65 58.3067 28.85 57.997 28.95C57.6873 29.05 57.2744 29.1 56.7067 29.1C56.1905 29.1 55.7776 29.05 55.468 28.95C55.1583 28.85 54.9518 28.7 54.797 28.5C54.6421 28.3 54.5389 28.05 54.5389 27.75C54.4873 27.45 54.4873 27.05 54.4873 26.5C54.4873 25.95 54.5389 25.5 54.6938 25.15C54.8486 24.8 55.055 24.6 55.3647 24.45C55.6744 24.3 56.1389 24.2 56.7583 24.2C57.4292 24.2 57.9454 24.3 58.255 24.5C58.6163 24.7 58.7712 25.1 58.7712 25.65V25.7999H58.0486C58.0486 25.4999 57.997 25.3 57.9454 25.15C57.8421 25 57.7389 24.9 57.5841 24.85C57.4292 24.8 57.1712 24.75 56.8615 24.75C56.397 24.75 56.0357 24.8 55.8292 24.9C55.6228 25 55.468 25.15 55.4163 25.35C55.3647 25.55 55.3131 25.9 55.3131 26.4V26.9C55.3131 27.3 55.3647 27.65 55.3647 27.85C55.4163 28.05 55.5196 28.25 55.726 28.35C55.9325 28.45 56.2421 28.5 56.655 28.5C57.068 28.5 57.3776 28.45 57.5841 28.4C57.7905 28.3499 57.8938 28.2499 57.997 28.0499C58.0486 27.8999 58.1002 27.6499 58.1002 27.2999Z" fill="#10AD5B"/>
		<path d="M71.1061 27.2999H71.8803C71.8803 27.7999 71.8286 28.15 71.6738 28.4C71.519 28.65 71.3125 28.85 71.0028 28.95C70.6932 29.05 70.2803 29.1 69.7125 29.1C69.1964 29.1 68.7835 29.05 68.4738 28.95C68.1641 28.85 67.9577 28.7 67.8028 28.5C67.648 28.3 67.5448 28.05 67.5448 27.75C67.4932 27.45 67.4932 27.05 67.4932 26.5C67.4932 25.95 67.5448 25.5 67.6996 25.15C67.8028 24.8 68.0609 24.6 68.3706 24.45C68.6803 24.3 69.1448 24.2 69.7641 24.2C70.4351 24.2 70.9512 24.3 71.2609 24.5C71.6222 24.7 71.777 25.1 71.777 25.65V25.7999H71.0545C71.0545 25.4999 71.0028 25.3 70.9512 25.15C70.848 25 70.7448 24.9 70.5899 24.85C70.4351 24.8 70.177 24.75 69.8674 24.75C69.4028 24.75 69.0415 24.8 68.8351 24.9C68.6286 25 68.4738 25.15 68.4222 25.35C68.3706 25.55 68.319 25.9 68.319 26.4V26.9C68.319 27.3 68.3706 27.65 68.3706 27.85C68.4222 28.05 68.5254 28.25 68.7319 28.35C68.9383 28.45 69.248 28.5 69.6609 28.5C70.0738 28.5 70.3835 28.45 70.5899 28.4C70.7964 28.3499 70.8996 28.2499 71.0028 28.0499C71.0545 27.8999 71.1061 27.6499 71.1061 27.2999Z" fill="#10AD5B"/>
		<path d="M83.2874 27.5499H84.1132C84.1132 27.9999 84.01 28.3499 83.8552 28.5499C83.7003 28.7499 83.4423 28.8999 83.1326 28.9499C82.8229 28.9999 82.41 29.0499 81.8939 29.0499C81.4294 29.0499 81.0164 28.9999 80.7068 28.9499C80.3971 28.8499 80.1906 28.7499 80.0358 28.5499C79.881 28.3499 79.7777 28.1499 79.6745 27.8499C79.6229 27.5499 79.5713 27.1999 79.5713 26.6999C79.5713 26.0499 79.6229 25.5999 79.7261 25.2499C79.8294 24.8999 80.0358 24.6499 80.3455 24.4499C80.6552 24.2499 81.1197 24.1499 81.7906 24.1499C82.4616 24.1499 82.9261 24.1999 83.2358 24.3499C83.5455 24.4999 83.8036 24.6999 83.9068 24.9999C84.01 25.2999 84.1132 25.7499 84.1132 26.3999V26.7499H80.4487C80.4487 27.1999 80.4487 27.4999 80.5003 27.7499C80.5519 27.9999 80.6552 28.1499 80.8616 28.2999C81.0681 28.4499 81.3777 28.4999 81.7906 28.4999H81.9971C82.41 28.4999 82.7713 28.4499 82.9777 28.3499C83.1842 28.2499 83.2874 28.0499 83.2874 27.6999V27.5499ZM83.2874 26.1999C83.2874 25.7499 83.2358 25.4499 83.1842 25.2499C83.1326 25.0499 82.9777 24.8999 82.7713 24.8499C82.5648 24.7499 82.2552 24.7499 81.7906 24.7499C81.3777 24.7499 81.1197 24.7999 80.9132 24.8999C80.7068 24.9999 80.5519 25.1499 80.5003 25.3499C80.3971 25.5499 80.3971 25.8499 80.3971 26.2499L83.2874 26.1999Z" fill="#10AD5B"/>
		<path d="M89.739 26.15V24.25H90.4616V29.05H89.6874V26.75H86.9519V29.05H86.1777V24.25H86.9519V26.15H89.739Z" fill="#10AD5B"/>
		<path d="M76.1645 29H75.3903V24.7999H73.5322V24.2H76.1645H78.0225V24.7999H76.1645V29Z" fill="#10AD5B"/>
		<path d="M95.1576 29.05H94.4351V24.8H92.5254V24.25H95.1576H97.0157V24.8H95.1576V29.05Z" fill="#10AD5B"/>
		<path d="M60.9385 29.0499V24.2H61.6611V28.5L64.1385 24.2H65.4288V29.0499H64.6546V24.75L62.1772 29.0499H60.9385Z" fill="#10AD5B"/>
		<path d="M18.8739 21.35L35.132 8.6C34.6675 8.35 34.1514 8.25 33.6352 8.25H2.15137L18.8739 21.35Z" fill="#10AD5B"/>
		<path d="M36.7319 28.5499V11.2499C36.7319 10.5499 36.4738 9.8999 36.0609 9.3999L23.3125 19.3999L36.7319 28.5499Z" fill="#10AD5B"/>
		<path d="M14.436 19.3999L1.0166 8.8999V25.9999C1.0166 26.7499 1.32628 27.4499 1.7908 27.9999L14.436 19.3999Z" fill="#10AD5B"/>
		<path d="M22.8999 19.75L18.8741 22.9L14.8483 19.75L2.20312 28.35C2.71925 28.75 3.39022 29 4.1128 29H36.4225L22.8999 19.75Z" fill="#10AD5B"/>
		<path d="M98.3066 4.4499C98.3066 2.3999 100.01 0.899902 102.023 0.899902C104.036 0.899902 105.739 2.3999 105.739 4.4499C105.739 6.4999 104.036 8.0499 102.023 8.0499C100.01 7.9999 98.3066 6.4999 98.3066 4.4499ZM102.023 7.3999C103.674 7.3999 105.016 6.1499 105.016 4.3999C105.016 2.6999 103.726 1.4499 102.023 1.4499C100.32 1.4499 99.0292 2.6999 99.0292 4.3999C99.0292 6.1499 100.32 7.3999 102.023 7.3999ZM101.249 6.4999H100.629V2.3999H102.229C103.21 2.3999 103.726 2.7499 103.726 3.5499C103.726 4.2999 103.261 4.5999 102.642 4.6999L103.829 6.4999H103.107L101.971 4.6999H101.249V6.4999ZM101.249 4.1999H102.023C102.591 4.1999 103.055 4.1499 103.055 3.5499C103.055 3.0499 102.591 2.9499 102.126 2.9499H101.249V4.1999Z" fill="#10AD5B"/>
	</g>
	<defs>
		<clipPath id="clip0_3235_1369378">
			<rect width="160" height="30" fill="white" transform="translate(0.5)"/>
		</clipPath>
	</defs>
</svg>