<svg width="159" height="27" viewBox="0 0 159 27" fill="none" xmlns="http://www.w3.org/2000/svg">
	<path d="M22.1815 9.71317C25.876 9.71317 28.871 12.7081 28.871 16.4026V17.9202C28.9716 22.682 25.1388 26.5968 20.3759 26.5968H0.520508L2.83764 19.8192H16.9149C17.9844 19.819 18.8511 18.9519 18.8512 17.8823C18.8512 16.8127 17.9845 15.9455 16.9149 15.9453H10.0798C7.49362 15.9453 5.39714 13.8489 5.39714 11.2627V9.71317H22.1815ZM87.0691 9.71317C90.7635 9.71329 93.7586 12.7082 93.7586 16.4026V17.9202C93.8592 22.682 90.0264 26.5968 85.2635 26.5968H65.4075L67.7246 19.8192H81.8019C82.8716 19.8192 83.7388 18.952 83.7388 17.8823C83.7388 16.8126 82.8716 15.9453 81.8019 15.9453H74.9667C72.3807 15.9452 70.2841 13.8488 70.2841 11.2627V9.71317H87.0691ZM60.8856 26.5688H51.5674L55.7418 11.6279L49.4423 16.6006L43.7413 11.2418L39.5519 26.5688H31.2632L35.759 9.71317H65.3487L60.8856 26.5688ZM30.6054 7.33855H5.82372C7.01481 3.36549 10.6715 0.644653 14.8192 0.644531H32.2438L30.6054 7.33855ZM51.8182 6.03659L58.3411 0.985536H67.6593L65.9771 7.33855H36.392L38.0866 0.985536H46.4843L51.8182 6.03659ZM95.4924 7.33855H70.7114C71.9025 3.36545 75.559 0.644531 79.7068 0.644531H97.1308L95.4924 7.33855Z" fill="white"/>
	<path d="M129.457 9.70923C128.989 11.779 127.742 13.5896 125.977 14.7668L124.79 15.5579C125.677 17.1109 125.891 18.9595 125.382 20.6741L123.626 26.5842H115.279L117.873 16.6301H108.575L105.884 26.6252L97.4434 26.5842L101.963 9.70923H129.457ZM151.37 26.5344H134.038C130.948 26.5342 128.705 23.5928 129.522 20.6125L132.514 9.71118H140.131L137.761 18.2268C137.525 19.0789 138.167 19.9211 139.051 19.9211H144.015C144.616 19.9209 145.144 19.5194 145.304 18.9397L147.871 9.71118H155.987L151.37 26.5344ZM140.791 7.34106H133.164L135.007 0.625244H142.66L140.791 7.34106ZM156.638 7.34106H148.531L150.399 0.625244H158.48L156.638 7.34106ZM124.769 0.644775C127.354 0.645081 129.451 2.74147 129.451 5.32739V7.33813H100.626L104.71 0.644775H124.769Z" fill="#95C542"/>
</svg>