<svg width="161" height="15" viewBox="0 0 161 15" fill="none" xmlns="http://www.w3.org/2000/svg">
	<g clip-path="url(#clip0_3235_1369353)">
		<path d="M0.853027 14.1898V1.2312H7.69214C10.1668 1.2312 11.4335 2.8046 11.4335 4.53489C11.4335 6.14995 10.4192 7.25354 9.19258 7.50794C10.5952 7.72334 11.6859 9.06184 11.6859 10.6751C11.6859 12.635 10.3997 14.1907 7.90725 14.1907H0.853027V14.1898ZM8.60947 5.02242C8.60947 4.22464 8.02369 3.65999 7.08858 3.65999H3.62014V6.38041H7.08769C8.02281 6.38041 8.60947 5.85654 8.60947 5.02242ZM8.86103 10.2851C8.86103 9.46959 8.27703 8.80655 7.20592 8.80655H3.62014V11.761H7.20592C8.23703 11.761 8.86103 11.2176 8.86103 10.2851Z" fill="white"/>
		<path d="M22.7507 14.1898L21.9339 11.995H16.3614L15.5436 14.1898H12.4067L17.413 1.2312H20.8814L25.8894 14.1898H22.7507ZM19.1481 3.98797L17.1205 9.56798H21.1738L19.1481 3.98797Z" fill="white"/>
		<path d="M38.3962 14.1898V4.84336L34.7322 14.1898H33.5242L29.862 4.84336V14.1898H27.0967V1.2312H30.9722L34.1296 9.33308L37.2851 1.2312H41.1829V14.1898H38.3962Z" fill="white"/>
		<path d="M43.751 14.1898V1.2312H50.591C53.0665 1.2312 54.3323 2.8046 54.3323 4.53489C54.3323 6.14995 53.3181 7.25354 52.0914 7.50794C53.495 7.72334 54.5848 9.06184 54.5848 10.6751C54.5848 12.635 53.2994 14.1907 50.8061 14.1907H43.751V14.1898ZM51.5065 5.02242C51.5065 4.22464 50.9216 3.65999 49.9856 3.65999H46.5172V6.38041H49.9856C50.9216 6.38041 51.5065 5.85654 51.5065 5.02242ZM51.7599 10.2851C51.7599 9.46959 51.175 8.80655 50.1048 8.80655H46.5172V11.761H50.1048C51.1376 11.761 51.7599 11.2176 51.7599 10.2851Z" fill="white"/>
		<path d="M92.2949 7.72252C92.2949 3.62106 95.4131 1.01587 99.2309 1.01587C101.92 1.01587 103.617 2.3783 104.588 3.91358L102.311 5.15368C101.705 4.24244 100.595 3.46416 99.2309 3.46416C96.854 3.46416 95.1394 5.27069 95.1394 7.72252C95.1394 10.1699 96.854 11.9765 99.2309 11.9765C100.38 11.9765 101.453 11.4712 101.978 10.9863V9.43331H98.55V7.02225H104.747V11.996C103.421 13.471 101.57 14.4247 99.2318 14.4247C95.4131 14.4247 92.2949 11.8018 92.2949 7.72252Z" fill="white"/>
		<path d="M114.29 14.19L111.738 9.58773H109.711V14.19H106.944V1.23145H113.024C115.732 1.23145 117.408 2.99808 117.408 5.41003C117.408 7.68015 115.948 8.92468 114.543 9.25886L117.487 14.19H114.29ZM114.562 5.38787C114.562 4.31973 113.726 3.66024 112.633 3.66024H109.711V7.15894H112.633C113.725 7.15894 114.562 6.49678 114.562 5.38787Z" fill="white"/>
		<path d="M135.278 9.45914V1.68701H138.084V9.38025C138.084 11.1868 139.134 12.4313 141.142 12.4313C143.148 12.4313 144.181 11.1868 144.181 9.38025V1.68701H147.009V9.45914C147.009 12.6662 145.098 14.8796 141.142 14.8796C137.187 14.8805 135.278 12.6671 135.278 9.45914Z" fill="white"/>
		<path d="M149.577 14.6482V1.68701H155.655C158.483 1.68701 160.021 3.59193 160.021 5.8656C160.021 8.1171 158.462 10.0238 155.655 10.0238H152.344V14.6474L149.577 14.6482ZM157.197 5.86648C157.197 4.77796 156.358 4.1158 155.267 4.1158H152.345V7.59146H155.267C156.357 7.59146 157.197 6.93373 157.197 5.86648Z" fill="white"/>
		<path d="M69.9199 7.71718C69.9199 11.5439 66.8088 14.6481 62.9688 14.6481C59.1306 14.6481 56.0186 11.5439 56.0186 7.71718C56.0186 3.8843 59.1306 0.782715 62.9688 0.782715C66.8079 0.781829 69.9199 3.8843 69.9199 7.71718Z" fill="white"/>
		<path d="M86.0529 7.71718C86.0529 11.5439 82.9418 14.6481 79.1035 14.6481C75.2644 14.6481 72.1533 11.5439 72.1533 7.71718C72.1533 3.8843 75.2644 0.782715 79.1035 0.782715C82.9418 0.781829 86.0529 3.8843 86.0529 7.71718Z" fill="white"/>
		<path d="M133.156 7.71718C133.156 11.5439 130.044 14.6481 126.206 14.6481C122.367 14.6481 119.256 11.5439 119.256 7.71718C119.256 3.8843 122.367 0.782715 126.206 0.782715C130.044 0.781829 133.156 3.8843 133.156 7.71718Z" fill="white"/>
	</g>
	<defs>
		<clipPath id="clip0_3235_1369353">
			<rect width="160" height="15" fill="white" transform="translate(0.5)"/>
		</clipPath>
	</defs>
</svg>