<svg width="103" height="31" viewBox="0 0 103 31" fill="none" xmlns="http://www.w3.org/2000/svg">
	<g clip-path="url(#clip0_3235_1369310)">
		<path d="M15.188 11.6767C15.188 13.4333 13.76 14.88 12.026 14.88C10.292 14.88 8.864 13.4333 8.864 11.6767C8.864 9.92 10.292 8.47333 12.026 8.47333C13.76 8.47333 15.188 9.92 15.188 11.6767ZM12.026 16.12C10.292 16.12 8.864 17.5667 8.864 19.3233C8.864 21.08 10.292 22.5267 12.026 22.5267C13.76 22.5267 15.188 21.08 15.188 19.3233C15.188 17.5667 13.76 16.12 12.026 16.12ZM31.1 15.5C31.1 24.0767 24.266 31 15.8 31C7.334 31 0.5 24.0767 0.5 15.5C0.5 6.92333 7.334 0 15.8 0C24.266 0 31.1 6.92333 31.1 15.5ZM27.02 15.5C27.02 9.19667 22.022 4.13333 15.8 4.13333C9.578 4.13333 4.58 9.19667 4.58 15.5C4.58 21.8033 9.578 26.8667 15.8 26.8667C22.022 26.8667 27.02 21.8033 27.02 15.5ZM19.574 16.12C17.84 16.12 16.412 17.5667 16.412 19.3233C16.412 21.08 17.84 22.5267 19.574 22.5267C21.308 22.5267 22.736 21.08 22.736 19.3233C22.736 17.5667 21.308 16.12 19.574 16.12ZM19.574 8.47333C17.84 8.47333 16.412 9.92 16.412 11.6767C16.412 13.4333 17.84 14.88 19.574 14.88C21.308 14.88 22.736 13.4333 22.736 11.6767C22.736 9.92 21.308 8.47333 19.574 8.47333ZM72.206 6.09667C72.308 6.09667 72.41 6.2 72.512 6.30333V9.61C72.512 9.81667 72.308 9.92 72.206 9.92H66.8C66.596 9.92 66.494 9.71333 66.494 9.61V6.40667C66.494 6.2 66.698 6.09667 66.8 6.09667H72.206ZM72.104 10.7467H61.7C61.598 10.7467 61.394 10.85 61.394 11.0567L60.068 16.2233L59.966 16.5333L58.334 11.0567C58.334 10.9533 58.13 10.7467 58.028 10.7467H53.948C53.846 10.7467 53.642 10.85 53.642 11.0567L52.112 16.2233L52.01 16.5333L51.908 16.2233L51.296 13.64L50.684 11.0567C50.684 10.9533 50.48 10.7467 50.378 10.7467H42.218V6.30333C42.218 6.2 42.014 5.99333 41.81 6.09667L36.71 7.75C36.506 7.75 36.404 7.85333 36.404 8.06V10.85H35.078C34.976 10.85 34.772 10.9533 34.772 11.16V15.0867C34.772 15.19 34.874 15.3967 35.078 15.3967H36.404V20.2533C36.404 23.6633 38.24 25.2133 41.606 25.2133C43.034 25.2133 44.36 24.9033 45.278 24.3867V20.2533C45.278 20.0467 45.074 19.9433 44.972 20.0467C44.462 20.2533 43.952 20.3567 43.544 20.3567C42.626 20.3567 42.116 19.9433 42.116 18.91V15.3967H45.074C45.176 15.3967 45.38 15.2933 45.38 15.0867V11.78L49.256 24.8C49.256 24.9033 49.46 25.11 49.562 25.11H53.846C53.948 25.11 54.152 25.0067 54.152 24.8L55.988 19.0133L56.906 22.01L57.722 24.8C57.722 24.9033 57.926 25.11 58.028 25.11H62.312C62.414 25.11 62.618 25.0067 62.618 24.8L66.494 11.78V24.8C66.494 24.9033 66.596 25.11 66.8 25.11H72.002C72.104 25.11 72.308 25.0067 72.308 24.8V11.0567C72.308 10.9533 72.206 10.7467 72.104 10.7467ZM78.938 6.09667H73.736C73.634 6.09667 73.43 6.2 73.43 6.40667V24.6967C73.43 24.8 73.532 25.0067 73.736 25.0067H78.938C79.04 25.0067 79.244 24.9033 79.244 24.6967V6.30333C79.244 6.2 79.142 6.09667 78.938 6.09667ZM85.874 6.09667H80.468C80.366 6.09667 80.162 6.2 80.162 6.40667V9.61C80.162 9.71333 80.264 9.92 80.468 9.92H85.874C85.976 9.92 86.18 9.81667 86.18 9.61V6.30333C86.18 6.2 86.078 6.09667 85.874 6.09667ZM85.772 10.7467H80.57C80.468 10.7467 80.264 10.85 80.264 11.0567V24.5933C80.264 24.6967 80.366 24.9033 80.57 24.9033H85.772C85.874 24.9033 86.078 24.8 86.078 24.5933V11.0567C86.078 10.9533 85.976 10.7467 85.772 10.7467ZM102.194 17.7733C102.194 21.7 98.93 25.11 94.34 25.11C89.852 25.11 86.588 21.7 86.588 17.7733C86.588 13.8467 89.852 10.4367 94.442 10.4367C98.93 10.4367 102.194 13.8467 102.194 17.7733ZM96.686 17.8767C96.686 16.43 95.666 15.2933 94.442 15.3967C93.116 15.3967 92.198 16.5333 92.198 17.8767C92.198 19.22 93.218 20.3567 94.442 20.3567C95.768 20.3567 96.686 19.22 96.686 17.8767Z" fill="#F22F46"/>
	</g>
	<defs>
		<clipPath id="clip0_3235_1369310">
			<rect width="102" height="31" fill="white" transform="translate(0.5)"/>
		</clipPath>
	</defs>
</svg>