<svg width="103" height="32" viewBox="0 0 103 32" fill="none" xmlns="http://www.w3.org/2000/svg">
	<g clip-path="url(#clip0_3235_1369318)">
		<path d="M15.188 12.4159C15.188 14.1726 13.76 15.6193 12.026 15.6193C10.292 15.6193 8.864 14.1726 8.864 12.4159C8.864 10.6593 10.292 9.21259 12.026 9.21259C13.76 9.21259 15.188 10.6593 15.188 12.4159ZM12.026 16.8593C10.292 16.8593 8.864 18.3059 8.864 20.0626C8.864 21.8193 10.292 23.2659 12.026 23.2659C13.76 23.2659 15.188 21.8193 15.188 20.0626C15.188 18.3059 13.76 16.8593 12.026 16.8593ZM31.1 16.2393C31.1 24.8159 24.266 31.7393 15.8 31.7393C7.334 31.7393 0.5 24.8159 0.5 16.2393C0.5 7.66259 7.334 0.739258 15.8 0.739258C24.266 0.739258 31.1 7.66259 31.1 16.2393ZM27.02 16.2393C27.02 9.93592 22.022 4.87259 15.8 4.87259C9.578 4.87259 4.58 9.93592 4.58 16.2393C4.58 22.5426 9.578 27.6059 15.8 27.6059C22.022 27.6059 27.02 22.5426 27.02 16.2393ZM19.574 16.8593C17.84 16.8593 16.412 18.3059 16.412 20.0626C16.412 21.8193 17.84 23.2659 19.574 23.2659C21.308 23.2659 22.736 21.8193 22.736 20.0626C22.736 18.3059 21.308 16.8593 19.574 16.8593ZM19.574 9.21259C17.84 9.21259 16.412 10.6593 16.412 12.4159C16.412 14.1726 17.84 15.6193 19.574 15.6193C21.308 15.6193 22.736 14.1726 22.736 12.4159C22.736 10.6593 21.308 9.21259 19.574 9.21259ZM72.206 6.83592C72.308 6.83592 72.41 6.93926 72.512 7.04259V10.3493C72.512 10.5559 72.308 10.6593 72.206 10.6593H66.8C66.596 10.6593 66.494 10.4526 66.494 10.3493V7.14592C66.494 6.93926 66.698 6.83592 66.8 6.83592H72.206ZM72.104 11.4859H61.7C61.598 11.4859 61.394 11.5893 61.394 11.7959L60.068 16.9626L59.966 17.2726L58.334 11.7959C58.334 11.6926 58.13 11.4859 58.028 11.4859H53.948C53.846 11.4859 53.642 11.5893 53.642 11.7959L52.112 16.9626L52.01 17.2726L51.908 16.9626L51.296 14.3793L50.684 11.7959C50.684 11.6926 50.48 11.4859 50.378 11.4859H42.218V7.04259C42.218 6.93926 42.014 6.73259 41.81 6.83592L36.71 8.48926C36.506 8.48926 36.404 8.59259 36.404 8.79926V11.5893H35.078C34.976 11.5893 34.772 11.6926 34.772 11.8993V15.8259C34.772 15.9293 34.874 16.1359 35.078 16.1359H36.404V20.9926C36.404 24.4026 38.24 25.9526 41.606 25.9526C43.034 25.9526 44.36 25.6426 45.278 25.1259V20.9926C45.278 20.7859 45.074 20.6826 44.972 20.7859C44.462 20.9926 43.952 21.0959 43.544 21.0959C42.626 21.0959 42.116 20.6826 42.116 19.6493V16.1359H45.074C45.176 16.1359 45.38 16.0326 45.38 15.8259V12.5193L49.256 25.5393C49.256 25.6426 49.46 25.8493 49.562 25.8493H53.846C53.948 25.8493 54.152 25.7459 54.152 25.5393L55.988 19.7526L56.906 22.7493L57.722 25.5393C57.722 25.6426 57.926 25.8493 58.028 25.8493H62.312C62.414 25.8493 62.618 25.7459 62.618 25.5393L66.494 12.5193V25.5393C66.494 25.6426 66.596 25.8493 66.8 25.8493H72.002C72.104 25.8493 72.308 25.7459 72.308 25.5393V11.7959C72.308 11.6926 72.206 11.4859 72.104 11.4859ZM78.938 6.83592H73.736C73.634 6.83592 73.43 6.93926 73.43 7.14592V25.4359C73.43 25.5393 73.532 25.7459 73.736 25.7459H78.938C79.04 25.7459 79.244 25.6426 79.244 25.4359V7.04259C79.244 6.93926 79.142 6.83592 78.938 6.83592ZM85.874 6.83592H80.468C80.366 6.83592 80.162 6.93926 80.162 7.14592V10.3493C80.162 10.4526 80.264 10.6593 80.468 10.6593H85.874C85.976 10.6593 86.18 10.5559 86.18 10.3493V7.04259C86.18 6.93926 86.078 6.83592 85.874 6.83592ZM85.772 11.4859H80.57C80.468 11.4859 80.264 11.5893 80.264 11.7959V25.3326C80.264 25.4359 80.366 25.6426 80.57 25.6426H85.772C85.874 25.6426 86.078 25.5393 86.078 25.3326V11.7959C86.078 11.6926 85.976 11.4859 85.772 11.4859ZM102.194 18.5126C102.194 22.4393 98.93 25.8493 94.34 25.8493C89.852 25.8493 86.588 22.4393 86.588 18.5126C86.588 14.5859 89.852 11.1759 94.442 11.1759C98.93 11.1759 102.194 14.5859 102.194 18.5126ZM96.686 18.6159C96.686 17.1693 95.666 16.0326 94.442 16.1359C93.116 16.1359 92.198 17.2726 92.198 18.6159C92.198 19.9593 93.218 21.0959 94.442 21.0959C95.768 21.0959 96.686 19.9593 96.686 18.6159Z" fill="white"/>
	</g>
	<defs>
		<clipPath id="clip0_3235_1369318">
			<rect width="102" height="31" fill="white" transform="translate(0.5 0.739258)"/>
		</clipPath>
	</defs>
</svg>