<svg width="100" height="32" viewBox="0 0 100 32" fill="none" xmlns="http://www.w3.org/2000/svg">
	<g clip-path="url(#clip0_3235_1369296)">
		<path d="M63.702 3.48315H61.8357C61.5247 3.48315 61.307 3.73413 61.307 4.01649V9.85181C59.9073 8.53415 58.1033 7.84395 56.1748 7.84395C51.8824 7.84395 48.3677 11.5145 48.3677 16.0635C48.3677 20.5812 51.8824 24.2831 56.1748 24.2831C58.1033 24.2831 59.9695 23.5616 61.4003 22.1812L61.4936 23.1851C61.5247 23.4675 61.7735 23.6557 62.0224 23.6557H63.702C64.0131 23.6557 64.2308 23.4047 64.2308 23.1223V4.04786C64.2308 3.76551 63.9819 3.48315 63.702 3.48315ZM61.0581 16.0635C61.0581 18.8871 58.8809 21.1773 56.1748 21.1773C53.4687 21.1773 51.2603 18.8871 51.2603 16.0635C51.2603 13.24 53.4377 10.9498 56.1437 10.9498C58.8497 10.9498 61.0581 13.2086 61.0581 16.0635Z" fill="white"/>
		<path d="M80.3104 10.6361C79.9371 10.0715 79.5011 9.56945 79.0037 9.19299C78.5057 8.78519 77.9464 8.47145 77.3244 8.25185C76.2357 7.84399 75.0224 7.78125 73.7784 8.00085C71.9744 8.31459 70.6677 9.25579 69.8904 9.94599L69.7971 8.91065C69.7657 8.62832 69.5171 8.44005 69.2684 8.44005H67.4637C67.1531 8.44005 66.9351 8.69105 66.9351 8.97339V23.1225C66.9351 23.4361 67.1844 23.6558 67.4637 23.6558H69.4551C69.7657 23.6558 69.9837 23.4048 69.9837 23.1225V13.0519C71.4457 12.0165 72.7517 11.295 74.2451 11.0127C74.8671 10.8871 75.6444 10.9813 76.3291 11.2323C76.9197 11.4519 77.4484 11.8283 77.7597 12.393C78.4131 13.3969 78.4131 14.6519 78.4131 15.7813V23.0911C78.4131 23.4048 78.6617 23.6244 78.9417 23.6244H80.9631C81.2744 23.6244 81.4917 23.3734 81.4917 23.0911V17.2558C81.4917 17.0048 81.4917 16.7538 81.4917 16.5028C81.5231 15.1538 81.5231 13.7107 81.1191 12.3617C80.9011 11.7656 80.6524 11.1381 80.3104 10.6361Z" fill="white"/>
		<path d="M98.5074 8.40833H96.6408C96.3301 8.40833 96.1121 8.65933 96.1121 8.94167V9.88287C94.7128 8.5652 92.9081 7.875 91.0108 7.875C86.7188 7.875 83.2041 11.5456 83.2041 16.0946C83.2041 20.6123 86.7188 24.3142 91.0108 24.3142C92.9394 24.3142 94.8054 23.5927 96.2368 22.2123L96.3301 23.2162C96.3608 23.4985 96.6101 23.6867 96.8588 23.6867H98.5381C98.8494 23.6867 99.0668 23.4358 99.0668 23.1534V9.0358C99.0668 8.65933 98.8181 8.40833 98.5074 8.40833ZM95.8941 16.0633C95.8941 18.8867 93.7174 21.1769 91.0108 21.1769C88.3048 21.1769 86.1274 18.8867 86.1274 16.0633C86.1274 13.2397 88.3048 10.9495 91.0108 10.9495C93.7174 10.9495 95.8941 13.2083 95.8941 16.0633Z" fill="white"/>
		<path d="M47.1222 14.4633C46.5623 10.7299 43.6385 7.875 39.8438 7.875C39.8127 7.875 39.7816 7.875 39.7505 7.875C35.4581 7.875 31.9434 11.5456 31.9434 16.0946C31.9434 20.6123 35.427 24.2829 39.7505 24.3142H39.906C42.5188 24.3142 44.7583 23.2162 46.4068 21.3652C46.5934 21.1456 46.5934 20.8633 46.4068 20.6436L45.2248 19.326C45.1004 19.2005 44.976 19.1377 44.8205 19.1377C44.665 19.1377 44.5094 19.2319 44.4161 19.3573C43.3897 20.675 42.0211 21.2397 39.9371 21.2397C39.8749 21.2397 39.8127 21.2397 39.7505 21.2397C37.3866 21.2397 35.427 19.4829 34.9604 17.1613H46.0024C46.6867 17.1613 47.2466 16.5966 47.2466 15.875C47.2155 15.8436 47.2155 15.1848 47.1222 14.4633ZM35.2404 14.0867C35.9558 12.2358 37.6976 10.9495 39.7194 10.9495H39.8749C41.8967 10.9495 43.6074 12.2044 44.2295 14.0867H44.1984H35.2404Z" fill="white"/>
		<path d="M25.7229 2.03961C22.6747 -0.564307 17.8536 -0.250582 11.3217 2.82393C3.42122 6.52589 2.11484 9.50625 1.7727 10.2906C-0.373493 15.2161 1.99042 19.5455 4.7898 23.6553C8.08686 28.4239 11.0417 30.5887 14.7431 30.7769C16.485 30.871 18.7245 30.7769 21.5861 28.0161C23.3279 26.322 25.1009 23.5298 26.7183 18.9494C28.7711 13.2083 31.104 6.68272 25.7229 2.03961ZM20.5907 17.0357C18.0713 24.1887 16.2984 24.0004 14.8365 23.8749C13.4679 23.7494 11.7883 22.3691 9.92199 19.6396C7.18486 15.6553 7.37146 14.4631 8.02466 12.8945C8.49119 11.7651 10.0775 10.6671 14.09 8.72199C18.6312 6.52589 20.4352 6.87099 21.2128 7.43572C22.8925 8.69059 22.8925 10.5729 20.5907 17.0357Z" fill="white"/>
	</g>
	<defs>
		<clipPath id="clip0_3235_1369296">
			<rect width="100" height="32" fill="white" transform="translate(0.000488281)"/>
		</clipPath>
	</defs>
</svg>