<svg width="100" height="32" viewBox="0 0 100 32" fill="none" xmlns="http://www.w3.org/2000/svg">
	<path d="M63.7015 3.48315H61.8353C61.5243 3.48315 61.3065 3.73413 61.3065 4.01649V9.85181C59.9069 8.53415 58.1028 7.84395 56.1743 7.84395C51.8819 7.84395 48.3672 11.5145 48.3672 16.0635C48.3672 20.5812 51.8819 24.2831 56.1743 24.2831C58.1028 24.2831 59.9691 23.5616 61.3999 22.1812L61.4931 23.1851C61.5243 23.4675 61.7731 23.6557 62.0219 23.6557H63.7015C64.0126 23.6557 64.2303 23.4047 64.2303 23.1223V4.04786C64.2303 3.76551 63.9815 3.48315 63.7015 3.48315ZM61.0577 16.0635C61.0577 18.8871 58.8804 21.1773 56.1743 21.1773C53.4683 21.1773 51.2599 18.8871 51.2599 16.0635C51.2599 13.24 53.4372 10.9498 56.1432 10.9498C58.8493 10.9498 61.0577 13.2086 61.0577 16.0635Z" fill="black"/>
	<path d="M80.3099 10.6361C79.9366 10.0715 79.5006 9.56945 79.0032 9.19299C78.5052 8.78519 77.9459 8.47145 77.3239 8.25185C76.2352 7.84399 75.0219 7.78125 73.7779 8.00085C71.9739 8.31459 70.6672 9.25579 69.8899 9.94599L69.7966 8.91065C69.7652 8.62832 69.5166 8.44005 69.2679 8.44005H67.4632C67.1526 8.44005 66.9346 8.69105 66.9346 8.97339V23.1225C66.9346 23.4361 67.1839 23.6558 67.4632 23.6558H69.4546C69.7652 23.6558 69.9832 23.4048 69.9832 23.1225V13.0519C71.4452 12.0165 72.7512 11.295 74.2446 11.0127C74.8666 10.8871 75.6439 10.9813 76.3286 11.2323C76.9192 11.4519 77.4479 11.8283 77.7592 12.393C78.4126 13.3969 78.4126 14.6519 78.4126 15.7813V23.0911C78.4126 23.4048 78.6612 23.6244 78.9412 23.6244H80.9626C81.2739 23.6244 81.4912 23.3734 81.4912 23.0911V17.2558C81.4912 17.0048 81.4912 16.7538 81.4912 16.5028C81.5226 15.1538 81.5226 13.7107 81.1186 12.3617C80.9006 11.7656 80.6519 11.1381 80.3099 10.6361Z" fill="black"/>
	<path d="M98.5069 8.40833H96.6403C96.3296 8.40833 96.1116 8.65933 96.1116 8.94167V9.88287C94.7123 8.5652 92.9076 7.875 91.0103 7.875C86.7183 7.875 83.2036 11.5456 83.2036 16.0946C83.2036 20.6123 86.7183 24.3142 91.0103 24.3142C92.9389 24.3142 94.8049 23.5927 96.2363 22.2123L96.3296 23.2162C96.3603 23.4985 96.6096 23.6867 96.8583 23.6867H98.5376C98.8489 23.6867 99.0663 23.4358 99.0663 23.1534V9.0358C99.0663 8.65933 98.8176 8.40833 98.5069 8.40833ZM95.8936 16.0633C95.8936 18.8867 93.7169 21.1769 91.0103 21.1769C88.3043 21.1769 86.1269 18.8867 86.1269 16.0633C86.1269 13.2397 88.3043 10.9495 91.0103 10.9495C93.7169 10.9495 95.8936 13.2083 95.8936 16.0633Z" fill="black"/>
	<path d="M47.1217 14.4633C46.5618 10.7299 43.638 7.875 39.8433 7.875C39.8122 7.875 39.7811 7.875 39.75 7.875C35.4576 7.875 31.9429 11.5456 31.9429 16.0946C31.9429 20.6123 35.4265 24.2829 39.75 24.3142H39.9055C42.5183 24.3142 44.7578 23.2162 46.4063 21.3652C46.5929 21.1456 46.5929 20.8633 46.4063 20.6436L45.2243 19.326C45.0999 19.2005 44.9755 19.1377 44.82 19.1377C44.6645 19.1377 44.5089 19.2319 44.4156 19.3573C43.3892 20.675 42.0206 21.2397 39.9366 21.2397C39.8744 21.2397 39.8122 21.2397 39.75 21.2397C37.3861 21.2397 35.4265 19.4829 34.9599 17.1613H46.0019C46.6862 17.1613 47.2461 16.5966 47.2461 15.875C47.215 15.8436 47.215 15.1848 47.1217 14.4633ZM35.2399 14.0867C35.9553 12.2358 37.6971 10.9495 39.7189 10.9495H39.8744C41.8962 10.9495 43.6069 12.2044 44.229 14.0867H44.1979H35.2399Z" fill="black"/>
	<path d="M25.7224 2.03961C22.6742 -0.564307 17.8531 -0.250582 11.3212 2.82393C3.42073 6.52589 2.11436 9.50625 1.77221 10.2906C-0.373981 15.2161 1.98994 19.5455 4.78932 23.6553C8.08637 28.4239 11.0412 30.5887 14.7426 30.7769C16.4845 30.871 18.724 30.7769 21.5856 28.0161C23.3274 26.322 25.1004 23.5298 26.7178 18.9494C28.7706 13.2083 31.1035 6.68272 25.7224 2.03961ZM20.5902 17.0357C18.0708 24.1887 16.2979 24.0004 14.836 23.8749C13.4674 23.7494 11.7878 22.3691 9.9215 19.6396C7.18437 15.6553 7.37097 14.4631 8.02417 12.8945C8.4907 11.7651 10.077 10.6671 14.0895 8.72199C18.6307 6.52589 20.4347 6.87099 21.2123 7.43572C22.892 8.69059 22.892 10.5729 20.5902 17.0357Z" fill="url(#paint0_radial_3235_1369284)"/>
	<defs>
		<radialGradient id="paint0_radial_3235_1369284" cx="0" cy="0" r="1" gradientUnits="userSpaceOnUse" gradientTransform="translate(15.7964 16.3756) scale(27.706 27.945)">
			<stop offset="0.2519" stop-color="#17E23B"/>
			<stop offset="0.4262" stop-color="#1AEB83"/>
			<stop offset="0.5994" stop-color="#1DF4C5"/>
			<stop offset="0.7243" stop-color="#1EF9EE"/>
			<stop offset="0.7885" stop-color="#1FFBFF"/>
		</radialGradient>
	</defs>
</svg>