<svg width="138" height="120" viewBox="0 0 138 120" fill="none" xmlns="http://www.w3.org/2000/svg">
<g filter="url(#filter0_d_13557_117947)">
<path fill-rule="evenodd" clip-rule="evenodd" d="M104.238 112.955H33.5728C32.9681 112.955 32.3687 112.933 31.7752 112.89C15.8046 112.538 4.00081 99.8659 4 84.2864C4.00464 76.6928 7.38046 69.8988 12.2908 63.9555C14.638 61.1145 16.338 59.2418 19.7705 57.5334C19.7094 56.7607 19.6783 55.9798 19.6783 55.192C19.6833 47.1797 22.9685 39.4975 28.811 33.8354C34.6536 28.1733 42.575 24.9951 50.8326 25C61.4104 25.0125 70.6365 30.566 76.249 38.3997C79.9442 37.4834 84.5134 37.1906 87.5024 37.1921C100.707 37.2075 111.551 46.9739 112.809 59.4635C125.46 62.1397 134.011 72.655 134 85.7307C133.987 100.799 121.391 113.006 105.861 113C105.316 113 104.775 112.985 104.238 112.955Z" fill="#FFE1A6"/>
</g>
<path d="M62.3228 80.323V33.5811H75.6776V80.323H62.3228Z" fill="white"/>
<path fill-rule="evenodd" clip-rule="evenodd" d="M108.117 77.0526L74.6271 21.2151C72.0467 16.9283 65.8977 16.9283 63.3722 21.2151L29.8819 77.0526C27.2466 81.4492 30.4309 87 35.5368 87H102.517C107.568 87 110.753 81.4492 108.117 77.0526ZM64.1957 40.6702C64.1957 38.1971 66.1722 36.2186 68.6428 36.2186H69.2467C71.7173 36.2186 73.6938 38.1971 73.6938 40.6702V57.3226C73.6938 59.7957 71.7173 61.7742 69.2467 61.7742H68.6428C66.1722 61.7742 64.1957 59.7957 64.1957 57.3226V40.6702ZM74.5722 72.9857C74.5722 76.0633 72.0467 78.5914 68.9722 78.5914C65.8977 78.5914 63.3722 76.0633 63.3722 72.9857C63.3722 69.908 65.8977 67.3799 68.9722 67.3799C72.0467 67.3799 74.5722 69.908 74.5722 72.9857Z" fill="#FFC34D"/>
<defs>
<filter id="filter0_d_13557_117947" x="0" y="23" width="138" height="96" filterUnits="userSpaceOnUse" color-interpolation-filters="sRGB">
<feFlood flood-opacity="0" result="BackgroundImageFix"/>
<feColorMatrix in="SourceAlpha" type="matrix" values="0 0 0 0 0 0 0 0 0 0 0 0 0 0 0 0 0 0 127 0" result="hardAlpha"/>
<feOffset dy="2"/>
<feGaussianBlur stdDeviation="2"/>
<feComposite in2="hardAlpha" operator="out"/>
<feColorMatrix type="matrix" values="0 0 0 0 0.025382 0 0 0 0 0.275095 0 0 0 0 0.358333 0 0 0 0.06 0"/>
<feBlend mode="normal" in2="BackgroundImageFix" result="effect1_dropShadow_13557_117947"/>
<feBlend mode="normal" in="SourceGraphic" in2="effect1_dropShadow_13557_117947" result="shape"/>
</filter>
</defs>
</svg>