<svg width="19" height="19" viewBox="0 0 19 19" fill="none" xmlns="http://www.w3.org/2000/svg">
	<path d="M9.5029 8.15397C9.80896 8.15397 10.0571 8.40208 10.0571 8.70814V12.6665C10.0571 12.9725 9.80896 13.2206 9.5029 13.2206C9.19684 13.2206 8.94873 12.9725 8.94873 12.6665V8.70814C8.94873 8.40208 9.19684 8.15397 9.5029 8.15397Z" fill="#A7FAD3"/>
	<path d="M10.1373 6.72927C10.1373 6.37949 9.85375 6.09594 9.50397 6.09595C9.15419 6.09595 8.87064 6.37951 8.87065 6.72929L8.87065 6.78684C8.87065 7.13662 9.15421 7.42017 9.50399 7.42016C9.85377 7.42016 10.1373 7.1366 10.1373 6.78682L10.1373 6.72927Z" fill="#A7FAD3"/>
	<path fill-rule="evenodd" clip-rule="evenodd" d="M3.06689 9.4998C3.06689 5.94701 5.94701 3.06689 9.4998 3.06689C13.0526 3.06689 15.9327 5.94701 15.9327 9.4998C15.9327 13.0526 13.0526 15.9327 9.4998 15.9327C5.94701 15.9327 3.06689 13.0526 3.06689 9.4998ZM9.4998 4.17523C6.55912 4.17523 4.17523 6.55912 4.17523 9.4998C4.17523 12.4405 6.55912 14.8244 9.4998 14.8244C12.4405 14.8244 14.8244 12.4405 14.8244 9.4998C14.8244 6.55912 12.4405 4.17523 9.4998 4.17523Z" fill="#A7FAD3"/>
</svg>
