<svg width="16" height="16" viewBox="0 0 16 16" fill="none" xmlns="http://www.w3.org/2000/svg">
	<g opacity="0.6">
		<path d="M8.00247 6.8665C8.2602 6.8665 8.46914 7.07543 8.46914 7.33316V10.6665C8.46914 10.9242 8.2602 11.1332 8.00247 11.1332C7.74474 11.1332 7.5358 10.9242 7.5358 10.6665V7.33316C7.5358 7.07543 7.74474 6.8665 8.00247 6.8665Z" fill="#E6F4FF"/>
		<path d="M8.53672 5.66675C8.53671 5.37219 8.29792 5.13342 8.00337 5.13342C7.70882 5.13343 7.47004 5.37221 7.47005 5.66677L7.47005 5.71523C7.47006 6.00978 7.70884 6.24856 8.00339 6.24855C8.29794 6.24855 8.53672 6.00976 8.53672 5.71521L8.53672 5.66675Z" fill="#E6F4FF"/>
		<path fill-rule="evenodd" clip-rule="evenodd" d="M2.58268 7.99983C2.58268 5.008 5.00804 2.58264 7.99987 2.58264C10.9917 2.58264 13.4171 5.008 13.4171 7.99983C13.4171 10.9917 10.9917 13.417 7.99987 13.417C5.00804 13.417 2.58268 10.9917 2.58268 7.99983ZM7.99987 3.51597C5.5235 3.51597 3.51601 5.52346 3.51601 7.99983C3.51601 10.4762 5.5235 12.4837 7.99987 12.4837C10.4762 12.4837 12.4837 10.4762 12.4837 7.99983C12.4837 5.52346 10.4762 3.51597 7.99987 3.51597Z" fill="#E6F4FF"/>
	</g>
</svg>