<svg width="122" height="20" viewBox="0 0 122 20" fill="none" xmlns="http://www.w3.org/2000/svg">
<mask id="mask0_9929_27558" style="mask-type:luminance" maskUnits="userSpaceOnUse" x="0" y="0" width="122" height="18">
<path d="M122 0H0V18H122V0Z" fill="white"/>
</mask>
<g mask="url(#mask0_9929_27558)">
<path d="M16.6985 14.8084C14.5231 14.8084 13.2045 13.2484 13.2045 11.2024C13.2045 9.15636 14.5292 7.62036 16.6985 7.62036C18.8679 7.62036 20.1926 9.10236 20.1926 11.2024C20.1926 13.3024 18.874 14.8084 16.6985 14.8084ZM16.6985 4.42236C12.5604 4.42236 9.77728 7.20636 9.77728 11.2024C9.77728 15.1984 12.6272 18.0004 16.6985 18.0004C20.7699 18.0004 23.5955 15.1384 23.5955 11.2024C23.5955 7.26636 20.8367 4.42236 16.6985 4.42236Z" fill="white"/>
<path d="M3.36644 4.72266H0V17.7067H3.36644V4.72266Z" fill="white"/>
<path d="M7.05494 4.72266L3.59735 9.39066H7.71121L11.1688 4.72266H7.05494Z" fill="white"/>
<path d="M113.809 15.042C112.782 15.042 112.071 14.43 112.071 13.722C112.071 13.014 112.527 12.588 113.438 12.588H116.969C116.586 14.028 115.297 15.042 113.821 15.042M120.189 14.622V9.21603C120.189 6.73803 118.147 4.72803 115.626 4.72803H109.75V7.80003H115.431C116.264 7.80003 116.938 8.46603 116.938 9.28203V9.97203H113.383C110.217 9.97203 108.808 11.76 108.808 13.698C108.808 15.636 110.612 17.82 113.517 17.82C116.422 17.82 116.659 17.016 117.473 15.768C117.777 17.046 118.974 17.706 120.165 17.706H122.006V14.616H120.189V14.622Z" fill="white"/>
<path d="M90.59 10.0747C89.9641 10.0087 87.9528 9.8407 87.1932 9.7387C86.2392 9.6127 85.8685 9.1627 85.8685 8.6827C85.8685 8.2027 86.3972 7.3927 88.1594 7.3927C89.9216 7.3927 90.7906 8.3107 90.9182 9.2107H93.9565C93.9565 6.9667 91.939 4.5127 88.129 4.5127C84.319 4.5127 82.6054 6.4507 82.6054 8.7367C82.6054 11.0227 83.9179 12.1447 86.0265 12.4087C87.3998 12.5707 88.4389 12.6787 89.636 12.7987C90.6569 12.9007 90.9607 13.2547 90.9607 13.7287C90.9607 14.4007 90.347 15.0487 88.3842 15.0487C86.4215 15.0487 85.5829 14.2627 85.4431 13.2967H82.4048C82.4048 15.9607 84.7929 17.9407 88.4085 17.9407C92.0241 17.9407 94.236 16.0387 94.236 13.6327C94.236 11.2267 93.0632 10.3267 90.59 10.0867V10.0747Z" fill="white"/>
<path d="M103.782 10.0747C103.156 10.0087 101.145 9.8407 100.386 9.7387C99.4315 9.6127 99.0608 9.1627 99.0608 8.6827C99.0608 8.2027 99.5895 7.3927 101.352 7.3927C103.114 7.3927 103.983 8.3107 104.11 9.2107H107.149C107.149 6.9667 105.131 4.5127 101.321 4.5127C97.5113 4.5127 95.7977 6.4507 95.7977 8.7367C95.7977 11.0227 97.1102 12.1447 99.2188 12.4087C100.592 12.5707 101.631 12.6787 102.828 12.7987C103.849 12.9007 104.153 13.2547 104.153 13.7287C104.153 14.4007 103.539 15.0487 101.577 15.0487C99.6138 15.0487 98.7752 14.2627 98.6355 13.2967H95.5972C95.5972 15.9607 97.9853 17.9407 101.601 17.9407C105.216 17.9407 107.428 16.0387 107.428 13.6327C107.428 11.2267 106.262 10.3267 103.782 10.0867V10.0747Z" fill="white"/>
<path d="M73.1806 15.0487C72.1536 15.0487 71.4427 14.4367 71.4427 13.7287C71.4427 13.0207 71.9045 12.5947 72.8099 12.5947H76.3404C75.9576 14.0347 74.6754 15.0487 73.1927 15.0487M79.555 9.21066C79.555 6.73266 77.5132 4.72266 74.9914 4.72266H69.1093V7.79466H74.7909C75.6234 7.79466 76.2979 8.46066 76.2979 9.27666V9.96666H72.7431C69.5772 9.96666 68.1613 11.7547 68.1613 13.6927C68.1613 15.6307 69.9661 17.8147 72.8707 17.8147C75.7753 17.8147 76.0123 17.0107 76.8266 15.7627C77.1304 17.0407 78.3275 17.7007 79.5185 17.7007H81.3597V14.6107H79.5489V9.20466H79.5428L79.555 9.21066Z" fill="white"/>
<path d="M46.6258 14.8084C44.4504 14.8084 43.1318 13.2484 43.1318 11.2024C43.1318 9.15636 44.4504 7.62036 46.6258 7.62036C48.8013 7.62036 50.1199 9.10236 50.1199 11.2024C50.1199 13.3024 48.8013 14.8084 46.6258 14.8084ZM46.6258 4.42236C42.4877 4.42236 39.7046 7.20636 39.7046 11.2024C39.7046 15.1984 42.5545 18.0004 46.6258 18.0004C50.6972 18.0004 53.5228 15.1384 53.5228 11.2024C53.5228 7.26636 50.764 4.42236 46.6258 4.42236Z" fill="white"/>
<path d="M67.4868 4.72266H63.3486L58.6028 11.1187L63.5491 17.7067H67.6995L62.7349 11.0827L67.4807 4.72266H67.4868Z" fill="white"/>
<path d="M58.2869 0H54.9204V17.706H58.2869V0Z" fill="white"/>
<path d="M31.7199 14.82C29.5445 14.82 28.2198 13.26 28.2198 11.214C28.2198 9.168 29.5384 7.62 31.7199 7.62C33.9014 7.62 35.22 9.108 35.22 11.214C35.22 13.32 33.9014 14.82 31.7199 14.82ZM32.0237 4.422C30.456 4.422 29.107 4.962 28.2016 5.796V0H24.8169V11.046C24.8169 15.27 27.5271 18 31.7564 18C35.9857 18 38.6108 15.12 38.6108 11.172C38.6108 7.224 36.0768 4.422 32.0237 4.422Z" fill="white"/>
</g>
</svg>
