<svg width="80" height="18" viewBox="0 0 80 18" fill="none" xmlns="http://www.w3.org/2000/svg">
	<path d="M0.787376 14V0.909091H5.36408C6.27601 0.909091 7.02814 1.06676 7.62047 1.3821C8.2128 1.69318 8.65385 2.11293 8.94363 2.64134C9.2334 3.16548 9.37829 3.74716 9.37829 4.38636C9.37829 4.94886 9.27814 5.41335 9.07786 5.77983C8.88184 6.14631 8.62189 6.43608 8.29803 6.64915C7.97843 6.86222 7.63113 7.01989 7.25613 7.12216V7.25C7.65669 7.27557 8.05939 7.41619 8.46422 7.67188C8.86905 7.92756 9.20783 8.29403 9.48056 8.77131C9.75328 9.24858 9.88965 9.83239 9.88965 10.5227C9.88965 11.179 9.7405 11.7692 9.44221 12.2933C9.14391 12.8175 8.67303 13.233 8.02956 13.5398C7.3861 13.8466 6.54874 14 5.51749 14H0.787376ZM2.3726 12.5938H5.51749C6.553 12.5938 7.28809 12.3935 7.72275 11.9929C8.16167 11.5881 8.38113 11.098 8.38113 10.5227C8.38113 10.0795 8.2682 9.67045 8.04235 9.29545C7.8165 8.91619 7.49476 8.61364 7.07715 8.38778C6.65953 8.15767 6.16522 8.04261 5.59419 8.04261H2.3726V12.5938ZM2.3726 6.66193H5.31294C5.79022 6.66193 6.22061 6.56818 6.60414 6.38068C6.99192 6.19318 7.29874 5.92898 7.52459 5.58807C7.75471 5.24716 7.86976 4.84659 7.86976 4.38636C7.86976 3.81108 7.66948 3.32315 7.26891 2.92259C6.86834 2.51776 6.2334 2.31534 5.36408 2.31534H2.3726V6.66193ZM14.0796 0.909091V14H12.4944V0.909091H14.0796ZM22.3206 14V0.909091H26.8973C27.8092 0.909091 28.5613 1.06676 29.1537 1.3821C29.746 1.69318 30.1871 2.11293 30.4768 2.64134C30.7666 3.16548 30.9115 3.74716 30.9115 4.38636C30.9115 4.94886 30.8113 5.41335 30.6111 5.77983C30.415 6.14631 30.1551 6.43608 29.8312 6.64915C29.5116 6.86222 29.1643 7.01989 28.7893 7.12216V7.25C29.1899 7.27557 29.5926 7.41619 29.9974 7.67188C30.4023 7.92756 30.741 8.29403 31.0138 8.77131C31.2865 9.24858 31.4229 9.83239 31.4229 10.5227C31.4229 11.179 31.2737 11.7692 30.9754 12.2933C30.6771 12.8175 30.2062 13.233 29.5628 13.5398C28.9193 13.8466 28.0819 14 27.0507 14H22.3206ZM23.9058 12.5938H27.0507C28.0862 12.5938 28.8213 12.3935 29.2559 11.9929C29.6949 11.5881 29.9143 11.098 29.9143 10.5227C29.9143 10.0795 29.8014 9.67045 29.5756 9.29545C29.3497 8.91619 29.028 8.61364 28.6104 8.38778C28.1927 8.15767 27.6984 8.04261 27.1274 8.04261H23.9058V12.5938ZM23.9058 6.66193H26.8461C27.3234 6.66193 27.7538 6.56818 28.1373 6.38068C28.5251 6.19318 28.8319 5.92898 29.0578 5.58807C29.2879 5.24716 29.403 4.84659 29.403 4.38636C29.403 3.81108 29.2027 3.32315 28.8021 2.92259C28.4015 2.51776 27.7666 2.31534 26.8973 2.31534H23.9058V6.66193ZM40.0106 9.9858V4.18182H41.5191V14H40.0106V12.3381H39.9083C39.6782 12.8366 39.3202 13.2607 38.8344 13.6101C38.3486 13.9553 37.735 14.1278 36.9935 14.1278C36.3799 14.1278 35.8344 13.9936 35.3572 13.7251C34.8799 13.4524 34.5049 13.0433 34.2322 12.4979C33.9594 11.9482 33.8231 11.2557 33.8231 10.4205V4.18182H35.3316V10.3182C35.3316 11.0341 35.5319 11.6051 35.9324 12.0312C36.3373 12.4574 36.8529 12.6705 37.4793 12.6705C37.8543 12.6705 38.2357 12.5746 38.6235 12.3828C39.0155 12.1911 39.3437 11.897 39.6079 11.5007C39.8763 11.1044 40.0106 10.5994 40.0106 9.9858ZM44.282 14V4.18182H45.7906V14H44.282ZM45.0491 2.54545C44.7551 2.54545 44.5015 2.44531 44.2884 2.24503C44.0796 2.04474 43.9752 1.80398 43.9752 1.52273C43.9752 1.24148 44.0796 1.00071 44.2884 0.800426C44.5015 0.600142 44.7551 0.5 45.0491 0.5C45.3431 0.5 45.5945 0.600142 45.8034 0.800426C46.0164 1.00071 46.123 1.24148 46.123 1.52273C46.123 1.80398 46.0164 2.04474 45.8034 2.24503C45.5945 2.44531 45.3431 2.54545 45.0491 2.54545ZM50.0621 0.909091V14H48.5535V0.909091H50.0621ZM56.5324 14.2045C55.7142 14.2045 54.9919 13.9979 54.3655 13.5845C53.7391 13.1669 53.249 12.5788 52.8953 11.8203C52.5416 11.0575 52.3648 10.1562 52.3648 9.11648C52.3648 8.08523 52.5416 7.19034 52.8953 6.43182C53.249 5.6733 53.7412 5.08736 54.3719 4.67401C55.0026 4.26065 55.7313 4.05398 56.558 4.05398C57.1972 4.05398 57.7021 4.16051 58.0729 4.37358C58.4479 4.58239 58.7334 4.82102 58.9294 5.08949C59.1297 5.35369 59.2852 5.57102 59.396 5.74148H59.5239V0.909091H61.0324V14H59.575V12.4915H59.396C59.2852 12.6705 59.1276 12.8963 58.923 13.169C58.7185 13.4375 58.4266 13.6783 58.0473 13.8913C57.6681 14.1001 57.1631 14.2045 56.5324 14.2045ZM56.7369 12.8494C57.3421 12.8494 57.8534 12.6918 58.271 12.3764C58.6887 12.0568 59.0061 11.6158 59.2235 11.0533C59.4408 10.4865 59.5494 9.83239 59.5494 9.09091C59.5494 8.35795 59.4429 7.71662 59.2298 7.1669C59.0168 6.61293 58.7014 6.18253 58.2838 5.87571C57.8662 5.56463 57.3506 5.40909 56.7369 5.40909C56.0977 5.40909 55.5651 5.57315 55.1389 5.90128C54.7171 6.22514 54.3996 6.66619 54.1865 7.22443C53.9777 7.77841 53.8733 8.40057 53.8733 9.09091C53.8733 9.78977 53.9798 10.4247 54.1929 10.9957C54.4102 11.5625 54.7298 12.0142 55.1517 12.3509C55.5779 12.6832 56.1063 12.8494 56.7369 12.8494ZM68.1212 14.2045C67.1752 14.2045 66.3591 13.9957 65.673 13.5781C64.9912 13.1562 64.4649 12.5682 64.0942 11.8139C63.7277 11.0554 63.5445 10.1733 63.5445 9.16761C63.5445 8.16193 63.7277 7.27557 64.0942 6.50852C64.4649 5.73722 64.9806 5.13636 65.6411 4.70597C66.3058 4.27131 67.0814 4.05398 67.9678 4.05398C68.4791 4.05398 68.9841 4.1392 69.4827 4.30966C69.9813 4.48011 70.4351 4.7571 70.8442 5.14062C71.2533 5.51989 71.5793 6.02273 71.8222 6.64915C72.0651 7.27557 72.1865 8.04687 72.1865 8.96307V9.60227H64.6183V8.2983H70.6524C70.6524 7.74432 70.5416 7.25 70.32 6.81534C70.1027 6.38068 69.7916 6.03764 69.3868 5.78622C68.9862 5.5348 68.5132 5.40909 67.9678 5.40909C67.3669 5.40909 66.847 5.55824 66.4081 5.85653C65.9735 6.15057 65.6389 6.53409 65.4046 7.0071C65.1702 7.48011 65.053 7.98722 65.053 8.52841V9.39773C65.053 10.1392 65.1808 10.7678 65.4365 11.2834C65.6965 11.7947 66.0566 12.1847 66.5168 12.4531C66.977 12.7173 67.5118 12.8494 68.1212 12.8494C68.5175 12.8494 68.8754 12.794 69.195 12.6832C69.5189 12.5682 69.798 12.3977 70.0324 12.1719C70.2668 11.9418 70.4479 11.6562 70.5757 11.3153L72.0331 11.7244C71.8797 12.2188 71.6219 12.6534 71.2597 13.0284C70.8975 13.3991 70.45 13.6889 69.9173 13.8977C69.3847 14.1023 68.786 14.2045 68.1212 14.2045ZM74.4813 14V4.18182H75.9387V5.66477H76.0409C76.2199 5.17898 76.5438 4.7848 77.0125 4.48224C77.4813 4.17969 78.0097 4.02841 78.5977 4.02841C78.7085 4.02841 78.847 4.03054 79.0132 4.0348C79.1794 4.03906 79.3051 4.04545 79.3904 4.05398V5.58807C79.3392 5.57528 79.222 5.55611 79.0388 5.53054C78.8598 5.50071 78.6702 5.4858 78.4699 5.4858C77.9926 5.4858 77.5665 5.58594 77.1915 5.78622C76.8208 5.98224 76.5267 6.25497 76.3094 6.6044C76.0963 6.94957 75.9898 7.34375 75.9898 7.78693V14H74.4813Z" fill="#828B95"/>
</svg>
