<svg width="133" height="18" viewBox="0 0 133 18" fill="none" xmlns="http://www.w3.org/2000/svg">
	<path d="M0.963157 14V0.909091H5.53986C6.45179 0.909091 7.20392 1.06676 7.79625 1.3821C8.38858 1.69318 8.82963 2.11293 9.11941 2.64134C9.40918 3.16548 9.55407 3.74716 9.55407 4.38636C9.55407 4.94886 9.45392 5.41335 9.25364 5.77983C9.05762 6.14631 8.79767 6.43608 8.47381 6.64915C8.15421 6.86222 7.80691 7.01989 7.43191 7.12216V7.25C7.83248 7.27557 8.23517 7.41619 8.64 7.67188C9.04483 7.92756 9.38361 8.29403 9.65634 8.77131C9.92907 9.24858 10.0654 9.83239 10.0654 10.5227C10.0654 11.179 9.91628 11.7692 9.61799 12.2933C9.31969 12.8175 8.84881 13.233 8.20534 13.5398C7.56188 13.8466 6.72452 14 5.69327 14H0.963157ZM2.54838 12.5938H5.69327C6.72878 12.5938 7.46387 12.3935 7.89853 11.9929C8.33745 11.5881 8.55691 11.098 8.55691 10.5227C8.55691 10.0795 8.44398 9.67045 8.21813 9.29545C7.99228 8.91619 7.67054 8.61364 7.25293 8.38778C6.83532 8.15767 6.341 8.04261 5.76998 8.04261H2.54838V12.5938ZM2.54838 6.66193H5.48873C5.966 6.66193 6.3964 6.56818 6.77992 6.38068C7.1677 6.19318 7.47452 5.92898 7.70037 5.58807C7.93049 5.24716 8.04554 4.84659 8.04554 4.38636C8.04554 3.81108 7.84526 3.32315 7.44469 2.92259C7.04412 2.51776 6.40918 2.31534 5.53986 2.31534H2.54838V6.66193ZM14.2554 0.909091V14H12.6702V0.909091H14.2554ZM30.1924 14L25.6924 7.99148H24.0816V14H22.4964V0.909091H24.0816V6.58523H24.7719L30.0134 0.909091H31.9055L26.6128 6.66193L32.0844 14H30.1924ZM37.1965 14.2045C36.3101 14.2045 35.5324 13.9936 34.8634 13.5717C34.1986 13.1499 33.6787 12.5597 33.3037 11.8011C32.933 11.0426 32.7476 10.1562 32.7476 9.14205C32.7476 8.11932 32.933 7.22656 33.3037 6.46378C33.6787 5.70099 34.1986 5.10866 34.8634 4.68679C35.5324 4.26491 36.3101 4.05398 37.1965 4.05398C38.0828 4.05398 38.8584 4.26491 39.5232 4.68679C40.1922 5.10866 40.7121 5.70099 41.0828 6.46378C41.4578 7.22656 41.6453 8.11932 41.6453 9.14205C41.6453 10.1562 41.4578 11.0426 41.0828 11.8011C40.7121 12.5597 40.1922 13.1499 39.5232 13.5717C38.8584 13.9936 38.0828 14.2045 37.1965 14.2045ZM37.1965 12.8494C37.8698 12.8494 38.4237 12.6768 38.8584 12.3317C39.2931 11.9865 39.6148 11.5327 39.8236 10.9702C40.0324 10.4077 40.1368 9.7983 40.1368 9.14205C40.1368 8.4858 40.0324 7.87429 39.8236 7.30753C39.6148 6.74077 39.2931 6.28267 38.8584 5.93324C38.4237 5.58381 37.8698 5.40909 37.1965 5.40909C36.5232 5.40909 35.9692 5.58381 35.5345 5.93324C35.0999 6.28267 34.7781 6.74077 34.5693 7.30753C34.3605 7.87429 34.2561 8.4858 34.2561 9.14205C34.2561 9.7983 34.3605 10.4077 34.5693 10.9702C34.7781 11.5327 35.0999 11.9865 35.5345 12.3317C35.9692 12.6768 36.5232 12.8494 37.1965 12.8494ZM50.5191 8.40057V9.80682H45.0986V8.40057H50.5191ZM45.4566 4.18182V14H43.9481V4.18182H45.4566ZM51.6697 4.18182V14H50.1611V4.18182H51.6697ZM58.4133 14.2045C57.4928 14.2045 56.7002 13.9872 56.0354 13.5526C55.3706 13.1179 54.8593 12.5192 54.5013 11.7564C54.1434 10.9936 53.9644 10.1222 53.9644 9.14205C53.9644 8.14489 54.1476 7.26491 54.5141 6.50213C54.8849 5.73509 55.4005 5.13636 56.061 4.70597C56.7258 4.27131 57.5013 4.05398 58.3877 4.05398C59.078 4.05398 59.7002 4.18182 60.2542 4.4375C60.8082 4.69318 61.262 5.05114 61.6157 5.51136C61.9694 5.97159 62.1888 6.50852 62.2741 7.12216H60.7655C60.6505 6.67472 60.3948 6.27841 59.9985 5.93324C59.6064 5.58381 59.078 5.40909 58.4133 5.40909C57.8252 5.40909 57.3096 5.5625 56.8664 5.86932C56.4275 6.17187 56.0844 6.60014 55.8373 7.15412C55.5944 7.70383 55.4729 8.34943 55.4729 9.09091C55.4729 9.84943 55.5922 10.5099 55.8309 11.0724C56.0738 11.6349 56.4147 12.0717 56.8536 12.3828C57.2968 12.6939 57.8167 12.8494 58.4133 12.8494C58.8053 12.8494 59.1611 12.7812 59.4807 12.6449C59.8003 12.5085 60.0709 12.3125 60.2925 12.0568C60.5141 11.8011 60.6718 11.4943 60.7655 11.1364H62.2741C62.1888 11.7159 61.9779 12.2379 61.6412 12.7024C61.3089 13.1626 60.8678 13.5291 60.3181 13.8018C59.7726 14.0703 59.1377 14.2045 58.4133 14.2045ZM63.7059 5.58807V4.18182H71.6832V5.58807H68.4616V14H66.953V5.58807H63.7059ZM73.8836 17.6818V4.18182H75.341V5.74148H75.52C75.6308 5.57102 75.7842 5.35369 75.9802 5.08949C76.1805 4.82102 76.466 4.58239 76.8367 4.37358C77.2117 4.16051 77.7188 4.05398 78.358 4.05398C79.1847 4.05398 79.9134 4.26065 80.5441 4.67401C81.1748 5.08736 81.667 5.6733 82.0207 6.43182C82.3744 7.19034 82.5512 8.08523 82.5512 9.11648C82.5512 10.1562 82.3744 11.0575 82.0207 11.8203C81.667 12.5788 81.1769 13.1669 80.5505 13.5845C79.9241 13.9979 79.2018 14.2045 78.3836 14.2045C77.7529 14.2045 77.248 14.1001 76.8687 13.8913C76.4894 13.6783 76.1975 13.4375 75.993 13.169C75.7884 12.8963 75.6308 12.6705 75.52 12.4915H75.3921V17.6818H73.8836ZM75.3666 9.09091C75.3666 9.83239 75.4752 10.4865 75.6926 11.0533C75.9099 11.6158 76.2274 12.0568 76.645 12.3764C77.0626 12.6918 77.574 12.8494 78.1791 12.8494C78.8097 12.8494 79.336 12.6832 79.7579 12.3509C80.184 12.0142 80.5036 11.5625 80.7167 10.9957C80.934 10.4247 81.0427 9.78977 81.0427 9.09091C81.0427 8.40057 80.9362 7.77841 80.7231 7.22443C80.5143 6.66619 80.1968 6.22514 79.7707 5.90128C79.3488 5.57315 78.8183 5.40909 78.1791 5.40909C77.5654 5.40909 77.0498 5.56463 76.6322 5.87571C76.2146 6.18253 75.8992 6.61293 75.6862 7.1669C75.4731 7.71662 75.3666 8.35795 75.3666 9.09091ZM85.4724 17.6818C85.2167 17.6818 84.9887 17.6605 84.7884 17.6179C84.5882 17.5795 84.4497 17.5412 84.373 17.5028L84.7565 16.1733C85.123 16.267 85.4468 16.3011 85.7281 16.2756C86.0093 16.25 86.2586 16.1243 86.4759 15.8984C86.6975 15.6768 86.8999 15.3168 87.0832 14.8182L87.3644 14.0511L83.7338 4.18182H85.3701L88.0803 12.0057H88.1826L90.8928 4.18182H92.5292L88.3616 15.4318C88.1741 15.9389 87.9419 16.3587 87.6649 16.6911C87.3879 17.0277 87.0661 17.277 86.6997 17.4389C86.3374 17.6009 85.9284 17.6818 85.4724 17.6818ZM94.5203 14V4.18182H96.0289V8.4517H97.026L100.554 4.18182H102.498L98.5345 8.91193L102.549 14H100.606L97.384 9.85795H96.0289V14H94.5203ZM103.626 5.58807V4.18182H111.603V5.58807H108.381V14H106.873V5.58807H103.626ZM117.282 14.2045C116.396 14.2045 115.618 13.9936 114.949 13.5717C114.285 13.1499 113.765 12.5597 113.39 11.8011C113.019 11.0426 112.834 10.1562 112.834 9.14205C112.834 8.11932 113.019 7.22656 113.39 6.46378C113.765 5.70099 114.285 5.10866 114.949 4.68679C115.618 4.26491 116.396 4.05398 117.282 4.05398C118.169 4.05398 118.944 4.26491 119.609 4.68679C120.278 5.10866 120.798 5.70099 121.169 6.46378C121.544 7.22656 121.731 8.11932 121.731 9.14205C121.731 10.1562 121.544 11.0426 121.169 11.8011C120.798 12.5597 120.278 13.1499 119.609 13.5717C118.944 13.9936 118.169 14.2045 117.282 14.2045ZM117.282 12.8494C117.956 12.8494 118.51 12.6768 118.944 12.3317C119.379 11.9865 119.701 11.5327 119.91 10.9702C120.118 10.4077 120.223 9.7983 120.223 9.14205C120.223 8.4858 120.118 7.87429 119.91 7.30753C119.701 6.74077 119.379 6.28267 118.944 5.93324C118.51 5.58381 117.956 5.40909 117.282 5.40909C116.609 5.40909 116.055 5.58381 115.62 5.93324C115.186 6.28267 114.864 6.74077 114.655 7.30753C114.446 7.87429 114.342 8.4858 114.342 9.14205C114.342 9.7983 114.446 10.4077 114.655 10.9702C114.864 11.5327 115.186 11.9865 115.62 12.3317C116.055 12.6768 116.609 12.8494 117.282 12.8494ZM124.034 17.6818V4.18182H125.491V5.74148H125.67C125.781 5.57102 125.935 5.35369 126.131 5.08949C126.331 4.82102 126.616 4.58239 126.987 4.37358C127.362 4.16051 127.869 4.05398 128.508 4.05398C129.335 4.05398 130.064 4.26065 130.695 4.67401C131.325 5.08736 131.817 5.6733 132.171 6.43182C132.525 7.19034 132.702 8.08523 132.702 9.11648C132.702 10.1562 132.525 11.0575 132.171 11.8203C131.817 12.5788 131.327 13.1669 130.701 13.5845C130.074 13.9979 129.352 14.2045 128.534 14.2045C127.903 14.2045 127.398 14.1001 127.019 13.8913C126.64 13.6783 126.348 13.4375 126.143 13.169C125.939 12.8963 125.781 12.6705 125.67 12.4915H125.543V17.6818H124.034ZM125.517 9.09091C125.517 9.83239 125.626 10.4865 125.843 11.0533C126.06 11.6158 126.378 12.0568 126.795 12.3764C127.213 12.6918 127.724 12.8494 128.329 12.8494C128.96 12.8494 129.486 12.6832 129.908 12.3509C130.334 12.0142 130.654 11.5625 130.867 10.9957C131.084 10.4247 131.193 9.78977 131.193 9.09091C131.193 8.40057 131.087 7.77841 130.873 7.22443C130.665 6.66619 130.347 6.22514 129.921 5.90128C129.499 5.57315 128.969 5.40909 128.329 5.40909C127.716 5.40909 127.2 5.56463 126.783 5.87571C126.365 6.18253 126.05 6.61293 125.837 7.1669C125.623 7.71662 125.517 8.35795 125.517 9.09091Z" fill="#828B95"/>
</svg>
