<svg width="300" height="207" viewBox="0 0 300 207" fill="none" xmlns="http://www.w3.org/2000/svg">
	<path d="M300 0H0V206H300V0Z" fill="white"/>
	<path d="M143.5 12H17.5C14.4624 12 12 14.4624 12 17.5C12 20.5376 14.4624 23 17.5 23H143.5C146.538 23 149 20.5376 149 17.5C149 14.4624 146.538 12 143.5 12Z" fill="#EDEEF0"/>
	<path d="M90 76H15C13.3431 76 12 77.3431 12 79C12 80.6569 13.3431 82 15 82H90C91.6569 82 93 80.6569 93 79C93 77.3431 91.6569 76 90 76Z" fill="#EDEEF0"/>
	<path d="M51 125H15C13.3431 125 12 126.343 12 128C12 129.657 13.3431 131 15 131H51C52.6569 131 54 129.657 54 128C54 126.343 52.6569 125 51 125Z" fill="#EDEEF0"/>
	<path d="M67 174H15C13.3431 174 12 175.343 12 177C12 178.657 13.3431 180 15 180H67C68.6569 180 70 178.657 70 177C70 175.343 68.6569 174 67 174Z" fill="#EDEEF0"/>
	<path d="M277 87.5H16C14.067 87.5 12.5 89.067 12.5 91V105C12.5 106.933 14.067 108.5 16 108.5H277C278.933 108.5 280.5 106.933 280.5 105V91C280.5 89.067 278.933 87.5 277 87.5Z" stroke="#DFE0E3"/>
	<path d="M161 95H22C20.3431 95 19 96.3431 19 98C19 99.6569 20.3431 101 22 101H161C162.657 101 164 99.6569 164 98C164 96.3431 162.657 95 161 95Z" fill="#EDEEF0"/>
	<path d="M269 98C269 96.3431 267.657 95 266 95C264.343 95 263 96.3431 263 98C263 99.6569 264.343 101 266 101C267.657 101 269 99.6569 269 98Z" fill="#EDEEF0"/>
	<path d="M277 136.5H16C14.067 136.5 12.5 138.067 12.5 140V154C12.5 155.933 14.067 157.5 16 157.5H277C278.933 157.5 280.5 155.933 280.5 154V140C280.5 138.067 278.933 136.5 277 136.5Z" stroke="#DFE0E3"/>
	<path d="M97 144H22C20.3431 144 19 145.343 19 147C19 148.657 20.3431 150 22 150H97C98.6569 150 100 148.657 100 147C100 145.343 98.6569 144 97 144Z" fill="#EDEEF0"/>
	<path d="M269 147C269 145.343 267.657 144 266 144C264.343 144 263 145.343 263 147C263 148.657 264.343 150 266 150C267.657 150 269 148.657 269 147Z" fill="#EDEEF0"/>
	<path d="M277 185.5H16C14.067 185.5 12.5 187.067 12.5 189V203C12.5 204.933 14.067 206.5 16 206.5H277C278.933 206.5 280.5 204.933 280.5 203V189C280.5 187.067 278.933 185.5 277 185.5Z" stroke="#DFE0E3"/>
	<path d="M147 193H22C20.3431 193 19 194.343 19 196C19 197.657 20.3431 199 22 199H147C148.657 199 150 197.657 150 196C150 194.343 148.657 193 147 193Z" fill="#EDEEF0"/>
	<path d="M269 196C269 194.343 267.657 193 266 193C264.343 193 263 194.343 263 196C263 197.657 264.343 199 266 199C267.657 199 269 197.657 269 196Z" fill="#EDEEF0"/>
</svg>
