<svg width="79" height="22" viewBox="0 0 79 22" fill="none" xmlns="http://www.w3.org/2000/svg">
	<path d="M1.80735 18V4.90909H6.60139C7.53036 4.90909 8.29954 5.0625 8.90891 5.36932C9.51829 5.67187 9.97425 6.0831 10.2768 6.60298C10.5794 7.11861 10.7306 7.70028 10.7306 8.34801C10.7306 8.89347 10.6305 9.35369 10.4302 9.72869C10.2299 10.0994 9.96147 10.3977 9.62482 10.6236C9.29244 10.8452 8.92596 11.0071 8.52539 11.1094V11.2372C8.96005 11.2585 9.38406 11.3991 9.79741 11.6591C10.215 11.9148 10.5602 12.2791 10.8329 12.7521C11.1056 13.2251 11.242 13.8004 11.242 14.478C11.242 15.147 11.0843 15.7479 10.769 16.2805C10.4579 16.8089 9.97639 17.2287 9.3244 17.5398C8.67241 17.8466 7.83931 18 6.82511 18H1.80735ZM3.78249 16.3061H6.63335C7.57937 16.3061 8.25692 16.1229 8.66602 15.7564C9.07511 15.3899 9.27965 14.9318 9.27965 14.3821C9.27965 13.9687 9.17525 13.5895 8.96644 13.2443C8.75764 12.8991 8.45934 12.6243 8.07156 12.4197C7.68803 12.2152 7.23207 12.1129 6.70366 12.1129H3.78249V16.3061ZM3.78249 10.5724H6.4288C6.87198 10.5724 7.27042 10.4872 7.62411 10.3168C7.98207 10.1463 8.26545 9.90767 8.47425 9.60085C8.68732 9.28977 8.79386 8.9233 8.79386 8.50142C8.79386 7.96023 8.60423 7.50639 8.22496 7.13991C7.8457 6.77344 7.26403 6.5902 6.47994 6.5902H3.78249V10.5724ZM13.4313 18V8.18182H15.3425V18H13.4313ZM14.3965 6.6669C14.0641 6.6669 13.7786 6.55611 13.54 6.33452C13.3056 6.10866 13.1884 5.8402 13.1884 5.52912C13.1884 5.21378 13.3056 4.94531 13.54 4.72372C13.7786 4.49787 14.0641 4.38494 14.3965 4.38494C14.7289 4.38494 15.0123 4.49787 15.2466 4.72372C15.4853 4.94531 15.6046 5.21378 15.6046 5.52912C15.6046 5.8402 15.4853 6.10866 15.2466 6.33452C15.0123 6.55611 14.7289 6.6669 14.3965 6.6669ZM22.4968 8.18182V9.71591H17.1339V8.18182H22.4968ZM18.5721 5.82955H20.4833V15.1172C20.4833 15.4879 20.5387 15.767 20.6495 15.9545C20.7603 16.1378 20.9031 16.2635 21.0778 16.3317C21.2567 16.3956 21.4506 16.4276 21.6594 16.4276C21.8129 16.4276 21.9471 16.4169 22.0621 16.3956C22.1772 16.3743 22.2667 16.3572 22.3306 16.3445L22.6758 17.9233C22.565 17.9659 22.4073 18.0085 22.2028 18.0511C21.9982 18.098 21.7425 18.1236 21.4357 18.1278C20.9329 18.1364 20.4641 18.0469 20.0295 17.8594C19.5948 17.6719 19.2433 17.3821 18.9748 16.9901C18.7063 16.598 18.5721 16.1058 18.5721 15.5135V5.82955ZM24.611 18V8.18182H26.4583V9.74148H26.5605C26.7395 9.21307 27.0549 8.79758 27.5066 8.49503C27.9625 8.18821 28.4782 8.0348 29.0534 8.0348C29.1728 8.0348 29.3134 8.03906 29.4753 8.04759C29.6415 8.05611 29.7715 8.06676 29.8652 8.07955V9.90767C29.7885 9.88636 29.6522 9.86293 29.4561 9.83736C29.2601 9.80753 29.0641 9.79261 28.8681 9.79261C28.4164 9.79261 28.0137 9.88849 27.66 10.0803C27.3105 10.2678 27.0336 10.5298 26.829 10.8665C26.6245 11.1989 26.5222 11.5781 26.5222 12.0043V18H24.611ZM31.5192 18V8.18182H33.4304V18H31.5192ZM32.4844 6.6669C32.152 6.6669 31.8665 6.55611 31.6278 6.33452C31.3935 6.10866 31.2763 5.8402 31.2763 5.52912C31.2763 5.21378 31.3935 4.94531 31.6278 4.72372C31.8665 4.49787 32.152 4.38494 32.4844 4.38494C32.8168 4.38494 33.1001 4.49787 33.3345 4.72372C33.5732 4.94531 33.6925 5.21378 33.6925 5.52912C33.6925 5.8402 33.5732 6.10866 33.3345 6.33452C33.1001 6.55611 32.8168 6.6669 32.4844 6.6669ZM37.5101 8.18182L39.677 12.0043L41.8631 8.18182H43.9533L40.8915 13.0909L43.9789 18H41.8887L39.677 14.331L37.4718 18H35.3752L38.4306 13.0909L35.4135 8.18182H37.5101Z" fill="#333333"/>
	<path d="M46.4917 18V16.5682L50.9213 11.9787C51.3944 11.4801 51.7843 11.0433 52.0911 10.6683C52.4022 10.2891 52.6344 9.92898 52.7878 9.58807C52.9412 9.24716 53.0179 8.88494 53.0179 8.50142C53.0179 8.06676 52.9157 7.69176 52.7111 7.37642C52.5066 7.05682 52.2275 6.81179 51.8738 6.64134C51.5201 6.46662 51.1216 6.37926 50.6784 6.37926C50.2097 6.37926 49.8006 6.47514 49.4512 6.6669C49.1017 6.85866 48.8333 7.12926 48.6458 7.47869C48.4583 7.82812 48.3645 8.23722 48.3645 8.70597H46.4789C46.4789 7.90909 46.6621 7.21236 47.0286 6.61577C47.3951 6.01918 47.8979 5.55682 48.5371 5.22869C49.1763 4.89631 49.9029 4.73011 50.7168 4.73011C51.5392 4.73011 52.2637 4.89418 52.8901 5.2223C53.5208 5.54616 54.013 5.98935 54.3667 6.55185C54.7203 7.11009 54.8972 7.74077 54.8972 8.44389C54.8972 8.92969 54.8056 9.40483 54.6223 9.86932C54.4434 10.3338 54.1301 10.8516 53.6827 11.4226C53.2353 11.9893 52.6131 12.6776 51.8162 13.4872L49.2147 16.2102V16.3061H55.1081V18H46.4917ZM56.9746 15.4432V13.8452L62.6316 4.90909H63.8908V7.26136H63.0918L59.0456 13.6662V13.7685H66.7992V15.4432H56.9746ZM63.1813 18V14.9574L63.1941 14.2287V4.90909H65.0669V18H63.1813Z" fill="#0075FF"/>
	<path d="M73.4426 9.55771H76.2202V8.44658H74.5536V6.50142H73.4426V9.55771Z" fill="#0075FF"/>
	<path fill-rule="evenodd" clip-rule="evenodd" d="M74 4C71.2386 4 69 6.2385 69 8.99993C69 11.7614 71.2386 14 74 14C76.7614 14 79 11.7614 79 8.99993C79 6.2385 76.7614 4 74 4ZM74 12.8888C71.8522 12.8888 70.1112 11.1477 70.1112 8.99993C70.1112 6.85218 71.8522 5.11115 74 5.11115C76.1479 5.11115 77.889 6.85218 77.889 8.99993C77.889 11.1477 76.1479 12.8888 74 12.8888Z" fill="#0075FF"/>
</svg>
