<svg width="108" height="22" viewBox="0 0 108 22" fill="none" xmlns="http://www.w3.org/2000/svg">
	<path d="M1.71751 18V4.90909H9.88015V6.60938H3.69265V10.1889H6.62021C7.5918 10.1889 8.41637 10.3466 9.09393 10.6619C9.77575 10.9773 10.2956 11.4226 10.6536 11.9979C11.0158 12.5732 11.1969 13.2507 11.1969 14.0305C11.1969 14.8104 11.0158 15.4986 10.6536 16.0952C10.2956 16.6918 9.77575 17.1584 9.09393 17.495C8.41637 17.8317 7.5918 18 6.62021 18H1.71751ZM3.69265 16.3381H6.62021C7.18271 16.3381 7.65785 16.2273 8.04563 16.0057C8.43768 15.7841 8.73384 15.4964 8.93413 15.1428C9.13867 14.7891 9.24095 14.4098 9.24095 14.005C9.24095 13.4169 9.01509 12.9119 8.56339 12.4901C8.11168 12.0639 7.46396 11.8509 6.62021 11.8509H3.69265V16.3381ZM15.2495 15.3217L19.5769 8.18182H21.6351V18H19.7623V10.8537L15.454 18H13.3766V8.18182H15.2495V15.3217ZM22.987 9.83097V8.18182H31.2711V9.83097H28.0687V18H26.2022V9.83097H22.987ZM33.2926 21.6818V8.18182H35.1591V9.77344H35.3189C35.4297 9.56889 35.5895 9.33239 35.7983 9.06392C36.0071 8.79545 36.2969 8.56108 36.6676 8.3608C37.0384 8.15625 37.5284 8.05398 38.1378 8.05398C38.9304 8.05398 39.6378 8.25426 40.2599 8.65483C40.8821 9.0554 41.37 9.63281 41.7237 10.3871C42.0817 11.1413 42.2607 12.049 42.2607 13.1101C42.2607 14.1712 42.0838 15.081 41.7301 15.8395C41.3764 16.5937 40.8906 17.1754 40.2727 17.5845C39.6548 17.9893 38.9496 18.1918 38.157 18.1918C37.5604 18.1918 37.0724 18.0916 36.6932 17.8913C36.3182 17.6911 36.0241 17.4567 35.8111 17.1882C35.598 16.9197 35.4339 16.6811 35.3189 16.4723H35.2038V21.6818H33.2926ZM35.1655 13.0909C35.1655 13.7812 35.2656 14.3864 35.4659 14.9062C35.6662 15.4261 35.956 15.8331 36.3352 16.1271C36.7145 16.4169 37.179 16.5618 37.7287 16.5618C38.2997 16.5618 38.777 16.4105 39.1605 16.108C39.544 15.8011 39.8338 15.3857 40.0298 14.8615C40.2301 14.3374 40.3303 13.7472 40.3303 13.0909C40.3303 12.4432 40.2322 11.8615 40.0362 11.3459C39.8445 10.8303 39.5547 10.4233 39.1669 10.125C38.7834 9.8267 38.304 9.67756 37.7287 9.67756C37.1747 9.67756 36.706 9.82031 36.3224 10.1058C35.9432 10.3913 35.6555 10.7898 35.4595 11.3011C35.2635 11.8125 35.1655 12.4091 35.1655 13.0909ZM46.2749 15.3217L50.6023 8.18182H52.6605V18H50.7876V10.8537L46.4794 18H44.402V8.18182H46.2749V15.3217ZM55.2301 18V8.18182H57.1413V12.2983H58.0618L61.3026 8.18182H63.6676L59.8643 12.9567L63.7124 18H61.3409L58.3814 14.0753H57.1413V18H55.2301ZM68.9283 18.1982C67.978 18.1982 67.1598 17.983 66.4737 17.5526C65.7919 17.1179 65.2678 16.5192 64.9013 15.7564C64.5348 14.9936 64.3516 14.12 64.3516 13.1357C64.3516 12.1385 64.5391 11.2585 64.9141 10.4957C65.2891 9.72869 65.8175 9.12997 66.4993 8.69957C67.1811 8.26918 67.9844 8.05398 68.9091 8.05398C69.6548 8.05398 70.3196 8.19247 70.9034 8.46946C71.4872 8.74219 71.9581 9.12571 72.3161 9.62003C72.6783 10.1143 72.8935 10.6918 72.9616 11.3523H71.1016C70.9993 10.892 70.7649 10.4957 70.3984 10.1634C70.0362 9.83097 69.5504 9.66477 68.9411 9.66477C68.4084 9.66477 67.9418 9.8054 67.5412 10.0866C67.1449 10.3636 66.8359 10.7599 66.6143 11.2756C66.3928 11.7869 66.282 12.392 66.282 13.0909C66.282 13.8068 66.3906 14.4247 66.608 14.9446C66.8253 15.4645 67.1321 15.8672 67.5284 16.1527C67.929 16.4382 68.3999 16.581 68.9411 16.581C69.3033 16.581 69.6314 16.5149 69.9254 16.3828C70.2237 16.2464 70.473 16.0526 70.6733 15.8011C70.8778 15.5497 71.0206 15.2472 71.1016 14.8935H72.9616C72.8935 15.5284 72.6868 16.0952 72.3416 16.5938C71.9964 17.0923 71.5341 17.4844 70.9545 17.7699C70.3793 18.0554 69.7038 18.1982 68.9283 18.1982Z" fill="#333333"/>
	<path d="M75.4917 18V16.5682L79.9213 11.9787C80.3944 11.4801 80.7843 11.0433 81.0911 10.6683C81.4022 10.2891 81.6344 9.92898 81.7878 9.58807C81.9412 9.24716 82.0179 8.88494 82.0179 8.50142C82.0179 8.06676 81.9157 7.69176 81.7111 7.37642C81.5066 7.05682 81.2275 6.81179 80.8738 6.64134C80.5201 6.46662 80.1216 6.37926 79.6784 6.37926C79.2097 6.37926 78.8006 6.47514 78.4512 6.6669C78.1017 6.85866 77.8333 7.12926 77.6458 7.47869C77.4583 7.82812 77.3645 8.23722 77.3645 8.70597H75.4789C75.4789 7.90909 75.6621 7.21236 76.0286 6.61577C76.3951 6.01918 76.8979 5.55682 77.5371 5.22869C78.1763 4.89631 78.9029 4.73011 79.7168 4.73011C80.5392 4.73011 81.2637 4.89418 81.8901 5.2223C82.5208 5.54616 83.013 5.98935 83.3667 6.55185C83.7203 7.11009 83.8972 7.74077 83.8972 8.44389C83.8972 8.92969 83.8056 9.40483 83.6223 9.86932C83.4434 10.3338 83.1301 10.8516 82.6827 11.4226C82.2353 11.9893 81.6131 12.6776 80.8162 13.4872L78.2147 16.2102V16.3061H84.1081V18H75.4917ZM85.9746 15.4432V13.8452L91.6316 4.90909H92.8908V7.26136H92.0918L88.0456 13.6662V13.7685H95.7992V15.4432H85.9746ZM92.1813 18V14.9574L92.1941 14.2287V4.90909H94.0669V18H92.1813Z" fill="#0075FF"/>
	<path d="M102.443 9.55771H105.22V8.44658H103.554V6.50142H102.443V9.55771Z" fill="#0075FF"/>
	<path fill-rule="evenodd" clip-rule="evenodd" d="M103 4C100.239 4 98 6.2385 98 8.99993C98 11.7614 100.239 14 103 14C105.761 14 108 11.7614 108 8.99993C108 6.2385 105.761 4 103 4ZM103 12.8888C100.852 12.8888 99.1112 11.1477 99.1112 8.99993C99.1112 6.85218 100.852 5.11115 103 5.11115C105.148 5.11115 106.889 6.85218 106.889 8.99993C106.889 11.1477 105.148 12.8888 103 12.8888Z" fill="#0075FF"/>
</svg>
