<svg width="64" height="70" viewBox="0 0 64 70" fill="none" xmlns="http://www.w3.org/2000/svg">
<path d="M0.615234 15.8632C0.615234 6.7187 8.40284 -0.488752 17.52 0.217774L48.9046 2.6499C57.0764 3.28318 63.3845 10.0989 63.3845 18.2953V50.6324C63.3845 58.6966 57.2722 65.448 49.2478 66.2475L17.8632 69.3741C8.6273 70.2942 0.615234 63.0406 0.615234 53.7591V15.8632Z" fill="#1BCE7B" fill-opacity="0.78"/>
<path d="M1.11523 15.8632C1.11523 7.01007 8.65471 0.032265 17.4813 0.71628L48.8659 3.14841C56.7774 3.76151 62.8845 10.3601 62.8845 18.2953V50.6324C62.8845 58.4397 56.967 64.976 49.1982 65.7499L17.8136 68.8765C8.87201 69.7673 1.11523 62.7449 1.11523 53.7591V15.8632Z" stroke="white" stroke-opacity="0.18"/>
</svg>
