<svg width="32" height="32" viewBox="0 0 32 32" fill="none" xmlns="http://www.w3.org/2000/svg">
<g clip-path="url(#clip0_9476_282587)">
<rect width="32" height="32" fill="#E6F4FF"/>
<path fill-rule="evenodd" clip-rule="evenodd" d="M16.0005 8.88916C15.5159 8.88916 15.0917 9.00019 14.6061 9.28485C14.4511 9.37572 13.8196 9.72028 13.0959 10.1152L12.6347 10.3668C11.7608 10.844 10.8457 11.3451 10.6512 11.4696C10.2871 11.7026 9.90019 11.9847 9.63078 12.4767C9.3893 12.9176 9.27615 13.3163 9.27612 13.8862C9.27612 13.9817 9.27485 14.2143 9.27317 14.5248C9.26714 15.6345 9.25571 17.7391 9.27699 18.1401C9.306 18.6871 9.3868 19.0891 9.63401 19.5291C9.90058 20.0036 10.3104 20.2789 10.6689 20.5179C10.8783 20.6576 11.7776 21.1716 12.6333 21.6524C13.4875 22.1323 14.3849 22.6279 14.5911 22.7231C14.9449 22.8864 15.4812 23.1108 16.0005 23.1108C16.2893 23.1108 16.5336 23.0392 16.7338 22.9649C16.8209 22.9325 16.9077 22.8964 16.984 22.8647L17.0107 22.8537C17.0973 22.8177 17.1751 22.786 17.2549 22.7575C17.3462 22.7249 17.4746 22.6618 17.5939 22.6012C17.7267 22.5337 17.8919 22.4465 18.0766 22.3471C18.4463 22.1481 18.9051 21.8947 19.361 21.6404C19.9399 21.3176 20.5065 20.998 20.8945 20.7791C21.1249 20.6491 21.2924 20.5546 21.3622 20.516C21.8352 20.2545 22.1266 19.944 22.3629 19.5362C22.6056 19.1174 22.7249 18.6858 22.7249 18.1076V13.9135C22.7249 13.2644 22.6038 12.875 22.3615 12.4613C22.113 12.0369 21.7014 11.6701 21.2891 11.4468C21.1899 11.3931 20.8093 11.1784 20.3179 10.9012C20.0248 10.7358 19.6919 10.5481 19.356 10.3591C18.4808 9.8666 17.5532 9.34745 17.3383 9.2458C16.9371 9.05604 16.5095 8.88916 16.0005 8.88916ZM15.2278 10.3453C15.5346 10.1655 15.7455 10.1184 16.0005 10.1184C16.2311 10.1184 16.4574 10.189 16.8127 10.357C16.976 10.4343 17.8446 10.9191 18.7532 11.4304C19.0737 11.6107 19.3957 11.7924 19.684 11.955C20.1212 12.2016 20.4815 12.4048 20.6421 12.4939L16.0005 15.2821L11.3451 12.4856C11.557 12.3581 12.3659 11.9141 13.2238 11.4458L13.6752 11.1994C14.3974 10.8054 15.0547 10.4468 15.2278 10.3453ZM10.5524 13.4434C10.52 13.5696 10.5054 13.7078 10.5054 13.8862C10.5054 14.0022 10.5039 14.2703 10.5021 14.6183C10.496 15.7465 10.4855 17.7156 10.5045 18.075C10.5277 18.5116 10.583 18.7085 10.7057 18.927C10.8091 19.111 10.9716 19.2423 11.3507 19.4951C11.5102 19.6014 12.3527 20.0847 13.2355 20.5807C14.1197 21.0775 14.9573 21.5382 15.1062 21.607C15.2029 21.6516 15.2965 21.6922 15.3861 21.7276V16.3471L10.5524 13.4434ZM16.6154 21.687C16.6846 21.6588 16.7607 21.6287 16.8415 21.5999C16.8461 21.5979 16.8615 21.5912 16.8906 21.5775C16.9279 21.56 16.9767 21.536 17.037 21.5053C17.1574 21.4442 17.313 21.3621 17.494 21.2646C17.8556 21.0701 18.308 20.8201 18.7623 20.5668C19.3255 20.2527 19.8996 19.9289 20.2942 19.7064C20.5286 19.5741 20.6998 19.4776 20.7674 19.4402C21.0318 19.2941 21.1667 19.1488 21.2994 18.9198C21.4257 18.7019 21.4956 18.4856 21.4956 18.1076V13.9135C21.4956 13.7085 21.4808 13.5612 21.4525 13.441L16.6154 16.3468V21.687Z" fill="#0075FF"/>
</g>
<defs>
<clipPath id="clip0_9476_282587">
<path d="M0 16C0 7.16344 7.16344 0 16 0C24.8366 0 32 7.16344 32 16C32 24.8366 24.8366 32 16 32C7.16344 32 0 24.8366 0 16Z" fill="white"/>
</clipPath>
</defs>
</svg>
