<svg width="168" height="17" viewBox="0 0 168 17" fill="none" xmlns="http://www.w3.org/2000/svg">
<g clip-path="url(#clip0_1310_95363)">
<g clip-path="url(#clip1_1310_95363)">
<path d="M0 7C0 6.44772 0.447715 6 1 6C1.55228 6 2 6.44772 2 7V10C2 10.5523 1.55228 11 1 11C0.447715 11 0 10.5523 0 10V7Z" fill="#11A9D9"/>
<path d="M3 7C3 6.44772 3.44772 6 4 6C4.55228 6 5 6.44772 5 7V10C5 10.5523 4.55228 11 4 11C3.44772 11 3 10.5523 3 10V7Z" fill="#11A9D9"/>
<path d="M6 7C6 6.44772 6.44772 6 7 6C7.55228 6 8 6.44772 8 7V10C8 10.5523 7.55228 11 7 11C6.44772 11 6 10.5523 6 10V7Z" fill="#11A9D9"/>
<path d="M9 5C9 4.44772 9.44772 4 10 4C10.5523 4 11 4.44772 11 5V12C11 12.5523 10.5523 13 10 13C9.44772 13 9 12.5523 9 12V5Z" fill="#11A9D9"/>
<path d="M12 2.5C12 1.94772 12.4477 1.5 13 1.5C13.5523 1.5 14 1.94772 14 2.5V14.5C14 15.0523 13.5523 15.5 13 15.5C12.4477 15.5 12 15.0523 12 14.5V2.5Z" fill="#11A9D9"/>
<path d="M15 5C15 4.44772 15.4477 4 16 4C16.5523 4 17 4.44772 17 5V12C17 12.5523 16.5523 13 16 13C15.4477 13 15 12.5523 15 12V5Z" fill="#11A9D9"/>
<path d="M18 4.5C18 3.94772 18.4477 3.5 19 3.5C19.5523 3.5 20 3.94772 20 4.5V12.5C20 13.0523 19.5523 13.5 19 13.5C18.4477 13.5 18 13.0523 18 12.5V4.5Z" fill="#11A9D9"/>
<path d="M21 5C21 4.44772 21.4477 4 22 4C22.5523 4 23 4.44772 23 5V12C23 12.5523 22.5523 13 22 13C21.4477 13 21 12.5523 21 12V5Z" fill="#11A9D9"/>
<path d="M24 7C24 6.44772 24.4477 6 25 6C25.5523 6 26 6.44772 26 7V10C26 10.5523 25.5523 11 25 11C24.4477 11 24 10.5523 24 10V7Z" fill="#11A9D9"/>
<path d="M27 7C27 6.44772 27.4477 6 28 6C28.5523 6 29 6.44772 29 7V10C29 10.5523 28.5523 11 28 11C27.4477 11 27 10.5523 27 10V7Z" fill="#11A9D9"/>
<path d="M30 2C30 1.44772 30.4477 1 31 1C31.5523 1 32 1.44772 32 2V15C32 15.5523 31.5523 16 31 16C30.4477 16 30 15.5523 30 15V2Z" fill="#11A9D9"/>
<path d="M33 4.5C33 3.94772 33.4477 3.5 34 3.5C34.5523 3.5 35 3.94772 35 4.5V12.5C35 13.0523 34.5523 13.5 34 13.5C33.4477 13.5 33 13.0523 33 12.5V4.5Z" fill="#11A9D9"/>
<path d="M36 5C36 4.44772 36.4477 4 37 4C37.5523 4 38 4.44772 38 5V12C38 12.5523 37.5523 13 37 13C36.4477 13 36 12.5523 36 12V5Z" fill="#11A9D9"/>
<path d="M39 2.5C39 1.94772 39.4477 1.5 40 1.5C40.5523 1.5 41 1.94772 41 2.5V14.5C41 15.0523 40.5523 15.5 40 15.5C39.4477 15.5 39 15.0523 39 14.5V2.5Z" fill="#11A9D9"/>
<path d="M42 7C42 6.44772 42.4477 6 43 6C43.5523 6 44 6.44772 44 7V10C44 10.5523 43.5523 11 43 11C42.4477 11 42 10.5523 42 10V7Z" fill="#11A9D9"/>
<path d="M45 6C45 5.44772 45.4477 5 46 5C46.5523 5 47 5.44772 47 6V11C47 11.5523 46.5523 12 46 12C45.4477 12 45 11.5523 45 11V6Z" fill="#11A9D9"/>
<path d="M48 5C48 4.44772 48.4477 4 49 4C49.5523 4 50 4.44772 50 5V12C50 12.5523 49.5523 13 49 13C48.4477 13 48 12.5523 48 12V5Z" fill="#11A9D9"/>
<path d="M51 6C51 5.44772 51.4477 5 52 5C52.5523 5 53 5.44772 53 6V11C53 11.5523 52.5523 12 52 12C51.4477 12 51 11.5523 51 11V6Z" fill="#11A9D9"/>
<path d="M54 4C54 3.44771 54.4477 3 55 3C55.5523 3 56 3.44772 56 4V13C56 13.5523 55.5523 14 55 14C54.4477 14 54 13.5523 54 13V4Z" fill="#11A9D9"/>
<path d="M57 8C57 7.44772 57.4477 7 58 7C58.5523 7 59 7.44772 59 8V9C59 9.55228 58.5523 10 58 10C57.4477 10 57 9.55228 57 9V8Z" fill="#11A9D9"/>
<path d="M60 7C60 6.44772 60.4477 6 61 6C61.5523 6 62 6.44772 62 7V10C62 10.5523 61.5523 11 61 11C60.4477 11 60 10.5523 60 10V7Z" fill="#11A9D9"/>
<path d="M63 5C63 4.44772 63.4477 4 64 4C64.5523 4 65 4.44772 65 5V12C65 12.5523 64.5523 13 64 13C63.4477 13 63 12.5523 63 12V5Z" fill="#11A9D9"/>
<path d="M66 7C66 6.44772 66.4477 6 67 6C67.5523 6 68 6.44772 68 7V10C68 10.5523 67.5523 11 67 11C66.4477 11 66 10.5523 66 10V7Z" fill="#11A9D9"/>
<path d="M69 6C69 5.44772 69.4477 5 70 5C70.5523 5 71 5.44772 71 6V11C71 11.5523 70.5523 12 70 12C69.4477 12 69 11.5523 69 11V6Z" fill="#11A9D9"/>
<path d="M72 7C72 6.44772 72.4477 6 73 6C73.5523 6 74 6.44772 74 7V10C74 10.5523 73.5523 11 73 11C72.4477 11 72 10.5523 72 10V7Z" fill="#11A9D9"/>
<path d="M75 5C75 4.44772 75.4477 4 76 4C76.5523 4 77 4.44772 77 5V12C77 12.5523 76.5523 13 76 13C75.4477 13 75 12.5523 75 12V5Z" fill="#11A9D9"/>
<path d="M78 4.5C78 3.94772 78.4477 3.5 79 3.5C79.5523 3.5 80 3.94772 80 4.5V12.5C80 13.0523 79.5523 13.5 79 13.5C78.4477 13.5 78 13.0523 78 12.5V4.5Z" fill="#11A9D9"/>
<path d="M81 8C81 7.44772 81.4477 7 82 7C82.5523 7 83 7.44772 83 8V9C83 9.55228 82.5523 10 82 10C81.4477 10 81 9.55228 81 9V8Z" fill="#11A9D9"/>
<path d="M84 6.5C84 5.94772 84.4477 5.5 85 5.5C85.5523 5.5 86 5.94772 86 6.5V10.5C86 11.0523 85.5523 11.5 85 11.5C84.4477 11.5 84 11.0523 84 10.5V6.5Z" fill="#11A9D9"/>
<path d="M87 5C87 4.44772 87.4477 4 88 4C88.5523 4 89 4.44772 89 5V12C89 12.5523 88.5523 13 88 13C87.4477 13 87 12.5523 87 12V5Z" fill="#11A9D9"/>
<path d="M90 1C90 0.447715 90.4477 0 91 0C91.5523 0 92 0.447715 92 1V16C92 16.5523 91.5523 17 91 17C90.4477 17 90 16.5523 90 16V1Z" fill="#11A9D9"/>
<path d="M93 1C93 0.447715 93.4477 0 94 0C94.5523 0 95 0.447715 95 1V16C95 16.5523 94.5523 17 94 17C93.4477 17 93 16.5523 93 16V1Z" fill="#11A9D9"/>
<path d="M96 7C96 6.44772 96.4477 6 97 6C97.5523 6 98 6.44772 98 7V10C98 10.5523 97.5523 11 97 11C96.4477 11 96 10.5523 96 10V7Z" fill="#11A9D9"/>
<path d="M99 7C99 6.44772 99.4477 6 100 6C100.552 6 101 6.44772 101 7V10C101 10.5523 100.552 11 100 11C99.4477 11 99 10.5523 99 10V7Z" fill="#11A9D9"/>
<path d="M102 5C102 4.44772 102.448 4 103 4C103.552 4 104 4.44772 104 5V12C104 12.5523 103.552 13 103 13C102.448 13 102 12.5523 102 12V5Z" fill="#11A9D9"/>
<path d="M105 5C105 4.44772 105.448 4 106 4C106.552 4 107 4.44772 107 5V12C107 12.5523 106.552 13 106 13C105.448 13 105 12.5523 105 12V5Z" fill="#11A9D9"/>
<path d="M108 7C108 6.44772 108.448 6 109 6C109.552 6 110 6.44772 110 7V10C110 10.5523 109.552 11 109 11C108.448 11 108 10.5523 108 10V7Z" fill="#11A9D9"/>
<path d="M111 2.5C111 1.94772 111.448 1.5 112 1.5C112.552 1.5 113 1.94772 113 2.5V14.5C113 15.0523 112.552 15.5 112 15.5C111.448 15.5 111 15.0523 111 14.5V2.5Z" fill="#11A9D9"/>
<path d="M114 2.5C114 1.94772 114.448 1.5 115 1.5C115.552 1.5 116 1.94772 116 2.5V14.5C116 15.0523 115.552 15.5 115 15.5C114.448 15.5 114 15.0523 114 14.5V2.5Z" fill="#11A9D9"/>
<path d="M117 3C117 2.44772 117.448 2 118 2C118.552 2 119 2.44772 119 3V14C119 14.5523 118.552 15 118 15C117.448 15 117 14.5523 117 14V3Z" fill="#11A9D9"/>
<path d="M120 3C120 2.44772 120.448 2 121 2C121.552 2 122 2.44772 122 3V14C122 14.5523 121.552 15 121 15C120.448 15 120 14.5523 120 14V3Z" fill="#11A9D9"/>
<path d="M123 7C123 6.44772 123.448 6 124 6C124.552 6 125 6.44772 125 7V10C125 10.5523 124.552 11 124 11C123.448 11 123 10.5523 123 10V7Z" fill="#11A9D9"/>
<path d="M126 2.5C126 1.94772 126.448 1.5 127 1.5C127.552 1.5 128 1.94772 128 2.5V14.5C128 15.0523 127.552 15.5 127 15.5C126.448 15.5 126 15.0523 126 14.5V2.5Z" fill="#11A9D9"/>
<path d="M129 4.5C129 3.94772 129.448 3.5 130 3.5C130.552 3.5 131 3.94772 131 4.5V12.5C131 13.0523 130.552 13.5 130 13.5C129.448 13.5 129 13.0523 129 12.5V4.5Z" fill="#11A9D9"/>
<path d="M132 2.5C132 1.94772 132.448 1.5 133 1.5C133.552 1.5 134 1.94772 134 2.5V14.5C134 15.0523 133.552 15.5 133 15.5C132.448 15.5 132 15.0523 132 14.5V2.5Z" fill="#11A9D9"/>
<path d="M135 5C135 4.44772 135.448 4 136 4C136.552 4 137 4.44772 137 5V12C137 12.5523 136.552 13 136 13C135.448 13 135 12.5523 135 12V5Z" fill="#11A9D9"/>
<path d="M138 8C138 7.44772 138.448 7 139 7C139.552 7 140 7.44772 140 8V9C140 9.55228 139.552 10 139 10C138.448 10 138 9.55228 138 9V8Z" fill="#11A9D9"/>
<path d="M141 5C141 4.44772 141.448 4 142 4C142.552 4 143 4.44772 143 5V12C143 12.5523 142.552 13 142 13C141.448 13 141 12.5523 141 12V5Z" fill="#11A9D9"/>
<path d="M144 6.5C144 5.94772 144.448 5.5 145 5.5C145.552 5.5 146 5.94772 146 6.5V10.5C146 11.0523 145.552 11.5 145 11.5C144.448 11.5 144 11.0523 144 10.5V6.5Z" fill="#11A9D9"/>
<path d="M147 3C147 2.44772 147.448 2 148 2C148.552 2 149 2.44772 149 3V14C149 14.5523 148.552 15 148 15C147.448 15 147 14.5523 147 14V3Z" fill="#11A9D9"/>
<path d="M150 1C150 0.447715 150.448 0 151 0C151.552 0 152 0.447715 152 1V16C152 16.5523 151.552 17 151 17C150.448 17 150 16.5523 150 16V1Z" fill="#11A9D9"/>
<path d="M153 5C153 4.44772 153.448 4 154 4C154.552 4 155 4.44772 155 5V12C155 12.5523 154.552 13 154 13C153.448 13 153 12.5523 153 12V5Z" fill="#11A9D9"/>
<path d="M156 4.5C156 3.94772 156.448 3.5 157 3.5C157.552 3.5 158 3.94772 158 4.5V12.5C158 13.0523 157.552 13.5 157 13.5C156.448 13.5 156 13.0523 156 12.5V4.5Z" fill="#11A9D9"/>
<path d="M159 5C159 4.44772 159.448 4 160 4C160.552 4 161 4.44772 161 5V12C161 12.5523 160.552 13 160 13C159.448 13 159 12.5523 159 12V5Z" fill="#11A9D9"/>
<path d="M162 7C162 6.44772 162.448 6 163 6C163.552 6 164 6.44772 164 7V10C164 10.5523 163.552 11 163 11C162.448 11 162 10.5523 162 10V7Z" fill="#11A9D9"/>
<path d="M165 4C165 3.44771 165.448 3 166 3C166.552 3 167 3.44772 167 4V13C167 13.5523 166.552 14 166 14C165.448 14 165 13.5523 165 13V4Z" fill="#11A9D9"/>
</g>
</g>
<defs>
<clipPath id="clip0_1310_95363">
<rect width="168" height="17" fill="white"/>
</clipPath>
<clipPath id="clip1_1310_95363">
<rect width="309" height="17" fill="white"/>
</clipPath>
</defs>
</svg>
