<svg width="16" height="16" viewBox="0 0 16 16" fill="none" xmlns="http://www.w3.org/2000/svg">
	<path d="M8.00024 2.58252C10.9919 2.58277 13.4172 5.00881 13.4172 8.00049C13.417 10.992 10.9917 13.4172 8.00024 13.4175C5.00857 13.4175 2.58252 10.9921 2.58228 8.00049C2.58228 5.00866 5.00841 2.58252 8.00024 2.58252ZM8.00024 3.51611C5.52388 3.51611 3.51587 5.52412 3.51587 8.00049C3.51612 10.4766 5.52403 12.4839 8.00024 12.4839C10.4762 12.4836 12.4834 10.4765 12.4836 8.00049C12.4836 5.52428 10.4764 3.51636 8.00024 3.51611ZM8.0022 6.8667C8.25993 6.8667 8.46899 7.07576 8.46899 7.3335V10.6665C8.46899 10.9242 8.25993 11.1333 8.0022 11.1333C7.74455 11.1332 7.5354 10.9242 7.5354 10.6665V7.3335C7.5354 7.07583 7.74455 6.8668 8.0022 6.8667ZM8.00317 5.1333C8.29758 5.1333 8.53613 5.37216 8.53638 5.6665V5.71533C8.53638 6.00988 8.29773 6.24853 8.00317 6.24854C7.70869 6.24846 7.46998 6.00984 7.46997 5.71533V5.6665C7.47022 5.37221 7.70883 5.13337 8.00317 5.1333Z" fill="#A8ADB4"/>
</svg>