<svg xmlns="http://www.w3.org/2000/svg" width="18" height="18" viewBox="0 0 18 18" fill="none">
	<path d="M9 3.43262C12.1872 3.43263 14.7714 6.01589 14.7715 9.20312C14.7715 12.3904 12.1873 14.9746 9 14.9746C5.81271 14.9746 3.22852 12.3904 3.22852 9.20312C3.22857 6.01588 5.81275 3.43262 9 3.43262ZM9 4.33203C6.3098 4.33203 4.12896 6.51294 4.12891 9.20312C4.12891 11.8934 6.30977 14.0742 9 14.0742C11.6902 14.0742 13.8711 11.8933 13.8711 9.20312C13.871 6.51295 11.6902 4.33204 9 4.33203ZM8.89258 5.89648C9.14109 5.89648 9.34275 6.09817 9.34277 6.34668V8.9248H11.4824C11.7308 8.92483 11.9325 9.12662 11.9326 9.375C11.9326 9.62351 11.7309 9.82517 11.4824 9.8252H8.89258C8.77325 9.82518 8.6586 9.77774 8.57422 9.69336C8.48993 9.60898 8.44238 9.49427 8.44238 9.375V6.34668C8.44241 6.09819 8.64409 5.89651 8.89258 5.89648ZM10.2275 1.79395C10.476 1.79395 10.6776 1.99575 10.6777 2.24414C10.6777 2.49267 10.4761 2.69434 10.2275 2.69434H7.77246C7.52393 2.69434 7.32227 2.49267 7.32227 2.24414C7.32242 1.99575 7.52403 1.79395 7.77246 1.79395H10.2275Z" fill="#0075FF"/>
</svg>